<?xml version="1.0" encoding="UTF-8" standalone="no"?>
<svg
   id="Layer_1"
   data-name="Layer 1"
   viewBox="0 0 613.73 382.66"
   version="1.1"
   sodipodi:docname="BSDFthetaphiangles.svg"
   inkscape:version="1.2.1 (9c6d41e410, 2022-07-14)"
   xmlns:inkscape="http://www.inkscape.org/namespaces/inkscape"
   xmlns:sodipodi="http://sodipodi.sourceforge.net/DTD/sodipodi-0.dtd"
   xmlns="http://www.w3.org/2000/svg"
   xmlns:svg="http://www.w3.org/2000/svg">
  <sodipodi:namedview
     id="namedview77"
     pagecolor="#ffffff"
     bordercolor="#666666"
     borderopacity="1.0"
     inkscape:showpageshadow="2"
     inkscape:pageopacity="0.0"
     inkscape:pagecheckerboard="0"
     inkscape:deskcolor="#d1d1d1"
     showgrid="false"
     inkscape:zoom="3.4887827"
     inkscape:cx="436.54195"
     inkscape:cy="194.62376"
     inkscape:window-width="2560"
     inkscape:window-height="1494"
     inkscape:window-x="-11"
     inkscape:window-y="-11"
     inkscape:window-maximized="1"
     inkscape:current-layer="Layer_1" />
  <defs
     id="defs4">
    <style
       id="style2">.cls-1,.cls-5,.cls-6{fill:none;}.cls-1,.cls-4,.cls-5,.cls-6{stroke:#000;stroke-miterlimit:10;}.cls-2{fill:#a6a6a6;}.cls-3{fill:#666;}.cls-5{stroke-dasharray:2;}.cls-6{stroke-width:0.5px;}</style>
    <clipPath
       id="clipPath4488">
      <path
         clip-rule="nonzero"
         d="M 0,0 H 5 V 6.226563 H 0 Z m 0,0"
         id="path8606" />
    </clipPath>
    <clipPath
       id="clipPath2729">
      <path
         clip-rule="nonzero"
         d="M 0,0 H 5 V 4.289063 H 0 Z m 0,0"
         id="path9143" />
    </clipPath>
    <clipPath
       id="clipPath2010">
      <path
         clip-rule="nonzero"
         d="M 0,0 H 6.515625 V 6.226563 H 0 Z m 0,0"
         id="path8318" />
    </clipPath>
    <clipPath
       id="clipPath519">
      <path
         clip-rule="nonzero"
         d="M 0,0 H 4.953125 V 6.917969 H 0 Z m 0,0"
         id="path8249" />
    </clipPath>
    <clipPath
       id="clipPath1650">
      <path
         clip-rule="nonzero"
         d="M 0,0 H 13 V 6.917969 H 0 Z m 0,0"
         id="path606" />
    </clipPath>
    <clipPath
       id="clipPath5859">
      <path
         clip-rule="nonzero"
         d="m 14,0 h 4.847656 V 6.917969 H 14 Z m 0,0"
         id="path6844" />
    </clipPath>
  </defs>
  <title
     id="title6">BSDF theta phi angles</title>
  <path
     class="cls-1"
     d="M130.3,224a178.72,178.72,0,0,1,357.44,0"
     id="path8" />
  <ellipse
     class="cls-1"
     cx="308.71"
     cy="224.1"
     rx="177.94"
     ry="48.82"
     id="ellipse10" />
  <line
     class="cls-1"
     x1="307.53"
     y1="226.27"
     x2="307.53"
     y2="54.68"
     id="line12" />
  <polygon
     points="313.03 59.59 307.53 55.33 302.02 59.59 307.53 46.58 313.03 59.59"
     id="polygon14" />
  <polygon
     class="cls-2"
     points="311.83 58.03 307.53 47.89 307.53 54.7 311.83 58.03"
     id="polygon16" />
  <polygon
     class="cls-3"
     points="303.23 58.03 307.53 47.89 307.53 54.7 303.23 58.03"
     id="polygon18" />
  <circle
     class="cls-4"
     cx="307.77"
     cy="225.68"
     r="2.25"
     id="circle22" />
  <line
     class="cls-1"
     x1="307.55"
     y1="225.53"
     x2="478.37"
     y2="225.53"
     id="line24" />
  <polygon
     points="473.46 231.03 477.71 225.53 473.46 220.03 486.47 225.53 473.46 231.03"
     id="polygon26" />
  <polygon
     class="cls-2"
     points="475.01 229.83 485.16 225.53 478.35 225.53 475.01 229.83"
     id="polygon28" />
  <polygon
     class="cls-3"
     points="475.01 221.23 485.16 225.53 478.35 225.53 475.01 221.23"
     id="polygon30" />
  <line
     class="cls-1"
     x1="309.09"
     y1="223.36"
     x2="267.4"
     y2="265.06"
     id="line32" />
  <polygon
     points="266.98 257.69 267.86 264.6 274.76 265.48 261.67 270.79 266.98 257.69"
     id="polygon34" />
  <polygon
     class="cls-2"
     points="266.72 259.64 262.59 269.86 267.41 265.04 266.72 259.64"
     id="polygon36" />
  <polygon
     class="cls-3"
     points="272.8 265.72 262.59 269.86 267.41 265.04 272.8 265.72"
     id="polygon38" />
  <line
     class="cls-1"
     x1="308.66"
     y1="224.42"
     x2="391.56"
     y2="126.98"
     id="line44" />
  <polygon
     points="392.57 134.29 391.13 127.48 384.18 127.15 396.81 120.81 392.57 134.29"
     id="polygon46" />
  <polygon
     class="cls-2"
     points="392.66 132.32 395.96 121.81 391.54 127 392.66 132.32"
     id="polygon48" />
  <polygon
     class="cls-3"
     points="386.11 126.75 395.96 121.81 391.54 127 386.11 126.75"
     id="polygon50" />
  <line
     class="cls-5"
     x1="396.81"
     y1="247.1"
     x2="307.94"
     y2="225.81"
     id="line52" />
  <line
     class="cls-5"
     x1="396.81"
     y1="120.81"
     x2="396.81"
     y2="247.1"
     id="line54" />
  <path
     class="cls-1"
     d="M366.87,224.93a60.6,60.6,0,0,1,.58,8.36c0,1.94,0,4.43-.2,6.32"
     id="path56" />
  <path
     class="cls-1"
     d="M307.71,147.77a77.23,77.23,0,0,1,50.2,18.43"
     id="path62" />
  <polygon
     class="cls-6"
     points="613.15 113.41 212.03 111.22 0.58 333.71 401.7 335.91 613.15 113.41"
     id="polygon64" />
  <line
     class="cls-5"
     x1="396.3"
     y1="121.01"
     x2="307.44"
     y2="99.73"
     id="line66" />
  <g
     inkscape:label=""
     transform="matrix(1.5,0,0,1.5,490.80899,220.53255)"
     id="g263">
    <g
       fill="#000000"
       fill-opacity="1"
       id="g12"
       transform="matrix(1.33333,0,0,1.33333,-0.395833,0.156333)">
      <g
         id="use10"
         transform="translate(0,4.289)">
        <path
           d="M 3.328125,-3.015625 C 3.390625,-3.265625 3.625,-4.1875 4.3125,-4.1875 c 0.046875,0 0.296875,0 0.5,0.125 C 4.53125,-4 4.34375,-3.765625 4.34375,-3.515625 c 0,0.15625 0.109375,0.34375 0.375,0.34375 0.21875,0 0.53125,-0.171875 0.53125,-0.578125 0,-0.515625 -0.578125,-0.65625 -0.921875,-0.65625 -0.578125,0 -0.921875,0.53125 -1.046875,0.75 -0.25,-0.65625 -0.78125,-0.75 -1.078125,-0.75 -1.03125,0 -1.609375,1.28125 -1.609375,1.53125 0,0.109375 0.109375,0.109375 0.125,0.109375 0.078125,0 0.109375,-0.03125 0.125,-0.109375 0.34375,-1.0625 1,-1.3125 1.34375,-1.3125 0.1875,0 0.53125,0.09375 0.53125,0.671875 0,0.3125 -0.171875,0.96875 -0.53125,2.375 -0.15625,0.609375 -0.515625,1.03125 -0.953125,1.03125 -0.0625,0 -0.28125,0 -0.5,-0.125 0.25,-0.0625 0.46875,-0.265625 0.46875,-0.546875 0,-0.265625 -0.21875,-0.34375 -0.359375,-0.34375 -0.3125,0 -0.546875,0.25 -0.546875,0.578125 0,0.453125 0.484375,0.65625 0.921875,0.65625 0.671875,0 1.03125,-0.703125 1.046875,-0.75 0.125,0.359375 0.484375,0.75 1.078125,0.75 1.03125,0 1.59375,-1.28125 1.59375,-1.53125 0,-0.109375 -0.078125,-0.109375 -0.109375,-0.109375 -0.09375,0 -0.109375,0.046875 -0.140625,0.109375 -0.328125,1.078125 -1,1.3125 -1.3125,1.3125 -0.390625,0 -0.546875,-0.3125 -0.546875,-0.65625 0,-0.21875 0.046875,-0.4375 0.15625,-0.875 z m 0,0"
           id="path18" />
      </g>
    </g>
  </g>
  <g
     inkscape:label=""
     transform="matrix(1.5,0,0,1.5,255.48336,278.71904)"
     id="g361">
    <g
       clip-path="url(#clipPath4488)"
       id="g17"
       transform="matrix(1.33333,0,0,1.33333,-0.395833,0.155)">
      <g
         fill="#000000"
         fill-opacity="1"
         id="g15">
        <g
           id="use13"
           transform="translate(0,4.29)">
          <path
             d="m 4.84375,-3.796875 c 0.046875,-0.140625 0.046875,-0.15625 0.046875,-0.234375 0,-0.171875 -0.140625,-0.265625 -0.296875,-0.265625 -0.09375,0 -0.25,0.0625 -0.34375,0.203125 -0.015625,0.0625 -0.109375,0.359375 -0.140625,0.546875 -0.078125,0.25 -0.140625,0.53125 -0.203125,0.796875 l -0.453125,1.796875 c -0.03125,0.140625 -0.46875,0.84375 -1.125,0.84375 -0.5,0 -0.609375,-0.4375 -0.609375,-0.8125 C 1.71875,-1.375 1.890625,-2 2.21875,-2.875 2.375,-3.28125 2.421875,-3.390625 2.421875,-3.59375 c 0,-0.4375 -0.3125,-0.8125 -0.8125,-0.8125 -0.953125,0 -1.3125,1.453125 -1.3125,1.53125 0,0.109375 0.09375,0.109375 0.109375,0.109375 0.109375,0 0.109375,-0.03125 0.15625,-0.1875 0.28125,-0.9375 0.671875,-1.234375 1.015625,-1.234375 0.078125,0 0.25,0 0.25,0.3125 0,0.25 -0.109375,0.515625 -0.171875,0.703125 -0.40625,1.0625 -0.578125,1.625 -0.578125,2.09375 0,0.890625 0.625,1.1875 1.21875,1.1875 0.390625,0 0.71875,-0.171875 1,-0.453125 -0.125,0.515625 -0.25,1.015625 -0.640625,1.546875 -0.265625,0.328125 -0.640625,0.625 -1.09375,0.625 -0.140625,0 -0.59375,-0.03125 -0.765625,-0.421875 0.15625,0 0.296875,0 0.421875,-0.125 C 1.328125,1.203125 1.421875,1.0625 1.421875,0.875 1.421875,0.5625 1.15625,0.53125 1.0625,0.53125 0.828125,0.53125 0.5,0.6875 0.5,1.171875 c 0,0.5 0.4375,0.875 1.0625,0.875 1.015625,0 2.046875,-0.90625 2.328125,-2.03125 z m 0,0"
             id="path23" />
        </g>
      </g>
    </g>
  </g>
  <g
     inkscape:label=""
     transform="matrix(1.5,0,0,1.5,304.78422,30.781551)"
     id="g480">
    <g
       clip-path="url(#clipPath2729)"
       id="g478"
       transform="matrix(1.33333,0,0,1.33333,-0.5625,0.156333)">
      <g
         fill="#000000"
         fill-opacity="1"
         id="g476">
        <g
           id="g474"
           transform="translate(0,4.289)">
          <path
             d="m 1.328125,-0.828125 c 0.53125,-0.578125 0.828125,-0.828125 1.1875,-1.140625 0,0 0.609375,-0.53125 0.96875,-0.890625 C 4.4375,-3.78125 4.65625,-4.265625 4.65625,-4.3125 c 0,-0.09375 -0.09375,-0.09375 -0.109375,-0.09375 -0.078125,0 -0.09375,0.015625 -0.15625,0.109375 -0.296875,0.484375 -0.5,0.640625 -0.734375,0.640625 -0.25,0 -0.359375,-0.15625 -0.515625,-0.328125 -0.1875,-0.21875 -0.359375,-0.421875 -0.6875,-0.421875 -0.75,0 -1.203125,0.921875 -1.203125,1.140625 0,0.046875 0.03125,0.109375 0.109375,0.109375 0.09375,0 0.109375,-0.046875 0.140625,-0.109375 0.1875,-0.46875 0.765625,-0.46875 0.84375,-0.46875 0.203125,0 0.390625,0.0625 0.625,0.140625 0.40625,0.15625 0.515625,0.15625 0.765625,0.15625 -0.359375,0.421875 -1.1875,1.140625 -1.375,1.296875 l -0.90625,0.84375 C 0.78125,-0.625 0.421875,-0.0625 0.421875,0.015625 c 0,0.09375 0.109375,0.09375 0.125,0.09375 0.078125,0 0.09375,-0.015625 0.15625,-0.125 0.234375,-0.359375 0.53125,-0.625 0.859375,-0.625 0.21875,0 0.328125,0.09375 0.578125,0.375 0.15625,0.21875 0.34375,0.375 0.625,0.375 1,0 1.578125,-1.265625 1.578125,-1.53125 0,-0.046875 -0.046875,-0.109375 -0.125,-0.109375 -0.09375,0 -0.109375,0.0625 -0.140625,0.140625 C 3.84375,-0.75 3.203125,-0.5625 2.875,-0.5625 c -0.1875,0 -0.375,-0.0625 -0.578125,-0.125 -0.34375,-0.125 -0.5,-0.171875 -0.703125,-0.171875 -0.015625,0 -0.171875,0 -0.265625,0.03125 z m 0,0"
             id="path472" />
        </g>
      </g>
    </g>
  </g>
  <g
     inkscape:label=""
     transform="matrix(1.5,0,0,1.5,376.47826,227.40229)"
     id="g613">
    <g
       clip-path="url(#clipPath2010)"
       id="g611"
       transform="matrix(1.33333,0,0,1.33333,-0.666667,0.155)">
      <g
         fill="#000000"
         fill-opacity="1"
         id="g609">
        <g
           id="g607"
           transform="translate(0,4.29)">
          <path
             d="M 1.6875,1.6875 C 1.65625,1.828125 1.640625,1.84375 1.640625,1.890625 c 0,0.21875 0.1875,0.28125 0.296875,0.28125 0.046875,0 0.265625,-0.03125 0.359375,-0.265625 C 2.328125,1.828125 2.375,1.5 2.65625,0.09375 c 0.078125,0 0.15625,0.015625 0.328125,0.015625 1.65625,0 3.1875,-1.5625 3.1875,-3.140625 0,-0.78125 -0.390625,-1.375 -1.140625,-1.375 -1.4375,0 -2.046875,1.9375 -2.640625,3.875 C 1.3125,-0.734375 0.75,-1.28125 0.75,-2 c 0,-0.28125 0.234375,-1.375 0.828125,-2.0625 0.09375,-0.09375 0.09375,-0.109375 0.09375,-0.140625 0,-0.03125 -0.03125,-0.09375 -0.125,-0.09375 -0.28125,0 -1.046875,1.453125 -1.046875,2.40625 0,0.9375 0.65625,1.65625 1.71875,1.90625 z m 1.390625,-2.15625 c -0.09375,0 -0.109375,0 -0.1875,-0.015625 -0.125,0 -0.125,0 -0.125,-0.03125 0,-0.015625 0.171875,-0.9375 0.1875,-1.078125 0.3125,-1.28125 1.09375,-2.234375 1.984375,-2.234375 0.6875,0 0.953125,0.53125 0.953125,1.015625 0,1.125 -1.28125,2.34375 -2.8125,2.34375 z m 0,0"
             id="path605" />
        </g>
      </g>
    </g>
  </g>
  <g
     inkscape:label=""
     transform="matrix(1.5,0,0,1.5,331.73022,134.11963)"
     id="g814">
    <g
       clip-path="url(#clipPath519)"
       id="g812"
       transform="matrix(1.33333,0,0,1.33333,-0.5625,0.151)">
      <g
         fill="#000000"
         fill-opacity="1"
         id="g810">
        <g
           id="g808"
           transform="translate(0,6.9180002)">
          <path
             d="m 4.53125,-4.984375 c 0,-0.65625 -0.171875,-2.046875 -1.1875,-2.046875 -1.390625,0 -2.921875,2.8125 -2.921875,5.09375 0,0.9375 0.28125,2.046875 1.1875,2.046875 1.40625,0 2.921875,-2.859375 2.921875,-5.09375 z M 1.46875,-3.625 C 1.640625,-4.25 1.84375,-5.046875 2.25,-5.765625 2.515625,-6.25 2.875,-6.8125 3.328125,-6.8125 c 0.484375,0 0.546875,0.640625 0.546875,1.203125 0,0.5 -0.078125,1 -0.3125,1.984375 z m 2,0.328125 C 3.359375,-2.84375 3.15625,-2 2.765625,-1.28125 c -0.34375,0.6875 -0.71875,1.171875 -1.15625,1.171875 -0.328125,0 -0.53125,-0.296875 -0.53125,-1.21875 0,-0.421875 0.0625,-1 0.3125,-1.96875 z m 0,0"
             id="path806" />
        </g>
      </g>
    </g>
  </g>
  <g
     inkscape:label=""
     transform="matrix(1.5,0,0,1.5,331.94628,86.576273)"
     id="g982">
    <g
       clip-path="url(#clipPath1650)"
       id="g34"
       transform="matrix(1.33333,0,0,1.33333,-0.4375,0.151)">
      <g
         fill="#000000"
         fill-opacity="1"
         id="g32">
        <g
           id="use26"
           transform="translate(0,6.9180002)">
          <path
             d="m 2.078125,-1.9375 c 0.21875,0.046875 1.03125,0.203125 1.03125,0.921875 0,0.5 -0.34375,0.90625 -1.125,0.90625 -0.84375,0 -1.203125,-0.5625 -1.390625,-1.421875 C 0.5625,-1.65625 0.5625,-1.6875 0.453125,-1.6875 c -0.125,0 -0.125,0.0625 -0.125,0.234375 V -0.125 c 0,0.171875 0,0.234375 0.109375,0.234375 0.046875,0 0.0625,-0.015625 0.25,-0.203125 0.015625,-0.015625 0.015625,-0.03125 0.203125,-0.21875 0.4375,0.40625 0.890625,0.421875 1.09375,0.421875 1.140625,0 1.609375,-0.671875 1.609375,-1.390625 0,-0.515625 -0.296875,-0.828125 -0.421875,-0.9375 C 2.84375,-2.546875 2.453125,-2.625 2.03125,-2.703125 1.46875,-2.8125 0.8125,-2.9375 0.8125,-3.515625 c 0,-0.359375 0.25,-0.765625 1.109375,-0.765625 1.09375,0 1.15625,0.90625 1.171875,1.203125 0,0.09375 0.09375,0.09375 0.109375,0.09375 0.140625,0 0.140625,-0.046875 0.140625,-0.234375 v -1.015625 c 0,-0.15625 0,-0.234375 -0.109375,-0.234375 -0.046875,0 -0.078125,0 -0.203125,0.125 -0.03125,0.03125 -0.125,0.125 -0.171875,0.15625 -0.375,-0.28125 -0.78125,-0.28125 -0.9375,-0.28125 -1.21875,0 -1.59375,0.671875 -1.59375,1.234375 0,0.34375 0.15625,0.625 0.421875,0.84375 0.328125,0.25 0.609375,0.3125 1.328125,0.453125 z m 0,0"
             id="path46" />
        </g>
        <g
           id="use28"
           transform="translate(3.929249,6.9180002)">
          <path
             d="M 1.765625,-4.40625 0.375,-4.296875 v 0.3125 c 0.640625,0 0.734375,0.0625 0.734375,0.546875 V -0.75 c 0,0.4375 -0.109375,0.4375 -0.78125,0.4375 V 0 C 0.640625,-0.015625 1.1875,-0.03125 1.421875,-0.03125 1.78125,-0.03125 2.125,-0.015625 2.46875,0 v -0.3125 c -0.671875,0 -0.703125,-0.046875 -0.703125,-0.4375 z m 0.03125,-1.734375 c 0,-0.3125 -0.234375,-0.53125 -0.515625,-0.53125 -0.3125,0 -0.53125,0.265625 -0.53125,0.53125 0,0.265625 0.21875,0.53125 0.53125,0.53125 0.28125,0 0.515625,-0.21875 0.515625,-0.53125 z m 0,0"
             id="path50" />
        </g>
        <g
           id="use30"
           transform="translate(6.6968598,6.9180002)">
          <path
             d="M 1.09375,-3.421875 V -0.75 c 0,0.4375 -0.109375,0.4375 -0.78125,0.4375 V 0 c 0.359375,-0.015625 0.859375,-0.03125 1.140625,-0.03125 0.25,0 0.765625,0.015625 1.109375,0.03125 v -0.3125 c -0.671875,0 -0.78125,0 -0.78125,-0.4375 V -2.59375 C 1.78125,-3.625 2.5,-4.1875 3.125,-4.1875 c 0.640625,0 0.75,0.53125 0.75,1.109375 V -0.75 c 0,0.4375 -0.109375,0.4375 -0.78125,0.4375 V 0 c 0.34375,-0.015625 0.859375,-0.03125 1.125,-0.03125 0.25,0 0.78125,0.015625 1.109375,0.03125 v -0.3125 c -0.515625,0 -0.765625,0 -0.765625,-0.296875 v -1.90625 c 0,-0.859375 0,-1.15625 -0.3125,-1.515625 -0.140625,-0.171875 -0.46875,-0.375 -1.046875,-0.375 C 2.46875,-4.40625 2,-3.984375 1.71875,-3.359375 V -4.40625 L 0.3125,-4.296875 v 0.3125 c 0.703125,0 0.78125,0.0625 0.78125,0.5625 z m 0,0"
             id="path54" />
        </g>
      </g>
    </g>
    <g
       clip-path="url(#clipPath5859)"
       id="g40"
       transform="matrix(1.33333,0,0,1.33333,-0.4375,0.151)">
      <g
         fill="#000000"
         fill-opacity="1"
         id="g38">
        <g
           id="use36"
           transform="translate(13.892,6.9180002)">
          <path
             d="m 4.53125,-4.984375 c 0,-0.65625 -0.171875,-2.046875 -1.1875,-2.046875 -1.390625,0 -2.921875,2.8125 -2.921875,5.09375 0,0.9375 0.28125,2.046875 1.1875,2.046875 1.40625,0 2.921875,-2.859375 2.921875,-5.09375 z M 1.46875,-3.625 C 1.640625,-4.25 1.84375,-5.046875 2.25,-5.765625 2.515625,-6.25 2.875,-6.8125 3.328125,-6.8125 c 0.484375,0 0.546875,0.640625 0.546875,1.203125 0,0.5 -0.078125,1 -0.3125,1.984375 z m 2,0.328125 C 3.359375,-2.84375 3.15625,-2 2.765625,-1.28125 c -0.34375,0.6875 -0.71875,1.171875 -1.15625,1.171875 -0.328125,0 -0.53125,-0.296875 -0.53125,-1.21875 0,-0.421875 0.0625,-1 0.3125,-1.96875 z m 0,0"
             id="path977" />
        </g>
      </g>
    </g>
  </g>
</svg>
