<?xml version="1.0" encoding="UTF-8" standalone="no"?>
<svg
   id="Layer_1"
   data-name="Layer 1"
   viewBox="0 0 613.73 388.98"
   version="1.1"
   sodipodi:docname="BSDFanglegivesinout.svg"
   inkscape:version="1.2.1 (9c6d41e410, 2022-07-14)"
   xmlns:inkscape="http://www.inkscape.org/namespaces/inkscape"
   xmlns:sodipodi="http://sodipodi.sourceforge.net/DTD/sodipodi-0.dtd"
   xmlns="http://www.w3.org/2000/svg"
   xmlns:svg="http://www.w3.org/2000/svg">
  <sodipodi:namedview
     id="namedview79"
     pagecolor="#ffffff"
     bordercolor="#666666"
     borderopacity="1.0"
     inkscape:showpageshadow="2"
     inkscape:pageopacity="0.0"
     inkscape:pagecheckerboard="0"
     inkscape:deskcolor="#d1d1d1"
     showgrid="false"
     inkscape:zoom="2.4268599"
     inkscape:cx="468.09459"
     inkscape:cy="180.89219"
     inkscape:window-width="2560"
     inkscape:window-height="1494"
     inkscape:window-x="-11"
     inkscape:window-y="-11"
     inkscape:window-maximized="1"
     inkscape:current-layer="Layer_1" />
  <defs
     id="defs4">
    <style
       id="style2">.cls-1,.cls-5{fill:none;}.cls-1,.cls-4,.cls-5{stroke:#000;stroke-miterlimit:10;}.cls-2{fill:#a6a6a6;}.cls-3{fill:#666;}.cls-5{stroke-width:0.5px;}</style>
    <clipPath
       id="clipPath4245">
      <path
         clip-rule="nonzero"
         d="M 0,0 H 4.953125 V 6.917969 H 0 Z m 0,0"
         id="path4107" />
    </clipPath>
    <clipPath
       id="clipPath9700">
      <path
         clip-rule="nonzero"
         d="M 0,0 H 5 V 7.488281 H 0 Z m 0,0"
         id="path6639" />
    </clipPath>
    <clipPath
       id="clipPath2568">
      <path
         clip-rule="nonzero"
         d="M 5,0 H 7.75 V 4 H 5 Z m 0,0"
         id="path9406" />
    </clipPath>
    <clipPath
       id="clipPath1162">
      <path
         clip-rule="nonzero"
         d="M 0,3 H 7 V 7.488281 H 0 Z m 0,0"
         id="path4045" />
    </clipPath>
    <clipPath
       id="clipPath3163">
      <path
         clip-rule="nonzero"
         d="M 0,0 H 6.558594 V 4.289063 H 0 Z m 0,0"
         id="path9254" />
    </clipPath>
    <clipPath
       id="clipPath2532">
      <path
         clip-rule="nonzero"
         d="M 0,0 H 5 V 6.226563 H 0 Z m 0,0"
         id="path7812" />
    </clipPath>
    <clipPath
       id="clipPath2207">
      <path
         clip-rule="nonzero"
         d="M 0,0 H 5 V 4.289063 H 0 Z m 0,0"
         id="path7237" />
    </clipPath>
    <clipPath
       id="clipPath3058">
      <path
         clip-rule="nonzero"
         d="M 0,0 H 7 V 4.429688 H 0 Z m 0,0"
         id="path1793" />
    </clipPath>
    <clipPath
       id="clipPath6192">
      <path
         clip-rule="nonzero"
         d="M 0,2 H 7 V 7.488281 H 0 Z m 0,0"
         id="path5738" />
    </clipPath>
  </defs>
  <title
     id="title6">BSDF angle gives in out</title>
  <ellipse
     class="cls-1"
     cx="308.71"
     cy="207.44"
     rx="177.94"
     ry="48.82"
     id="ellipse8" />
  <line
     class="cls-1"
     x1="307.53"
     y1="209.6"
     x2="307.53"
     y2="38.01"
     id="line10" />
  <polygon
     points="313.03 42.92 307.53 38.66 302.02 42.92 307.53 29.91 313.03 42.92"
     id="polygon12" />
  <polygon
     class="cls-2"
     points="311.83 41.37 307.53 31.22 307.53 38.03 311.83 41.37"
     id="polygon14" />
  <polygon
     class="cls-3"
     points="303.23 41.37 307.53 31.22 307.53 38.03 303.23 41.37"
     id="polygon16" />
  <circle
     class="cls-4"
     cx="307.77"
     cy="209.01"
     r="2.25"
     id="circle20" />
  <line
     class="cls-1"
     x1="307.55"
     y1="208.86"
     x2="478.37"
     y2="208.86"
     id="line22" />
  <polygon
     points="473.46 214.37 477.71 208.86 473.46 203.36 486.47 208.86 473.46 214.37"
     id="polygon24" />
  <polygon
     class="cls-2"
     points="475.01 213.16 485.16 208.86 478.35 208.86 475.01 213.16"
     id="polygon26" />
  <polygon
     class="cls-3"
     points="475.01 204.57 485.16 208.86 478.35 208.86 475.01 204.57"
     id="polygon28" />
  <line
     class="cls-1"
     x1="309.09"
     y1="206.69"
     x2="267.4"
     y2="248.39"
     id="line30" />
  <polygon
     points="266.98 241.03 267.86 247.93 274.76 248.81 261.67 254.12 266.98 241.03"
     id="polygon32" />
  <polygon
     class="cls-2"
     points="266.72 242.98 262.59 253.19 267.41 248.38 266.72 242.98"
     id="polygon34" />
  <polygon
     class="cls-3"
     points="272.8 249.06 262.59 253.19 267.41 248.38 272.8 249.06"
     id="polygon36" />
  <line
     class="cls-1"
     x1="308.66"
     y1="207.75"
     x2="391.56"
     y2="110.31"
     id="line42" />
  <polygon
     points="392.57 117.62 391.13 110.81 384.18 110.49 396.81 104.14 392.57 117.62"
     id="polygon44" />
  <polygon
     class="cls-2"
     points="392.66 115.66 395.96 105.14 391.54 110.33 392.66 115.66"
     id="polygon46" />
  <polygon
     class="cls-3"
     points="386.11 110.08 395.96 105.14 391.54 110.33 386.11 110.08"
     id="polygon48" />
  <path
     class="cls-1"
     d="M307.71,131.1a77.28,77.28,0,0,1,50.2,18.43"
     id="path52" />
  <polygon
     class="cls-5"
     points="613.15 96.75 212.03 94.55 0.58 317.05 401.7 319.24 613.15 96.75"
     id="polygon54" />
  <circle
     class="cls-1"
     cx="308.56"
     cy="210.01"
     r="178.47"
     id="circle56" />
  <line
     class="cls-1"
     x1="308.22"
     y1="211.28"
     x2="380.01"
     y2="329.12"
     id="line58" />
  <polygon
     points="372.75 327.79 379.67 328.56 382.15 322.06 384.22 336.04 372.75 327.79"
     id="polygon60" />
  <polygon
     class="cls-2"
     points="374.59 328.49 383.54 334.92 380 329.1 374.59 328.49"
     id="polygon62" />
  <polygon
     class="cls-3"
     points="381.93 324.02 383.54 334.92 380 329.1 381.93 324.02"
     id="polygon64" />
  <path
     class="cls-1"
     d="M307.46,170.48c11.37.66,19.73,9.36,24.08,26.09,0,0,7,33.78-2.34,48.17"
     id="path66" />
  <g
     inkscape:label=""
     transform="matrix(1.5,0,0,1.5,329.87334,115.46859)"
     id="g270">
    <g
       clip-path="url(#clipPath4245)"
       id="g17"
       transform="matrix(1.33333,0,0,1.33333,-0.5625,0.151)">
      <g
         fill="#000000"
         fill-opacity="1"
         id="g15">
        <g
           id="use13"
           transform="translate(0,6.9180002)">
          <path
             d="m 4.53125,-4.984375 c 0,-0.65625 -0.171875,-2.046875 -1.1875,-2.046875 -1.390625,0 -2.921875,2.8125 -2.921875,5.09375 0,0.9375 0.28125,2.046875 1.1875,2.046875 1.40625,0 2.921875,-2.859375 2.921875,-5.09375 z M 1.46875,-3.625 C 1.640625,-4.25 1.84375,-5.046875 2.25,-5.765625 2.515625,-6.25 2.875,-6.8125 3.328125,-6.8125 c 0.484375,0 0.546875,0.640625 0.546875,1.203125 0,0.5 -0.078125,1 -0.3125,1.984375 z m 2,0.328125 C 3.359375,-2.84375 3.15625,-2 2.765625,-1.28125 c -0.34375,0.6875 -0.71875,1.171875 -1.15625,1.171875 -0.328125,0 -0.53125,-0.296875 -0.53125,-1.21875 0,-0.421875 0.0625,-1 0.3125,-1.96875 z m 0,0"
             id="path23" />
        </g>
      </g>
    </g>
  </g>
  <g
     inkscape:label=""
     transform="matrix(1.5,0,0,1.5,340.07118,221.52616)"
     id="g480">
    <g
       clip-path="url(#clipPath9700)"
       id="g24"
       transform="matrix(1.33333,0,0,1.33333,-0.5625,0.0208333)">
      <g
         fill="#000000"
         fill-opacity="1"
         id="g22">
        <g
           id="use20"
           transform="translate(0,7.4899998)">
          <path
             d="m 4.53125,-4.984375 c 0,-0.65625 -0.171875,-2.046875 -1.1875,-2.046875 -1.390625,0 -2.921875,2.8125 -2.921875,5.09375 0,0.9375 0.28125,2.046875 1.1875,2.046875 1.40625,0 2.921875,-2.859375 2.921875,-5.09375 z M 1.46875,-3.625 C 1.640625,-4.25 1.84375,-5.046875 2.25,-5.765625 2.515625,-6.25 2.875,-6.8125 3.328125,-6.8125 c 0.484375,0 0.546875,0.640625 0.546875,1.203125 0,0.5 -0.078125,1 -0.3125,1.984375 z m 2,0.328125 C 3.359375,-2.84375 3.15625,-2 2.765625,-1.28125 c -0.34375,0.6875 -0.71875,1.171875 -1.15625,1.171875 -0.328125,0 -0.53125,-0.296875 -0.53125,-1.21875 0,-0.421875 0.0625,-1 0.3125,-1.96875 z m 0,0"
             id="path36" />
        </g>
      </g>
    </g>
    <g
       clip-path="url(#clipPath2568)"
       id="g30"
       transform="matrix(1.33333,0,0,1.33333,-0.5625,0.0208333)">
      <g
         fill="#000000"
         fill-opacity="1"
         id="g28">
        <g
           id="use26"
           transform="translate(4.954,3.875)">
          <path
             d="m 2.015625,-3.296875 c 0.0625,-0.109375 0.0625,-0.171875 0.0625,-0.21875 0,-0.21875 -0.1875,-0.375 -0.40625,-0.375 -0.265625,0 -0.34375,0.21875 -0.375,0.328125 L 0.375,-0.546875 c -0.015625,0.015625 -0.046875,0.09375 -0.046875,0.109375 0,0.078125 0.21875,0.15625 0.28125,0.15625 0.046875,0 0.046875,-0.015625 0.09375,-0.125 z m 0,0"
             id="path475" />
        </g>
      </g>
    </g>
  </g>
  <g
     inkscape:label=""
     transform="matrix(1.5,0,0,1.5,490.7079,205.50098)"
     id="g953">
    <g
       fill="#000000"
       fill-opacity="1"
       id="g12"
       transform="matrix(1.33333,0,0,1.33333,-0.395833,0.156333)">
      <g
         id="use10"
         transform="translate(0,4.289)">
        <path
           d="M 3.328125,-3.015625 C 3.390625,-3.265625 3.625,-4.1875 4.3125,-4.1875 c 0.046875,0 0.296875,0 0.5,0.125 C 4.53125,-4 4.34375,-3.765625 4.34375,-3.515625 c 0,0.15625 0.109375,0.34375 0.375,0.34375 0.21875,0 0.53125,-0.171875 0.53125,-0.578125 0,-0.515625 -0.578125,-0.65625 -0.921875,-0.65625 -0.578125,0 -0.921875,0.53125 -1.046875,0.75 -0.25,-0.65625 -0.78125,-0.75 -1.078125,-0.75 -1.03125,0 -1.609375,1.28125 -1.609375,1.53125 0,0.109375 0.109375,0.109375 0.125,0.109375 0.078125,0 0.109375,-0.03125 0.125,-0.109375 0.34375,-1.0625 1,-1.3125 1.34375,-1.3125 0.1875,0 0.53125,0.09375 0.53125,0.671875 0,0.3125 -0.171875,0.96875 -0.53125,2.375 -0.15625,0.609375 -0.515625,1.03125 -0.953125,1.03125 -0.0625,0 -0.28125,0 -0.5,-0.125 0.25,-0.0625 0.46875,-0.265625 0.46875,-0.546875 0,-0.265625 -0.21875,-0.34375 -0.359375,-0.34375 -0.3125,0 -0.546875,0.25 -0.546875,0.578125 0,0.453125 0.484375,0.65625 0.921875,0.65625 0.671875,0 1.03125,-0.703125 1.046875,-0.75 0.125,0.359375 0.484375,0.75 1.078125,0.75 1.03125,0 1.59375,-1.28125 1.59375,-1.53125 0,-0.109375 -0.078125,-0.109375 -0.109375,-0.109375 -0.09375,0 -0.109375,0.046875 -0.140625,0.109375 -0.328125,1.078125 -1,1.3125 -1.3125,1.3125 -0.390625,0 -0.546875,-0.3125 -0.546875,-0.65625 0,-0.21875 0.046875,-0.4375 0.15625,-0.875 z m 0,0"
           id="path949" />
      </g>
    </g>
  </g>
  <g
     inkscape:label=""
     transform="matrix(1.5,0,0,1.5,252.36973,261.15206)"
     id="g1131">
    <g
       clip-path="url(#clipPath2532)"
       id="g1129"
       transform="matrix(1.33333,0,0,1.33333,-0.395833,0.155)">
      <g
         fill="#000000"
         fill-opacity="1"
         id="g1127">
        <g
           id="g1125"
           transform="translate(0,4.29)">
          <path
             d="m 4.84375,-3.796875 c 0.046875,-0.140625 0.046875,-0.15625 0.046875,-0.234375 0,-0.171875 -0.140625,-0.265625 -0.296875,-0.265625 -0.09375,0 -0.25,0.0625 -0.34375,0.203125 -0.015625,0.0625 -0.109375,0.359375 -0.140625,0.546875 -0.078125,0.25 -0.140625,0.53125 -0.203125,0.796875 l -0.453125,1.796875 c -0.03125,0.140625 -0.46875,0.84375 -1.125,0.84375 -0.5,0 -0.609375,-0.4375 -0.609375,-0.8125 C 1.71875,-1.375 1.890625,-2 2.21875,-2.875 2.375,-3.28125 2.421875,-3.390625 2.421875,-3.59375 c 0,-0.4375 -0.3125,-0.8125 -0.8125,-0.8125 -0.953125,0 -1.3125,1.453125 -1.3125,1.53125 0,0.109375 0.09375,0.109375 0.109375,0.109375 0.109375,0 0.109375,-0.03125 0.15625,-0.1875 0.28125,-0.9375 0.671875,-1.234375 1.015625,-1.234375 0.078125,0 0.25,0 0.25,0.3125 0,0.25 -0.109375,0.515625 -0.171875,0.703125 -0.40625,1.0625 -0.578125,1.625 -0.578125,2.09375 0,0.890625 0.625,1.1875 1.21875,1.1875 0.390625,0 0.71875,-0.171875 1,-0.453125 -0.125,0.515625 -0.25,1.015625 -0.640625,1.546875 -0.265625,0.328125 -0.640625,0.625 -1.09375,0.625 -0.140625,0 -0.59375,-0.03125 -0.765625,-0.421875 0.15625,0 0.296875,0 0.421875,-0.125 C 1.328125,1.203125 1.421875,1.0625 1.421875,0.875 1.421875,0.5625 1.15625,0.53125 1.0625,0.53125 0.828125,0.53125 0.5,0.6875 0.5,1.171875 c 0,0.5 0.4375,0.875 1.0625,0.875 1.015625,0 2.046875,-0.90625 2.328125,-2.03125 z m 0,0"
             id="path1123" />
        </g>
      </g>
    </g>
  </g>
  <g
     inkscape:label=""
     transform="matrix(1.5,0,0,1.5,302.77622,15.529727)"
     id="g1326">
    <g
       clip-path="url(#clipPath2207)"
       id="g1324"
       transform="matrix(1.33333,0,0,1.33333,-0.5625,0.156333)">
      <g
         fill="#000000"
         fill-opacity="1"
         id="g1322">
        <g
           id="g1320"
           transform="translate(0,4.289)">
          <path
             d="m 1.328125,-0.828125 c 0.53125,-0.578125 0.828125,-0.828125 1.1875,-1.140625 0,0 0.609375,-0.53125 0.96875,-0.890625 C 4.4375,-3.78125 4.65625,-4.265625 4.65625,-4.3125 c 0,-0.09375 -0.09375,-0.09375 -0.109375,-0.09375 -0.078125,0 -0.09375,0.015625 -0.15625,0.109375 -0.296875,0.484375 -0.5,0.640625 -0.734375,0.640625 -0.25,0 -0.359375,-0.15625 -0.515625,-0.328125 -0.1875,-0.21875 -0.359375,-0.421875 -0.6875,-0.421875 -0.75,0 -1.203125,0.921875 -1.203125,1.140625 0,0.046875 0.03125,0.109375 0.109375,0.109375 0.09375,0 0.109375,-0.046875 0.140625,-0.109375 0.1875,-0.46875 0.765625,-0.46875 0.84375,-0.46875 0.203125,0 0.390625,0.0625 0.625,0.140625 0.40625,0.15625 0.515625,0.15625 0.765625,0.15625 -0.359375,0.421875 -1.1875,1.140625 -1.375,1.296875 l -0.90625,0.84375 C 0.78125,-0.625 0.421875,-0.0625 0.421875,0.015625 c 0,0.09375 0.109375,0.09375 0.125,0.09375 0.078125,0 0.09375,-0.015625 0.15625,-0.125 0.234375,-0.359375 0.53125,-0.625 0.859375,-0.625 0.21875,0 0.328125,0.09375 0.578125,0.375 0.15625,0.21875 0.34375,0.375 0.625,0.375 1,0 1.578125,-1.265625 1.578125,-1.53125 0,-0.046875 -0.046875,-0.109375 -0.125,-0.109375 -0.09375,0 -0.109375,0.0625 -0.140625,0.140625 C 3.84375,-0.75 3.203125,-0.5625 2.875,-0.5625 c -0.1875,0 -0.375,-0.0625 -0.578125,-0.125 -0.34375,-0.125 -0.5,-0.171875 -0.703125,-0.171875 -0.015625,0 -0.171875,0 -0.265625,0.03125 z m 0,0"
             id="path1318" />
        </g>
      </g>
    </g>
  </g>
  <g
     inkscape:label=""
     transform="matrix(1.5,0,0,1.5,400.04665,96.442642)"
     id="g1559">
    <g
       clip-path="url(#clipPath3058)"
       id="g1557"
       transform="matrix(1.33333,0,0,1.33333,-0.291667,0.116833)">
      <g
         fill="#000000"
         fill-opacity="1"
         id="g1555">
        <g
           id="g1553"
           transform="translate(0,4.428)">
          <path
             d="M 3.609375,-1.390625 C 3.859375,-1.859375 4,-2.34375 4,-2.515625 c 0,-0.21875 -0.125,-0.4375 -0.375,-0.4375 -0.625,0 -0.6875,1.0625 -0.703125,1.328125 C 2.90625,-1.46875 2.90625,-1.46875 2.890625,-1.453125 2.734375,-1.3125 2.3125,-1.015625 1.78125,-1.015625 1.125,-1.015625 0.75,-1.453125 0.75,-2 c 0,-0.3125 0.171875,-1.0625 0.859375,-2 0.09375,-0.109375 0.109375,-0.140625 0.109375,-0.21875 0,-0.125 -0.09375,-0.203125 -0.203125,-0.203125 -0.09375,0 -0.15625,0.0625 -0.171875,0.0625 -0.046875,0.046875 -1.125,1.34375 -1.125,2.78125 0,1 0.515625,1.65625 1.359375,1.65625 0.703125,0 1.265625,-0.484375 1.484375,-0.71875 0.125,0.296875 0.421875,0.71875 1.078125,0.71875 0.859375,0 1.625,-0.625 2.0625,-1.296875 0.609375,-0.953125 0.6875,-2.234375 0.6875,-2.375 0,-0.765625 -0.453125,-0.921875 -0.65625,-0.921875 -0.375,0 -0.765625,0.40625 -0.765625,0.75 0,0.265625 0.1875,0.390625 0.296875,0.46875 0.25,0.171875 0.46875,0.40625 0.46875,0.71875 0,0.671875 -0.84375,1.5625 -1.890625,1.5625 -0.28125,0 -0.5625,-0.078125 -0.734375,-0.375 z m 0,0"
             id="path1551" />
        </g>
      </g>
    </g>
  </g>
  <g
     inkscape:label=""
     transform="matrix(1.5,0,0,1.5,387.22651,332.44987)"
     id="g1751">
    <g
       clip-path="url(#clipPath6192)"
       id="g21"
       transform="matrix(1.33333,0,0,1.33333,-0.291667,0.0208333)">
      <g
         fill="#000000"
         fill-opacity="1"
         id="g19">
        <g
           id="use17"
           transform="translate(0,7.4899998)">
          <path
             d="M 3.609375,-1.390625 C 3.859375,-1.859375 4,-2.34375 4,-2.515625 c 0,-0.21875 -0.125,-0.4375 -0.375,-0.4375 -0.625,0 -0.6875,1.0625 -0.703125,1.328125 C 2.90625,-1.46875 2.90625,-1.46875 2.890625,-1.453125 2.734375,-1.3125 2.3125,-1.015625 1.78125,-1.015625 1.125,-1.015625 0.75,-1.453125 0.75,-2 c 0,-0.3125 0.171875,-1.0625 0.859375,-2 0.09375,-0.109375 0.109375,-0.140625 0.109375,-0.21875 0,-0.125 -0.09375,-0.203125 -0.203125,-0.203125 -0.09375,0 -0.15625,0.0625 -0.171875,0.0625 -0.046875,0.046875 -1.125,1.34375 -1.125,2.78125 0,1 0.515625,1.65625 1.359375,1.65625 0.703125,0 1.265625,-0.484375 1.484375,-0.71875 0.125,0.296875 0.421875,0.71875 1.078125,0.71875 0.859375,0 1.625,-0.625 2.0625,-1.296875 0.609375,-0.953125 0.6875,-2.234375 0.6875,-2.375 0,-0.765625 -0.453125,-0.921875 -0.65625,-0.921875 -0.375,0 -0.765625,0.40625 -0.765625,0.75 0,0.265625 0.1875,0.390625 0.296875,0.46875 0.25,0.171875 0.46875,0.40625 0.46875,0.71875 0,0.671875 -0.84375,1.5625 -1.890625,1.5625 -0.28125,0 -0.5625,-0.078125 -0.734375,-0.375 z m 0,0"
             id="path31" />
        </g>
      </g>
    </g>
    <g
       fill="#000000"
       fill-opacity="1"
       id="g25"
       transform="matrix(1.33333,0,0,1.33333,-0.291667,0.0208333)">
      <g
         id="use23"
         transform="translate(7.52,3.875)">
        <path
           d="m 2.015625,-3.296875 c 0.0625,-0.109375 0.0625,-0.171875 0.0625,-0.21875 0,-0.21875 -0.1875,-0.375 -0.40625,-0.375 -0.265625,0 -0.34375,0.21875 -0.375,0.328125 L 0.375,-0.546875 c -0.015625,0.015625 -0.046875,0.09375 -0.046875,0.109375 0,0.078125 0.21875,0.15625 0.28125,0.15625 0.046875,0 0.046875,-0.015625 0.09375,-0.125 z m 0,0"
           id="path35" />
      </g>
    </g>
  </g>
</svg>
