<?xml version="1.0" encoding="UTF-8" standalone="no"?>
<svg
   id="Layer_1"
   data-name="Layer 1"
   viewBox="0 0 514.58 270.55"
   version="1.1"
   sodipodi:docname="BSDFcoordinatesystem.svg"
   inkscape:version="1.2.1 (9c6d41e410, 2022-07-14)"
   xmlns:inkscape="http://www.inkscape.org/namespaces/inkscape"
   xmlns:sodipodi="http://sodipodi.sourceforge.net/DTD/sodipodi-0.dtd"
   xmlns="http://www.w3.org/2000/svg"
   xmlns:svg="http://www.w3.org/2000/svg">
  <sodipodi:namedview
     id="namedview46"
     pagecolor="#ffffff"
     bordercolor="#666666"
     borderopacity="1.0"
     inkscape:showpageshadow="2"
     inkscape:pageopacity="0.0"
     inkscape:pagecheckerboard="0"
     inkscape:deskcolor="#d1d1d1"
     showgrid="false"
     inkscape:zoom="2.4672291"
     inkscape:cx="220.08495"
     inkscape:cy="188.87585"
     inkscape:window-width="2560"
     inkscape:window-height="1494"
     inkscape:window-x="-11"
     inkscape:window-y="-11"
     inkscape:window-maximized="1"
     inkscape:current-layer="Layer_1" />
  <defs
     id="defs11">
    <style
       id="style9">.cls-1,.cls-4{fill:none;stroke:#000;stroke-miterlimit:10;}.cls-2{fill:#a6a6a6;}.cls-3{fill:#666;}.cls-4{stroke-width:0.5px;}</style>
    <clipPath
       id="clipPath3774">
      <path
         clip-rule="nonzero"
         d="M 0,0 H 7 V 4.429688 H 0 Z m 0,0"
         id="path2682" />
    </clipPath>
    <clipPath
       id="clipPath269">
      <path
         clip-rule="nonzero"
         d="M 0,0 H 5 V 4.429688 H 0 Z m 0,0"
         id="path8363" />
    </clipPath>
    <clipPath
       id="clipPath2289">
      <path
         clip-rule="nonzero"
         d="M 0,0 H 4 V 6.324219 H 0 Z m 0,0"
         id="path7601" />
    </clipPath>
  </defs>
  <title
     id="title13">BSDF coordinate system</title>
  <polyline
     class="cls-1"
     points="244.55 33.45 244.55 141.74 353.24 141.74"
     id="polyline15" />
  <polygon
     points="239.05 38.37 244.55 34.1 250.06 38.37 244.55 25.35 239.05 38.37"
     id="polygon17" />
  <polygon
     class="cls-2"
     points="240.25 36.81 244.55 26.66 244.55 33.47 240.25 36.81"
     id="polygon19" />
  <polygon
     class="cls-3"
     points="248.85 36.81 244.55 26.66 244.55 33.47 248.85 36.81"
     id="polygon21" />
  <polygon
     points="348.33 147.24 352.59 141.74 348.33 136.23 361.34 141.74 348.33 147.24"
     id="polygon23" />
  <polygon
     class="cls-2"
     points="349.89 146.04 360.03 141.74 353.22 141.74 349.89 146.04"
     id="polygon25" />
  <polygon
     class="cls-3"
     points="349.89 137.44 360.03 141.74 353.22 141.74 349.89 137.44"
     id="polygon27" />
  <line
     class="cls-1"
     x1="244.64"
     y1="141.48"
     x2="168.08"
     y2="218.04"
     id="line29" />
  <polygon
     points="167.66 210.68 168.54 217.58 175.44 218.46 162.35 223.77 167.66 210.68"
     id="polygon31" />
  <polygon
     class="cls-2"
     points="167.4 212.63 163.27 222.84 168.09 218.03 167.4 212.63"
     id="polygon33" />
  <polygon
     class="cls-3"
     points="173.48 218.71 163.27 222.84 168.09 218.03 173.48 218.71"
     id="polygon35" />
  <polygon
     class="cls-4"
     points="514 83.81 177.81 81.97 0.58 268.45 336.77 270.3 514 83.81"
     id="polygon43" />
  <g
     inkscape:label=""
     transform="matrix(1.5,0,0,1.5,238.18983,11.765981)"
     id="g217">
    <g
       clip-path="url(#clipPath3774)"
       id="g17"
       transform="matrix(1.33333,0,0,1.33333,-0.416667,0.096)">
      <g
         fill="#000000"
         fill-opacity="1"
         id="g15">
        <g
           id="use13"
           transform="translate(0,4.428)">
          <path
             d="M 2.796875,-3.75 C 2.65625,-4.25 2.109375,-4.5 1.5625,-4.5 1.203125,-4.5 0.921875,-4.296875 0.703125,-3.9375 0.453125,-3.53125 0.3125,-3 0.3125,-2.953125 c 0,0.140625 0.15625,0.140625 0.25,0.140625 0.109375,0 0.140625,0 0.1875,-0.046875 C 0.78125,-2.875 0.78125,-2.90625 0.84375,-3.15625 1.03125,-3.921875 1.25,-4.140625 1.515625,-4.140625 c 0.15625,0 0.234375,0.09375 0.234375,0.359375 0,0.171875 -0.046875,0.328125 -0.140625,0.734375 C 1.53125,-2.765625 1.4375,-2.375 1.390625,-2.15625 L 1.03125,-0.75 C 1,-0.625 0.953125,-0.421875 0.953125,-0.359375 c 0,0.203125 0.15625,0.4375 0.46875,0.4375 0.515625,0 0.625,-0.453125 0.703125,-0.75 0.09375,-0.375 0.171875,-0.6875 0.28125,-1.125 0.03125,-0.125 0.28125,-1.15625 0.3125,-1.1875 0,-0.0625 0.28125,-0.5 0.609375,-0.78125 0.28125,-0.21875 0.609375,-0.375 1.03125,-0.375 0.25,0 0.5,0.09375 0.5,0.578125 0,0.578125 -0.4375,1.734375 -0.625,2.234375 -0.125,0.265625 -0.140625,0.34375 -0.140625,0.515625 0,0.578125 0.578125,0.890625 1.125,0.890625 1.046875,0 1.546875,-1.359375 1.546875,-1.546875 0,-0.140625 -0.140625,-0.140625 -0.234375,-0.140625 -0.125,0 -0.1875,0 -0.234375,0.125 C 5.96875,-0.375 5.4375,-0.28125 5.28125,-0.28125 c -0.078125,0 -0.171875,0 -0.171875,-0.203125 0,-0.234375 0.09375,-0.484375 0.1875,-0.734375 0.171875,-0.40625 0.625,-1.578125 0.625,-2.125 C 5.921875,-4.265625 5.15625,-4.5 4.4375,-4.5 4.234375,-4.5 3.5,-4.5 2.796875,-3.75 Z m 0,0"
             id="path23" />
        </g>
      </g>
    </g>
  </g>
  <g
     inkscape:label=""
     transform="matrix(1.5,0,0,1.5,368.70061,138.8316)"
     id="g290">
    <g
       clip-path="url(#clipPath269)"
       id="g288"
       transform="matrix(1.33333,0,0,1.33333,-0.75,0.096)">
      <g
         fill="#000000"
         fill-opacity="1"
         id="g286">
        <g
           id="g284"
           transform="translate(0,4.428)">
          <path
             d="m 4.125,-3.921875 c -0.328125,0.125 -0.421875,0.421875 -0.421875,0.5625 0,0.265625 0.21875,0.40625 0.4375,0.40625 C 4.375,-2.953125 4.75,-3.15625 4.75,-3.625 4.75,-4.15625 4.21875,-4.5 3.3125,-4.5 3.03125,-4.5 2.46875,-4.484375 2.015625,-4.140625 1.5625,-3.796875 1.40625,-3.21875 1.40625,-2.96875 c 0,0.296875 0.140625,0.578125 0.359375,0.75 0.28125,0.21875 0.453125,0.25 1.125,0.390625 0.296875,0.046875 0.890625,0.15625 0.890625,0.609375 0,0.03125 0,0.9375 -1.484375,0.9375 -0.484375,0 -0.84375,-0.09375 -1.078125,-0.25 0.34375,-0.109375 0.5625,-0.390625 0.5625,-0.6875 0,-0.359375 -0.296875,-0.46875 -0.5,-0.46875 -0.328125,0 -0.71875,0.28125 -0.71875,0.78125 0,0.640625 0.703125,0.984375 1.71875,0.984375 2.28125,0 2.28125,-1.703125 2.28125,-1.71875 C 4.5625,-1.96875 4.390625,-2.25 4.15625,-2.4375 3.84375,-2.71875 3.46875,-2.78125 3.125,-2.84375 2.578125,-2.9375 2.1875,-3.015625 2.1875,-3.375 c 0,-0.03125 0,-0.765625 1.109375,-0.765625 0.203125,0 0.5625,0.015625 0.828125,0.21875 z m 0,0"
             id="path282" />
        </g>
      </g>
    </g>
  </g>
  <g
     inkscape:label=""
     transform="matrix(1.5,0,0,1.5,152.26347,221.11014)"
     id="g377">
    <g
       clip-path="url(#clipPath2289)"
       id="g375"
       transform="matrix(1.33333,0,0,1.33333,-0.333333,0.108334)">
      <g
         fill="#000000"
         fill-opacity="1"
         id="g373">
        <g
           id="g371"
           transform="translate(0,6.3249998)">
          <path
             d="M 2.515625,-3.953125 H 3.40625 c 0.1875,0 0.21875,0 0.265625,-0.046875 0.0625,-0.046875 0.09375,-0.1875 0.09375,-0.25 0,-0.171875 -0.171875,-0.171875 -0.34375,-0.171875 H 2.625 L 2.953125,-5.71875 c 0.03125,-0.15625 0.03125,-0.21875 0.03125,-0.25 0,-0.328125 -0.25,-0.4375 -0.46875,-0.4375 -0.140625,0 -0.40625,0.0625 -0.578125,0.34375 C 1.90625,-5.984375 1.78125,-5.515625 1.71875,-5.25 L 1.515625,-4.421875 H 0.625 c -0.203125,0 -0.375,0 -0.375,0.28125 0,0.1875 0.15625,0.1875 0.34375,0.1875 H 1.390625 L 0.828125,-1.6875 C 0.75,-1.421875 0.65625,-1 0.65625,-0.890625 c 0,0.640625 0.640625,0.96875 1.25,0.96875 1.1875,0 1.875,-1.390625 1.875,-1.546875 0,-0.140625 -0.15625,-0.140625 -0.25,-0.140625 -0.15625,0 -0.171875,0 -0.234375,0.15625 -0.390625,0.859375 -0.9375,1.171875 -1.328125,1.171875 -0.09375,0 -0.25,0 -0.25,-0.359375 0,-0.203125 0.03125,-0.3125 0.0625,-0.4375 z m 0,0"
             id="path369" />
        </g>
      </g>
    </g>
  </g>
</svg>
