<?xml version="1.0" encoding="UTF-8" standalone="no"?>
<svg
   id="Layer_1"
   data-name="Layer 1"
   viewBox="0 0 239.79197 93.353555"
   version="1.1"
   sodipodi:docname="Fresnelincidence.svg"
   width="239.79198"
   height="93.353554"
   inkscape:version="1.4 (86a8ad7, 2024-10-11)"
   xmlns:inkscape="http://www.inkscape.org/namespaces/inkscape"
   xmlns:sodipodi="http://sodipodi.sourceforge.net/DTD/sodipodi-0.dtd"
   xmlns="http://www.w3.org/2000/svg"
   xmlns:svg="http://www.w3.org/2000/svg"
   xmlns:rdf="http://www.w3.org/1999/02/22-rdf-syntax-ns#"
   xmlns:cc="http://creativecommons.org/ns#"
   xmlns:dc="http://purl.org/dc/elements/1.1/">
  <sodipodi:namedview
     id="namedview21"
     pagecolor="#ffffff"
     bordercolor="#666666"
     borderopacity="1.0"
     inkscape:showpageshadow="2"
     inkscape:pageopacity="0.0"
     inkscape:pagecheckerboard="0"
     inkscape:deskcolor="#d1d1d1"
     showguides="true"
     inkscape:zoom="2.4356344"
     inkscape:cx="3.2845652"
     inkscape:cy="125.83991"
     inkscape:window-width="3840"
     inkscape:window-height="2054"
     inkscape:window-x="-11"
     inkscape:window-y="-11"
     inkscape:window-maximized="1"
     inkscape:current-layer="Layer_1" />
  <defs
     id="defs1">
    <rect
       x="5.132133"
       y="66.101875"
       width="43.931061"
       height="15.80697"
       id="rect22" />
    <style
       id="style1">.cls-1{fill:#999;}.cls-2{fill:none;stroke:#000;stroke-miterlimit:10;}.cls-3{fill:#a6a6a6;}.cls-4{fill:#666;}</style>
  </defs>
  <title
     id="title1">Fresnel incidence</title>
  <rect
     class="cls-1"
     x="41.761978"
     y="63.013554"
     width="198.03"
     height="30.34"
     id="rect1" />
  <line
     class="cls-2"
     x1="41.761978"
     y1="63.013554"
     x2="239.61198"
     y2="63.013554"
     id="line1" />
  <line
     class="cls-2"
     x1="41.761978"
     y1="44.553555"
     x2="239.61198"
     y2="44.553555"
     id="line2" />
  <polyline
     class="cls-2"
     points="168.04 0.35 211.67 43.98 242.75 6.58"
     id="polyline2"
     transform="translate(-25.558023,0.00355339)" />
  <polygon
     points="235.38,6.84 247.94,0.35 243.85,13.88 242.34,7.08 "
     id="polygon2"
     transform="translate(-25.558023,0.00355339)" />
  <polygon
     class="cls-3"
     points="242.74,6.6 243.92,11.91 247.1,1.36 "
     id="polygon3"
     transform="translate(-25.558023,0.00355339)" />
  <polygon
     class="cls-4"
     points="242.74,6.6 237.31,6.42 247.1,1.36 "
     id="polygon4"
     transform="translate(-25.558023,0.00355339)" />
  <polyline
     class="cls-2"
     points="76.12 0.89 103.95 62.83 135.31 7.75"
     id="polyline4"
     transform="translate(-25.558023,0.00355339)" />
  <polygon
     points="128.1,9.3 139.32,0.71 137.66,14.74 134.99,8.32 "
     id="polygon5"
     transform="translate(-25.558023,0.00355339)" />
  <polygon
     class="cls-3"
     points="135.3,7.77 137.39,12.8 138.67,1.85 "
     id="polygon6"
     transform="translate(-25.558023,0.00355339)" />
  <polygon
     class="cls-4"
     points="135.3,7.77 129.92,8.54 138.67,1.85 "
     id="polygon7"
     transform="translate(-25.558023,0.00355339)" />
  <line
     class="cls-2"
     x1="70.131981"
     y1="44.523556"
     x2="90.781975"
     y2="7.4335532"
     id="line7" />
  <polygon
     points="109.15,9.04 120.29,0.35 118.76,14.4 116.03,8 "
     id="polygon8"
     transform="translate(-25.558023,0.00355339)" />
  <polygon
     class="cls-3"
     points="116.33,7.45 118.47,12.45 119.65,1.5 "
     id="polygon9"
     transform="translate(-25.558023,0.00355339)" />
  <polygon
     class="cls-4"
     points="116.33,7.45 110.96,8.27 119.65,1.5 "
     id="polygon10"
     transform="translate(-25.558023,0.00355339)" />
  <text
     xml:space="preserve"
     style="font-size:10.6667px;line-height:1.25;font-family:sans-serif;text-align:center;text-anchor:middle"
     x="10.583369"
     y="48.490746"
     id="text21"><tspan
       sodipodi:role="line"
       id="tspan21"
       x="10.583369"
       y="48.490746">光泽</tspan></text>
  <text
     xml:space="preserve"
     id="text22"
     style="font-size:10.6667px;line-height:1.25;font-family:sans-serif;text-align:center;white-space:pre;shape-inside:url(#rect22)"
     transform="translate(-11.233023,-1.7662772)"><tspan
       x="11.097606"
       y="75.833117"
       id="tspan1">漫反射</tspan></text>
  <metadata
     id="metadata22">
    <rdf:RDF>
      <cc:Work
         rdf:about="">
        <dc:title>Fresnel incidence</dc:title>
      </cc:Work>
    </rdf:RDF>
  </metadata>
</svg>
