<?xml version="1.0" encoding="UTF-8" standalone="no"?>
<!-- Created with Inkscape (http://www.inkscape.org/) -->

<svg
   inkscape:version="1.2.2 (732a01da63, 2022-12-09)"
   sodipodi:docname="macrosurfaceMicrosurface.svg"
   xml:space="preserve"
   id="svg5"
   version="1.1"
   viewBox="-5 -3 65.223888 23.907"
   height="19.051085mm"
   width="51.975815mm"
   xmlns:inkscape="http://www.inkscape.org/namespaces/inkscape"
   xmlns:sodipodi="http://sodipodi.sourceforge.net/DTD/sodipodi-0.dtd"
   xmlns="http://www.w3.org/2000/svg"
   xmlns:svg="http://www.w3.org/2000/svg"><sodipodi:namedview
     id="namedview7"
     pagecolor="#ffffff"
     bordercolor="#666666"
     borderopacity="1.0"
     inkscape:showpageshadow="2"
     inkscape:pageopacity="0.0"
     inkscape:pagecheckerboard="0"
     inkscape:deskcolor="#d1d1d1"
     inkscape:document-units="mm"
     showgrid="false"
     inkscape:zoom="4.7572176"
     inkscape:cx="75.884694"
     inkscape:cy="43.302623"
     inkscape:window-width="2560"
     inkscape:window-height="1494"
     inkscape:window-x="-11"
     inkscape:window-y="-11"
     inkscape:window-maximized="1"
     inkscape:current-layer="layer1" /><defs
     id="defs2"><rect
   x="551.37274"
   y="136.024"
   width="33.43829"
   height="12.364791"
   id="rect21461" /><rect
   x="501.20981"
   y="191.82388"
   width="44.591618"
   height="25.849821"
   id="rect21405" /><clipPath
   id="clipPath7563">
      <path
   clip-rule="nonzero"
   d="M 0,0 H 6 V 6.363281 H 0 Z m 0,0"
   id="path6214" />
    </clipPath><clipPath
   id="clipPath4431">
      <path
   clip-rule="nonzero"
   d="m 7,2 h 7 V 5.921875 H 7 Z m 0,0"
   id="path9554" />
    </clipPath><clipPath
   id="clipPath7235">
      <path
   clip-rule="nonzero"
   d="m 7,2 h 4 V 7.277344 H 7 Z m 0,0"
   id="path199" />
    </clipPath><clipPath
   id="clipPath533">
      <path
   clip-rule="nonzero"
   d="M 0,0 H 6 V 7.777344 H 0 Z m 0,0"
   id="path2965" />
    </clipPath><clipPath
   clipPathUnits="userSpaceOnUse"
   id="clipPath21138"><g
     id="g21142"
     transform="matrix(5.4153134,0,0,-5.4153134,-565.26319,311.88325)"><path
       d="m 104.38236,57.592835 h 65.37046 V 31.389681 h -65.37046 z"
       id="path21140"
       style="stroke-width:0.184662" /></g></clipPath><clipPath
   id="clipPath4238">
      <path
   clip-rule="nonzero"
   d="m 7,1 h 5 V 5.921875 H 7 Z m 0,0"
   id="path6701" />
    </clipPath>
  <clipPath
   id="clipPath8328">
      <path
   clip-rule="nonzero"
   d="M 0,0 H 6 V 6.363281 H 0 Z m 0,0"
   id="path2502" />
    </clipPath>
    <clipPath
   id="clipPath6908">
      <path
   clip-rule="nonzero"
   d="m 6,1 h 4.886719 V 6 H 6 Z m 0,0"
   id="path7561" />
    </clipPath>
  </defs><g
     inkscape:label="图层 1"
     inkscape:groupmode="layer"
     id="layer1"
     transform="translate(-109.456, -32.8137)"><g
       inkscape:label=""
       transform="translate(105.958, 29.8137)"
       id="g15202"
       style="fill:#c00000;fill-opacity:1">
  
<g
   inkscape:label=""
   transform="matrix(0.8,0,0,0.8,1.0517124,0.33642953)"
   id="g474"
   style="fill:#c00000;fill-opacity:1"><g
   fill="#000000"
   fill-opacity="1"
   id="g464"
   transform="matrix(0.442697,0,0,0.442697,-0.09684,0.0387913)"
   style="fill:#c00000;fill-opacity:1">
    <g
   id="g462"
   transform="translate(0,4.428)"
   style="fill:#c00000;fill-opacity:1">
      <path
   d="M 3.609375,-1.390625 C 3.859375,-1.859375 4,-2.34375 4,-2.515625 c 0,-0.21875 -0.125,-0.4375 -0.375,-0.4375 -0.625,0 -0.6875,1.0625 -0.703125,1.328125 C 2.90625,-1.46875 2.90625,-1.46875 2.890625,-1.453125 2.734375,-1.3125 2.3125,-1.015625 1.78125,-1.015625 1.125,-1.015625 0.75,-1.453125 0.75,-2 c 0,-0.3125 0.171875,-1.0625 0.859375,-2 0.09375,-0.109375 0.109375,-0.140625 0.109375,-0.21875 0,-0.125 -0.09375,-0.203125 -0.203125,-0.203125 -0.09375,0 -0.15625,0.0625 -0.171875,0.0625 -0.046875,0.046875 -1.125,1.34375 -1.125,2.78125 0,1 0.515625,1.65625 1.359375,1.65625 0.703125,0 1.265625,-0.484375 1.484375,-0.71875 0.125,0.296875 0.421875,0.71875 1.078125,0.71875 0.859375,0 1.625,-0.625 2.0625,-1.296875 0.609375,-0.953125 0.6875,-2.234375 0.6875,-2.375 0,-0.765625 -0.453125,-0.921875 -0.65625,-0.921875 -0.375,0 -0.765625,0.40625 -0.765625,0.75 0,0.265625 0.1875,0.390625 0.296875,0.46875 0.25,0.171875 0.46875,0.40625 0.46875,0.71875 0,0.671875 -0.84375,1.5625 -1.890625,1.5625 -0.28125,0 -0.5625,-0.078125 -0.734375,-0.375 z m 0,0"
   id="path460"
   style="fill:#c00000;fill-opacity:1" />
    </g>
  </g>
  <g
   clip-path="url(#clipPath4238)"
   id="g472"
   transform="matrix(0.442697,0,0,0.442697,-0.09684,0.0387913)"
   style="fill:#c00000;fill-opacity:1">
    <g
   fill="#000000"
   fill-opacity="1"
   id="g470"
   style="fill:#c00000;fill-opacity:1">
      <g
   id="g468"
   transform="translate(7.151,5.9219999)"
   style="fill:#c00000;fill-opacity:1">
        <path
   d="m 3.59375,-2.109375 c 0,-0.609375 -0.296875,-0.96875 -1.046875,-0.96875 -0.625,0 -0.96875,0.375 -1.125,0.640625 V -4.84375 L 0.375,-4.765625 v 0.25 c 0.46875,0 0.53125,0.0625 0.53125,0.390625 v 3.578125 C 0.90625,-0.25 0.828125,-0.25 0.375,-0.25 V 0 C 0.390625,0 0.875,-0.03125 1.171875,-0.03125 1.421875,-0.03125 1.90625,0 1.96875,0 v -0.25 c -0.453125,0 -0.515625,0 -0.515625,-0.296875 V -1.8125 c 0,-0.71875 0.578125,-1.0625 1.03125,-1.0625 0.484375,0 0.546875,0.375 0.546875,0.734375 v 1.59375 C 3.03125,-0.25 2.96875,-0.25 2.515625,-0.25 V 0 C 2.53125,0 3.015625,-0.03125 3.3125,-0.03125 3.5625,-0.03125 4.046875,0 4.109375,0 v -0.25 c -0.453125,0 -0.515625,0 -0.515625,-0.296875 z m 0,0"
   id="path466"
   style="fill:#c00000;fill-opacity:1" />
      </g>
    </g>
  </g>
</g></g><g
       inkscape:label=""
       transform="translate(136.33056,31.533132)"
       id="g16520"><g
   fill="#000000"
   fill-opacity="1"
   id="g16510"
   transform="matrix(0.352778,0,0,0.352778,-0.0771701,0.0309122)">
    <g
   id="g16508"
   transform="translate(0,4.428)">
      <path
   d="M 3.609375,-1.390625 C 3.859375,-1.859375 4,-2.34375 4,-2.515625 c 0,-0.21875 -0.125,-0.4375 -0.375,-0.4375 -0.625,0 -0.6875,1.0625 -0.703125,1.328125 C 2.90625,-1.46875 2.90625,-1.46875 2.890625,-1.453125 2.734375,-1.3125 2.3125,-1.015625 1.78125,-1.015625 1.125,-1.015625 0.75,-1.453125 0.75,-2 c 0,-0.3125 0.171875,-1.0625 0.859375,-2 0.09375,-0.109375 0.109375,-0.140625 0.109375,-0.21875 0,-0.125 -0.09375,-0.203125 -0.203125,-0.203125 -0.09375,0 -0.15625,0.0625 -0.171875,0.0625 -0.046875,0.046875 -1.125,1.34375 -1.125,2.78125 0,1 0.515625,1.65625 1.359375,1.65625 0.703125,0 1.265625,-0.484375 1.484375,-0.71875 0.125,0.296875 0.421875,0.71875 1.078125,0.71875 0.859375,0 1.625,-0.625 2.0625,-1.296875 0.609375,-0.953125 0.6875,-2.234375 0.6875,-2.375 0,-0.765625 -0.453125,-0.921875 -0.65625,-0.921875 -0.375,0 -0.765625,0.40625 -0.765625,0.75 0,0.265625 0.1875,0.390625 0.296875,0.46875 0.25,0.171875 0.46875,0.40625 0.46875,0.71875 0,0.671875 -0.84375,1.5625 -1.890625,1.5625 -0.28125,0 -0.5625,-0.078125 -0.734375,-0.375 z m 0,0"
   id="path16506" />
    </g>
  </g>
  <g
   clip-path="url(#clipPath7235)"
   id="g16518"
   transform="matrix(0.352778,0,0,0.352778,-0.0771701,0.0309122)">
    <g
   fill="#000000"
   fill-opacity="1"
   id="g16516">
      <g
   id="g16514"
   transform="translate(7.151,5.9219999)">
        <path
   d="m 1,-1.234375 c 0.109375,0.0625 0.359375,0.203125 0.765625,0.203125 C 2.484375,-1.03125 3,-1.5 3,-2.046875 3,-2.328125 2.875,-2.53125 2.703125,-2.71875 c 0.328125,-0.21875 0.59375,-0.234375 0.71875,-0.234375 -0.03125,0.03125 -0.0625,0.0625 -0.0625,0.171875 0,0.140625 0.09375,0.21875 0.21875,0.21875 0.09375,0 0.21875,-0.0625 0.21875,-0.21875 0,-0.171875 -0.125,-0.359375 -0.40625,-0.359375 -0.109375,0 -0.484375,0.015625 -0.8125,0.3125 -0.203125,-0.140625 -0.5,-0.25 -0.8125,-0.25 -0.71875,0 -1.234375,0.484375 -1.234375,1.03125 0,0.265625 0.140625,0.515625 0.328125,0.703125 -0.046875,0.0625 -0.203125,0.296875 -0.203125,0.5625 0,0.09375 0.015625,0.421875 0.296875,0.625 -0.3125,0.09375 -0.6875,0.328125 -0.6875,0.6875 0,0.515625 0.765625,0.890625 1.71875,0.890625 0.875,0 1.703125,-0.34375 1.703125,-0.90625 0,-0.203125 -0.078125,-0.578125 -0.46875,-0.78125 -0.40625,-0.21875 -0.828125,-0.21875 -1.5,-0.21875 -0.15625,0 -0.40625,0 -0.453125,-0.015625 C 1.03125,-0.546875 0.90625,-0.75 0.90625,-0.953125 0.90625,-1.125 0.96875,-1.1875 1,-1.234375 Z m 0.765625,0 c -0.671875,0 -0.671875,-0.671875 -0.671875,-0.8125 0,-0.109375 0,-0.390625 0.125,-0.578125 0.109375,-0.109375 0.296875,-0.234375 0.546875,-0.234375 0.6875,0 0.6875,0.671875 0.6875,0.8125 0,0.109375 0,0.390625 -0.140625,0.5625 -0.109375,0.125 -0.296875,0.25 -0.546875,0.25 z m 0,1.21875 c 0.625,0 1.5,0 1.5,0.546875 0,0.375 -0.5625,0.6875 -1.28125,0.6875 -0.734375,0 -1.28125,-0.328125 -1.28125,-0.6875 0,-0.25 0.21875,-0.546875 0.65625,-0.546875 z m 0,0"
   id="path16512" />
      </g>
    </g>
  </g>
</g><g
       inkscape:label=""
       transform="translate(141.33639,49.303706)"
       id="g17848"><g
   clip-path="url(#clipPath533)"
   id="g17"
   transform="matrix(0.352778,0,0,0.352778,-0.15434,0.0791104)">
    <g
   fill="#000000"
   fill-opacity="1"
   id="g15">
      <g
   id="use13"
   transform="translate(0,6.8070002)">
        <path
   d="M 4.34375,-1.578125 C 4.078125,-0.671875 3.8125,-0.21875 3.71875,-0.0625 3.328125,0.625 3.125,0.640625 2.78125,0.640625 c -0.171875,0 -0.875,-0.03125 -1.46875,-0.4375 -0.4375,0.03125 -0.796875,0.375 -0.796875,0.484375 0,0.09375 0.6875,0.5 1.609375,0.5 0.71875,0 1.890625,-0.375 2.640625,-2 C 5.03125,-1.375 5.1875,-1.9375 5.21875,-2.0625 5.421875,-2.75 5.625,-3.546875 5.625,-3.59375 c 0,-0.0625 -0.015625,-0.078125 -0.109375,-0.078125 -0.078125,0 -0.25,0.046875 -0.46875,0.1875 -0.21875,0.140625 -0.234375,0.1875 -0.296875,0.4375 -0.109375,0.34375 -0.6875,1.828125 -1.921875,1.828125 -0.96875,0 -1.546875,-0.796875 -1.546875,-1.921875 0,-0.765625 0.3125,-1.796875 0.890625,-2.484375 C 2.4375,-5.953125 2.9375,-6.484375 4.0625,-6.484375 c 0.1875,0 0.46875,0.03125 0.71875,0.109375 0.109375,0.03125 0.359375,0.109375 0.359375,0.4375 0,0.328125 -0.515625,0.96875 -0.5625,1.03125 -0.03125,0.046875 -0.0625,0.078125 -0.0625,0.125 0,0.0625 0.046875,0.0625 0.109375,0.0625 0.296875,0 0.625,-0.265625 0.890625,-0.640625 0.078125,-0.109375 0.46875,-0.65625 0.46875,-1 0,-0.40625 -0.296875,-0.515625 -0.421875,-0.546875 -0.375,-0.125 -0.703125,-0.125 -0.84375,-0.125 -2.25,0 -4.28125,1.984375 -4.28125,4.3125 0,1.015625 0.453125,2.046875 1.734375,2.046875 0.75,0 1.515625,-0.390625 2.171875,-0.90625 z m 0,0"
   id="path23" />
      </g>
    </g>
  </g>
</g><g
       inkscape:label=""
       transform="translate(156.35641,39.06432)"
       id="g19184"
       style="fill:#c00000;fill-opacity:1"><g
   fill="#000000"
   fill-opacity="1"
   id="g12"
   transform="matrix(0.352778,0,0,0.352778,-0.0937066,0.0787576)"
   style="fill:#c00000;fill-opacity:1">
    <g
   id="use10"
   transform="translate(0,6.8080001)"
   style="fill:#c00000;fill-opacity:1">
      <path
   d="m 3.84375,-5.578125 c 0.265625,1.296875 0.703125,3.4375 1.265625,4.59375 0.21875,0.421875 0.328125,0.640625 0.4375,0.640625 0.03125,0 0.0625,0 0.234375,-0.171875 C 6.546875,-1.25 7.0625,-1.828125 7.75,-2.625 l 2.1875,-2.53125 c -0.140625,0.84375 -0.5,3.078125 -0.5,4.25 0,0.265625 0.015625,0.53125 0.046875,0.796875 0,0.109375 0.046875,0.40625 0.46875,0.40625 0.421875,0 1.171875,-0.453125 1.171875,-0.640625 0,-0.0625 -0.0625,-0.078125 -0.09375,-0.078125 -0.125,0 -0.328125,0.09375 -0.4375,0.15625 -0.234375,-0.03125 -0.25,-0.1875 -0.28125,-0.40625 -0.03125,-0.328125 -0.03125,-0.625 -0.03125,-0.65625 0,-1.109375 0.4375,-4.140625 0.734375,-5.375 0.01563,-0.0625 0.01563,-0.078125 0.01563,-0.171875 0,-0.03125 0,-0.140625 -0.07813,-0.140625 -0.03125,0 -0.04687,0 -0.234375,0.234375 -0.9375,1.125 -3.84375,4.625 -4.84375,5.453125 C 5.625,-1.859375 5.453125,-2.234375 5.109375,-3.625 4.8125,-4.75 4.640625,-5.578125 4.46875,-6.546875 4.453125,-6.6875 4.390625,-6.953125 4.390625,-6.984375 4.359375,-7.03125 4.3125,-7.03125 4.28125,-7.03125 c -0.171875,0 -0.59375,0.21875 -0.625,0.4375 -0.125,0.828125 -0.3125,2.140625 -1.015625,4.046875 -0.796875,2.125 -1.015625,2.125 -1.203125,2.125 -0.125,0 -0.5,-0.078125 -0.71875,-0.28125 C 0.671875,-0.75 0.640625,-0.75 0.625,-0.75 c -0.140625,0 -0.359375,0.453125 -0.359375,0.734375 0,0.078125 0,0.203125 0.328125,0.375 C 0.84375,0.484375 1.078125,0.5 1.125,0.5 1.75,0.5 2.328125,-0.921875 2.53125,-1.4375 3,-2.5625 3.5625,-4.140625 3.84375,-5.578125 Z m 0,0"
   id="path18"
   style="fill:#c00000;fill-opacity:1" />
    </g>
  </g>
</g><g
       id="g19584"
       style="display:inline"
       transform="matrix(0.18466152,0,0,-0.18466152,104.38236,57.592835)"
       clip-path="url(#clipPath21138)"><g
         transform="matrix(1,0,0,-1,0,141.89829)"
         id="g19500"
         style="display:inline"><path
           d="M 48.695,45.754 38.738,5.91"
           style="fill:none;stroke:#c00000;stroke-width:1.6;stroke-linecap:butt;stroke-linejoin:miter;stroke-miterlimit:4;stroke-dasharray:none;stroke-opacity:1"
           id="path19498" /></g><g
         transform="matrix(0.249879,-1,-1,-0.249879,0,141.89829)"
         id="g19504"><path
           d="m 20.884,-35.07 3.104,-3.104 -10.865,3.102 10.865,3.105 z"
           style="fill:#c00000;fill-opacity:1;fill-rule:evenodd;stroke:#c00000;stroke-width:0.776136;stroke-linecap:butt;stroke-linejoin:miter;stroke-miterlimit:4;stroke-dasharray:none;stroke-opacity:1"
           id="path19502" /></g><g
         transform="matrix(1,0,0,-1,0,141.89829)"
         id="g19512"><path
           d="m 3.254,90.336 c 39.172,-48.383 50.5,-66.109 84.066,-21.012 10.188,13.692 28.946,59.117 43.317,44.957 45.843,-45.164 66.484,-100.797 86.453,-77.312 35.672,41.953 43.523,92.125 72.5,81.289 33.043,-12.356 37.797,-15.074 62.945,-27.801"
           style="fill:none;stroke:#c00000;stroke-width:2.4;stroke-linecap:butt;stroke-linejoin:miter;stroke-miterlimit:4;stroke-dasharray:none;stroke-opacity:1"
           id="path19510" /></g><g
         transform="matrix(1,0,0,-1,0,141.89829)"
         id="g19516"><path
           d="M 0.398,90.289 H 353.602"
           style="fill:none;stroke:#000000;stroke-width:2.4;stroke-linecap:butt;stroke-linejoin:miter;stroke-miterlimit:4;stroke-dasharray:none;stroke-opacity:1"
           id="path19514" /></g><g
         transform="matrix(1,0,0,-1,0,141.89829)"
         id="g19520"><path
           d="M 177,91.063 V 20.953"
           style="fill:none;stroke:#000000;stroke-width:1.6;stroke-linecap:butt;stroke-linejoin:miter;stroke-miterlimit:4;stroke-dasharray:none;stroke-opacity:1"
           id="path19518" /></g><g
         transform="matrix(0,-1,-1,0,0,141.89829)"
         id="g19524"><path
           d="m 27.352,-177 3.199,-3.199 -11.199,3.199 11.199,3.199 z"
           style="fill:#000000;fill-opacity:1;fill-rule:evenodd;stroke:#000000;stroke-width:0.8;stroke-linecap:butt;stroke-linejoin:miter;stroke-miterlimit:4;stroke-dasharray:none;stroke-opacity:1"
           id="path19522" /></g></g><text
       xml:space="preserve"
       transform="matrix(0.26458333,0,0,0.26458333,-0.23596398,-1.6581054)"
       id="text21403"
       style="font-size:10.6667px;line-height:1.25;font-family:sans-serif;white-space:pre;shape-inside:url(#rect21405)"><tspan
         x="501.20898"
         y="201.55577"
         id="tspan3208">宏曲面</tspan></text><text
       xml:space="preserve"
       transform="matrix(0.26458333,0,0,0.26458333,1.6624169,2.8495411)"
       id="text21459"
       style="font-size:10.6667px;line-height:1.25;font-family:sans-serif;white-space:pre;shape-inside:url(#rect21461);fill:#c00000;fill-opacity:1"><tspan
         x="551.37305"
         y="145.75499"
         id="tspan3210">微曲面</tspan></text><g
       inkscape:label=""
       transform="matrix(0.8,0,0,0.8,113.46244,36.546081)"
       id="g2749"
       style="fill:#c00000;fill-opacity:1"><g
   clip-path="url(#clipPath8328)"
   id="g24"
   transform="matrix(0.442697,0,0,0.442697,0.0691714,0.0318742)"
   style="fill:#c00000;fill-opacity:1">
    <g
   fill="#000000"
   fill-opacity="1"
   id="g22"
   style="fill:#c00000;fill-opacity:1">
      <g
   id="use20"
   transform="translate(0,4.428)"
   style="fill:#c00000;fill-opacity:1">
        <path
   d="M 0.515625,1.28125 C 0.484375,1.421875 0.46875,1.4375 0.453125,1.453125 0.40625,1.46875 0.296875,1.46875 0.203125,1.46875 c -0.171875,0 -0.359375,0 -0.359375,0.28125 0,0.109375 0.09375,0.1875 0.203125,0.1875 0.28125,0 0.609375,-0.03125 0.90625,-0.03125 0.359375,0 0.734375,0.03125 1.078125,0.03125 0.0625,0 0.25,0 0.25,-0.296875 0,-0.171875 -0.15625,-0.171875 -0.25,-0.171875 -0.140625,0 -0.3125,0 -0.4375,-0.015625 l 0.4375,-1.734375 c 0.140625,0.140625 0.46875,0.359375 1,0.359375 1.734375,0 2.8125,-1.578125 2.8125,-2.9375 C 5.84375,-4.09375 4.921875,-4.5 4.09375,-4.5 3.390625,-4.5 2.875,-4.109375 2.71875,-3.96875 2.328125,-4.5 1.671875,-4.5 1.5625,-4.5 1.203125,-4.5 0.90625,-4.296875 0.703125,-3.9375 0.453125,-3.53125 0.3125,-3 0.3125,-2.953125 c 0,0.140625 0.15625,0.140625 0.25,0.140625 0.109375,0 0.140625,0 0.1875,-0.046875 C 0.78125,-2.875 0.78125,-2.90625 0.84375,-3.15625 c 0.1875,-0.796875 0.421875,-0.984375 0.671875,-0.984375 0.109375,0 0.234375,0.03125 0.234375,0.359375 0,0.15625 -0.03125,0.296875 -0.0625,0.4375 z M 2.8125,-3.5 c 0.28125,-0.34375 0.75,-0.640625 1.234375,-0.640625 0.625,0 0.671875,0.53125 0.671875,0.75 0,0.515625 -0.34375,1.75 -0.5,2.140625 -0.3125,0.71875 -0.796875,0.96875 -1.203125,0.96875 C 2.421875,-0.28125 2.1875,-0.75 2.1875,-0.859375 L 2.203125,-1 Z m 0,0"
   id="path36"
   style="fill:#c00000;fill-opacity:1" />
      </g>
    </g>
  </g>
  <g
   clip-path="url(#clipPath6908)"
   id="g30"
   transform="matrix(0.442697,0,0,0.442697,0.0691714,0.0318742)"
   style="fill:#c00000;fill-opacity:1">
    <g
   fill="#000000"
   fill-opacity="1"
   id="g28"
   style="fill:#c00000;fill-opacity:1">
      <g
   id="use26"
   transform="translate(5.987,5.9219999)"
   style="fill:#c00000;fill-opacity:1">
        <path
   d="m 3.59375,-2.109375 c 0,-0.609375 -0.296875,-0.96875 -1.046875,-0.96875 -0.625,0 -0.96875,0.375 -1.125,0.640625 V -4.84375 L 0.375,-4.765625 v 0.25 c 0.46875,0 0.53125,0.0625 0.53125,0.390625 v 3.578125 C 0.90625,-0.25 0.828125,-0.25 0.375,-0.25 V 0 C 0.390625,0 0.875,-0.03125 1.171875,-0.03125 1.421875,-0.03125 1.90625,0 1.96875,0 v -0.25 c -0.453125,0 -0.515625,0 -0.515625,-0.296875 V -1.8125 c 0,-0.71875 0.578125,-1.0625 1.03125,-1.0625 0.484375,0 0.546875,0.375 0.546875,0.734375 v 1.59375 C 3.03125,-0.25 2.96875,-0.25 2.515625,-0.25 V 0 C 2.53125,0 3.015625,-0.03125 3.3125,-0.03125 3.5625,-0.03125 4.046875,0 4.109375,0 v -0.25 c -0.453125,0 -0.515625,0 -0.515625,-0.296875 z m 0,0"
   id="path40"
   style="fill:#c00000;fill-opacity:1" />
      </g>
    </g>
  </g>
</g></g></svg>
