<?xml version="1.0" encoding="UTF-8" standalone="no"?>
<svg
   id="Layer_1"
   data-name="Layer 1"
   viewBox="0 0 251.44 139.56"
   version="1.1"
   sodipodi:docname="MicrofacetnormalizedA.svg"
   inkscape:version="1.2.2 (732a01da63, 2022-12-09)"
   xmlns:inkscape="http://www.inkscape.org/namespaces/inkscape"
   xmlns:sodipodi="http://sodipodi.sourceforge.net/DTD/sodipodi-0.dtd"
   xmlns="http://www.w3.org/2000/svg"
   xmlns:svg="http://www.w3.org/2000/svg">
  <sodipodi:namedview
     id="namedview181"
     pagecolor="#ffffff"
     bordercolor="#666666"
     borderopacity="1.0"
     inkscape:showpageshadow="2"
     inkscape:pageopacity="0.0"
     inkscape:pagecheckerboard="0"
     inkscape:deskcolor="#d1d1d1"
     showgrid="false"
     inkscape:zoom="4.7829522"
     inkscape:cx="156.91146"
     inkscape:cy="63.977223"
     inkscape:window-width="2560"
     inkscape:window-height="1494"
     inkscape:window-x="-11"
     inkscape:window-y="-11"
     inkscape:window-maximized="1"
     inkscape:current-layer="Layer_1" />
  <defs
     id="defs134">
    <style
       id="style132">.cls-1,.cls-2,.cls-3{fill:none;stroke-miterlimit:10;}.cls-1,.cls-3{stroke:#000;}.cls-1{stroke-width:0.5px;}.cls-2{stroke:#0071bc;}</style>
    <clipPath
       id="clipPath5846">
      <path
         clip-rule="nonzero"
         d="M 0,0 H 6 V 6.917969 H 0 Z m 0,0"
         id="path573" />
    </clipPath>
    <clipPath
       id="clipPath585">
      <path
         clip-rule="nonzero"
         d="m 5,0 h 8 V 6.917969 H 5 Z m 0,0"
         id="path363" />
    </clipPath>
  </defs>
  <title
     id="title136">Microfacet normalize dA</title>
  <line
     class="cls-1"
     x1="84.07"
     y1="41.28"
     x2="84.07"
     y2="109.07"
     id="line138" />
  <line
     class="cls-1"
     x1="90.43"
     y1="18.17"
     x2="90.43"
     y2="108.91"
     id="line140" />
  <line
     class="cls-1"
     x1="98.95"
     y1="52.96"
     x2="98.95"
     y2="109.04"
     id="line142" />
  <line
     class="cls-1"
     x1="104.26"
     y1="10.11"
     x2="104.26"
     y2="108.95"
     id="line144" />
  <line
     class="cls-1"
     x1="112.36"
     y1="49.09"
     x2="112.36"
     y2="108.86"
     id="line146" />
  <line
     class="cls-1"
     x1="116.78"
     y1="14.61"
     x2="116.78"
     y2="108.95"
     id="line148" />
  <line
     class="cls-1"
     x1="122"
     y1="51.16"
     x2="122"
     y2="109.13"
     id="line150" />
  <line
     class="cls-1"
     x1="128.3"
     y1="16.32"
     x2="128.3"
     y2="109.13"
     id="line152" />
  <line
     class="cls-1"
     x1="131.72"
     y1="45.85"
     x2="131.72"
     y2="108.95"
     id="line154" />
  <line
     class="cls-1"
     x1="136.94"
     y1="5.16"
     x2="136.94"
     y2="109.04"
     id="line156" />
  <line
     class="cls-1"
     x1="143.78"
     y1="47.92"
     x2="143.78"
     y2="109.22"
     id="line158" />
  <line
     class="cls-1"
     x1="147.2"
     y1="13.53"
     x2="147.2"
     y2="109.04"
     id="line160" />
  <line
     class="cls-1"
     x1="154.49"
     y1="48.82"
     x2="154.49"
     y2="109.31"
     id="line162" />
  <line
     class="cls-1"
     x1="157.28"
     y1="11.37"
     x2="157.28"
     y2="108.95"
     id="line164" />
  <line
     class="cls-1"
     x1="163.32"
     y1="45.94"
     x2="163.32"
     y2="108.95"
     id="line166" />
  <line
     class="cls-1"
     x1="168.45"
     y1="12"
     x2="168.45"
     y2="109.04"
     id="line168" />
  <polyline
     class="cls-2"
     points="39.44 50.86 49.56 11.19 54.25 52.36 61.12 11.77 71.01 52.89 76.72 17.19 84.38 41.95 90.64 16.77 98.95 52.89 104.31 9.77 112.31 50.05 116.76 13.21 122.03 51.67 128.63 14.58 131.74 46.41 137.01 3.49 140.65 25.36 143.89 49.65 147.13 11.16 154.56 49.76 156.84 7.95 163.32 46.81 168.99 8.35 171.35 50.76 176.28 13.21 181.94 48.84 187.21 10.78 195 47.45 197.67 13.1 208.34 52.78 213.52 13.21"
     id="polyline170" />
  <line
     class="cls-3"
     y1="109.07"
     x2="251.44"
     y2="109.07"
     id="line172" />
  <polyline
     class="cls-1"
     points="83.5 112.33 83.5 116.62 168.6 116.62 168.6 112.02"
     id="polyline174" />
  <g
     inkscape:label=""
     transform="matrix(1.5,0,0,1.5,114.25952,121.11558)"
     id="g467">
    <g
       clip-path="url(#clipPath5846)"
       id="g24"
       transform="matrix(1.33333,0,0,1.33333,-0.458333,0.296833)">
      <g
         fill="#000000"
         fill-opacity="1"
         id="g22">
        <g
           id="use20"
           transform="translate(0,6.9180002)">
          <path
             d="m 3.78125,-0.546875 v 0.65625 L 5.25,0 v -0.3125 c -0.6875,0 -0.78125,-0.0625 -0.78125,-0.5625 V -6.921875 L 3.046875,-6.8125 V -6.5 c 0.6875,0 0.765625,0.0625 0.765625,0.5625 v 2.15625 c -0.28125,-0.359375 -0.71875,-0.625 -1.25,-0.625 -1.171875,0 -2.21875,0.984375 -2.21875,2.265625 0,1.265625 0.96875,2.25 2.109375,2.25 0.640625,0 1.078125,-0.34375 1.328125,-0.65625 z m 0,-2.671875 v 2.046875 c 0,0.171875 0,0.1875 -0.109375,0.359375 C 3.375,-0.328125 2.9375,-0.109375 2.5,-0.109375 2.046875,-0.109375 1.6875,-0.375 1.453125,-0.75 1.203125,-1.15625 1.171875,-1.71875 1.171875,-2.140625 1.171875,-2.5 1.1875,-3.09375 1.46875,-3.546875 1.6875,-3.859375 2.0625,-4.1875 2.609375,-4.1875 c 0.34375,0 0.765625,0.15625 1.0625,0.59375 0.109375,0.171875 0.109375,0.1875 0.109375,0.375 z m 0,0"
             id="path36" />
        </g>
      </g>
    </g>
    <g
       clip-path="url(#clipPath585)"
       id="g30"
       transform="matrix(1.33333,0,0,1.33333,-0.458333,0.296833)">
      <g
         fill="#000000"
         fill-opacity="1"
         id="g28">
        <g
           id="use26"
           transform="translate(5.5349998,6.9180002)">
          <path
             d="M 1.78125,-1.140625 C 1.390625,-0.484375 1,-0.34375 0.5625,-0.3125 0.4375,-0.296875 0.34375,-0.296875 0.34375,-0.109375 0.34375,-0.046875 0.40625,0 0.484375,0 0.75,0 1.0625,-0.03125 1.328125,-0.03125 c 0.34375,0 0.6875,0.03125 1,0.03125 0.0625,0 0.1875,0 0.1875,-0.1875 0,-0.109375 -0.078125,-0.125 -0.15625,-0.125 -0.21875,-0.015625 -0.46875,-0.09375 -0.46875,-0.34375 0,-0.125 0.0625,-0.234375 0.140625,-0.375 l 0.765625,-1.265625 h 2.5 c 0.015625,0.203125 0.15625,1.5625 0.15625,1.65625 0,0.296875 -0.515625,0.328125 -0.71875,0.328125 C 4.59375,-0.3125 4.5,-0.3125 4.5,-0.109375 4.5,0 4.609375,0 4.640625,0 5.046875,0 5.46875,-0.03125 5.875,-0.03125 6.125,-0.03125 6.765625,0 7.015625,0 7.0625,0 7.1875,0 7.1875,-0.203125 7.1875,-0.3125 7.09375,-0.3125 6.953125,-0.3125 6.34375,-0.3125 6.34375,-0.375 6.3125,-0.671875 l -0.609375,-6.21875 c -0.015625,-0.203125 -0.015625,-0.25 -0.1875,-0.25 -0.15625,0 -0.203125,0.078125 -0.265625,0.171875 z M 2.984375,-2.609375 4.9375,-5.90625 5.265625,-2.609375 Z m 0,0"
             id="path40" />
        </g>
      </g>
    </g>
  </g>
</svg>
