<?xml version="1.0" encoding="UTF-8" standalone="no"?>
<svg
   id="Layer_1"
   data-name="Layer 1"
   viewBox="0 0 344.97 224.8"
   version="1.1"
   sodipodi:docname="Microfacetvisiblearea.svg"
   inkscape:version="1.2.2 (732a01da63, 2022-12-09)"
   xmlns:inkscape="http://www.inkscape.org/namespaces/inkscape"
   xmlns:sodipodi="http://sodipodi.sourceforge.net/DTD/sodipodi-0.dtd"
   xmlns="http://www.w3.org/2000/svg"
   xmlns:svg="http://www.w3.org/2000/svg">
  <sodipodi:namedview
     id="namedview67"
     pagecolor="#ffffff"
     bordercolor="#666666"
     borderopacity="1.0"
     inkscape:showpageshadow="2"
     inkscape:pageopacity="0.0"
     inkscape:pagecheckerboard="0"
     inkscape:deskcolor="#d1d1d1"
     showgrid="false"
     inkscape:zoom="4.1992882"
     inkscape:cx="201.22458"
     inkscape:cy="122.4017"
     inkscape:window-width="2560"
     inkscape:window-height="1494"
     inkscape:window-x="-11"
     inkscape:window-y="-11"
     inkscape:window-maximized="1"
     inkscape:current-layer="Layer_1" />
  <defs
     id="defs4">
    <style
       id="style2">.cls-1{fill:#bbbdbf;}.cls-2{fill:#fff;}.cls-3{fill:#212121;}.cls-10,.cls-4,.cls-5,.cls-6,.cls-7{fill:none;stroke-miterlimit:10;}.cls-10,.cls-4,.cls-7{stroke:#000;}.cls-5,.cls-6{stroke:#0071bc;}.cls-6{stroke-width:3px;}.cls-7{stroke-dasharray:2;}.cls-8{fill:#a6a6a6;}.cls-9{fill:#666;}.cls-10{stroke-width:0.5px;}</style>
    <clipPath
       id="clipPath9124">
      <path
         clip-rule="nonzero"
         d="M 0,0 H 4.953125 V 6.917969 H 0 Z m 0,0"
         id="path9045" />
    </clipPath>
    <clipPath
       id="clipPath35">
      <path
         clip-rule="nonzero"
         d="M 0,0 H 6 V 6.917969 H 0 Z m 0,0"
         id="path5854" />
    </clipPath>
    <clipPath
       id="clipPath4369">
      <path
         clip-rule="nonzero"
         d="m 5,0 h 8 V 6.917969 H 5 Z m 0,0"
         id="path3968" />
    </clipPath>
    <clipPath
       id="clipPath8646">
      <path
         clip-rule="nonzero"
         d="M 0,0 H 6 V 6.917969 H 0 Z m 0,0"
         id="path5383" />
    </clipPath>
    <clipPath
       id="clipPath4700">
      <path
         clip-rule="nonzero"
         d="m 5,0 h 8 V 6.917969 H 5 Z m 0,0"
         id="path8632" />
    </clipPath>
    <clipPath
       id="clipPath2976">
      <path
         clip-rule="nonzero"
         d="M 15,2 H 28 V 6.917969 H 15 Z m 0,0"
         id="path9727" />
    </clipPath>
    <clipPath
       id="clipPath5493">
      <path
         clip-rule="nonzero"
         d="m 30,0 h 4.621094 V 6.917969 H 30 Z m 0,0"
         id="path7024" />
    </clipPath>
  </defs>
  <title
     id="title6">Microfacet visible area</title>
  <g
     id="Eye">
    <g
       id="_Group_"
       data-name="&lt;Group&gt;">
      <path
         class="cls-1"
         d="M34.74,30.84c0,10.08-5.12,16.28-14.12,17.24C17,36.29,10.85,28.19,6.16,22.38c.27.13.53.27.82.4C14.75,26.56,22.75,30.47,34.74,30.84Z"
         id="path8" />
      <path
         d="M20.62,48.08c9-1,14.1-7.16,14.12-17.24-12-.37-20-4.28-27.76-8.06-.29-.13-.55-.27-.82-.4C10.85,28.19,17,36.29,20.62,48.08ZM36.46,30.86c-.05,10.78-5.72,17.74-15.35,18.9.42,1.48.82,3,1.15,4.6l-1.68.34C17.19,38.62,9,28.54,3.51,21.87L2.39,20.48A2.05,2.05,0,0,0,3,19.94a2.48,2.48,0,0,0,.38-.78c1.46.69,2.89,1.37,4.31,2.07C16.94,25.72,25.62,30,40.65,29l.11,1.71C39.27,30.83,37.84,30.86,36.46,30.86Z"
         id="path10" />
    </g>
    <path
       class="cls-2"
       d="M30.42,42.08C28,44.94,24.54,46,22.73,44.45s-1.3-5.13,1.14-8,5.89-3.91,7.7-2.36S32.87,39.24,30.42,42.08Z"
       id="path13" />
    <path
       class="cls-3"
       d="M29.4,42.21a2.72,2.72,0,0,1-3.8.41,2.94,2.94,0,0,1,4-4.24A2.74,2.74,0,0,1,29.4,42.21Z"
       id="path15" />
  </g>
  <line
     class="cls-4"
     x1="23.76"
     y1="176.83"
     x2="330.81"
     y2="176.83"
     id="line18" />
  <line
     class="cls-4"
     x1="60.31"
     y1="24.22"
     x2="311.94"
     y2="176.88"
     id="line20" />
  <line
     class="cls-4"
     x1="26.28"
     y1="82.65"
     x2="181.39"
     y2="176.76"
     id="line22" />
  <polyline
     class="cls-5"
     points="167.42 88.97 175.9 77.13 223.17 148.22 269.07 88.86"
     id="polyline24" />
  <line
     class="cls-6"
     x1="150.21"
     y1="112.99"
     x2="167.42"
     y2="88.97"
     id="line26" />
  <polyline
     class="cls-5"
     points="109.29 88.17 139.32 128.21 150.21 112.99"
     id="polyline28" />
  <line
     class="cls-6"
     x1="96.91"
     y1="125.13"
     x2="109.29"
     y2="88.17"
     id="line30" />
  <polyline
     class="cls-5"
     points="45.8 129.93 86.52 156.16 96.91 125.13"
     id="polyline32" />
  <line
     class="cls-4"
     x1="70.82"
     y1="109.34"
     x2="104.86"
     y2="51.2"
     id="line34" />
  <line
     class="cls-7"
     x1="149.77"
     y1="112.91"
     x2="89.89"
     y2="76.25"
     id="line36" />
  <line
     class="cls-4"
     x1="311.67"
     y1="176.71"
     x2="311.67"
     y2="77.06"
     id="line38" />
  <polygon
     points="317.18 81.97 311.68 77.71 306.17 81.97 311.68 68.96 317.18 81.97"
     id="polygon40" />
  <polygon
     class="cls-8"
     points="315.98 80.42 311.68 70.27 311.68 77.08 315.98 80.42"
     id="polygon42" />
  <polygon
     class="cls-9"
     points="307.38 80.42 311.68 70.27 311.68 77.08 307.38 80.42"
     id="polygon44" />
  <polyline
     class="cls-10"
     points="181.7 179.83 181.7 186.4 311.98 186.4 311.98 179.35"
     id="polyline48" />
  <g
     inkscape:label=""
     transform="matrix(1.5,0,0,1.5,295.03438,137.11404)"
     id="g371">
    <g
       clip-path="url(#clipPath9124)"
       id="g17"
       transform="matrix(1.33333,0,0,1.33333,-0.5625,0.151)">
      <g
         fill="#000000"
         fill-opacity="1"
         id="g15">
        <g
           id="use13"
           transform="translate(0,6.9180002)">
          <path
             d="m 4.53125,-4.984375 c 0,-0.65625 -0.171875,-2.046875 -1.1875,-2.046875 -1.390625,0 -2.921875,2.8125 -2.921875,5.09375 0,0.9375 0.28125,2.046875 1.1875,2.046875 1.40625,0 2.921875,-2.859375 2.921875,-5.09375 z M 1.46875,-3.625 C 1.640625,-4.25 1.84375,-5.046875 2.25,-5.765625 2.515625,-6.25 2.875,-6.8125 3.328125,-6.8125 c 0.484375,0 0.546875,0.640625 0.546875,1.203125 0,0.5 -0.078125,1 -0.3125,1.984375 z m 2,0.328125 C 3.359375,-2.84375 3.15625,-2 2.765625,-1.28125 c -0.34375,0.6875 -0.71875,1.171875 -1.15625,1.171875 -0.328125,0 -0.53125,-0.296875 -0.53125,-1.21875 0,-0.421875 0.0625,-1 0.3125,-1.96875 z m 0,0"
             id="path23" />
        </g>
      </g>
    </g>
  </g>
  <g
     inkscape:label=""
     transform="matrix(1.5,0,0,1.5,234.46128,190.01885)"
     id="g476">
    <g
       clip-path="url(#clipPath35)"
       id="g24"
       transform="matrix(1.33333,0,0,1.33333,-0.458333,0.296833)">
      <g
         fill="#000000"
         fill-opacity="1"
         id="g22">
        <g
           id="use20"
           transform="translate(0,6.9180002)">
          <path
             d="m 3.78125,-0.546875 v 0.65625 L 5.25,0 v -0.3125 c -0.6875,0 -0.78125,-0.0625 -0.78125,-0.5625 V -6.921875 L 3.046875,-6.8125 V -6.5 c 0.6875,0 0.765625,0.0625 0.765625,0.5625 v 2.15625 c -0.28125,-0.359375 -0.71875,-0.625 -1.25,-0.625 -1.171875,0 -2.21875,0.984375 -2.21875,2.265625 0,1.265625 0.96875,2.25 2.109375,2.25 0.640625,0 1.078125,-0.34375 1.328125,-0.65625 z m 0,-2.671875 v 2.046875 c 0,0.171875 0,0.1875 -0.109375,0.359375 C 3.375,-0.328125 2.9375,-0.109375 2.5,-0.109375 2.046875,-0.109375 1.6875,-0.375 1.453125,-0.75 1.203125,-1.15625 1.171875,-1.71875 1.171875,-2.140625 1.171875,-2.5 1.1875,-3.09375 1.46875,-3.546875 1.6875,-3.859375 2.0625,-4.1875 2.609375,-4.1875 c 0.34375,0 0.765625,0.15625 1.0625,0.59375 0.109375,0.171875 0.109375,0.1875 0.109375,0.375 z m 0,0"
             id="path36" />
        </g>
      </g>
    </g>
    <g
       clip-path="url(#clipPath4369)"
       id="g30"
       transform="matrix(1.33333,0,0,1.33333,-0.458333,0.296833)">
      <g
         fill="#000000"
         fill-opacity="1"
         id="g28">
        <g
           id="use26"
           transform="translate(5.5349998,6.9180002)">
          <path
             d="M 1.78125,-1.140625 C 1.390625,-0.484375 1,-0.34375 0.5625,-0.3125 0.4375,-0.296875 0.34375,-0.296875 0.34375,-0.109375 0.34375,-0.046875 0.40625,0 0.484375,0 0.75,0 1.0625,-0.03125 1.328125,-0.03125 c 0.34375,0 0.6875,0.03125 1,0.03125 0.0625,0 0.1875,0 0.1875,-0.1875 0,-0.109375 -0.078125,-0.125 -0.15625,-0.125 -0.21875,-0.015625 -0.46875,-0.09375 -0.46875,-0.34375 0,-0.125 0.0625,-0.234375 0.140625,-0.375 l 0.765625,-1.265625 h 2.5 c 0.015625,0.203125 0.15625,1.5625 0.15625,1.65625 0,0.296875 -0.515625,0.328125 -0.71875,0.328125 C 4.59375,-0.3125 4.5,-0.3125 4.5,-0.109375 4.5,0 4.609375,0 4.640625,0 5.046875,0 5.46875,-0.03125 5.875,-0.03125 6.125,-0.03125 6.765625,0 7.015625,0 7.0625,0 7.1875,0 7.1875,-0.203125 7.1875,-0.3125 7.09375,-0.3125 6.953125,-0.3125 6.34375,-0.3125 6.34375,-0.375 6.3125,-0.671875 l -0.609375,-6.21875 c -0.015625,-0.203125 -0.015625,-0.25 -0.1875,-0.25 -0.15625,0 -0.203125,0.078125 -0.265625,0.171875 z M 2.984375,-2.609375 4.9375,-5.90625 5.265625,-2.609375 Z m 0,0"
             id="path40" />
        </g>
      </g>
    </g>
  </g>
  <g
     inkscape:label=""
     transform="matrix(1.5,0,0,1.5,21.335484,61.968847)"
     id="g629">
    <g
       clip-path="url(#clipPath8646)"
       id="g42"
       transform="matrix(1.33333,0,0,1.33333,-0.458333,0.296833)">
      <g
         fill="#000000"
         fill-opacity="1"
         id="g40">
        <g
           id="use38"
           transform="translate(0,6.9180002)">
          <path
             d="m 3.78125,-0.546875 v 0.65625 L 5.25,0 v -0.3125 c -0.6875,0 -0.78125,-0.0625 -0.78125,-0.5625 V -6.921875 L 3.046875,-6.8125 V -6.5 c 0.6875,0 0.765625,0.0625 0.765625,0.5625 v 2.15625 c -0.28125,-0.359375 -0.71875,-0.625 -1.25,-0.625 -1.171875,0 -2.21875,0.984375 -2.21875,2.265625 0,1.265625 0.96875,2.25 2.109375,2.25 0.640625,0 1.078125,-0.34375 1.328125,-0.65625 z m 0,-2.671875 v 2.046875 c 0,0.171875 0,0.1875 -0.109375,0.359375 C 3.375,-0.328125 2.9375,-0.109375 2.5,-0.109375 2.046875,-0.109375 1.6875,-0.375 1.453125,-0.75 1.203125,-1.15625 1.171875,-1.71875 1.171875,-2.140625 1.171875,-2.5 1.1875,-3.09375 1.46875,-3.546875 1.6875,-3.859375 2.0625,-4.1875 2.609375,-4.1875 c 0.34375,0 0.765625,0.15625 1.0625,0.59375 0.109375,0.171875 0.109375,0.1875 0.109375,0.375 z m 0,0"
             id="path70" />
        </g>
      </g>
    </g>
    <g
       clip-path="url(#clipPath4700)"
       id="g48"
       transform="matrix(1.33333,0,0,1.33333,-0.458333,0.296833)">
      <g
         fill="#000000"
         fill-opacity="1"
         id="g46">
        <g
           id="use44"
           transform="translate(5.5349998,6.9180002)">
          <path
             d="M 1.78125,-1.140625 C 1.390625,-0.484375 1,-0.34375 0.5625,-0.3125 0.4375,-0.296875 0.34375,-0.296875 0.34375,-0.109375 0.34375,-0.046875 0.40625,0 0.484375,0 0.75,0 1.0625,-0.03125 1.328125,-0.03125 c 0.34375,0 0.6875,0.03125 1,0.03125 0.0625,0 0.1875,0 0.1875,-0.1875 0,-0.109375 -0.078125,-0.125 -0.15625,-0.125 -0.21875,-0.015625 -0.46875,-0.09375 -0.46875,-0.34375 0,-0.125 0.0625,-0.234375 0.140625,-0.375 l 0.765625,-1.265625 h 2.5 c 0.015625,0.203125 0.15625,1.5625 0.15625,1.65625 0,0.296875 -0.515625,0.328125 -0.71875,0.328125 C 4.59375,-0.3125 4.5,-0.3125 4.5,-0.109375 4.5,0 4.609375,0 4.640625,0 5.046875,0 5.46875,-0.03125 5.875,-0.03125 6.125,-0.03125 6.765625,0 7.015625,0 7.0625,0 7.1875,0 7.1875,-0.203125 7.1875,-0.3125 7.09375,-0.3125 6.953125,-0.3125 6.34375,-0.3125 6.34375,-0.375 6.3125,-0.671875 l -0.609375,-6.21875 c -0.015625,-0.203125 -0.015625,-0.25 -0.1875,-0.25 -0.15625,0 -0.203125,0.078125 -0.265625,0.171875 z M 2.984375,-2.609375 4.9375,-5.90625 5.265625,-2.609375 Z m 0,0"
             id="path74" />
        </g>
      </g>
    </g>
    <g
       clip-path="url(#clipPath2976)"
       id="g58"
       transform="matrix(1.33333,0,0,1.33333,-0.458333,0.296833)">
      <g
         fill="#000000"
         fill-opacity="1"
         id="g56">
        <g
           id="use50"
           transform="translate(14.667,6.9180002)">
          <path
             d="m 1.171875,-2.171875 c 0,-1.625 0.8125,-2.046875 1.34375,-2.046875 0.09375,0 0.71875,0.015625 1.0625,0.375 -0.40625,0.03125 -0.46875,0.328125 -0.46875,0.453125 0,0.265625 0.1875,0.453125 0.453125,0.453125 0.265625,0 0.46875,-0.15625 0.46875,-0.46875 0,-0.671875 -0.765625,-1.0625 -1.53125,-1.0625 -1.25,0 -2.15625,1.078125 -2.15625,2.3125 0,1.28125 0.984375,2.265625 2.140625,2.265625 1.328125,0 1.65625,-1.203125 1.65625,-1.296875 0,-0.09375 -0.109375,-0.09375 -0.140625,-0.09375 -0.078125,0 -0.109375,0.03125 -0.125,0.09375 -0.28125,0.921875 -0.9375,1.046875 -1.296875,1.046875 -0.53125,0 -1.40625,-0.421875 -1.40625,-2.03125 z m 0,0"
             id="path78" />
        </g>
        <g
           id="use52"
           transform="translate(19.094379,6.9180002)">
          <path
             d="M 4.6875,-2.140625 C 4.6875,-3.40625 3.703125,-4.46875 2.5,-4.46875 c -1.25,0 -2.21875,1.09375 -2.21875,2.328125 0,1.296875 1.03125,2.25 2.203125,2.25 1.203125,0 2.203125,-0.984375 2.203125,-2.25 z m -2.1875,2 c -0.4375,0 -0.875,-0.203125 -1.140625,-0.671875 -0.25,-0.4375 -0.25,-1.046875 -0.25,-1.40625 0,-0.390625 0,-0.921875 0.234375,-1.359375 C 1.609375,-4.03125 2.078125,-4.25 2.484375,-4.25 c 0.4375,0 0.859375,0.21875 1.125,0.65625 0.265625,0.421875 0.265625,1 0.265625,1.375 0,0.359375 0,0.90625 -0.21875,1.34375 C 3.421875,-0.421875 2.984375,-0.140625 2.5,-0.140625 Z m 0,0"
             id="path82" />
        </g>
        <g
           id="use54"
           transform="translate(24.07568,6.9180002)">
          <path
             d="m 2.078125,-1.9375 c 0.21875,0.046875 1.03125,0.203125 1.03125,0.921875 0,0.5 -0.34375,0.90625 -1.125,0.90625 -0.84375,0 -1.203125,-0.5625 -1.390625,-1.421875 C 0.5625,-1.65625 0.5625,-1.6875 0.453125,-1.6875 c -0.125,0 -0.125,0.0625 -0.125,0.234375 V -0.125 c 0,0.171875 0,0.234375 0.109375,0.234375 0.046875,0 0.0625,-0.015625 0.25,-0.203125 0.015625,-0.015625 0.015625,-0.03125 0.203125,-0.21875 0.4375,0.40625 0.890625,0.421875 1.09375,0.421875 1.140625,0 1.609375,-0.671875 1.609375,-1.390625 0,-0.515625 -0.296875,-0.828125 -0.421875,-0.9375 C 2.84375,-2.546875 2.453125,-2.625 2.03125,-2.703125 1.46875,-2.8125 0.8125,-2.9375 0.8125,-3.515625 c 0,-0.359375 0.25,-0.765625 1.109375,-0.765625 1.09375,0 1.15625,0.90625 1.171875,1.203125 0,0.09375 0.09375,0.09375 0.109375,0.09375 0.140625,0 0.140625,-0.046875 0.140625,-0.234375 v -1.015625 c 0,-0.15625 0,-0.234375 -0.109375,-0.234375 -0.046875,0 -0.078125,0 -0.203125,0.125 -0.03125,0.03125 -0.125,0.125 -0.171875,0.15625 -0.375,-0.28125 -0.78125,-0.28125 -0.9375,-0.28125 -1.21875,0 -1.59375,0.671875 -1.59375,1.234375 0,0.34375 0.15625,0.625 0.421875,0.84375 0.328125,0.25 0.609375,0.3125 1.328125,0.453125 z m 0,0"
             id="path86" />
        </g>
      </g>
    </g>
    <g
       clip-path="url(#clipPath5493)"
       id="g64"
       transform="matrix(1.33333,0,0,1.33333,-0.458333,0.296833)">
      <g
         fill="#000000"
         fill-opacity="1"
         id="g62">
        <g
           id="use60"
           transform="translate(29.666,6.9180002)">
          <path
             d="m 4.53125,-4.984375 c 0,-0.65625 -0.171875,-2.046875 -1.1875,-2.046875 -1.390625,0 -2.921875,2.8125 -2.921875,5.09375 0,0.9375 0.28125,2.046875 1.1875,2.046875 1.40625,0 2.921875,-2.859375 2.921875,-5.09375 z M 1.46875,-3.625 C 1.640625,-4.25 1.84375,-5.046875 2.25,-5.765625 2.515625,-6.25 2.875,-6.8125 3.328125,-6.8125 c 0.484375,0 0.546875,0.640625 0.546875,1.203125 0,0.5 -0.078125,1 -0.3125,1.984375 z m 2,0.328125 C 3.359375,-2.84375 3.15625,-2 2.765625,-1.28125 c -0.34375,0.6875 -0.71875,1.171875 -1.15625,1.171875 -0.328125,0 -0.53125,-0.296875 -0.53125,-1.21875 0,-0.421875 0.0625,-1 0.3125,-1.96875 z m 0,0"
             id="path90" />
        </g>
      </g>
    </g>
  </g>
</svg>
