<?xml version="1.0" encoding="UTF-8" standalone="no"?>
<svg
   id="Layer_1"
   data-name="Layer 1"
   viewBox="0 0 315.11 261.98"
   version="1.1"
   sodipodi:docname="Parallelprojectionomeganormal.svg"
   inkscape:version="1.2.2 (732a01da63, 2022-12-09)"
   xmlns:inkscape="http://www.inkscape.org/namespaces/inkscape"
   xmlns:sodipodi="http://sodipodi.sourceforge.net/DTD/sodipodi-0.dtd"
   xmlns="http://www.w3.org/2000/svg"
   xmlns:svg="http://www.w3.org/2000/svg">
  <sodipodi:namedview
     id="namedview69"
     pagecolor="#ffffff"
     bordercolor="#666666"
     borderopacity="1.0"
     inkscape:showpageshadow="2"
     inkscape:pageopacity="0.0"
     inkscape:pagecheckerboard="0"
     inkscape:deskcolor="#d1d1d1"
     showgrid="false"
     inkscape:zoom="5.0958758"
     inkscape:cx="246.8663"
     inkscape:cy="154.24238"
     inkscape:window-width="2560"
     inkscape:window-height="1494"
     inkscape:window-x="-11"
     inkscape:window-y="-11"
     inkscape:window-maximized="1"
     inkscape:current-layer="Layer_1" />
  <defs
     id="defs4">
    <style
       id="style2">.cls-1,.cls-4{fill:none;stroke:#000;stroke-miterlimit:10;}.cls-2{fill:#a6a6a6;}.cls-3{fill:#666;}.cls-4{stroke-dasharray:2;}</style>
    <clipPath
       id="clipPath3691">
      <path
         clip-rule="nonzero"
         d="M 0,2 H 7 V 7.488281 H 0 Z m 0,0"
         id="path8658" />
    </clipPath>
    <clipPath
       id="clipPath943">
      <path
         clip-rule="nonzero"
         d="M 0,0 H 7 V 4.429688 H 0 Z m 0,0"
         id="path1770" />
    </clipPath>
    <clipPath
       id="clipPath7954">
      <path
         clip-rule="nonzero"
         d="m 8,0 h 3 V 7.96875 H 8 Z m 0,0"
         id="path2798" />
    </clipPath>
    <clipPath
       id="clipPath528">
      <path
         clip-rule="nonzero"
         d="m 7,1 h 6 V 5.921875 H 7 Z m 0,0"
         id="path9300" />
    </clipPath>
    <clipPath
       id="clipPath3618">
      <path
         clip-rule="nonzero"
         d="M 0,0 H 7 V 4.429688 H 0 Z m 0,0"
         id="path7729" />
    </clipPath>
    <clipPath
       id="clipPath5412">
      <path
         clip-rule="nonzero"
         d="M 0,0 H 4.953125 V 6.917969 H 0 Z m 0,0"
         id="path5048" />
    </clipPath>
  </defs>
  <title
     id="title6">Parallel projection omega normal</title>
  <line
     class="cls-1"
     x1="287.89"
     y1="84.22"
     x2="287.89"
     y2="31.87"
     id="line8" />
  <polygon
     points="293.39 36.78 287.89 32.52 282.39 36.78 287.89 23.77 293.39 36.78"
     id="polygon10" />
  <polygon
     class="cls-2"
     points="292.19 35.23 287.89 25.08 287.89 31.89 292.19 35.23"
     id="polygon12" />
  <polygon
     class="cls-3"
     points="283.59 35.23 287.89 25.08 287.89 31.89 283.59 35.23"
     id="polygon14" />
  <polyline
     class="cls-1"
     points="52.84 239.01 287.89 239.01 287.89 92.33"
     id="polyline16" />
  <polygon
     points="57.75 244.51 53.49 239.01 57.75 233.5 44.74 239.01 57.75 244.51"
     id="polygon18" />
  <polygon
     class="cls-2"
     points="56.19 243.31 46.05 239.01 52.86 239.01 56.19 243.31"
     id="polygon20" />
  <polygon
     class="cls-3"
     points="56.19 234.71 46.05 239.01 52.86 239.01 56.19 234.71"
     id="polygon22" />
  <polygon
     points="293.39 97.24 287.89 92.98 282.39 97.24 287.89 84.22 293.39 97.24"
     id="polygon24" />
  <polygon
     class="cls-2"
     points="292.19 95.68 287.89 85.54 287.89 92.35 292.19 95.68"
     id="polygon26" />
  <polygon
     class="cls-3"
     points="283.59 95.68 287.89 85.54 287.89 92.35 283.59 95.68"
     id="polygon28" />
  <line
     class="cls-1"
     x1="8.1"
     y1="239.01"
     x2="44.74"
     y2="239.01"
     id="line30" />
  <polygon
     points="13.01 244.51 8.75 239.01 13.01 233.5 0 239.01 13.01 244.51"
     id="polygon32" />
  <polygon
     class="cls-2"
     points="11.46 243.31 1.31 239.01 8.12 239.01 11.46 243.31"
     id="polygon34" />
  <polygon
     class="cls-3"
     points="11.46 234.71 1.31 239.01 8.12 239.01 11.46 234.71"
     id="polygon36" />
  <line
     class="cls-1"
     x1="287.89"
     y1="239.01"
     x2="51.75"
     y2="87.9"
     id="line38" />
  <polygon
     points="58.85 85.92 52.3 88.25 52.92 95.19 44.92 83.54 58.85 85.92"
     id="polygon40" />
  <polygon
     class="cls-2"
     points="56.89 86.09 46.03 84.25 51.76 87.92 56.89 86.09"
     id="polygon42" />
  <polygon
     class="cls-3"
     points="52.26 93.33 46.03 84.25 51.76 87.92 52.26 93.33"
     id="polygon44" />
  <line
     class="cls-4"
     x1="45.13"
     y1="83.87"
     x2="45.13"
     y2="238.72"
     id="line52" />
  <line
     class="cls-4"
     x1="44.57"
     y1="84.15"
     x2="288.5"
     y2="84.15"
     id="line54" />
  <g
     inkscape:label=""
     transform="matrix(1.75,0,0,1.75,26.041916,71.815461)"
     id="g399">
    <g
       clip-path="url(#clipPath943)"
       id="g17"
       transform="matrix(1.33333,0,0,1.33333,-0.291667,0.116833)">
      <g
         fill="#000000"
         fill-opacity="1"
         id="g15">
        <g
           id="use13"
           transform="translate(0,4.428)">
          <path
             d="M 3.609375,-1.390625 C 3.859375,-1.859375 4,-2.34375 4,-2.515625 c 0,-0.21875 -0.125,-0.4375 -0.375,-0.4375 -0.625,0 -0.6875,1.0625 -0.703125,1.328125 C 2.90625,-1.46875 2.90625,-1.46875 2.890625,-1.453125 2.734375,-1.3125 2.3125,-1.015625 1.78125,-1.015625 1.125,-1.015625 0.75,-1.453125 0.75,-2 c 0,-0.3125 0.171875,-1.0625 0.859375,-2 0.09375,-0.109375 0.109375,-0.140625 0.109375,-0.21875 0,-0.125 -0.09375,-0.203125 -0.203125,-0.203125 -0.09375,0 -0.15625,0.0625 -0.171875,0.0625 -0.046875,0.046875 -1.125,1.34375 -1.125,2.78125 0,1 0.515625,1.65625 1.359375,1.65625 0.703125,0 1.265625,-0.484375 1.484375,-0.71875 0.125,0.296875 0.421875,0.71875 1.078125,0.71875 0.859375,0 1.625,-0.625 2.0625,-1.296875 0.609375,-0.953125 0.6875,-2.234375 0.6875,-2.375 0,-0.765625 -0.453125,-0.921875 -0.65625,-0.921875 -0.375,0 -0.765625,0.40625 -0.765625,0.75 0,0.265625 0.1875,0.390625 0.296875,0.46875 0.25,0.171875 0.46875,0.40625 0.46875,0.71875 0,0.671875 -0.84375,1.5625 -1.890625,1.5625 -0.28125,0 -0.5625,-0.078125 -0.734375,-0.375 z m 0,0"
             id="path23" />
        </g>
      </g>
    </g>
  </g>
  <g
     inkscape:label=""
     transform="matrix(1.75,0,0,1.75,290.96203,77.898812)"
     id="g505">
    <g
       fill="#000000"
       fill-opacity="1"
       id="g19"
       transform="matrix(1.33333,0,0,1.33333,-0.291667,0.116833)">
      <g
         id="use17"
         transform="translate(0,4.428)">
        <path
           d="M 3.609375,-1.390625 C 3.859375,-1.859375 4,-2.34375 4,-2.515625 c 0,-0.21875 -0.125,-0.4375 -0.375,-0.4375 -0.625,0 -0.6875,1.0625 -0.703125,1.328125 C 2.90625,-1.46875 2.90625,-1.46875 2.890625,-1.453125 2.734375,-1.3125 2.3125,-1.015625 1.78125,-1.015625 1.125,-1.015625 0.75,-1.453125 0.75,-2 c 0,-0.3125 0.171875,-1.0625 0.859375,-2 0.09375,-0.109375 0.109375,-0.140625 0.109375,-0.21875 0,-0.125 -0.09375,-0.203125 -0.203125,-0.203125 -0.09375,0 -0.15625,0.0625 -0.171875,0.0625 -0.046875,0.046875 -1.125,1.34375 -1.125,2.78125 0,1 0.515625,1.65625 1.359375,1.65625 0.703125,0 1.265625,-0.484375 1.484375,-0.71875 0.125,0.296875 0.421875,0.71875 1.078125,0.71875 0.859375,0 1.625,-0.625 2.0625,-1.296875 0.609375,-0.953125 0.6875,-2.234375 0.6875,-2.375 0,-0.765625 -0.453125,-0.921875 -0.65625,-0.921875 -0.375,0 -0.765625,0.40625 -0.765625,0.75 0,0.265625 0.1875,0.390625 0.296875,0.46875 0.25,0.171875 0.46875,0.40625 0.46875,0.71875 0,0.671875 -0.84375,1.5625 -1.890625,1.5625 -0.28125,0 -0.5625,-0.078125 -0.734375,-0.375 z m 0,0"
           id="path31" />
      </g>
    </g>
    <g
       clip-path="url(#clipPath7954)"
       id="g25"
       transform="matrix(1.33333,0,0,1.33333,-0.291667,0.116833)">
      <g
         fill="#000000"
         fill-opacity="1"
         id="g23">
        <g
           id="use21"
           transform="translate(7.151,6.2270002)">
          <path
             d="m 1.4375,-4.96875 c 0,-0.09375 0,-0.25 -0.171875,-0.25 -0.171875,0 -0.171875,0.171875 -0.171875,0.296875 V 1.4375 c 0,0.125 0,0.296875 0.171875,0.296875 0.171875,0 0.171875,-0.15625 0.171875,-0.265625 z m 1.53125,0.046875 c 0,-0.125 0,-0.296875 -0.171875,-0.296875 -0.15625,0 -0.15625,0.15625 -0.15625,0.25 v 6.4375 c 0,0.109375 0,0.265625 0.15625,0.265625 0.171875,0 0.171875,-0.171875 0.171875,-0.296875 z m 0,0"
             id="path35" />
        </g>
      </g>
    </g>
  </g>
  <g
     inkscape:label=""
     transform="matrix(1.75,0,0,1.75,44.291967,246.85898)"
     id="g641">
    <g
       fill="#000000"
       fill-opacity="1"
       id="g631"
       transform="matrix(1.33333,0,0,1.33333,-0.291667,0.116833)">
      <g
         id="g629"
         transform="translate(0,4.428)">
        <path
           d="M 3.609375,-1.390625 C 3.859375,-1.859375 4,-2.34375 4,-2.515625 c 0,-0.21875 -0.125,-0.4375 -0.375,-0.4375 -0.625,0 -0.6875,1.0625 -0.703125,1.328125 C 2.90625,-1.46875 2.90625,-1.46875 2.890625,-1.453125 2.734375,-1.3125 2.3125,-1.015625 1.78125,-1.015625 1.125,-1.015625 0.75,-1.453125 0.75,-2 c 0,-0.3125 0.171875,-1.0625 0.859375,-2 0.09375,-0.109375 0.109375,-0.140625 0.109375,-0.21875 0,-0.125 -0.09375,-0.203125 -0.203125,-0.203125 -0.09375,0 -0.15625,0.0625 -0.171875,0.0625 -0.046875,0.046875 -1.125,1.34375 -1.125,2.78125 0,1 0.515625,1.65625 1.359375,1.65625 0.703125,0 1.265625,-0.484375 1.484375,-0.71875 0.125,0.296875 0.421875,0.71875 1.078125,0.71875 0.859375,0 1.625,-0.625 2.0625,-1.296875 0.609375,-0.953125 0.6875,-2.234375 0.6875,-2.375 0,-0.765625 -0.453125,-0.921875 -0.65625,-0.921875 -0.375,0 -0.765625,0.40625 -0.765625,0.75 0,0.265625 0.1875,0.390625 0.296875,0.46875 0.25,0.171875 0.46875,0.40625 0.46875,0.71875 0,0.671875 -0.84375,1.5625 -1.890625,1.5625 -0.28125,0 -0.5625,-0.078125 -0.734375,-0.375 z m 0,0"
           id="path627" />
      </g>
    </g>
    <g
       clip-path="url(#clipPath528)"
       id="g639"
       transform="matrix(1.33333,0,0,1.33333,-0.291667,0.116833)">
      <g
         fill="#000000"
         fill-opacity="1"
         id="g637">
        <g
           id="g635"
           transform="translate(7.151,5.9219999)">
          <path
             d="m 3.28125,-4.5625 c 0,-0.109375 0,-0.28125 -0.171875,-0.28125 -0.171875,0 -0.171875,0.171875 -0.171875,0.28125 v 4.21875 h -2.125 c -0.109375,0 -0.28125,0 -0.28125,0.171875 C 0.53125,0 0.703125,0 0.8125,0 H 5.40625 C 5.515625,0 5.6875,0 5.6875,-0.171875 5.6875,-0.34375 5.53125,-0.34375 5.40625,-0.34375 h -2.125 z m 0,0"
             id="path633" />
        </g>
      </g>
    </g>
  </g>
  <g
     inkscape:label=""
     transform="matrix(1.75,0,0,1.75,280.36523,9.0195825)"
     id="g919">
    <g
       clip-path="url(#clipPath3618)"
       id="g917"
       transform="matrix(1.33333,0,0,1.33333,-0.416667,0.096)">
      <g
         fill="#000000"
         fill-opacity="1"
         id="g915">
        <g
           id="g913"
           transform="translate(0,4.428)">
          <path
             d="M 2.796875,-3.75 C 2.65625,-4.25 2.109375,-4.5 1.5625,-4.5 1.203125,-4.5 0.921875,-4.296875 0.703125,-3.9375 0.453125,-3.53125 0.3125,-3 0.3125,-2.953125 c 0,0.140625 0.15625,0.140625 0.25,0.140625 0.109375,0 0.140625,0 0.1875,-0.046875 C 0.78125,-2.875 0.78125,-2.90625 0.84375,-3.15625 1.03125,-3.921875 1.25,-4.140625 1.515625,-4.140625 c 0.15625,0 0.234375,0.09375 0.234375,0.359375 0,0.171875 -0.046875,0.328125 -0.140625,0.734375 C 1.53125,-2.765625 1.4375,-2.375 1.390625,-2.15625 L 1.03125,-0.75 C 1,-0.625 0.953125,-0.421875 0.953125,-0.359375 c 0,0.203125 0.15625,0.4375 0.46875,0.4375 0.515625,0 0.625,-0.453125 0.703125,-0.75 0.09375,-0.375 0.171875,-0.6875 0.28125,-1.125 0.03125,-0.125 0.28125,-1.15625 0.3125,-1.1875 0,-0.0625 0.28125,-0.5 0.609375,-0.78125 0.28125,-0.21875 0.609375,-0.375 1.03125,-0.375 0.25,0 0.5,0.09375 0.5,0.578125 0,0.578125 -0.4375,1.734375 -0.625,2.234375 -0.125,0.265625 -0.140625,0.34375 -0.140625,0.515625 0,0.578125 0.578125,0.890625 1.125,0.890625 1.046875,0 1.546875,-1.359375 1.546875,-1.546875 0,-0.140625 -0.140625,-0.140625 -0.234375,-0.140625 -0.125,0 -0.1875,0 -0.234375,0.125 C 5.96875,-0.375 5.4375,-0.28125 5.28125,-0.28125 c -0.078125,0 -0.171875,0 -0.171875,-0.203125 0,-0.234375 0.09375,-0.484375 0.1875,-0.734375 0.171875,-0.40625 0.625,-1.578125 0.625,-2.125 C 5.921875,-4.265625 5.15625,-4.5 4.4375,-4.5 4.234375,-4.5 3.5,-4.5 2.796875,-3.75 Z m 0,0"
             id="path911" />
        </g>
      </g>
    </g>
  </g>
  <g
     inkscape:label=""
     transform="matrix(1.75,0,0,1.75,266.23615,195.64108)"
     id="g1080">
    <g
       clip-path="url(#clipPath5412)"
       id="g1078"
       transform="matrix(1.33333,0,0,1.33333,-0.5625,0.151)">
      <g
         fill="#000000"
         fill-opacity="1"
         id="g1076">
        <g
           id="g1074"
           transform="translate(0,6.9180002)">
          <path
             d="m 4.53125,-4.984375 c 0,-0.65625 -0.171875,-2.046875 -1.1875,-2.046875 -1.390625,0 -2.921875,2.8125 -2.921875,5.09375 0,0.9375 0.28125,2.046875 1.1875,2.046875 1.40625,0 2.921875,-2.859375 2.921875,-5.09375 z M 1.46875,-3.625 C 1.640625,-4.25 1.84375,-5.046875 2.25,-5.765625 2.515625,-6.25 2.875,-6.8125 3.328125,-6.8125 c 0.484375,0 0.546875,0.640625 0.546875,1.203125 0,0.5 -0.078125,1 -0.3125,1.984375 z m 2,0.328125 C 3.359375,-2.84375 3.15625,-2 2.765625,-1.28125 c -0.34375,0.6875 -0.71875,1.171875 -1.15625,1.171875 -0.328125,0 -0.53125,-0.296875 -0.53125,-1.21875 0,-0.421875 0.0625,-1 0.3125,-1.96875 z m 0,0"
             id="path1072" />
        </g>
      </g>
    </g>
  </g>
</svg>
