<?xml version="1.0" encoding="UTF-8" standalone="no"?>
<svg
   sodipodi:docname="Perfectreflectioncomponents.svg"
   version="1.1"
   viewBox="0 0 359.94 212.68"
   data-name="Layer 1"
   id="Layer_1"
   inkscape:version="1.2.2 (732a01da63, 2022-12-09)"
   xmlns:inkscape="http://www.inkscape.org/namespaces/inkscape"
   xmlns:sodipodi="http://sodipodi.sourceforge.net/DTD/sodipodi-0.dtd"
   xmlns="http://www.w3.org/2000/svg"
   xmlns:svg="http://www.w3.org/2000/svg">
  <sodipodi:namedview
     id="namedview113"
     pagecolor="#ffffff"
     bordercolor="#666666"
     borderopacity="1.0"
     inkscape:showpageshadow="2"
     inkscape:pageopacity="0.0"
     inkscape:pagecheckerboard="0"
     inkscape:deskcolor="#d1d1d1"
     showgrid="false"
     inkscape:zoom="4.4385933"
     inkscape:cx="235.88554"
     inkscape:cy="91.245124"
     inkscape:window-width="2560"
     inkscape:window-height="1494"
     inkscape:window-x="-11"
     inkscape:window-y="-11"
     inkscape:window-maximized="1"
     inkscape:current-layer="Layer_1" />
  <defs
     id="defs4">
    <style
       id="style2">.cls-1,.cls-4{fill:none;stroke:#000;stroke-miterlimit:10;}.cls-2{fill:#a6a6a6;}.cls-3{fill:#666;}.cls-4{stroke-dasharray:2;}</style>
    <clipPath
       id="clipPath7625">
      <path
         clip-rule="nonzero"
         d="m 7,2 h 3 V 5.921875 H 7 Z m 0,0"
         id="path4628" />
    </clipPath>
    <clipPath
       id="clipPath4405">
      <path
         clip-rule="nonzero"
         d="m 7,2 h 4 V 5.921875 H 7 Z m 0,0"
         id="path2700" />
    </clipPath>
    <clipPath
       id="clipPath2906">
      <path
         clip-rule="nonzero"
         d="m 7,2 h 4 V 5.921875 H 7 Z m 0,0"
         id="path3277" />
    </clipPath>
    <clipPath
       id="clipPath8642">
      <path
         clip-rule="nonzero"
         d="m 11,1 h 6 v 4.921875 h -6 z m 0,0"
         id="path5725" />
    </clipPath>
    <clipPath
       id="clipPath9729">
      <path
         clip-rule="nonzero"
         d="m 12,0 h 3 v 7.96875 h -3 z m 0,0"
         id="path6379" />
    </clipPath>
    <clipPath
       id="clipPath9441">
      <path
         clip-rule="nonzero"
         d="m 7,2 h 3 V 5.921875 H 7 Z m 0,0"
         id="path6173" />
    </clipPath>
    <clipPath
       id="clipPath247">
      <path
         clip-rule="nonzero"
         d="m 10,1 h 6 v 4.921875 h -6 z m 0,0"
         id="path1062" />
    </clipPath>
    <clipPath
       id="clipPath9002">
      <path
         clip-rule="nonzero"
         d="m 11,0 h 3 v 7.96875 h -3 z m 0,0"
         id="path9684" />
    </clipPath>
    <clipPath
       id="clipPath1057">
      <path
         clip-rule="nonzero"
         d="M 4,5 H 9 V 8.414063 H 4 Z m 0,0"
         id="path5851" />
    </clipPath>
    <clipPath
       id="clipPath8030">
      <path
         clip-rule="nonzero"
         d="M 5,5 H 8 V 8.414063 H 5 Z m 0,0"
         id="path4099" />
    </clipPath>
  </defs>
  <title
     id="title6">Perfect reflection components</title>
  <line
     class="cls-1"
     x1="333.01"
     y1="185.68"
     x2="359.94"
     y2="185.68"
     id="line8" />
  <line
     class="cls-1"
     x1="34.5"
     y1="185.68"
     x2="324.91"
     y2="185.68"
     id="line10" />
  <polygon
     points="39.41 191.18 35.15 185.68 39.41 180.17 26.39 185.68 39.41 191.18"
     id="polygon12" />
  <polygon
     class="cls-2"
     points="37.85 189.98 27.71 185.68 34.52 185.68 37.85 189.98"
     id="polygon14" />
  <polygon
     class="cls-3"
     points="37.85 181.38 27.71 185.68 34.52 185.68 37.85 181.38"
     id="polygon16" />
  <polygon
     points="320 191.18 324.26 185.68 320 180.17 333.01 185.68 320 191.18"
     id="polygon18" />
  <polygon
     class="cls-2"
     points="321.56 189.98 331.7 185.68 324.89 185.68 321.56 189.98"
     id="polygon20" />
  <polygon
     class="cls-3"
     points="321.56 181.38 331.7 185.68 324.89 185.68 321.56 181.38"
     id="polygon22" />
  <line
     class="cls-1"
     y1="185.68"
     x2="26.39"
     y2="185.68"
     id="line24" />
  <line
     class="cls-1"
     x1="179.59"
     y1="50.41"
     x2="179.59"
     y2="8.1"
     id="line26" />
  <polygon
     points="185.09 13.01 179.59 8.75 174.09 13.01 179.59 0 185.09 13.01"
     id="polygon28" />
  <polygon
     class="cls-2"
     points="183.89 11.46 179.59 1.31 179.59 8.12 183.89 11.46"
     id="polygon30" />
  <polygon
     class="cls-3"
     points="175.29 11.46 179.59 1.31 179.59 8.12 175.29 11.46"
     id="polygon32" />
  <line
     class="cls-1"
     x1="179.59"
     y1="185.3"
     x2="179.59"
     y2="58.52"
     id="line34" />
  <polygon
     points="185.09 63.43 179.59 59.17 174.09 63.43 179.59 50.41 185.09 63.43"
     id="polygon36" />
  <polygon
     class="cls-2"
     points="183.89 61.87 179.59 51.73 179.59 58.54 183.89 61.87"
     id="polygon38" />
  <polygon
     class="cls-3"
     points="175.29 61.87 179.59 51.73 179.59 58.54 175.29 61.87"
     id="polygon40" />
  <line
     class="cls-1"
     x1="32.18"
     y1="55.95"
     x2="179.42"
     y2="184.93"
     id="line42" />
  <polygon
     points="32.25 63.33 32.67 56.38 39.5 55.05 26.09 50.61 32.25 63.33"
     id="polygon44" />
  <polygon
     class="cls-2"
     points="31.87 61.4 27.07 51.48 32.2 55.97 31.87 61.4"
     id="polygon46" />
  <polygon
     class="cls-3"
     points="37.53 54.93 27.07 51.48 32.2 55.97 37.53 54.93"
     id="polygon48" />
  <line
     class="cls-1"
     x1="326.83"
     y1="56.32"
     x2="179.59"
     y2="185.3"
     id="line50" />
  <polygon
     points="319.51 55.42 326.34 56.75 326.76 63.7 332.93 50.98 319.51 55.42"
     id="polygon52" />
  <polygon
     class="cls-2"
     points="321.48 55.3 331.94 51.85 326.82 56.34 321.48 55.3"
     id="polygon54" />
  <polygon
     class="cls-3"
     points="327.14 61.77 331.94 51.85 326.82 56.34 327.14 61.77"
     id="polygon56" />
  <path
     class="cls-4"
     d="M26.49,185.57V51s306.44-1.6,306.44,0"
     id="path58" />
  <line
     class="cls-4"
     x1="332.82"
     y1="185.94"
     x2="332.82"
     y2="50.99"
     id="line60" />
  <path
     class="cls-1"
     d="M144.14,154.28a47,47,0,0,1,70.77-.16"
     id="path102" />
  <g
     inkscape:label=""
     transform="matrix(1.5,0,0,1.5,336.91347,40.430707)"
     id="g341">
    <g
       fill="#000000"
       fill-opacity="1"
       id="g19"
       transform="matrix(1.33333,0,0,1.33333,-0.291667,0.116833)">
      <g
         id="use17"
         transform="translate(0,4.428)">
        <path
           d="M 3.609375,-1.390625 C 3.859375,-1.859375 4,-2.34375 4,-2.515625 c 0,-0.21875 -0.125,-0.4375 -0.375,-0.4375 -0.625,0 -0.6875,1.0625 -0.703125,1.328125 C 2.90625,-1.46875 2.90625,-1.46875 2.890625,-1.453125 2.734375,-1.3125 2.3125,-1.015625 1.78125,-1.015625 1.125,-1.015625 0.75,-1.453125 0.75,-2 c 0,-0.3125 0.171875,-1.0625 0.859375,-2 0.09375,-0.109375 0.109375,-0.140625 0.109375,-0.21875 0,-0.125 -0.09375,-0.203125 -0.203125,-0.203125 -0.09375,0 -0.15625,0.0625 -0.171875,0.0625 -0.046875,0.046875 -1.125,1.34375 -1.125,2.78125 0,1 0.515625,1.65625 1.359375,1.65625 0.703125,0 1.265625,-0.484375 1.484375,-0.71875 0.125,0.296875 0.421875,0.71875 1.078125,0.71875 0.859375,0 1.625,-0.625 2.0625,-1.296875 0.609375,-0.953125 0.6875,-2.234375 0.6875,-2.375 0,-0.765625 -0.453125,-0.921875 -0.65625,-0.921875 -0.375,0 -0.765625,0.40625 -0.765625,0.75 0,0.265625 0.1875,0.390625 0.296875,0.46875 0.25,0.171875 0.46875,0.40625 0.46875,0.71875 0,0.671875 -0.84375,1.5625 -1.890625,1.5625 -0.28125,0 -0.5625,-0.078125 -0.734375,-0.375 z m 0,0"
           id="path31" />
      </g>
    </g>
    <g
       clip-path="url(#clipPath7625)"
       id="g25"
       transform="matrix(1.33333,0,0,1.33333,-0.291667,0.116833)">
      <g
         fill="#000000"
         fill-opacity="1"
         id="g23">
        <g
           id="use21"
           transform="translate(7.151,5.9219999)">
          <path
             d="m 1.390625,-1.59375 c 0,-0.578125 0.265625,-1.28125 0.9375,-1.28125 -0.0625,0.046875 -0.125,0.140625 -0.125,0.25 0,0.234375 0.1875,0.3125 0.3125,0.3125 0.171875,0 0.328125,-0.109375 0.328125,-0.3125 0,-0.234375 -0.234375,-0.453125 -0.5625,-0.453125 -0.34375,0 -0.734375,0.21875 -0.9375,0.75 v -0.75 L 0.34375,-3 v 0.25 c 0.46875,0 0.515625,0.046875 0.515625,0.390625 v 1.8125 C 0.859375,-0.25 0.796875,-0.25 0.34375,-0.25 V 0 c 0.03125,0 0.5,-0.03125 0.796875,-0.03125 0.296875,0 0.59375,0.015625 0.90625,0.03125 V -0.25 H 1.90625 c -0.515625,0 -0.515625,-0.078125 -0.515625,-0.3125 z m 0,0"
             id="path35" />
        </g>
      </g>
    </g>
  </g>
  <g
     inkscape:label=""
     transform="matrix(1.5,0,0,1.5,5.2768726,37.051257)"
     id="g503">
    <g
       fill="#000000"
       fill-opacity="1"
       id="g493"
       transform="matrix(1.33333,0,0,1.33333,-0.291667,0.116833)">
      <g
         id="g491"
         transform="translate(0,4.428)">
        <path
           d="M 3.609375,-1.390625 C 3.859375,-1.859375 4,-2.34375 4,-2.515625 c 0,-0.21875 -0.125,-0.4375 -0.375,-0.4375 -0.625,0 -0.6875,1.0625 -0.703125,1.328125 C 2.90625,-1.46875 2.90625,-1.46875 2.890625,-1.453125 2.734375,-1.3125 2.3125,-1.015625 1.78125,-1.015625 1.125,-1.015625 0.75,-1.453125 0.75,-2 c 0,-0.3125 0.171875,-1.0625 0.859375,-2 0.09375,-0.109375 0.109375,-0.140625 0.109375,-0.21875 0,-0.125 -0.09375,-0.203125 -0.203125,-0.203125 -0.09375,0 -0.15625,0.0625 -0.171875,0.0625 -0.046875,0.046875 -1.125,1.34375 -1.125,2.78125 0,1 0.515625,1.65625 1.359375,1.65625 0.703125,0 1.265625,-0.484375 1.484375,-0.71875 0.125,0.296875 0.421875,0.71875 1.078125,0.71875 0.859375,0 1.625,-0.625 2.0625,-1.296875 0.609375,-0.953125 0.6875,-2.234375 0.6875,-2.375 0,-0.765625 -0.453125,-0.921875 -0.65625,-0.921875 -0.375,0 -0.765625,0.40625 -0.765625,0.75 0,0.265625 0.1875,0.390625 0.296875,0.46875 0.25,0.171875 0.46875,0.40625 0.46875,0.71875 0,0.671875 -0.84375,1.5625 -1.890625,1.5625 -0.28125,0 -0.5625,-0.078125 -0.734375,-0.375 z m 0,0"
           id="path489" />
      </g>
    </g>
    <g
       clip-path="url(#clipPath4405)"
       id="g501"
       transform="matrix(1.33333,0,0,1.33333,-0.291667,0.116833)">
      <g
         fill="#000000"
         fill-opacity="1"
         id="g499">
        <g
           id="g497"
           transform="translate(7.151,5.9219999)">
          <path
             d="m 3.6875,-1.484375 c 0,-0.875 -0.75,-1.625 -1.703125,-1.625 -0.96875,0 -1.71875,0.75 -1.71875,1.625 0,0.859375 0.765625,1.546875 1.71875,1.546875 0.9375,0 1.703125,-0.6875 1.703125,-1.546875 z M 1.984375,-0.15625 c -0.265625,0 -0.640625,-0.078125 -0.875,-0.421875 -0.1875,-0.28125 -0.203125,-0.640625 -0.203125,-0.96875 0,-0.296875 0,-0.71875 0.25,-1.015625 0.171875,-0.203125 0.46875,-0.34375 0.828125,-0.34375 0.40625,0 0.703125,0.1875 0.859375,0.40625 0.1875,0.265625 0.203125,0.625 0.203125,0.953125 0,0.328125 -0.015625,0.703125 -0.21875,0.984375 -0.1875,0.265625 -0.5,0.40625 -0.84375,0.40625 z m 0,0"
             id="path495" />
        </g>
      </g>
    </g>
  </g>
  <g
     inkscape:label=""
     transform="matrix(1.5,0,0,1.5,22.702449,194.64623)"
     id="g684">
    <g
       fill="#000000"
       fill-opacity="1"
       id="g26"
       transform="matrix(1.33333,0,0,1.33333,-0.291667,0.116833)">
      <g
         id="use24"
         transform="translate(0,4.428)">
        <path
           d="M 3.609375,-1.390625 C 3.859375,-1.859375 4,-2.34375 4,-2.515625 c 0,-0.21875 -0.125,-0.4375 -0.375,-0.4375 -0.625,0 -0.6875,1.0625 -0.703125,1.328125 C 2.90625,-1.46875 2.90625,-1.46875 2.890625,-1.453125 2.734375,-1.3125 2.3125,-1.015625 1.78125,-1.015625 1.125,-1.015625 0.75,-1.453125 0.75,-2 c 0,-0.3125 0.171875,-1.0625 0.859375,-2 0.09375,-0.109375 0.109375,-0.140625 0.109375,-0.21875 0,-0.125 -0.09375,-0.203125 -0.203125,-0.203125 -0.09375,0 -0.15625,0.0625 -0.171875,0.0625 -0.046875,0.046875 -1.125,1.34375 -1.125,2.78125 0,1 0.515625,1.65625 1.359375,1.65625 0.703125,0 1.265625,-0.484375 1.484375,-0.71875 0.125,0.296875 0.421875,0.71875 1.078125,0.71875 0.859375,0 1.625,-0.625 2.0625,-1.296875 0.609375,-0.953125 0.6875,-2.234375 0.6875,-2.375 0,-0.765625 -0.453125,-0.921875 -0.65625,-0.921875 -0.375,0 -0.765625,0.40625 -0.765625,0.75 0,0.265625 0.1875,0.390625 0.296875,0.46875 0.25,0.171875 0.46875,0.40625 0.46875,0.71875 0,0.671875 -0.84375,1.5625 -1.890625,1.5625 -0.28125,0 -0.5625,-0.078125 -0.734375,-0.375 z m 0,0"
           id="path44" />
      </g>
    </g>
    <g
       clip-path="url(#clipPath2906)"
       id="g32"
       transform="matrix(1.33333,0,0,1.33333,-0.291667,0.116833)">
      <g
         fill="#000000"
         fill-opacity="1"
         id="g30">
        <g
           id="use28"
           transform="translate(7.151,5.9219999)">
          <path
             d="m 3.6875,-1.484375 c 0,-0.875 -0.75,-1.625 -1.703125,-1.625 -0.96875,0 -1.71875,0.75 -1.71875,1.625 0,0.859375 0.765625,1.546875 1.71875,1.546875 0.9375,0 1.703125,-0.6875 1.703125,-1.546875 z M 1.984375,-0.15625 c -0.265625,0 -0.640625,-0.078125 -0.875,-0.421875 -0.1875,-0.28125 -0.203125,-0.640625 -0.203125,-0.96875 0,-0.296875 0,-0.71875 0.25,-1.015625 0.171875,-0.203125 0.46875,-0.34375 0.828125,-0.34375 0.40625,0 0.703125,0.1875 0.859375,0.40625 0.1875,0.265625 0.203125,0.625 0.203125,0.953125 0,0.328125 -0.015625,0.703125 -0.21875,0.984375 -0.1875,0.265625 -0.5,0.40625 -0.84375,0.40625 z m 0,0"
             id="path48" />
        </g>
      </g>
    </g>
    <g
       clip-path="url(#clipPath8642)"
       id="g38"
       transform="matrix(1.33333,0,0,1.33333,-0.291667,0.116833)">
      <g
         fill="#000000"
         fill-opacity="1"
         id="g36">
        <g
           id="use34"
           transform="translate(11.123,5.9219999)">
          <path
             d="m 3.28125,-4.5625 c 0,-0.109375 0,-0.28125 -0.171875,-0.28125 -0.171875,0 -0.171875,0.171875 -0.171875,0.28125 v 4.21875 h -2.125 c -0.109375,0 -0.28125,0 -0.28125,0.171875 C 0.53125,0 0.703125,0 0.8125,0 H 5.40625 C 5.515625,0 5.6875,0 5.6875,-0.171875 5.6875,-0.34375 5.53125,-0.34375 5.40625,-0.34375 h -2.125 z m 0,0"
             id="path52" />
        </g>
      </g>
    </g>
  </g>
  <g
     inkscape:label=""
     transform="matrix(1.5,0,0,1.5,142.33495,61.270638)"
     id="g902">
    <g
       fill="#000000"
       fill-opacity="1"
       id="g893"
       transform="matrix(1.33333,0,0,1.33333,-0.291667,0.116833)">
      <g
         id="g891"
         transform="translate(0,4.428)">
        <path
           d="M 3.609375,-1.390625 C 3.859375,-1.859375 4,-2.34375 4,-2.515625 c 0,-0.21875 -0.125,-0.4375 -0.375,-0.4375 -0.625,0 -0.6875,1.0625 -0.703125,1.328125 C 2.90625,-1.46875 2.90625,-1.46875 2.890625,-1.453125 2.734375,-1.3125 2.3125,-1.015625 1.78125,-1.015625 1.125,-1.015625 0.75,-1.453125 0.75,-2 c 0,-0.3125 0.171875,-1.0625 0.859375,-2 0.09375,-0.109375 0.109375,-0.140625 0.109375,-0.21875 0,-0.125 -0.09375,-0.203125 -0.203125,-0.203125 -0.09375,0 -0.15625,0.0625 -0.171875,0.0625 -0.046875,0.046875 -1.125,1.34375 -1.125,2.78125 0,1 0.515625,1.65625 1.359375,1.65625 0.703125,0 1.265625,-0.484375 1.484375,-0.71875 0.125,0.296875 0.421875,0.71875 1.078125,0.71875 0.859375,0 1.625,-0.625 2.0625,-1.296875 0.609375,-0.953125 0.6875,-2.234375 0.6875,-2.375 0,-0.765625 -0.453125,-0.921875 -0.65625,-0.921875 -0.375,0 -0.765625,0.40625 -0.765625,0.75 0,0.265625 0.1875,0.390625 0.296875,0.46875 0.25,0.171875 0.46875,0.40625 0.46875,0.71875 0,0.671875 -0.84375,1.5625 -1.890625,1.5625 -0.28125,0 -0.5625,-0.078125 -0.734375,-0.375 z m 0,0"
           id="path39" />
      </g>
    </g>
    <g
       fill="#000000"
       fill-opacity="1"
       id="g27"
       transform="matrix(1.33333,0,0,1.33333,-0.291667,0.116833)">
      <g
         id="use25"
         transform="translate(7.151,6.2270002)">
        <path
           d="m 3.6875,-1.484375 c 0,-0.875 -0.75,-1.625 -1.703125,-1.625 -0.96875,0 -1.71875,0.75 -1.71875,1.625 0,0.859375 0.765625,1.546875 1.71875,1.546875 0.9375,0 1.703125,-0.6875 1.703125,-1.546875 z M 1.984375,-0.15625 c -0.265625,0 -0.640625,-0.078125 -0.875,-0.421875 -0.1875,-0.28125 -0.203125,-0.640625 -0.203125,-0.96875 0,-0.296875 0,-0.71875 0.25,-1.015625 0.171875,-0.203125 0.46875,-0.34375 0.828125,-0.34375 0.40625,0 0.703125,0.1875 0.859375,0.40625 0.1875,0.265625 0.203125,0.625 0.203125,0.953125 0,0.328125 -0.015625,0.703125 -0.21875,0.984375 -0.1875,0.265625 -0.5,0.40625 -0.84375,0.40625 z m 0,0"
           id="path43" />
      </g>
    </g>
    <g
       clip-path="url(#clipPath9729)"
       id="g33"
       transform="matrix(1.33333,0,0,1.33333,-0.291667,0.116833)">
      <g
         fill="#000000"
         fill-opacity="1"
         id="g31">
        <g
           id="use29"
           transform="translate(11.123,6.2270002)">
          <path
             d="m 1.4375,-4.96875 c 0,-0.09375 0,-0.25 -0.171875,-0.25 -0.171875,0 -0.171875,0.171875 -0.171875,0.296875 V 1.4375 c 0,0.125 0,0.296875 0.171875,0.296875 0.171875,0 0.171875,-0.15625 0.171875,-0.265625 z m 1.53125,0.046875 c 0,-0.125 0,-0.296875 -0.171875,-0.296875 -0.15625,0 -0.15625,0.15625 -0.15625,0.25 v 6.4375 c 0,0.109375 0,0.265625 0.15625,0.265625 0.171875,0 0.171875,-0.171875 0.171875,-0.296875 z m 0,0"
             id="path47" />
        </g>
      </g>
    </g>
  </g>
  <g
     inkscape:label=""
     transform="matrix(1.5,0,0,1.5,316.48922,193.74504)"
     id="g1155">
    <g
       fill="#000000"
       fill-opacity="1"
       id="g1137"
       transform="matrix(1.33333,0,0,1.33333,-0.291667,0.116833)">
      <g
         id="g1135"
         transform="translate(0,4.428)">
        <path
           d="M 3.609375,-1.390625 C 3.859375,-1.859375 4,-2.34375 4,-2.515625 c 0,-0.21875 -0.125,-0.4375 -0.375,-0.4375 -0.625,0 -0.6875,1.0625 -0.703125,1.328125 C 2.90625,-1.46875 2.90625,-1.46875 2.890625,-1.453125 2.734375,-1.3125 2.3125,-1.015625 1.78125,-1.015625 1.125,-1.015625 0.75,-1.453125 0.75,-2 c 0,-0.3125 0.171875,-1.0625 0.859375,-2 0.09375,-0.109375 0.109375,-0.140625 0.109375,-0.21875 0,-0.125 -0.09375,-0.203125 -0.203125,-0.203125 -0.09375,0 -0.15625,0.0625 -0.171875,0.0625 -0.046875,0.046875 -1.125,1.34375 -1.125,2.78125 0,1 0.515625,1.65625 1.359375,1.65625 0.703125,0 1.265625,-0.484375 1.484375,-0.71875 0.125,0.296875 0.421875,0.71875 1.078125,0.71875 0.859375,0 1.625,-0.625 2.0625,-1.296875 0.609375,-0.953125 0.6875,-2.234375 0.6875,-2.375 0,-0.765625 -0.453125,-0.921875 -0.65625,-0.921875 -0.375,0 -0.765625,0.40625 -0.765625,0.75 0,0.265625 0.1875,0.390625 0.296875,0.46875 0.25,0.171875 0.46875,0.40625 0.46875,0.71875 0,0.671875 -0.84375,1.5625 -1.890625,1.5625 -0.28125,0 -0.5625,-0.078125 -0.734375,-0.375 z m 0,0"
           id="path1133" />
      </g>
    </g>
    <g
       clip-path="url(#clipPath9441)"
       id="g1145"
       transform="matrix(1.33333,0,0,1.33333,-0.291667,0.116833)">
      <g
         fill="#000000"
         fill-opacity="1"
         id="g1143">
        <g
           id="g1141"
           transform="translate(7.151,5.9219999)">
          <path
             d="m 1.390625,-1.59375 c 0,-0.578125 0.265625,-1.28125 0.9375,-1.28125 -0.0625,0.046875 -0.125,0.140625 -0.125,0.25 0,0.234375 0.1875,0.3125 0.3125,0.3125 0.171875,0 0.328125,-0.109375 0.328125,-0.3125 0,-0.234375 -0.234375,-0.453125 -0.5625,-0.453125 -0.34375,0 -0.734375,0.21875 -0.9375,0.75 v -0.75 L 0.34375,-3 v 0.25 c 0.46875,0 0.515625,0.046875 0.515625,0.390625 v 1.8125 C 0.859375,-0.25 0.796875,-0.25 0.34375,-0.25 V 0 c 0.03125,0 0.5,-0.03125 0.796875,-0.03125 0.296875,0 0.59375,0.015625 0.90625,0.03125 V -0.25 H 1.90625 c -0.515625,0 -0.515625,-0.078125 -0.515625,-0.3125 z m 0,0"
             id="path1139" />
        </g>
      </g>
    </g>
    <g
       clip-path="url(#clipPath247)"
       id="g1153"
       transform="matrix(1.33333,0,0,1.33333,-0.291667,0.116833)">
      <g
         fill="#000000"
         fill-opacity="1"
         id="g1151">
        <g
           id="g1149"
           transform="translate(10.265,5.9219999)">
          <path
             d="m 3.28125,-4.5625 c 0,-0.109375 0,-0.28125 -0.171875,-0.28125 -0.171875,0 -0.171875,0.171875 -0.171875,0.28125 v 4.21875 h -2.125 c -0.109375,0 -0.28125,0 -0.28125,0.171875 C 0.53125,0 0.703125,0 0.8125,0 H 5.40625 C 5.515625,0 5.6875,0 5.6875,-0.171875 5.6875,-0.34375 5.53125,-0.34375 5.40625,-0.34375 h -2.125 z m 0,0"
             id="path1147" />
        </g>
      </g>
    </g>
  </g>
  <g
     inkscape:label=""
     transform="matrix(1.5,0,0,1.5,191.6749,61.270643)"
     id="g1439">
    <g
       fill="#000000"
       fill-opacity="1"
       id="g1423"
       transform="matrix(1.33333,0,0,1.33333,-0.291667,0.116833)">
      <g
         id="g1421"
         transform="translate(0,4.428)">
        <path
           d="M 3.609375,-1.390625 C 3.859375,-1.859375 4,-2.34375 4,-2.515625 c 0,-0.21875 -0.125,-0.4375 -0.375,-0.4375 -0.625,0 -0.6875,1.0625 -0.703125,1.328125 C 2.90625,-1.46875 2.90625,-1.46875 2.890625,-1.453125 2.734375,-1.3125 2.3125,-1.015625 1.78125,-1.015625 1.125,-1.015625 0.75,-1.453125 0.75,-2 c 0,-0.3125 0.171875,-1.0625 0.859375,-2 0.09375,-0.109375 0.109375,-0.140625 0.109375,-0.21875 0,-0.125 -0.09375,-0.203125 -0.203125,-0.203125 -0.09375,0 -0.15625,0.0625 -0.171875,0.0625 -0.046875,0.046875 -1.125,1.34375 -1.125,2.78125 0,1 0.515625,1.65625 1.359375,1.65625 0.703125,0 1.265625,-0.484375 1.484375,-0.71875 0.125,0.296875 0.421875,0.71875 1.078125,0.71875 0.859375,0 1.625,-0.625 2.0625,-1.296875 0.609375,-0.953125 0.6875,-2.234375 0.6875,-2.375 0,-0.765625 -0.453125,-0.921875 -0.65625,-0.921875 -0.375,0 -0.765625,0.40625 -0.765625,0.75 0,0.265625 0.1875,0.390625 0.296875,0.46875 0.25,0.171875 0.46875,0.40625 0.46875,0.71875 0,0.671875 -0.84375,1.5625 -1.890625,1.5625 -0.28125,0 -0.5625,-0.078125 -0.734375,-0.375 z m 0,0"
           id="path1419" />
      </g>
    </g>
    <g
       fill="#000000"
       fill-opacity="1"
       id="g1429"
       transform="matrix(1.33333,0,0,1.33333,-0.291667,0.116833)">
      <g
         id="g1427"
         transform="translate(7.151,6.2270002)">
        <path
           d="m 1.390625,-1.59375 c 0,-0.578125 0.265625,-1.28125 0.9375,-1.28125 -0.0625,0.046875 -0.125,0.140625 -0.125,0.25 0,0.234375 0.1875,0.3125 0.3125,0.3125 0.171875,0 0.328125,-0.109375 0.328125,-0.3125 0,-0.234375 -0.234375,-0.453125 -0.5625,-0.453125 -0.34375,0 -0.734375,0.21875 -0.9375,0.75 v -0.75 L 0.34375,-3 v 0.25 c 0.46875,0 0.515625,0.046875 0.515625,0.390625 v 1.8125 C 0.859375,-0.25 0.796875,-0.25 0.34375,-0.25 V 0 c 0.03125,0 0.5,-0.03125 0.796875,-0.03125 0.296875,0 0.59375,0.015625 0.90625,0.03125 V -0.25 H 1.90625 c -0.515625,0 -0.515625,-0.078125 -0.515625,-0.3125 z m 0,0"
           id="path1425" />
      </g>
    </g>
    <g
       clip-path="url(#clipPath9002)"
       id="g1437"
       transform="matrix(1.33333,0,0,1.33333,-0.291667,0.116833)">
      <g
         fill="#000000"
         fill-opacity="1"
         id="g1435">
        <g
           id="g1433"
           transform="translate(10.265,6.2270002)">
          <path
             d="m 1.4375,-4.96875 c 0,-0.09375 0,-0.25 -0.171875,-0.25 -0.171875,0 -0.171875,0.171875 -0.171875,0.296875 V 1.4375 c 0,0.125 0,0.296875 0.171875,0.296875 0.171875,0 0.171875,-0.15625 0.171875,-0.265625 z m 1.53125,0.046875 c 0,-0.125 0,-0.296875 -0.171875,-0.296875 -0.15625,0 -0.15625,0.15625 -0.15625,0.25 v 6.4375 c 0,0.109375 0,0.265625 0.15625,0.265625 0.171875,0 0.171875,-0.171875 0.171875,-0.296875 z m 0,0"
             id="path1431" />
        </g>
      </g>
    </g>
  </g>
  <g
     inkscape:label=""
     transform="matrix(1.5,0,0,1.5,147.96736,119.39717)"
     id="g1740">
    <g
       fill="#000000"
       fill-opacity="1"
       id="g1730"
       transform="matrix(1.33333,0,0,1.33333,-0.5625,0.149666)">
      <g
         id="g1728"
         transform="translate(0,6.9190001)">
        <path
           d="m 4.53125,-4.984375 c 0,-0.65625 -0.171875,-2.046875 -1.1875,-2.046875 -1.390625,0 -2.921875,2.8125 -2.921875,5.09375 0,0.9375 0.28125,2.046875 1.1875,2.046875 1.40625,0 2.921875,-2.859375 2.921875,-5.09375 z M 1.46875,-3.625 C 1.640625,-4.25 1.84375,-5.046875 2.25,-5.765625 2.515625,-6.25 2.875,-6.8125 3.328125,-6.8125 c 0.484375,0 0.546875,0.640625 0.546875,1.203125 0,0.5 -0.078125,1 -0.3125,1.984375 z m 2,0.328125 C 3.359375,-2.84375 3.15625,-2 2.765625,-1.28125 c -0.34375,0.6875 -0.71875,1.171875 -1.15625,1.171875 -0.328125,0 -0.53125,-0.296875 -0.53125,-1.21875 0,-0.421875 0.0625,-1 0.3125,-1.96875 z m 0,0"
           id="path1726" />
      </g>
    </g>
    <g
       clip-path="url(#clipPath1057)"
       id="g1738"
       transform="matrix(1.33333,0,0,1.33333,-0.5625,0.149666)">
      <g
         fill="#000000"
         fill-opacity="1"
         id="g1736">
        <g
           id="g1734"
           transform="translate(4.677,8.4130001)">
          <path
             d="m 3.6875,-1.484375 c 0,-0.875 -0.75,-1.625 -1.703125,-1.625 -0.96875,0 -1.71875,0.75 -1.71875,1.625 0,0.859375 0.765625,1.546875 1.71875,1.546875 0.9375,0 1.703125,-0.6875 1.703125,-1.546875 z M 1.984375,-0.15625 c -0.265625,0 -0.640625,-0.078125 -0.875,-0.421875 -0.1875,-0.28125 -0.203125,-0.640625 -0.203125,-0.96875 0,-0.296875 0,-0.71875 0.25,-1.015625 0.171875,-0.203125 0.46875,-0.34375 0.828125,-0.34375 0.40625,0 0.703125,0.1875 0.859375,0.40625 0.1875,0.265625 0.203125,0.625 0.203125,0.953125 0,0.328125 -0.015625,0.703125 -0.21875,0.984375 -0.1875,0.265625 -0.5,0.40625 -0.84375,0.40625 z m 0,0"
             id="path1732" />
        </g>
      </g>
    </g>
  </g>
  <g
     inkscape:label=""
     transform="matrix(1.5,0,0,1.5,195.50495,119.17187)"
     id="g2058">
    <g
       fill="#000000"
       fill-opacity="1"
       id="g2048"
       transform="matrix(1.33333,0,0,1.33333,-0.5625,0.149666)">
      <g
         id="g2046"
         transform="translate(0,6.9190001)">
        <path
           d="m 4.53125,-4.984375 c 0,-0.65625 -0.171875,-2.046875 -1.1875,-2.046875 -1.390625,0 -2.921875,2.8125 -2.921875,5.09375 0,0.9375 0.28125,2.046875 1.1875,2.046875 1.40625,0 2.921875,-2.859375 2.921875,-5.09375 z M 1.46875,-3.625 C 1.640625,-4.25 1.84375,-5.046875 2.25,-5.765625 2.515625,-6.25 2.875,-6.8125 3.328125,-6.8125 c 0.484375,0 0.546875,0.640625 0.546875,1.203125 0,0.5 -0.078125,1 -0.3125,1.984375 z m 2,0.328125 C 3.359375,-2.84375 3.15625,-2 2.765625,-1.28125 c -0.34375,0.6875 -0.71875,1.171875 -1.15625,1.171875 -0.328125,0 -0.53125,-0.296875 -0.53125,-1.21875 0,-0.421875 0.0625,-1 0.3125,-1.96875 z m 0,0"
           id="path2044" />
      </g>
    </g>
    <g
       clip-path="url(#clipPath8030)"
       id="g2056"
       transform="matrix(1.33333,0,0,1.33333,-0.5625,0.149666)">
      <g
         fill="#000000"
         fill-opacity="1"
         id="g2054">
        <g
           id="g2052"
           transform="translate(4.677,8.4130001)">
          <path
             d="m 1.390625,-1.59375 c 0,-0.578125 0.265625,-1.28125 0.9375,-1.28125 -0.0625,0.046875 -0.125,0.140625 -0.125,0.25 0,0.234375 0.1875,0.3125 0.3125,0.3125 0.171875,0 0.328125,-0.109375 0.328125,-0.3125 0,-0.234375 -0.234375,-0.453125 -0.5625,-0.453125 -0.34375,0 -0.734375,0.21875 -0.9375,0.75 v -0.75 L 0.34375,-3 v 0.25 c 0.46875,0 0.515625,0.046875 0.515625,0.390625 v 1.8125 C 0.859375,-0.25 0.796875,-0.25 0.34375,-0.25 V 0 c 0.03125,0 0.5,-0.03125 0.796875,-0.03125 0.296875,0 0.59375,0.015625 0.90625,0.03125 V -0.25 H 1.90625 c -0.515625,0 -0.515625,-0.078125 -0.515625,-0.3125 z m 0,0"
             id="path2050" />
        </g>
      </g>
    </g>
  </g>
</svg>
