<?xml version="1.0" encoding="UTF-8" standalone="no"?>
<svg
   id="Layer_1"
   data-name="Layer 1"
   viewBox="0 0 288.78 311.06"
   version="1.1"
   sodipodi:docname="Radiancechangeatrefraction.svg"
   inkscape:version="1.2.2 (732a01da63, 2022-12-09)"
   xmlns:inkscape="http://www.inkscape.org/namespaces/inkscape"
   xmlns:sodipodi="http://sodipodi.sourceforge.net/DTD/sodipodi-0.dtd"
   xmlns="http://www.w3.org/2000/svg"
   xmlns:svg="http://www.w3.org/2000/svg">
  <sodipodi:namedview
     id="namedview57"
     pagecolor="#ffffff"
     bordercolor="#666666"
     borderopacity="1.0"
     inkscape:showpageshadow="2"
     inkscape:pageopacity="0.0"
     inkscape:pagecheckerboard="0"
     inkscape:deskcolor="#d1d1d1"
     showgrid="false"
     inkscape:zoom="4.2918331"
     inkscape:cx="120.92735"
     inkscape:cy="160.77046"
     inkscape:window-width="2560"
     inkscape:window-height="1494"
     inkscape:window-x="-11"
     inkscape:window-y="-11"
     inkscape:window-maximized="1"
     inkscape:current-layer="Layer_1" />
  <defs
     id="defs4">
    <style
       id="style2">.cls-1,.cls-4{fill:#666;}.cls-1{opacity:0.5;}.cls-2,.cls-5{fill:none;stroke:#000;stroke-miterlimit:10;}.cls-3{fill:#a6a6a6;}.cls-5{stroke-width:0.5px;}</style>
    <clipPath
       id="clipPath8997">
      <path
         clip-rule="nonzero"
         d="M 0,0 H 5 V 6.226563 H 0 Z m 0,0"
         id="path8907" />
    </clipPath>
    <clipPath
       id="clipPath1601">
      <path
         clip-rule="nonzero"
         d="M 0,0 H 5 V 6.226563 H 0 Z m 0,0"
         id="path5511" />
    </clipPath>
  </defs>
  <title
     id="title6">Radiance change at refraction</title>
  <rect
     class="cls-1"
     y="144.66"
     width="288.78"
     height="166.4"
     id="rect8" />
  <line
     class="cls-2"
     x1="0.09"
     y1="144.31"
     x2="288.09"
     y2="144.31"
     id="line10" />
  <line
     class="cls-2"
     x1="144.01"
     y1="288.84"
     x2="144.01"
     y2="8.1"
     id="line12" />
  <polygon
     points="149.51 13.01 144.01 8.75 138.51 13.01 144.01 0 149.51 13.01"
     id="polygon14" />
  <polygon
     class="cls-3"
     points="148.31 11.46 144.01 1.31 144.01 8.12 148.31 11.46"
     id="polygon16" />
  <polygon
     class="cls-4"
     points="139.71 11.46 144.01 1.31 144.01 8.12 139.71 11.46"
     id="polygon18" />
  <path
     class="cls-2"
     d="M74.21,38.85C90.13,62.93,143.23,143.18,144,144"
     id="path20" />
  <polygon
     points="72.33 45.98 74.57 39.39 81.51 39.91 69.74 32.09 72.33 45.98"
     id="polygon22" />
  <polygon
     class="cls-3"
     points="72.47 44.02 70.46 33.19 74.22 38.87 72.47 44.02"
     id="polygon24" />
  <polygon
     class="cls-4"
     points="79.64 39.27 70.46 33.19 74.22 38.87 79.64 39.27"
     id="polygon26" />
  <path
     class="cls-2"
     d="M169.83,263.8C163.92,236,144.43,144.54,144,143.53"
     id="path28" />
  <polygon
     points="174.19 257.85 169.69 263.16 163.42 260.14 171.52 271.72 174.19 257.85"
     id="polygon30" />
  <polygon
     class="cls-3"
     points="173.34 259.62 171.24 270.44 169.82 263.78 173.34 259.62"
     id="polygon32" />
  <polygon
     class="cls-4"
     points="164.93 261.42 171.24 270.44 169.82 263.78 164.93 261.42"
     id="polygon34" />
  <line
     class="cls-5"
     x1="144.03"
     y1="143.57"
     x2="84.1"
     y2="27.06"
     id="line36" />
  <line
     class="cls-5"
     x1="143.36"
     y1="143.69"
     x2="59.99"
     y2="43.73"
     id="line38" />
  <ellipse
     class="cls-5"
     cx="71.79"
     cy="35.11"
     rx="14.64"
     ry="6.65"
     transform="translate(-7.46 45.35) rotate(-33.42)"
     id="ellipse40" />
  <ellipse
     class="cls-5"
     cx="170.24"
     cy="266.35"
     rx="12.76"
     ry="5.8"
     transform="translate(-78.22 70.92) rotate(-19.23)"
     id="ellipse42" />
  <line
     class="cls-5"
     x1="182.53"
     y1="262.7"
     x2="144.25"
     y2="144.22"
     id="line44" />
  <line
     class="cls-5"
     x1="158.13"
     y1="269.86"
     x2="144.25"
     y2="144.22"
     id="line46" />
  <g
     inkscape:label=""
     transform="matrix(1.5,0,0,1.5,7.2232324,123.64554)"
     id="g352">
    <g
       clip-path="url(#clipPath8997)"
       id="g21"
       transform="matrix(1.33333,0,0,1.33333,-0.395833,0.155)">
      <g
         fill="#000000"
         fill-opacity="1"
         id="g19">
        <g
           id="use17"
           transform="translate(0,4.29)">
          <path
             d="M 4.859375,-2.765625 C 4.921875,-2.9375 4.9375,-3.078125 4.9375,-3.34375 c 0,-0.640625 -0.390625,-1.0625 -1.140625,-1.0625 -0.78125,0 -1.296875,0.515625 -1.546875,0.875 -0.046875,-0.578125 -0.46875,-0.875 -0.921875,-0.875 -0.453125,0 -0.640625,0.390625 -0.734375,0.5625 C 0.421875,-3.5 0.296875,-2.90625 0.296875,-2.875 c 0,0.109375 0.09375,0.109375 0.109375,0.109375 0.109375,0 0.109375,-0.015625 0.171875,-0.234375 0.171875,-0.703125 0.375,-1.1875 0.734375,-1.1875 0.15625,0 0.296875,0.078125 0.296875,0.453125 0,0.21875 -0.03125,0.328125 -0.15625,0.84375 L 0.875,-0.59375 c -0.03125,0.15625 -0.09375,0.390625 -0.09375,0.4375 0,0.171875 0.140625,0.265625 0.296875,0.265625 0.125,0 0.296875,-0.078125 0.375,-0.28125 0,-0.015625 0.125,-0.484375 0.1875,-0.734375 l 0.21875,-0.890625 C 1.90625,-2.03125 1.96875,-2.25 2.03125,-2.46875 2.046875,-2.53125 2.125,-2.859375 2.140625,-2.921875 2.15625,-3.015625 2.46875,-3.5625 2.8125,-3.84375 3.03125,-4 3.34375,-4.1875 3.765625,-4.1875 c 0.4375,0 0.546875,0.34375 0.546875,0.703125 0,0.046875 0,0.21875 -0.109375,0.625 l -1.125,4.578125 c -0.03125,0.125 -0.03125,0.140625 -0.03125,0.171875 0,0.140625 0.109375,0.265625 0.265625,0.265625 0.3125,0 0.390625,-0.296875 0.421875,-0.40625 z m 0,0"
             id="path31" />
        </g>
      </g>
    </g>
    <g
       fill="#000000"
       fill-opacity="1"
       id="g25"
       transform="matrix(1.33333,0,0,1.33333,-0.395833,0.155)">
      <g
         id="use23"
         transform="translate(4.947,5.7839999)">
        <path
           d="m 1.46875,-4.296875 c 0,-0.203125 -0.171875,-0.40625 -0.40625,-0.40625 -0.203125,0 -0.390625,0.171875 -0.390625,0.40625 0,0.25 0.203125,0.40625 0.390625,0.40625 0.234375,0 0.40625,-0.171875 0.40625,-0.40625 z M 0.40625,-3 v 0.25 c 0.4375,0 0.5,0.046875 0.5,0.390625 v 1.8125 C 0.90625,-0.25 0.84375,-0.25 0.390625,-0.25 V 0 c 0.015625,0 0.5,-0.03125 0.78125,-0.03125 0.25,0 0.5,0.015625 0.734375,0.03125 V -0.25 C 1.5,-0.25 1.4375,-0.25 1.4375,-0.546875 v -2.53125 z m 0,0"
           id="path35" />
      </g>
    </g>
  </g>
  <g
     inkscape:label=""
     transform="matrix(1.5,0,0,1.5,5.8252287,155.79963)"
     id="g458">
    <g
       clip-path="url(#clipPath1601)"
       id="g450"
       transform="matrix(1.33333,0,0,1.33333,-0.395833,0.155)">
      <g
         fill="#000000"
         fill-opacity="1"
         id="g448">
        <g
           id="g446"
           transform="translate(0,4.29)">
          <path
             d="M 4.859375,-2.765625 C 4.921875,-2.9375 4.9375,-3.078125 4.9375,-3.34375 c 0,-0.640625 -0.390625,-1.0625 -1.140625,-1.0625 -0.78125,0 -1.296875,0.515625 -1.546875,0.875 -0.046875,-0.578125 -0.46875,-0.875 -0.921875,-0.875 -0.453125,0 -0.640625,0.390625 -0.734375,0.5625 C 0.421875,-3.5 0.296875,-2.90625 0.296875,-2.875 c 0,0.109375 0.09375,0.109375 0.109375,0.109375 0.109375,0 0.109375,-0.015625 0.171875,-0.234375 0.171875,-0.703125 0.375,-1.1875 0.734375,-1.1875 0.15625,0 0.296875,0.078125 0.296875,0.453125 0,0.21875 -0.03125,0.328125 -0.15625,0.84375 L 0.875,-0.59375 c -0.03125,0.15625 -0.09375,0.390625 -0.09375,0.4375 0,0.171875 0.140625,0.265625 0.296875,0.265625 0.125,0 0.296875,-0.078125 0.375,-0.28125 0,-0.015625 0.125,-0.484375 0.1875,-0.734375 l 0.21875,-0.890625 C 1.90625,-2.03125 1.96875,-2.25 2.03125,-2.46875 2.046875,-2.53125 2.125,-2.859375 2.140625,-2.921875 2.15625,-3.015625 2.46875,-3.5625 2.8125,-3.84375 3.03125,-4 3.34375,-4.1875 3.765625,-4.1875 c 0.4375,0 0.546875,0.34375 0.546875,0.703125 0,0.046875 0,0.21875 -0.109375,0.625 l -1.125,4.578125 c -0.03125,0.125 -0.03125,0.140625 -0.03125,0.171875 0,0.140625 0.109375,0.265625 0.265625,0.265625 0.3125,0 0.390625,-0.296875 0.421875,-0.40625 z m 0,0"
             id="path444" />
        </g>
      </g>
    </g>
    <g
       fill="#000000"
       fill-opacity="1"
       id="g456"
       transform="matrix(1.33333,0,0,1.33333,-0.395833,0.155)">
      <g
         id="g454"
         transform="translate(4.947,5.7839999)">
        <path
           d="m 3.6875,-1.484375 c 0,-0.875 -0.75,-1.625 -1.703125,-1.625 -0.96875,0 -1.71875,0.75 -1.71875,1.625 0,0.859375 0.765625,1.546875 1.71875,1.546875 0.9375,0 1.703125,-0.6875 1.703125,-1.546875 z M 1.984375,-0.15625 c -0.265625,0 -0.640625,-0.078125 -0.875,-0.421875 -0.1875,-0.28125 -0.203125,-0.640625 -0.203125,-0.96875 0,-0.296875 0,-0.71875 0.25,-1.015625 0.171875,-0.203125 0.46875,-0.34375 0.828125,-0.34375 0.40625,0 0.703125,0.1875 0.859375,0.40625 0.1875,0.265625 0.203125,0.625 0.203125,0.953125 0,0.328125 -0.015625,0.703125 -0.21875,0.984375 -0.1875,0.265625 -0.5,0.40625 -0.84375,0.40625 z m 0,0"
           id="path452" />
      </g>
    </g>
  </g>
</svg>
