<?xml version="1.0" encoding="UTF-8" standalone="no"?>
<svg
   id="Layer_1"
   data-name="Layer 1"
   viewBox="0 0 338.54 363.29"
   version="1.1"
   sodipodi:docname="Speculartransmissionprojections.svg"
   inkscape:version="1.2.2 (732a01da63, 2022-12-09)"
   xmlns:inkscape="http://www.inkscape.org/namespaces/inkscape"
   xmlns:sodipodi="http://sodipodi.sourceforge.net/DTD/sodipodi-0.dtd"
   xmlns="http://www.w3.org/2000/svg"
   xmlns:svg="http://www.w3.org/2000/svg">
  <sodipodi:namedview
     id="namedview93"
     pagecolor="#ffffff"
     bordercolor="#666666"
     borderopacity="1.0"
     inkscape:showpageshadow="2"
     inkscape:pageopacity="0.0"
     inkscape:pagecheckerboard="0"
     inkscape:deskcolor="#d1d1d1"
     showgrid="false"
     inkscape:zoom="2.598475"
     inkscape:cx="178.18143"
     inkscape:cy="210.89293"
     inkscape:window-width="2560"
     inkscape:window-height="1494"
     inkscape:window-x="-11"
     inkscape:window-y="-11"
     inkscape:window-maximized="1"
     inkscape:current-layer="Layer_1" />
  <defs
     id="defs4">
    <style
       id="style2">.cls-1,.cls-4{fill:none;stroke:#000;stroke-miterlimit:10;}.cls-2{fill:#a6a6a6;}.cls-3{fill:#666;}.cls-4{stroke-dasharray:2;}</style>
    <clipPath
       id="clipPath2446">
      <path
         clip-rule="nonzero"
         d="M 7,1 H 9.90625 V 5.921875 H 7 Z m 0,0"
         id="path3123" />
    </clipPath>
    <clipPath
       id="clipPath3502">
      <path
         clip-rule="nonzero"
         d="m 7,1 h 3 V 5.921875 H 7 Z m 0,0"
         id="path8756" />
    </clipPath>
    <clipPath
       id="clipPath3753">
      <path
         clip-rule="nonzero"
         d="m 7,1 h 3 V 5.921875 H 7 Z m 0,0"
         id="path8131" />
    </clipPath>
    <clipPath
       id="clipPath6701">
      <path
         clip-rule="nonzero"
         d="m 10,1 h 6 v 4.921875 h -6 z m 0,0"
         id="path7060" />
    </clipPath>
    <clipPath
       id="clipPath9123">
      <path
         clip-rule="nonzero"
         d="m 7,1 h 3 V 5.921875 H 7 Z m 0,0"
         id="path2424" />
    </clipPath>
    <clipPath
       id="clipPath6072">
      <path
         clip-rule="nonzero"
         d="m 9,1 h 7 V 5.921875 H 9 Z m 0,0"
         id="path4322" />
    </clipPath>
    <clipPath
       id="clipPath1434">
      <path
         clip-rule="nonzero"
         d="M 5,3 H 7 V 8.414063 H 5 Z m 0,0"
         id="path6643" />
    </clipPath>
    <clipPath
       id="clipPath4893">
      <path
         clip-rule="nonzero"
         d="M 4,4 H 8 V 8.414063 H 4 Z m 0,0"
         id="path4660" />
    </clipPath>
  </defs>
  <title
     id="title6">Specular transmission projections</title>
  <line
     class="cls-1"
     x1="201.98"
     y1="173.12"
     x2="305.4"
     y2="173.12"
     id="line8" />
  <line
     class="cls-1"
     x1="40.07"
     y1="173.12"
     x2="253.75"
     y2="173.12"
     id="line10" />
  <polygon
     points="44.98 178.62 40.72 173.12 44.98 167.62 31.96 173.12 44.98 178.62"
     id="polygon12" />
  <polygon
     class="cls-2"
     points="43.42 177.42 33.28 173.12 40.09 173.12 43.42 177.42"
     id="polygon14" />
  <polygon
     class="cls-3"
     points="43.42 168.82 33.28 173.12 40.09 173.12 43.42 168.82"
     id="polygon16" />
  <polygon
     points="248.84 178.62 253.1 173.12 248.84 167.62 261.86 173.12 248.84 178.62"
     id="polygon18" />
  <polygon
     class="cls-2"
     points="250.4 177.42 260.55 173.12 253.73 173.12 250.4 177.42"
     id="polygon20" />
  <polygon
     class="cls-3"
     points="250.4 168.82 260.55 173.12 253.73 173.12 250.4 168.82"
     id="polygon22" />
  <line
     class="cls-1"
     y1="173.12"
     x2="31.96"
     y2="173.12"
     id="line24" />
  <line
     class="cls-1"
     x1="5.61"
     y1="173.12"
     x2="32"
     y2="173.12"
     id="line26" />
  <line
     class="cls-1"
     x1="185.2"
     y1="329.61"
     x2="185.2"
     y2="8.1"
     id="line28" />
  <polygon
     points="190.71 13.01 185.2 8.75 179.7 13.01 185.2 0 190.71 13.01"
     id="polygon30" />
  <polygon
     class="cls-2"
     points="189.5 11.46 185.2 1.31 185.2 8.12 189.5 11.46"
     id="polygon32" />
  <polygon
     class="cls-3"
     points="180.9 11.46 185.2 1.31 185.2 8.12 180.9 11.46"
     id="polygon34" />
  <line
     class="cls-1"
     x1="37.79"
     y1="43.39"
     x2="185.03"
     y2="172.37"
     id="line36" />
  <polygon
     points="37.86 50.77 38.28 43.82 45.11 42.49 31.7 38.05 37.86 50.77"
     id="polygon38" />
  <polygon
     class="cls-2"
     points="37.48 48.84 32.68 38.92 37.81 43.41 37.48 48.84"
     id="polygon40" />
  <polygon
     class="cls-3"
     points="43.14 42.37 32.68 38.92 37.81 43.41 43.14 42.37"
     id="polygon42" />
  <line
     class="cls-1"
     x1="257.4"
     y1="355.33"
     x2="185.08"
     y2="173.04"
     id="line44" />
  <polygon
     points="260.7 348.74 257.16 354.72 250.47 352.79 260.38 362.86 260.7 348.74"
     id="polygon46" />
  <polygon
     class="cls-2"
     points="260.16 350.63 259.9 361.64 257.39 355.31 260.16 350.63"
     id="polygon48" />
  <polygon
     class="cls-3"
     points="252.17 353.8 259.9 361.64 257.39 355.31 252.17 353.8"
     id="polygon50" />
  <line
     class="cls-4"
     x1="32.11"
     y1="173.01"
     x2="32.11"
     y2="38.48"
     id="line52" />
  <line
     class="cls-4"
     x1="261.27"
     y1="363.29"
     x2="261.27"
     y2="173.13"
     id="line54" />
  <path
     class="cls-1"
     d="M149.75,141.72a46.86,46.86,0,0,1,35.46-16.16"
     id="path80" />
  <path
     class="cls-1"
     d="M202.09,216.14a46.56,46.56,0,0,1-17.35,3.34"
     id="path90" />
  <g
     inkscape:label=""
     transform="matrix(1.5,0,0,1.5,10.005435,26.361268)"
     id="g424">
    <g
       fill="#000000"
       fill-opacity="1"
       id="g19"
       transform="matrix(1.33333,0,0,1.33333,-0.291667,0.116833)">
      <g
         id="use17"
         transform="translate(0,4.428)">
        <path
           d="M 3.609375,-1.390625 C 3.859375,-1.859375 4,-2.34375 4,-2.515625 c 0,-0.21875 -0.125,-0.4375 -0.375,-0.4375 -0.625,0 -0.6875,1.0625 -0.703125,1.328125 C 2.90625,-1.46875 2.90625,-1.46875 2.890625,-1.453125 2.734375,-1.3125 2.3125,-1.015625 1.78125,-1.015625 1.125,-1.015625 0.75,-1.453125 0.75,-2 c 0,-0.3125 0.171875,-1.0625 0.859375,-2 0.09375,-0.109375 0.109375,-0.140625 0.109375,-0.21875 0,-0.125 -0.09375,-0.203125 -0.203125,-0.203125 -0.09375,0 -0.15625,0.0625 -0.171875,0.0625 -0.046875,0.046875 -1.125,1.34375 -1.125,2.78125 0,1 0.515625,1.65625 1.359375,1.65625 0.703125,0 1.265625,-0.484375 1.484375,-0.71875 0.125,0.296875 0.421875,0.71875 1.078125,0.71875 0.859375,0 1.625,-0.625 2.0625,-1.296875 0.609375,-0.953125 0.6875,-2.234375 0.6875,-2.375 0,-0.765625 -0.453125,-0.921875 -0.65625,-0.921875 -0.375,0 -0.765625,0.40625 -0.765625,0.75 0,0.265625 0.1875,0.390625 0.296875,0.46875 0.25,0.171875 0.46875,0.40625 0.46875,0.71875 0,0.671875 -0.84375,1.5625 -1.890625,1.5625 -0.28125,0 -0.5625,-0.078125 -0.734375,-0.375 z m 0,0"
           id="path31" />
      </g>
    </g>
    <g
       clip-path="url(#clipPath2446)"
       id="g25"
       transform="matrix(1.33333,0,0,1.33333,-0.291667,0.116833)">
      <g
         fill="#000000"
         fill-opacity="1"
         id="g23">
        <g
           id="use21"
           transform="translate(7.151,5.9219999)">
          <path
             d="m 1.46875,-4.296875 c 0,-0.203125 -0.171875,-0.40625 -0.40625,-0.40625 -0.203125,0 -0.390625,0.171875 -0.390625,0.40625 0,0.25 0.203125,0.40625 0.390625,0.40625 0.234375,0 0.40625,-0.171875 0.40625,-0.40625 z M 0.40625,-3 v 0.25 c 0.4375,0 0.5,0.046875 0.5,0.390625 v 1.8125 C 0.90625,-0.25 0.84375,-0.25 0.390625,-0.25 V 0 c 0.015625,0 0.5,-0.03125 0.78125,-0.03125 0.25,0 0.5,0.015625 0.734375,0.03125 V -0.25 C 1.5,-0.25 1.4375,-0.25 1.4375,-0.546875 v -2.53125 z m 0,0"
             id="path35" />
        </g>
      </g>
    </g>
  </g>
  <g
     inkscape:label=""
     transform="matrix(1.5,0,0,1.5,226.28614,345.97181)"
     id="g566">
    <g
       fill="#000000"
       fill-opacity="1"
       id="g556"
       transform="matrix(1.33333,0,0,1.33333,-0.291667,0.116833)">
      <g
         id="g554"
         transform="translate(0,4.428)">
        <path
           d="M 3.609375,-1.390625 C 3.859375,-1.859375 4,-2.34375 4,-2.515625 c 0,-0.21875 -0.125,-0.4375 -0.375,-0.4375 -0.625,0 -0.6875,1.0625 -0.703125,1.328125 C 2.90625,-1.46875 2.90625,-1.46875 2.890625,-1.453125 2.734375,-1.3125 2.3125,-1.015625 1.78125,-1.015625 1.125,-1.015625 0.75,-1.453125 0.75,-2 c 0,-0.3125 0.171875,-1.0625 0.859375,-2 0.09375,-0.109375 0.109375,-0.140625 0.109375,-0.21875 0,-0.125 -0.09375,-0.203125 -0.203125,-0.203125 -0.09375,0 -0.15625,0.0625 -0.171875,0.0625 -0.046875,0.046875 -1.125,1.34375 -1.125,2.78125 0,1 0.515625,1.65625 1.359375,1.65625 0.703125,0 1.265625,-0.484375 1.484375,-0.71875 0.125,0.296875 0.421875,0.71875 1.078125,0.71875 0.859375,0 1.625,-0.625 2.0625,-1.296875 0.609375,-0.953125 0.6875,-2.234375 0.6875,-2.375 0,-0.765625 -0.453125,-0.921875 -0.65625,-0.921875 -0.375,0 -0.765625,0.40625 -0.765625,0.75 0,0.265625 0.1875,0.390625 0.296875,0.46875 0.25,0.171875 0.46875,0.40625 0.46875,0.71875 0,0.671875 -0.84375,1.5625 -1.890625,1.5625 -0.28125,0 -0.5625,-0.078125 -0.734375,-0.375 z m 0,0"
           id="path552" />
      </g>
    </g>
    <g
       clip-path="url(#clipPath3502)"
       id="g564"
       transform="matrix(1.33333,0,0,1.33333,-0.291667,0.116833)">
      <g
         fill="#000000"
         fill-opacity="1"
         id="g562">
        <g
           id="g560"
           transform="translate(7.151,5.9219999)">
          <path
             d="M 1.40625,-2.75 H 2.484375 V -3 H 1.40625 v -1.28125 h -0.25 c 0,0.625 -0.28125,1.3125 -0.953125,1.328125 V -2.75 H 0.84375 v 1.875 c 0,0.78125 0.59375,0.9375 0.984375,0.9375 0.46875,0 0.78125,-0.390625 0.78125,-0.9375 V -1.265625 H 2.375 v 0.375 c 0,0.484375 -0.21875,0.734375 -0.5,0.734375 -0.46875,0 -0.46875,-0.578125 -0.46875,-0.703125 z m 0,0"
             id="path558" />
        </g>
      </g>
    </g>
  </g>
  <g
     inkscape:label=""
     transform="matrix(1.5,0,0,1.5,229.17245,182.0295)"
     id="g781">
    <g
       fill="#000000"
       fill-opacity="1"
       id="g26"
       transform="matrix(1.33333,0,0,1.33333,-0.291667,0.116833)">
      <g
         id="use24"
         transform="translate(0,4.428)">
        <path
           d="M 3.609375,-1.390625 C 3.859375,-1.859375 4,-2.34375 4,-2.515625 c 0,-0.21875 -0.125,-0.4375 -0.375,-0.4375 -0.625,0 -0.6875,1.0625 -0.703125,1.328125 C 2.90625,-1.46875 2.90625,-1.46875 2.890625,-1.453125 2.734375,-1.3125 2.3125,-1.015625 1.78125,-1.015625 1.125,-1.015625 0.75,-1.453125 0.75,-2 c 0,-0.3125 0.171875,-1.0625 0.859375,-2 0.09375,-0.109375 0.109375,-0.140625 0.109375,-0.21875 0,-0.125 -0.09375,-0.203125 -0.203125,-0.203125 -0.09375,0 -0.15625,0.0625 -0.171875,0.0625 -0.046875,0.046875 -1.125,1.34375 -1.125,2.78125 0,1 0.515625,1.65625 1.359375,1.65625 0.703125,0 1.265625,-0.484375 1.484375,-0.71875 0.125,0.296875 0.421875,0.71875 1.078125,0.71875 0.859375,0 1.625,-0.625 2.0625,-1.296875 0.609375,-0.953125 0.6875,-2.234375 0.6875,-2.375 0,-0.765625 -0.453125,-0.921875 -0.65625,-0.921875 -0.375,0 -0.765625,0.40625 -0.765625,0.75 0,0.265625 0.1875,0.390625 0.296875,0.46875 0.25,0.171875 0.46875,0.40625 0.46875,0.71875 0,0.671875 -0.84375,1.5625 -1.890625,1.5625 -0.28125,0 -0.5625,-0.078125 -0.734375,-0.375 z m 0,0"
           id="path44" />
      </g>
    </g>
    <g
       clip-path="url(#clipPath3753)"
       id="g32"
       transform="matrix(1.33333,0,0,1.33333,-0.291667,0.116833)">
      <g
         fill="#000000"
         fill-opacity="1"
         id="g30">
        <g
           id="use28"
           transform="translate(7.151,5.9219999)">
          <path
             d="M 1.40625,-2.75 H 2.484375 V -3 H 1.40625 v -1.28125 h -0.25 c 0,0.625 -0.28125,1.3125 -0.953125,1.328125 V -2.75 H 0.84375 v 1.875 c 0,0.78125 0.59375,0.9375 0.984375,0.9375 0.46875,0 0.78125,-0.390625 0.78125,-0.9375 V -1.265625 H 2.375 v 0.375 c 0,0.484375 -0.21875,0.734375 -0.5,0.734375 -0.46875,0 -0.46875,-0.578125 -0.46875,-0.703125 z m 0,0"
             id="path48" />
        </g>
      </g>
    </g>
    <g
       clip-path="url(#clipPath6701)"
       id="g38"
       transform="matrix(1.33333,0,0,1.33333,-0.291667,0.116833)">
      <g
         fill="#000000"
         fill-opacity="1"
         id="g36">
        <g
           id="use34"
           transform="translate(10.265,5.9219999)">
          <path
             d="m 3.28125,-4.5625 c 0,-0.109375 0,-0.28125 -0.171875,-0.28125 -0.171875,0 -0.171875,0.171875 -0.171875,0.28125 v 4.21875 h -2.125 c -0.109375,0 -0.28125,0 -0.28125,0.171875 C 0.53125,0 0.703125,0 0.8125,0 H 5.40625 C 5.515625,0 5.6875,0 5.6875,-0.171875 5.6875,-0.34375 5.53125,-0.34375 5.40625,-0.34375 h -2.125 z m 0,0"
             id="path52" />
        </g>
      </g>
    </g>
  </g>
  <g
     inkscape:label=""
     transform="matrix(1.5,0,0,1.5,29.439911,182.60676)"
     id="g991">
    <g
       fill="#000000"
       fill-opacity="1"
       id="g973"
       transform="matrix(1.33333,0,0,1.33333,-0.291667,0.116833)">
      <g
         id="g971"
         transform="translate(0,4.428)">
        <path
           d="M 3.609375,-1.390625 C 3.859375,-1.859375 4,-2.34375 4,-2.515625 c 0,-0.21875 -0.125,-0.4375 -0.375,-0.4375 -0.625,0 -0.6875,1.0625 -0.703125,1.328125 C 2.90625,-1.46875 2.90625,-1.46875 2.890625,-1.453125 2.734375,-1.3125 2.3125,-1.015625 1.78125,-1.015625 1.125,-1.015625 0.75,-1.453125 0.75,-2 c 0,-0.3125 0.171875,-1.0625 0.859375,-2 0.09375,-0.109375 0.109375,-0.140625 0.109375,-0.21875 0,-0.125 -0.09375,-0.203125 -0.203125,-0.203125 -0.09375,0 -0.15625,0.0625 -0.171875,0.0625 -0.046875,0.046875 -1.125,1.34375 -1.125,2.78125 0,1 0.515625,1.65625 1.359375,1.65625 0.703125,0 1.265625,-0.484375 1.484375,-0.71875 0.125,0.296875 0.421875,0.71875 1.078125,0.71875 0.859375,0 1.625,-0.625 2.0625,-1.296875 0.609375,-0.953125 0.6875,-2.234375 0.6875,-2.375 0,-0.765625 -0.453125,-0.921875 -0.65625,-0.921875 -0.375,0 -0.765625,0.40625 -0.765625,0.75 0,0.265625 0.1875,0.390625 0.296875,0.46875 0.25,0.171875 0.46875,0.40625 0.46875,0.71875 0,0.671875 -0.84375,1.5625 -1.890625,1.5625 -0.28125,0 -0.5625,-0.078125 -0.734375,-0.375 z m 0,0"
           id="path969" />
      </g>
    </g>
    <g
       clip-path="url(#clipPath9123)"
       id="g981"
       transform="matrix(1.33333,0,0,1.33333,-0.291667,0.116833)">
      <g
         fill="#000000"
         fill-opacity="1"
         id="g979">
        <g
           id="g977"
           transform="translate(7.151,5.9219999)">
          <path
             d="m 1.46875,-4.296875 c 0,-0.203125 -0.171875,-0.40625 -0.40625,-0.40625 -0.203125,0 -0.390625,0.171875 -0.390625,0.40625 0,0.25 0.203125,0.40625 0.390625,0.40625 0.234375,0 0.40625,-0.171875 0.40625,-0.40625 z M 0.40625,-3 v 0.25 c 0.4375,0 0.5,0.046875 0.5,0.390625 v 1.8125 C 0.90625,-0.25 0.84375,-0.25 0.390625,-0.25 V 0 c 0.015625,0 0.5,-0.03125 0.78125,-0.03125 0.25,0 0.5,0.015625 0.734375,0.03125 V -0.25 C 1.5,-0.25 1.4375,-0.25 1.4375,-0.546875 v -2.53125 z m 0,0"
             id="path975" />
        </g>
      </g>
    </g>
    <g
       clip-path="url(#clipPath6072)"
       id="g989"
       transform="matrix(1.33333,0,0,1.33333,-0.291667,0.116833)">
      <g
         fill="#000000"
         fill-opacity="1"
         id="g987">
        <g
           id="g985"
           transform="translate(9.4069996,5.9219999)">
          <path
             d="m 3.28125,-4.5625 c 0,-0.109375 0,-0.28125 -0.171875,-0.28125 -0.171875,0 -0.171875,0.171875 -0.171875,0.28125 v 4.21875 h -2.125 c -0.109375,0 -0.28125,0 -0.28125,0.171875 C 0.53125,0 0.703125,0 0.8125,0 H 5.40625 C 5.515625,0 5.6875,0 5.6875,-0.171875 5.6875,-0.34375 5.53125,-0.34375 5.40625,-0.34375 h -2.125 z m 0,0"
             id="path983" />
        </g>
      </g>
    </g>
  </g>
  <g
     inkscape:label=""
     transform="matrix(1.5,0,0,1.5,156.62989,106.79305)"
     id="g1223">
    <g
       fill="#000000"
       fill-opacity="1"
       id="g1213"
       transform="matrix(1.33333,0,0,1.33333,-0.5625,0.149666)">
      <g
         id="g1211"
         transform="translate(0,6.9190001)">
        <path
           d="m 4.53125,-4.984375 c 0,-0.65625 -0.171875,-2.046875 -1.1875,-2.046875 -1.390625,0 -2.921875,2.8125 -2.921875,5.09375 0,0.9375 0.28125,2.046875 1.1875,2.046875 1.40625,0 2.921875,-2.859375 2.921875,-5.09375 z M 1.46875,-3.625 C 1.640625,-4.25 1.84375,-5.046875 2.25,-5.765625 2.515625,-6.25 2.875,-6.8125 3.328125,-6.8125 c 0.484375,0 0.546875,0.640625 0.546875,1.203125 0,0.5 -0.078125,1 -0.3125,1.984375 z m 2,0.328125 C 3.359375,-2.84375 3.15625,-2 2.765625,-1.28125 c -0.34375,0.6875 -0.71875,1.171875 -1.15625,1.171875 -0.328125,0 -0.53125,-0.296875 -0.53125,-1.21875 0,-0.421875 0.0625,-1 0.3125,-1.96875 z m 0,0"
           id="path1209" />
      </g>
    </g>
    <g
       clip-path="url(#clipPath1434)"
       id="g1221"
       transform="matrix(1.33333,0,0,1.33333,-0.5625,0.149666)">
      <g
         fill="#000000"
         fill-opacity="1"
         id="g1219">
        <g
           id="g1217"
           transform="translate(4.677,8.4130001)">
          <path
             d="m 1.46875,-4.296875 c 0,-0.203125 -0.171875,-0.40625 -0.40625,-0.40625 -0.203125,0 -0.390625,0.171875 -0.390625,0.40625 0,0.25 0.203125,0.40625 0.390625,0.40625 0.234375,0 0.40625,-0.171875 0.40625,-0.40625 z M 0.40625,-3 v 0.25 c 0.4375,0 0.5,0.046875 0.5,0.390625 v 1.8125 C 0.90625,-0.25 0.84375,-0.25 0.390625,-0.25 V 0 c 0.015625,0 0.5,-0.03125 0.78125,-0.03125 0.25,0 0.5,0.015625 0.734375,0.03125 V -0.25 C 1.5,-0.25 1.4375,-0.25 1.4375,-0.546875 v -2.53125 z m 0,0"
             id="path1215" />
        </g>
      </g>
    </g>
  </g>
  <g
     inkscape:label=""
     transform="matrix(1.5,0,0,1.5,190.11107,226.09381)"
     id="g1469">
    <g
       fill="#000000"
       fill-opacity="1"
       id="g1459"
       transform="matrix(1.33333,0,0,1.33333,-0.5625,0.149666)">
      <g
         id="g1457"
         transform="translate(0,6.9190001)">
        <path
           d="m 4.53125,-4.984375 c 0,-0.65625 -0.171875,-2.046875 -1.1875,-2.046875 -1.390625,0 -2.921875,2.8125 -2.921875,5.09375 0,0.9375 0.28125,2.046875 1.1875,2.046875 1.40625,0 2.921875,-2.859375 2.921875,-5.09375 z M 1.46875,-3.625 C 1.640625,-4.25 1.84375,-5.046875 2.25,-5.765625 2.515625,-6.25 2.875,-6.8125 3.328125,-6.8125 c 0.484375,0 0.546875,0.640625 0.546875,1.203125 0,0.5 -0.078125,1 -0.3125,1.984375 z m 2,0.328125 C 3.359375,-2.84375 3.15625,-2 2.765625,-1.28125 c -0.34375,0.6875 -0.71875,1.171875 -1.15625,1.171875 -0.328125,0 -0.53125,-0.296875 -0.53125,-1.21875 0,-0.421875 0.0625,-1 0.3125,-1.96875 z m 0,0"
           id="path1455" />
      </g>
    </g>
    <g
       clip-path="url(#clipPath4893)"
       id="g1467"
       transform="matrix(1.33333,0,0,1.33333,-0.5625,0.149666)">
      <g
         fill="#000000"
         fill-opacity="1"
         id="g1465">
        <g
           id="g1463"
           transform="translate(4.677,8.4130001)">
          <path
             d="M 1.40625,-2.75 H 2.484375 V -3 H 1.40625 v -1.28125 h -0.25 c 0,0.625 -0.28125,1.3125 -0.953125,1.328125 V -2.75 H 0.84375 v 1.875 c 0,0.78125 0.59375,0.9375 0.984375,0.9375 0.46875,0 0.78125,-0.390625 0.78125,-0.9375 V -1.265625 H 2.375 v 0.375 c 0,0.484375 -0.21875,0.734375 -0.5,0.734375 -0.46875,0 -0.46875,-0.578125 -0.46875,-0.703125 z m 0,0"
             id="path1461" />
        </g>
      </g>
    </g>
  </g>
</svg>
