<?xml version="1.0" encoding="UTF-8" standalone="no"?>
<svg
   xmlns:dc="http://purl.org/dc/elements/1.1/"
   xmlns:cc="http://creativecommons.org/ns#"
   xmlns:rdf="http://www.w3.org/1999/02/22-rdf-syntax-ns#"
   xmlns:svg="http://www.w3.org/2000/svg"
   xmlns="http://www.w3.org/2000/svg"
   xmlns:sodipodi="http://sodipodi.sourceforge.net/DTD/sodipodi-0.dtd"
   xmlns:inkscape="http://www.inkscape.org/namespaces/inkscape"
   id="Layer_1"
   data-name="Layer 1"
   viewBox="0 0 363.91 352.61"
   version="1.1"
   sodipodi:docname="BVHchoosesplitaxis.svg"
   inkscape:version="1.0.1 (3bc2e813f5, 2020-09-07)">
  <metadata
     id="metadata453">
    <rdf:RDF>
      <cc:Work
         rdf:about="">
        <dc:format>image/svg+xml</dc:format>
        <dc:type
           rdf:resource="http://purl.org/dc/dcmitype/StillImage" />
      </cc:Work>
    </rdf:RDF>
  </metadata>
  <sodipodi:namedview
     pagecolor="#ffffff"
     bordercolor="#666666"
     borderopacity="1"
     objecttolerance="10"
     gridtolerance="10"
     guidetolerance="10"
     inkscape:pageopacity="0"
     inkscape:pageshadow="2"
     inkscape:window-width="1920"
     inkscape:window-height="1017"
     id="namedview451"
     showgrid="false"
     inkscape:zoom="2.4077594"
     inkscape:cx="181.955"
     inkscape:cy="176.30499"
     inkscape:window-x="1912"
     inkscape:window-y="-8"
     inkscape:window-maximized="1"
     inkscape:current-layer="Layer_1" />
  <defs
     id="defs396">
    <style
       id="style394">.cls-1,.cls-4{fill:none;stroke:#000;stroke-miterlimit:10;}.cls-2{fill:#a6a6a6;}.cls-3{fill:#666;}.cls-4{stroke-dasharray:2;}</style>
  </defs>
  <title
     id="title398">BVH choose split axis</title>
  <polyline
     class="cls-1"
     points="37.66 29.12 37.66 308.02 316.56 308.02"
     id="polyline400" />
  <polygon
     points="32.16 34.03 37.66 29.77 43.17 34.03 37.66 21.02 32.16 34.03"
     id="polygon402" />
  <polygon
     class="cls-2"
     points="33.36 32.48 37.66 22.33 37.66 29.14 33.36 32.48"
     id="polygon404" />
  <polygon
     class="cls-3"
     points="41.96 32.48 37.66 22.33 37.66 29.14 41.96 32.48"
     id="polygon406" />
  <polygon
     points="311.65 313.52 315.91 308.02 311.65 302.52 324.66 308.02 311.65 313.52"
     id="polygon408" />
  <polygon
     class="cls-2"
     points="313.21 312.32 323.35 308.02 316.54 308.02 313.21 312.32"
     id="polygon410" />
  <polygon
     class="cls-3"
     points="313.21 303.72 323.35 308.02 316.54 308.02 313.21 303.72"
     id="polygon412" />
  <rect
     class="cls-1"
     x="196.75"
     y="153.3"
     width="27.7"
     height="16.68"
     id="rect418" />
  <circle
     cx="211.16"
     cy="161.52"
     r="5"
     id="circle420" />
  <rect
     class="cls-1"
     x="175.51"
     y="238.14"
     width="119.17"
     height="27"
     id="rect422" />
  <circle
     cx="235.66"
     cy="251.52"
     r="5"
     id="circle424" />
  <rect
     class="cls-1"
     x="94.88"
     y="227.39"
     width="103.44"
     height="69.49"
     id="rect426" />
  <circle
     cx="147.16"
     cy="262.02"
     r="5"
     id="circle428" />
  <rect
     class="cls-1"
     x="100.35"
     y="35.74"
     width="74.5"
     height="72.81"
     id="rect430" />
  <circle
     cx="138.16"
     cy="72.02"
     r="5"
     id="circle432" />
  <rect
     class="cls-1"
     x="73.35"
     y="122.64"
     width="74.5"
     height="27"
     id="rect434" />
  <circle
     cx="111.16"
     cy="136.02"
     r="5"
     id="circle436" />
  <line
     class="cls-4"
     x1="137.66"
     y1="71.52"
     x2="37.66"
     y2="71.52"
     id="line438" />
  <line
     class="cls-4"
     x1="235.16"
     y1="250.52"
     x2="235.16"
     y2="307.02"
     id="line440" />
  <line
     class="cls-4"
     x1="146.66"
     y1="261.52"
     x2="37.66"
     y2="261.52"
     id="line442" />
  <line
     class="cls-4"
     x1="110.66"
     y1="135.52"
     x2="110.66"
     y2="308.02"
     id="line444" />
  <polyline
     class="cls-1"
     points="110.64 312.47 110.64 317.13 235.07 317.13 235.07 312.08"
     id="polyline446" />
  <polyline
     class="cls-1"
     points="33.2 71.38 28.33 71.38 28.33 262 32.99 262"
     id="polyline448" />
  <g
     inkscape:label=""
     transform="matrix(2,0,0,2,-150.8277,-151.59885)"
     id="g382">
    <g
       id="g6175">
      <g
         style="fill:#000000;fill-opacity:1"
         id="g6765">
        <g
           id="use2625"
           transform="translate(91.925003,81.962997)">
          <path
             style="stroke:none"
             d="m 4.84375,-3.796875 c 0.046875,-0.140625 0.046875,-0.15625 0.046875,-0.234375 0,-0.171875 -0.140625,-0.265625 -0.296875,-0.265625 -0.09375,0 -0.25,0.0625 -0.34375,0.203125 -0.015625,0.0625 -0.109375,0.359375 -0.140625,0.546875 -0.078125,0.25 -0.140625,0.53125 -0.203125,0.796875 l -0.453125,1.796875 c -0.03125,0.140625 -0.46875,0.84375 -1.125,0.84375 -0.5,0 -0.609375,-0.4375 -0.609375,-0.8125 C 1.71875,-1.375 1.890625,-2 2.21875,-2.875 2.375,-3.28125 2.421875,-3.390625 2.421875,-3.59375 c 0,-0.4375 -0.3125,-0.8125 -0.8125,-0.8125 -0.953125,0 -1.3125,1.453125 -1.3125,1.53125 0,0.109375 0.09375,0.109375 0.109375,0.109375 0.109375,0 0.109375,-0.03125 0.15625,-0.1875 0.28125,-0.9375 0.671875,-1.234375 1.015625,-1.234375 0.078125,0 0.25,0 0.25,0.3125 0,0.25 -0.109375,0.515625 -0.171875,0.703125 -0.40625,1.0625 -0.578125,1.625 -0.578125,2.09375 0,0.890625 0.625,1.1875 1.21875,1.1875 0.390625,0 0.71875,-0.171875 1,-0.453125 -0.125,0.515625 -0.25,1.015625 -0.640625,1.546875 -0.265625,0.328125 -0.640625,0.625 -1.09375,0.625 -0.140625,0 -0.59375,-0.03125 -0.765625,-0.421875 0.15625,0 0.296875,0 0.421875,-0.125 C 1.328125,1.203125 1.421875,1.0625 1.421875,0.875 1.421875,0.5625 1.15625,0.53125 1.0625,0.53125 0.828125,0.53125 0.5,0.6875 0.5,1.171875 c 0,0.5 0.4375,0.875 1.0625,0.875 1.015625,0 2.046875,-0.90625 2.328125,-2.03125 z m 0,0"
             id="path481" />
        </g>
      </g>
    </g>
  </g>
  <g
     inkscape:label=""
     transform="matrix(2,0,0,2,146.18482,148.12589)"
     id="g304">
    <g
       id="g5879">
      <g
         style="fill:#000000;fill-opacity:1"
         id="g4355">
        <g
           id="use4081"
           transform="translate(91.925003,81.962997)">
          <path
             style="stroke:none"
             d="M 3.328125,-3.015625 C 3.390625,-3.265625 3.625,-4.1875 4.3125,-4.1875 c 0.046875,0 0.296875,0 0.5,0.125 C 4.53125,-4 4.34375,-3.765625 4.34375,-3.515625 c 0,0.15625 0.109375,0.34375 0.375,0.34375 0.21875,0 0.53125,-0.171875 0.53125,-0.578125 0,-0.515625 -0.578125,-0.65625 -0.921875,-0.65625 -0.578125,0 -0.921875,0.53125 -1.046875,0.75 -0.25,-0.65625 -0.78125,-0.75 -1.078125,-0.75 -1.03125,0 -1.609375,1.28125 -1.609375,1.53125 0,0.109375 0.109375,0.109375 0.125,0.109375 0.078125,0 0.109375,-0.03125 0.125,-0.109375 0.34375,-1.0625 1,-1.3125 1.34375,-1.3125 0.1875,0 0.53125,0.09375 0.53125,0.671875 0,0.3125 -0.171875,0.96875 -0.53125,2.375 -0.15625,0.609375 -0.515625,1.03125 -0.953125,1.03125 -0.0625,0 -0.28125,0 -0.5,-0.125 0.25,-0.0625 0.46875,-0.265625 0.46875,-0.546875 0,-0.265625 -0.21875,-0.34375 -0.359375,-0.34375 -0.3125,0 -0.546875,0.25 -0.546875,0.578125 0,0.453125 0.484375,0.65625 0.921875,0.65625 0.671875,0 1.03125,-0.703125 1.046875,-0.75 0.125,0.359375 0.484375,0.75 1.078125,0.75 1.03125,0 1.59375,-1.28125 1.59375,-1.53125 0,-0.109375 -0.078125,-0.109375 -0.109375,-0.109375 -0.09375,0 -0.109375,0.046875 -0.140625,0.109375 -0.328125,1.078125 -1,1.3125 -1.3125,1.3125 -0.390625,0 -0.546875,-0.3125 -0.546875,-0.65625 0,-0.21875 0.046875,-0.4375 0.15625,-0.875 z m 0,0"
             id="path511" />
        </g>
      </g>
    </g>
  </g>
</svg>
