<svg id="Layer_1" data-name="Layer 1" xmlns="http://www.w3.org/2000/svg" viewBox="0 0 394.22 242.09"><defs><style>.cls-1,.cls-2,.cls-3{fill:none;stroke-miterlimit:10;}.cls-1,.cls-2{stroke:#000;}.cls-2{stroke-dasharray:2;}.cls-3{stroke:#0071bc;}</style></defs><title>BVH split bucketing</title><rect class="cls-1" x="345.52" y="134.91" width="27.7" height="16.68"/><circle cx="359.94" cy="143.13" r="5"/><rect class="cls-1" x="213.85" y="38.56" width="110.05" height="73.94"/><circle cx="269.15" cy="75.27" r="5"/><rect class="cls-1" x="7.5" y="47.45" width="55.48" height="54.22"/><circle cx="35.24" cy="75.07" r="5"/><rect class="cls-1" x="67.27" y="124.74" width="74.5" height="27"/><circle cx="105.08" cy="138.12" r="5"/><rect class="cls-1" x="181.77" y="141.32" width="52.55" height="67.56"/><circle cx="208.61" cy="174.98" r="5"/><rect class="cls-1" x="116.62" y="162.39" width="74.5" height="27"/><circle cx="154.43" cy="175.77" r="5"/><line class="cls-1" y1="241.4" x2="394.22" y2="241.4"/><line class="cls-2" x1="359.93" y1="142.99" x2="359.93" y2="240.87"/><line class="cls-2" x1="35.25" y1="74.41" x2="35.25" y2="240.87"/><line class="cls-3" x1="304.57" y1="0.24" x2="304.57" y2="241.19"/><line class="cls-3" x1="251.31" x2="251.31" y2="240.96"/><line class="cls-3" x1="197.08" y1="0.62" x2="197.08" y2="241.58"/><line class="cls-3" x1="143.77" x2="143.77" y2="240.96"/><line class="cls-3" x1="89.22" y1="0.31" x2="89.22" y2="241.27"/><line class="cls-2" x1="105.26" y1="138.34" x2="105.26" y2="241.53"/><line class="cls-2" x1="154.64" y1="175.51" x2="154.64" y2="241.26"/><line class="cls-2" x1="208.39" y1="175.23" x2="208.39" y2="242.09"/><line class="cls-2" x1="269.36" y1="75.09" x2="269.36" y2="241.81"/></svg>