<?xml version="1.0" encoding="UTF-8" standalone="no"?>
<svg
   xmlns:dc="http://purl.org/dc/elements/1.1/"
   xmlns:cc="http://creativecommons.org/ns#"
   xmlns:rdf="http://www.w3.org/1999/02/22-rdf-syntax-ns#"
   xmlns:svg="http://www.w3.org/2000/svg"
   xmlns="http://www.w3.org/2000/svg"
   xmlns:xlink="http://www.w3.org/1999/xlink"
   xmlns:sodipodi="http://sodipodi.sourceforge.net/DTD/sodipodi-0.dtd"
   xmlns:inkscape="http://www.inkscape.org/namespaces/inkscape"
   id="Layer_1"
   data-name="Layer 1"
   viewBox="0 0 330.7 286.44"
   version="1.1"
   sodipodi:docname="kdraytraversal.svg"
   inkscape:version="1.0.1 (3bc2e813f5, 2020-09-07)">
  <metadata
     id="metadata1249">
    <rdf:RDF>
      <cc:Work
         rdf:about="">
        <dc:format>image/svg+xml</dc:format>
        <dc:type
           rdf:resource="http://purl.org/dc/dcmitype/StillImage" />
      </cc:Work>
    </rdf:RDF>
  </metadata>
  <sodipodi:namedview
     pagecolor="#ffffff"
     bordercolor="#666666"
     borderopacity="1"
     objecttolerance="10"
     gridtolerance="10"
     guidetolerance="10"
     inkscape:pageopacity="0"
     inkscape:pageshadow="2"
     inkscape:window-width="1920"
     inkscape:window-height="1017"
     id="namedview1247"
     showgrid="false"
     inkscape:zoom="2.1681282"
     inkscape:cx="165.35"
     inkscape:cy="124.77091"
     inkscape:window-x="1912"
     inkscape:window-y="-8"
     inkscape:window-maximized="1"
     inkscape:current-layer="Layer_1"
     inkscape:document-rotation="0"
     showguides="true"
     inkscape:guide-bbox="true" />
  <defs
     id="defs1044">
    <rect
       x="57.19219"
       y="120.84156"
       width="57.19219"
       height="22.138912"
       id="rect3743" />
    <rect
       x="65.494282"
       y="122.22524"
       width="60.420781"
       height="21.677685"
       id="rect3709" />
    <style
       id="style1042">.cls-1{fill:#ccc;}.cls-2,.cls-5{fill:none;stroke:#000;stroke-miterlimit:10;}.cls-3{fill:#a6a6a6;}.cls-4{fill:#666;}.cls-5{stroke-dasharray:2;}</style>
    <g
       id="g9464">
      <symbol
         overflow="visible"
         id="symbol9350">
        <path
           style="stroke:none;"
           d=""
           id="path9555" />
      </symbol>
      <symbol
         overflow="visible"
         id="symbol1547">
        <path
           style="stroke:none;"
           d="M 2.046875 -3.984375 L 2.984375 -3.984375 C 3.1875 -3.984375 3.296875 -3.984375 3.296875 -4.1875 C 3.296875 -4.296875 3.1875 -4.296875 3.015625 -4.296875 L 2.140625 -4.296875 C 2.5 -5.71875 2.546875 -5.90625 2.546875 -5.96875 C 2.546875 -6.140625 2.421875 -6.234375 2.25 -6.234375 C 2.21875 -6.234375 1.9375 -6.234375 1.859375 -5.875 L 1.46875 -4.296875 L 0.53125 -4.296875 C 0.328125 -4.296875 0.234375 -4.296875 0.234375 -4.109375 C 0.234375 -3.984375 0.3125 -3.984375 0.515625 -3.984375 L 1.390625 -3.984375 C 0.671875 -1.15625 0.625 -0.984375 0.625 -0.8125 C 0.625 -0.265625 1 0.109375 1.546875 0.109375 C 2.5625 0.109375 3.125 -1.34375 3.125 -1.421875 C 3.125 -1.53125 3.046875 -1.53125 3.015625 -1.53125 C 2.921875 -1.53125 2.90625 -1.5 2.859375 -1.390625 C 2.4375 -0.34375 1.90625 -0.109375 1.5625 -0.109375 C 1.359375 -0.109375 1.25 -0.234375 1.25 -0.5625 C 1.25 -0.8125 1.28125 -0.875 1.3125 -1.046875 Z M 2.046875 -3.984375 "
           id="path2864" />
      </symbol>
      <symbol
         overflow="visible"
         id="symbol9814">
        <path
           style="stroke:none;"
           d=""
           id="path4303" />
      </symbol>
      <symbol
         overflow="visible"
         id="symbol2953">
        <path
           style="stroke:none;"
           d="M 5.734375 -2.109375 C 5.734375 -2.71875 5.421875 -3.078125 4.6875 -3.078125 C 4.125 -3.078125 3.75 -2.78125 3.5625 -2.421875 C 3.421875 -2.921875 3.046875 -3.078125 2.546875 -3.078125 C 1.96875 -3.078125 1.609375 -2.765625 1.40625 -2.390625 L 1.40625 -3.078125 L 0.375 -3 L 0.375 -2.75 C 0.84375 -2.75 0.90625 -2.703125 0.90625 -2.359375 L 0.90625 -0.546875 C 0.90625 -0.25 0.828125 -0.25 0.375 -0.25 L 0.375 0 C 0.390625 0 0.875 -0.03125 1.171875 -0.03125 C 1.421875 -0.03125 1.90625 0 1.96875 0 L 1.96875 -0.25 C 1.515625 -0.25 1.453125 -0.25 1.453125 -0.546875 L 1.453125 -1.8125 C 1.453125 -2.53125 2.03125 -2.875 2.484375 -2.875 C 2.96875 -2.875 3.03125 -2.5 3.03125 -2.140625 L 3.03125 -0.546875 C 3.03125 -0.25 2.96875 -0.25 2.515625 -0.25 L 2.515625 0 C 2.53125 0 3.015625 -0.03125 3.3125 -0.03125 C 3.5625 -0.03125 4.046875 0 4.109375 0 L 4.109375 -0.25 C 3.65625 -0.25 3.59375 -0.25 3.59375 -0.546875 L 3.59375 -1.8125 C 3.59375 -2.53125 4.171875 -2.875 4.625 -2.875 C 5.109375 -2.875 5.171875 -2.5 5.171875 -2.140625 L 5.171875 -0.546875 C 5.171875 -0.25 5.109375 -0.25 4.65625 -0.25 L 4.65625 0 C 4.671875 0 5.15625 -0.03125 5.453125 -0.03125 C 5.703125 -0.03125 6.1875 0 6.25 0 L 6.25 -0.25 C 5.796875 -0.25 5.734375 -0.25 5.734375 -0.546875 Z M 5.734375 -2.109375 "
           id="path9271" />
      </symbol>
      <symbol
         overflow="visible"
         id="symbol6449">
        <path
           style="stroke:none;"
           d="M 1.46875 -4.296875 C 1.46875 -4.5 1.296875 -4.703125 1.0625 -4.703125 C 0.859375 -4.703125 0.671875 -4.53125 0.671875 -4.296875 C 0.671875 -4.046875 0.875 -3.890625 1.0625 -3.890625 C 1.296875 -3.890625 1.46875 -4.0625 1.46875 -4.296875 Z M 0.40625 -3 L 0.40625 -2.75 C 0.84375 -2.75 0.90625 -2.703125 0.90625 -2.359375 L 0.90625 -0.546875 C 0.90625 -0.25 0.84375 -0.25 0.390625 -0.25 L 0.390625 0 C 0.40625 0 0.890625 -0.03125 1.171875 -0.03125 C 1.421875 -0.03125 1.671875 -0.015625 1.90625 0 L 1.90625 -0.25 C 1.5 -0.25 1.4375 -0.25 1.4375 -0.546875 L 1.4375 -3.078125 Z M 0.40625 -3 "
           id="path2290" />
      </symbol>
      <symbol
         overflow="visible"
         id="symbol8642">
        <path
           style="stroke:none;"
           d="M 3.59375 -2.109375 C 3.59375 -2.71875 3.296875 -3.078125 2.546875 -3.078125 C 1.96875 -3.078125 1.609375 -2.765625 1.40625 -2.390625 L 1.40625 -3.078125 L 0.375 -3 L 0.375 -2.75 C 0.84375 -2.75 0.90625 -2.703125 0.90625 -2.359375 L 0.90625 -0.546875 C 0.90625 -0.25 0.828125 -0.25 0.375 -0.25 L 0.375 0 C 0.390625 0 0.875 -0.03125 1.171875 -0.03125 C 1.421875 -0.03125 1.90625 0 1.96875 0 L 1.96875 -0.25 C 1.515625 -0.25 1.453125 -0.25 1.453125 -0.546875 L 1.453125 -1.8125 C 1.453125 -2.53125 2.03125 -2.875 2.484375 -2.875 C 2.96875 -2.875 3.03125 -2.5 3.03125 -2.140625 L 3.03125 -0.546875 C 3.03125 -0.25 2.96875 -0.25 2.515625 -0.25 L 2.515625 0 C 2.53125 0 3.015625 -0.03125 3.3125 -0.03125 C 3.5625 -0.03125 4.046875 0 4.109375 0 L 4.109375 -0.25 C 3.65625 -0.25 3.59375 -0.25 3.59375 -0.546875 Z M 3.59375 -2.109375 "
           id="path9723" />
      </symbol>
    </g>
    <g
       id="g9193">
      <symbol
         overflow="visible"
         id="symbol8940">
        <path
           style="stroke:none;"
           d=""
           id="path9162" />
      </symbol>
      <symbol
         overflow="visible"
         id="symbol931">
        <path
           style="stroke:none;"
           d="M 2.046875 -3.984375 L 2.984375 -3.984375 C 3.1875 -3.984375 3.296875 -3.984375 3.296875 -4.1875 C 3.296875 -4.296875 3.1875 -4.296875 3.015625 -4.296875 L 2.140625 -4.296875 C 2.5 -5.71875 2.546875 -5.90625 2.546875 -5.96875 C 2.546875 -6.140625 2.421875 -6.234375 2.25 -6.234375 C 2.21875 -6.234375 1.9375 -6.234375 1.859375 -5.875 L 1.46875 -4.296875 L 0.53125 -4.296875 C 0.328125 -4.296875 0.234375 -4.296875 0.234375 -4.109375 C 0.234375 -3.984375 0.3125 -3.984375 0.515625 -3.984375 L 1.390625 -3.984375 C 0.671875 -1.15625 0.625 -0.984375 0.625 -0.8125 C 0.625 -0.265625 1 0.109375 1.546875 0.109375 C 2.5625 0.109375 3.125 -1.34375 3.125 -1.421875 C 3.125 -1.53125 3.046875 -1.53125 3.015625 -1.53125 C 2.921875 -1.53125 2.90625 -1.5 2.859375 -1.390625 C 2.4375 -0.34375 1.90625 -0.109375 1.5625 -0.109375 C 1.359375 -0.109375 1.25 -0.234375 1.25 -0.5625 C 1.25 -0.8125 1.28125 -0.875 1.3125 -1.046875 Z M 2.046875 -3.984375 "
           id="path7512" />
      </symbol>
      <symbol
         overflow="visible"
         id="symbol2321">
        <path
           style="stroke:none;"
           d=""
           id="path8565" />
      </symbol>
      <symbol
         overflow="visible"
         id="symbol2752">
        <path
           style="stroke:none;"
           d="M 5.734375 -2.109375 C 5.734375 -2.71875 5.421875 -3.078125 4.6875 -3.078125 C 4.125 -3.078125 3.75 -2.78125 3.5625 -2.421875 C 3.421875 -2.921875 3.046875 -3.078125 2.546875 -3.078125 C 1.96875 -3.078125 1.609375 -2.765625 1.40625 -2.390625 L 1.40625 -3.078125 L 0.375 -3 L 0.375 -2.75 C 0.84375 -2.75 0.90625 -2.703125 0.90625 -2.359375 L 0.90625 -0.546875 C 0.90625 -0.25 0.828125 -0.25 0.375 -0.25 L 0.375 0 C 0.390625 0 0.875 -0.03125 1.171875 -0.03125 C 1.421875 -0.03125 1.90625 0 1.96875 0 L 1.96875 -0.25 C 1.515625 -0.25 1.453125 -0.25 1.453125 -0.546875 L 1.453125 -1.8125 C 1.453125 -2.53125 2.03125 -2.875 2.484375 -2.875 C 2.96875 -2.875 3.03125 -2.5 3.03125 -2.140625 L 3.03125 -0.546875 C 3.03125 -0.25 2.96875 -0.25 2.515625 -0.25 L 2.515625 0 C 2.53125 0 3.015625 -0.03125 3.3125 -0.03125 C 3.5625 -0.03125 4.046875 0 4.109375 0 L 4.109375 -0.25 C 3.65625 -0.25 3.59375 -0.25 3.59375 -0.546875 L 3.59375 -1.8125 C 3.59375 -2.53125 4.171875 -2.875 4.625 -2.875 C 5.109375 -2.875 5.171875 -2.5 5.171875 -2.140625 L 5.171875 -0.546875 C 5.171875 -0.25 5.109375 -0.25 4.65625 -0.25 L 4.65625 0 C 4.671875 0 5.15625 -0.03125 5.453125 -0.03125 C 5.703125 -0.03125 6.1875 0 6.25 0 L 6.25 -0.25 C 5.796875 -0.25 5.734375 -0.25 5.734375 -0.546875 Z M 5.734375 -2.109375 "
           id="path1773" />
      </symbol>
      <symbol
         overflow="visible"
         id="symbol9019">
        <path
           style="stroke:none;"
           d="M 1.46875 -4.296875 C 1.46875 -4.5 1.296875 -4.703125 1.0625 -4.703125 C 0.859375 -4.703125 0.671875 -4.53125 0.671875 -4.296875 C 0.671875 -4.046875 0.875 -3.890625 1.0625 -3.890625 C 1.296875 -3.890625 1.46875 -4.0625 1.46875 -4.296875 Z M 0.40625 -3 L 0.40625 -2.75 C 0.84375 -2.75 0.90625 -2.703125 0.90625 -2.359375 L 0.90625 -0.546875 C 0.90625 -0.25 0.84375 -0.25 0.390625 -0.25 L 0.390625 0 C 0.40625 0 0.890625 -0.03125 1.171875 -0.03125 C 1.421875 -0.03125 1.671875 -0.015625 1.90625 0 L 1.90625 -0.25 C 1.5 -0.25 1.4375 -0.25 1.4375 -0.546875 L 1.4375 -3.078125 Z M 0.40625 -3 "
           id="path8186" />
      </symbol>
      <symbol
         overflow="visible"
         id="symbol8013">
        <path
           style="stroke:none;"
           d="M 3.59375 -2.109375 C 3.59375 -2.71875 3.296875 -3.078125 2.546875 -3.078125 C 1.96875 -3.078125 1.609375 -2.765625 1.40625 -2.390625 L 1.40625 -3.078125 L 0.375 -3 L 0.375 -2.75 C 0.84375 -2.75 0.90625 -2.703125 0.90625 -2.359375 L 0.90625 -0.546875 C 0.90625 -0.25 0.828125 -0.25 0.375 -0.25 L 0.375 0 C 0.390625 0 0.875 -0.03125 1.171875 -0.03125 C 1.421875 -0.03125 1.90625 0 1.96875 0 L 1.96875 -0.25 C 1.515625 -0.25 1.453125 -0.25 1.453125 -0.546875 L 1.453125 -1.8125 C 1.453125 -2.53125 2.03125 -2.875 2.484375 -2.875 C 2.96875 -2.875 3.03125 -2.5 3.03125 -2.140625 L 3.03125 -0.546875 C 3.03125 -0.25 2.96875 -0.25 2.515625 -0.25 L 2.515625 0 C 2.53125 0 3.015625 -0.03125 3.3125 -0.03125 C 3.5625 -0.03125 4.046875 0 4.109375 0 L 4.109375 -0.25 C 3.65625 -0.25 3.59375 -0.25 3.59375 -0.546875 Z M 3.59375 -2.109375 "
           id="path8291" />
      </symbol>
    </g>
    <g
       id="g3155">
      <symbol
         overflow="visible"
         id="symbol9084">
        <path
           style="stroke:none;"
           d=""
           id="path7369" />
      </symbol>
      <symbol
         overflow="visible"
         id="symbol4482">
        <path
           style="stroke:none;"
           d="M 2.046875 -3.984375 L 2.984375 -3.984375 C 3.1875 -3.984375 3.296875 -3.984375 3.296875 -4.1875 C 3.296875 -4.296875 3.1875 -4.296875 3.015625 -4.296875 L 2.140625 -4.296875 C 2.5 -5.71875 2.546875 -5.90625 2.546875 -5.96875 C 2.546875 -6.140625 2.421875 -6.234375 2.25 -6.234375 C 2.21875 -6.234375 1.9375 -6.234375 1.859375 -5.875 L 1.46875 -4.296875 L 0.53125 -4.296875 C 0.328125 -4.296875 0.234375 -4.296875 0.234375 -4.109375 C 0.234375 -3.984375 0.3125 -3.984375 0.515625 -3.984375 L 1.390625 -3.984375 C 0.671875 -1.15625 0.625 -0.984375 0.625 -0.8125 C 0.625 -0.265625 1 0.109375 1.546875 0.109375 C 2.5625 0.109375 3.125 -1.34375 3.125 -1.421875 C 3.125 -1.53125 3.046875 -1.53125 3.015625 -1.53125 C 2.921875 -1.53125 2.90625 -1.5 2.859375 -1.390625 C 2.4375 -0.34375 1.90625 -0.109375 1.5625 -0.109375 C 1.359375 -0.109375 1.25 -0.234375 1.25 -0.5625 C 1.25 -0.8125 1.28125 -0.875 1.3125 -1.046875 Z M 2.046875 -3.984375 "
           id="path6623" />
      </symbol>
      <symbol
         overflow="visible"
         id="symbol8571">
        <path
           style="stroke:none;"
           d=""
           id="path1910" />
      </symbol>
      <symbol
         overflow="visible"
         id="symbol3921">
        <path
           style="stroke:none;"
           d="M 5.734375 -2.109375 C 5.734375 -2.71875 5.421875 -3.078125 4.6875 -3.078125 C 4.125 -3.078125 3.75 -2.78125 3.5625 -2.421875 C 3.421875 -2.921875 3.046875 -3.078125 2.546875 -3.078125 C 1.96875 -3.078125 1.609375 -2.765625 1.40625 -2.390625 L 1.40625 -3.078125 L 0.375 -3 L 0.375 -2.75 C 0.84375 -2.75 0.90625 -2.703125 0.90625 -2.359375 L 0.90625 -0.546875 C 0.90625 -0.25 0.828125 -0.25 0.375 -0.25 L 0.375 0 C 0.390625 0 0.875 -0.03125 1.171875 -0.03125 C 1.421875 -0.03125 1.90625 0 1.96875 0 L 1.96875 -0.25 C 1.515625 -0.25 1.453125 -0.25 1.453125 -0.546875 L 1.453125 -1.8125 C 1.453125 -2.53125 2.03125 -2.875 2.484375 -2.875 C 2.96875 -2.875 3.03125 -2.5 3.03125 -2.140625 L 3.03125 -0.546875 C 3.03125 -0.25 2.96875 -0.25 2.515625 -0.25 L 2.515625 0 C 2.53125 0 3.015625 -0.03125 3.3125 -0.03125 C 3.5625 -0.03125 4.046875 0 4.109375 0 L 4.109375 -0.25 C 3.65625 -0.25 3.59375 -0.25 3.59375 -0.546875 L 3.59375 -1.8125 C 3.59375 -2.53125 4.171875 -2.875 4.625 -2.875 C 5.109375 -2.875 5.171875 -2.5 5.171875 -2.140625 L 5.171875 -0.546875 C 5.171875 -0.25 5.109375 -0.25 4.65625 -0.25 L 4.65625 0 C 4.671875 0 5.15625 -0.03125 5.453125 -0.03125 C 5.703125 -0.03125 6.1875 0 6.25 0 L 6.25 -0.25 C 5.796875 -0.25 5.734375 -0.25 5.734375 -0.546875 Z M 5.734375 -2.109375 "
           id="path339" />
      </symbol>
      <symbol
         overflow="visible"
         id="symbol1077">
        <path
           style="stroke:none;"
           d="M 1.46875 -4.296875 C 1.46875 -4.5 1.296875 -4.703125 1.0625 -4.703125 C 0.859375 -4.703125 0.671875 -4.53125 0.671875 -4.296875 C 0.671875 -4.046875 0.875 -3.890625 1.0625 -3.890625 C 1.296875 -3.890625 1.46875 -4.0625 1.46875 -4.296875 Z M 0.40625 -3 L 0.40625 -2.75 C 0.84375 -2.75 0.90625 -2.703125 0.90625 -2.359375 L 0.90625 -0.546875 C 0.90625 -0.25 0.84375 -0.25 0.390625 -0.25 L 0.390625 0 C 0.40625 0 0.890625 -0.03125 1.171875 -0.03125 C 1.421875 -0.03125 1.671875 -0.015625 1.90625 0 L 1.90625 -0.25 C 1.5 -0.25 1.4375 -0.25 1.4375 -0.546875 L 1.4375 -3.078125 Z M 0.40625 -3 "
           id="path8423" />
      </symbol>
      <symbol
         overflow="visible"
         id="symbol4695">
        <path
           style="stroke:none;"
           d="M 3.59375 -2.109375 C 3.59375 -2.71875 3.296875 -3.078125 2.546875 -3.078125 C 1.96875 -3.078125 1.609375 -2.765625 1.40625 -2.390625 L 1.40625 -3.078125 L 0.375 -3 L 0.375 -2.75 C 0.84375 -2.75 0.90625 -2.703125 0.90625 -2.359375 L 0.90625 -0.546875 C 0.90625 -0.25 0.828125 -0.25 0.375 -0.25 L 0.375 0 C 0.390625 0 0.875 -0.03125 1.171875 -0.03125 C 1.421875 -0.03125 1.90625 0 1.96875 0 L 1.96875 -0.25 C 1.515625 -0.25 1.453125 -0.25 1.453125 -0.546875 L 1.453125 -1.8125 C 1.453125 -2.53125 2.03125 -2.875 2.484375 -2.875 C 2.96875 -2.875 3.03125 -2.5 3.03125 -2.140625 L 3.03125 -0.546875 C 3.03125 -0.25 2.96875 -0.25 2.515625 -0.25 L 2.515625 0 C 2.53125 0 3.015625 -0.03125 3.3125 -0.03125 C 3.5625 -0.03125 4.046875 0 4.109375 0 L 4.109375 -0.25 C 3.65625 -0.25 3.59375 -0.25 3.59375 -0.546875 Z M 3.59375 -2.109375 "
           id="path6659" />
      </symbol>
    </g>
    <g
       id="g1987">
      <symbol
         overflow="visible"
         id="symbol8987">
        <path
           style="stroke:none;"
           d=""
           id="path749" />
      </symbol>
      <symbol
         overflow="visible"
         id="symbol6527">
        <path
           style="stroke:none;"
           d="M 2.046875 -3.984375 L 2.984375 -3.984375 C 3.1875 -3.984375 3.296875 -3.984375 3.296875 -4.1875 C 3.296875 -4.296875 3.1875 -4.296875 3.015625 -4.296875 L 2.140625 -4.296875 C 2.5 -5.71875 2.546875 -5.90625 2.546875 -5.96875 C 2.546875 -6.140625 2.421875 -6.234375 2.25 -6.234375 C 2.21875 -6.234375 1.9375 -6.234375 1.859375 -5.875 L 1.46875 -4.296875 L 0.53125 -4.296875 C 0.328125 -4.296875 0.234375 -4.296875 0.234375 -4.109375 C 0.234375 -3.984375 0.3125 -3.984375 0.515625 -3.984375 L 1.390625 -3.984375 C 0.671875 -1.15625 0.625 -0.984375 0.625 -0.8125 C 0.625 -0.265625 1 0.109375 1.546875 0.109375 C 2.5625 0.109375 3.125 -1.34375 3.125 -1.421875 C 3.125 -1.53125 3.046875 -1.53125 3.015625 -1.53125 C 2.921875 -1.53125 2.90625 -1.5 2.859375 -1.390625 C 2.4375 -0.34375 1.90625 -0.109375 1.5625 -0.109375 C 1.359375 -0.109375 1.25 -0.234375 1.25 -0.5625 C 1.25 -0.8125 1.28125 -0.875 1.3125 -1.046875 Z M 2.046875 -3.984375 "
           id="path975" />
      </symbol>
      <symbol
         overflow="visible"
         id="symbol8383">
        <path
           style="stroke:none;"
           d=""
           id="path2628" />
      </symbol>
      <symbol
         overflow="visible"
         id="symbol454">
        <path
           style="stroke:none;"
           d="M 5.734375 -2.109375 C 5.734375 -2.71875 5.421875 -3.078125 4.6875 -3.078125 C 4.125 -3.078125 3.75 -2.78125 3.5625 -2.421875 C 3.421875 -2.921875 3.046875 -3.078125 2.546875 -3.078125 C 1.96875 -3.078125 1.609375 -2.765625 1.40625 -2.390625 L 1.40625 -3.078125 L 0.375 -3 L 0.375 -2.75 C 0.84375 -2.75 0.90625 -2.703125 0.90625 -2.359375 L 0.90625 -0.546875 C 0.90625 -0.25 0.828125 -0.25 0.375 -0.25 L 0.375 0 C 0.390625 0 0.875 -0.03125 1.171875 -0.03125 C 1.421875 -0.03125 1.90625 0 1.96875 0 L 1.96875 -0.25 C 1.515625 -0.25 1.453125 -0.25 1.453125 -0.546875 L 1.453125 -1.8125 C 1.453125 -2.53125 2.03125 -2.875 2.484375 -2.875 C 2.96875 -2.875 3.03125 -2.5 3.03125 -2.140625 L 3.03125 -0.546875 C 3.03125 -0.25 2.96875 -0.25 2.515625 -0.25 L 2.515625 0 C 2.53125 0 3.015625 -0.03125 3.3125 -0.03125 C 3.5625 -0.03125 4.046875 0 4.109375 0 L 4.109375 -0.25 C 3.65625 -0.25 3.59375 -0.25 3.59375 -0.546875 L 3.59375 -1.8125 C 3.59375 -2.53125 4.171875 -2.875 4.625 -2.875 C 5.109375 -2.875 5.171875 -2.5 5.171875 -2.140625 L 5.171875 -0.546875 C 5.171875 -0.25 5.109375 -0.25 4.65625 -0.25 L 4.65625 0 C 4.671875 0 5.15625 -0.03125 5.453125 -0.03125 C 5.703125 -0.03125 6.1875 0 6.25 0 L 6.25 -0.25 C 5.796875 -0.25 5.734375 -0.25 5.734375 -0.546875 Z M 5.734375 -2.109375 "
           id="path718" />
      </symbol>
      <symbol
         overflow="visible"
         id="symbol1229">
        <path
           style="stroke:none;"
           d="M 1.46875 -4.296875 C 1.46875 -4.5 1.296875 -4.703125 1.0625 -4.703125 C 0.859375 -4.703125 0.671875 -4.53125 0.671875 -4.296875 C 0.671875 -4.046875 0.875 -3.890625 1.0625 -3.890625 C 1.296875 -3.890625 1.46875 -4.0625 1.46875 -4.296875 Z M 0.40625 -3 L 0.40625 -2.75 C 0.84375 -2.75 0.90625 -2.703125 0.90625 -2.359375 L 0.90625 -0.546875 C 0.90625 -0.25 0.84375 -0.25 0.390625 -0.25 L 0.390625 0 C 0.40625 0 0.890625 -0.03125 1.171875 -0.03125 C 1.421875 -0.03125 1.671875 -0.015625 1.90625 0 L 1.90625 -0.25 C 1.5 -0.25 1.4375 -0.25 1.4375 -0.546875 L 1.4375 -3.078125 Z M 0.40625 -3 "
           id="path5763" />
      </symbol>
      <symbol
         overflow="visible"
         id="symbol7120">
        <path
           style="stroke:none;"
           d="M 3.59375 -2.109375 C 3.59375 -2.71875 3.296875 -3.078125 2.546875 -3.078125 C 1.96875 -3.078125 1.609375 -2.765625 1.40625 -2.390625 L 1.40625 -3.078125 L 0.375 -3 L 0.375 -2.75 C 0.84375 -2.75 0.90625 -2.703125 0.90625 -2.359375 L 0.90625 -0.546875 C 0.90625 -0.25 0.828125 -0.25 0.375 -0.25 L 0.375 0 C 0.390625 0 0.875 -0.03125 1.171875 -0.03125 C 1.421875 -0.03125 1.90625 0 1.96875 0 L 1.96875 -0.25 C 1.515625 -0.25 1.453125 -0.25 1.453125 -0.546875 L 1.453125 -1.8125 C 1.453125 -2.53125 2.03125 -2.875 2.484375 -2.875 C 2.96875 -2.875 3.03125 -2.5 3.03125 -2.140625 L 3.03125 -0.546875 C 3.03125 -0.25 2.96875 -0.25 2.515625 -0.25 L 2.515625 0 C 2.53125 0 3.015625 -0.03125 3.3125 -0.03125 C 3.5625 -0.03125 4.046875 0 4.109375 0 L 4.109375 -0.25 C 3.65625 -0.25 3.59375 -0.25 3.59375 -0.546875 Z M 3.59375 -2.109375 "
           id="path1948" />
      </symbol>
    </g>
    <g
       id="g2998">
      <symbol
         overflow="visible"
         id="symbol3052">
        <path
           style="stroke:none;"
           d=""
           id="path8765" />
      </symbol>
      <symbol
         overflow="visible"
         id="symbol7257">
        <path
           style="stroke:none;"
           d="M 2.046875 -3.984375 L 2.984375 -3.984375 C 3.1875 -3.984375 3.296875 -3.984375 3.296875 -4.1875 C 3.296875 -4.296875 3.1875 -4.296875 3.015625 -4.296875 L 2.140625 -4.296875 C 2.5 -5.71875 2.546875 -5.90625 2.546875 -5.96875 C 2.546875 -6.140625 2.421875 -6.234375 2.25 -6.234375 C 2.21875 -6.234375 1.9375 -6.234375 1.859375 -5.875 L 1.46875 -4.296875 L 0.53125 -4.296875 C 0.328125 -4.296875 0.234375 -4.296875 0.234375 -4.109375 C 0.234375 -3.984375 0.3125 -3.984375 0.515625 -3.984375 L 1.390625 -3.984375 C 0.671875 -1.15625 0.625 -0.984375 0.625 -0.8125 C 0.625 -0.265625 1 0.109375 1.546875 0.109375 C 2.5625 0.109375 3.125 -1.34375 3.125 -1.421875 C 3.125 -1.53125 3.046875 -1.53125 3.015625 -1.53125 C 2.921875 -1.53125 2.90625 -1.5 2.859375 -1.390625 C 2.4375 -0.34375 1.90625 -0.109375 1.5625 -0.109375 C 1.359375 -0.109375 1.25 -0.234375 1.25 -0.5625 C 1.25 -0.8125 1.28125 -0.875 1.3125 -1.046875 Z M 2.046875 -3.984375 "
           id="path8316" />
      </symbol>
      <symbol
         overflow="visible"
         id="symbol7429">
        <path
           style="stroke:none;"
           d=""
           id="path5544" />
      </symbol>
      <symbol
         overflow="visible"
         id="symbol9673">
        <path
           style="stroke:none;"
           d="M 5.734375 -2.109375 C 5.734375 -2.71875 5.421875 -3.078125 4.6875 -3.078125 C 4.125 -3.078125 3.75 -2.78125 3.5625 -2.421875 C 3.421875 -2.921875 3.046875 -3.078125 2.546875 -3.078125 C 1.96875 -3.078125 1.609375 -2.765625 1.40625 -2.390625 L 1.40625 -3.078125 L 0.375 -3 L 0.375 -2.75 C 0.84375 -2.75 0.90625 -2.703125 0.90625 -2.359375 L 0.90625 -0.546875 C 0.90625 -0.25 0.828125 -0.25 0.375 -0.25 L 0.375 0 C 0.390625 0 0.875 -0.03125 1.171875 -0.03125 C 1.421875 -0.03125 1.90625 0 1.96875 0 L 1.96875 -0.25 C 1.515625 -0.25 1.453125 -0.25 1.453125 -0.546875 L 1.453125 -1.8125 C 1.453125 -2.53125 2.03125 -2.875 2.484375 -2.875 C 2.96875 -2.875 3.03125 -2.5 3.03125 -2.140625 L 3.03125 -0.546875 C 3.03125 -0.25 2.96875 -0.25 2.515625 -0.25 L 2.515625 0 C 2.53125 0 3.015625 -0.03125 3.3125 -0.03125 C 3.5625 -0.03125 4.046875 0 4.109375 0 L 4.109375 -0.25 C 3.65625 -0.25 3.59375 -0.25 3.59375 -0.546875 L 3.59375 -1.8125 C 3.59375 -2.53125 4.171875 -2.875 4.625 -2.875 C 5.109375 -2.875 5.171875 -2.5 5.171875 -2.140625 L 5.171875 -0.546875 C 5.171875 -0.25 5.109375 -0.25 4.65625 -0.25 L 4.65625 0 C 4.671875 0 5.15625 -0.03125 5.453125 -0.03125 C 5.703125 -0.03125 6.1875 0 6.25 0 L 6.25 -0.25 C 5.796875 -0.25 5.734375 -0.25 5.734375 -0.546875 Z M 5.734375 -2.109375 "
           id="path2972" />
      </symbol>
      <symbol
         overflow="visible"
         id="symbol6988">
        <path
           style="stroke:none;"
           d="M 3.109375 -1.875 C 3.109375 -2.234375 3.109375 -2.5 2.78125 -2.765625 C 2.5 -3 2.171875 -3.109375 1.75 -3.109375 C 1.09375 -3.109375 0.625 -2.859375 0.625 -2.4375 C 0.625 -2.203125 0.78125 -2.09375 0.96875 -2.09375 C 1.15625 -2.09375 1.296875 -2.234375 1.296875 -2.421875 C 1.296875 -2.53125 1.234375 -2.6875 1.046875 -2.734375 C 1.296875 -2.90625 1.703125 -2.90625 1.734375 -2.90625 C 2.125 -2.90625 2.5625 -2.65625 2.5625 -2.0625 L 2.5625 -1.859375 C 2.171875 -1.84375 1.71875 -1.8125 1.203125 -1.625 C 0.578125 -1.40625 0.390625 -1.015625 0.390625 -0.703125 C 0.390625 -0.109375 1.109375 0.0625 1.609375 0.0625 C 2.15625 0.0625 2.484375 -0.25 2.640625 -0.515625 C 2.65625 -0.234375 2.84375 0.03125 3.171875 0.03125 C 3.1875 0.03125 3.859375 0.03125 3.859375 -0.625 L 3.859375 -1.015625 L 3.625 -1.015625 L 3.625 -0.640625 C 3.625 -0.5625 3.625 -0.234375 3.359375 -0.234375 C 3.109375 -0.234375 3.109375 -0.5625 3.109375 -0.640625 Z M 2.5625 -0.984375 C 2.5625 -0.3125 1.96875 -0.125 1.65625 -0.125 C 1.296875 -0.125 0.96875 -0.359375 0.96875 -0.703125 C 0.96875 -1.09375 1.296875 -1.625 2.5625 -1.671875 Z M 2.5625 -0.984375 "
           id="path7687" />
      </symbol>
      <symbol
         overflow="visible"
         id="symbol167">
        <path
           style="stroke:none;"
           d="M 2.359375 -1.5625 C 2.359375 -1.5625 2.3125 -1.625 2.3125 -1.625 C 2.3125 -1.65625 2.765625 -2.140625 2.828125 -2.203125 C 3.078125 -2.484375 3.3125 -2.75 3.875 -2.75 L 3.875 -3 C 3.671875 -2.984375 3.46875 -2.96875 3.28125 -2.96875 C 3.078125 -2.96875 2.796875 -2.984375 2.59375 -3 L 2.59375 -2.75 C 2.703125 -2.734375 2.734375 -2.65625 2.734375 -2.59375 C 2.734375 -2.578125 2.734375 -2.46875 2.625 -2.359375 L 2.140625 -1.8125 L 1.5625 -2.46875 C 1.484375 -2.546875 1.484375 -2.578125 1.484375 -2.609375 C 1.484375 -2.703125 1.578125 -2.75 1.671875 -2.75 L 1.671875 -3 C 1.421875 -2.984375 1.15625 -2.96875 0.890625 -2.96875 C 0.6875 -2.96875 0.421875 -2.984375 0.21875 -3 L 0.21875 -2.75 C 0.53125 -2.75 0.71875 -2.75 0.90625 -2.546875 L 1.765625 -1.546875 C 1.78125 -1.53125 1.828125 -1.484375 1.828125 -1.46875 C 1.828125 -1.453125 1.296875 -0.875 1.234375 -0.796875 C 0.96875 -0.515625 0.734375 -0.265625 0.1875 -0.25 L 0.1875 0 C 0.390625 -0.015625 0.546875 -0.03125 0.765625 -0.03125 C 0.96875 -0.03125 1.25 -0.015625 1.453125 0 L 1.453125 -0.25 C 1.375 -0.265625 1.3125 -0.3125 1.3125 -0.40625 C 1.3125 -0.546875 1.390625 -0.640625 1.5 -0.75 L 2 -1.296875 L 2.59375 -0.59375 C 2.734375 -0.453125 2.734375 -0.4375 2.734375 -0.390625 C 2.734375 -0.265625 2.578125 -0.25 2.546875 -0.25 L 2.546875 0 C 2.609375 0 3.109375 -0.03125 3.328125 -0.03125 C 3.546875 -0.03125 3.78125 -0.015625 4 0 L 4 -0.25 C 3.53125 -0.25 3.484375 -0.296875 3.3125 -0.46875 Z M 2.359375 -1.5625 "
           id="path7532" />
      </symbol>
    </g>
    <g
       id="g7562">
      <symbol
         overflow="visible"
         id="symbol4">
        <path
           style="stroke:none;"
           d=""
           id="path4930" />
      </symbol>
      <symbol
         overflow="visible"
         id="symbol1491">
        <path
           style="stroke:none;"
           d="M 2.046875 -3.984375 L 2.984375 -3.984375 C 3.1875 -3.984375 3.296875 -3.984375 3.296875 -4.1875 C 3.296875 -4.296875 3.1875 -4.296875 3.015625 -4.296875 L 2.140625 -4.296875 C 2.5 -5.71875 2.546875 -5.90625 2.546875 -5.96875 C 2.546875 -6.140625 2.421875 -6.234375 2.25 -6.234375 C 2.21875 -6.234375 1.9375 -6.234375 1.859375 -5.875 L 1.46875 -4.296875 L 0.53125 -4.296875 C 0.328125 -4.296875 0.234375 -4.296875 0.234375 -4.109375 C 0.234375 -3.984375 0.3125 -3.984375 0.515625 -3.984375 L 1.390625 -3.984375 C 0.671875 -1.15625 0.625 -0.984375 0.625 -0.8125 C 0.625 -0.265625 1 0.109375 1.546875 0.109375 C 2.5625 0.109375 3.125 -1.34375 3.125 -1.421875 C 3.125 -1.53125 3.046875 -1.53125 3.015625 -1.53125 C 2.921875 -1.53125 2.90625 -1.5 2.859375 -1.390625 C 2.4375 -0.34375 1.90625 -0.109375 1.5625 -0.109375 C 1.359375 -0.109375 1.25 -0.234375 1.25 -0.5625 C 1.25 -0.8125 1.28125 -0.875 1.3125 -1.046875 Z M 2.046875 -3.984375 "
           id="path5463" />
      </symbol>
      <symbol
         overflow="visible"
         id="symbol6395">
        <path
           style="stroke:none;"
           d=""
           id="path3344" />
      </symbol>
      <symbol
         overflow="visible"
         id="symbol7652">
        <path
           style="stroke:none;"
           d="M 5.734375 -2.109375 C 5.734375 -2.71875 5.421875 -3.078125 4.6875 -3.078125 C 4.125 -3.078125 3.75 -2.78125 3.5625 -2.421875 C 3.421875 -2.921875 3.046875 -3.078125 2.546875 -3.078125 C 1.96875 -3.078125 1.609375 -2.765625 1.40625 -2.390625 L 1.40625 -3.078125 L 0.375 -3 L 0.375 -2.75 C 0.84375 -2.75 0.90625 -2.703125 0.90625 -2.359375 L 0.90625 -0.546875 C 0.90625 -0.25 0.828125 -0.25 0.375 -0.25 L 0.375 0 C 0.390625 0 0.875 -0.03125 1.171875 -0.03125 C 1.421875 -0.03125 1.90625 0 1.96875 0 L 1.96875 -0.25 C 1.515625 -0.25 1.453125 -0.25 1.453125 -0.546875 L 1.453125 -1.8125 C 1.453125 -2.53125 2.03125 -2.875 2.484375 -2.875 C 2.96875 -2.875 3.03125 -2.5 3.03125 -2.140625 L 3.03125 -0.546875 C 3.03125 -0.25 2.96875 -0.25 2.515625 -0.25 L 2.515625 0 C 2.53125 0 3.015625 -0.03125 3.3125 -0.03125 C 3.5625 -0.03125 4.046875 0 4.109375 0 L 4.109375 -0.25 C 3.65625 -0.25 3.59375 -0.25 3.59375 -0.546875 L 3.59375 -1.8125 C 3.59375 -2.53125 4.171875 -2.875 4.625 -2.875 C 5.109375 -2.875 5.171875 -2.5 5.171875 -2.140625 L 5.171875 -0.546875 C 5.171875 -0.25 5.109375 -0.25 4.65625 -0.25 L 4.65625 0 C 4.671875 0 5.15625 -0.03125 5.453125 -0.03125 C 5.703125 -0.03125 6.1875 0 6.25 0 L 6.25 -0.25 C 5.796875 -0.25 5.734375 -0.25 5.734375 -0.546875 Z M 5.734375 -2.109375 "
           id="path6510" />
      </symbol>
      <symbol
         overflow="visible"
         id="symbol8501">
        <path
           style="stroke:none;"
           d="M 3.109375 -1.875 C 3.109375 -2.234375 3.109375 -2.5 2.78125 -2.765625 C 2.5 -3 2.171875 -3.109375 1.75 -3.109375 C 1.09375 -3.109375 0.625 -2.859375 0.625 -2.4375 C 0.625 -2.203125 0.78125 -2.09375 0.96875 -2.09375 C 1.15625 -2.09375 1.296875 -2.234375 1.296875 -2.421875 C 1.296875 -2.53125 1.234375 -2.6875 1.046875 -2.734375 C 1.296875 -2.90625 1.703125 -2.90625 1.734375 -2.90625 C 2.125 -2.90625 2.5625 -2.65625 2.5625 -2.0625 L 2.5625 -1.859375 C 2.171875 -1.84375 1.71875 -1.8125 1.203125 -1.625 C 0.578125 -1.40625 0.390625 -1.015625 0.390625 -0.703125 C 0.390625 -0.109375 1.109375 0.0625 1.609375 0.0625 C 2.15625 0.0625 2.484375 -0.25 2.640625 -0.515625 C 2.65625 -0.234375 2.84375 0.03125 3.171875 0.03125 C 3.1875 0.03125 3.859375 0.03125 3.859375 -0.625 L 3.859375 -1.015625 L 3.625 -1.015625 L 3.625 -0.640625 C 3.625 -0.5625 3.625 -0.234375 3.359375 -0.234375 C 3.109375 -0.234375 3.109375 -0.5625 3.109375 -0.640625 Z M 2.5625 -0.984375 C 2.5625 -0.3125 1.96875 -0.125 1.65625 -0.125 C 1.296875 -0.125 0.96875 -0.359375 0.96875 -0.703125 C 0.96875 -1.09375 1.296875 -1.625 2.5625 -1.671875 Z M 2.5625 -0.984375 "
           id="path3280" />
      </symbol>
      <symbol
         overflow="visible"
         id="symbol9909">
        <path
           style="stroke:none;"
           d="M 2.359375 -1.5625 C 2.359375 -1.5625 2.3125 -1.625 2.3125 -1.625 C 2.3125 -1.65625 2.765625 -2.140625 2.828125 -2.203125 C 3.078125 -2.484375 3.3125 -2.75 3.875 -2.75 L 3.875 -3 C 3.671875 -2.984375 3.46875 -2.96875 3.28125 -2.96875 C 3.078125 -2.96875 2.796875 -2.984375 2.59375 -3 L 2.59375 -2.75 C 2.703125 -2.734375 2.734375 -2.65625 2.734375 -2.59375 C 2.734375 -2.578125 2.734375 -2.46875 2.625 -2.359375 L 2.140625 -1.8125 L 1.5625 -2.46875 C 1.484375 -2.546875 1.484375 -2.578125 1.484375 -2.609375 C 1.484375 -2.703125 1.578125 -2.75 1.671875 -2.75 L 1.671875 -3 C 1.421875 -2.984375 1.15625 -2.96875 0.890625 -2.96875 C 0.6875 -2.96875 0.421875 -2.984375 0.21875 -3 L 0.21875 -2.75 C 0.53125 -2.75 0.71875 -2.75 0.90625 -2.546875 L 1.765625 -1.546875 C 1.78125 -1.53125 1.828125 -1.484375 1.828125 -1.46875 C 1.828125 -1.453125 1.296875 -0.875 1.234375 -0.796875 C 0.96875 -0.515625 0.734375 -0.265625 0.1875 -0.25 L 0.1875 0 C 0.390625 -0.015625 0.546875 -0.03125 0.765625 -0.03125 C 0.96875 -0.03125 1.25 -0.015625 1.453125 0 L 1.453125 -0.25 C 1.375 -0.265625 1.3125 -0.3125 1.3125 -0.40625 C 1.3125 -0.546875 1.390625 -0.640625 1.5 -0.75 L 2 -1.296875 L 2.59375 -0.59375 C 2.734375 -0.453125 2.734375 -0.4375 2.734375 -0.390625 C 2.734375 -0.265625 2.578125 -0.25 2.546875 -0.25 L 2.546875 0 C 2.609375 0 3.109375 -0.03125 3.328125 -0.03125 C 3.546875 -0.03125 3.78125 -0.015625 4 0 L 4 -0.25 C 3.53125 -0.25 3.484375 -0.296875 3.3125 -0.46875 Z M 2.359375 -1.5625 "
           id="path7859" />
      </symbol>
    </g>
    <g
       id="g2858">
      <symbol
         overflow="visible"
         id="symbol1799">
        <path
           style="stroke:none;"
           d=""
           id="path2535" />
      </symbol>
      <symbol
         overflow="visible"
         id="symbol4515">
        <path
           style="stroke:none;"
           d="M 2.046875 -3.984375 L 2.984375 -3.984375 C 3.1875 -3.984375 3.296875 -3.984375 3.296875 -4.1875 C 3.296875 -4.296875 3.1875 -4.296875 3.015625 -4.296875 L 2.140625 -4.296875 C 2.5 -5.71875 2.546875 -5.90625 2.546875 -5.96875 C 2.546875 -6.140625 2.421875 -6.234375 2.25 -6.234375 C 2.21875 -6.234375 1.9375 -6.234375 1.859375 -5.875 L 1.46875 -4.296875 L 0.53125 -4.296875 C 0.328125 -4.296875 0.234375 -4.296875 0.234375 -4.109375 C 0.234375 -3.984375 0.3125 -3.984375 0.515625 -3.984375 L 1.390625 -3.984375 C 0.671875 -1.15625 0.625 -0.984375 0.625 -0.8125 C 0.625 -0.265625 1 0.109375 1.546875 0.109375 C 2.5625 0.109375 3.125 -1.34375 3.125 -1.421875 C 3.125 -1.53125 3.046875 -1.53125 3.015625 -1.53125 C 2.921875 -1.53125 2.90625 -1.5 2.859375 -1.390625 C 2.4375 -0.34375 1.90625 -0.109375 1.5625 -0.109375 C 1.359375 -0.109375 1.25 -0.234375 1.25 -0.5625 C 1.25 -0.8125 1.28125 -0.875 1.3125 -1.046875 Z M 2.046875 -3.984375 "
           id="path9025" />
      </symbol>
      <symbol
         overflow="visible"
         id="symbol6376">
        <path
           style="stroke:none;"
           d=""
           id="path4140" />
      </symbol>
      <symbol
         overflow="visible"
         id="symbol614">
        <path
           style="stroke:none;"
           d="M 5.734375 -2.109375 C 5.734375 -2.71875 5.421875 -3.078125 4.6875 -3.078125 C 4.125 -3.078125 3.75 -2.78125 3.5625 -2.421875 C 3.421875 -2.921875 3.046875 -3.078125 2.546875 -3.078125 C 1.96875 -3.078125 1.609375 -2.765625 1.40625 -2.390625 L 1.40625 -3.078125 L 0.375 -3 L 0.375 -2.75 C 0.84375 -2.75 0.90625 -2.703125 0.90625 -2.359375 L 0.90625 -0.546875 C 0.90625 -0.25 0.828125 -0.25 0.375 -0.25 L 0.375 0 C 0.390625 0 0.875 -0.03125 1.171875 -0.03125 C 1.421875 -0.03125 1.90625 0 1.96875 0 L 1.96875 -0.25 C 1.515625 -0.25 1.453125 -0.25 1.453125 -0.546875 L 1.453125 -1.8125 C 1.453125 -2.53125 2.03125 -2.875 2.484375 -2.875 C 2.96875 -2.875 3.03125 -2.5 3.03125 -2.140625 L 3.03125 -0.546875 C 3.03125 -0.25 2.96875 -0.25 2.515625 -0.25 L 2.515625 0 C 2.53125 0 3.015625 -0.03125 3.3125 -0.03125 C 3.5625 -0.03125 4.046875 0 4.109375 0 L 4.109375 -0.25 C 3.65625 -0.25 3.59375 -0.25 3.59375 -0.546875 L 3.59375 -1.8125 C 3.59375 -2.53125 4.171875 -2.875 4.625 -2.875 C 5.109375 -2.875 5.171875 -2.5 5.171875 -2.140625 L 5.171875 -0.546875 C 5.171875 -0.25 5.109375 -0.25 4.65625 -0.25 L 4.65625 0 C 4.671875 0 5.15625 -0.03125 5.453125 -0.03125 C 5.703125 -0.03125 6.1875 0 6.25 0 L 6.25 -0.25 C 5.796875 -0.25 5.734375 -0.25 5.734375 -0.546875 Z M 5.734375 -2.109375 "
           id="path3597" />
      </symbol>
      <symbol
         overflow="visible"
         id="symbol8766">
        <path
           style="stroke:none;"
           d="M 3.109375 -1.875 C 3.109375 -2.234375 3.109375 -2.5 2.78125 -2.765625 C 2.5 -3 2.171875 -3.109375 1.75 -3.109375 C 1.09375 -3.109375 0.625 -2.859375 0.625 -2.4375 C 0.625 -2.203125 0.78125 -2.09375 0.96875 -2.09375 C 1.15625 -2.09375 1.296875 -2.234375 1.296875 -2.421875 C 1.296875 -2.53125 1.234375 -2.6875 1.046875 -2.734375 C 1.296875 -2.90625 1.703125 -2.90625 1.734375 -2.90625 C 2.125 -2.90625 2.5625 -2.65625 2.5625 -2.0625 L 2.5625 -1.859375 C 2.171875 -1.84375 1.71875 -1.8125 1.203125 -1.625 C 0.578125 -1.40625 0.390625 -1.015625 0.390625 -0.703125 C 0.390625 -0.109375 1.109375 0.0625 1.609375 0.0625 C 2.15625 0.0625 2.484375 -0.25 2.640625 -0.515625 C 2.65625 -0.234375 2.84375 0.03125 3.171875 0.03125 C 3.1875 0.03125 3.859375 0.03125 3.859375 -0.625 L 3.859375 -1.015625 L 3.625 -1.015625 L 3.625 -0.640625 C 3.625 -0.5625 3.625 -0.234375 3.359375 -0.234375 C 3.109375 -0.234375 3.109375 -0.5625 3.109375 -0.640625 Z M 2.5625 -0.984375 C 2.5625 -0.3125 1.96875 -0.125 1.65625 -0.125 C 1.296875 -0.125 0.96875 -0.359375 0.96875 -0.703125 C 0.96875 -1.09375 1.296875 -1.625 2.5625 -1.671875 Z M 2.5625 -0.984375 "
           id="path9715" />
      </symbol>
      <symbol
         overflow="visible"
         id="symbol4120">
        <path
           style="stroke:none;"
           d="M 2.359375 -1.5625 C 2.359375 -1.5625 2.3125 -1.625 2.3125 -1.625 C 2.3125 -1.65625 2.765625 -2.140625 2.828125 -2.203125 C 3.078125 -2.484375 3.3125 -2.75 3.875 -2.75 L 3.875 -3 C 3.671875 -2.984375 3.46875 -2.96875 3.28125 -2.96875 C 3.078125 -2.96875 2.796875 -2.984375 2.59375 -3 L 2.59375 -2.75 C 2.703125 -2.734375 2.734375 -2.65625 2.734375 -2.59375 C 2.734375 -2.578125 2.734375 -2.46875 2.625 -2.359375 L 2.140625 -1.8125 L 1.5625 -2.46875 C 1.484375 -2.546875 1.484375 -2.578125 1.484375 -2.609375 C 1.484375 -2.703125 1.578125 -2.75 1.671875 -2.75 L 1.671875 -3 C 1.421875 -2.984375 1.15625 -2.96875 0.890625 -2.96875 C 0.6875 -2.96875 0.421875 -2.984375 0.21875 -3 L 0.21875 -2.75 C 0.53125 -2.75 0.71875 -2.75 0.90625 -2.546875 L 1.765625 -1.546875 C 1.78125 -1.53125 1.828125 -1.484375 1.828125 -1.46875 C 1.828125 -1.453125 1.296875 -0.875 1.234375 -0.796875 C 0.96875 -0.515625 0.734375 -0.265625 0.1875 -0.25 L 0.1875 0 C 0.390625 -0.015625 0.546875 -0.03125 0.765625 -0.03125 C 0.96875 -0.03125 1.25 -0.015625 1.453125 0 L 1.453125 -0.25 C 1.375 -0.265625 1.3125 -0.3125 1.3125 -0.40625 C 1.3125 -0.546875 1.390625 -0.640625 1.5 -0.75 L 2 -1.296875 L 2.59375 -0.59375 C 2.734375 -0.453125 2.734375 -0.4375 2.734375 -0.390625 C 2.734375 -0.265625 2.578125 -0.25 2.546875 -0.25 L 2.546875 0 C 2.609375 0 3.109375 -0.03125 3.328125 -0.03125 C 3.546875 -0.03125 3.78125 -0.015625 4 0 L 4 -0.25 C 3.53125 -0.25 3.484375 -0.296875 3.3125 -0.46875 Z M 2.359375 -1.5625 "
           id="path561" />
      </symbol>
    </g>
    <g
       id="g5950">
      <symbol
         overflow="visible"
         id="symbol3974">
        <path
           style="stroke:none;"
           d=""
           id="path6708" />
      </symbol>
      <symbol
         overflow="visible"
         id="symbol7083">
        <path
           style="stroke:none;"
           d="M 2.046875 -3.984375 L 2.984375 -3.984375 C 3.1875 -3.984375 3.296875 -3.984375 3.296875 -4.1875 C 3.296875 -4.296875 3.1875 -4.296875 3.015625 -4.296875 L 2.140625 -4.296875 C 2.5 -5.71875 2.546875 -5.90625 2.546875 -5.96875 C 2.546875 -6.140625 2.421875 -6.234375 2.25 -6.234375 C 2.21875 -6.234375 1.9375 -6.234375 1.859375 -5.875 L 1.46875 -4.296875 L 0.53125 -4.296875 C 0.328125 -4.296875 0.234375 -4.296875 0.234375 -4.109375 C 0.234375 -3.984375 0.3125 -3.984375 0.515625 -3.984375 L 1.390625 -3.984375 C 0.671875 -1.15625 0.625 -0.984375 0.625 -0.8125 C 0.625 -0.265625 1 0.109375 1.546875 0.109375 C 2.5625 0.109375 3.125 -1.34375 3.125 -1.421875 C 3.125 -1.53125 3.046875 -1.53125 3.015625 -1.53125 C 2.921875 -1.53125 2.90625 -1.5 2.859375 -1.390625 C 2.4375 -0.34375 1.90625 -0.109375 1.5625 -0.109375 C 1.359375 -0.109375 1.25 -0.234375 1.25 -0.5625 C 1.25 -0.8125 1.28125 -0.875 1.3125 -1.046875 Z M 2.046875 -3.984375 "
           id="path1163" />
      </symbol>
      <symbol
         overflow="visible"
         id="symbol7934">
        <path
           style="stroke:none;"
           d=""
           id="path2199" />
      </symbol>
      <symbol
         overflow="visible"
         id="symbol6594">
        <path
           style="stroke:none;"
           d="M 5.734375 -2.109375 C 5.734375 -2.71875 5.421875 -3.078125 4.6875 -3.078125 C 4.125 -3.078125 3.75 -2.78125 3.5625 -2.421875 C 3.421875 -2.921875 3.046875 -3.078125 2.546875 -3.078125 C 1.96875 -3.078125 1.609375 -2.765625 1.40625 -2.390625 L 1.40625 -3.078125 L 0.375 -3 L 0.375 -2.75 C 0.84375 -2.75 0.90625 -2.703125 0.90625 -2.359375 L 0.90625 -0.546875 C 0.90625 -0.25 0.828125 -0.25 0.375 -0.25 L 0.375 0 C 0.390625 0 0.875 -0.03125 1.171875 -0.03125 C 1.421875 -0.03125 1.90625 0 1.96875 0 L 1.96875 -0.25 C 1.515625 -0.25 1.453125 -0.25 1.453125 -0.546875 L 1.453125 -1.8125 C 1.453125 -2.53125 2.03125 -2.875 2.484375 -2.875 C 2.96875 -2.875 3.03125 -2.5 3.03125 -2.140625 L 3.03125 -0.546875 C 3.03125 -0.25 2.96875 -0.25 2.515625 -0.25 L 2.515625 0 C 2.53125 0 3.015625 -0.03125 3.3125 -0.03125 C 3.5625 -0.03125 4.046875 0 4.109375 0 L 4.109375 -0.25 C 3.65625 -0.25 3.59375 -0.25 3.59375 -0.546875 L 3.59375 -1.8125 C 3.59375 -2.53125 4.171875 -2.875 4.625 -2.875 C 5.109375 -2.875 5.171875 -2.5 5.171875 -2.140625 L 5.171875 -0.546875 C 5.171875 -0.25 5.109375 -0.25 4.65625 -0.25 L 4.65625 0 C 4.671875 0 5.15625 -0.03125 5.453125 -0.03125 C 5.703125 -0.03125 6.1875 0 6.25 0 L 6.25 -0.25 C 5.796875 -0.25 5.734375 -0.25 5.734375 -0.546875 Z M 5.734375 -2.109375 "
           id="path9968" />
      </symbol>
      <symbol
         overflow="visible"
         id="symbol4419">
        <path
           style="stroke:none;"
           d="M 3.109375 -1.875 C 3.109375 -2.234375 3.109375 -2.5 2.78125 -2.765625 C 2.5 -3 2.171875 -3.109375 1.75 -3.109375 C 1.09375 -3.109375 0.625 -2.859375 0.625 -2.4375 C 0.625 -2.203125 0.78125 -2.09375 0.96875 -2.09375 C 1.15625 -2.09375 1.296875 -2.234375 1.296875 -2.421875 C 1.296875 -2.53125 1.234375 -2.6875 1.046875 -2.734375 C 1.296875 -2.90625 1.703125 -2.90625 1.734375 -2.90625 C 2.125 -2.90625 2.5625 -2.65625 2.5625 -2.0625 L 2.5625 -1.859375 C 2.171875 -1.84375 1.71875 -1.8125 1.203125 -1.625 C 0.578125 -1.40625 0.390625 -1.015625 0.390625 -0.703125 C 0.390625 -0.109375 1.109375 0.0625 1.609375 0.0625 C 2.15625 0.0625 2.484375 -0.25 2.640625 -0.515625 C 2.65625 -0.234375 2.84375 0.03125 3.171875 0.03125 C 3.1875 0.03125 3.859375 0.03125 3.859375 -0.625 L 3.859375 -1.015625 L 3.625 -1.015625 L 3.625 -0.640625 C 3.625 -0.5625 3.625 -0.234375 3.359375 -0.234375 C 3.109375 -0.234375 3.109375 -0.5625 3.109375 -0.640625 Z M 2.5625 -0.984375 C 2.5625 -0.3125 1.96875 -0.125 1.65625 -0.125 C 1.296875 -0.125 0.96875 -0.359375 0.96875 -0.703125 C 0.96875 -1.09375 1.296875 -1.625 2.5625 -1.671875 Z M 2.5625 -0.984375 "
           id="path4005" />
      </symbol>
      <symbol
         overflow="visible"
         id="symbol7921">
        <path
           style="stroke:none;"
           d="M 2.359375 -1.5625 C 2.359375 -1.5625 2.3125 -1.625 2.3125 -1.625 C 2.3125 -1.65625 2.765625 -2.140625 2.828125 -2.203125 C 3.078125 -2.484375 3.3125 -2.75 3.875 -2.75 L 3.875 -3 C 3.671875 -2.984375 3.46875 -2.96875 3.28125 -2.96875 C 3.078125 -2.96875 2.796875 -2.984375 2.59375 -3 L 2.59375 -2.75 C 2.703125 -2.734375 2.734375 -2.65625 2.734375 -2.59375 C 2.734375 -2.578125 2.734375 -2.46875 2.625 -2.359375 L 2.140625 -1.8125 L 1.5625 -2.46875 C 1.484375 -2.546875 1.484375 -2.578125 1.484375 -2.609375 C 1.484375 -2.703125 1.578125 -2.75 1.671875 -2.75 L 1.671875 -3 C 1.421875 -2.984375 1.15625 -2.96875 0.890625 -2.96875 C 0.6875 -2.96875 0.421875 -2.984375 0.21875 -3 L 0.21875 -2.75 C 0.53125 -2.75 0.71875 -2.75 0.90625 -2.546875 L 1.765625 -1.546875 C 1.78125 -1.53125 1.828125 -1.484375 1.828125 -1.46875 C 1.828125 -1.453125 1.296875 -0.875 1.234375 -0.796875 C 0.96875 -0.515625 0.734375 -0.265625 0.1875 -0.25 L 0.1875 0 C 0.390625 -0.015625 0.546875 -0.03125 0.765625 -0.03125 C 0.96875 -0.03125 1.25 -0.015625 1.453125 0 L 1.453125 -0.25 C 1.375 -0.265625 1.3125 -0.3125 1.3125 -0.40625 C 1.3125 -0.546875 1.390625 -0.640625 1.5 -0.75 L 2 -1.296875 L 2.59375 -0.59375 C 2.734375 -0.453125 2.734375 -0.4375 2.734375 -0.390625 C 2.734375 -0.265625 2.578125 -0.25 2.546875 -0.25 L 2.546875 0 C 2.609375 0 3.109375 -0.03125 3.328125 -0.03125 C 3.546875 -0.03125 3.78125 -0.015625 4 0 L 4 -0.25 C 3.53125 -0.25 3.484375 -0.296875 3.3125 -0.46875 Z M 2.359375 -1.5625 "
           id="path3494" />
      </symbol>
    </g>
    <g
       id="g6622">
      <symbol
         overflow="visible"
         id="symbol6812">
        <path
           style="stroke:none;"
           d=""
           id="path7218" />
      </symbol>
      <symbol
         overflow="visible"
         id="symbol9724">
        <path
           style="stroke:none;"
           d="M 2.046875 -3.984375 L 2.984375 -3.984375 C 3.1875 -3.984375 3.296875 -3.984375 3.296875 -4.1875 C 3.296875 -4.296875 3.1875 -4.296875 3.015625 -4.296875 L 2.140625 -4.296875 C 2.5 -5.71875 2.546875 -5.90625 2.546875 -5.96875 C 2.546875 -6.140625 2.421875 -6.234375 2.25 -6.234375 C 2.21875 -6.234375 1.9375 -6.234375 1.859375 -5.875 L 1.46875 -4.296875 L 0.53125 -4.296875 C 0.328125 -4.296875 0.234375 -4.296875 0.234375 -4.109375 C 0.234375 -3.984375 0.3125 -3.984375 0.515625 -3.984375 L 1.390625 -3.984375 C 0.671875 -1.15625 0.625 -0.984375 0.625 -0.8125 C 0.625 -0.265625 1 0.109375 1.546875 0.109375 C 2.5625 0.109375 3.125 -1.34375 3.125 -1.421875 C 3.125 -1.53125 3.046875 -1.53125 3.015625 -1.53125 C 2.921875 -1.53125 2.90625 -1.5 2.859375 -1.390625 C 2.4375 -0.34375 1.90625 -0.109375 1.5625 -0.109375 C 1.359375 -0.109375 1.25 -0.234375 1.25 -0.5625 C 1.25 -0.8125 1.28125 -0.875 1.3125 -1.046875 Z M 2.046875 -3.984375 "
           id="path9535" />
      </symbol>
      <symbol
         overflow="visible"
         id="symbol5152">
        <path
           style="stroke:none;"
           d=""
           id="path3500" />
      </symbol>
      <symbol
         overflow="visible"
         id="symbol29">
        <path
           style="stroke:none;"
           d="M 2.640625 -2.921875 C 2.640625 -3.046875 2.640625 -3.109375 2.546875 -3.109375 C 2.515625 -3.109375 2.5 -3.109375 2.40625 -3.03125 C 2.390625 -3.015625 2.328125 -2.953125 2.28125 -2.921875 C 2.0625 -3.0625 1.8125 -3.109375 1.546875 -3.109375 C 0.546875 -3.109375 0.3125 -2.578125 0.3125 -2.234375 C 0.3125 -2.015625 0.40625 -1.828125 0.578125 -1.6875 C 0.84375 -1.46875 1.109375 -1.421875 1.546875 -1.34375 C 1.890625 -1.28125 2.453125 -1.1875 2.453125 -0.71875 C 2.453125 -0.453125 2.265625 -0.125 1.59375 -0.125 C 0.921875 -0.125 0.6875 -0.5625 0.5625 -1.03125 C 0.53125 -1.125 0.53125 -1.15625 0.4375 -1.15625 C 0.3125 -1.15625 0.3125 -1.109375 0.3125 -0.96875 L 0.3125 -0.109375 C 0.3125 0 0.3125 0.0625 0.40625 0.0625 C 0.46875 0.0625 0.609375 -0.078125 0.75 -0.234375 C 1.046875 0.0625 1.421875 0.0625 1.59375 0.0625 C 2.5 0.0625 2.84375 -0.421875 2.84375 -0.90625 C 2.84375 -1.171875 2.71875 -1.390625 2.53125 -1.546875 C 2.265625 -1.796875 1.953125 -1.859375 1.703125 -1.890625 C 1.15625 -2 0.703125 -2.078125 0.703125 -2.453125 C 0.703125 -2.671875 0.890625 -2.9375 1.546875 -2.9375 C 2.359375 -2.9375 2.390625 -2.375 2.40625 -2.171875 C 2.40625 -2.09375 2.5 -2.09375 2.515625 -2.09375 C 2.640625 -2.09375 2.640625 -2.140625 2.640625 -2.28125 Z M 2.640625 -2.921875 "
           id="path3103" />
      </symbol>
      <symbol
         overflow="visible"
         id="symbol4395">
        <path
           style="stroke:none;"
           d="M 1.9375 1.09375 C 1.484375 1.09375 1.421875 1.09375 1.421875 0.796875 L 1.421875 -0.328125 C 1.453125 -0.296875 1.78125 0.0625 2.359375 0.0625 C 3.28125 0.0625 4.0625 -0.625 4.0625 -1.5 C 4.0625 -2.359375 3.359375 -3.078125 2.46875 -3.078125 C 2.078125 -3.078125 1.671875 -2.921875 1.390625 -2.640625 L 1.390625 -3.078125 L 0.34375 -3 L 0.34375 -2.75 C 0.828125 -2.75 0.859375 -2.703125 0.859375 -2.421875 L 0.859375 0.796875 C 0.859375 1.09375 0.796875 1.09375 0.34375 1.09375 L 0.34375 1.359375 C 0.359375 1.359375 0.84375 1.328125 1.140625 1.328125 C 1.390625 1.328125 1.875 1.34375 1.9375 1.359375 Z M 1.421875 -2.328125 C 1.625 -2.671875 2.03125 -2.84375 2.390625 -2.84375 C 2.984375 -2.84375 3.4375 -2.234375 3.4375 -1.5 C 3.4375 -0.703125 2.90625 -0.125 2.328125 -0.125 C 1.703125 -0.125 1.4375 -0.65625 1.421875 -0.703125 Z M 1.421875 -2.328125 "
           id="path446" />
      </symbol>
      <symbol
         overflow="visible"
         id="symbol2950">
        <path
           style="stroke:none;"
           d="M 1.4375 -4.84375 L 0.390625 -4.765625 L 0.390625 -4.515625 C 0.859375 -4.515625 0.90625 -4.453125 0.90625 -4.125 L 0.90625 -0.546875 C 0.90625 -0.25 0.84375 -0.25 0.390625 -0.25 L 0.390625 0 C 0.40625 0 0.890625 -0.03125 1.171875 -0.03125 C 1.4375 -0.03125 1.6875 -0.015625 1.953125 0 L 1.953125 -0.25 C 1.5 -0.25 1.4375 -0.25 1.4375 -0.546875 Z M 1.4375 -4.84375 "
           id="path2249" />
      </symbol>
      <symbol
         overflow="visible"
         id="symbol669">
        <path
           style="stroke:none;"
           d="M 1.46875 -4.296875 C 1.46875 -4.5 1.296875 -4.703125 1.0625 -4.703125 C 0.859375 -4.703125 0.671875 -4.53125 0.671875 -4.296875 C 0.671875 -4.046875 0.875 -3.890625 1.0625 -3.890625 C 1.296875 -3.890625 1.46875 -4.0625 1.46875 -4.296875 Z M 0.40625 -3 L 0.40625 -2.75 C 0.84375 -2.75 0.90625 -2.703125 0.90625 -2.359375 L 0.90625 -0.546875 C 0.90625 -0.25 0.84375 -0.25 0.390625 -0.25 L 0.390625 0 C 0.40625 0 0.890625 -0.03125 1.171875 -0.03125 C 1.421875 -0.03125 1.671875 -0.015625 1.90625 0 L 1.90625 -0.25 C 1.5 -0.25 1.4375 -0.25 1.4375 -0.546875 L 1.4375 -3.078125 Z M 0.40625 -3 "
           id="path1723" />
      </symbol>
      <symbol
         overflow="visible"
         id="symbol6936">
        <path
           style="stroke:none;"
           d="M 1.40625 -2.75 L 2.484375 -2.75 L 2.484375 -3 L 1.40625 -3 L 1.40625 -4.28125 L 1.15625 -4.28125 C 1.15625 -3.65625 0.875 -2.96875 0.203125 -2.953125 L 0.203125 -2.75 L 0.84375 -2.75 L 0.84375 -0.875 C 0.84375 -0.09375 1.4375 0.0625 1.828125 0.0625 C 2.296875 0.0625 2.609375 -0.328125 2.609375 -0.875 L 2.609375 -1.265625 L 2.375 -1.265625 L 2.375 -0.890625 C 2.375 -0.40625 2.15625 -0.15625 1.875 -0.15625 C 1.40625 -0.15625 1.40625 -0.734375 1.40625 -0.859375 Z M 1.40625 -2.75 "
           id="path738" />
      </symbol>
    </g>
    <g
       id="g9846">
      <symbol
         overflow="visible"
         id="symbol1371">
        <path
           style="stroke:none;"
           d=""
           id="path4779" />
      </symbol>
      <symbol
         overflow="visible"
         id="symbol2718">
        <path
           style="stroke:none;"
           d="M 2.046875 -3.984375 L 2.984375 -3.984375 C 3.1875 -3.984375 3.296875 -3.984375 3.296875 -4.1875 C 3.296875 -4.296875 3.1875 -4.296875 3.015625 -4.296875 L 2.140625 -4.296875 C 2.5 -5.71875 2.546875 -5.90625 2.546875 -5.96875 C 2.546875 -6.140625 2.421875 -6.234375 2.25 -6.234375 C 2.21875 -6.234375 1.9375 -6.234375 1.859375 -5.875 L 1.46875 -4.296875 L 0.53125 -4.296875 C 0.328125 -4.296875 0.234375 -4.296875 0.234375 -4.109375 C 0.234375 -3.984375 0.3125 -3.984375 0.515625 -3.984375 L 1.390625 -3.984375 C 0.671875 -1.15625 0.625 -0.984375 0.625 -0.8125 C 0.625 -0.265625 1 0.109375 1.546875 0.109375 C 2.5625 0.109375 3.125 -1.34375 3.125 -1.421875 C 3.125 -1.53125 3.046875 -1.53125 3.015625 -1.53125 C 2.921875 -1.53125 2.90625 -1.5 2.859375 -1.390625 C 2.4375 -0.34375 1.90625 -0.109375 1.5625 -0.109375 C 1.359375 -0.109375 1.25 -0.234375 1.25 -0.5625 C 1.25 -0.8125 1.28125 -0.875 1.3125 -1.046875 Z M 2.046875 -3.984375 "
           id="path6665" />
      </symbol>
      <symbol
         overflow="visible"
         id="symbol8613">
        <path
           style="stroke:none;"
           d=""
           id="path3982" />
      </symbol>
      <symbol
         overflow="visible"
         id="symbol1509">
        <path
           style="stroke:none;"
           d="M 2.640625 -2.921875 C 2.640625 -3.046875 2.640625 -3.109375 2.546875 -3.109375 C 2.515625 -3.109375 2.5 -3.109375 2.40625 -3.03125 C 2.390625 -3.015625 2.328125 -2.953125 2.28125 -2.921875 C 2.0625 -3.0625 1.8125 -3.109375 1.546875 -3.109375 C 0.546875 -3.109375 0.3125 -2.578125 0.3125 -2.234375 C 0.3125 -2.015625 0.40625 -1.828125 0.578125 -1.6875 C 0.84375 -1.46875 1.109375 -1.421875 1.546875 -1.34375 C 1.890625 -1.28125 2.453125 -1.1875 2.453125 -0.71875 C 2.453125 -0.453125 2.265625 -0.125 1.59375 -0.125 C 0.921875 -0.125 0.6875 -0.5625 0.5625 -1.03125 C 0.53125 -1.125 0.53125 -1.15625 0.4375 -1.15625 C 0.3125 -1.15625 0.3125 -1.109375 0.3125 -0.96875 L 0.3125 -0.109375 C 0.3125 0 0.3125 0.0625 0.40625 0.0625 C 0.46875 0.0625 0.609375 -0.078125 0.75 -0.234375 C 1.046875 0.0625 1.421875 0.0625 1.59375 0.0625 C 2.5 0.0625 2.84375 -0.421875 2.84375 -0.90625 C 2.84375 -1.171875 2.71875 -1.390625 2.53125 -1.546875 C 2.265625 -1.796875 1.953125 -1.859375 1.703125 -1.890625 C 1.15625 -2 0.703125 -2.078125 0.703125 -2.453125 C 0.703125 -2.671875 0.890625 -2.9375 1.546875 -2.9375 C 2.359375 -2.9375 2.390625 -2.375 2.40625 -2.171875 C 2.40625 -2.09375 2.5 -2.09375 2.515625 -2.09375 C 2.640625 -2.09375 2.640625 -2.140625 2.640625 -2.28125 Z M 2.640625 -2.921875 "
           id="path2247" />
      </symbol>
      <symbol
         overflow="visible"
         id="symbol2578">
        <path
           style="stroke:none;"
           d="M 1.9375 1.09375 C 1.484375 1.09375 1.421875 1.09375 1.421875 0.796875 L 1.421875 -0.328125 C 1.453125 -0.296875 1.78125 0.0625 2.359375 0.0625 C 3.28125 0.0625 4.0625 -0.625 4.0625 -1.5 C 4.0625 -2.359375 3.359375 -3.078125 2.46875 -3.078125 C 2.078125 -3.078125 1.671875 -2.921875 1.390625 -2.640625 L 1.390625 -3.078125 L 0.34375 -3 L 0.34375 -2.75 C 0.828125 -2.75 0.859375 -2.703125 0.859375 -2.421875 L 0.859375 0.796875 C 0.859375 1.09375 0.796875 1.09375 0.34375 1.09375 L 0.34375 1.359375 C 0.359375 1.359375 0.84375 1.328125 1.140625 1.328125 C 1.390625 1.328125 1.875 1.34375 1.9375 1.359375 Z M 1.421875 -2.328125 C 1.625 -2.671875 2.03125 -2.84375 2.390625 -2.84375 C 2.984375 -2.84375 3.4375 -2.234375 3.4375 -1.5 C 3.4375 -0.703125 2.90625 -0.125 2.328125 -0.125 C 1.703125 -0.125 1.4375 -0.65625 1.421875 -0.703125 Z M 1.421875 -2.328125 "
           id="path1673" />
      </symbol>
      <symbol
         overflow="visible"
         id="symbol5540">
        <path
           style="stroke:none;"
           d="M 1.4375 -4.84375 L 0.390625 -4.765625 L 0.390625 -4.515625 C 0.859375 -4.515625 0.90625 -4.453125 0.90625 -4.125 L 0.90625 -0.546875 C 0.90625 -0.25 0.84375 -0.25 0.390625 -0.25 L 0.390625 0 C 0.40625 0 0.890625 -0.03125 1.171875 -0.03125 C 1.4375 -0.03125 1.6875 -0.015625 1.953125 0 L 1.953125 -0.25 C 1.5 -0.25 1.4375 -0.25 1.4375 -0.546875 Z M 1.4375 -4.84375 "
           id="path8133" />
      </symbol>
      <symbol
         overflow="visible"
         id="symbol5847">
        <path
           style="stroke:none;"
           d="M 1.46875 -4.296875 C 1.46875 -4.5 1.296875 -4.703125 1.0625 -4.703125 C 0.859375 -4.703125 0.671875 -4.53125 0.671875 -4.296875 C 0.671875 -4.046875 0.875 -3.890625 1.0625 -3.890625 C 1.296875 -3.890625 1.46875 -4.0625 1.46875 -4.296875 Z M 0.40625 -3 L 0.40625 -2.75 C 0.84375 -2.75 0.90625 -2.703125 0.90625 -2.359375 L 0.90625 -0.546875 C 0.90625 -0.25 0.84375 -0.25 0.390625 -0.25 L 0.390625 0 C 0.40625 0 0.890625 -0.03125 1.171875 -0.03125 C 1.421875 -0.03125 1.671875 -0.015625 1.90625 0 L 1.90625 -0.25 C 1.5 -0.25 1.4375 -0.25 1.4375 -0.546875 L 1.4375 -3.078125 Z M 0.40625 -3 "
           id="path4043" />
      </symbol>
      <symbol
         overflow="visible"
         id="symbol3183">
        <path
           style="stroke:none;"
           d="M 1.40625 -2.75 L 2.484375 -2.75 L 2.484375 -3 L 1.40625 -3 L 1.40625 -4.28125 L 1.15625 -4.28125 C 1.15625 -3.65625 0.875 -2.96875 0.203125 -2.953125 L 0.203125 -2.75 L 0.84375 -2.75 L 0.84375 -0.875 C 0.84375 -0.09375 1.4375 0.0625 1.828125 0.0625 C 2.296875 0.0625 2.609375 -0.328125 2.609375 -0.875 L 2.609375 -1.265625 L 2.375 -1.265625 L 2.375 -0.890625 C 2.375 -0.40625 2.15625 -0.15625 1.875 -0.15625 C 1.40625 -0.15625 1.40625 -0.734375 1.40625 -0.859375 Z M 1.40625 -2.75 "
           id="path4599" />
      </symbol>
    </g>
    <rect
       x="65.494286"
       y="122.22524"
       width="60.42078"
       height="21.677685"
       id="rect3709-7" />
    <rect
       x="65.494286"
       y="122.22524"
       width="60.42078"
       height="21.677685"
       id="rect3722" />
    <rect
       x="57.192188"
       y="120.84156"
       width="57.192188"
       height="22.138912"
       id="rect3743-8" />
    <rect
       x="57.192188"
       y="120.84156"
       width="57.192188"
       height="22.138912"
       id="rect3756" />
    <rect
       x="57.192188"
       y="120.84156"
       width="57.192188"
       height="22.138912"
       id="rect3743-2" />
    <rect
       x="57.192188"
       y="120.84156"
       width="57.192188"
       height="22.138912"
       id="rect3786" />
    <rect
       x="57.192188"
       y="120.84156"
       width="57.192188"
       height="22.138912"
       id="rect3743-2-7" />
    <rect
       x="57.192188"
       y="120.84156"
       width="57.192188"
       height="22.138912"
       id="rect3814" />
  </defs>
  <title
     id="title1046">kd ray traversal</title>
  <rect
     class="cls-1"
     x="21.21"
     y="151.61"
     width="53.57"
     height="110.42"
     id="rect1048" />
  <rect
     class="cls-2"
     x="20.33"
     y="0.5"
     width="109.11"
     height="109.11"
     id="rect1050" />
  <line
     class="cls-2"
     x1="0.23"
     y1="93.61"
     x2="145.18"
     y2="20.16"
     id="line1052" />
  <polygon
     points="143.29 27.29 144.6 20.45 138.31 17.47 152.41 16.5 143.29 27.29"
     id="polygon1054" />
  <polygon
     class="cls-3"
     points="144.13 25.51 151.24 17.09 145.16 20.17 144.13 25.51"
     id="polygon1056" />
  <polygon
     class="cls-4"
     points="140.25 17.84 151.24 17.09 145.16 20.17 140.25 17.84"
     id="polygon1058" />
  <circle
     cx="129.31"
     cy="27.96"
     r="3.69"
     id="circle1066" />
  <circle
     cx="20.43"
     cy="83.48"
     r="3.69"
     id="circle1068" />
  <rect
     class="cls-2"
     x="192.1"
     y="0.5"
     width="109.11"
     height="109.11"
     id="rect1086" />
  <line
     class="cls-2"
     x1="172"
     y1="93.61"
     x2="316.96"
     y2="20.16"
     id="line1088" />
  <polygon
     points="315.06 27.29 316.38 20.45 310.09 17.47 324.18 16.5 315.06 27.29"
     id="polygon1090" />
  <polygon
     class="cls-3"
     points="315.91 25.51 323.01 17.09 316.94 20.17 315.91 25.51"
     id="polygon1092" />
  <polygon
     class="cls-4"
     points="312.02 17.84 323.01 17.09 316.94 20.17 312.02 17.84"
     id="polygon1094" />
  <circle
     cx="301.09"
     cy="27.96"
     r="3.69"
     id="circle1102" />
  <circle
     cx="192.21"
     cy="83.48"
     r="3.69"
     id="circle1104" />
  <line
     class="cls-5"
     x1="246"
     y1="0.85"
     x2="246"
     y2="109.73"
     id="line1122" />
  <circle
     cx="245.78"
     cy="56.37"
     r="3.69"
     id="circle1124" />
  <rect
     class="cls-2"
     x="21.13"
     y="152.31"
     width="109.11"
     height="109.11"
     id="rect1152" />
  <line
     class="cls-2"
     x1="1.03"
     y1="245.42"
     x2="145.98"
     y2="171.97"
     id="line1154" />
  <polygon
     points="144.09 179.1 145.4 172.26 139.11 169.28 153.21 168.31 144.09 179.1"
     id="polygon1156" />
  <polygon
     class="cls-3"
     points="144.94 177.32 152.04 168.9 145.96 171.98 144.94 177.32"
     id="polygon1158" />
  <polygon
     class="cls-4"
     points="141.05 169.65 152.04 168.9 145.96 171.98 141.05 169.65"
     id="polygon1160" />
  <circle
     cx="130.11"
     cy="179.77"
     r="3.69"
     id="circle1168" />
  <line
     class="cls-5"
     x1="75.02"
     y1="152.66"
     x2="75.02"
     y2="261.54"
     id="line1186" />
  <circle
     cx="74.81"
     cy="208.18"
     r="3.69"
     id="circle1188" />
  <rect
     class="cls-1"
     x="192.11"
     y="151.86"
     width="53.57"
     height="110.42"
     id="rect1190" />
  <rect
     class="cls-2"
     x="192.03"
     y="152.57"
     width="109.11"
     height="109.11"
     id="rect1192" />
  <line
     class="cls-2"
     x1="171.93"
     y1="245.68"
     x2="316.88"
     y2="172.23"
     id="line1194" />
  <polygon
     points="314.99 179.36 316.3 172.52 310.01 169.54 324.11 168.56 314.99 179.36"
     id="polygon1196" />
  <polygon
     class="cls-3"
     points="315.84 177.58 322.94 169.16 316.87 172.24 315.84 177.58"
     id="polygon1198" />
  <polygon
     class="cls-4"
     points="311.95 169.91 322.94 169.16 316.87 172.24 311.95 169.91"
     id="polygon1200" />
  <circle
     cx="300.72"
     cy="178.83"
     r="3.69"
     id="circle1208" />
  <line
     class="cls-5"
     x1="245.93"
     y1="152.92"
     x2="245.93"
     y2="261.79"
     id="line1226" />
  <circle
     cx="245.71"
     cy="208.44"
     r="3.69"
     id="circle1228" />
  <line
     class="cls-5"
     x1="245.24"
     y1="190.94"
     x2="299.59"
     y2="190.94"
     id="line1230" />
  <circle
     cx="279.3"
     cy="191.18"
     r="3.69"
     id="circle1232" />
  <g
     inkscape:label=""
     transform="matrix(1.6,0,0,1.6,-121.94298,-34.589325)"
     id="g1375">
    <g
       id="g6321">
      <g
         style="fill:#000000;fill-opacity:1"
         id="g4614">
        <use
           xlink:href="#symbol1547"
           x="91.925003"
           y="81.962997"
           id="use2908"
           width="100%"
           height="100%" />
      </g>
      <g
         style="fill:#000000;fill-opacity:1"
         id="g2962">
        <use
           xlink:href="#symbol2953"
           x="95.523003"
           y="83.457001"
           id="use6322"
           width="100%"
           height="100%" />
        <use
           xlink:href="#symbol6449"
           x="102.06791"
           y="83.457001"
           id="use9659"
           width="100%"
           height="100%" />
        <use
           xlink:href="#symbol8642"
           x="104.32323"
           y="83.457001"
           id="use2594"
           width="100%"
           height="100%" />
      </g>
    </g>
  </g>
  <g
     inkscape:label=""
     transform="matrix(1.6,0,0,1.6,101.93677,89.942056)"
     id="g1544">
    <g
       id="g4279">
      <g
         style="fill:#000000;fill-opacity:1"
         id="g2473">
        <use
           xlink:href="#symbol931"
           x="91.925003"
           y="81.962997"
           id="use3668"
           width="100%"
           height="100%" />
      </g>
      <g
         style="fill:#000000;fill-opacity:1"
         id="g959">
        <use
           xlink:href="#symbol2752"
           x="95.523003"
           y="83.457001"
           id="use3207"
           width="100%"
           height="100%" />
        <use
           xlink:href="#symbol9019"
           x="102.06791"
           y="83.457001"
           id="use5927"
           width="100%"
           height="100%" />
        <use
           xlink:href="#symbol8013"
           x="104.32323"
           y="83.457001"
           id="use6622"
           width="100%"
           height="100%" />
      </g>
    </g>
  </g>
  <g
     inkscape:label=""
     transform="matrix(1.6,0,0,1.6,-67.333661,89.480828)"
     id="g1734">
    <g
       id="g4635">
      <g
         style="fill:#000000;fill-opacity:1"
         id="g367">
        <use
           xlink:href="#symbol4482"
           x="91.925003"
           y="81.962997"
           id="use4276"
           width="100%"
           height="100%" />
      </g>
      <g
         style="fill:#000000;fill-opacity:1"
         id="g3712">
        <use
           xlink:href="#symbol3921"
           x="95.523003"
           y="83.457001"
           id="use3100"
           width="100%"
           height="100%" />
        <use
           xlink:href="#symbol1077"
           x="102.06791"
           y="83.457001"
           id="use8747"
           width="100%"
           height="100%" />
        <use
           xlink:href="#symbol4695"
           x="104.32323"
           y="83.457001"
           id="use5418"
           width="100%"
           height="100%" />
      </g>
    </g>
  </g>
  <g
     inkscape:label=""
     transform="matrix(1.6,0,0,1.6,50.27931,-35.973007)"
     id="g1945">
    <g
       id="g8080">
      <g
         style="fill:#000000;fill-opacity:1"
         id="g5622">
        <use
           xlink:href="#symbol6527"
           x="91.925003"
           y="81.962997"
           id="use5819"
           width="100%"
           height="100%" />
      </g>
      <g
         style="fill:#000000;fill-opacity:1"
         id="g1582">
        <use
           xlink:href="#symbol454"
           x="95.523003"
           y="83.457001"
           id="use3972"
           width="100%"
           height="100%" />
        <use
           xlink:href="#symbol1229"
           x="102.06791"
           y="83.457001"
           id="use9940"
           width="100%"
           height="100%" />
        <use
           xlink:href="#symbol7120"
           x="104.32323"
           y="83.457001"
           id="use201"
           width="100%"
           height="100%" />
      </g>
    </g>
  </g>
  <g
     inkscape:label=""
     transform="matrix(1.6,0,0,1.6,155.07016,62.452906)"
     id="g2177">
    <g
       id="g6120">
      <g
         style="fill:#000000;fill-opacity:1"
         id="g8632">
        <use
           xlink:href="#symbol7257"
           x="91.925003"
           y="81.962997"
           id="use7426"
           width="100%"
           height="100%" />
      </g>
      <g
         style="fill:#000000;fill-opacity:1"
         id="g9402">
        <use
           xlink:href="#symbol9673"
           x="95.523003"
           y="83.457001"
           id="use7833"
           width="100%"
           height="100%" />
        <use
           xlink:href="#symbol6988"
           x="102.06791"
           y="83.457001"
           id="use4007"
           width="100%"
           height="100%" />
        <use
           xlink:href="#symbol167"
           x="106.03949"
           y="83.457001"
           id="use6438"
           width="100%"
           height="100%" />
      </g>
    </g>
  </g>
  <g
     inkscape:label=""
     transform="matrix(1.6,0,0,1.6,-12.355362,62.914133)"
     id="g2430">
    <g
       id="g9743">
      <g
         style="fill:#000000;fill-opacity:1"
         id="g8424">
        <use
           xlink:href="#symbol1491"
           x="91.925003"
           y="81.962997"
           id="use8216"
           width="100%"
           height="100%" />
      </g>
      <g
         style="fill:#000000;fill-opacity:1"
         id="g9588">
        <use
           xlink:href="#symbol7652"
           x="95.523003"
           y="83.457001"
           id="use1326"
           width="100%"
           height="100%" />
        <use
           xlink:href="#symbol8501"
           x="102.06791"
           y="83.457001"
           id="use9470"
           width="100%"
           height="100%" />
        <use
           xlink:href="#symbol9909"
           x="106.03949"
           y="83.457001"
           id="use7792"
           width="100%"
           height="100%" />
      </g>
    </g>
  </g>
  <g
     inkscape:label=""
     transform="matrix(1.6,0,0,1.6,155.07016,-88.829661)"
     id="g2705">
    <g
       id="g519">
      <g
         style="fill:#000000;fill-opacity:1"
         id="g3605">
        <use
           xlink:href="#symbol4515"
           x="91.925003"
           y="81.962997"
           id="use7078"
           width="100%"
           height="100%" />
      </g>
      <g
         style="fill:#000000;fill-opacity:1"
         id="g2759">
        <use
           xlink:href="#symbol614"
           x="95.523003"
           y="83.457001"
           id="use1680"
           width="100%"
           height="100%" />
        <use
           xlink:href="#symbol8766"
           x="102.06791"
           y="83.457001"
           id="use7505"
           width="100%"
           height="100%" />
        <use
           xlink:href="#symbol4120"
           x="106.03949"
           y="83.457001"
           id="use1847"
           width="100%"
           height="100%" />
      </g>
    </g>
  </g>
  <g
     inkscape:label=""
     transform="matrix(1.6,0,0,1.6,-12.355362,-89.752115)"
     id="g3000">
    <g
       id="g7847">
      <g
         style="fill:#000000;fill-opacity:1"
         id="g6890">
        <use
           xlink:href="#symbol7083"
           x="91.925003"
           y="81.962997"
           id="use4028"
           width="100%"
           height="100%" />
      </g>
      <g
         style="fill:#000000;fill-opacity:1"
         id="g8793">
        <use
           xlink:href="#symbol6594"
           x="95.523003"
           y="83.457001"
           id="use8029"
           width="100%"
           height="100%" />
        <use
           xlink:href="#symbol4419"
           x="102.06791"
           y="83.457001"
           id="use5270"
           width="100%"
           height="100%" />
        <use
           xlink:href="#symbol7921"
           x="106.03949"
           y="83.457001"
           id="use7720"
           width="100%"
           height="100%" />
      </g>
    </g>
  </g>
  <g
     inkscape:label=""
     transform="matrix(1.6,0,0,1.6,106.91803,49.999768)"
     id="g3322">
    <g
       id="g3754">
      <g
         style="fill:#000000;fill-opacity:1"
         id="g3551">
        <use
           xlink:href="#symbol9724"
           x="91.925003"
           y="81.962997"
           id="use936"
           width="100%"
           height="100%" />
      </g>
      <g
         style="fill:#000000;fill-opacity:1"
         id="g2102">
        <use
           xlink:href="#symbol29"
           x="95.523003"
           y="83.457001"
           id="use48"
           width="100%"
           height="100%" />
        <use
           xlink:href="#symbol4395"
           x="98.679344"
           y="83.457001"
           id="use9121"
           width="100%"
           height="100%" />
        <use
           xlink:href="#symbol2950"
           x="103.07981"
           y="83.457001"
           id="use5995"
           width="100%"
           height="100%" />
        <use
           xlink:href="#symbol669"
           x="105.33514"
           y="83.457001"
           id="use6812"
           width="100%"
           height="100%" />
        <use
           xlink:href="#symbol6936"
           x="107.59046"
           y="83.457001"
           id="use527"
           width="100%"
           height="100%" />
      </g>
    </g>
  </g>
  <g
     inkscape:label=""
     transform="matrix(1.6,0,0,1.6,105.99557,-62.539702)"
     id="g3677">
    <g
       id="g6872">
      <g
         style="fill:#000000;fill-opacity:1"
         id="g2554">
        <use
           xlink:href="#symbol2718"
           x="91.925003"
           y="81.962997"
           id="use2416"
           width="100%"
           height="100%" />
      </g>
      <g
         style="fill:#000000;fill-opacity:1"
         id="g4410">
        <use
           xlink:href="#symbol1509"
           x="95.523003"
           y="83.457001"
           id="use5933"
           width="100%"
           height="100%" />
        <use
           xlink:href="#symbol2578"
           x="98.679344"
           y="83.457001"
           id="use4474"
           width="100%"
           height="100%" />
        <use
           xlink:href="#symbol5540"
           x="103.07981"
           y="83.457001"
           id="use7774"
           width="100%"
           height="100%" />
        <use
           xlink:href="#symbol5847"
           x="105.33514"
           y="83.457001"
           id="use3632"
           width="100%"
           height="100%" />
        <use
           xlink:href="#symbol3183"
           x="107.59046"
           y="83.457001"
           id="use3682"
           width="100%"
           height="100%" />
      </g>
    </g>
  </g>
  <text
     xml:space="preserve"
     id="text3707"
     style="font-size:16px;line-height:1.25;font-family:'Times New Roman';-inkscape-font-specification:'Times New Roman, ';white-space:pre;shape-inside:url(#rect3709);"
     transform="translate(136.98452,-115.76806)"><tspan
       x="65.494141"
       y="136.42654"><tspan
         style="shape-inside:url(#rect3709)">Near</tspan></tspan></text>
  <text
     xml:space="preserve"
     id="text3707-9"
     style="font-size:16px;line-height:1.25;font-family:'Times New Roman';-inkscape-font-specification:'Times New Roman, ';white-space:pre;shape-inside:url(#rect3709-7);"
     transform="translate(196.06416,-115.09608)"><tspan
       x="65.494141"
       y="136.42654"><tspan
         style="shape-inside:url(#rect3709-7)">Far</tspan></tspan></text>
  <text
     xml:space="preserve"
     id="text3741"
     style="font-size:16px;line-height:1.25;font-family:'Times New Roman';-inkscape-font-specification:'Times New Roman, ';white-space:pre;shape-inside:url(#rect3743);"
     transform="translate(-52.579916,-8.3020921)"><tspan
       x="57.191406"
       y="135.04373"><tspan
         style="shape-inside:url(#rect3743)">(a)</tspan></tspan></text>
  <text
     xml:space="preserve"
     id="text3741-2"
     style="font-size:16px;line-height:1.25;font-family:'Times New Roman';-inkscape-font-specification:'Times New Roman, ';white-space:pre;shape-inside:url(#rect3743-8);"
     transform="translate(119.34308,-8.9747363)"><tspan
       x="57.191406"
       y="135.04373"><tspan
         style="shape-inside:url(#rect3743-8)">(b)</tspan></tspan></text>
  <text
     xml:space="preserve"
     id="text3741-21"
     style="font-size:16px;line-height:1.25;font-family:'Times New Roman';-inkscape-font-specification:'Times New Roman, ';white-space:pre;shape-inside:url(#rect3743-2);"
     transform="translate(-53.617174,145.99765)"><tspan
       x="57.191406"
       y="135.04373"><tspan
         style="shape-inside:url(#rect3743-2)">(c)</tspan></tspan></text>
  <text
     xml:space="preserve"
     id="text3741-21-8"
     style="font-size:16px;line-height:1.25;font-family:'Times New Roman';-inkscape-font-specification:'Times New Roman, ';white-space:pre;shape-inside:url(#rect3743-2-7);"
     transform="translate(119.34308,145.99765)"><tspan
       x="57.191406"
       y="135.04373"><tspan
         style="shape-inside:url(#rect3743-2-7)">(d)</tspan></tspan></text>
</svg>
