<?xml version="1.0" encoding="UTF-8" standalone="no"?>
<svg
   xmlns:dc="http://purl.org/dc/elements/1.1/"
   xmlns:cc="http://creativecommons.org/ns#"
   xmlns:rdf="http://www.w3.org/1999/02/22-rdf-syntax-ns#"
   xmlns:svg="http://www.w3.org/2000/svg"
   xmlns="http://www.w3.org/2000/svg"
   xmlns:xlink="http://www.w3.org/1999/xlink"
   xmlns:sodipodi="http://sodipodi.sourceforge.net/DTD/sodipodi-0.dtd"
   xmlns:inkscape="http://www.inkscape.org/namespaces/inkscape"
   id="Layer_1"
   data-name="Layer 1"
   viewBox="0 0 422.62 228.77"
   version="1.1"
   sodipodi:docname="kdskipanode.svg"
   inkscape:version="1.0.1 (3bc2e813f5, 2020-09-07)">
  <metadata
     id="metadata2438">
    <rdf:RDF>
      <cc:Work
         rdf:about="">
        <dc:format>image/svg+xml</dc:format>
        <dc:type
           rdf:resource="http://purl.org/dc/dcmitype/StillImage" />
      </cc:Work>
    </rdf:RDF>
  </metadata>
  <sodipodi:namedview
     pagecolor="#ffffff"
     bordercolor="#666666"
     borderopacity="1"
     objecttolerance="10"
     gridtolerance="10"
     guidetolerance="10"
     inkscape:pageopacity="0"
     inkscape:pageshadow="2"
     inkscape:window-width="1920"
     inkscape:window-height="1017"
     id="namedview2436"
     showgrid="false"
     inkscape:zoom="2.3992975"
     inkscape:cx="212.82343"
     inkscape:cy="93.564662"
     inkscape:window-x="1912"
     inkscape:window-y="-8"
     inkscape:window-maximized="1"
     inkscape:current-layer="Layer_1"
     inkscape:document-rotation="0" />
  <defs
     id="defs2275">
    <rect
       x="194.6403"
       y="20.422644"
       width="51.681794"
       height="42.512443"
       id="rect3903" />
    <style
       id="style2273">.cls-1,.cls-2{fill:none;}.cls-1,.cls-2,.cls-5{stroke:#000;stroke-miterlimit:10;}.cls-2{stroke-dasharray:2;}.cls-3{fill:#a6a6a6;}.cls-4{fill:#666;}.cls-5{fill:#fff;}</style>
    <g
       id="g756">
      <symbol
         overflow="visible"
         id="symbol4193">
        <path
           style="stroke:none;"
           d=""
           id="path2792" />
      </symbol>
      <symbol
         overflow="visible"
         id="symbol464">
        <path
           style="stroke:none;"
           d="M 2.046875 -3.984375 L 2.984375 -3.984375 C 3.1875 -3.984375 3.296875 -3.984375 3.296875 -4.1875 C 3.296875 -4.296875 3.1875 -4.296875 3.015625 -4.296875 L 2.140625 -4.296875 C 2.5 -5.71875 2.546875 -5.90625 2.546875 -5.96875 C 2.546875 -6.140625 2.421875 -6.234375 2.25 -6.234375 C 2.21875 -6.234375 1.9375 -6.234375 1.859375 -5.875 L 1.46875 -4.296875 L 0.53125 -4.296875 C 0.328125 -4.296875 0.234375 -4.296875 0.234375 -4.109375 C 0.234375 -3.984375 0.3125 -3.984375 0.515625 -3.984375 L 1.390625 -3.984375 C 0.671875 -1.15625 0.625 -0.984375 0.625 -0.8125 C 0.625 -0.265625 1 0.109375 1.546875 0.109375 C 2.5625 0.109375 3.125 -1.34375 3.125 -1.421875 C 3.125 -1.53125 3.046875 -1.53125 3.015625 -1.53125 C 2.921875 -1.53125 2.90625 -1.5 2.859375 -1.390625 C 2.4375 -0.34375 1.90625 -0.109375 1.5625 -0.109375 C 1.359375 -0.109375 1.25 -0.234375 1.25 -0.5625 C 1.25 -0.8125 1.28125 -0.875 1.3125 -1.046875 Z M 2.046875 -3.984375 "
           id="path5900" />
      </symbol>
      <symbol
         overflow="visible"
         id="symbol7568">
        <path
           style="stroke:none;"
           d=""
           id="path4542" />
      </symbol>
      <symbol
         overflow="visible"
         id="symbol929">
        <path
           style="stroke:none;"
           d="M 2.640625 -2.921875 C 2.640625 -3.046875 2.640625 -3.109375 2.546875 -3.109375 C 2.515625 -3.109375 2.5 -3.109375 2.40625 -3.03125 C 2.390625 -3.015625 2.328125 -2.953125 2.28125 -2.921875 C 2.0625 -3.0625 1.8125 -3.109375 1.546875 -3.109375 C 0.546875 -3.109375 0.3125 -2.578125 0.3125 -2.234375 C 0.3125 -2.015625 0.40625 -1.828125 0.578125 -1.6875 C 0.84375 -1.46875 1.109375 -1.421875 1.546875 -1.34375 C 1.890625 -1.28125 2.453125 -1.1875 2.453125 -0.71875 C 2.453125 -0.453125 2.265625 -0.125 1.59375 -0.125 C 0.921875 -0.125 0.6875 -0.5625 0.5625 -1.03125 C 0.53125 -1.125 0.53125 -1.15625 0.4375 -1.15625 C 0.3125 -1.15625 0.3125 -1.109375 0.3125 -0.96875 L 0.3125 -0.109375 C 0.3125 0 0.3125 0.0625 0.40625 0.0625 C 0.46875 0.0625 0.609375 -0.078125 0.75 -0.234375 C 1.046875 0.0625 1.421875 0.0625 1.59375 0.0625 C 2.5 0.0625 2.84375 -0.421875 2.84375 -0.90625 C 2.84375 -1.171875 2.71875 -1.390625 2.53125 -1.546875 C 2.265625 -1.796875 1.953125 -1.859375 1.703125 -1.890625 C 1.15625 -2 0.703125 -2.078125 0.703125 -2.453125 C 0.703125 -2.671875 0.890625 -2.9375 1.546875 -2.9375 C 2.359375 -2.9375 2.390625 -2.375 2.40625 -2.171875 C 2.40625 -2.09375 2.5 -2.09375 2.515625 -2.09375 C 2.640625 -2.09375 2.640625 -2.140625 2.640625 -2.28125 Z M 2.640625 -2.921875 "
           id="path8381" />
      </symbol>
      <symbol
         overflow="visible"
         id="symbol7973">
        <path
           style="stroke:none;"
           d="M 1.9375 1.09375 C 1.484375 1.09375 1.421875 1.09375 1.421875 0.796875 L 1.421875 -0.328125 C 1.453125 -0.296875 1.78125 0.0625 2.359375 0.0625 C 3.28125 0.0625 4.0625 -0.625 4.0625 -1.5 C 4.0625 -2.359375 3.359375 -3.078125 2.46875 -3.078125 C 2.078125 -3.078125 1.671875 -2.921875 1.390625 -2.640625 L 1.390625 -3.078125 L 0.34375 -3 L 0.34375 -2.75 C 0.828125 -2.75 0.859375 -2.703125 0.859375 -2.421875 L 0.859375 0.796875 C 0.859375 1.09375 0.796875 1.09375 0.34375 1.09375 L 0.34375 1.359375 C 0.359375 1.359375 0.84375 1.328125 1.140625 1.328125 C 1.390625 1.328125 1.875 1.34375 1.9375 1.359375 Z M 1.421875 -2.328125 C 1.625 -2.671875 2.03125 -2.84375 2.390625 -2.84375 C 2.984375 -2.84375 3.4375 -2.234375 3.4375 -1.5 C 3.4375 -0.703125 2.90625 -0.125 2.328125 -0.125 C 1.703125 -0.125 1.4375 -0.65625 1.421875 -0.703125 Z M 1.421875 -2.328125 "
           id="path9651" />
      </symbol>
      <symbol
         overflow="visible"
         id="symbol6332">
        <path
           style="stroke:none;"
           d="M 1.4375 -4.84375 L 0.390625 -4.765625 L 0.390625 -4.515625 C 0.859375 -4.515625 0.90625 -4.453125 0.90625 -4.125 L 0.90625 -0.546875 C 0.90625 -0.25 0.84375 -0.25 0.390625 -0.25 L 0.390625 0 C 0.40625 0 0.890625 -0.03125 1.171875 -0.03125 C 1.4375 -0.03125 1.6875 -0.015625 1.953125 0 L 1.953125 -0.25 C 1.5 -0.25 1.4375 -0.25 1.4375 -0.546875 Z M 1.4375 -4.84375 "
           id="path9722" />
      </symbol>
      <symbol
         overflow="visible"
         id="symbol9538">
        <path
           style="stroke:none;"
           d="M 1.46875 -4.296875 C 1.46875 -4.5 1.296875 -4.703125 1.0625 -4.703125 C 0.859375 -4.703125 0.671875 -4.53125 0.671875 -4.296875 C 0.671875 -4.046875 0.875 -3.890625 1.0625 -3.890625 C 1.296875 -3.890625 1.46875 -4.0625 1.46875 -4.296875 Z M 0.40625 -3 L 0.40625 -2.75 C 0.84375 -2.75 0.90625 -2.703125 0.90625 -2.359375 L 0.90625 -0.546875 C 0.90625 -0.25 0.84375 -0.25 0.390625 -0.25 L 0.390625 0 C 0.40625 0 0.890625 -0.03125 1.171875 -0.03125 C 1.421875 -0.03125 1.671875 -0.015625 1.90625 0 L 1.90625 -0.25 C 1.5 -0.25 1.4375 -0.25 1.4375 -0.546875 L 1.4375 -3.078125 Z M 0.40625 -3 "
           id="path1637" />
      </symbol>
      <symbol
         overflow="visible"
         id="symbol6599">
        <path
           style="stroke:none;"
           d="M 1.40625 -2.75 L 2.484375 -2.75 L 2.484375 -3 L 1.40625 -3 L 1.40625 -4.28125 L 1.15625 -4.28125 C 1.15625 -3.65625 0.875 -2.96875 0.203125 -2.953125 L 0.203125 -2.75 L 0.84375 -2.75 L 0.84375 -0.875 C 0.84375 -0.09375 1.4375 0.0625 1.828125 0.0625 C 2.296875 0.0625 2.609375 -0.328125 2.609375 -0.875 L 2.609375 -1.265625 L 2.375 -1.265625 L 2.375 -0.890625 C 2.375 -0.40625 2.15625 -0.15625 1.875 -0.15625 C 1.40625 -0.15625 1.40625 -0.734375 1.40625 -0.859375 Z M 1.40625 -2.75 "
           id="path1978" />
      </symbol>
    </g>
    <g
       id="g3526">
      <symbol
         overflow="visible"
         id="symbol6520">
        <path
           style="stroke:none;"
           d=""
           id="path7834" />
      </symbol>
      <symbol
         overflow="visible"
         id="symbol4492">
        <path
           style="stroke:none;"
           d="M 2.046875 -3.984375 L 2.984375 -3.984375 C 3.1875 -3.984375 3.296875 -3.984375 3.296875 -4.1875 C 3.296875 -4.296875 3.1875 -4.296875 3.015625 -4.296875 L 2.140625 -4.296875 C 2.5 -5.71875 2.546875 -5.90625 2.546875 -5.96875 C 2.546875 -6.140625 2.421875 -6.234375 2.25 -6.234375 C 2.21875 -6.234375 1.9375 -6.234375 1.859375 -5.875 L 1.46875 -4.296875 L 0.53125 -4.296875 C 0.328125 -4.296875 0.234375 -4.296875 0.234375 -4.109375 C 0.234375 -3.984375 0.3125 -3.984375 0.515625 -3.984375 L 1.390625 -3.984375 C 0.671875 -1.15625 0.625 -0.984375 0.625 -0.8125 C 0.625 -0.265625 1 0.109375 1.546875 0.109375 C 2.5625 0.109375 3.125 -1.34375 3.125 -1.421875 C 3.125 -1.53125 3.046875 -1.53125 3.015625 -1.53125 C 2.921875 -1.53125 2.90625 -1.5 2.859375 -1.390625 C 2.4375 -0.34375 1.90625 -0.109375 1.5625 -0.109375 C 1.359375 -0.109375 1.25 -0.234375 1.25 -0.5625 C 1.25 -0.8125 1.28125 -0.875 1.3125 -1.046875 Z M 2.046875 -3.984375 "
           id="path6593" />
      </symbol>
      <symbol
         overflow="visible"
         id="symbol3250">
        <path
           style="stroke:none;"
           d=""
           id="path673" />
      </symbol>
      <symbol
         overflow="visible"
         id="symbol6556">
        <path
           style="stroke:none;"
           d="M 2.640625 -2.921875 C 2.640625 -3.046875 2.640625 -3.109375 2.546875 -3.109375 C 2.515625 -3.109375 2.5 -3.109375 2.40625 -3.03125 C 2.390625 -3.015625 2.328125 -2.953125 2.28125 -2.921875 C 2.0625 -3.0625 1.8125 -3.109375 1.546875 -3.109375 C 0.546875 -3.109375 0.3125 -2.578125 0.3125 -2.234375 C 0.3125 -2.015625 0.40625 -1.828125 0.578125 -1.6875 C 0.84375 -1.46875 1.109375 -1.421875 1.546875 -1.34375 C 1.890625 -1.28125 2.453125 -1.1875 2.453125 -0.71875 C 2.453125 -0.453125 2.265625 -0.125 1.59375 -0.125 C 0.921875 -0.125 0.6875 -0.5625 0.5625 -1.03125 C 0.53125 -1.125 0.53125 -1.15625 0.4375 -1.15625 C 0.3125 -1.15625 0.3125 -1.109375 0.3125 -0.96875 L 0.3125 -0.109375 C 0.3125 0 0.3125 0.0625 0.40625 0.0625 C 0.46875 0.0625 0.609375 -0.078125 0.75 -0.234375 C 1.046875 0.0625 1.421875 0.0625 1.59375 0.0625 C 2.5 0.0625 2.84375 -0.421875 2.84375 -0.90625 C 2.84375 -1.171875 2.71875 -1.390625 2.53125 -1.546875 C 2.265625 -1.796875 1.953125 -1.859375 1.703125 -1.890625 C 1.15625 -2 0.703125 -2.078125 0.703125 -2.453125 C 0.703125 -2.671875 0.890625 -2.9375 1.546875 -2.9375 C 2.359375 -2.9375 2.390625 -2.375 2.40625 -2.171875 C 2.40625 -2.09375 2.5 -2.09375 2.515625 -2.09375 C 2.640625 -2.09375 2.640625 -2.140625 2.640625 -2.28125 Z M 2.640625 -2.921875 "
           id="path8437" />
      </symbol>
      <symbol
         overflow="visible"
         id="symbol2847">
        <path
           style="stroke:none;"
           d="M 1.9375 1.09375 C 1.484375 1.09375 1.421875 1.09375 1.421875 0.796875 L 1.421875 -0.328125 C 1.453125 -0.296875 1.78125 0.0625 2.359375 0.0625 C 3.28125 0.0625 4.0625 -0.625 4.0625 -1.5 C 4.0625 -2.359375 3.359375 -3.078125 2.46875 -3.078125 C 2.078125 -3.078125 1.671875 -2.921875 1.390625 -2.640625 L 1.390625 -3.078125 L 0.34375 -3 L 0.34375 -2.75 C 0.828125 -2.75 0.859375 -2.703125 0.859375 -2.421875 L 0.859375 0.796875 C 0.859375 1.09375 0.796875 1.09375 0.34375 1.09375 L 0.34375 1.359375 C 0.359375 1.359375 0.84375 1.328125 1.140625 1.328125 C 1.390625 1.328125 1.875 1.34375 1.9375 1.359375 Z M 1.421875 -2.328125 C 1.625 -2.671875 2.03125 -2.84375 2.390625 -2.84375 C 2.984375 -2.84375 3.4375 -2.234375 3.4375 -1.5 C 3.4375 -0.703125 2.90625 -0.125 2.328125 -0.125 C 1.703125 -0.125 1.4375 -0.65625 1.421875 -0.703125 Z M 1.421875 -2.328125 "
           id="path268" />
      </symbol>
      <symbol
         overflow="visible"
         id="symbol7237">
        <path
           style="stroke:none;"
           d="M 1.4375 -4.84375 L 0.390625 -4.765625 L 0.390625 -4.515625 C 0.859375 -4.515625 0.90625 -4.453125 0.90625 -4.125 L 0.90625 -0.546875 C 0.90625 -0.25 0.84375 -0.25 0.390625 -0.25 L 0.390625 0 C 0.40625 0 0.890625 -0.03125 1.171875 -0.03125 C 1.4375 -0.03125 1.6875 -0.015625 1.953125 0 L 1.953125 -0.25 C 1.5 -0.25 1.4375 -0.25 1.4375 -0.546875 Z M 1.4375 -4.84375 "
           id="path9158" />
      </symbol>
      <symbol
         overflow="visible"
         id="symbol9490">
        <path
           style="stroke:none;"
           d="M 1.46875 -4.296875 C 1.46875 -4.5 1.296875 -4.703125 1.0625 -4.703125 C 0.859375 -4.703125 0.671875 -4.53125 0.671875 -4.296875 C 0.671875 -4.046875 0.875 -3.890625 1.0625 -3.890625 C 1.296875 -3.890625 1.46875 -4.0625 1.46875 -4.296875 Z M 0.40625 -3 L 0.40625 -2.75 C 0.84375 -2.75 0.90625 -2.703125 0.90625 -2.359375 L 0.90625 -0.546875 C 0.90625 -0.25 0.84375 -0.25 0.390625 -0.25 L 0.390625 0 C 0.40625 0 0.890625 -0.03125 1.171875 -0.03125 C 1.421875 -0.03125 1.671875 -0.015625 1.90625 0 L 1.90625 -0.25 C 1.5 -0.25 1.4375 -0.25 1.4375 -0.546875 L 1.4375 -3.078125 Z M 0.40625 -3 "
           id="path9630" />
      </symbol>
      <symbol
         overflow="visible"
         id="symbol1583">
        <path
           style="stroke:none;"
           d="M 1.40625 -2.75 L 2.484375 -2.75 L 2.484375 -3 L 1.40625 -3 L 1.40625 -4.28125 L 1.15625 -4.28125 C 1.15625 -3.65625 0.875 -2.96875 0.203125 -2.953125 L 0.203125 -2.75 L 0.84375 -2.75 L 0.84375 -0.875 C 0.84375 -0.09375 1.4375 0.0625 1.828125 0.0625 C 2.296875 0.0625 2.609375 -0.328125 2.609375 -0.875 L 2.609375 -1.265625 L 2.375 -1.265625 L 2.375 -0.890625 C 2.375 -0.40625 2.15625 -0.15625 1.875 -0.15625 C 1.40625 -0.15625 1.40625 -0.734375 1.40625 -0.859375 Z M 1.40625 -2.75 "
           id="path9650" />
      </symbol>
    </g>
    <g
       id="g4157">
      <symbol
         overflow="visible"
         id="symbol5310">
        <path
           style="stroke:none;"
           d=""
           id="path1408" />
      </symbol>
      <symbol
         overflow="visible"
         id="symbol9518">
        <path
           style="stroke:none;"
           d="M 2.046875 -3.984375 L 2.984375 -3.984375 C 3.1875 -3.984375 3.296875 -3.984375 3.296875 -4.1875 C 3.296875 -4.296875 3.1875 -4.296875 3.015625 -4.296875 L 2.140625 -4.296875 C 2.5 -5.71875 2.546875 -5.90625 2.546875 -5.96875 C 2.546875 -6.140625 2.421875 -6.234375 2.25 -6.234375 C 2.21875 -6.234375 1.9375 -6.234375 1.859375 -5.875 L 1.46875 -4.296875 L 0.53125 -4.296875 C 0.328125 -4.296875 0.234375 -4.296875 0.234375 -4.109375 C 0.234375 -3.984375 0.3125 -3.984375 0.515625 -3.984375 L 1.390625 -3.984375 C 0.671875 -1.15625 0.625 -0.984375 0.625 -0.8125 C 0.625 -0.265625 1 0.109375 1.546875 0.109375 C 2.5625 0.109375 3.125 -1.34375 3.125 -1.421875 C 3.125 -1.53125 3.046875 -1.53125 3.015625 -1.53125 C 2.921875 -1.53125 2.90625 -1.5 2.859375 -1.390625 C 2.4375 -0.34375 1.90625 -0.109375 1.5625 -0.109375 C 1.359375 -0.109375 1.25 -0.234375 1.25 -0.5625 C 1.25 -0.8125 1.28125 -0.875 1.3125 -1.046875 Z M 2.046875 -3.984375 "
           id="path2052" />
      </symbol>
      <symbol
         overflow="visible"
         id="symbol2981">
        <path
           style="stroke:none;"
           d=""
           id="path7707" />
      </symbol>
      <symbol
         overflow="visible"
         id="symbol7534">
        <path
           style="stroke:none;"
           d="M 2.640625 -2.921875 C 2.640625 -3.046875 2.640625 -3.109375 2.546875 -3.109375 C 2.515625 -3.109375 2.5 -3.109375 2.40625 -3.03125 C 2.390625 -3.015625 2.328125 -2.953125 2.28125 -2.921875 C 2.0625 -3.0625 1.8125 -3.109375 1.546875 -3.109375 C 0.546875 -3.109375 0.3125 -2.578125 0.3125 -2.234375 C 0.3125 -2.015625 0.40625 -1.828125 0.578125 -1.6875 C 0.84375 -1.46875 1.109375 -1.421875 1.546875 -1.34375 C 1.890625 -1.28125 2.453125 -1.1875 2.453125 -0.71875 C 2.453125 -0.453125 2.265625 -0.125 1.59375 -0.125 C 0.921875 -0.125 0.6875 -0.5625 0.5625 -1.03125 C 0.53125 -1.125 0.53125 -1.15625 0.4375 -1.15625 C 0.3125 -1.15625 0.3125 -1.109375 0.3125 -0.96875 L 0.3125 -0.109375 C 0.3125 0 0.3125 0.0625 0.40625 0.0625 C 0.46875 0.0625 0.609375 -0.078125 0.75 -0.234375 C 1.046875 0.0625 1.421875 0.0625 1.59375 0.0625 C 2.5 0.0625 2.84375 -0.421875 2.84375 -0.90625 C 2.84375 -1.171875 2.71875 -1.390625 2.53125 -1.546875 C 2.265625 -1.796875 1.953125 -1.859375 1.703125 -1.890625 C 1.15625 -2 0.703125 -2.078125 0.703125 -2.453125 C 0.703125 -2.671875 0.890625 -2.9375 1.546875 -2.9375 C 2.359375 -2.9375 2.390625 -2.375 2.40625 -2.171875 C 2.40625 -2.09375 2.5 -2.09375 2.515625 -2.09375 C 2.640625 -2.09375 2.640625 -2.140625 2.640625 -2.28125 Z M 2.640625 -2.921875 "
           id="path2032" />
      </symbol>
      <symbol
         overflow="visible"
         id="symbol1076">
        <path
           style="stroke:none;"
           d="M 1.9375 1.09375 C 1.484375 1.09375 1.421875 1.09375 1.421875 0.796875 L 1.421875 -0.328125 C 1.453125 -0.296875 1.78125 0.0625 2.359375 0.0625 C 3.28125 0.0625 4.0625 -0.625 4.0625 -1.5 C 4.0625 -2.359375 3.359375 -3.078125 2.46875 -3.078125 C 2.078125 -3.078125 1.671875 -2.921875 1.390625 -2.640625 L 1.390625 -3.078125 L 0.34375 -3 L 0.34375 -2.75 C 0.828125 -2.75 0.859375 -2.703125 0.859375 -2.421875 L 0.859375 0.796875 C 0.859375 1.09375 0.796875 1.09375 0.34375 1.09375 L 0.34375 1.359375 C 0.359375 1.359375 0.84375 1.328125 1.140625 1.328125 C 1.390625 1.328125 1.875 1.34375 1.9375 1.359375 Z M 1.421875 -2.328125 C 1.625 -2.671875 2.03125 -2.84375 2.390625 -2.84375 C 2.984375 -2.84375 3.4375 -2.234375 3.4375 -1.5 C 3.4375 -0.703125 2.90625 -0.125 2.328125 -0.125 C 1.703125 -0.125 1.4375 -0.65625 1.421875 -0.703125 Z M 1.421875 -2.328125 "
           id="path9621" />
      </symbol>
      <symbol
         overflow="visible"
         id="symbol1244">
        <path
           style="stroke:none;"
           d="M 1.4375 -4.84375 L 0.390625 -4.765625 L 0.390625 -4.515625 C 0.859375 -4.515625 0.90625 -4.453125 0.90625 -4.125 L 0.90625 -0.546875 C 0.90625 -0.25 0.84375 -0.25 0.390625 -0.25 L 0.390625 0 C 0.40625 0 0.890625 -0.03125 1.171875 -0.03125 C 1.4375 -0.03125 1.6875 -0.015625 1.953125 0 L 1.953125 -0.25 C 1.5 -0.25 1.4375 -0.25 1.4375 -0.546875 Z M 1.4375 -4.84375 "
           id="path8773" />
      </symbol>
      <symbol
         overflow="visible"
         id="symbol726">
        <path
           style="stroke:none;"
           d="M 1.46875 -4.296875 C 1.46875 -4.5 1.296875 -4.703125 1.0625 -4.703125 C 0.859375 -4.703125 0.671875 -4.53125 0.671875 -4.296875 C 0.671875 -4.046875 0.875 -3.890625 1.0625 -3.890625 C 1.296875 -3.890625 1.46875 -4.0625 1.46875 -4.296875 Z M 0.40625 -3 L 0.40625 -2.75 C 0.84375 -2.75 0.90625 -2.703125 0.90625 -2.359375 L 0.90625 -0.546875 C 0.90625 -0.25 0.84375 -0.25 0.390625 -0.25 L 0.390625 0 C 0.40625 0 0.890625 -0.03125 1.171875 -0.03125 C 1.421875 -0.03125 1.671875 -0.015625 1.90625 0 L 1.90625 -0.25 C 1.5 -0.25 1.4375 -0.25 1.4375 -0.546875 L 1.4375 -3.078125 Z M 0.40625 -3 "
           id="path1456" />
      </symbol>
      <symbol
         overflow="visible"
         id="symbol2057">
        <path
           style="stroke:none;"
           d="M 1.40625 -2.75 L 2.484375 -2.75 L 2.484375 -3 L 1.40625 -3 L 1.40625 -4.28125 L 1.15625 -4.28125 C 1.15625 -3.65625 0.875 -2.96875 0.203125 -2.953125 L 0.203125 -2.75 L 0.84375 -2.75 L 0.84375 -0.875 C 0.84375 -0.09375 1.4375 0.0625 1.828125 0.0625 C 2.296875 0.0625 2.609375 -0.328125 2.609375 -0.875 L 2.609375 -1.265625 L 2.375 -1.265625 L 2.375 -0.890625 C 2.375 -0.40625 2.15625 -0.15625 1.875 -0.15625 C 1.40625 -0.15625 1.40625 -0.734375 1.40625 -0.859375 Z M 1.40625 -2.75 "
           id="path2867" />
      </symbol>
    </g>
    <g
       id="g4206">
      <symbol
         overflow="visible"
         id="symbol5742">
        <path
           style="stroke:none;"
           d=""
           id="path424" />
      </symbol>
      <symbol
         overflow="visible"
         id="symbol1465">
        <path
           style="stroke:none;"
           d="M 2.046875 -3.984375 L 2.984375 -3.984375 C 3.1875 -3.984375 3.296875 -3.984375 3.296875 -4.1875 C 3.296875 -4.296875 3.1875 -4.296875 3.015625 -4.296875 L 2.140625 -4.296875 C 2.5 -5.71875 2.546875 -5.90625 2.546875 -5.96875 C 2.546875 -6.140625 2.421875 -6.234375 2.25 -6.234375 C 2.21875 -6.234375 1.9375 -6.234375 1.859375 -5.875 L 1.46875 -4.296875 L 0.53125 -4.296875 C 0.328125 -4.296875 0.234375 -4.296875 0.234375 -4.109375 C 0.234375 -3.984375 0.3125 -3.984375 0.515625 -3.984375 L 1.390625 -3.984375 C 0.671875 -1.15625 0.625 -0.984375 0.625 -0.8125 C 0.625 -0.265625 1 0.109375 1.546875 0.109375 C 2.5625 0.109375 3.125 -1.34375 3.125 -1.421875 C 3.125 -1.53125 3.046875 -1.53125 3.015625 -1.53125 C 2.921875 -1.53125 2.90625 -1.5 2.859375 -1.390625 C 2.4375 -0.34375 1.90625 -0.109375 1.5625 -0.109375 C 1.359375 -0.109375 1.25 -0.234375 1.25 -0.5625 C 1.25 -0.8125 1.28125 -0.875 1.3125 -1.046875 Z M 2.046875 -3.984375 "
           id="path2053" />
      </symbol>
      <symbol
         overflow="visible"
         id="symbol3557">
        <path
           style="stroke:none;"
           d=""
           id="path2764" />
      </symbol>
      <symbol
         overflow="visible"
         id="symbol7656">
        <path
           style="stroke:none;"
           d="M 5.734375 -2.109375 C 5.734375 -2.71875 5.421875 -3.078125 4.6875 -3.078125 C 4.125 -3.078125 3.75 -2.78125 3.5625 -2.421875 C 3.421875 -2.921875 3.046875 -3.078125 2.546875 -3.078125 C 1.96875 -3.078125 1.609375 -2.765625 1.40625 -2.390625 L 1.40625 -3.078125 L 0.375 -3 L 0.375 -2.75 C 0.84375 -2.75 0.90625 -2.703125 0.90625 -2.359375 L 0.90625 -0.546875 C 0.90625 -0.25 0.828125 -0.25 0.375 -0.25 L 0.375 0 C 0.390625 0 0.875 -0.03125 1.171875 -0.03125 C 1.421875 -0.03125 1.90625 0 1.96875 0 L 1.96875 -0.25 C 1.515625 -0.25 1.453125 -0.25 1.453125 -0.546875 L 1.453125 -1.8125 C 1.453125 -2.53125 2.03125 -2.875 2.484375 -2.875 C 2.96875 -2.875 3.03125 -2.5 3.03125 -2.140625 L 3.03125 -0.546875 C 3.03125 -0.25 2.96875 -0.25 2.515625 -0.25 L 2.515625 0 C 2.53125 0 3.015625 -0.03125 3.3125 -0.03125 C 3.5625 -0.03125 4.046875 0 4.109375 0 L 4.109375 -0.25 C 3.65625 -0.25 3.59375 -0.25 3.59375 -0.546875 L 3.59375 -1.8125 C 3.59375 -2.53125 4.171875 -2.875 4.625 -2.875 C 5.109375 -2.875 5.171875 -2.5 5.171875 -2.140625 L 5.171875 -0.546875 C 5.171875 -0.25 5.109375 -0.25 4.65625 -0.25 L 4.65625 0 C 4.671875 0 5.15625 -0.03125 5.453125 -0.03125 C 5.703125 -0.03125 6.1875 0 6.25 0 L 6.25 -0.25 C 5.796875 -0.25 5.734375 -0.25 5.734375 -0.546875 Z M 5.734375 -2.109375 "
           id="path1748" />
      </symbol>
      <symbol
         overflow="visible"
         id="symbol9999">
        <path
           style="stroke:none;"
           d="M 1.46875 -4.296875 C 1.46875 -4.5 1.296875 -4.703125 1.0625 -4.703125 C 0.859375 -4.703125 0.671875 -4.53125 0.671875 -4.296875 C 0.671875 -4.046875 0.875 -3.890625 1.0625 -3.890625 C 1.296875 -3.890625 1.46875 -4.0625 1.46875 -4.296875 Z M 0.40625 -3 L 0.40625 -2.75 C 0.84375 -2.75 0.90625 -2.703125 0.90625 -2.359375 L 0.90625 -0.546875 C 0.90625 -0.25 0.84375 -0.25 0.390625 -0.25 L 0.390625 0 C 0.40625 0 0.890625 -0.03125 1.171875 -0.03125 C 1.421875 -0.03125 1.671875 -0.015625 1.90625 0 L 1.90625 -0.25 C 1.5 -0.25 1.4375 -0.25 1.4375 -0.546875 L 1.4375 -3.078125 Z M 0.40625 -3 "
           id="path7629" />
      </symbol>
      <symbol
         overflow="visible"
         id="symbol2306">
        <path
           style="stroke:none;"
           d="M 3.59375 -2.109375 C 3.59375 -2.71875 3.296875 -3.078125 2.546875 -3.078125 C 1.96875 -3.078125 1.609375 -2.765625 1.40625 -2.390625 L 1.40625 -3.078125 L 0.375 -3 L 0.375 -2.75 C 0.84375 -2.75 0.90625 -2.703125 0.90625 -2.359375 L 0.90625 -0.546875 C 0.90625 -0.25 0.828125 -0.25 0.375 -0.25 L 0.375 0 C 0.390625 0 0.875 -0.03125 1.171875 -0.03125 C 1.421875 -0.03125 1.90625 0 1.96875 0 L 1.96875 -0.25 C 1.515625 -0.25 1.453125 -0.25 1.453125 -0.546875 L 1.453125 -1.8125 C 1.453125 -2.53125 2.03125 -2.875 2.484375 -2.875 C 2.96875 -2.875 3.03125 -2.5 3.03125 -2.140625 L 3.03125 -0.546875 C 3.03125 -0.25 2.96875 -0.25 2.515625 -0.25 L 2.515625 0 C 2.53125 0 3.015625 -0.03125 3.3125 -0.03125 C 3.5625 -0.03125 4.046875 0 4.109375 0 L 4.109375 -0.25 C 3.65625 -0.25 3.59375 -0.25 3.59375 -0.546875 Z M 3.59375 -2.109375 "
           id="path6970" />
      </symbol>
    </g>
    <g
       id="g8198">
      <symbol
         overflow="visible"
         id="symbol1646">
        <path
           style="stroke:none;"
           d=""
           id="path4097" />
      </symbol>
      <symbol
         overflow="visible"
         id="symbol6734">
        <path
           style="stroke:none;"
           d="M 2.046875 -3.984375 L 2.984375 -3.984375 C 3.1875 -3.984375 3.296875 -3.984375 3.296875 -4.1875 C 3.296875 -4.296875 3.1875 -4.296875 3.015625 -4.296875 L 2.140625 -4.296875 C 2.5 -5.71875 2.546875 -5.90625 2.546875 -5.96875 C 2.546875 -6.140625 2.421875 -6.234375 2.25 -6.234375 C 2.21875 -6.234375 1.9375 -6.234375 1.859375 -5.875 L 1.46875 -4.296875 L 0.53125 -4.296875 C 0.328125 -4.296875 0.234375 -4.296875 0.234375 -4.109375 C 0.234375 -3.984375 0.3125 -3.984375 0.515625 -3.984375 L 1.390625 -3.984375 C 0.671875 -1.15625 0.625 -0.984375 0.625 -0.8125 C 0.625 -0.265625 1 0.109375 1.546875 0.109375 C 2.5625 0.109375 3.125 -1.34375 3.125 -1.421875 C 3.125 -1.53125 3.046875 -1.53125 3.015625 -1.53125 C 2.921875 -1.53125 2.90625 -1.5 2.859375 -1.390625 C 2.4375 -0.34375 1.90625 -0.109375 1.5625 -0.109375 C 1.359375 -0.109375 1.25 -0.234375 1.25 -0.5625 C 1.25 -0.8125 1.28125 -0.875 1.3125 -1.046875 Z M 2.046875 -3.984375 "
           id="path3263" />
      </symbol>
      <symbol
         overflow="visible"
         id="symbol7616">
        <path
           style="stroke:none;"
           d=""
           id="path2337" />
      </symbol>
      <symbol
         overflow="visible"
         id="symbol8525">
        <path
           style="stroke:none;"
           d="M 5.734375 -2.109375 C 5.734375 -2.71875 5.421875 -3.078125 4.6875 -3.078125 C 4.125 -3.078125 3.75 -2.78125 3.5625 -2.421875 C 3.421875 -2.921875 3.046875 -3.078125 2.546875 -3.078125 C 1.96875 -3.078125 1.609375 -2.765625 1.40625 -2.390625 L 1.40625 -3.078125 L 0.375 -3 L 0.375 -2.75 C 0.84375 -2.75 0.90625 -2.703125 0.90625 -2.359375 L 0.90625 -0.546875 C 0.90625 -0.25 0.828125 -0.25 0.375 -0.25 L 0.375 0 C 0.390625 0 0.875 -0.03125 1.171875 -0.03125 C 1.421875 -0.03125 1.90625 0 1.96875 0 L 1.96875 -0.25 C 1.515625 -0.25 1.453125 -0.25 1.453125 -0.546875 L 1.453125 -1.8125 C 1.453125 -2.53125 2.03125 -2.875 2.484375 -2.875 C 2.96875 -2.875 3.03125 -2.5 3.03125 -2.140625 L 3.03125 -0.546875 C 3.03125 -0.25 2.96875 -0.25 2.515625 -0.25 L 2.515625 0 C 2.53125 0 3.015625 -0.03125 3.3125 -0.03125 C 3.5625 -0.03125 4.046875 0 4.109375 0 L 4.109375 -0.25 C 3.65625 -0.25 3.59375 -0.25 3.59375 -0.546875 L 3.59375 -1.8125 C 3.59375 -2.53125 4.171875 -2.875 4.625 -2.875 C 5.109375 -2.875 5.171875 -2.5 5.171875 -2.140625 L 5.171875 -0.546875 C 5.171875 -0.25 5.109375 -0.25 4.65625 -0.25 L 4.65625 0 C 4.671875 0 5.15625 -0.03125 5.453125 -0.03125 C 5.703125 -0.03125 6.1875 0 6.25 0 L 6.25 -0.25 C 5.796875 -0.25 5.734375 -0.25 5.734375 -0.546875 Z M 5.734375 -2.109375 "
           id="path5131" />
      </symbol>
      <symbol
         overflow="visible"
         id="symbol918">
        <path
           style="stroke:none;"
           d="M 1.46875 -4.296875 C 1.46875 -4.5 1.296875 -4.703125 1.0625 -4.703125 C 0.859375 -4.703125 0.671875 -4.53125 0.671875 -4.296875 C 0.671875 -4.046875 0.875 -3.890625 1.0625 -3.890625 C 1.296875 -3.890625 1.46875 -4.0625 1.46875 -4.296875 Z M 0.40625 -3 L 0.40625 -2.75 C 0.84375 -2.75 0.90625 -2.703125 0.90625 -2.359375 L 0.90625 -0.546875 C 0.90625 -0.25 0.84375 -0.25 0.390625 -0.25 L 0.390625 0 C 0.40625 0 0.890625 -0.03125 1.171875 -0.03125 C 1.421875 -0.03125 1.671875 -0.015625 1.90625 0 L 1.90625 -0.25 C 1.5 -0.25 1.4375 -0.25 1.4375 -0.546875 L 1.4375 -3.078125 Z M 0.40625 -3 "
           id="path1382" />
      </symbol>
      <symbol
         overflow="visible"
         id="symbol8618">
        <path
           style="stroke:none;"
           d="M 3.59375 -2.109375 C 3.59375 -2.71875 3.296875 -3.078125 2.546875 -3.078125 C 1.96875 -3.078125 1.609375 -2.765625 1.40625 -2.390625 L 1.40625 -3.078125 L 0.375 -3 L 0.375 -2.75 C 0.84375 -2.75 0.90625 -2.703125 0.90625 -2.359375 L 0.90625 -0.546875 C 0.90625 -0.25 0.828125 -0.25 0.375 -0.25 L 0.375 0 C 0.390625 0 0.875 -0.03125 1.171875 -0.03125 C 1.421875 -0.03125 1.90625 0 1.96875 0 L 1.96875 -0.25 C 1.515625 -0.25 1.453125 -0.25 1.453125 -0.546875 L 1.453125 -1.8125 C 1.453125 -2.53125 2.03125 -2.875 2.484375 -2.875 C 2.96875 -2.875 3.03125 -2.5 3.03125 -2.140625 L 3.03125 -0.546875 C 3.03125 -0.25 2.96875 -0.25 2.515625 -0.25 L 2.515625 0 C 2.53125 0 3.015625 -0.03125 3.3125 -0.03125 C 3.5625 -0.03125 4.046875 0 4.109375 0 L 4.109375 -0.25 C 3.65625 -0.25 3.59375 -0.25 3.59375 -0.546875 Z M 3.59375 -2.109375 "
           id="path9466" />
      </symbol>
    </g>
    <g
       id="g7992">
      <symbol
         overflow="visible"
         id="symbol7187">
        <path
           style="stroke:none;"
           d=""
           id="path2740" />
      </symbol>
      <symbol
         overflow="visible"
         id="symbol332">
        <path
           style="stroke:none;"
           d="M 2.046875 -3.984375 L 2.984375 -3.984375 C 3.1875 -3.984375 3.296875 -3.984375 3.296875 -4.1875 C 3.296875 -4.296875 3.1875 -4.296875 3.015625 -4.296875 L 2.140625 -4.296875 C 2.5 -5.71875 2.546875 -5.90625 2.546875 -5.96875 C 2.546875 -6.140625 2.421875 -6.234375 2.25 -6.234375 C 2.21875 -6.234375 1.9375 -6.234375 1.859375 -5.875 L 1.46875 -4.296875 L 0.53125 -4.296875 C 0.328125 -4.296875 0.234375 -4.296875 0.234375 -4.109375 C 0.234375 -3.984375 0.3125 -3.984375 0.515625 -3.984375 L 1.390625 -3.984375 C 0.671875 -1.15625 0.625 -0.984375 0.625 -0.8125 C 0.625 -0.265625 1 0.109375 1.546875 0.109375 C 2.5625 0.109375 3.125 -1.34375 3.125 -1.421875 C 3.125 -1.53125 3.046875 -1.53125 3.015625 -1.53125 C 2.921875 -1.53125 2.90625 -1.5 2.859375 -1.390625 C 2.4375 -0.34375 1.90625 -0.109375 1.5625 -0.109375 C 1.359375 -0.109375 1.25 -0.234375 1.25 -0.5625 C 1.25 -0.8125 1.28125 -0.875 1.3125 -1.046875 Z M 2.046875 -3.984375 "
           id="path6314" />
      </symbol>
      <symbol
         overflow="visible"
         id="symbol7064">
        <path
           style="stroke:none;"
           d=""
           id="path23" />
      </symbol>
      <symbol
         overflow="visible"
         id="symbol9765">
        <path
           style="stroke:none;"
           d="M 5.734375 -2.109375 C 5.734375 -2.71875 5.421875 -3.078125 4.6875 -3.078125 C 4.125 -3.078125 3.75 -2.78125 3.5625 -2.421875 C 3.421875 -2.921875 3.046875 -3.078125 2.546875 -3.078125 C 1.96875 -3.078125 1.609375 -2.765625 1.40625 -2.390625 L 1.40625 -3.078125 L 0.375 -3 L 0.375 -2.75 C 0.84375 -2.75 0.90625 -2.703125 0.90625 -2.359375 L 0.90625 -0.546875 C 0.90625 -0.25 0.828125 -0.25 0.375 -0.25 L 0.375 0 C 0.390625 0 0.875 -0.03125 1.171875 -0.03125 C 1.421875 -0.03125 1.90625 0 1.96875 0 L 1.96875 -0.25 C 1.515625 -0.25 1.453125 -0.25 1.453125 -0.546875 L 1.453125 -1.8125 C 1.453125 -2.53125 2.03125 -2.875 2.484375 -2.875 C 2.96875 -2.875 3.03125 -2.5 3.03125 -2.140625 L 3.03125 -0.546875 C 3.03125 -0.25 2.96875 -0.25 2.515625 -0.25 L 2.515625 0 C 2.53125 0 3.015625 -0.03125 3.3125 -0.03125 C 3.5625 -0.03125 4.046875 0 4.109375 0 L 4.109375 -0.25 C 3.65625 -0.25 3.59375 -0.25 3.59375 -0.546875 L 3.59375 -1.8125 C 3.59375 -2.53125 4.171875 -2.875 4.625 -2.875 C 5.109375 -2.875 5.171875 -2.5 5.171875 -2.140625 L 5.171875 -0.546875 C 5.171875 -0.25 5.109375 -0.25 4.65625 -0.25 L 4.65625 0 C 4.671875 0 5.15625 -0.03125 5.453125 -0.03125 C 5.703125 -0.03125 6.1875 0 6.25 0 L 6.25 -0.25 C 5.796875 -0.25 5.734375 -0.25 5.734375 -0.546875 Z M 5.734375 -2.109375 "
           id="path3542" />
      </symbol>
      <symbol
         overflow="visible"
         id="symbol6592">
        <path
           style="stroke:none;"
           d="M 3.109375 -1.875 C 3.109375 -2.234375 3.109375 -2.5 2.78125 -2.765625 C 2.5 -3 2.171875 -3.109375 1.75 -3.109375 C 1.09375 -3.109375 0.625 -2.859375 0.625 -2.4375 C 0.625 -2.203125 0.78125 -2.09375 0.96875 -2.09375 C 1.15625 -2.09375 1.296875 -2.234375 1.296875 -2.421875 C 1.296875 -2.53125 1.234375 -2.6875 1.046875 -2.734375 C 1.296875 -2.90625 1.703125 -2.90625 1.734375 -2.90625 C 2.125 -2.90625 2.5625 -2.65625 2.5625 -2.0625 L 2.5625 -1.859375 C 2.171875 -1.84375 1.71875 -1.8125 1.203125 -1.625 C 0.578125 -1.40625 0.390625 -1.015625 0.390625 -0.703125 C 0.390625 -0.109375 1.109375 0.0625 1.609375 0.0625 C 2.15625 0.0625 2.484375 -0.25 2.640625 -0.515625 C 2.65625 -0.234375 2.84375 0.03125 3.171875 0.03125 C 3.1875 0.03125 3.859375 0.03125 3.859375 -0.625 L 3.859375 -1.015625 L 3.625 -1.015625 L 3.625 -0.640625 C 3.625 -0.5625 3.625 -0.234375 3.359375 -0.234375 C 3.109375 -0.234375 3.109375 -0.5625 3.109375 -0.640625 Z M 2.5625 -0.984375 C 2.5625 -0.3125 1.96875 -0.125 1.65625 -0.125 C 1.296875 -0.125 0.96875 -0.359375 0.96875 -0.703125 C 0.96875 -1.09375 1.296875 -1.625 2.5625 -1.671875 Z M 2.5625 -0.984375 "
           id="path7260" />
      </symbol>
      <symbol
         overflow="visible"
         id="symbol1997">
        <path
           style="stroke:none;"
           d="M 2.359375 -1.5625 C 2.359375 -1.5625 2.3125 -1.625 2.3125 -1.625 C 2.3125 -1.65625 2.765625 -2.140625 2.828125 -2.203125 C 3.078125 -2.484375 3.3125 -2.75 3.875 -2.75 L 3.875 -3 C 3.671875 -2.984375 3.46875 -2.96875 3.28125 -2.96875 C 3.078125 -2.96875 2.796875 -2.984375 2.59375 -3 L 2.59375 -2.75 C 2.703125 -2.734375 2.734375 -2.65625 2.734375 -2.59375 C 2.734375 -2.578125 2.734375 -2.46875 2.625 -2.359375 L 2.140625 -1.8125 L 1.5625 -2.46875 C 1.484375 -2.546875 1.484375 -2.578125 1.484375 -2.609375 C 1.484375 -2.703125 1.578125 -2.75 1.671875 -2.75 L 1.671875 -3 C 1.421875 -2.984375 1.15625 -2.96875 0.890625 -2.96875 C 0.6875 -2.96875 0.421875 -2.984375 0.21875 -3 L 0.21875 -2.75 C 0.53125 -2.75 0.71875 -2.75 0.90625 -2.546875 L 1.765625 -1.546875 C 1.78125 -1.53125 1.828125 -1.484375 1.828125 -1.46875 C 1.828125 -1.453125 1.296875 -0.875 1.234375 -0.796875 C 0.96875 -0.515625 0.734375 -0.265625 0.1875 -0.25 L 0.1875 0 C 0.390625 -0.015625 0.546875 -0.03125 0.765625 -0.03125 C 0.96875 -0.03125 1.25 -0.015625 1.453125 0 L 1.453125 -0.25 C 1.375 -0.265625 1.3125 -0.3125 1.3125 -0.40625 C 1.3125 -0.546875 1.390625 -0.640625 1.5 -0.75 L 2 -1.296875 L 2.59375 -0.59375 C 2.734375 -0.453125 2.734375 -0.4375 2.734375 -0.390625 C 2.734375 -0.265625 2.578125 -0.25 2.546875 -0.25 L 2.546875 0 C 2.609375 0 3.109375 -0.03125 3.328125 -0.03125 C 3.546875 -0.03125 3.78125 -0.015625 4 0 L 4 -0.25 C 3.53125 -0.25 3.484375 -0.296875 3.3125 -0.46875 Z M 2.359375 -1.5625 "
           id="path1674" />
      </symbol>
    </g>
    <g
       id="g7004">
      <symbol
         overflow="visible"
         id="symbol7247">
        <path
           style="stroke:none;"
           d=""
           id="path1715" />
      </symbol>
      <symbol
         overflow="visible"
         id="symbol4153">
        <path
           style="stroke:none;"
           d="M 2.046875 -3.984375 L 2.984375 -3.984375 C 3.1875 -3.984375 3.296875 -3.984375 3.296875 -4.1875 C 3.296875 -4.296875 3.1875 -4.296875 3.015625 -4.296875 L 2.140625 -4.296875 C 2.5 -5.71875 2.546875 -5.90625 2.546875 -5.96875 C 2.546875 -6.140625 2.421875 -6.234375 2.25 -6.234375 C 2.21875 -6.234375 1.9375 -6.234375 1.859375 -5.875 L 1.46875 -4.296875 L 0.53125 -4.296875 C 0.328125 -4.296875 0.234375 -4.296875 0.234375 -4.109375 C 0.234375 -3.984375 0.3125 -3.984375 0.515625 -3.984375 L 1.390625 -3.984375 C 0.671875 -1.15625 0.625 -0.984375 0.625 -0.8125 C 0.625 -0.265625 1 0.109375 1.546875 0.109375 C 2.5625 0.109375 3.125 -1.34375 3.125 -1.421875 C 3.125 -1.53125 3.046875 -1.53125 3.015625 -1.53125 C 2.921875 -1.53125 2.90625 -1.5 2.859375 -1.390625 C 2.4375 -0.34375 1.90625 -0.109375 1.5625 -0.109375 C 1.359375 -0.109375 1.25 -0.234375 1.25 -0.5625 C 1.25 -0.8125 1.28125 -0.875 1.3125 -1.046875 Z M 2.046875 -3.984375 "
           id="path5614" />
      </symbol>
      <symbol
         overflow="visible"
         id="symbol9380">
        <path
           style="stroke:none;"
           d=""
           id="path5732" />
      </symbol>
      <symbol
         overflow="visible"
         id="symbol2750">
        <path
           style="stroke:none;"
           d="M 5.734375 -2.109375 C 5.734375 -2.71875 5.421875 -3.078125 4.6875 -3.078125 C 4.125 -3.078125 3.75 -2.78125 3.5625 -2.421875 C 3.421875 -2.921875 3.046875 -3.078125 2.546875 -3.078125 C 1.96875 -3.078125 1.609375 -2.765625 1.40625 -2.390625 L 1.40625 -3.078125 L 0.375 -3 L 0.375 -2.75 C 0.84375 -2.75 0.90625 -2.703125 0.90625 -2.359375 L 0.90625 -0.546875 C 0.90625 -0.25 0.828125 -0.25 0.375 -0.25 L 0.375 0 C 0.390625 0 0.875 -0.03125 1.171875 -0.03125 C 1.421875 -0.03125 1.90625 0 1.96875 0 L 1.96875 -0.25 C 1.515625 -0.25 1.453125 -0.25 1.453125 -0.546875 L 1.453125 -1.8125 C 1.453125 -2.53125 2.03125 -2.875 2.484375 -2.875 C 2.96875 -2.875 3.03125 -2.5 3.03125 -2.140625 L 3.03125 -0.546875 C 3.03125 -0.25 2.96875 -0.25 2.515625 -0.25 L 2.515625 0 C 2.53125 0 3.015625 -0.03125 3.3125 -0.03125 C 3.5625 -0.03125 4.046875 0 4.109375 0 L 4.109375 -0.25 C 3.65625 -0.25 3.59375 -0.25 3.59375 -0.546875 L 3.59375 -1.8125 C 3.59375 -2.53125 4.171875 -2.875 4.625 -2.875 C 5.109375 -2.875 5.171875 -2.5 5.171875 -2.140625 L 5.171875 -0.546875 C 5.171875 -0.25 5.109375 -0.25 4.65625 -0.25 L 4.65625 0 C 4.671875 0 5.15625 -0.03125 5.453125 -0.03125 C 5.703125 -0.03125 6.1875 0 6.25 0 L 6.25 -0.25 C 5.796875 -0.25 5.734375 -0.25 5.734375 -0.546875 Z M 5.734375 -2.109375 "
           id="path2295" />
      </symbol>
      <symbol
         overflow="visible"
         id="symbol7888">
        <path
           style="stroke:none;"
           d="M 3.109375 -1.875 C 3.109375 -2.234375 3.109375 -2.5 2.78125 -2.765625 C 2.5 -3 2.171875 -3.109375 1.75 -3.109375 C 1.09375 -3.109375 0.625 -2.859375 0.625 -2.4375 C 0.625 -2.203125 0.78125 -2.09375 0.96875 -2.09375 C 1.15625 -2.09375 1.296875 -2.234375 1.296875 -2.421875 C 1.296875 -2.53125 1.234375 -2.6875 1.046875 -2.734375 C 1.296875 -2.90625 1.703125 -2.90625 1.734375 -2.90625 C 2.125 -2.90625 2.5625 -2.65625 2.5625 -2.0625 L 2.5625 -1.859375 C 2.171875 -1.84375 1.71875 -1.8125 1.203125 -1.625 C 0.578125 -1.40625 0.390625 -1.015625 0.390625 -0.703125 C 0.390625 -0.109375 1.109375 0.0625 1.609375 0.0625 C 2.15625 0.0625 2.484375 -0.25 2.640625 -0.515625 C 2.65625 -0.234375 2.84375 0.03125 3.171875 0.03125 C 3.1875 0.03125 3.859375 0.03125 3.859375 -0.625 L 3.859375 -1.015625 L 3.625 -1.015625 L 3.625 -0.640625 C 3.625 -0.5625 3.625 -0.234375 3.359375 -0.234375 C 3.109375 -0.234375 3.109375 -0.5625 3.109375 -0.640625 Z M 2.5625 -0.984375 C 2.5625 -0.3125 1.96875 -0.125 1.65625 -0.125 C 1.296875 -0.125 0.96875 -0.359375 0.96875 -0.703125 C 0.96875 -1.09375 1.296875 -1.625 2.5625 -1.671875 Z M 2.5625 -0.984375 "
           id="path1504" />
      </symbol>
      <symbol
         overflow="visible"
         id="symbol5441">
        <path
           style="stroke:none;"
           d="M 2.359375 -1.5625 C 2.359375 -1.5625 2.3125 -1.625 2.3125 -1.625 C 2.3125 -1.65625 2.765625 -2.140625 2.828125 -2.203125 C 3.078125 -2.484375 3.3125 -2.75 3.875 -2.75 L 3.875 -3 C 3.671875 -2.984375 3.46875 -2.96875 3.28125 -2.96875 C 3.078125 -2.96875 2.796875 -2.984375 2.59375 -3 L 2.59375 -2.75 C 2.703125 -2.734375 2.734375 -2.65625 2.734375 -2.59375 C 2.734375 -2.578125 2.734375 -2.46875 2.625 -2.359375 L 2.140625 -1.8125 L 1.5625 -2.46875 C 1.484375 -2.546875 1.484375 -2.578125 1.484375 -2.609375 C 1.484375 -2.703125 1.578125 -2.75 1.671875 -2.75 L 1.671875 -3 C 1.421875 -2.984375 1.15625 -2.96875 0.890625 -2.96875 C 0.6875 -2.96875 0.421875 -2.984375 0.21875 -3 L 0.21875 -2.75 C 0.53125 -2.75 0.71875 -2.75 0.90625 -2.546875 L 1.765625 -1.546875 C 1.78125 -1.53125 1.828125 -1.484375 1.828125 -1.46875 C 1.828125 -1.453125 1.296875 -0.875 1.234375 -0.796875 C 0.96875 -0.515625 0.734375 -0.265625 0.1875 -0.25 L 0.1875 0 C 0.390625 -0.015625 0.546875 -0.03125 0.765625 -0.03125 C 0.96875 -0.03125 1.25 -0.015625 1.453125 0 L 1.453125 -0.25 C 1.375 -0.265625 1.3125 -0.3125 1.3125 -0.40625 C 1.3125 -0.546875 1.390625 -0.640625 1.5 -0.75 L 2 -1.296875 L 2.59375 -0.59375 C 2.734375 -0.453125 2.734375 -0.4375 2.734375 -0.390625 C 2.734375 -0.265625 2.578125 -0.25 2.546875 -0.25 L 2.546875 0 C 2.609375 0 3.109375 -0.03125 3.328125 -0.03125 C 3.546875 -0.03125 3.78125 -0.015625 4 0 L 4 -0.25 C 3.53125 -0.25 3.484375 -0.296875 3.3125 -0.46875 Z M 2.359375 -1.5625 "
           id="path1870" />
      </symbol>
    </g>
    <rect
       x="194.6403"
       y="20.422644"
       width="51.681793"
       height="42.512444"
       id="rect3903-1" />
    <rect
       x="194.6403"
       y="20.422644"
       width="51.681793"
       height="42.512444"
       id="rect3916" />
    <rect
       x="194.6403"
       y="20.422644"
       width="51.681793"
       height="42.512444"
       id="rect3903-2" />
    <rect
       x="194.6403"
       y="20.422644"
       width="51.681793"
       height="42.512444"
       id="rect3916-9" />
    <rect
       x="194.6403"
       y="20.422644"
       width="51.681793"
       height="42.512444"
       id="rect3903-2-4" />
    <rect
       x="194.6403"
       y="20.422644"
       width="51.681793"
       height="42.512444"
       id="rect3974" />
    <rect
       x="194.6403"
       y="20.422644"
       width="51.681793"
       height="42.512444"
       id="rect3903-2-4-7" />
    <rect
       x="194.6403"
       y="20.422644"
       width="51.681793"
       height="42.512444"
       id="rect4004" />
    <rect
       x="194.6403"
       y="20.422644"
       width="51.681793"
       height="42.512444"
       id="rect3903-2-4-7-2" />
    <rect
       x="194.6403"
       y="20.422644"
       width="51.681793"
       height="42.512444"
       id="rect4034" />
  </defs>
  <title
     id="title2277">kd skip a node</title>
  <rect
     class="cls-1"
     x="31.91"
     y="57.85"
     width="143.88"
     height="143.88"
     id="rect2279" />
  <line
     class="cls-2"
     x1="125.94"
     y1="201.22"
     x2="125.94"
     y2="2.87"
     id="line2281" />
  <line
     class="cls-1"
     x1="104.32"
     y1="159.5"
     x2="8.08"
     y2="151.75"
     id="line2303" />
  <polygon
     points="13.41 146.66 8.73 151.8 12.53 157.63 0 151.1 13.41 146.66"
     id="polygon2305" />
  <polygon
     class="cls-3"
     points="11.76 147.73 1.31 151.2 8.1 151.75 11.76 147.73"
     id="polygon2307" />
  <polygon
     class="cls-4"
     points="11.07 156.3 1.31 151.2 8.1 151.75 11.07 156.3"
     id="polygon2309" />
  <line
     class="cls-2"
     x1="159.55"
     y1="163.96"
     x2="104.32"
     y2="159.5"
     id="line2311" />
  <line
     class="cls-1"
     x1="17.43"
     y1="80.73"
     x2="170.61"
     y2="25.68"
     id="line2313" />
  <polygon
     points="167.85 32.52 170 25.9 164.12 22.16 178.23 22.94 167.85 32.52"
     id="polygon2315" />
  <polygon
     class="cls-3"
     points="168.91 30.86 177 23.38 170.59 25.68 168.91 30.86"
     id="polygon2317" />
  <polygon
     class="cls-4"
     points="166 22.77 177 23.38 170.59 25.68 166 22.77"
     id="polygon2319" />
  <circle
     cx="81.17"
     cy="57.82"
     r="3.69"
     id="circle2321" />
  <circle
     cx="126.04"
     cy="41.65"
     r="3.69"
     id="circle2323" />
  <circle
     cx="32.04"
     cy="75.65"
     r="3.69"
     id="circle2325" />
  <circle
     class="cls-5"
     cx="126.2"
     cy="161.11"
     r="3.69"
     id="circle2327" />
  <rect
     class="cls-1"
     x="247.64"
     y="58.04"
     width="143.88"
     height="143.88"
     id="rect2369" />
  <line
     class="cls-2"
     x1="341.67"
     y1="201.4"
     x2="341.67"
     y2="3.06"
     id="line2371" />
  <circle
     cx="358.44"
     cy="58.01"
     r="3.69"
     id="circle2393" />
  <circle
     cx="341.03"
     cy="29.3"
     r="3.69"
     id="circle2395" />
  <circle
     cx="391.12"
     cy="115.89"
     r="3.69"
     id="circle2397" />
  <line
     class="cls-1"
     x1="325.54"
     y1="0.25"
     x2="418.61"
     y2="164.06"
     id="line2427" />
  <polygon
     points="411.4 162.51 418.29 163.49 420.97 157.07 422.62 171.1 411.4 162.51"
     id="polygon2429" />
  <polygon
     class="cls-3"
     points="413.22 163.27 421.97 169.96 418.6 164.04 413.22 163.27"
     id="polygon2431" />
  <polygon
     class="cls-4"
     points="420.69 159.02 421.97 169.96 418.6 164.04 420.69 159.02"
     id="polygon2433" />
  <g
     inkscape:label=""
     transform="matrix(1.6,0,0,1.6,-15.34799,-80.409977)"
     id="g2549">
    <g
       id="g7623">
      <g
         style="fill:#000000;fill-opacity:1"
         id="g3309">
        <use
           xlink:href="#symbol464"
           x="91.925003"
           y="81.962997"
           id="use5818"
           width="100%"
           height="100%" />
      </g>
      <g
         style="fill:#000000;fill-opacity:1"
         id="g2284">
        <use
           xlink:href="#symbol929"
           x="95.523003"
           y="83.457001"
           id="use6453"
           width="100%"
           height="100%" />
        <use
           xlink:href="#symbol7973"
           x="98.679344"
           y="83.457001"
           id="use6351"
           width="100%"
           height="100%" />
        <use
           xlink:href="#symbol6332"
           x="103.07981"
           y="83.457001"
           id="use7129"
           width="100%"
           height="100%" />
        <use
           xlink:href="#symbol9538"
           x="105.33514"
           y="83.457001"
           id="use6513"
           width="100%"
           height="100%" />
        <use
           xlink:href="#symbol6599"
           x="107.59046"
           y="83.457001"
           id="use7932"
           width="100%"
           height="100%" />
      </g>
    </g>
  </g>
  <g
     inkscape:label=""
     transform="matrix(1.6,0,0,1.6,203.51991,-99.82581)"
     id="g2715">
    <g
       id="g7167">
      <g
         style="fill:#000000;fill-opacity:1"
         id="g3250">
        <use
           xlink:href="#symbol4492"
           x="91.925003"
           y="81.962997"
           id="use4816"
           width="100%"
           height="100%" />
      </g>
      <g
         style="fill:#000000;fill-opacity:1"
         id="g8054">
        <use
           xlink:href="#symbol6556"
           x="95.523003"
           y="83.457001"
           id="use4116"
           width="100%"
           height="100%" />
        <use
           xlink:href="#symbol2847"
           x="98.679344"
           y="83.457001"
           id="use6035"
           width="100%"
           height="100%" />
        <use
           xlink:href="#symbol7237"
           x="103.07981"
           y="83.457001"
           id="use7177"
           width="100%"
           height="100%" />
        <use
           xlink:href="#symbol9490"
           x="105.33514"
           y="83.457001"
           id="use362"
           width="100%"
           height="100%" />
        <use
           xlink:href="#symbol1583"
           x="107.59046"
           y="83.457001"
           id="use9991"
           width="100%"
           height="100%" />
      </g>
    </g>
  </g>
  <g
     inkscape:label=""
     transform="matrix(1.6,0,0,1.6,-16.495433,20.519906)"
     id="g2908">
    <g
       id="g451">
      <g
         style="fill:#000000;fill-opacity:1"
         id="g7885">
        <use
           xlink:href="#symbol9518"
           x="91.925003"
           y="81.962997"
           id="use3080"
           width="100%"
           height="100%" />
      </g>
      <g
         style="fill:#000000;fill-opacity:1"
         id="g2952">
        <use
           xlink:href="#symbol7534"
           x="95.523003"
           y="83.457001"
           id="use7966"
           width="100%"
           height="100%" />
        <use
           xlink:href="#symbol1076"
           x="98.679344"
           y="83.457001"
           id="use5109"
           width="100%"
           height="100%" />
        <use
           xlink:href="#symbol1244"
           x="103.07981"
           y="83.457001"
           id="use1733"
           width="100%"
           height="100%" />
        <use
           xlink:href="#symbol726"
           x="105.33514"
           y="83.457001"
           id="use6817"
           width="100%"
           height="100%" />
        <use
           xlink:href="#symbol2057"
           x="107.59046"
           y="83.457001"
           id="use9277"
           width="100%"
           height="100%" />
      </g>
    </g>
  </g>
  <g
     inkscape:label=""
     transform="matrix(1.6,0,0,1.6,216.96189,-61.989603)"
     id="g3122">
    <g
       id="g8350">
      <g
         style="fill:#000000;fill-opacity:1"
         id="g5356">
        <use
           xlink:href="#symbol1465"
           x="91.925003"
           y="81.962997"
           id="use6790"
           width="100%"
           height="100%" />
      </g>
      <g
         style="fill:#000000;fill-opacity:1"
         id="g6282">
        <use
           xlink:href="#symbol7656"
           x="95.523003"
           y="83.457001"
           id="use4747"
           width="100%"
           height="100%" />
        <use
           xlink:href="#symbol9999"
           x="102.06791"
           y="83.457001"
           id="use561"
           width="100%"
           height="100%" />
        <use
           xlink:href="#symbol2306"
           x="104.32323"
           y="83.457001"
           id="use6832"
           width="100%"
           height="100%" />
      </g>
    </g>
  </g>
  <g
     inkscape:label=""
     transform="matrix(1.6,0,0,1.6,-111.00501,-40.772569)"
     id="g3352">
    <g
       id="g3708">
      <g
         style="fill:#000000;fill-opacity:1"
         id="g6525">
        <use
           xlink:href="#symbol6734"
           x="91.925003"
           y="81.962997"
           id="use1173"
           width="100%"
           height="100%" />
      </g>
      <g
         style="fill:#000000;fill-opacity:1"
         id="g5480">
        <use
           xlink:href="#symbol8525"
           x="95.523003"
           y="83.457001"
           id="use932"
           width="100%"
           height="100%" />
        <use
           xlink:href="#symbol918"
           x="102.06791"
           y="83.457001"
           id="use4819"
           width="100%"
           height="100%" />
        <use
           xlink:href="#symbol8618"
           x="104.32323"
           y="83.457001"
           id="use1671"
           width="100%"
           height="100%" />
      </g>
    </g>
  </g>
  <g
     inkscape:label=""
     transform="matrix(1.6,0,0,1.6,-65.928116,-55.634856)"
     id="g3603">
    <g
       id="g6713">
      <g
         style="fill:#000000;fill-opacity:1"
         id="g1367">
        <use
           xlink:href="#symbol332"
           x="91.925003"
           y="81.962997"
           id="use8335"
           width="100%"
           height="100%" />
      </g>
      <g
         style="fill:#000000;fill-opacity:1"
         id="g4536">
        <use
           xlink:href="#symbol9765"
           x="95.523003"
           y="83.457001"
           id="use1305"
           width="100%"
           height="100%" />
        <use
           xlink:href="#symbol6592"
           x="102.06791"
           y="83.457001"
           id="use2509"
           width="100%"
           height="100%" />
        <use
           xlink:href="#symbol1997"
           x="106.03949"
           y="83.457001"
           id="use6475"
           width="100%"
           height="100%" />
      </g>
    </g>
  </g>
  <g
     inkscape:label=""
     transform="matrix(1.6,0,0,1.6,212.3367,-6.3152736)"
     id="g3876">
    <g
       id="g3874">
      <g
         style="fill:#000000;fill-opacity:1"
         id="g5236">
        <use
           xlink:href="#symbol4153"
           x="91.925003"
           y="81.962997"
           id="use6446"
           width="100%"
           height="100%" />
      </g>
      <g
         style="fill:#000000;fill-opacity:1"
         id="g5915">
        <use
           xlink:href="#symbol2750"
           x="95.523003"
           y="83.457001"
           id="use60"
           width="100%"
           height="100%" />
        <use
           xlink:href="#symbol7888"
           x="102.06791"
           y="83.457001"
           id="use3360"
           width="100%"
           height="100%" />
        <use
           xlink:href="#symbol5441"
           x="106.03949"
           y="83.457001"
           id="use8476"
           width="100%"
           height="100%" />
      </g>
    </g>
  </g>
  <text
     xml:space="preserve"
     id="text3901"
     style="font-size:16px;line-height:1.25;font-family:'Times New Roman';-inkscape-font-specification:'Times New Roman, ';white-space:pre;shape-inside:url(#rect3903);"
     transform="translate(-131.70522,162.54758)"><tspan
       x="194.64062"
       y="34.623808"><tspan
         style="shape-inside:url(#rect3903)">Near</tspan></tspan></text>
  <text
     xml:space="preserve"
     id="text3901-1"
     style="font-size:16px;line-height:1.25;font-family:'Times New Roman';-inkscape-font-specification:'Times New Roman, ';white-space:pre;shape-inside:url(#rect3903-1);"
     transform="translate(88.291773,161.86969)"><tspan
       x="194.64062"
       y="34.623808"><tspan
         style="shape-inside:url(#rect3903-1)">Near</tspan></tspan></text>
  <text
     xml:space="preserve"
     id="text3901-3"
     style="font-size:16px;line-height:1.25;font-family:'Times New Roman';-inkscape-font-specification:'Times New Roman, ';white-space:pre;shape-inside:url(#rect3903-2);"
     transform="translate(-55.917103,162.70327)"><tspan
       x="194.64062"
       y="34.623808"><tspan
         style="shape-inside:url(#rect3903-2)">Far</tspan></tspan></text>
  <text
     xml:space="preserve"
     id="text3901-3-1"
     style="font-size:16px;line-height:1.25;font-family:'Times New Roman';-inkscape-font-specification:'Times New Roman, ';white-space:pre;shape-inside:url(#rect3903-2-4);"
     transform="translate(162.12323,163.1552)"><tspan
       x="194.64062"
       y="34.623808"><tspan
         style="shape-inside:url(#rect3903-2-4)">Far</tspan></tspan></text>
  <text
     xml:space="preserve"
     id="text3901-3-1-4"
     style="font-size:16px;line-height:1.25;font-family:'Times New Roman';-inkscape-font-specification:'Times New Roman, ';white-space:pre;shape-inside:url(#rect3903-2-4-7);"
     transform="translate(-172.97486,187.74574)"><tspan
       x="194.64062"
       y="34.623808"><tspan
         style="shape-inside:url(#rect3903-2-4-7)">(a)</tspan></tspan></text>
  <text
     xml:space="preserve"
     id="text3901-3-1-4-2"
     style="font-size:16px;line-height:1.25;font-family:'Times New Roman';-inkscape-font-specification:'Times New Roman, ';white-space:pre;shape-inside:url(#rect3903-2-4-7-2);"
     transform="translate(41.968988,188.45077)"><tspan
       x="194.64062"
       y="34.623808"><tspan
         style="shape-inside:url(#rect3903-2-4-7-2)">(b)</tspan></tspan></text>
</svg>
