<?xml version="1.0" encoding="UTF-8" standalone="no"?>
<svg
   xmlns:dc="http://purl.org/dc/elements/1.1/"
   xmlns:cc="http://creativecommons.org/ns#"
   xmlns:rdf="http://www.w3.org/1999/02/22-rdf-syntax-ns#"
   xmlns:svg="http://www.w3.org/2000/svg"
   xmlns="http://www.w3.org/2000/svg"
   xmlns:xlink="http://www.w3.org/1999/xlink"
   xmlns:sodipodi="http://sodipodi.sourceforge.net/DTD/sodipodi-0.dtd"
   xmlns:inkscape="http://www.inkscape.org/namespaces/inkscape"
   sodipodi:docname="kdtreeprojectedbboxes.svg"
   version="1.1"
   viewBox="0 0 375.71 171.56"
   data-name="Layer 1"
   id="Layer_1"
   inkscape:version="1.0.1 (3bc2e813f5, 2020-09-07)">
  <metadata
     id="metadata1738">
    <rdf:RDF>
      <cc:Work
         rdf:about="">
        <dc:format>image/svg+xml</dc:format>
        <dc:type
           rdf:resource="http://purl.org/dc/dcmitype/StillImage" />
      </cc:Work>
    </rdf:RDF>
  </metadata>
  <sodipodi:namedview
     pagecolor="#ffffff"
     bordercolor="#666666"
     borderopacity="1"
     objecttolerance="10"
     gridtolerance="10"
     guidetolerance="10"
     inkscape:pageopacity="0"
     inkscape:pageshadow="2"
     inkscape:window-width="1920"
     inkscape:window-height="1017"
     id="namedview1736"
     showgrid="false"
     inkscape:zoom="2.9277901"
     inkscape:cx="187.85399"
     inkscape:cy="85.849073"
     inkscape:window-x="1912"
     inkscape:window-y="-8"
     inkscape:window-maximized="1"
     inkscape:current-layer="Layer_1"
     inkscape:document-rotation="0"
     showguides="true"
     inkscape:guide-bbox="true" />
  <defs
     id="defs1673">
    <style
       id="style1671">.cls-1,.cls-4{fill:none;stroke:#000;stroke-miterlimit:10;}.cls-2{fill:#a6a6a6;}.cls-3{fill:#666;}.cls-4{stroke-dasharray:2;}</style>
    <g
       id="g2159">
      <symbol
         overflow="visible"
         id="symbol4663">
        <path
           style="stroke:none;"
           d=""
           id="path1584" />
      </symbol>
      <symbol
         overflow="visible"
         id="symbol8559">
        <path
           style="stroke:none;"
           d="M 1.78125 -1.140625 C 1.390625 -0.484375 1 -0.34375 0.5625 -0.3125 C 0.4375 -0.296875 0.34375 -0.296875 0.34375 -0.109375 C 0.34375 -0.046875 0.40625 0 0.484375 0 C 0.75 0 1.0625 -0.03125 1.328125 -0.03125 C 1.671875 -0.03125 2.015625 0 2.328125 0 C 2.390625 0 2.515625 0 2.515625 -0.1875 C 2.515625 -0.296875 2.4375 -0.3125 2.359375 -0.3125 C 2.140625 -0.328125 1.890625 -0.40625 1.890625 -0.65625 C 1.890625 -0.78125 1.953125 -0.890625 2.03125 -1.03125 L 2.796875 -2.296875 L 5.296875 -2.296875 C 5.3125 -2.09375 5.453125 -0.734375 5.453125 -0.640625 C 5.453125 -0.34375 4.9375 -0.3125 4.734375 -0.3125 C 4.59375 -0.3125 4.5 -0.3125 4.5 -0.109375 C 4.5 0 4.609375 0 4.640625 0 C 5.046875 0 5.46875 -0.03125 5.875 -0.03125 C 6.125 -0.03125 6.765625 0 7.015625 0 C 7.0625 0 7.1875 0 7.1875 -0.203125 C 7.1875 -0.3125 7.09375 -0.3125 6.953125 -0.3125 C 6.34375 -0.3125 6.34375 -0.375 6.3125 -0.671875 L 5.703125 -6.890625 C 5.6875 -7.09375 5.6875 -7.140625 5.515625 -7.140625 C 5.359375 -7.140625 5.3125 -7.0625 5.25 -6.96875 Z M 2.984375 -2.609375 L 4.9375 -5.90625 L 5.265625 -2.609375 Z M 2.984375 -2.609375 "
           id="path1419" />
      </symbol>
    </g>
    <g
       id="g1399">
      <symbol
         overflow="visible"
         id="symbol2035">
        <path
           style="stroke:none;"
           d=""
           id="path2208" />
      </symbol>
      <symbol
         overflow="visible"
         id="symbol5582">
        <path
           style="stroke:none;"
           d="M 1.59375 -0.78125 C 1.5 -0.390625 1.46875 -0.3125 0.6875 -0.3125 C 0.515625 -0.3125 0.421875 -0.3125 0.421875 -0.109375 C 0.421875 0 0.515625 0 0.6875 0 L 4.25 0 C 5.828125 0 7 -1.171875 7 -2.15625 C 7 -2.875 6.421875 -3.453125 5.453125 -3.5625 C 6.484375 -3.75 7.53125 -4.484375 7.53125 -5.4375 C 7.53125 -6.171875 6.875 -6.8125 5.6875 -6.8125 L 2.328125 -6.8125 C 2.140625 -6.8125 2.046875 -6.8125 2.046875 -6.609375 C 2.046875 -6.5 2.140625 -6.5 2.328125 -6.5 C 2.34375 -6.5 2.53125 -6.5 2.703125 -6.484375 C 2.875 -6.453125 2.96875 -6.453125 2.96875 -6.3125 C 2.96875 -6.28125 2.953125 -6.25 2.9375 -6.125 Z M 3.09375 -3.65625 L 3.71875 -6.125 C 3.8125 -6.46875 3.828125 -6.5 4.25 -6.5 L 5.546875 -6.5 C 6.421875 -6.5 6.625 -5.90625 6.625 -5.46875 C 6.625 -4.59375 5.765625 -3.65625 4.5625 -3.65625 Z M 2.65625 -0.3125 C 2.515625 -0.3125 2.5 -0.3125 2.4375 -0.3125 C 2.328125 -0.328125 2.296875 -0.34375 2.296875 -0.421875 C 2.296875 -0.453125 2.296875 -0.46875 2.359375 -0.640625 L 3.046875 -3.421875 L 4.921875 -3.421875 C 5.875 -3.421875 6.078125 -2.6875 6.078125 -2.265625 C 6.078125 -1.28125 5.1875 -0.3125 4 -0.3125 Z M 2.65625 -0.3125 "
           id="path1533" />
      </symbol>
    </g>
    <g
       id="g6971">
      <symbol
         overflow="visible"
         id="symbol4643">
        <path
           style="stroke:none;"
           d=""
           id="path752" />
      </symbol>
      <symbol
         overflow="visible"
         id="symbol2666">
        <path
           style="stroke:none;"
           d="M 7.578125 -6.921875 C 7.578125 -6.953125 7.5625 -7.03125 7.46875 -7.03125 C 7.4375 -7.03125 7.421875 -7.015625 7.3125 -6.90625 L 6.625 -6.140625 C 6.53125 -6.28125 6.078125 -7.03125 4.96875 -7.03125 C 2.734375 -7.03125 0.5 -4.828125 0.5 -2.515625 C 0.5 -0.875 1.671875 0.21875 3.203125 0.21875 C 4.0625 0.21875 4.828125 -0.171875 5.359375 -0.640625 C 6.28125 -1.453125 6.453125 -2.359375 6.453125 -2.390625 C 6.453125 -2.5 6.34375 -2.5 6.328125 -2.5 C 6.265625 -2.5 6.21875 -2.46875 6.203125 -2.390625 C 6.109375 -2.109375 5.875 -1.390625 5.1875 -0.8125 C 4.5 -0.265625 3.875 -0.09375 3.359375 -0.09375 C 2.46875 -0.09375 1.40625 -0.609375 1.40625 -2.15625 C 1.40625 -2.734375 1.609375 -4.34375 2.609375 -5.515625 C 3.21875 -6.21875 4.15625 -6.71875 5.046875 -6.71875 C 6.0625 -6.71875 6.65625 -5.953125 6.65625 -4.796875 C 6.65625 -4.390625 6.625 -4.390625 6.625 -4.28125 C 6.625 -4.1875 6.734375 -4.1875 6.765625 -4.1875 C 6.890625 -4.1875 6.890625 -4.203125 6.953125 -4.390625 Z M 7.578125 -6.921875 "
           id="path8544" />
      </symbol>
    </g>
    <g
       id="g1426">
      <symbol
         overflow="visible"
         id="symbol4599">
        <path
           style="stroke:none;"
           d=""
           id="path8640" />
      </symbol>
      <symbol
         overflow="visible"
         id="symbol3827">
        <path
           style="stroke:none;"
           d="M 3.328125 -3.015625 C 3.390625 -3.265625 3.625 -4.1875 4.3125 -4.1875 C 4.359375 -4.1875 4.609375 -4.1875 4.8125 -4.0625 C 4.53125 -4 4.34375 -3.765625 4.34375 -3.515625 C 4.34375 -3.359375 4.453125 -3.171875 4.71875 -3.171875 C 4.9375 -3.171875 5.25 -3.34375 5.25 -3.75 C 5.25 -4.265625 4.671875 -4.40625 4.328125 -4.40625 C 3.75 -4.40625 3.40625 -3.875 3.28125 -3.65625 C 3.03125 -4.3125 2.5 -4.40625 2.203125 -4.40625 C 1.171875 -4.40625 0.59375 -3.125 0.59375 -2.875 C 0.59375 -2.765625 0.703125 -2.765625 0.71875 -2.765625 C 0.796875 -2.765625 0.828125 -2.796875 0.84375 -2.875 C 1.1875 -3.9375 1.84375 -4.1875 2.1875 -4.1875 C 2.375 -4.1875 2.71875 -4.09375 2.71875 -3.515625 C 2.71875 -3.203125 2.546875 -2.546875 2.1875 -1.140625 C 2.03125 -0.53125 1.671875 -0.109375 1.234375 -0.109375 C 1.171875 -0.109375 0.953125 -0.109375 0.734375 -0.234375 C 0.984375 -0.296875 1.203125 -0.5 1.203125 -0.78125 C 1.203125 -1.046875 0.984375 -1.125 0.84375 -1.125 C 0.53125 -1.125 0.296875 -0.875 0.296875 -0.546875 C 0.296875 -0.09375 0.78125 0.109375 1.21875 0.109375 C 1.890625 0.109375 2.25 -0.59375 2.265625 -0.640625 C 2.390625 -0.28125 2.75 0.109375 3.34375 0.109375 C 4.375 0.109375 4.9375 -1.171875 4.9375 -1.421875 C 4.9375 -1.53125 4.859375 -1.53125 4.828125 -1.53125 C 4.734375 -1.53125 4.71875 -1.484375 4.6875 -1.421875 C 4.359375 -0.34375 3.6875 -0.109375 3.375 -0.109375 C 2.984375 -0.109375 2.828125 -0.421875 2.828125 -0.765625 C 2.828125 -0.984375 2.875 -1.203125 2.984375 -1.640625 Z M 3.328125 -3.015625 "
           id="path8569" />
      </symbol>
    </g>
    <g
       id="g6155">
      <symbol
         overflow="visible"
         id="symbol9898">
        <path
           style="stroke:none;"
           d=""
           id="path9894" />
      </symbol>
      <symbol
         overflow="visible"
         id="symbol2392">
        <path
           style="stroke:none;"
           d="M 3.71875 -3.765625 C 3.53125 -4.140625 3.25 -4.40625 2.796875 -4.40625 C 1.640625 -4.40625 0.40625 -2.9375 0.40625 -1.484375 C 0.40625 -0.546875 0.953125 0.109375 1.71875 0.109375 C 1.921875 0.109375 2.421875 0.0625 3.015625 -0.640625 C 3.09375 -0.21875 3.453125 0.109375 3.921875 0.109375 C 4.28125 0.109375 4.5 -0.125 4.671875 -0.4375 C 4.828125 -0.796875 4.96875 -1.40625 4.96875 -1.421875 C 4.96875 -1.53125 4.875 -1.53125 4.84375 -1.53125 C 4.75 -1.53125 4.734375 -1.484375 4.703125 -1.34375 C 4.53125 -0.703125 4.359375 -0.109375 3.953125 -0.109375 C 3.671875 -0.109375 3.65625 -0.375 3.65625 -0.5625 C 3.65625 -0.78125 3.671875 -0.875 3.78125 -1.3125 C 3.890625 -1.71875 3.90625 -1.828125 4 -2.203125 L 4.359375 -3.59375 C 4.421875 -3.875 4.421875 -3.890625 4.421875 -3.9375 C 4.421875 -4.109375 4.3125 -4.203125 4.140625 -4.203125 C 3.890625 -4.203125 3.75 -3.984375 3.71875 -3.765625 Z M 3.078125 -1.1875 C 3.015625 -1 3.015625 -0.984375 2.875 -0.8125 C 2.4375 -0.265625 2.03125 -0.109375 1.75 -0.109375 C 1.25 -0.109375 1.109375 -0.65625 1.109375 -1.046875 C 1.109375 -1.546875 1.421875 -2.765625 1.65625 -3.234375 C 1.96875 -3.8125 2.40625 -4.1875 2.8125 -4.1875 C 3.453125 -4.1875 3.59375 -3.375 3.59375 -3.3125 C 3.59375 -3.25 3.578125 -3.1875 3.5625 -3.140625 Z M 3.078125 -1.1875 "
           id="path2803" />
      </symbol>
      <symbol
         overflow="visible"
         id="symbol9536">
        <path
           style="stroke:none;"
           d=""
           id="path2380" />
      </symbol>
      <symbol
         overflow="visible"
         id="symbol8577">
        <path
           style="stroke:none;"
           d="M 3.59375 -2.21875 C 3.59375 -2.984375 3.5 -3.546875 3.1875 -4.03125 C 2.96875 -4.34375 2.53125 -4.625 1.984375 -4.625 C 0.359375 -4.625 0.359375 -2.71875 0.359375 -2.21875 C 0.359375 -1.71875 0.359375 0.140625 1.984375 0.140625 C 3.59375 0.140625 3.59375 -1.71875 3.59375 -2.21875 Z M 1.984375 -0.0625 C 1.65625 -0.0625 1.234375 -0.25 1.09375 -0.8125 C 1 -1.21875 1 -1.796875 1 -2.3125 C 1 -2.828125 1 -3.359375 1.09375 -3.734375 C 1.25 -4.28125 1.6875 -4.4375 1.984375 -4.4375 C 2.359375 -4.4375 2.71875 -4.203125 2.84375 -3.796875 C 2.953125 -3.421875 2.96875 -2.921875 2.96875 -2.3125 C 2.96875 -1.796875 2.96875 -1.28125 2.875 -0.84375 C 2.734375 -0.203125 2.265625 -0.0625 1.984375 -0.0625 Z M 1.984375 -0.0625 "
           id="path8311" />
      </symbol>
    </g>
    <g
       id="g1859">
      <symbol
         overflow="visible"
         id="symbol7610">
        <path
           style="stroke:none;"
           d=""
           id="path827" />
      </symbol>
      <symbol
         overflow="visible"
         id="symbol9292">
        <path
           style="stroke:none;"
           d="M 3.71875 -3.765625 C 3.53125 -4.140625 3.25 -4.40625 2.796875 -4.40625 C 1.640625 -4.40625 0.40625 -2.9375 0.40625 -1.484375 C 0.40625 -0.546875 0.953125 0.109375 1.71875 0.109375 C 1.921875 0.109375 2.421875 0.0625 3.015625 -0.640625 C 3.09375 -0.21875 3.453125 0.109375 3.921875 0.109375 C 4.28125 0.109375 4.5 -0.125 4.671875 -0.4375 C 4.828125 -0.796875 4.96875 -1.40625 4.96875 -1.421875 C 4.96875 -1.53125 4.875 -1.53125 4.84375 -1.53125 C 4.75 -1.53125 4.734375 -1.484375 4.703125 -1.34375 C 4.53125 -0.703125 4.359375 -0.109375 3.953125 -0.109375 C 3.671875 -0.109375 3.65625 -0.375 3.65625 -0.5625 C 3.65625 -0.78125 3.671875 -0.875 3.78125 -1.3125 C 3.890625 -1.71875 3.90625 -1.828125 4 -2.203125 L 4.359375 -3.59375 C 4.421875 -3.875 4.421875 -3.890625 4.421875 -3.9375 C 4.421875 -4.109375 4.3125 -4.203125 4.140625 -4.203125 C 3.890625 -4.203125 3.75 -3.984375 3.71875 -3.765625 Z M 3.078125 -1.1875 C 3.015625 -1 3.015625 -0.984375 2.875 -0.8125 C 2.4375 -0.265625 2.03125 -0.109375 1.75 -0.109375 C 1.25 -0.109375 1.109375 -0.65625 1.109375 -1.046875 C 1.109375 -1.546875 1.421875 -2.765625 1.65625 -3.234375 C 1.96875 -3.8125 2.40625 -4.1875 2.8125 -4.1875 C 3.453125 -4.1875 3.59375 -3.375 3.59375 -3.3125 C 3.59375 -3.25 3.578125 -3.1875 3.5625 -3.140625 Z M 3.078125 -1.1875 "
           id="path200" />
      </symbol>
      <symbol
         overflow="visible"
         id="symbol3235">
        <path
           style="stroke:none;"
           d=""
           id="path9396" />
      </symbol>
      <symbol
         overflow="visible"
         id="symbol6712">
        <path
           style="stroke:none;"
           d="M 2.328125 -4.4375 C 2.328125 -4.625 2.328125 -4.625 2.125 -4.625 C 1.671875 -4.1875 1.046875 -4.1875 0.765625 -4.1875 L 0.765625 -3.9375 C 0.921875 -3.9375 1.390625 -3.9375 1.765625 -4.125 L 1.765625 -0.578125 C 1.765625 -0.34375 1.765625 -0.25 1.078125 -0.25 L 0.8125 -0.25 L 0.8125 0 C 0.9375 0 1.796875 -0.03125 2.046875 -0.03125 C 2.265625 -0.03125 3.140625 0 3.296875 0 L 3.296875 -0.25 L 3.03125 -0.25 C 2.328125 -0.25 2.328125 -0.34375 2.328125 -0.578125 Z M 2.328125 -4.4375 "
           id="path2799" />
      </symbol>
    </g>
    <g
       id="g6511">
      <symbol
         overflow="visible"
         id="symbol7058">
        <path
           style="stroke:none;"
           d=""
           id="path9582" />
      </symbol>
      <symbol
         overflow="visible"
         id="symbol7358">
        <path
           style="stroke:none;"
           d="M 2.375 -6.8125 C 2.375 -6.8125 2.375 -6.921875 2.25 -6.921875 C 2.03125 -6.921875 1.296875 -6.84375 1.03125 -6.8125 C 0.953125 -6.8125 0.84375 -6.796875 0.84375 -6.625 C 0.84375 -6.5 0.9375 -6.5 1.09375 -6.5 C 1.5625 -6.5 1.578125 -6.4375 1.578125 -6.328125 C 1.578125 -6.265625 1.5 -5.921875 1.453125 -5.71875 L 0.625 -2.46875 C 0.515625 -1.96875 0.46875 -1.796875 0.46875 -1.453125 C 0.46875 -0.515625 1 0.109375 1.734375 0.109375 C 2.90625 0.109375 4.140625 -1.375 4.140625 -2.8125 C 4.140625 -3.71875 3.609375 -4.40625 2.8125 -4.40625 C 2.359375 -4.40625 1.9375 -4.109375 1.640625 -3.8125 Z M 1.453125 -3.046875 C 1.5 -3.265625 1.5 -3.28125 1.59375 -3.390625 C 2.078125 -4.03125 2.53125 -4.1875 2.796875 -4.1875 C 3.15625 -4.1875 3.421875 -3.890625 3.421875 -3.25 C 3.421875 -2.65625 3.09375 -1.515625 2.90625 -1.140625 C 2.578125 -0.46875 2.125 -0.109375 1.734375 -0.109375 C 1.390625 -0.109375 1.0625 -0.375 1.0625 -1.109375 C 1.0625 -1.3125 1.0625 -1.5 1.21875 -2.125 Z M 1.453125 -3.046875 "
           id="path2815" />
      </symbol>
      <symbol
         overflow="visible"
         id="symbol616">
        <path
           style="stroke:none;"
           d=""
           id="path5713" />
      </symbol>
      <symbol
         overflow="visible"
         id="symbol6276">
        <path
           style="stroke:none;"
           d="M 2.328125 -4.4375 C 2.328125 -4.625 2.328125 -4.625 2.125 -4.625 C 1.671875 -4.1875 1.046875 -4.1875 0.765625 -4.1875 L 0.765625 -3.9375 C 0.921875 -3.9375 1.390625 -3.9375 1.765625 -4.125 L 1.765625 -0.578125 C 1.765625 -0.34375 1.765625 -0.25 1.078125 -0.25 L 0.8125 -0.25 L 0.8125 0 C 0.9375 0 1.796875 -0.03125 2.046875 -0.03125 C 2.265625 -0.03125 3.140625 0 3.296875 0 L 3.296875 -0.25 L 3.03125 -0.25 C 2.328125 -0.25 2.328125 -0.34375 2.328125 -0.578125 Z M 2.328125 -4.4375 "
           id="path994" />
      </symbol>
    </g>
    <g
       id="g8578">
      <symbol
         overflow="visible"
         id="symbol2532">
        <path
           style="stroke:none;"
           d=""
           id="path731" />
      </symbol>
      <symbol
         overflow="visible"
         id="symbol2934">
        <path
           style="stroke:none;"
           d="M 2.375 -6.8125 C 2.375 -6.8125 2.375 -6.921875 2.25 -6.921875 C 2.03125 -6.921875 1.296875 -6.84375 1.03125 -6.8125 C 0.953125 -6.8125 0.84375 -6.796875 0.84375 -6.625 C 0.84375 -6.5 0.9375 -6.5 1.09375 -6.5 C 1.5625 -6.5 1.578125 -6.4375 1.578125 -6.328125 C 1.578125 -6.265625 1.5 -5.921875 1.453125 -5.71875 L 0.625 -2.46875 C 0.515625 -1.96875 0.46875 -1.796875 0.46875 -1.453125 C 0.46875 -0.515625 1 0.109375 1.734375 0.109375 C 2.90625 0.109375 4.140625 -1.375 4.140625 -2.8125 C 4.140625 -3.71875 3.609375 -4.40625 2.8125 -4.40625 C 2.359375 -4.40625 1.9375 -4.109375 1.640625 -3.8125 Z M 1.453125 -3.046875 C 1.5 -3.265625 1.5 -3.28125 1.59375 -3.390625 C 2.078125 -4.03125 2.53125 -4.1875 2.796875 -4.1875 C 3.15625 -4.1875 3.421875 -3.890625 3.421875 -3.25 C 3.421875 -2.65625 3.09375 -1.515625 2.90625 -1.140625 C 2.578125 -0.46875 2.125 -0.109375 1.734375 -0.109375 C 1.390625 -0.109375 1.0625 -0.375 1.0625 -1.109375 C 1.0625 -1.3125 1.0625 -1.5 1.21875 -2.125 Z M 1.453125 -3.046875 "
           id="path1975" />
      </symbol>
      <symbol
         overflow="visible"
         id="symbol3346">
        <path
           style="stroke:none;"
           d=""
           id="path8089" />
      </symbol>
      <symbol
         overflow="visible"
         id="symbol2515">
        <path
           style="stroke:none;"
           d="M 3.59375 -2.21875 C 3.59375 -2.984375 3.5 -3.546875 3.1875 -4.03125 C 2.96875 -4.34375 2.53125 -4.625 1.984375 -4.625 C 0.359375 -4.625 0.359375 -2.71875 0.359375 -2.21875 C 0.359375 -1.71875 0.359375 0.140625 1.984375 0.140625 C 3.59375 0.140625 3.59375 -1.71875 3.59375 -2.21875 Z M 1.984375 -0.0625 C 1.65625 -0.0625 1.234375 -0.25 1.09375 -0.8125 C 1 -1.21875 1 -1.796875 1 -2.3125 C 1 -2.828125 1 -3.359375 1.09375 -3.734375 C 1.25 -4.28125 1.6875 -4.4375 1.984375 -4.4375 C 2.359375 -4.4375 2.71875 -4.203125 2.84375 -3.796875 C 2.953125 -3.421875 2.96875 -2.921875 2.96875 -2.3125 C 2.96875 -1.796875 2.96875 -1.28125 2.875 -0.84375 C 2.734375 -0.203125 2.265625 -0.0625 1.984375 -0.0625 Z M 1.984375 -0.0625 "
           id="path2739" />
      </symbol>
    </g>
    <g
       id="g8166">
      <symbol
         overflow="visible"
         id="symbol6309">
        <path
           style="stroke:none;"
           d=""
           id="path6643" />
      </symbol>
      <symbol
         overflow="visible"
         id="symbol8663">
        <path
           style="stroke:none;"
           d="M 3.953125 -3.78125 C 3.78125 -3.78125 3.65625 -3.78125 3.515625 -3.65625 C 3.34375 -3.5 3.328125 -3.328125 3.328125 -3.265625 C 3.328125 -3.015625 3.515625 -2.90625 3.703125 -2.90625 C 3.984375 -2.90625 4.25 -3.15625 4.25 -3.546875 C 4.25 -4.03125 3.78125 -4.40625 3.078125 -4.40625 C 1.734375 -4.40625 0.40625 -2.984375 0.40625 -1.578125 C 0.40625 -0.671875 0.984375 0.109375 2.03125 0.109375 C 3.453125 0.109375 4.28125 -0.953125 4.28125 -1.0625 C 4.28125 -1.125 4.234375 -1.203125 4.171875 -1.203125 C 4.109375 -1.203125 4.09375 -1.171875 4.03125 -1.09375 C 3.25 -0.109375 2.15625 -0.109375 2.046875 -0.109375 C 1.421875 -0.109375 1.140625 -0.59375 1.140625 -1.203125 C 1.140625 -1.609375 1.34375 -2.578125 1.6875 -3.1875 C 2 -3.765625 2.546875 -4.1875 3.09375 -4.1875 C 3.421875 -4.1875 3.8125 -4.0625 3.953125 -3.78125 Z M 3.953125 -3.78125 "
           id="path2511" />
      </symbol>
      <symbol
         overflow="visible"
         id="symbol7977">
        <path
           style="stroke:none;"
           d=""
           id="path3330" />
      </symbol>
      <symbol
         overflow="visible"
         id="symbol1187">
        <path
           style="stroke:none;"
           d="M 3.59375 -2.21875 C 3.59375 -2.984375 3.5 -3.546875 3.1875 -4.03125 C 2.96875 -4.34375 2.53125 -4.625 1.984375 -4.625 C 0.359375 -4.625 0.359375 -2.71875 0.359375 -2.21875 C 0.359375 -1.71875 0.359375 0.140625 1.984375 0.140625 C 3.59375 0.140625 3.59375 -1.71875 3.59375 -2.21875 Z M 1.984375 -0.0625 C 1.65625 -0.0625 1.234375 -0.25 1.09375 -0.8125 C 1 -1.21875 1 -1.796875 1 -2.3125 C 1 -2.828125 1 -3.359375 1.09375 -3.734375 C 1.25 -4.28125 1.6875 -4.4375 1.984375 -4.4375 C 2.359375 -4.4375 2.71875 -4.203125 2.84375 -3.796875 C 2.953125 -3.421875 2.96875 -2.921875 2.96875 -2.3125 C 2.96875 -1.796875 2.96875 -1.28125 2.875 -0.84375 C 2.734375 -0.203125 2.265625 -0.0625 1.984375 -0.0625 Z M 1.984375 -0.0625 "
           id="path3955" />
      </symbol>
    </g>
    <g
       id="g54">
      <symbol
         overflow="visible"
         id="symbol2233">
        <path
           style="stroke:none;"
           d=""
           id="path3376" />
      </symbol>
      <symbol
         overflow="visible"
         id="symbol5509">
        <path
           style="stroke:none;"
           d="M 3.953125 -3.78125 C 3.78125 -3.78125 3.65625 -3.78125 3.515625 -3.65625 C 3.34375 -3.5 3.328125 -3.328125 3.328125 -3.265625 C 3.328125 -3.015625 3.515625 -2.90625 3.703125 -2.90625 C 3.984375 -2.90625 4.25 -3.15625 4.25 -3.546875 C 4.25 -4.03125 3.78125 -4.40625 3.078125 -4.40625 C 1.734375 -4.40625 0.40625 -2.984375 0.40625 -1.578125 C 0.40625 -0.671875 0.984375 0.109375 2.03125 0.109375 C 3.453125 0.109375 4.28125 -0.953125 4.28125 -1.0625 C 4.28125 -1.125 4.234375 -1.203125 4.171875 -1.203125 C 4.109375 -1.203125 4.09375 -1.171875 4.03125 -1.09375 C 3.25 -0.109375 2.15625 -0.109375 2.046875 -0.109375 C 1.421875 -0.109375 1.140625 -0.59375 1.140625 -1.203125 C 1.140625 -1.609375 1.34375 -2.578125 1.6875 -3.1875 C 2 -3.765625 2.546875 -4.1875 3.09375 -4.1875 C 3.421875 -4.1875 3.8125 -4.0625 3.953125 -3.78125 Z M 3.953125 -3.78125 "
           id="path1755" />
      </symbol>
      <symbol
         overflow="visible"
         id="symbol8853">
        <path
           style="stroke:none;"
           d=""
           id="path298" />
      </symbol>
      <symbol
         overflow="visible"
         id="symbol2987">
        <path
           style="stroke:none;"
           d="M 2.328125 -4.4375 C 2.328125 -4.625 2.328125 -4.625 2.125 -4.625 C 1.671875 -4.1875 1.046875 -4.1875 0.765625 -4.1875 L 0.765625 -3.9375 C 0.921875 -3.9375 1.390625 -3.9375 1.765625 -4.125 L 1.765625 -0.578125 C 1.765625 -0.34375 1.765625 -0.25 1.078125 -0.25 L 0.8125 -0.25 L 0.8125 0 C 0.9375 0 1.796875 -0.03125 2.046875 -0.03125 C 2.265625 -0.03125 3.140625 0 3.296875 0 L 3.296875 -0.25 L 3.03125 -0.25 C 2.328125 -0.25 2.328125 -0.34375 2.328125 -0.578125 Z M 2.328125 -4.4375 "
           id="path5942" />
      </symbol>
    </g>
  </defs>
  <title
     id="title1675">kd tree projected bboxes</title>
  <line
     class="cls-1"
     y1="150.62"
     x2="352.42"
     y2="150.62"
     id="line1677" />
  <polygon
     points="347.51 156.13 351.77 150.62 347.51 145.12 360.53 150.62 347.51 156.13"
     id="polygon1679" />
  <polygon
     class="cls-2"
     points="349.07 154.92 359.21 150.62 352.4 150.62 349.07 154.92"
     id="polygon1681" />
  <polygon
     class="cls-3"
     points="349.07 146.32 359.21 150.62 352.4 150.62 349.07 146.32"
     id="polygon1683" />
  <rect
     class="cls-1"
     x="15.45"
     y="0.5"
     width="136.55"
     height="96.78"
     id="rect1687" />
  <rect
     class="cls-1"
     x="123.36"
     y="45.57"
     width="125.73"
     height="89.77"
     id="rect1691" />
  <rect
     class="cls-1"
     x="290.12"
     y="7.06"
     width="54.68"
     height="54.68"
     id="rect1695" />
  <line
     class="cls-4"
     x1="15.5"
     y1="97.75"
     x2="15.5"
     y2="150.82"
     id="line1699" />
  <line
     class="cls-4"
     x1="123.1"
     y1="135.7"
     x2="123.1"
     y2="150.31"
     id="line1701" />
  <line
     class="cls-4"
     x1="152.05"
     y1="97.41"
     x2="152.05"
     y2="150.31"
     id="line1703" />
  <line
     class="cls-4"
     x1="248.83"
     y1="135.54"
     x2="248.83"
     y2="150.15"
     id="line1705" />
  <line
     class="cls-4"
     x1="289.47"
     y1="63.07"
     x2="289.47"
     y2="150.57"
     id="line1707" />
  <line
     class="cls-4"
     x1="344.15"
     y1="62.99"
     x2="344.15"
     y2="150.48"
     id="line1709" />
  <g
     inkscape:label=""
     transform="matrix(1.6,0,0,1.6,-71.755866,-80.048291)"
     id="g2340">
    <g
       id="g184">
      <g
         style="fill:#000000;fill-opacity:1"
         id="g6822">
        <use
           xlink:href="#symbol8559"
           x="91.925003"
           y="81.962997"
           id="use9057"
           width="100%"
           height="100%" />
      </g>
    </g>
  </g>
  <g
     inkscape:label=""
     transform="matrix(1.6,0,0,1.6,34.80915,-33.596874)"
     id="g2400">
    <g
       id="g3711">
      <g
         style="fill:#000000;fill-opacity:1"
         id="g4210">
        <use
           xlink:href="#symbol5582"
           x="91.925003"
           y="81.962997"
           id="use3825"
           width="100%"
           height="100%" />
      </g>
    </g>
  </g>
  <g
     inkscape:label=""
     transform="matrix(1.6,0,0,1.6,164.94143,-90.226619)"
     id="g2469">
    <g
       id="g6605">
      <g
         style="fill:#000000;fill-opacity:1"
         id="g6829">
        <use
           xlink:href="#symbol2666"
           x="91.925003"
           y="81.962997"
           id="use850"
           width="100%"
           height="100%" />
      </g>
    </g>
  </g>
  <g
     inkscape:label=""
     transform="matrix(1.6,0,0,1.6,215.52231,23.062802)"
     id="g2547">
    <g
       id="g7863">
      <g
         style="fill:#000000;fill-opacity:1"
         id="g1822">
        <use
           xlink:href="#symbol3827"
           x="91.925003"
           y="81.962997"
           id="use3504"
           width="100%"
           height="100%" />
      </g>
    </g>
  </g>
  <g
     inkscape:label=""
     transform="matrix(1.6,0,0,1.6,-137.71339,32.899572)"
     id="g2640">
    <g
       id="g3827">
      <g
         style="fill:#000000;fill-opacity:1"
         id="g5006">
        <use
           xlink:href="#symbol2392"
           x="91.925003"
           y="81.962997"
           id="use5080"
           width="100%"
           height="100%" />
      </g>
      <g
         style="fill:#000000;fill-opacity:1"
         id="g4378">
        <use
           xlink:href="#symbol8577"
           x="97.191002"
           y="83.457001"
           id="use3143"
           width="100%"
           height="100%" />
      </g>
    </g>
  </g>
  <g
     inkscape:label=""
     transform="matrix(1.6,0,0,1.6,-0.75002189,33.924236)"
     id="g2754">
    <g
       id="g4231">
      <g
         style="fill:#000000;fill-opacity:1"
         id="g9966">
        <use
           xlink:href="#symbol9292"
           x="91.925003"
           y="81.962997"
           id="use2721"
           width="100%"
           height="100%" />
      </g>
      <g
         style="fill:#000000;fill-opacity:1"
         id="g4197">
        <use
           xlink:href="#symbol6712"
           x="97.191002"
           y="83.457001"
           id="use5159"
           width="100%"
           height="100%" />
      </g>
    </g>
  </g>
  <g
     inkscape:label=""
     transform="matrix(1.6,0,0,1.6,97.95924,34.9489)"
     id="g2884">
    <g
       id="g202">
      <g
         style="fill:#000000;fill-opacity:1"
         id="g2629">
        <use
           xlink:href="#symbol7358"
           x="91.925003"
           y="81.962997"
           id="use2885"
           width="100%"
           height="100%" />
      </g>
      <g
         style="fill:#000000;fill-opacity:1"
         id="g8244">
        <use
           xlink:href="#symbol6276"
           x="96.200996"
           y="83.457001"
           id="use5642"
           width="100%"
           height="100%" />
      </g>
    </g>
  </g>
  <g
     inkscape:label=""
     transform="matrix(1.6,0,0,1.6,-27.73283,35.290454)"
     id="g3028">
    <g
       id="g5830">
      <g
         style="fill:#000000;fill-opacity:1"
         id="g3618">
        <use
           xlink:href="#symbol2934"
           x="91.925003"
           y="81.962997"
           id="use2409"
           width="100%"
           height="100%" />
      </g>
      <g
         style="fill:#000000;fill-opacity:1"
         id="g4560">
        <use
           xlink:href="#symbol2515"
           x="96.200996"
           y="83.457001"
           id="use3823"
           width="100%"
           height="100%" />
      </g>
    </g>
  </g>
  <g
     inkscape:label=""
     transform="matrix(1.6,0,0,1.6,137.92112,33.582682)"
     id="g3188">
    <g
       id="g5936">
      <g
         style="fill:#000000;fill-opacity:1"
         id="g3183">
        <use
           xlink:href="#symbol8663"
           x="91.925003"
           y="81.962997"
           id="use1966"
           width="100%"
           height="100%" />
      </g>
      <g
         style="fill:#000000;fill-opacity:1"
         id="g8960">
        <use
           xlink:href="#symbol1187"
           x="96.237"
           y="83.457001"
           id="use3330"
           width="100%"
           height="100%" />
      </g>
    </g>
  </g>
  <g
     inkscape:label=""
     transform="matrix(1.6,0,0,1.6,191.20363,34.122634)"
     id="g3525">
    <g
       id="g3692">
      <g
         style="fill:#000000;fill-opacity:1"
         id="g2791">
        <use
           xlink:href="#symbol5509"
           x="91.925003"
           y="81.962997"
           id="use5191"
           width="100%"
           height="100%" />
      </g>
      <g
         style="fill:#000000;fill-opacity:1"
         id="g2237">
        <use
           xlink:href="#symbol2987"
           x="96.237"
           y="83.457001"
           id="use9404"
           width="100%"
           height="100%" />
      </g>
    </g>
  </g>
</svg>
