<?xml version="1.0" encoding="UTF-8" standalone="no"?>
<svg
   xmlns:dc="http://purl.org/dc/elements/1.1/"
   xmlns:cc="http://creativecommons.org/ns#"
   xmlns:rdf="http://www.w3.org/1999/02/22-rdf-syntax-ns#"
   xmlns:svg="http://www.w3.org/2000/svg"
   xmlns="http://www.w3.org/2000/svg"
   xmlns:xlink="http://www.w3.org/1999/xlink"
   xmlns:sodipodi="http://sodipodi.sourceforge.net/DTD/sodipodi-0.dtd"
   xmlns:inkscape="http://www.inkscape.org/namespaces/inkscape"
   id="Layer_1"
   data-name="Layer 1"
   viewBox="0 0 300.02 255.23"
   version="1.1"
   sodipodi:docname="kdtreesplits.svg"
   inkscape:version="1.0.1 (3bc2e813f5, 2020-09-07)">
  <metadata
     id="metadata1259">
    <rdf:RDF>
      <cc:Work
         rdf:about="">
        <dc:format>image/svg+xml</dc:format>
        <dc:type
           rdf:resource="http://purl.org/dc/dcmitype/StillImage" />
      </cc:Work>
    </rdf:RDF>
  </metadata>
  <sodipodi:namedview
     pagecolor="#ffffff"
     bordercolor="#666666"
     borderopacity="1"
     objecttolerance="10"
     gridtolerance="10"
     guidetolerance="10"
     inkscape:pageopacity="0"
     inkscape:pageshadow="2"
     inkscape:window-width="1920"
     inkscape:window-height="1017"
     id="namedview1257"
     showgrid="false"
     inkscape:zoom="4.5768146"
     inkscape:cx="64.821011"
     inkscape:cy="124.72554"
     inkscape:window-x="1912"
     inkscape:window-y="-8"
     inkscape:window-maximized="1"
     inkscape:current-layer="Layer_1"
     inkscape:document-rotation="0" />
  <defs
     id="defs1158">
    <rect
       x="69.832906"
       y="118.19065"
       width="31.517506"
       height="27.500569"
       id="rect1263" />
    <style
       id="style1156">.cls-1,.cls-2{fill:none;stroke:#000;stroke-miterlimit:10;}.cls-2{stroke-dasharray:2;}.cls-3{fill:#a6a6a6;}.cls-4{fill:#666;}</style>
    <g
       id="g8795">
      <symbol
         overflow="visible"
         id="symbol1892">
        <path
           style="stroke:none;"
           d=""
           id="path8826" />
      </symbol>
      <symbol
         overflow="visible"
         id="symbol9613">
        <path
           style="stroke:none;"
           d="M 4.84375 -3.796875 C 4.890625 -3.9375 4.890625 -3.953125 4.890625 -4.03125 C 4.890625 -4.203125 4.75 -4.296875 4.59375 -4.296875 C 4.5 -4.296875 4.34375 -4.234375 4.25 -4.09375 C 4.234375 -4.03125 4.140625 -3.734375 4.109375 -3.546875 C 4.03125 -3.296875 3.96875 -3.015625 3.90625 -2.75 L 3.453125 -0.953125 C 3.421875 -0.8125 2.984375 -0.109375 2.328125 -0.109375 C 1.828125 -0.109375 1.71875 -0.546875 1.71875 -0.921875 C 1.71875 -1.375 1.890625 -2 2.21875 -2.875 C 2.375 -3.28125 2.421875 -3.390625 2.421875 -3.59375 C 2.421875 -4.03125 2.109375 -4.40625 1.609375 -4.40625 C 0.65625 -4.40625 0.296875 -2.953125 0.296875 -2.875 C 0.296875 -2.765625 0.390625 -2.765625 0.40625 -2.765625 C 0.515625 -2.765625 0.515625 -2.796875 0.5625 -2.953125 C 0.84375 -3.890625 1.234375 -4.1875 1.578125 -4.1875 C 1.65625 -4.1875 1.828125 -4.1875 1.828125 -3.875 C 1.828125 -3.625 1.71875 -3.359375 1.65625 -3.171875 C 1.25 -2.109375 1.078125 -1.546875 1.078125 -1.078125 C 1.078125 -0.1875 1.703125 0.109375 2.296875 0.109375 C 2.6875 0.109375 3.015625 -0.0625 3.296875 -0.34375 C 3.171875 0.171875 3.046875 0.671875 2.65625 1.203125 C 2.390625 1.53125 2.015625 1.828125 1.5625 1.828125 C 1.421875 1.828125 0.96875 1.796875 0.796875 1.40625 C 0.953125 1.40625 1.09375 1.40625 1.21875 1.28125 C 1.328125 1.203125 1.421875 1.0625 1.421875 0.875 C 1.421875 0.5625 1.15625 0.53125 1.0625 0.53125 C 0.828125 0.53125 0.5 0.6875 0.5 1.171875 C 0.5 1.671875 0.9375 2.046875 1.5625 2.046875 C 2.578125 2.046875 3.609375 1.140625 3.890625 0.015625 Z M 4.84375 -3.796875 "
           id="path3645" />
      </symbol>
    </g>
    <g
       id="g4162">
      <symbol
         overflow="visible"
         id="symbol4326">
        <path
           style="stroke:none;"
           d=""
           id="path2816" />
      </symbol>
      <symbol
         overflow="visible"
         id="symbol4860">
        <path
           style="stroke:none;"
           d="M 3.328125 -3.015625 C 3.390625 -3.265625 3.625 -4.1875 4.3125 -4.1875 C 4.359375 -4.1875 4.609375 -4.1875 4.8125 -4.0625 C 4.53125 -4 4.34375 -3.765625 4.34375 -3.515625 C 4.34375 -3.359375 4.453125 -3.171875 4.71875 -3.171875 C 4.9375 -3.171875 5.25 -3.34375 5.25 -3.75 C 5.25 -4.265625 4.671875 -4.40625 4.328125 -4.40625 C 3.75 -4.40625 3.40625 -3.875 3.28125 -3.65625 C 3.03125 -4.3125 2.5 -4.40625 2.203125 -4.40625 C 1.171875 -4.40625 0.59375 -3.125 0.59375 -2.875 C 0.59375 -2.765625 0.703125 -2.765625 0.71875 -2.765625 C 0.796875 -2.765625 0.828125 -2.796875 0.84375 -2.875 C 1.1875 -3.9375 1.84375 -4.1875 2.1875 -4.1875 C 2.375 -4.1875 2.71875 -4.09375 2.71875 -3.515625 C 2.71875 -3.203125 2.546875 -2.546875 2.1875 -1.140625 C 2.03125 -0.53125 1.671875 -0.109375 1.234375 -0.109375 C 1.171875 -0.109375 0.953125 -0.109375 0.734375 -0.234375 C 0.984375 -0.296875 1.203125 -0.5 1.203125 -0.78125 C 1.203125 -1.046875 0.984375 -1.125 0.84375 -1.125 C 0.53125 -1.125 0.296875 -0.875 0.296875 -0.546875 C 0.296875 -0.09375 0.78125 0.109375 1.21875 0.109375 C 1.890625 0.109375 2.25 -0.59375 2.265625 -0.640625 C 2.390625 -0.28125 2.75 0.109375 3.34375 0.109375 C 4.375 0.109375 4.9375 -1.171875 4.9375 -1.421875 C 4.9375 -1.53125 4.859375 -1.53125 4.828125 -1.53125 C 4.734375 -1.53125 4.71875 -1.484375 4.6875 -1.421875 C 4.359375 -0.34375 3.6875 -0.109375 3.375 -0.109375 C 2.984375 -0.109375 2.828125 -0.421875 2.828125 -0.765625 C 2.828125 -0.984375 2.875 -1.203125 2.984375 -1.640625 Z M 3.328125 -3.015625 "
           id="path8948" />
      </symbol>
    </g>
  </defs>
  <title
     id="title1160">kd tree splits</title>
  <rect
     class="cls-1"
     x="162.37"
     y="146.04"
     width="108.68"
     height="108.68"
     id="rect1162" />
  <ellipse
     class="cls-1"
     cx="180.73"
     cy="165.6"
     rx="8.28"
     ry="11.62"
     id="ellipse1164" />
  <rect
     class="cls-1"
     x="189.81"
     y="186.29"
     width="17.36"
     height="12.82"
     id="rect1166" />
  <rect
     class="cls-1"
     x="173.26"
     y="226.35"
     width="41.92"
     height="13.08"
     transform="translate(-102.59 170.75) rotate(-38.35)"
     id="rect1168" />
  <polygon
     class="cls-1"
     points="239.21 155.99 252.72 161.8 266.23 167.62 254.43 176.41 242.64 185.2 240.92 170.59 239.21 155.99"
     id="polygon1170" />
  <line
     class="cls-2"
     x1="238.28"
     y1="146.03"
     x2="238.28"
     y2="254.73"
     id="line1172" />
  <line
     class="cls-2"
     x1="162.69"
     y1="213.59"
     x2="237.84"
     y2="213.59"
     id="line1174" />
  <line
     class="cls-2"
     x1="208.85"
     y1="213.37"
     x2="208.85"
     y2="146.36"
     id="line1176" />
  <rect
     class="cls-1"
     x="17.14"
     y="146.04"
     width="108.68"
     height="108.68"
     id="rect1178" />
  <ellipse
     class="cls-1"
     cx="35.5"
     cy="165.6"
     rx="8.28"
     ry="11.62"
     id="ellipse1180" />
  <rect
     class="cls-1"
     x="44.58"
     y="186.29"
     width="17.36"
     height="12.82"
     id="rect1182" />
  <rect
     class="cls-1"
     x="28.02"
     y="226.35"
     width="41.92"
     height="13.08"
     transform="translate(-133.93 80.64) rotate(-38.35)"
     id="rect1184" />
  <polygon
     class="cls-1"
     points="93.98 155.99 107.49 161.8 120.99 167.62 109.2 176.41 97.41 185.2 95.69 170.59 93.98 155.99"
     id="polygon1186" />
  <line
     class="cls-2"
     x1="93.05"
     y1="146.03"
     x2="93.05"
     y2="254.73"
     id="line1188" />
  <line
     class="cls-2"
     x1="17.46"
     y1="213.59"
     x2="92.6"
     y2="213.59"
     id="line1190" />
  <rect
     class="cls-1"
     x="162.37"
     y="0.51"
     width="108.68"
     height="108.68"
     id="rect1192" />
  <ellipse
     class="cls-1"
     cx="180.73"
     cy="20.07"
     rx="8.28"
     ry="11.62"
     id="ellipse1194" />
  <rect
     class="cls-1"
     x="189.81"
     y="40.76"
     width="17.36"
     height="12.82"
     id="rect1196" />
  <rect
     class="cls-1"
     x="173.26"
     y="80.82"
     width="41.92"
     height="13.08"
     transform="translate(-12.3 139.35) rotate(-38.35)"
     id="rect1198" />
  <polygon
     class="cls-1"
     points="239.21 10.46 252.72 16.28 266.23 22.1 254.43 30.88 242.64 39.67 240.92 25.07 239.21 10.46"
     id="polygon1200" />
  <line
     class="cls-2"
     x1="238.28"
     y1="0.5"
     x2="238.28"
     y2="109.21"
     id="line1202" />
  <rect
     class="cls-1"
     x="17.14"
     y="0.5"
     width="108.68"
     height="108.68"
     id="rect1204" />
  <ellipse
     class="cls-1"
     cx="35.5"
     cy="20.06"
     rx="8.28"
     ry="11.62"
     id="ellipse1206" />
  <rect
     class="cls-1"
     x="44.58"
     y="40.75"
     width="17.36"
     height="12.82"
     id="rect1208" />
  <rect
     class="cls-1"
     x="28.02"
     y="80.8"
     width="41.92"
     height="13.08"
     transform="translate(-43.63 49.24) rotate(-38.35)"
     id="rect1210" />
  <polygon
     class="cls-1"
     points="93.98 10.44 107.49 16.26 120.99 22.08 109.2 30.87 97.41 39.66 95.69 25.05 93.98 10.44"
     id="polygon1212" />
  <polyline
     class="cls-1"
     points="4.13 80.2 4.13 123.96 48.29 123.96"
     id="polyline1214" />
  <polygon
     points="0 83.89 4.13 80.69 8.26 83.89 4.13 74.13 0 83.89"
     id="polygon1216" />
  <polygon
     class="cls-3"
     points="0.9 82.72 4.13 75.11 4.13 80.22 0.9 82.72"
     id="polygon1218" />
  <polygon
     class="cls-4"
     points="7.35 82.72 4.13 75.11 4.13 80.22 7.35 82.72"
     id="polygon1220" />
  <polygon
     points="44.61 128.09 47.8 123.96 44.61 119.84 54.37 123.96 44.61 128.09"
     id="polygon1222" />
  <polygon
     class="cls-3"
     points="45.78 127.19 53.38 123.96 48.28 123.96 45.78 127.19"
     id="polygon1224" />
  <polygon
     class="cls-4"
     points="45.78 120.74 53.38 123.96 48.28 123.96 45.78 120.74"
     id="polygon1226" />
  <line
     class="cls-1"
     x1="134.35"
     y1="56.04"
     x2="149.59"
     y2="56.04"
     id="line1232" />
  <polygon
     points="147.14 58.79 149.27 56.04 147.14 53.29 153.65 56.04 147.14 58.79"
     id="polygon1234" />
  <polygon
     class="cls-3"
     points="147.92 58.19 152.99 56.04 149.58 56.04 147.92 58.19"
     id="polygon1236" />
  <polygon
     class="cls-4"
     points="147.92 53.89 152.99 56.04 149.58 56.04 147.92 53.89"
     id="polygon1238" />
  <line
     class="cls-1"
     x1="280.73"
     y1="56.12"
     x2="295.97"
     y2="56.12"
     id="line1240" />
  <polygon
     points="293.51 58.87 295.64 56.12 293.51 53.37 300.02 56.12 293.51 58.87"
     id="polygon1242" />
  <polygon
     class="cls-3"
     points="294.29 58.27 299.36 56.12 295.96 56.12 294.29 58.27"
     id="polygon1244" />
  <polygon
     class="cls-4"
     points="294.29 53.97 299.36 56.12 295.96 56.12 294.29 53.97"
     id="polygon1246" />
  <line
     class="cls-1"
     x1="134.83"
     y1="200.01"
     x2="150.07"
     y2="200.01"
     id="line1248" />
  <polygon
     points="147.61 202.76 149.74 200.01 147.61 197.26 154.12 200.01 147.61 202.76"
     id="polygon1250" />
  <polygon
     class="cls-3"
     points="148.39 202.16 153.46 200.01 150.06 200.01 148.39 202.16"
     id="polygon1252" />
  <polygon
     class="cls-4"
     points="148.39 197.86 153.46 200.01 150.06 200.01 148.39 197.86"
     id="polygon1254" />
  <g
     inkscape:label=""
     transform="matrix(1.5,0,0,1.5,-136.08423,-54.596587)"
     id="g1328">
    <g
       id="g5377">
      <g
         style="fill:#000000;fill-opacity:1"
         id="g3453">
        <use
           xlink:href="#symbol9613"
           x="91.925003"
           y="81.962997"
           id="use9888"
           width="100%"
           height="100%" />
      </g>
    </g>
  </g>
  <g
     inkscape:label=""
     transform="matrix(1.5,0,0,1.5,-80.423248,3.9047984)"
     id="g1410">
    <g
       id="g2972">
      <g
         style="fill:#000000;fill-opacity:1"
         id="g167">
        <use
           xlink:href="#symbol4860"
           x="91.925003"
           y="81.962997"
           id="use3819"
           width="100%"
           height="100%" />
      </g>
    </g>
  </g>
</svg>
