<svg id="Layer_1" data-name="Layer 1" xmlns="http://www.w3.org/2000/svg" viewBox="0 0 218.83 217.97"><defs><style>.cls-1,.cls-2{fill:none;}.cls-1,.cls-2,.cls-3{stroke:#000;stroke-miterlimit:10;}.cls-2{stroke-dasharray:2;}</style></defs><title>LBVH treelet clusters</title><rect class="cls-1" x="0.5" y="0.5" width="216.97" height="216.97"/><line class="cls-1" x1="54.67" y1="0.14" x2="54.67" y2="217.23"/><line class="cls-1" x1="108.94" y1="0.14" x2="108.94" y2="217.06"/><line class="cls-1" x1="163.2" y1="0.14" x2="163.2" y2="217.66"/><line class="cls-1" x1="0.8" y1="162.56" x2="217.48" y2="162.56"/><line class="cls-1" x1="0.68" y1="108.3" x2="217.26" y2="108.3"/><line class="cls-1" x1="0.68" y1="54.03" x2="217.37" y2="54.03"/><circle cx="125.18" cy="135.15" r="3.69"/><rect class="cls-2" x="106.1" y="121.65" width="37.78" height="27.1"/><circle cx="73.06" cy="67.19" r="3.69"/><circle cx="176.2" cy="78.13" r="3.69"/><circle cx="40.96" cy="179.75" r="3.69"/><circle class="cls-3" cx="139.98" cy="18.2" r="3.69"/><rect class="cls-2" x="123.82" y="3.87" width="32.05" height="28.14"/><rect class="cls-2" x="33.4" y="46.34" width="79.74" height="41.17"/><rect class="cls-2" x="167.86" y="55.72" width="16.42" height="44.3"/><rect class="cls-2" x="18.29" y="153.17" width="45.08" height="53.16"/></svg>