<svg id="Layer_1" data-name="Layer 1" xmlns="http://www.w3.org/2000/svg" viewBox="0 0 578.74 117.94"><defs><style>.cls-1{fill:none;stroke:#000;stroke-miterlimit:10;}.cls-2{fill:#a6a6a6;}.cls-3{fill:#666;}</style></defs><title>LeftShift3</title><path d="M572.86,13.8c0,4.42-1.64,6.86-4.52,6.86-2.55,0-4.27-2.38-4.31-6.68s1.88-6.76,4.53-6.76S572.86,9.66,572.86,13.8Zm-7.07.2c0,3.38,1,5.3,2.65,5.3,1.8,0,2.66-2.1,2.66-5.42s-.82-5.3-2.65-5.3C566.91,8.58,565.79,10.46,565.79,14Z"/><path d="M550.06,9.07h0l-2.26,1.22L547.41,9l2.85-1.52h1.5v13h-1.7Z"/><path d="M528.26,20.44V19.36L529.64,18c3.32-3.16,4.82-4.84,4.84-6.8a2.33,2.33,0,0,0-2.58-2.55,4.43,4.43,0,0,0-2.76,1.1l-.56-1.24a5.7,5.7,0,0,1,3.68-1.32,3.66,3.66,0,0,1,4,3.78c0,2.41-1.74,4.35-4.48,7l-1,1v0h5.84v1.46Z"/><path d="M510.7,18.42a5.88,5.88,0,0,0,2.88.82c2.26,0,3-1.44,2.94-2.52,0-1.82-1.66-2.6-3.36-2.6h-1V12.8h1c1.28,0,2.9-.66,2.9-2.2,0-1-.66-2-2.28-2a4.77,4.77,0,0,0-2.6.86l-.46-1.28a6.18,6.18,0,0,1,3.4-1c2.56,0,3.72,1.52,3.72,3.11a3.24,3.24,0,0,1-2.4,3.06v0a3.39,3.39,0,0,1,2.9,3.34c0,2.08-1.62,3.9-4.74,3.9a6.61,6.61,0,0,1-3.38-.88Z"/><path d="M497.74,20.44V16.9h-6V15.74l5.8-8.31h1.9v8.09h1.82V16.9H499.4v3.54Zm0-4.92V11.18c0-.69,0-1.36.06-2h-.06c-.4.77-.72,1.32-1.08,1.93l-3.18,4.42v0Z"/><path d="M482.08,8.91h-5l-.5,3.35a7,7,0,0,1,1.06-.08,5.49,5.49,0,0,1,2.8.7,3.71,3.71,0,0,1,1.86,3.34,4.51,4.51,0,0,1-4.84,4.44,6.36,6.36,0,0,1-3.24-.8l.44-1.34a5.82,5.82,0,0,0,2.78.72,2.87,2.87,0,0,0,3.08-2.82c0-1.68-1.14-2.88-3.74-2.88a13.45,13.45,0,0,0-1.8.14l.84-6.25h6.22Z"/><path d="M463.76,8.67a6.36,6.36,0,0,0-1.32.08,5.28,5.28,0,0,0-4.52,4.63H458a4,4,0,0,1,7.06,2.7,4.35,4.35,0,0,1-4.32,4.58c-2.78,0-4.6-2.16-4.6-5.54a8.2,8.2,0,0,1,2.2-5.87,7.08,7.08,0,0,1,4.16-1.92,8.45,8.45,0,0,1,1.28-.1Zm-.5,7.51c0-1.86-1.06-3-2.68-3a2.9,2.9,0,0,0-2.52,1.6,1.5,1.5,0,0,0-.2.78c0,2.14,1,3.72,2.86,3.72C462.24,19.3,463.26,18,463.26,16.18Z"/><path d="M446.8,7.43V8.59l-5.66,11.85h-1.82L445,8.93v0H438.6V7.43Z"/><path d="M420.22,17.14a3.71,3.71,0,0,1,2.58-3.48l0-.06a3.22,3.22,0,0,1-2.06-2.92c0-2.07,1.74-3.47,4-3.47,2.52,0,3.78,1.58,3.78,3.2a3.31,3.31,0,0,1-2.14,3.05v.06A3.6,3.6,0,0,1,429,16.88c0,2.26-1.94,3.78-4.42,3.78C421.86,20.66,420.22,19,420.22,17.14Zm7-.08c0-1.58-1.1-2.34-2.86-2.84A2.82,2.82,0,0,0,422,16.9a2.4,2.4,0,0,0,2.6,2.48A2.35,2.35,0,0,0,427.22,17.06Zm-4.84-6.5c0,1.3,1,2,2.48,2.4a2.57,2.57,0,0,0,2-2.36,2,2,0,0,0-2.2-2.13A2.07,2.07,0,0,0,422.38,10.56Z"/><path d="M403.42,19.2a7.34,7.34,0,0,0,1.42-.06,4.9,4.9,0,0,0,2.72-1.26,5.71,5.71,0,0,0,1.72-3.46h-.06a3.82,3.82,0,0,1-3.06,1.4,3.77,3.77,0,0,1-3.84-4,4.46,4.46,0,0,1,4.44-4.63c2.66,0,4.3,2.16,4.3,5.49a8.21,8.21,0,0,1-2.24,6.1A6.5,6.5,0,0,1,405,20.54a8.2,8.2,0,0,1-1.62.1Zm.64-7.48a2.5,2.5,0,0,0,2.5,2.76,2.91,2.91,0,0,0,2.56-1.36,1.16,1.16,0,0,0,.16-.64c0-2.23-.82-3.93-2.66-3.93C405.12,8.55,404.06,9.87,404.06,11.72Z"/><path d="M391.12,14.38v1.3h-4.94v-1.3Z"/><path d="M373.15,14.38v1.3H368.2v-1.3Z"/><path d="M355.17,14.38v1.3h-4.94v-1.3Z"/><path d="M337.19,14.38v1.3h-4.94v-1.3Z"/><path d="M319.21,14.38v1.3h-4.94v-1.3Z"/><path d="M301.23,14.38v1.3h-4.94v-1.3Z"/><path d="M283.25,14.38v1.3h-4.94v-1.3Z"/><path d="M265.27,14.38v1.3h-4.94v-1.3Z"/><path d="M247.29,14.38v1.3h-4.94v-1.3Z"/><path d="M229.31,14.38v1.3h-4.94v-1.3Z"/><path d="M211.33,14.38v1.3h-4.94v-1.3Z"/><path d="M193.35,14.38v1.3h-4.94v-1.3Z"/><path d="M175.37,14.38v1.3h-4.94v-1.3Z"/><path d="M157.4,14.38v1.3h-4.94v-1.3Z"/><path d="M139.42,14.38v1.3h-4.94v-1.3Z"/><path d="M121.44,14.38v1.3H116.5v-1.3Z"/><path d="M103.46,14.38v1.3H98.52v-1.3Z"/><path d="M85.48,14.38v1.3H80.54v-1.3Z"/><path d="M67.5,14.38v1.3H62.56v-1.3Z"/><path d="M49.52,14.38v1.3H44.58v-1.3Z"/><path d="M31.54,14.38v1.3H26.6v-1.3Z"/><path d="M13.56,14.38v1.3H8.62v-1.3Z"/><rect class="cls-1" x="1.88" y="0.5" width="576.36" height="27.18"/><line class="cls-1" x1="560.01" y1="0.5" x2="560.01" y2="27.27"/><line class="cls-1" x1="541.99" y1="0.5" x2="541.99" y2="27.27"/><line class="cls-1" x1="523.96" y1="0.5" x2="523.96" y2="27.27"/><line class="cls-1" x1="505.94" y1="0.5" x2="505.94" y2="27.27"/><line class="cls-1" x1="487.92" y1="0.5" x2="487.92" y2="27.27"/><line class="cls-1" x1="469.89" y1="0.5" x2="469.89" y2="27.27"/><line class="cls-1" x1="451.87" y1="0.5" x2="451.87" y2="27.27"/><line class="cls-1" x1="433.84" y1="0.5" x2="433.84" y2="27.27"/><line class="cls-1" x1="415.82" y1="0.5" x2="415.82" y2="27.27"/><line class="cls-1" x1="397.8" y1="0.5" x2="397.8" y2="27.27"/><line class="cls-1" x1="379.77" y1="0.5" x2="379.77" y2="27.27"/><line class="cls-1" x1="361.75" y1="0.5" x2="361.75" y2="27.27"/><line class="cls-1" x1="343.72" y1="0.5" x2="343.72" y2="27.27"/><line class="cls-1" x1="325.7" y1="0.5" x2="325.7" y2="27.27"/><line class="cls-1" x1="307.68" y1="0.5" x2="307.68" y2="27.27"/><line class="cls-1" x1="289.65" y1="0.5" x2="289.65" y2="27.27"/><line class="cls-1" x1="271.63" y1="0.5" x2="271.63" y2="27.27"/><line class="cls-1" x1="253.61" y1="0.5" x2="253.61" y2="27.27"/><line class="cls-1" x1="235.58" y1="0.5" x2="235.58" y2="27.27"/><line class="cls-1" x1="217.56" y1="0.5" x2="217.56" y2="27.27"/><line class="cls-1" x1="199.53" y1="0.5" x2="199.53" y2="27.27"/><line class="cls-1" x1="181.51" y1="0.5" x2="181.51" y2="27.27"/><line class="cls-1" x1="163.49" y1="0.5" x2="163.49" y2="27.27"/><line class="cls-1" x1="145.46" y1="0.5" x2="145.46" y2="27.27"/><line class="cls-1" x1="127.44" y1="0.5" x2="127.44" y2="27.27"/><line class="cls-1" x1="109.41" y1="0.5" x2="109.41" y2="27.27"/><line class="cls-1" x1="91.39" y1="0.5" x2="91.39" y2="27.27"/><line class="cls-1" x1="73.37" y1="0.5" x2="73.37" y2="27.27"/><line class="cls-1" x1="55.34" y1="0.5" x2="55.34" y2="27.27"/><line class="cls-1" x1="37.32" y1="0.5" x2="37.32" y2="27.27"/><line class="cls-1" x1="19.29" y1="0.5" x2="19.29" y2="27.27"/><rect class="cls-1" x="0.5" y="90.26" width="576.36" height="27.18"/><line class="cls-1" x1="558.63" y1="90.26" x2="558.63" y2="117.03"/><line class="cls-1" x1="540.61" y1="90.26" x2="540.61" y2="117.03"/><line class="cls-1" x1="522.58" y1="90.26" x2="522.58" y2="117.03"/><line class="cls-1" x1="504.56" y1="90.26" x2="504.56" y2="117.03"/><line class="cls-1" x1="486.54" y1="90.26" x2="486.54" y2="117.03"/><line class="cls-1" x1="468.51" y1="90.26" x2="468.51" y2="117.03"/><line class="cls-1" x1="450.49" y1="90.26" x2="450.49" y2="117.03"/><line class="cls-1" x1="432.46" y1="90.26" x2="432.46" y2="117.03"/><line class="cls-1" x1="414.44" y1="90.26" x2="414.44" y2="117.03"/><line class="cls-1" x1="396.42" y1="90.26" x2="396.42" y2="117.03"/><line class="cls-1" x1="378.39" y1="90.26" x2="378.39" y2="117.03"/><line class="cls-1" x1="360.37" y1="90.26" x2="360.37" y2="117.03"/><line class="cls-1" x1="342.34" y1="90.26" x2="342.34" y2="117.03"/><line class="cls-1" x1="324.32" y1="90.26" x2="324.32" y2="117.03"/><line class="cls-1" x1="306.3" y1="90.26" x2="306.3" y2="117.03"/><line class="cls-1" x1="288.27" y1="90.26" x2="288.27" y2="117.03"/><line class="cls-1" x1="270.25" y1="90.26" x2="270.25" y2="117.03"/><line class="cls-1" x1="252.22" y1="90.26" x2="252.22" y2="117.03"/><line class="cls-1" x1="234.2" y1="90.26" x2="234.2" y2="117.03"/><line class="cls-1" x1="216.18" y1="90.26" x2="216.18" y2="117.03"/><line class="cls-1" x1="198.15" y1="90.26" x2="198.15" y2="117.03"/><line class="cls-1" x1="180.13" y1="90.26" x2="180.13" y2="117.03"/><line class="cls-1" x1="162.11" y1="90.26" x2="162.11" y2="117.03"/><line class="cls-1" x1="144.08" y1="90.26" x2="144.08" y2="117.03"/><line class="cls-1" x1="126.06" y1="90.26" x2="126.06" y2="117.03"/><line class="cls-1" x1="108.03" y1="90.26" x2="108.03" y2="117.03"/><line class="cls-1" x1="90.01" y1="90.26" x2="90.01" y2="117.03"/><line class="cls-1" x1="71.99" y1="90.26" x2="71.99" y2="117.03"/><line class="cls-1" x1="53.96" y1="90.26" x2="53.96" y2="117.03"/><line class="cls-1" x1="35.94" y1="90.26" x2="35.94" y2="117.03"/><line class="cls-1" x1="17.91" y1="90.26" x2="17.91" y2="117.03"/><path d="M572,103c0,4.42-1.64,6.86-4.52,6.86-2.54,0-4.26-2.38-4.3-6.68s1.88-6.76,4.52-6.76S572,98.83,572,103Zm-7.06.2c0,3.38,1,5.3,2.64,5.3,1.8,0,2.66-2.1,2.66-5.42s-.82-5.3-2.64-5.3C566.06,97.75,564.94,99.63,564.94,103.17Z"/><path d="M552.08,103.55v1.3h-4.94v-1.3Z"/><path d="M534.11,103.55v1.3h-4.94v-1.3Z"/><path d="M513.25,98.25h0L511,99.47l-.34-1.34,2.84-1.52H515v13h-1.7Z"/><path d="M498.15,103.55v1.3h-4.94v-1.3Z"/><path d="M480.18,103.55v1.3h-4.95v-1.3Z"/><path d="M455.5,109.61v-1.08l1.38-1.34c3.32-3.16,4.82-4.84,4.84-6.8a2.32,2.32,0,0,0-2.58-2.54,4.43,4.43,0,0,0-2.76,1.1l-.56-1.24a5.7,5.7,0,0,1,3.68-1.32,3.66,3.66,0,0,1,4,3.78c0,2.4-1.74,4.34-4.48,7l-1,1v0h5.84v1.46Z"/><path d="M444.22,103.55v1.3h-4.94v-1.3Z"/><path d="M426.24,103.55v1.3H421.3v-1.3Z"/><path d="M402,107.59a5.93,5.93,0,0,0,2.89.82c2.26,0,3-1.44,2.94-2.52,0-1.82-1.66-2.6-3.36-2.6h-1V102h1c1.28,0,2.9-.66,2.9-2.2,0-1-.66-2-2.28-2a4.77,4.77,0,0,0-2.6.86L402,97.39a6.24,6.24,0,0,1,3.41-1c2.56,0,3.72,1.52,3.72,3.1a3.23,3.23,0,0,1-2.4,3.06v0a3.39,3.39,0,0,1,2.9,3.34c0,2.08-1.62,3.9-4.74,3.9a6.68,6.68,0,0,1-3.39-.88Z"/><path d="M390.29,103.55v1.3h-4.94v-1.3Z"/><path d="M372.31,103.55v1.3h-4.94v-1.3Z"/><path d="M353.07,109.61v-3.54h-6v-1.16l5.8-8.3h1.9v8.08h1.83v1.38h-1.83v3.54Zm0-4.92v-4.34q0-1,.06-2h-.06c-.4.76-.72,1.32-1.08,1.92l-3.18,4.42v0Z"/><path d="M336.36,103.55v1.3h-4.94v-1.3Z"/><path d="M318.38,103.55v1.3h-4.94v-1.3Z"/><path d="M301.46,98.09h-5l-.5,3.34a7,7,0,0,1,1.06-.08,5.49,5.49,0,0,1,2.8.7,3.71,3.71,0,0,1,1.86,3.34,4.51,4.51,0,0,1-4.84,4.44,6.26,6.26,0,0,1-3.24-.8l.44-1.34a5.82,5.82,0,0,0,2.78.72,2.87,2.87,0,0,0,3.08-2.82c0-1.68-1.14-2.88-3.74-2.88a13.45,13.45,0,0,0-1.8.14l.84-6.24h6.22Z"/><path d="M282.43,103.55v1.3h-4.95v-1.3Z"/><path d="M264.45,103.55v1.3h-4.94v-1.3Z"/><path d="M247.19,97.85a6.36,6.36,0,0,0-1.32.08,5.28,5.28,0,0,0-4.52,4.62h.06a4,4,0,0,1,7.06,2.7,4.35,4.35,0,0,1-4.32,4.58c-2.78,0-4.6-2.16-4.6-5.54a8.17,8.17,0,0,1,2.2-5.86,7.08,7.08,0,0,1,4.16-1.92,8.45,8.45,0,0,1,1.28-.1Zm-.5,7.5c0-1.86-1.06-3-2.68-3a2.9,2.9,0,0,0-2.52,1.6,1.5,1.5,0,0,0-.2.78c0,2.14,1,3.72,2.86,3.72C245.67,108.47,246.69,107.21,246.69,105.35Z"/><path d="M228.49,103.55v1.3h-4.94v-1.3Z"/><path d="M210.52,103.55v1.3h-4.94v-1.3Z"/><path d="M194.28,96.61v1.16l-5.66,11.84H186.8l5.64-11.5v0h-6.36V96.61Z"/><path d="M174.56,103.55v1.3h-4.94v-1.3Z"/><path d="M156.58,103.55v1.3h-4.94v-1.3Z"/><path d="M131.75,106.31a3.71,3.71,0,0,1,2.58-3.48l0-.06a3.22,3.22,0,0,1-2.06-2.92c0-2.06,1.74-3.46,4-3.46,2.52,0,3.78,1.58,3.78,3.2a3.3,3.3,0,0,1-2.14,3v.06a3.6,3.6,0,0,1,2.62,3.36c0,2.27-1.94,3.78-4.42,3.78C133.39,109.83,131.75,108.21,131.75,106.31Zm7-.08c0-1.58-1.1-2.34-2.86-2.84a2.82,2.82,0,0,0-2.34,2.68,2.4,2.4,0,0,0,2.6,2.48A2.35,2.35,0,0,0,138.75,106.23Zm-4.84-6.5c0,1.3,1,2,2.48,2.4a2.56,2.56,0,0,0,2-2.36,2,2,0,0,0-2.2-2.12A2.07,2.07,0,0,0,133.91,99.73Z"/><path d="M120.63,103.55v1.3h-4.94v-1.3Z"/><path d="M102.65,103.55v1.3H97.71v-1.3Z"/><path d="M79,108.37a8.09,8.09,0,0,0,1.42-.05,5,5,0,0,0,2.73-1.27,5.71,5.71,0,0,0,1.72-3.46H84.8a3.84,3.84,0,0,1-3.07,1.4,3.77,3.77,0,0,1-3.84-4,4.46,4.46,0,0,1,4.44-4.62c2.67,0,4.31,2.16,4.31,5.48A8.21,8.21,0,0,1,84.4,108a6.44,6.44,0,0,1-3.79,1.74,8.31,8.31,0,0,1-1.62.11Zm.64-7.48a2.5,2.5,0,0,0,2.51,2.76,2.92,2.92,0,0,0,2.56-1.36,1.16,1.16,0,0,0,.16-.64c0-2.22-.82-3.92-2.67-3.92C80.69,97.73,79.63,99.05,79.63,100.89Z"/><path d="M66.7,103.55v1.3H61.76v-1.3Z"/><path d="M48.72,103.55v1.3H43.78v-1.3Z"/><path d="M30.74,103.55v1.3H25.8v-1.3Z"/><path d="M12.77,103.55v1.3H7.83v-1.3Z"/><line class="cls-1" x1="568.13" y1="35.58" x2="568.13" y2="76.81"/><polygon points="565.38 74.35 568.13 76.48 570.88 74.35 568.13 80.86 565.38 74.35"/><polygon class="cls-2" points="565.98 75.13 568.13 80.2 568.13 76.8 565.98 75.13"/><polygon class="cls-3" points="570.28 75.13 568.13 80.2 568.13 76.8 570.28 75.13"/><line class="cls-1" x1="550.23" y1="35.58" x2="517.47" y2="77.66"/><polygon points="516.81 74.04 517.67 77.41 521.15 77.42 514.98 80.86 516.81 74.04"/><polygon class="cls-2" points="516.8 75.02 515.39 80.34 517.48 77.66 516.8 75.02"/><polygon class="cls-3" points="520.2 77.66 515.39 80.34 517.48 77.66 520.2 77.66"/><line class="cls-1" x1="532.07" y1="35.85" x2="463.92" y2="78.44"/><polygon points="464.54 74.81 464.2 78.27 467.46 79.47 460.48 80.59 464.54 74.81"/><polygon class="cls-2" points="464.2 75.73 461.04 80.24 463.93 78.44 464.2 75.73"/><polygon class="cls-3" points="466.48 79.38 461.04 80.24 463.93 78.44 466.48 79.38"/><line class="cls-1" x1="513.9" y1="35.04" x2="409.98" y2="79.54"/><polygon points="411.15 76.04 410.28 79.41 413.32 81.1 406.26 81.13 411.15 76.04"/><polygon class="cls-2" points="410.67 76.9 406.86 80.87 409.99 79.53 410.67 76.9"/><polygon class="cls-3" points="412.37 80.85 406.86 80.87 409.99 79.53 412.37 80.85"/><line class="cls-1" x1="496.28" y1="35.04" x2="356.7" y2="79.36"/><polygon points="358.21 76 357.01 79.26 359.88 81.24 352.84 80.59 358.21 76"/><polygon class="cls-2" points="357.65 76.81 353.47 80.39 356.71 79.36 357.65 76.81"/><polygon class="cls-3" points="358.95 80.9 353.47 80.39 356.71 79.36 358.95 80.9"/><line class="cls-1" x1="477.84" y1="35.04" x2="301.72" y2="80.13"/><polygon points="303.42 76.85 302.04 80.05 304.79 82.18 297.8 81.13 303.42 76.85"/><polygon class="cls-2" points="302.81 77.63 298.44 80.97 301.73 80.12 302.81 77.63"/><polygon class="cls-3" points="303.88 81.79 298.44 80.97 301.73 80.12 303.88 81.79"/><line class="cls-1" x1="459.94" y1="35.58" x2="248.08" y2="79.76"/><polygon points="249.92 76.57 248.4 79.7 251.04 81.95 244.11 80.59 249.92 76.57"/><polygon class="cls-2" points="249.28 77.31 244.75 80.45 248.09 79.76 249.28 77.31"/><polygon class="cls-3" points="250.16 81.52 244.75 80.45 248.09 79.76 250.16 81.52"/><line class="cls-1" x1="442.32" y1="35.04" x2="194.14" y2="79.87"/><polygon points="196.07 76.72 194.46 79.81 197.05 82.14 190.16 80.59 196.07 76.72"/><polygon class="cls-2" points="195.41 77.45 190.8 80.47 194.15 79.87 195.41 77.45"/><polygon class="cls-3" points="196.17 81.69 190.8 80.47 194.15 79.87 196.17 81.69"/><line class="cls-1" x1="424.15" y1="35.85" x2="139.66" y2="80.5"/><polygon points="141.66 77.4 139.98 80.45 142.51 82.84 135.66 81.13 141.66 77.4"/><polygon class="cls-2" points="140.98 78.12 136.3 81.03 139.67 80.5 140.98 78.12"/><polygon class="cls-3" points="141.65 82.37 136.3 81.03 139.67 80.5 141.65 82.37"/><line class="cls-1" x1="406.26" y1="35.85" x2="86.52" y2="80.57"/><polygon points="88.58 77.5 86.85 80.53 89.34 82.96 82.51 81.13 88.58 77.5"/><polygon class="cls-2" points="87.89 78.21 83.16 81.04 86.53 80.57 87.89 78.21"/><polygon class="cls-3" points="88.48 82.47 83.16 81.04 86.53 80.57 88.48 82.47"/></svg>