<svg id="Layer_1" data-name="Layer 1" xmlns="http://www.w3.org/2000/svg" viewBox="0 0 220 220"><defs><style>.cls-1,.cls-2,.cls-3{fill:none;stroke:#000;stroke-miterlimit:10;}.cls-1{stroke-width:0.5px;}.cls-3{stroke-dasharray:4;}.cls-4{font-size:16px;font-family:MyriadPro-Regular, Myriad Pro;}</style></defs><title>Morton Split Horiz</title><circle cx="56.08" cy="163.47" r="5.14"/><circle cx="92.08" cy="162.85" r="5.14"/><circle cx="128.07" cy="162.54" r="5.14"/><circle cx="164.07" cy="163.16" r="5.14"/><circle cx="56.08" cy="127.48" r="5.14"/><circle cx="92.08" cy="126.85" r="5.14"/><circle cx="128.07" cy="126.54" r="5.14"/><circle cx="164.07" cy="127.17" r="5.14"/><circle cx="56.08" cy="91.48" r="5.14"/><circle cx="92.08" cy="90.86" r="5.14"/><circle cx="128.07" cy="90.55" r="5.14"/><circle cx="164.07" cy="91.17" r="5.14"/><circle cx="56.08" cy="55.49" r="5.14"/><circle cx="92.08" cy="54.86" r="5.14"/><circle cx="128.07" cy="54.55" r="5.14"/><circle cx="164.07" cy="55.18" r="5.14"/><polyline class="cls-1" points="56.09 163.47 92.08 162.85 56.09 127.48 92.08 126.85 128.07 162.54 164.07 163.16 128.07 126.54 164.07 127.17 56.09 91.48 92.08 90.86 56.09 55.49 92.08 54.87 128.07 90.55 164.07 91.17 128.07 54.55 164.07 55.18"/><rect class="cls-2" x="20.49" y="19.86" width="180" height="180"/><line class="cls-3" x1="2.49" y1="109.86" x2="216.49" y2="109.86"/><text class="cls-4" transform="translate(101.7 214.87)">(a)</text></svg>