<svg id="Layer_1" data-name="Layer 1" xmlns="http://www.w3.org/2000/svg" viewBox="0 0 220 220"><defs><style>.cls-1,.cls-2,.cls-3{fill:none;stroke:#000;stroke-miterlimit:10;}.cls-1{stroke-width:0.5px;}.cls-3{stroke-dasharray:4;}.cls-4{font-size:16px;font-family:MyriadPro-Regular, Myriad Pro;}</style></defs><title>Morton Split Horiz 3</title><circle cx="55.83" cy="163.47" r="5.14"/><circle cx="91.83" cy="162.85" r="5.14"/><circle cx="127.82" cy="162.54" r="5.14"/><circle cx="163.82" cy="163.16" r="5.14"/><circle cx="55.83" cy="127.48" r="5.14"/><circle cx="91.83" cy="126.85" r="5.14"/><circle cx="127.82" cy="126.54" r="5.14"/><circle cx="163.82" cy="127.17" r="5.14"/><circle cx="55.83" cy="91.48" r="5.14"/><circle cx="91.83" cy="90.86" r="5.14"/><circle cx="127.82" cy="90.55" r="5.14"/><circle cx="163.82" cy="91.17" r="5.14"/><circle cx="55.83" cy="55.49" r="5.14"/><circle cx="91.83" cy="54.86" r="5.14"/><circle cx="127.82" cy="54.55" r="5.14"/><circle cx="163.82" cy="55.18" r="5.14"/><polyline class="cls-1" points="55.84 163.47 91.83 162.85 55.84 127.48 91.83 126.85 127.82 162.54 163.82 163.16 127.82 126.54 163.82 127.17 55.84 91.48 91.83 90.86 55.84 55.49 91.83 54.87 127.82 90.55 163.82 91.17 127.82 54.55 163.82 55.18"/><rect class="cls-2" x="20.24" y="19.86" width="180" height="180"/><line class="cls-3" x1="2.24" y1="109.86" x2="216.24" y2="109.86"/><line class="cls-3" x1="3.24" y1="71.86" x2="217.24" y2="71.86"/><line class="cls-3" x1="3.24" y1="147.86" x2="217.24" y2="147.86"/><text class="cls-4" transform="translate(101.21 214.52)">(d)</text></svg>