<svg id="Layer_1" data-name="Layer 1" xmlns="http://www.w3.org/2000/svg" viewBox="0 0 320 300"><defs><style>.cls-1{font-size:22.04px;font-family:MyriadPro-Regular, Myriad Pro;}.cls-2{fill:none;stroke:#000;stroke-miterlimit:10;}.cls-3{fill:#a6a6a6;}.cls-4{fill:#666;}</style></defs><title>Morton Binary</title><text class="cls-1" transform="translate(14.65 278.83)">0000</text><text class="cls-1" transform="translate(104.37 279.42)">0001</text><text class="cls-1" transform="translate(14.66 195.57)">0010</text><text class="cls-1" transform="translate(104.37 196.55)">0011</text><line class="cls-2" x1="63.03" y1="271.74" x2="97.5" y2="271.74"/><polygon points="95.05 274.5 97.18 271.74 95.05 268.99 101.55 271.74 95.05 274.5"/><polygon class="cls-3" points="95.83 273.89 100.9 271.74 97.49 271.74 95.83 273.89"/><polygon class="cls-4" points="95.83 269.59 100.9 271.74 97.49 271.74 95.83 269.59"/><line class="cls-2" x1="63.03" y1="188.82" x2="97.5" y2="188.82"/><polygon points="95.05 191.57 97.18 188.82 95.05 186.07 101.55 188.82 95.05 191.57"/><polygon class="cls-3" points="95.83 190.97 100.9 188.82 97.49 188.82 95.83 190.97"/><polygon class="cls-4" points="95.83 186.67 100.9 188.82 97.49 188.82 95.83 186.67"/><line class="cls-2" x1="126.87" y1="262.34" x2="42.69" y2="200.08"/><polygon points="46.3 199.33 42.95 200.28 43.03 203.75 39.43 197.67 46.3 199.33"/><polygon class="cls-3" points="45.32 199.35 39.96 198.06 42.7 200.09 45.32 199.35"/><polygon class="cls-4" points="42.76 202.81 39.96 198.06 42.7 200.09 42.76 202.81"/><text class="cls-1" transform="translate(180.98 278.83)">0100</text><text class="cls-1" transform="translate(270.7 279.42)">0101</text><text class="cls-1" transform="translate(180.98 195.57)">0110</text><text class="cls-1" transform="translate(270.7 196.55)">0111</text><line class="cls-2" x1="229.36" y1="271.74" x2="263.83" y2="271.74"/><polygon points="261.37 274.5 263.5 271.74 261.37 268.99 267.88 271.74 261.37 274.5"/><polygon class="cls-3" points="262.15 273.89 267.23 271.74 263.82 271.74 262.15 273.89"/><polygon class="cls-4" points="262.15 269.59 267.23 271.74 263.82 271.74 262.15 269.59"/><line class="cls-2" x1="229.36" y1="188.82" x2="263.83" y2="188.82"/><polygon points="261.37 191.57 263.5 188.82 261.37 186.07 267.88 188.82 261.37 191.57"/><polygon class="cls-3" points="262.15 190.97 267.23 188.82 263.82 188.82 262.15 190.97"/><polygon class="cls-4" points="262.15 186.67 267.23 188.82 263.82 188.82 262.15 186.67"/><line class="cls-2" x1="293.19" y1="262.34" x2="209.02" y2="200.08"/><polygon points="212.63 199.33 209.28 200.28 209.36 203.75 205.76 197.67 212.63 199.33"/><polygon class="cls-3" points="211.65 199.35 206.29 198.06 209.03 200.09 211.65 199.35"/><polygon class="cls-4" points="209.09 202.81 206.29 198.06 209.03 200.09 209.09 202.81"/><line class="cls-2" x1="150.13" y1="189.95" x2="179.25" y2="255.2"/><polygon points="175.73 254.08 179.11 254.9 180.76 251.84 180.9 258.9 175.73 254.08"/><polygon class="cls-3" points="176.6 254.55 180.63 258.3 179.24 255.19 176.6 254.55"/><polygon class="cls-4" points="180.53 252.79 180.63 258.3 179.24 255.19 180.53 252.79"/><text class="cls-1" transform="translate(14.43 113.96)">1000</text><text class="cls-1" transform="translate(104.15 114.55)">1001</text><text class="cls-1" transform="translate(14.43 30.7)">1010</text><text class="cls-1" transform="translate(104.15 31.67)">1011</text><line class="cls-2" x1="62.81" y1="106.87" x2="97.27" y2="106.87"/><polygon points="94.82 109.62 96.95 106.87 94.82 104.12 101.33 106.87 94.82 109.62"/><polygon class="cls-3" points="95.6 109.02 100.67 106.87 97.27 106.87 95.6 109.02"/><polygon class="cls-4" points="95.6 104.72 100.67 106.87 97.27 106.87 95.6 104.72"/><line class="cls-2" x1="62.81" y1="23.95" x2="97.27" y2="23.95"/><polygon points="94.82 26.7 96.95 23.95 94.82 21.2 101.33 23.95 94.82 26.7"/><polygon class="cls-3" points="95.6 26.1 100.67 23.95 97.27 23.95 95.6 26.1"/><polygon class="cls-4" points="95.6 21.8 100.67 23.95 97.27 23.95 95.6 21.8"/><line class="cls-2" x1="126.64" y1="97.47" x2="42.46" y2="35.21"/><polygon points="46.07 34.46 42.73 35.4 42.8 38.88 39.21 32.8 46.07 34.46"/><polygon class="cls-3" points="45.09 34.48 39.73 33.19 42.47 35.22 45.09 34.48"/><polygon class="cls-4" points="42.53 37.93 39.73 33.19 42.47 35.22 42.53 37.93"/><text class="cls-1" transform="translate(180.76 113.96)">1100</text><text class="cls-1" transform="translate(270.47 114.55)">1101</text><text class="cls-1" transform="translate(180.76 30.7)">1110</text><text class="cls-1" transform="translate(270.48 31.67)">1111</text><line class="cls-2" x1="229.14" y1="106.87" x2="263.6" y2="106.87"/><polygon points="261.15 109.62 263.28 106.87 261.15 104.12 267.65 106.87 261.15 109.62"/><polygon class="cls-3" points="261.93 109.02 267 106.87 263.59 106.87 261.93 109.02"/><polygon class="cls-4" points="261.93 104.72 267 106.87 263.59 106.87 261.93 104.72"/><line class="cls-2" x1="229.14" y1="23.95" x2="263.6" y2="23.95"/><polygon points="261.15 26.7 263.28 23.95 261.15 21.2 267.65 23.95 261.15 26.7"/><polygon class="cls-3" points="261.93 26.1 267 23.95 263.59 23.95 261.93 26.1"/><polygon class="cls-4" points="261.93 21.8 267 23.95 263.59 23.95 261.93 21.8"/><line class="cls-2" x1="292.97" y1="97.47" x2="208.79" y2="35.21"/><polygon points="212.4 34.46 209.05 35.4 209.13 38.88 205.53 32.8 212.4 34.46"/><polygon class="cls-3" points="211.42 34.48 206.06 33.19 208.8 35.22 211.42 34.48"/><polygon class="cls-4" points="208.86 37.93 206.06 33.19 208.8 35.22 208.86 37.93"/><line class="cls-2" x1="149.9" y1="25.08" x2="179.02" y2="90.33"/><polygon points="175.51 89.21 178.89 90.03 180.53 86.97 180.67 94.03 175.51 89.21"/><polygon class="cls-3" points="176.37 89.67 180.4 93.43 179.02 90.32 176.37 89.67"/><polygon class="cls-4" points="180.3 87.92 180.4 93.43 179.02 90.32 180.3 87.92"/><line class="cls-2" x1="292.39" y1="176.07" x2="68.22" y2="118.91"/><polygon points="71.27 116.85 68.53 118.99 69.91 122.18 64.29 117.91 71.27 116.85"/><polygon class="cls-3" points="70.37 117.24 64.92 118.07 68.22 118.91 70.37 117.24"/><polygon class="cls-4" points="69.31 121.4 64.92 118.07 68.22 118.91 69.31 121.4"/></svg>