<svg id="Layer_1" data-name="Layer 1" xmlns="http://www.w3.org/2000/svg" viewBox="0 0 220 220"><defs><style>.cls-1,.cls-2,.cls-3{fill:none;stroke:#000;stroke-miterlimit:10;}.cls-1{stroke-width:0.5px;}.cls-3{stroke-dasharray:4;}.cls-4{font-size:16px;font-family:MyriadPro-Regular, Myriad Pro;}.cls-5{letter-spacing:0em;}</style></defs><title>Morton Split Vert</title><circle cx="55.46" cy="163.47" r="5.14"/><circle cx="91.45" cy="162.85" r="5.14"/><circle cx="127.45" cy="162.54" r="5.14"/><circle cx="163.44" cy="163.16" r="5.14"/><circle cx="55.46" cy="127.48" r="5.14"/><circle cx="91.45" cy="126.85" r="5.14"/><circle cx="127.45" cy="126.54" r="5.14"/><circle cx="163.44" cy="127.17" r="5.14"/><circle cx="55.46" cy="91.48" r="5.14"/><circle cx="91.45" cy="90.86" r="5.14"/><circle cx="127.45" cy="90.55" r="5.14"/><circle cx="163.44" cy="91.17" r="5.14"/><circle cx="55.46" cy="55.49" r="5.14"/><circle cx="91.45" cy="54.86" r="5.14"/><circle cx="127.45" cy="54.55" r="5.14"/><circle cx="163.44" cy="55.18" r="5.14"/><polyline class="cls-1" points="55.46 163.47 91.45 162.85 55.46 127.48 91.45 126.85 127.45 162.54 163.44 163.16 127.45 126.54 163.44 127.17 55.46 91.48 91.45 90.86 55.46 55.49 91.45 54.87 127.45 90.55 163.44 91.17 127.45 54.55 163.44 55.18"/><rect class="cls-2" x="19.86" y="19.86" width="180" height="180"/><line class="cls-3" x1="108.86" y1="202.45" x2="108.86" y2="2.86"/><text class="cls-4" transform="translate(101.65 214.84)">(<tspan class="cls-5" x="4.54" y="0">b</tspan><tspan x="13.6" y="0">)</tspan></text></svg>