<svg id="Layer_1" data-name="Layer 1" xmlns="http://www.w3.org/2000/svg" viewBox="0 0 250 250"><defs><style>.cls-1,.cls-2{fill:none;stroke:#000;stroke-miterlimit:10;}.cls-1{stroke-width:0.5px;}.cls-3{font-size:21.99px;font-family:MyriadPro-Regular, Myriad Pro;}</style></defs><title>Morton Basic</title><circle cx="73.29" cy="177.2" r="4.71"/><circle cx="106.28" cy="176.63" r="4.71"/><circle cx="139.26" cy="176.35" r="4.71"/><circle cx="172.25" cy="176.92" r="4.71"/><circle cx="73.29" cy="144.22" r="4.71"/><circle cx="106.28" cy="143.65" r="4.71"/><circle cx="139.26" cy="143.36" r="4.71"/><circle cx="172.25" cy="143.93" r="4.71"/><circle cx="73.29" cy="111.23" r="4.71"/><circle cx="106.28" cy="110.66" r="4.71"/><circle cx="139.26" cy="110.37" r="4.71"/><circle cx="172.25" cy="110.94" r="4.71"/><circle cx="73.29" cy="78.24" r="4.71"/><circle cx="106.28" cy="77.67" r="4.71"/><circle cx="139.26" cy="77.39" r="4.71"/><circle cx="172.25" cy="77.96" r="4.71"/><polyline class="cls-1" points="73.29 177.2 106.28 176.63 73.29 144.22 106.28 143.65 139.26 176.35 172.25 176.92 139.26 143.36 172.25 143.93 73.29 111.23 106.28 110.66 73.29 78.24 106.28 77.67 139.26 110.37 172.25 110.94 139.26 77.39 172.25 77.96 206.09 176.78"/><polyline class="cls-2" points="40.73 12.27 40.73 209.76 239.08 209.76"/><text class="cls-3" transform="translate(68.15 229.73)">0</text><text class="cls-3" transform="translate(101.27 229.73)">1</text><text class="cls-3" transform="translate(127.04 229.73)">10</text><text class="cls-3" transform="translate(161.45 229.73)">11</text><text class="cls-3" transform="translate(10.92 84.69)">11</text><text class="cls-3" transform="translate(10.92 117.68)">10</text><text class="cls-3" transform="translate(16.56 150.67)">1</text><text class="cls-3" transform="translate(16.56 183.65)">0</text><text class="cls-3" transform="translate(198.62 228.21)">...</text><text class="cls-3" transform="translate(15.9 52.01)">...</text></svg>