<?xml version="1.0" encoding="UTF-8" standalone="no"?>
<svg
   xmlns:dc="http://purl.org/dc/elements/1.1/"
   xmlns:cc="http://creativecommons.org/ns#"
   xmlns:rdf="http://www.w3.org/1999/02/22-rdf-syntax-ns#"
   xmlns:svg="http://www.w3.org/2000/svg"
   xmlns="http://www.w3.org/2000/svg"
   xmlns:sodipodi="http://sodipodi.sourceforge.net/DTD/sodipodi-0.dtd"
   xmlns:inkscape="http://www.inkscape.org/namespaces/inkscape"
   id="Layer_1"
   data-name="Layer 1"
   viewBox="0 0 578.5 208.48"
   version="1.1"
   sodipodi:docname="Mortonpow2decomposition.svg"
   inkscape:version="1.0.1 (3bc2e813f5, 2020-09-07)">
  <metadata
     id="metadata4846">
    <rdf:RDF>
      <cc:Work
         rdf:about="">
        <dc:format>image/svg+xml</dc:format>
        <dc:type
           rdf:resource="http://purl.org/dc/dcmitype/StillImage" />
      </cc:Work>
    </rdf:RDF>
  </metadata>
  <sodipodi:namedview
     pagecolor="#ffffff"
     bordercolor="#666666"
     borderopacity="1"
     objecttolerance="10"
     gridtolerance="10"
     guidetolerance="10"
     inkscape:pageopacity="0"
     inkscape:pageshadow="2"
     inkscape:window-width="1920"
     inkscape:window-height="1017"
     id="namedview4844"
     showgrid="false"
     showguides="true"
     inkscape:guide-bbox="true"
     inkscape:snap-bbox="true"
     inkscape:bbox-paths="true"
     inkscape:bbox-nodes="true"
     inkscape:snap-bbox-edge-midpoints="true"
     inkscape:snap-bbox-midpoints="true"
     inkscape:zoom="7.0111746"
     inkscape:cx="151.21258"
     inkscape:cy="149.70086"
     inkscape:window-x="1912"
     inkscape:window-y="-8"
     inkscape:window-maximized="1"
     inkscape:current-layer="Layer_1" />
  <defs
     id="defs4199">
    <style
       id="style4197">.cls-1{fill:none;stroke:#000;stroke-miterlimit:10;}</style>
  </defs>
  <title
     id="title4201">Morton pow2 decomposition</title>
  <path
     d="M572.12,59c0,4.42-1.64,6.86-4.52,6.86-2.54,0-4.26-2.38-4.3-6.68s1.88-6.76,4.52-6.76S572.12,54.87,572.12,59Zm-7.06.2c0,3.38,1,5.3,2.64,5.3,1.8,0,2.66-2.1,2.66-5.42s-.82-5.3-2.64-5.3C566.18,53.79,565.06,55.67,565.06,59.21Z"
     id="path4203" />
  <path
     d="M549.43,54.29h0l-2.26,1.22-.34-1.34,2.84-1.52h1.5v13h-1.7Z"
     id="path4205" />
  <path
     d="M527.63,65.65V64.57L529,63.23c3.32-3.16,4.82-4.84,4.84-6.8a2.32,2.32,0,0,0-2.58-2.54,4.43,4.43,0,0,0-2.76,1.1L528,53.75a5.7,5.7,0,0,1,3.68-1.32,3.66,3.66,0,0,1,4,3.78c0,2.4-1.74,4.34-4.48,7l-1,1v0h5.85v1.46Z"
     id="path4207" />
  <path
     d="M510.07,63.63a5.93,5.93,0,0,0,2.89.82c2.26,0,3-1.44,2.94-2.52,0-1.82-1.66-2.6-3.36-2.6h-1V58h1c1.28,0,2.9-.66,2.9-2.2,0-1-.66-2-2.28-2a4.72,4.72,0,0,0-2.6.86l-.47-1.28a6.24,6.24,0,0,1,3.41-1c2.56,0,3.72,1.52,3.72,3.1a3.23,3.23,0,0,1-2.4,3.06v0a3.39,3.39,0,0,1,2.9,3.34c0,2.08-1.62,3.9-4.74,3.9a6.68,6.68,0,0,1-3.39-.88Z"
     id="path4209" />
  <path
     d="M497.12,65.65V62.11h-6.05V61l5.81-8.3h1.9v8.08h1.82v1.38h-1.82v3.54Zm0-4.92V56.39q0-1,.06-2h-.06c-.4.76-.72,1.32-1.08,1.92l-3.18,4.42v0Z"
     id="path4211" />
  <path
     d="M481.46,54.13h-5l-.5,3.34a7,7,0,0,1,1.06-.08,5.49,5.49,0,0,1,2.8.7,3.71,3.71,0,0,1,1.86,3.34,4.51,4.51,0,0,1-4.84,4.44,6.36,6.36,0,0,1-3.24-.8l.44-1.34a5.82,5.82,0,0,0,2.78.72,2.87,2.87,0,0,0,3.08-2.82c0-1.68-1.14-2.88-3.74-2.88a13.45,13.45,0,0,0-1.8.14l.84-6.24h6.22Z"
     id="path4213" />
  <path
     d="M463.14,53.89a6.36,6.36,0,0,0-1.32.08,5.28,5.28,0,0,0-4.52,4.62h.06a4,4,0,0,1,7.06,2.7,4.35,4.35,0,0,1-4.32,4.58c-2.78,0-4.6-2.16-4.6-5.54a8.17,8.17,0,0,1,2.2-5.86,7.08,7.08,0,0,1,4.16-1.92,8.45,8.45,0,0,1,1.28-.1Zm-.5,7.5c0-1.86-1.06-3-2.68-3a2.9,2.9,0,0,0-2.52,1.6,1.5,1.5,0,0,0-.2.78c0,2.14,1,3.72,2.86,3.72C461.62,64.51,462.64,63.25,462.64,61.39Z"
     id="path4215" />
  <path
     d="M446.18,52.65v1.16l-5.66,11.84H438.7l5.64-11.5v0H438V52.65Z"
     id="path4217" />
  <path
     d="M426.46,59.59v1.3h-4.94v-1.3Z"
     id="path4219" />
  <path
     d="M408.48,59.59v1.3h-4.94v-1.3Z"
     id="path4221" />
  <path
     d="M390.5,59.59v1.3h-4.94v-1.3Z"
     id="path4223" />
  <path
     d="M372.52,59.59v1.3h-4.94v-1.3Z"
     id="path4225" />
  <path
     d="M354.54,59.59v1.3H349.6v-1.3Z"
     id="path4227" />
  <path
     d="M336.57,59.59v1.3h-4.95v-1.3Z"
     id="path4229" />
  <path
     d="M318.59,59.59v1.3h-4.94v-1.3Z"
     id="path4231" />
  <path
     d="M300.61,59.59v1.3h-4.94v-1.3Z"
     id="path4233" />
  <path
     d="M282.63,59.59v1.3h-4.94v-1.3Z"
     id="path4235" />
  <path
     d="M264.65,59.59v1.3h-4.94v-1.3Z"
     id="path4237" />
  <path
     d="M246.67,59.59v1.3h-4.94v-1.3Z"
     id="path4239" />
  <path
     d="M228.69,59.59v1.3h-4.94v-1.3Z"
     id="path4241" />
  <path
     d="M210.71,59.59v1.3h-4.94v-1.3Z"
     id="path4243" />
  <path
     d="M192.73,59.59v1.3h-4.94v-1.3Z"
     id="path4245" />
  <path
     d="M174.75,59.59v1.3h-4.94v-1.3Z"
     id="path4247" />
  <path
     d="M156.77,59.59v1.3h-4.94v-1.3Z"
     id="path4249" />
  <path
     d="M131.93,62.35a3.71,3.71,0,0,1,2.58-3.48l0-.06a3.22,3.22,0,0,1-2.06-2.92c0-2.06,1.74-3.46,4-3.46,2.53,0,3.79,1.58,3.79,3.2a3.3,3.3,0,0,1-2.14,3v.06a3.6,3.6,0,0,1,2.62,3.36c0,2.26-1.94,3.78-4.42,3.78C133.57,65.87,131.93,64.25,131.93,62.35Zm7-.08c0-1.58-1.1-2.34-2.87-2.84a2.81,2.81,0,0,0-2.33,2.68,2.39,2.39,0,0,0,2.59,2.48A2.36,2.36,0,0,0,138.94,62.27Zm-4.85-6.5c0,1.3,1,2,2.48,2.4a2.57,2.57,0,0,0,2-2.36,2,2,0,0,0-2.2-2.12A2.08,2.08,0,0,0,134.09,55.77Z"
     id="path4251" />
  <path
     d="M115.14,64.41a7.37,7.37,0,0,0,1.42-.06,4.9,4.9,0,0,0,2.72-1.26A5.71,5.71,0,0,0,121,59.63h-.06a3.82,3.82,0,0,1-3.06,1.4,3.77,3.77,0,0,1-3.85-4,4.47,4.47,0,0,1,4.45-4.62c2.66,0,4.3,2.16,4.3,5.48a8.21,8.21,0,0,1-2.24,6.1,6.5,6.5,0,0,1-3.78,1.74,8.24,8.24,0,0,1-1.62.1Zm.64-7.48a2.5,2.5,0,0,0,2.5,2.76,2.91,2.91,0,0,0,2.56-1.36,1.16,1.16,0,0,0,.16-.64c0-2.22-.82-3.92-2.66-3.92C116.84,53.77,115.78,55.09,115.78,56.93Z"
     id="path4253" />
  <path
     d="M102.84,59.59v1.3H97.9v-1.3Z"
     id="path4255" />
  <path
     d="M84.86,59.59v1.3H79.92v-1.3Z"
     id="path4257" />
  <path
     d="M66.88,59.59v1.3H61.94v-1.3Z"
     id="path4259" />
  <path
     d="M48.9,59.59v1.3H44v-1.3Z"
     id="path4261" />
  <path
     d="M30.92,59.59v1.3H26v-1.3Z"
     id="path4263" />
  <path
     d="M12.83,59.59v1.3H7.89v-1.3Z"
     id="path4265" />
  <rect
     class="cls-1"
     x="1.26"
     y="45.72"
     width="576.36"
     height="27.18"
     id="rect4267" />
  <line
     class="cls-1"
     x1="559.39"
     y1="45.71"
     x2="559.39"
     y2="72.49"
     id="line4269" />
  <line
     class="cls-1"
     x1="541.37"
     y1="45.71"
     x2="541.37"
     y2="72.49"
     id="line4271" />
  <line
     class="cls-1"
     x1="523.34"
     y1="45.71"
     x2="523.34"
     y2="72.49"
     id="line4273" />
  <line
     class="cls-1"
     x1="505.32"
     y1="45.71"
     x2="505.32"
     y2="72.49"
     id="line4275" />
  <line
     class="cls-1"
     x1="487.29"
     y1="45.71"
     x2="487.29"
     y2="72.49"
     id="line4277" />
  <line
     class="cls-1"
     x1="469.27"
     y1="45.71"
     x2="469.27"
     y2="72.49"
     id="line4279" />
  <line
     class="cls-1"
     x1="451.25"
     y1="45.71"
     x2="451.25"
     y2="72.49"
     id="line4281" />
  <line
     class="cls-1"
     x1="433.22"
     y1="45.71"
     x2="433.22"
     y2="72.49"
     id="line4283" />
  <line
     class="cls-1"
     x1="415.2"
     y1="45.71"
     x2="415.2"
     y2="72.49"
     id="line4285" />
  <line
     class="cls-1"
     x1="397.17"
     y1="45.71"
     x2="397.17"
     y2="72.49"
     id="line4287" />
  <line
     class="cls-1"
     x1="379.15"
     y1="45.71"
     x2="379.15"
     y2="72.49"
     id="line4289" />
  <line
     class="cls-1"
     x1="361.13"
     y1="45.71"
     x2="361.13"
     y2="72.49"
     id="line4291" />
  <line
     class="cls-1"
     x1="343.1"
     y1="45.71"
     x2="343.1"
     y2="72.49"
     id="line4293" />
  <line
     class="cls-1"
     x1="325.08"
     y1="45.71"
     x2="325.08"
     y2="72.49"
     id="line4295" />
  <line
     class="cls-1"
     x1="307.06"
     y1="45.71"
     x2="307.06"
     y2="72.49"
     id="line4297" />
  <line
     class="cls-1"
     x1="289.03"
     y1="45.71"
     x2="289.03"
     y2="72.49"
     id="line4299" />
  <line
     class="cls-1"
     x1="271.01"
     y1="45.71"
     x2="271.01"
     y2="72.49"
     id="line4301" />
  <line
     class="cls-1"
     x1="252.98"
     y1="45.71"
     x2="252.98"
     y2="72.49"
     id="line4303" />
  <line
     class="cls-1"
     x1="234.96"
     y1="45.71"
     x2="234.96"
     y2="72.49"
     id="line4305" />
  <line
     class="cls-1"
     x1="216.94"
     y1="45.71"
     x2="216.94"
     y2="72.49"
     id="line4307" />
  <line
     class="cls-1"
     x1="198.91"
     y1="45.71"
     x2="198.91"
     y2="72.49"
     id="line4309" />
  <line
     class="cls-1"
     x1="180.89"
     y1="45.71"
     x2="180.89"
     y2="72.49"
     id="line4311" />
  <line
     class="cls-1"
     x1="162.86"
     y1="45.71"
     x2="162.86"
     y2="72.49"
     id="line4313" />
  <line
     class="cls-1"
     x1="144.84"
     y1="45.71"
     x2="144.84"
     y2="72.49"
     id="line4315" />
  <line
     class="cls-1"
     x1="126.82"
     y1="45.71"
     x2="126.82"
     y2="72.49"
     id="line4317" />
  <line
     class="cls-1"
     x1="108.79"
     y1="45.71"
     x2="108.79"
     y2="72.49"
     id="line4319" />
  <line
     class="cls-1"
     x1="90.77"
     y1="45.71"
     x2="90.77"
     y2="72.49"
     id="line4321" />
  <line
     class="cls-1"
     x1="72.74"
     y1="45.71"
     x2="72.74"
     y2="72.49"
     id="line4323" />
  <line
     class="cls-1"
     x1="54.72"
     y1="45.71"
     x2="54.72"
     y2="72.49"
     id="line4325" />
  <line
     class="cls-1"
     x1="36.7"
     y1="45.71"
     x2="36.7"
     y2="72.49"
     id="line4327" />
  <line
     class="cls-1"
     x1="18.67"
     y1="45.71"
     x2="18.67"
     y2="72.49"
     id="line4329" />
  <path
     d="M572.12,13.8c0,4.42-1.64,6.86-4.52,6.86-2.54,0-4.26-2.38-4.3-6.68s1.88-6.77,4.52-6.77S572.12,9.66,572.12,13.8Zm-7.06.2c0,3.38,1,5.3,2.64,5.3,1.8,0,2.66-2.1,2.66-5.42s-.82-5.3-2.64-5.3C566.18,8.58,565.06,10.46,565.06,14Z"
     id="path4331" />
  <path
     d="M549.82,9.08h0l-2.26,1.21L547.18,9,550,7.43h1.5v13h-1.7Z"
     id="path4333" />
  <path
     d="M528,20.44V19.36L529.4,18c3.32-3.16,4.82-4.84,4.84-6.8a2.33,2.33,0,0,0-2.58-2.55,4.43,4.43,0,0,0-2.76,1.11l-.56-1.24A5.66,5.66,0,0,1,532,7.21,3.66,3.66,0,0,1,536,11c0,2.4-1.74,4.34-4.48,7l-1,1v0h5.84v1.46Z"
     id="path4335" />
  <path
     d="M510.46,18.42a5.88,5.88,0,0,0,2.88.82c2.26,0,3-1.44,2.94-2.52,0-1.82-1.66-2.6-3.36-2.6h-1V12.8h1c1.28,0,2.9-.66,2.9-2.2,0-1-.66-2-2.28-2a4.7,4.7,0,0,0-2.6.87l-.46-1.29a6.18,6.18,0,0,1,3.4-1c2.56,0,3.72,1.53,3.72,3.11a3.23,3.23,0,0,1-2.4,3.06v0a3.39,3.39,0,0,1,2.9,3.34c0,2.08-1.62,3.9-4.74,3.9a6.61,6.61,0,0,1-3.38-.88Z"
     id="path4337" />
  <path
     d="M497.5,20.44V16.9h-6V15.74l5.8-8.31h1.9v8.09H501V16.9h-1.82v3.54Zm0-4.92V11.18c0-.68,0-1.36.06-2h-.06c-.4.77-.72,1.33-1.08,1.93l-3.18,4.42v0Z"
     id="path4339" />
  <path
     d="M481.85,8.92h-5l-.5,3.34a7,7,0,0,1,1.06-.08,5.49,5.49,0,0,1,2.8.7,3.69,3.69,0,0,1,1.87,3.34c0,2.54-2,4.44-4.85,4.44a6.36,6.36,0,0,1-3.24-.8l.44-1.34a5.82,5.82,0,0,0,2.78.72,2.87,2.87,0,0,0,3.08-2.82c0-1.68-1.14-2.88-3.74-2.88a13.45,13.45,0,0,0-1.8.14l.84-6.25h6.23Z"
     id="path4341" />
  <path
     d="M463.53,8.67a7.13,7.13,0,0,0-1.32.08,5.29,5.29,0,0,0-4.53,4.63h.06a4,4,0,0,1,7.07,2.7,4.35,4.35,0,0,1-4.32,4.58c-2.79,0-4.61-2.16-4.61-5.54a8.22,8.22,0,0,1,2.2-5.87,7.23,7.23,0,0,1,4.16-1.92,8.66,8.66,0,0,1,1.29-.1Zm-.5,7.51c0-1.86-1.06-3-2.69-3a2.9,2.9,0,0,0-2.52,1.6,1.5,1.5,0,0,0-.2.78c0,2.14,1,3.72,2.87,3.72C462,19.3,463,18,463,16.18Z"
     id="path4343" />
  <path
     d="M446.57,7.43V8.59L440.9,20.44h-1.82l5.65-11.51v0h-6.37V7.43Z"
     id="path4345" />
  <path
     d="M420,17.14a3.71,3.71,0,0,1,2.58-3.48l0-.06a3.22,3.22,0,0,1-2.06-2.92c0-2.06,1.74-3.47,4-3.47,2.52,0,3.78,1.58,3.78,3.21a3.3,3.3,0,0,1-2.14,3v.06a3.6,3.6,0,0,1,2.62,3.36c0,2.26-1.94,3.78-4.42,3.78C421.63,20.66,420,19,420,17.14Zm7-.08c0-1.58-1.1-2.34-2.86-2.84a2.82,2.82,0,0,0-2.34,2.68,2.4,2.4,0,0,0,2.6,2.48A2.35,2.35,0,0,0,427,17.06Zm-4.84-6.5c0,1.3,1,2,2.48,2.4a2.56,2.56,0,0,0,2-2.36,2,2,0,0,0-2.2-2.13A2.07,2.07,0,0,0,422.15,10.56Z"
     id="path4347" />
  <path
     d="M403.19,19.2a7.34,7.34,0,0,0,1.42-.06,4.9,4.9,0,0,0,2.72-1.26,5.71,5.71,0,0,0,1.72-3.46H409a3.82,3.82,0,0,1-3.06,1.4,3.77,3.77,0,0,1-3.84-4,4.47,4.47,0,0,1,4.44-4.63c2.66,0,4.3,2.17,4.3,5.49a8.21,8.21,0,0,1-2.24,6.1,6.5,6.5,0,0,1-3.78,1.74,8.2,8.2,0,0,1-1.62.1Zm.64-7.48a2.5,2.5,0,0,0,2.5,2.76,2.91,2.91,0,0,0,2.56-1.36,1.16,1.16,0,0,0,.16-.64c0-2.23-.82-3.93-2.66-3.93C404.89,8.55,403.83,9.88,403.83,11.72Z"
     id="path4349" />
  <path
     d="M390.89,14.38v1.3H386v-1.3Z"
     id="path4351" />
  <path
     d="M372.91,14.38v1.3H368v-1.3Z"
     id="path4353" />
  <path
     d="M354.93,14.38v1.3H350v-1.3Z"
     id="path4355" />
  <path
     d="M337,14.38v1.3H332v-1.3Z"
     id="path4357" />
  <path
     d="M319,14.38v1.3H314v-1.3Z"
     id="path4359" />
  <path
     d="M301,14.38v1.3h-4.94v-1.3Z"
     id="path4361" />
  <path
     d="M283,14.38v1.3h-4.94v-1.3Z"
     id="path4363" />
  <path
     d="M265,14.38v1.3h-4.94v-1.3Z"
     id="path4365" />
  <path
     d="M247.06,14.38v1.3h-4.95v-1.3Z"
     id="path4367" />
  <path
     d="M229.08,14.38v1.3h-4.94v-1.3Z"
     id="path4369" />
  <path
     d="M211.1,14.38v1.3h-4.94v-1.3Z"
     id="path4371" />
  <path
     d="M193.12,14.38v1.3h-4.94v-1.3Z"
     id="path4373" />
  <path
     d="M175.14,14.38v1.3H170.2v-1.3Z"
     id="path4375" />
  <path
     d="M157.16,14.38v1.3h-4.94v-1.3Z"
     id="path4377" />
  <path
     d="M139.18,14.38v1.3h-4.94v-1.3Z"
     id="path4379" />
  <path
     d="M121.2,14.38v1.3h-4.94v-1.3Z"
     id="path4381" />
  <path
     d="M103.22,14.38v1.3H98.28v-1.3Z"
     id="path4383" />
  <path
     d="M85.24,14.38v1.3H80.3v-1.3Z"
     id="path4385" />
  <path
     d="M67.26,14.38v1.3H62.32v-1.3Z"
     id="path4387" />
  <path
     d="M49.28,14.38v1.3H44.34v-1.3Z"
     id="path4389" />
  <path
     d="M31.31,14.38v1.3H26.37v-1.3Z"
     id="path4391" />
  <path
     d="M12.83,14.38v1.3H7.89v-1.3Z"
     id="path4393" />
  <rect
     class="cls-1"
     x="1.65"
     y="0.5"
     width="576.36"
     height="27.18"
     id="rect4395" />
  <line
     class="cls-1"
     x1="559.78"
     y1="0.5"
     x2="559.78"
     y2="27.27"
     id="line4397" />
  <line
     class="cls-1"
     x1="541.75"
     y1="0.5"
     x2="541.75"
     y2="27.27"
     id="line4399" />
  <line
     class="cls-1"
     x1="523.73"
     y1="0.5"
     x2="523.73"
     y2="27.27"
     id="line4401" />
  <line
     class="cls-1"
     x1="505.7"
     y1="0.5"
     x2="505.7"
     y2="27.27"
     id="line4403" />
  <line
     class="cls-1"
     x1="487.68"
     y1="0.5"
     x2="487.68"
     y2="27.27"
     id="line4405" />
  <line
     class="cls-1"
     x1="469.66"
     y1="0.5"
     x2="469.66"
     y2="27.27"
     id="line4407" />
  <line
     class="cls-1"
     x1="451.63"
     y1="0.5"
     x2="451.63"
     y2="27.27"
     id="line4409" />
  <line
     class="cls-1"
     x1="433.61"
     y1="0.5"
     x2="433.61"
     y2="27.27"
     id="line4411" />
  <line
     class="cls-1"
     x1="415.58"
     y1="0.5"
     x2="415.58"
     y2="27.27"
     id="line4413" />
  <line
     class="cls-1"
     x1="397.56"
     y1="0.5"
     x2="397.56"
     y2="27.27"
     id="line4415" />
  <line
     class="cls-1"
     x1="379.54"
     y1="0.5"
     x2="379.54"
     y2="27.27"
     id="line4417" />
  <line
     class="cls-1"
     x1="361.51"
     y1="0.5"
     x2="361.51"
     y2="27.27"
     id="line4419" />
  <line
     class="cls-1"
     x1="343.49"
     y1="0.5"
     x2="343.49"
     y2="27.27"
     id="line4421" />
  <line
     class="cls-1"
     x1="325.47"
     y1="0.5"
     x2="325.47"
     y2="27.27"
     id="line4423" />
  <line
     class="cls-1"
     x1="307.44"
     y1="0.5"
     x2="307.44"
     y2="27.27"
     id="line4425" />
  <line
     class="cls-1"
     x1="289.42"
     y1="0.5"
     x2="289.42"
     y2="27.27"
     id="line4427" />
  <line
     class="cls-1"
     x1="271.39"
     y1="0.5"
     x2="271.39"
     y2="27.27"
     id="line4429" />
  <line
     class="cls-1"
     x1="253.37"
     y1="0.5"
     x2="253.37"
     y2="27.27"
     id="line4431" />
  <line
     class="cls-1"
     x1="235.35"
     y1="0.5"
     x2="235.35"
     y2="27.27"
     id="line4433" />
  <line
     class="cls-1"
     x1="217.32"
     y1="0.5"
     x2="217.32"
     y2="27.27"
     id="line4435" />
  <line
     class="cls-1"
     x1="199.3"
     y1="0.5"
     x2="199.3"
     y2="27.27"
     id="line4437" />
  <line
     class="cls-1"
     x1="181.27"
     y1="0.5"
     x2="181.27"
     y2="27.27"
     id="line4439" />
  <line
     class="cls-1"
     x1="163.25"
     y1="0.5"
     x2="163.25"
     y2="27.27"
     id="line4441" />
  <line
     class="cls-1"
     x1="145.23"
     y1="0.5"
     x2="145.23"
     y2="27.27"
     id="line4443" />
  <line
     class="cls-1"
     x1="127.2"
     y1="0.5"
     x2="127.2"
     y2="27.27"
     id="line4445" />
  <line
     class="cls-1"
     x1="109.18"
     y1="0.5"
     x2="109.18"
     y2="27.27"
     id="line4447" />
  <line
     class="cls-1"
     x1="91.15"
     y1="0.5"
     x2="91.15"
     y2="27.27"
     id="line4449" />
  <line
     class="cls-1"
     x1="73.13"
     y1="0.5"
     x2="73.13"
     y2="27.27"
     id="line4451" />
  <line
     class="cls-1"
     x1="55.11"
     y1="0.5"
     x2="55.11"
     y2="27.27"
     id="line4453" />
  <line
     class="cls-1"
     x1="37.08"
     y1="0.5"
     x2="37.08"
     y2="27.27"
     id="line4455" />
  <line
     class="cls-1"
     x1="19.06"
     y1="0.5"
     x2="19.06"
     y2="27.27"
     id="line4457" />
  <path
     d="M572.12,103.63c0,4.42-1.64,6.86-4.52,6.86-2.54,0-4.26-2.38-4.3-6.68s1.88-6.76,4.52-6.76S572.12,99.49,572.12,103.63Zm-7.06.2c0,3.38,1,5.3,2.64,5.3,1.8,0,2.66-2.1,2.66-5.42s-.82-5.3-2.64-5.3C566.18,98.41,565.06,100.29,565.06,103.83Z"
     id="path4459" />
  <path
     d="M549.32,98.91h0L547,100.13l-.34-1.34,2.84-1.52H551v13h-1.7Z"
     id="path4461" />
  <path
     d="M527.52,110.27v-1.08l1.38-1.34c3.33-3.16,4.83-4.84,4.84-6.8a2.31,2.31,0,0,0-2.58-2.54,4.43,4.43,0,0,0-2.76,1.1l-.56-1.24a5.71,5.71,0,0,1,3.69-1.32,3.66,3.66,0,0,1,4,3.78c0,2.4-1.74,4.34-4.48,7l-1,1v0h5.85v1.46Z"
     id="path4463" />
  <path
     d="M510,108.25a5.89,5.89,0,0,0,2.89.82c2.26,0,3-1.44,2.94-2.52,0-1.82-1.66-2.6-3.36-2.6h-1v-1.32h1c1.28,0,2.9-.66,2.9-2.2,0-1-.66-2-2.28-2a4.78,4.78,0,0,0-2.61.86L510,98.05a6.22,6.22,0,0,1,3.41-1c2.56,0,3.72,1.52,3.72,3.1a3.23,3.23,0,0,1-2.4,3.06v0a3.39,3.39,0,0,1,2.9,3.34c0,2.08-1.62,3.9-4.75,3.9a6.61,6.61,0,0,1-3.38-.88Z"
     id="path4465" />
  <path
     d="M498.27,104.21v1.3h-4.94v-1.3Z"
     id="path4467" />
  <path
     d="M480.29,104.21v1.3h-4.94v-1.3Z"
     id="path4469" />
  <path
     d="M462.31,104.21v1.3h-4.94v-1.3Z"
     id="path4471" />
  <path
     d="M444.33,104.21v1.3h-4.94v-1.3Z"
     id="path4473" />
  <path
     d="M426.35,104.21v1.3h-4.94v-1.3Z"
     id="path4475" />
  <path
     d="M408.37,104.21v1.3h-4.94v-1.3Z"
     id="path4477" />
  <path
     d="M390.39,104.21v1.3h-4.94v-1.3Z"
     id="path4479" />
  <path
     d="M372.41,104.21v1.3h-4.94v-1.3Z"
     id="path4481" />
  <path
     d="M353.17,110.27v-3.54h-6v-1.16l5.8-8.3h1.9v8.08h1.82v1.38h-1.82v3.54Zm0-4.92V101q0-1,.06-2h-.06c-.4.76-.72,1.32-1.08,1.92l-3.18,4.42v0Z"
     id="path4483" />
  <path
     d="M337.52,98.75h-5l-.5,3.34a7,7,0,0,1,1.06-.08,5.49,5.49,0,0,1,2.8.7,3.69,3.69,0,0,1,1.87,3.34c0,2.54-2,4.44-4.85,4.44a6.36,6.36,0,0,1-3.24-.8l.44-1.34a5.82,5.82,0,0,0,2.78.72,2.87,2.87,0,0,0,3.08-2.82c0-1.68-1.14-2.88-3.74-2.88a13.45,13.45,0,0,0-1.8.14l.84-6.24h6.23Z"
     id="path4485" />
  <path
     d="M319.2,98.51a6.36,6.36,0,0,0-1.32.08,5.27,5.27,0,0,0-4.52,4.62h.06a4,4,0,0,1,7.06,2.7,4.35,4.35,0,0,1-4.32,4.58c-2.78,0-4.61-2.16-4.61-5.54a8.18,8.18,0,0,1,2.21-5.86,7.08,7.08,0,0,1,4.16-1.92,8.45,8.45,0,0,1,1.28-.1Zm-.5,7.5c0-1.86-1.06-3-2.68-3a2.92,2.92,0,0,0-2.53,1.6,1.6,1.6,0,0,0-.19.78c0,2.14,1,3.72,2.86,3.72C317.68,109.13,318.7,107.87,318.7,106Z"
     id="path4487" />
  <path
     d="M302.24,97.27v1.16l-5.66,11.84h-1.82l5.64-11.5v0H294V97.27Z"
     id="path4489" />
  <path
     d="M282.52,104.21v1.3h-4.94v-1.3Z"
     id="path4491" />
  <path
     d="M264.54,104.21v1.3H259.6v-1.3Z"
     id="path4493" />
  <path
     d="M246.56,104.21v1.3h-4.94v-1.3Z"
     id="path4495" />
  <path
     d="M228.58,104.21v1.3h-4.94v-1.3Z"
     id="path4497" />
  <path
     d="M210.6,104.21v1.3h-4.94v-1.3Z"
     id="path4499" />
  <path
     d="M192.62,104.21v1.3h-4.94v-1.3Z"
     id="path4501" />
  <path
     d="M174.64,104.21v1.3H169.7v-1.3Z"
     id="path4503" />
  <path
     d="M156.66,104.21v1.3h-4.94v-1.3Z"
     id="path4505" />
  <path
     d="M131.82,107a3.71,3.71,0,0,1,2.58-3.48l0-.06a3.22,3.22,0,0,1-2.06-2.92c0-2.06,1.74-3.46,4-3.46,2.52,0,3.79,1.58,3.79,3.2a3.3,3.3,0,0,1-2.14,3v.06a3.6,3.6,0,0,1,2.62,3.36c0,2.26-1.94,3.78-4.42,3.78C133.46,110.49,131.82,108.87,131.82,107Zm7-.08c0-1.58-1.09-2.34-2.86-2.84a2.82,2.82,0,0,0-2.34,2.68,2.4,2.4,0,0,0,2.6,2.48A2.35,2.35,0,0,0,138.82,106.89Zm-4.84-6.5c0,1.3,1,2,2.48,2.4a2.56,2.56,0,0,0,2-2.36,2,2,0,0,0-2.2-2.12A2.07,2.07,0,0,0,134,100.39Z"
     id="path4507" />
  <path
     d="M115,109a7.27,7.27,0,0,0,1.41-.06,4.9,4.9,0,0,0,2.73-1.26,5.71,5.71,0,0,0,1.72-3.46h-.06a3.82,3.82,0,0,1-3.06,1.4,3.77,3.77,0,0,1-3.85-4,4.46,4.46,0,0,1,4.44-4.62c2.67,0,4.31,2.16,4.31,5.48a8.21,8.21,0,0,1-2.24,6.1,6.5,6.5,0,0,1-3.78,1.74,8.28,8.28,0,0,1-1.62.1Zm.63-7.48a2.51,2.51,0,0,0,2.51,2.76,2.91,2.91,0,0,0,2.56-1.36,1.16,1.16,0,0,0,.16-.64c0-2.22-.82-3.92-2.66-3.92C116.73,98.39,115.66,99.71,115.66,101.55Z"
     id="path4509" />
  <path
     d="M102.73,104.21v1.3H97.79v-1.3Z"
     id="path4511" />
  <path
     d="M84.75,104.21v1.3H79.81v-1.3Z"
     id="path4513" />
  <path
     d="M66.77,104.21v1.3H61.83v-1.3Z"
     id="path4515" />
  <path
     d="M48.79,104.21v1.3H43.85v-1.3Z"
     id="path4517" />
  <path
     d="M30.81,104.21v1.3H25.87v-1.3Z"
     id="path4519" />
  <path
     d="M12.83,104.21v1.3H7.89v-1.3Z"
     id="path4521" />
  <rect
     class="cls-1"
     x="1.07"
     y="90.33"
     width="576.36"
     height="27.18"
     id="rect4523" />
  <line
     class="cls-1"
     x1="559.2"
     y1="90.33"
     x2="559.2"
     y2="117.1"
     id="line4525" />
  <line
     class="cls-1"
     x1="541.18"
     y1="90.33"
     x2="541.18"
     y2="117.1"
     id="line4527" />
  <line
     class="cls-1"
     x1="523.15"
     y1="90.33"
     x2="523.15"
     y2="117.1"
     id="line4529" />
  <line
     class="cls-1"
     x1="505.13"
     y1="90.33"
     x2="505.13"
     y2="117.1"
     id="line4531" />
  <line
     class="cls-1"
     x1="487.11"
     y1="90.33"
     x2="487.11"
     y2="117.1"
     id="line4533" />
  <line
     class="cls-1"
     x1="469.08"
     y1="90.33"
     x2="469.08"
     y2="117.1"
     id="line4535" />
  <line
     class="cls-1"
     x1="451.06"
     y1="90.33"
     x2="451.06"
     y2="117.1"
     id="line4537" />
  <line
     class="cls-1"
     x1="433.03"
     y1="90.33"
     x2="433.03"
     y2="117.1"
     id="line4539" />
  <line
     class="cls-1"
     x1="415.01"
     y1="90.33"
     x2="415.01"
     y2="117.1"
     id="line4541" />
  <line
     class="cls-1"
     x1="396.99"
     y1="90.33"
     x2="396.99"
     y2="117.1"
     id="line4543" />
  <line
     class="cls-1"
     x1="378.96"
     y1="90.33"
     x2="378.96"
     y2="117.1"
     id="line4545" />
  <line
     class="cls-1"
     x1="360.94"
     y1="90.33"
     x2="360.94"
     y2="117.1"
     id="line4547" />
  <line
     class="cls-1"
     x1="342.92"
     y1="90.33"
     x2="342.92"
     y2="117.1"
     id="line4549" />
  <line
     class="cls-1"
     x1="324.89"
     y1="90.33"
     x2="324.89"
     y2="117.1"
     id="line4551" />
  <line
     class="cls-1"
     x1="306.87"
     y1="90.33"
     x2="306.87"
     y2="117.1"
     id="line4553" />
  <line
     class="cls-1"
     x1="288.84"
     y1="90.33"
     x2="288.84"
     y2="117.1"
     id="line4555" />
  <line
     class="cls-1"
     x1="270.82"
     y1="90.33"
     x2="270.82"
     y2="117.1"
     id="line4557" />
  <line
     class="cls-1"
     x1="252.8"
     y1="90.33"
     x2="252.8"
     y2="117.1"
     id="line4559" />
  <line
     class="cls-1"
     x1="234.77"
     y1="90.33"
     x2="234.77"
     y2="117.1"
     id="line4561" />
  <line
     class="cls-1"
     x1="216.75"
     y1="90.33"
     x2="216.75"
     y2="117.1"
     id="line4563" />
  <line
     class="cls-1"
     x1="198.72"
     y1="90.33"
     x2="198.72"
     y2="117.1"
     id="line4565" />
  <line
     class="cls-1"
     x1="180.7"
     y1="90.33"
     x2="180.7"
     y2="117.1"
     id="line4567" />
  <line
     class="cls-1"
     x1="162.68"
     y1="90.33"
     x2="162.68"
     y2="117.1"
     id="line4569" />
  <line
     class="cls-1"
     x1="144.65"
     y1="90.33"
     x2="144.65"
     y2="117.1"
     id="line4571" />
  <line
     class="cls-1"
     x1="126.63"
     y1="90.33"
     x2="126.63"
     y2="117.1"
     id="line4573" />
  <line
     class="cls-1"
     x1="108.6"
     y1="90.33"
     x2="108.6"
     y2="117.1"
     id="line4575" />
  <line
     class="cls-1"
     x1="90.58"
     y1="90.33"
     x2="90.58"
     y2="117.1"
     id="line4577" />
  <line
     class="cls-1"
     x1="72.56"
     y1="90.33"
     x2="72.56"
     y2="117.1"
     id="line4579" />
  <line
     class="cls-1"
     x1="54.53"
     y1="90.33"
     x2="54.53"
     y2="117.1"
     id="line4581" />
  <line
     class="cls-1"
     x1="36.51"
     y1="90.33"
     x2="36.51"
     y2="117.1"
     id="line4583" />
  <line
     class="cls-1"
     x1="18.48"
     y1="90.33"
     x2="18.48"
     y2="117.1"
     id="line4585" />
  <path
     d="M572.12,148.69c0,4.42-1.64,6.86-4.52,6.86-2.54,0-4.26-2.38-4.3-6.68s1.88-6.76,4.52-6.76S572.12,144.55,572.12,148.69Zm-7.06.2c0,3.38,1,5.3,2.64,5.3,1.8,0,2.66-2.1,2.66-5.42s-.82-5.3-2.64-5.3C566.18,143.47,565.06,145.35,565.06,148.89Z"
     id="path4587" />
  <path
     d="M549.32,144h0L547,145.19l-.34-1.34,2.84-1.52H551v13h-1.7Z"
     id="path4589" />
  <path
     d="M534.22,149.27v1.3h-4.94v-1.3Z"
     id="path4591" />
  <path
     d="M516.25,149.27v1.3h-4.94v-1.3Z"
     id="path4593" />
  <path
     d="M498.27,149.27v1.3h-4.94v-1.3Z"
     id="path4595" />
  <path
     d="M480.29,149.27v1.3h-4.94v-1.3Z"
     id="path4597" />
  <path
     d="M455.61,155.33v-1.08l1.38-1.34c3.32-3.16,4.82-4.84,4.84-6.8a2.32,2.32,0,0,0-2.58-2.54,4.43,4.43,0,0,0-2.76,1.1l-.56-1.24a5.7,5.7,0,0,1,3.68-1.32,3.66,3.66,0,0,1,4,3.78c0,2.4-1.74,4.34-4.48,7l-1,1v0h5.84v1.46Z"
     id="path4599" />
  <path
     d="M438.05,153.31a5.88,5.88,0,0,0,2.88.82c2.26,0,3-1.44,2.94-2.52,0-1.82-1.66-2.6-3.36-2.6h-1v-1.32h1c1.28,0,2.9-.66,2.9-2.2,0-1-.66-2-2.28-2a4.77,4.77,0,0,0-2.6.86l-.46-1.28a6.18,6.18,0,0,1,3.4-1c2.56,0,3.72,1.52,3.72,3.1a3.23,3.23,0,0,1-2.4,3.06v0a3.39,3.39,0,0,1,2.9,3.34c0,2.08-1.62,3.9-4.74,3.9a6.61,6.61,0,0,1-3.38-.88Z"
     id="path4601" />
  <path
     d="M426.35,149.27v1.3h-4.94v-1.3Z"
     id="path4603" />
  <path
     d="M408.37,149.27v1.3h-4.94v-1.3Z"
     id="path4605" />
  <path
     d="M390.39,149.27v1.3h-4.94v-1.3Z"
     id="path4607" />
  <path
     d="M372.41,149.27v1.3h-4.94v-1.3Z"
     id="path4609" />
  <path
     d="M353.17,155.33v-3.54h-6v-1.16l5.8-8.3h1.9v8.08h1.82v1.38h-1.82v3.54Zm0-4.92v-4.34q0-1,.06-2h-.06c-.4.76-.72,1.32-1.08,1.92l-3.18,4.42v0Z"
     id="path4611" />
  <path
     d="M337.52,143.81h-5l-.5,3.34a7,7,0,0,1,1.06-.08,5.49,5.49,0,0,1,2.8.7,3.69,3.69,0,0,1,1.87,3.34c0,2.54-2,4.44-4.85,4.44a6.36,6.36,0,0,1-3.24-.8l.44-1.34a5.82,5.82,0,0,0,2.78.72,2.87,2.87,0,0,0,3.08-2.82c0-1.68-1.14-2.88-3.74-2.88a13.45,13.45,0,0,0-1.8.14l.84-6.24h6.23Z"
     id="path4613" />
  <path
     d="M318.48,149.27v1.3h-5v-1.3Z"
     id="path4615" />
  <path
     d="M300.5,149.27v1.3h-4.94v-1.3Z"
     id="path4617" />
  <path
     d="M282.52,149.27v1.3h-4.94v-1.3Z"
     id="path4619" />
  <path
     d="M264.54,149.27v1.3H259.6v-1.3Z"
     id="path4621" />
  <path
     d="M247.28,143.57a6.36,6.36,0,0,0-1.32.08,5.28,5.28,0,0,0-4.52,4.62h.06a4,4,0,0,1,7.06,2.7,4.35,4.35,0,0,1-4.32,4.58c-2.78,0-4.6-2.16-4.6-5.54a8.17,8.17,0,0,1,2.2-5.86,7.08,7.08,0,0,1,4.16-1.92,8.45,8.45,0,0,1,1.28-.1Zm-.5,7.5c0-1.86-1.06-3-2.68-3a2.9,2.9,0,0,0-2.52,1.6,1.5,1.5,0,0,0-.2.78c0,2.14,1,3.72,2.86,3.72C245.76,154.19,246.78,152.93,246.78,151.07Z"
     id="path4623" />
  <path
     d="M230.32,142.33v1.16l-5.66,11.84h-1.82l5.64-11.5v0h-6.36v-1.46Z"
     id="path4625" />
  <path
     d="M210.6,149.27v1.3h-4.94v-1.3Z"
     id="path4627" />
  <path
     d="M192.62,149.27v1.3h-4.94v-1.3Z"
     id="path4629" />
  <path
     d="M174.64,149.27v1.3H169.7v-1.3Z"
     id="path4631" />
  <path
     d="M156.66,149.27v1.3h-4.94v-1.3Z"
     id="path4633" />
  <path
     d="M131.82,152a3.71,3.71,0,0,1,2.58-3.48l0-.06a3.22,3.22,0,0,1-2.06-2.92c0-2.06,1.74-3.46,4-3.46,2.52,0,3.79,1.58,3.79,3.2a3.3,3.3,0,0,1-2.14,3v.06a3.6,3.6,0,0,1,2.62,3.36c0,2.26-1.94,3.78-4.42,3.78C133.46,155.55,131.82,153.93,131.82,152Zm7-.08c0-1.58-1.09-2.34-2.86-2.84a2.82,2.82,0,0,0-2.34,2.68,2.4,2.4,0,0,0,2.6,2.48A2.35,2.35,0,0,0,138.82,152Zm-4.84-6.5c0,1.3,1,2,2.48,2.4a2.56,2.56,0,0,0,2-2.36,2,2,0,0,0-2.2-2.12A2.07,2.07,0,0,0,134,145.45Z"
     id="path4635" />
  <path
     d="m 84.749999,149.27 v 1.3 h -4.94 v -1.3 z"
     id="path4637" />
  <path
     d="M102.73,149.27v1.3H97.79v-1.3Z"
     id="path4639" />
  <path
     d="m 114.98999,154.09 a 7.34,7.34 0 0 0 1.42,-0.06 4.9,4.9 0 0 0 2.72,-1.26 5.71,5.71 0 0 0 1.72,-3.46 h -0.06 a 3.82,3.82 0 0 1 -3.06,1.4 3.77,3.77 0 0 1 -3.84,-4 4.46,4.46 0 0 1 4.44,-4.62 c 2.66,0 4.3,2.16 4.3,5.48 a 8.21,8.21 0 0 1 -2.24,6.1 6.5,6.5 0 0 1 -3.78,1.74 8.2,8.2 0 0 1 -1.62,0.1 z m 0.64,-7.48 a 2.5,2.5 0 0 0 2.5,2.76 2.91,2.91 0 0 0 2.56,-1.37 1.16,1.16 0 0 0 0.16,-0.64 c 0,-2.22 -0.82,-3.92 -2.66,-3.92 -1.5,0.01 -2.56,1.33 -2.56,3.17 z"
     id="path4641" />
  <path
     d="M66.77,149.27v1.3H61.83v-1.3Z"
     id="path4643" />
  <path
     d="M48.79,149.27v1.3H43.85v-1.3Z"
     id="path4645" />
  <path
     d="M30.81,149.27v1.3H25.87v-1.3Z"
     id="path4647" />
  <path
     d="M12.83,149.27v1.3H7.89v-1.3Z"
     id="path4649" />
  <rect
     class="cls-1"
     x="0.5"
     y="135.39"
     width="576.36"
     height="27.18"
     id="rect4651" />
  <line
     class="cls-1"
     x1="558.63"
     y1="135.39"
     x2="558.63"
     y2="162.17"
     id="line4653" />
  <line
     class="cls-1"
     x1="540.61"
     y1="135.39"
     x2="540.61"
     y2="162.17"
     id="line4655" />
  <line
     class="cls-1"
     x1="522.58"
     y1="135.39"
     x2="522.58"
     y2="162.17"
     id="line4657" />
  <line
     class="cls-1"
     x1="504.56"
     y1="135.39"
     x2="504.56"
     y2="162.17"
     id="line4659" />
  <line
     class="cls-1"
     x1="486.54"
     y1="135.39"
     x2="486.54"
     y2="162.17"
     id="line4661" />
  <line
     class="cls-1"
     x1="468.51"
     y1="135.39"
     x2="468.51"
     y2="162.17"
     id="line4663" />
  <line
     class="cls-1"
     x1="450.49"
     y1="135.39"
     x2="450.49"
     y2="162.17"
     id="line4665" />
  <line
     class="cls-1"
     x1="432.46"
     y1="135.39"
     x2="432.46"
     y2="162.17"
     id="line4667" />
  <line
     class="cls-1"
     x1="414.44"
     y1="135.39"
     x2="414.44"
     y2="162.17"
     id="line4669" />
  <line
     class="cls-1"
     x1="396.42"
     y1="135.39"
     x2="396.42"
     y2="162.17"
     id="line4671" />
  <line
     class="cls-1"
     x1="378.39"
     y1="135.39"
     x2="378.39"
     y2="162.17"
     id="line4673" />
  <line
     class="cls-1"
     x1="360.37"
     y1="135.39"
     x2="360.37"
     y2="162.17"
     id="line4675" />
  <line
     class="cls-1"
     x1="342.34"
     y1="135.39"
     x2="342.34"
     y2="162.17"
     id="line4677" />
  <line
     class="cls-1"
     x1="324.32"
     y1="135.39"
     x2="324.32"
     y2="162.17"
     id="line4679" />
  <line
     class="cls-1"
     x1="306.3"
     y1="135.39"
     x2="306.3"
     y2="162.17"
     id="line4681" />
  <line
     class="cls-1"
     x1="288.27"
     y1="135.39"
     x2="288.27"
     y2="162.17"
     id="line4683" />
  <line
     class="cls-1"
     x1="270.25"
     y1="135.39"
     x2="270.25"
     y2="162.17"
     id="line4685" />
  <line
     class="cls-1"
     x1="252.22"
     y1="135.39"
     x2="252.22"
     y2="162.17"
     id="line4687" />
  <line
     class="cls-1"
     x1="234.2"
     y1="135.39"
     x2="234.2"
     y2="162.17"
     id="line4689" />
  <line
     class="cls-1"
     x1="216.18"
     y1="135.39"
     x2="216.18"
     y2="162.17"
     id="line4691" />
  <line
     class="cls-1"
     x1="198.15"
     y1="135.39"
     x2="198.15"
     y2="162.17"
     id="line4693" />
  <line
     class="cls-1"
     x1="180.13"
     y1="135.39"
     x2="180.13"
     y2="162.17"
     id="line4695" />
  <line
     class="cls-1"
     x1="162.11"
     y1="135.39"
     x2="162.11"
     y2="162.17"
     id="line4697" />
  <line
     class="cls-1"
     x1="144.08"
     y1="135.39"
     x2="144.08"
     y2="162.17"
     id="line4699" />
  <line
     class="cls-1"
     x1="126.06"
     y1="135.39"
     x2="126.06"
     y2="162.17"
     id="line4701" />
  <line
     class="cls-1"
     x1="108.03"
     y1="135.39"
     x2="108.03"
     y2="162.17"
     id="line4703" />
  <line
     class="cls-1"
     x1="90.01"
     y1="135.39"
     x2="90.01"
     y2="162.17"
     id="line4705" />
  <line
     class="cls-1"
     x1="71.99"
     y1="135.39"
     x2="71.99"
     y2="162.17"
     id="line4707" />
  <line
     class="cls-1"
     x1="53.96"
     y1="135.39"
     x2="53.96"
     y2="162.17"
     id="line4709" />
  <line
     class="cls-1"
     x1="35.94"
     y1="135.39"
     x2="35.94"
     y2="162.17"
     id="line4711" />
  <line
     class="cls-1"
     x1="17.91"
     y1="135.39"
     x2="17.91"
     y2="162.17"
     id="line4713" />
  <path
     d="M572.12,194.09c0,4.42-1.64,6.86-4.52,6.86-2.54,0-4.26-2.38-4.3-6.68s1.88-6.76,4.52-6.76S572.12,190,572.12,194.09Zm-7.06.2c0,3.38,1,5.3,2.64,5.3,1.8,0,2.66-2.1,2.66-5.42s-.82-5.3-2.64-5.3C566.18,188.87,565.06,190.75,565.06,194.29Z"
     id="path4715" />
  <path
     d="M552.2,194.67V196h-4.94v-1.3Z"
     id="path4717" />
  <path
     d="M534.23,194.67V196h-5v-1.3Z"
     id="path4719" />
  <path
     d="M513.36,189.37h0l-2.25,1.22-.35-1.34,2.85-1.52h1.5v13h-1.71Z"
     id="path4721" />
  <path
     d="M498.27,194.67V196h-4.94v-1.3Z"
     id="path4723" />
  <path
     d="M480.29,194.67V196h-4.94v-1.3Z"
     id="path4725" />
  <path
     d="M455.61,200.73v-1.08l1.38-1.34c3.32-3.16,4.82-4.84,4.84-6.8a2.32,2.32,0,0,0-2.58-2.54,4.43,4.43,0,0,0-2.76,1.1l-.56-1.24a5.7,5.7,0,0,1,3.68-1.32,3.66,3.66,0,0,1,4,3.78c0,2.4-1.74,4.34-4.48,7l-1,1v0h5.84v1.46Z"
     id="path4727" />
  <path
     d="M444.33,194.67V196h-4.94v-1.3Z"
     id="path4729" />
  <path
     d="M426.35,194.67V196h-4.94v-1.3Z"
     id="path4731" />
  <path
     d="M402.09,198.71a5.88,5.88,0,0,0,2.88.82c2.26,0,3-1.44,2.94-2.52,0-1.82-1.66-2.6-3.36-2.6h-1v-1.32h1c1.28,0,2.9-.66,2.9-2.2,0-1-.66-2-2.28-2a4.77,4.77,0,0,0-2.6.86l-.46-1.28a6.18,6.18,0,0,1,3.4-1c2.56,0,3.72,1.52,3.72,3.1a3.23,3.23,0,0,1-2.4,3.06v0a3.39,3.39,0,0,1,2.9,3.34c0,2.08-1.62,3.9-4.74,3.9a6.61,6.61,0,0,1-3.38-.88Z"
     id="path4733" />
  <path
     d="M390.39,194.67V196h-4.94v-1.3Z"
     id="path4735" />
  <path
     d="M372.41,194.67V196h-4.94v-1.3Z"
     id="path4737" />
  <path
     d="M353.17,200.73v-3.54h-6V196l5.8-8.3h1.9v8.08h1.82v1.38h-1.82v3.54Zm0-4.92v-4.34q0-1,.06-2h-.06c-.4.76-.72,1.32-1.08,1.92l-3.18,4.42v0Z"
     id="path4739" />
  <path
     d="M336.45,194.67V196h-4.94v-1.3Z"
     id="path4741" />
  <path
     d="M318.48,194.67V196h-5v-1.3Z"
     id="path4743" />
  <path
     d="M301.56,189.21h-5l-.5,3.34a7,7,0,0,1,1.06-.08,5.49,5.49,0,0,1,2.8.7,3.71,3.71,0,0,1,1.86,3.34A4.51,4.51,0,0,1,297,201a6.36,6.36,0,0,1-3.24-.8l.44-1.34a5.82,5.82,0,0,0,2.78.72,2.87,2.87,0,0,0,3.08-2.82c0-1.68-1.14-2.88-3.74-2.88a13.45,13.45,0,0,0-1.8.14l.84-6.24h6.22Z"
     id="path4745" />
  <path
     d="M282.52,194.67V196h-4.94v-1.3Z"
     id="path4747" />
  <path
     d="M264.54,194.67V196H259.6v-1.3Z"
     id="path4749" />
  <path
     d="M247.28,189a6.36,6.36,0,0,0-1.32.08,5.28,5.28,0,0,0-4.52,4.62h.06a4,4,0,0,1,7.06,2.7,4.35,4.35,0,0,1-4.32,4.58c-2.78,0-4.6-2.16-4.6-5.54a8.17,8.17,0,0,1,2.2-5.86,7.08,7.08,0,0,1,4.16-1.92,8.45,8.45,0,0,1,1.28-.1Zm-.5,7.5c0-1.86-1.06-3-2.68-3a2.9,2.9,0,0,0-2.52,1.6,1.5,1.5,0,0,0-.2.78c0,2.14,1,3.72,2.86,3.72C245.76,199.59,246.78,198.33,246.78,196.47Z"
     id="path4751" />
  <path
     d="M228.58,194.67V196h-4.94v-1.3Z"
     id="path4753" />
  <path
     d="M210.6,194.67V196h-4.94v-1.3Z"
     id="path4755" />
  <path
     d="M194.36,187.73v1.16l-5.66,11.84h-1.82l5.64-11.5v0h-6.36v-1.46Z"
     id="path4757" />
  <path
     d="M174.64,194.67V196H169.7v-1.3Z"
     id="path4759" />
  <path
     d="M156.66,194.67V196h-4.94v-1.3Z"
     id="path4761" />
  <path
     d="M131.82,197.43A3.71,3.71,0,0,1,134.4,194l0-.06a3.22,3.22,0,0,1-2.06-2.92c0-2.06,1.74-3.46,4-3.46,2.52,0,3.79,1.58,3.79,3.2a3.3,3.3,0,0,1-2.14,3v.06a3.6,3.6,0,0,1,2.62,3.36c0,2.26-1.94,3.78-4.42,3.78C133.46,201,131.82,199.33,131.82,197.43Zm7-.08c0-1.58-1.09-2.34-2.86-2.84a2.82,2.82,0,0,0-2.34,2.68,2.4,2.4,0,0,0,2.6,2.48A2.35,2.35,0,0,0,138.82,197.35Zm-4.84-6.5c0,1.3,1,2,2.48,2.4a2.56,2.56,0,0,0,2-2.36,2,2,0,0,0-2.2-2.12A2.07,2.07,0,0,0,134,190.85Z"
     id="path4763" />
  <path
     d="M120.71,194.67V196h-4.94v-1.3Z"
     id="path4765" />
  <path
     d="M102.73,194.67V196H97.79v-1.3Z"
     id="path4767" />
  <path
     d="M79.07,199.49a7.34,7.34,0,0,0,1.42-.06,4.9,4.9,0,0,0,2.72-1.26,5.71,5.71,0,0,0,1.72-3.46h-.06a3.82,3.82,0,0,1-3.06,1.4,3.77,3.77,0,0,1-3.84-4,4.46,4.46,0,0,1,4.44-4.62c2.66,0,4.3,2.16,4.3,5.48a8.21,8.21,0,0,1-2.24,6.1,6.5,6.5,0,0,1-3.78,1.74,8.2,8.2,0,0,1-1.62.1Zm.64-7.48a2.5,2.5,0,0,0,2.5,2.76,2.91,2.91,0,0,0,2.56-1.36,1.16,1.16,0,0,0,.16-.64c0-2.22-.82-3.92-2.66-3.92C80.77,188.85,79.71,190.17,79.71,192Z"
     id="path4769" />
  <path
     d="M66.77,194.67V196H61.83v-1.3Z"
     id="path4771" />
  <path
     d="M48.79,194.67V196H43.85v-1.3Z"
     id="path4773" />
  <path
     d="M30.81,194.67V196H25.87v-1.3Z"
     id="path4775" />
  <path
     d="M12.83,194.67V196H7.89v-1.3Z"
     id="path4777" />
  <rect
     class="cls-1"
     x="1.27"
     y="180.79"
     width="576.36"
     height="27.18"
     id="rect4779" />
  <line
     class="cls-1"
     x1="559.4"
     y1="180.79"
     x2="559.4"
     y2="207.56"
     id="line4781" />
  <line
     class="cls-1"
     x1="541.37"
     y1="180.79"
     x2="541.37"
     y2="207.56"
     id="line4783" />
  <line
     class="cls-1"
     x1="523.35"
     y1="180.79"
     x2="523.35"
     y2="207.56"
     id="line4785" />
  <line
     class="cls-1"
     x1="505.33"
     y1="180.79"
     x2="505.33"
     y2="207.56"
     id="line4787" />
  <line
     class="cls-1"
     x1="487.3"
     y1="180.79"
     x2="487.3"
     y2="207.56"
     id="line4789" />
  <line
     class="cls-1"
     x1="469.28"
     y1="180.79"
     x2="469.28"
     y2="207.56"
     id="line4791" />
  <line
     class="cls-1"
     x1="451.25"
     y1="180.79"
     x2="451.25"
     y2="207.56"
     id="line4793" />
  <line
     class="cls-1"
     x1="433.23"
     y1="180.79"
     x2="433.23"
     y2="207.56"
     id="line4795" />
  <line
     class="cls-1"
     x1="415.21"
     y1="180.79"
     x2="415.21"
     y2="207.56"
     id="line4797" />
  <line
     class="cls-1"
     x1="397.18"
     y1="180.79"
     x2="397.18"
     y2="207.56"
     id="line4799" />
  <line
     class="cls-1"
     x1="379.16"
     y1="180.79"
     x2="379.16"
     y2="207.56"
     id="line4801" />
  <line
     class="cls-1"
     x1="361.13"
     y1="180.79"
     x2="361.13"
     y2="207.56"
     id="line4803" />
  <line
     class="cls-1"
     x1="343.11"
     y1="180.79"
     x2="343.11"
     y2="207.56"
     id="line4805" />
  <line
     class="cls-1"
     x1="325.09"
     y1="180.79"
     x2="325.09"
     y2="207.56"
     id="line4807" />
  <line
     class="cls-1"
     x1="307.06"
     y1="180.79"
     x2="307.06"
     y2="207.56"
     id="line4809" />
  <line
     class="cls-1"
     x1="289.04"
     y1="180.79"
     x2="289.04"
     y2="207.56"
     id="line4811" />
  <line
     class="cls-1"
     x1="271.01"
     y1="180.79"
     x2="271.01"
     y2="207.56"
     id="line4813" />
  <line
     class="cls-1"
     x1="252.99"
     y1="180.79"
     x2="252.99"
     y2="207.56"
     id="line4815" />
  <line
     class="cls-1"
     x1="234.97"
     y1="180.79"
     x2="234.97"
     y2="207.56"
     id="line4817" />
  <line
     class="cls-1"
     x1="216.94"
     y1="180.79"
     x2="216.94"
     y2="207.56"
     id="line4819" />
  <line
     class="cls-1"
     x1="198.92"
     y1="180.79"
     x2="198.92"
     y2="207.56"
     id="line4821" />
  <line
     class="cls-1"
     x1="180.9"
     y1="180.79"
     x2="180.9"
     y2="207.56"
     id="line4823" />
  <line
     class="cls-1"
     x1="162.87"
     y1="180.79"
     x2="162.87"
     y2="207.56"
     id="line4825" />
  <line
     class="cls-1"
     x1="144.85"
     y1="180.79"
     x2="144.85"
     y2="207.56"
     id="line4827" />
  <line
     class="cls-1"
     x1="126.82"
     y1="180.79"
     x2="126.82"
     y2="207.56"
     id="line4829" />
  <line
     class="cls-1"
     x1="108.8"
     y1="180.79"
     x2="108.8"
     y2="207.56"
     id="line4831" />
  <line
     class="cls-1"
     x1="90.78"
     y1="180.79"
     x2="90.78"
     y2="207.56"
     id="line4833" />
  <line
     class="cls-1"
     x1="72.75"
     y1="180.79"
     x2="72.75"
     y2="207.56"
     id="line4835" />
  <line
     class="cls-1"
     x1="54.73"
     y1="180.79"
     x2="54.73"
     y2="207.56"
     id="line4837" />
  <line
     class="cls-1"
     x1="36.7"
     y1="180.79"
     x2="36.7"
     y2="207.56"
     id="line4839" />
  <line
     class="cls-1"
     x1="18.68"
     y1="180.79"
     x2="18.68"
     y2="207.56"
     id="line4841" />
</svg>
