<svg id="Layer_1" data-name="Layer 1" xmlns="http://www.w3.org/2000/svg" viewBox="0 0 579.64 162.1"><defs><style>.cls-1{fill:none;stroke:#000;stroke-miterlimit:10;}</style></defs><title>Morton xyz interleave</title><rect class="cls-1" x="1.35" y="0.5" width="576.36" height="27.18"/><line class="cls-1" x1="559.48" y1="0.5" x2="559.48" y2="27.27"/><line class="cls-1" x1="541.46" y1="0.5" x2="541.46" y2="27.27"/><line class="cls-1" x1="523.43" y1="0.5" x2="523.43" y2="27.27"/><line class="cls-1" x1="505.41" y1="0.5" x2="505.41" y2="27.27"/><line class="cls-1" x1="487.39" y1="0.5" x2="487.39" y2="27.27"/><line class="cls-1" x1="469.36" y1="0.5" x2="469.36" y2="27.27"/><line class="cls-1" x1="451.34" y1="0.5" x2="451.34" y2="27.27"/><line class="cls-1" x1="433.31" y1="0.5" x2="433.31" y2="27.27"/><line class="cls-1" x1="415.29" y1="0.5" x2="415.29" y2="27.27"/><line class="cls-1" x1="397.27" y1="0.5" x2="397.27" y2="27.27"/><line class="cls-1" x1="379.24" y1="0.5" x2="379.24" y2="27.27"/><line class="cls-1" x1="361.22" y1="0.5" x2="361.22" y2="27.27"/><line class="cls-1" x1="343.19" y1="0.5" x2="343.19" y2="27.27"/><line class="cls-1" x1="325.17" y1="0.5" x2="325.17" y2="27.27"/><line class="cls-1" x1="307.15" y1="0.5" x2="307.15" y2="27.27"/><line class="cls-1" x1="289.12" y1="0.5" x2="289.12" y2="27.27"/><line class="cls-1" x1="271.1" y1="0.5" x2="271.1" y2="27.27"/><line class="cls-1" x1="253.07" y1="0.5" x2="253.07" y2="27.27"/><line class="cls-1" x1="235.05" y1="0.5" x2="235.05" y2="27.27"/><line class="cls-1" x1="217.03" y1="0.5" x2="217.03" y2="27.27"/><line class="cls-1" x1="199" y1="0.5" x2="199" y2="27.27"/><line class="cls-1" x1="180.98" y1="0.5" x2="180.98" y2="27.27"/><line class="cls-1" x1="162.96" y1="0.5" x2="162.96" y2="27.27"/><line class="cls-1" x1="144.93" y1="0.5" x2="144.93" y2="27.27"/><line class="cls-1" x1="126.91" y1="0.5" x2="126.91" y2="27.27"/><line class="cls-1" x1="108.88" y1="0.5" x2="108.88" y2="27.27"/><line class="cls-1" x1="90.86" y1="0.5" x2="90.86" y2="27.27"/><line class="cls-1" x1="72.84" y1="0.5" x2="72.84" y2="27.27"/><line class="cls-1" x1="54.81" y1="0.5" x2="54.81" y2="27.27"/><line class="cls-1" x1="36.79" y1="0.5" x2="36.79" y2="27.27"/><line class="cls-1" x1="18.76" y1="0.5" x2="18.76" y2="27.27"/><rect class="cls-1" x="1.35" y="45.56" width="576.36" height="27.18"/><line class="cls-1" x1="559.48" y1="45.56" x2="559.48" y2="72.34"/><line class="cls-1" x1="541.46" y1="45.56" x2="541.46" y2="72.34"/><line class="cls-1" x1="523.43" y1="45.56" x2="523.43" y2="72.34"/><line class="cls-1" x1="505.41" y1="45.56" x2="505.41" y2="72.34"/><line class="cls-1" x1="487.39" y1="45.56" x2="487.39" y2="72.34"/><line class="cls-1" x1="469.36" y1="45.56" x2="469.36" y2="72.34"/><line class="cls-1" x1="451.34" y1="45.56" x2="451.34" y2="72.34"/><line class="cls-1" x1="433.31" y1="45.56" x2="433.31" y2="72.34"/><line class="cls-1" x1="415.29" y1="45.56" x2="415.29" y2="72.34"/><line class="cls-1" x1="397.27" y1="45.56" x2="397.27" y2="72.34"/><line class="cls-1" x1="379.24" y1="45.56" x2="379.24" y2="72.34"/><line class="cls-1" x1="361.22" y1="45.56" x2="361.22" y2="72.34"/><line class="cls-1" x1="343.19" y1="45.56" x2="343.19" y2="72.34"/><line class="cls-1" x1="325.17" y1="45.56" x2="325.17" y2="72.34"/><line class="cls-1" x1="307.15" y1="45.56" x2="307.15" y2="72.34"/><line class="cls-1" x1="289.12" y1="45.56" x2="289.12" y2="72.34"/><line class="cls-1" x1="271.1" y1="45.56" x2="271.1" y2="72.34"/><line class="cls-1" x1="253.07" y1="45.56" x2="253.07" y2="72.34"/><line class="cls-1" x1="235.05" y1="45.56" x2="235.05" y2="72.34"/><line class="cls-1" x1="217.03" y1="45.56" x2="217.03" y2="72.34"/><line class="cls-1" x1="199" y1="45.56" x2="199" y2="72.34"/><line class="cls-1" x1="180.98" y1="45.56" x2="180.98" y2="72.34"/><line class="cls-1" x1="162.96" y1="45.56" x2="162.96" y2="72.34"/><line class="cls-1" x1="144.93" y1="45.56" x2="144.93" y2="72.34"/><line class="cls-1" x1="126.91" y1="45.56" x2="126.91" y2="72.34"/><line class="cls-1" x1="108.88" y1="45.56" x2="108.88" y2="72.34"/><line class="cls-1" x1="90.86" y1="45.56" x2="90.86" y2="72.34"/><line class="cls-1" x1="72.84" y1="45.56" x2="72.84" y2="72.34"/><line class="cls-1" x1="54.81" y1="45.56" x2="54.81" y2="72.34"/><line class="cls-1" x1="36.79" y1="45.56" x2="36.79" y2="72.34"/><line class="cls-1" x1="18.76" y1="45.56" x2="18.76" y2="72.34"/><rect class="cls-1" x="1.35" y="90.2" width="576.36" height="27.18"/><line class="cls-1" x1="559.48" y1="90.2" x2="559.48" y2="116.97"/><line class="cls-1" x1="541.46" y1="90.2" x2="541.46" y2="116.97"/><line class="cls-1" x1="523.43" y1="90.2" x2="523.43" y2="116.97"/><line class="cls-1" x1="505.41" y1="90.2" x2="505.41" y2="116.97"/><line class="cls-1" x1="487.39" y1="90.2" x2="487.39" y2="116.97"/><line class="cls-1" x1="469.36" y1="90.2" x2="469.36" y2="116.97"/><line class="cls-1" x1="451.34" y1="90.2" x2="451.34" y2="116.97"/><line class="cls-1" x1="433.31" y1="90.2" x2="433.31" y2="116.97"/><line class="cls-1" x1="415.29" y1="90.2" x2="415.29" y2="116.97"/><line class="cls-1" x1="397.27" y1="90.2" x2="397.27" y2="116.97"/><line class="cls-1" x1="379.24" y1="90.2" x2="379.24" y2="116.97"/><line class="cls-1" x1="361.22" y1="90.2" x2="361.22" y2="116.97"/><line class="cls-1" x1="343.19" y1="90.2" x2="343.19" y2="116.97"/><line class="cls-1" x1="325.17" y1="90.2" x2="325.17" y2="116.97"/><line class="cls-1" x1="307.15" y1="90.2" x2="307.15" y2="116.97"/><line class="cls-1" x1="289.12" y1="90.2" x2="289.12" y2="116.97"/><line class="cls-1" x1="271.1" y1="90.2" x2="271.1" y2="116.97"/><line class="cls-1" x1="253.07" y1="90.2" x2="253.07" y2="116.97"/><line class="cls-1" x1="235.05" y1="90.2" x2="235.05" y2="116.97"/><line class="cls-1" x1="217.03" y1="90.2" x2="217.03" y2="116.97"/><line class="cls-1" x1="199" y1="90.2" x2="199" y2="116.97"/><line class="cls-1" x1="180.98" y1="90.2" x2="180.98" y2="116.97"/><line class="cls-1" x1="162.96" y1="90.2" x2="162.96" y2="116.97"/><line class="cls-1" x1="144.93" y1="90.2" x2="144.93" y2="116.97"/><line class="cls-1" x1="126.91" y1="90.2" x2="126.91" y2="116.97"/><line class="cls-1" x1="108.88" y1="90.2" x2="108.88" y2="116.97"/><line class="cls-1" x1="90.86" y1="90.2" x2="90.86" y2="116.97"/><line class="cls-1" x1="72.84" y1="90.2" x2="72.84" y2="116.97"/><line class="cls-1" x1="54.81" y1="90.2" x2="54.81" y2="116.97"/><line class="cls-1" x1="36.79" y1="90.2" x2="36.79" y2="116.97"/><line class="cls-1" x1="18.76" y1="90.2" x2="18.76" y2="116.97"/><rect class="cls-1" x="0.5" y="134.42" width="576.36" height="27.18"/><line class="cls-1" x1="558.63" y1="134.41" x2="558.63" y2="161.19"/><line class="cls-1" x1="540.61" y1="134.41" x2="540.61" y2="161.19"/><line class="cls-1" x1="522.58" y1="134.41" x2="522.58" y2="161.19"/><line class="cls-1" x1="504.56" y1="134.41" x2="504.56" y2="161.19"/><line class="cls-1" x1="486.54" y1="134.41" x2="486.54" y2="161.19"/><line class="cls-1" x1="468.51" y1="134.41" x2="468.51" y2="161.19"/><line class="cls-1" x1="450.49" y1="134.41" x2="450.49" y2="161.19"/><line class="cls-1" x1="432.46" y1="134.41" x2="432.46" y2="161.19"/><line class="cls-1" x1="414.44" y1="134.41" x2="414.44" y2="161.19"/><line class="cls-1" x1="396.42" y1="134.41" x2="396.42" y2="161.19"/><line class="cls-1" x1="378.39" y1="134.41" x2="378.39" y2="161.19"/><line class="cls-1" x1="360.37" y1="134.41" x2="360.37" y2="161.19"/><line class="cls-1" x1="342.34" y1="134.41" x2="342.34" y2="161.19"/><line class="cls-1" x1="324.32" y1="134.41" x2="324.32" y2="161.19"/><line class="cls-1" x1="306.3" y1="134.41" x2="306.3" y2="161.19"/><line class="cls-1" x1="288.27" y1="134.41" x2="288.27" y2="161.19"/><line class="cls-1" x1="270.25" y1="134.41" x2="270.25" y2="161.19"/><line class="cls-1" x1="252.22" y1="134.41" x2="252.22" y2="161.19"/><line class="cls-1" x1="234.2" y1="134.41" x2="234.2" y2="161.19"/><line class="cls-1" x1="216.18" y1="134.41" x2="216.18" y2="161.19"/><line class="cls-1" x1="198.15" y1="134.41" x2="198.15" y2="161.19"/><line class="cls-1" x1="180.13" y1="134.41" x2="180.13" y2="161.19"/><line class="cls-1" x1="162.11" y1="134.41" x2="162.11" y2="161.19"/><line class="cls-1" x1="144.08" y1="134.41" x2="144.08" y2="161.19"/><line class="cls-1" x1="126.06" y1="134.41" x2="126.06" y2="161.19"/><line class="cls-1" x1="108.03" y1="134.41" x2="108.03" y2="161.19"/><line class="cls-1" x1="90.01" y1="134.41" x2="90.01" y2="161.19"/><line class="cls-1" x1="71.99" y1="134.41" x2="71.99" y2="161.19"/><line class="cls-1" x1="53.96" y1="134.41" x2="53.96" y2="161.19"/><line class="cls-1" x1="35.94" y1="134.41" x2="35.94" y2="161.19"/><line class="cls-1" x1="17.91" y1="134.41" x2="17.91" y2="161.19"/><path d="M564.39,10.35l1.17,1.77c.31.46.56.89.83,1.34h.05c.28-.49.55-.91.82-1.36l1.16-1.75H570l-2.8,4,2.89,4.25h-1.7l-1.21-1.85c-.32-.48-.6-.94-.88-1.43h0c-.27.49-.56.93-.87,1.43l-1.19,1.85h-1.64l2.92-4.2-2.79-4Z"/><path d="M570.71,17.78c0-2.11,1-3.42,2.5-3.42s2.43,1.3,2.43,3.35-.83,3.45-2.5,3.45C571.65,21.16,570.71,19.89,570.71,17.78Zm3.74-.05c0-1.58-.42-2.5-1.27-2.5s-1.28.92-1.28,2.5.49,2.57,1.26,2.57S574.45,19.35,574.45,17.73Z"/><path d="M553.31,13.43v1.1h-4.2v-1.1Z"/><path d="M535.25,13.43v1.1h-4.2v-1.1Z"/><path d="M511,10.35l1.17,1.77c.31.46.57.88.84,1.34h.05c.27-.49.54-.91.81-1.36l1.16-1.75h1.61l-2.8,4,2.89,4.25h-1.7l-1.21-1.85c-.32-.48-.59-.94-.88-1.43h0c-.27.49-.56.93-.86,1.43l-1.19,1.85h-1.65l2.92-4.2-2.78-4Z"/><path d="M518.77,21.08V15.49h0l-1.23.59-.18-.88,1.6-.75h1v6.63Z"/><path d="M499.13,13.43v1.1h-4.2v-1.1Z"/><path d="M481.08,13.43v1.1h-4.2v-1.1Z"/><path d="M456.28,10.35l1.17,1.77c.31.46.56.88.83,1.34h.05c.28-.49.55-.91.82-1.36l1.16-1.75h1.61l-2.8,4L462,18.58h-1.7l-1.21-1.85c-.32-.48-.59-.94-.88-1.43h0c-.27.49-.56.93-.87,1.43l-1.18,1.85h-1.65l2.92-4.2-2.79-4Z"/><path d="M462.42,20.45l1.07-1c1.41-1.28,2.14-2.08,2.14-2.94a1.15,1.15,0,0,0-1.29-1.19,2.59,2.59,0,0,0-1.43.52l-.36-.76a3.31,3.31,0,0,1,2.08-.72,2,2,0,0,1,2.26,1.92c0,1.28-1,2.21-2.26,3.35l-.53.48v0H467v.94h-4.59Z"/><path d="M445,13.43v1.1h-4.2v-1.1Z"/><path d="M426.9,13.43v1.1h-4.2v-1.1Z"/><path d="M402.16,10.35l1.17,1.77c.3.46.56.88.83,1.34h0c.27-.49.55-.91.82-1.36l1.15-1.75h1.62l-2.81,4,2.89,4.25h-1.7L405,16.73c-.33-.48-.6-.94-.89-1.43h0c-.27.49-.56.93-.87,1.43L402,18.58h-1.65l2.93-4.2-2.79-4Z"/><path d="M408.56,14.89a3.89,3.89,0,0,1,2-.53c1.46,0,2.07.79,2.07,1.6a1.68,1.68,0,0,1-1.31,1.53v0a1.69,1.69,0,0,1,1.59,1.64c0,1.06-1,2-2.69,2a3.83,3.83,0,0,1-1.94-.47l.31-.85a3.24,3.24,0,0,0,1.58.44c1,0,1.5-.61,1.48-1.14,0-.85-.9-1.19-1.8-1.19h-.46v-.78h.47c.63,0,1.53-.29,1.55-1.09,0-.41-.31-.83-1.07-.83a2.76,2.76,0,0,0-1.45.44Z"/><path d="M390.79,13.43v1.1h-4.2v-1.1Z"/><path d="M372.73,13.43v1.1h-4.2v-1.1Z"/><path d="M347.63,10.35l1.17,1.77c.3.46.56.88.83,1.34h.05c.27-.49.55-.91.82-1.36l1.15-1.75h1.62l-2.81,4,2.89,4.25h-1.7l-1.2-1.85c-.33-.48-.6-.94-.89-1.43h0c-.27.49-.56.93-.87,1.43l-1.19,1.85h-1.65l2.93-4.2-2.79-4Z"/><path d="M357,21.08V19.33h-3.21v-.68l3-4.24h1.34v4.08h.95v.84h-.95v1.75Zm0-4.59c0-.38,0-.73,0-1.07h0a9.12,9.12,0,0,1-.58,1l-1.48,2,0,0h2Z"/><path d="M318.56,13.43v1.1h-4.2v-1.1Z"/><path d="M336.61,13.43v1.1h-4.19v-1.1Z"/><path d="M293.78,10.35,295,12.12c.3.46.56.88.83,1.34h0c.27-.49.54-.91.82-1.36l1.15-1.75h1.62l-2.81,4,2.89,4.25h-1.7l-1.2-1.85c-.33-.48-.6-.94-.89-1.43h0c-.27.49-.56.93-.87,1.43l-1.19,1.85H292l2.93-4.2-2.79-4Z"/><path d="M304.27,15.38h-2.63l-.22,1.45a3.33,3.33,0,0,1,.52,0,3,3,0,0,1,1.57.38,1.91,1.91,0,0,1,.95,1.72,2.38,2.38,0,0,1-2.65,2.27,3.88,3.88,0,0,1-1.77-.4l.24-.85a3.19,3.19,0,0,0,1.51.37,1.38,1.38,0,0,0,1.5-1.29c0-.8-.55-1.36-1.92-1.36-.4,0-.72.05-1,.07l.44-3.25h3.43Z"/><path d="M282.44,13.43v1.1h-4.2v-1.1Z"/><path d="M264.38,13.43v1.1h-4.2v-1.1Z"/><path d="M239.41,10.35l1.17,1.77c.3.46.56.88.83,1.34h.05c.27-.49.55-.91.82-1.36l1.15-1.75h1.62l-2.81,4,2.89,4.25h-1.7l-1.2-1.85c-.33-.48-.6-.94-.89-1.43h0c-.27.49-.56.93-.87,1.43l-1.19,1.85H237.6l2.93-4.2-2.79-4Z"/><path d="M249.88,15.27a5.55,5.55,0,0,0-.68,0,2.51,2.51,0,0,0-2.3,2.07h0a2.11,2.11,0,0,1,1.6-.69,2,2,0,0,1,2.07,2.12,2.3,2.3,0,0,1-2.34,2.36,2.54,2.54,0,0,1-2.52-2.84,4,4,0,0,1,1.16-2.94,3.7,3.7,0,0,1,2.31-1,3.36,3.36,0,0,1,.68,0Zm-.44,3.6a1.26,1.26,0,0,0-1.3-1.38,1.35,1.35,0,0,0-1.2.77.72.72,0,0,0-.09.35c0,.92.48,1.69,1.38,1.69A1.29,1.29,0,0,0,249.44,18.87Z"/><path d="M228.27,13.43v1.1h-4.2v-1.1Z"/><path d="M210.21,13.43v1.1H206v-1.1Z"/><path d="M185.55,10.35l1.18,1.77c.3.46.56.88.83,1.34h.05c.27-.49.55-.91.82-1.36l1.15-1.75h1.62l-2.81,4,2.89,4.25h-1.7l-1.2-1.85c-.33-.48-.6-.94-.89-1.43h0c-.27.49-.56.93-.87,1.43l-1.19,1.85h-1.65l2.93-4.2-2.79-4Z"/><path d="M196.28,14.45v.73l-2.9,5.9h-1.21l2.91-5.68v0h-3.27v-.93Z"/><path d="M174.09,13.43v1.1h-4.2v-1.1Z"/><path d="M156,13.43v1.1h-4.2v-1.1Z"/><path d="M131.09,10.35l1.18,1.77c.3.46.56.88.83,1.34h.05c.27-.49.54-.91.82-1.36l1.15-1.75h1.62l-2.81,4,2.89,4.25h-1.7l-1.2-1.85c-.33-.48-.6-.94-.89-1.43h0c-.28.49-.56.93-.87,1.43l-1.19,1.85h-1.65l2.92-4.2-2.78-4Z"/><path d="M141.94,16a1.64,1.64,0,0,1-1.07,1.5v0a1.81,1.81,0,0,1,1.32,1.67c0,1.17-1,1.95-2.41,1.95s-2.35-.86-2.35-1.8a1.83,1.83,0,0,1,1.3-1.7v0a1.64,1.64,0,0,1-1.06-1.48,2,2,0,0,1,2.2-1.79C141.26,14.36,141.94,15.18,141.94,16Zm-.9,3.28c0-.73-.55-1.07-1.34-1.29-.72.21-1.13.66-1.13,1.23a1.15,1.15,0,0,0,1.24,1.13A1.1,1.1,0,0,0,141,19.29Zm-2.3-3.19c0,.59.46.92,1.19,1.1a1.14,1.14,0,0,0,.94-1.07,1,1,0,0,0-1-1A1,1,0,0,0,138.74,16.1Z"/><path d="M119.92,13.43v1.1h-4.2v-1.1Z"/><path d="M101.86,13.43v1.1h-4.2v-1.1Z"/><path d="M76.93,10.35l1.17,1.77c.31.46.56.88.83,1.34h0c.28-.49.55-.91.82-1.36L81,10.35h1.61l-2.8,4,2.89,4.25H81l-1.21-1.85c-.32-.48-.59-.94-.88-1.43h0c-.27.49-.56.93-.87,1.43l-1.18,1.85H75.13l2.92-4.2-2.79-4Z"/><path d="M83.85,20.26a5.8,5.8,0,0,0,.71,0A2.84,2.84,0,0,0,86,19.67a2.54,2.54,0,0,0,.87-1.57h0a2.08,2.08,0,0,1-3.59-1.39,2.35,2.35,0,0,1,2.4-2.35c1.53,0,2.38,1.18,2.38,2.81a4,4,0,0,1-1.17,3.06,3.77,3.77,0,0,1-2.23.9,5.4,5.4,0,0,1-.78,0Zm.54-3.6a1.19,1.19,0,0,0,1.21,1.27,1.4,1.4,0,0,0,1.2-.61.57.57,0,0,0,.07-.34c0-1-.37-1.77-1.27-1.77A1.31,1.31,0,0,0,84.39,16.66Z"/><path d="M65.75,13.43v1.1h-4.2v-1.1Z"/><path d="M47.69,13.43v1.1h-4.2v-1.1Z"/><path d="M29.63,13.43v1.1h-4.2v-1.1Z"/><path d="M11.57,13.43v1.1H7.37v-1.1Z"/><path d="M570.71,58.32v1.11h-4.2V58.32Z"/><path d="M545.51,55.25l1.8,4.86c.19.54.39,1.19.53,1.68h0c.16-.49.33-1.12.53-1.71L550,55.25h1.58l-2.24,5.86c-1.07,2.82-1.8,4.27-2.82,5.15a4.06,4.06,0,0,1-1.84,1L544.34,66a4,4,0,0,0,1.31-.73,4.6,4.6,0,0,0,1.25-1.66,1.06,1.06,0,0,0,.12-.36,1.27,1.27,0,0,0-.1-.39l-3-7.58Z"/><path d="M552.12,62.68c0-2.11,1-3.42,2.5-3.42s2.43,1.29,2.43,3.35-.83,3.45-2.5,3.45C553.06,66.06,552.12,64.78,552.12,62.68Zm3.74,0c0-1.59-.42-2.5-1.27-2.5s-1.28.91-1.28,2.5.5,2.56,1.26,2.56S555.86,64.24,555.86,62.63Z"/><path d="M534.66,58.32v1.11h-4.2V58.32Z"/><path d="M516.64,58.32v1.11h-4.2V58.32Z"/><path d="M492.22,55.25l1.8,4.86c.19.54.39,1.19.53,1.68h0c.16-.49.33-1.12.53-1.71l1.63-4.83h1.58l-2.24,5.86c-1.07,2.82-1.8,4.27-2.82,5.15a4,4,0,0,1-1.84,1L491.05,66a4,4,0,0,0,1.31-.73,4.6,4.6,0,0,0,1.25-1.66,1.06,1.06,0,0,0,.12-.36,1.27,1.27,0,0,0-.1-.39l-3-7.58Z"/><path d="M500.26,66V60.38h0L499,61l-.18-.89,1.59-.75h1V66Z"/><path d="M480.59,58.32v1.11h-4.2V58.32Z"/><path d="M462.56,58.32v1.11h-4.19V58.32Z"/><path d="M437.58,55.25l1.8,4.86c.19.54.39,1.19.53,1.68h0c.15-.49.32-1.12.53-1.71l1.63-4.83h1.58l-2.24,5.86c-1.07,2.82-1.8,4.27-2.82,5.15a4.11,4.11,0,0,1-1.84,1L436.41,66a3.85,3.85,0,0,0,1.3-.73A4.51,4.51,0,0,0,439,63.58a1.06,1.06,0,0,0,.12-.36,1.27,1.27,0,0,0-.1-.39l-3-7.58Z"/><path d="M444,65.35l1.07-1c1.41-1.27,2.14-2.07,2.14-2.94a1.16,1.16,0,0,0-1.29-1.19,2.59,2.59,0,0,0-1.43.53l-.36-.77a3.29,3.29,0,0,1,2.07-.71,2,2,0,0,1,2.27,1.92c0,1.28-1,2.21-2.27,3.35l-.52.48v0h2.9V66H444Z"/><path d="M426.52,58.32v1.11h-4.2V58.32Z"/><path d="M408.49,58.32v1.11h-4.2V58.32Z"/><path d="M383.56,55.25l1.8,4.86c.19.54.39,1.19.53,1.68h0c.15-.49.32-1.12.53-1.71l1.63-4.83h1.58l-2.24,5.86c-1.07,2.82-1.8,4.27-2.83,5.15a4,4,0,0,1-1.83,1L382.39,66a3.85,3.85,0,0,0,1.3-.73A4.51,4.51,0,0,0,385,63.58a1.06,1.06,0,0,0,.12-.36,1.27,1.27,0,0,0-.1-.39l-3-7.58Z"/><path d="M390.26,59.79a3.72,3.72,0,0,1,1.95-.53c1.46,0,2.08.78,2.08,1.6A1.7,1.7,0,0,1,393,62.39v0a1.7,1.7,0,0,1,1.58,1.65c0,1.05-1,2-2.69,2a3.72,3.72,0,0,1-1.94-.48l.31-.85a3.13,3.13,0,0,0,1.58.45c1,0,1.5-.62,1.48-1.14,0-.85-.9-1.19-1.8-1.19H391v-.79h.47c.63,0,1.53-.29,1.55-1.08,0-.41-.3-.84-1.07-.84a2.69,2.69,0,0,0-1.44.45Z"/><path d="M372.45,58.32v1.11h-4.2V58.32Z"/><path d="M354.42,58.32v1.11h-4.2V58.32Z"/><path d="M329.13,55.25l1.8,4.86c.19.54.39,1.19.53,1.68h0c.16-.49.33-1.12.53-1.71l1.63-4.83h1.58L333,61.11c-1.07,2.82-1.8,4.27-2.82,5.15a4.06,4.06,0,0,1-1.84,1L328,66a4,4,0,0,0,1.31-.73,4.6,4.6,0,0,0,1.25-1.66,1.06,1.06,0,0,0,.12-.36,1.27,1.27,0,0,0-.1-.39l-3-7.58Z"/><path d="M338.84,66V64.22h-3.22v-.68l3-4.23H340v4.08h.95v.83H340V66Zm0-4.59c0-.37,0-.73.05-1.07h0a11.39,11.39,0,0,1-.57,1l-1.48,2v0h2Z"/><path d="M318.37,58.32v1.11h-4.2V58.32Z"/><path d="M300.35,58.32v1.11h-4.2V58.32Z"/><path d="M275.39,55.25l1.8,4.86c.19.54.39,1.19.53,1.68h0c.16-.49.33-1.12.53-1.71l1.63-4.83h1.58l-2.24,5.86c-1.07,2.82-1.8,4.27-2.82,5.15a4.06,4.06,0,0,1-1.84,1L274.22,66a4,4,0,0,0,1.31-.73,4.6,4.6,0,0,0,1.25-1.66,1.06,1.06,0,0,0,.12-.36,1.27,1.27,0,0,0-.1-.39l-3-7.58Z"/><path d="M286.17,60.28h-2.64l-.22,1.44c.14,0,.31,0,.53,0a3,3,0,0,1,1.56.37,1.9,1.9,0,0,1,1,1.72,2.39,2.39,0,0,1-2.65,2.28,3.87,3.87,0,0,1-1.77-.41l.24-.85a3.22,3.22,0,0,0,1.52.38,1.39,1.39,0,0,0,1.49-1.3c0-.8-.54-1.36-1.92-1.36-.39,0-.71,0-1,.07l.44-3.25h3.44Z"/><path d="M264.3,58.32v1.11h-4.2V58.32Z"/><path d="M246.28,58.32v1.11h-4.2V58.32Z"/><path d="M221.12,55.25l1.8,4.86c.18.54.39,1.19.52,1.68h0c.15-.49.32-1.12.53-1.71l1.63-4.83h1.58L225,61.11c-1.07,2.82-1.8,4.27-2.82,5.15a4,4,0,0,1-1.83,1L219.94,66a3.8,3.8,0,0,0,1.31-.73,4.51,4.51,0,0,0,1.26-1.66,1.06,1.06,0,0,0,.12-.36,1.67,1.67,0,0,0-.1-.39l-3.05-7.58Z"/><path d="M231.88,60.16a5.47,5.47,0,0,0-.68,0,2.52,2.52,0,0,0-2.3,2.08h0a2.08,2.08,0,0,1,1.6-.7,2,2,0,0,1,2.07,2.13,2.31,2.31,0,0,1-2.35,2.36c-1.58,0-2.51-1.19-2.51-2.84a4,4,0,0,1,1.15-2.94,3.73,3.73,0,0,1,2.32-1,3.36,3.36,0,0,1,.68,0Zm-.45,3.6a1.24,1.24,0,0,0-1.29-1.37,1.38,1.38,0,0,0-1.21.76.77.77,0,0,0-.08.36c0,.92.48,1.68,1.38,1.68A1.28,1.28,0,0,0,231.43,63.76Z"/><path d="M210.23,58.32v1.11H206V58.32Z"/><path d="M192.21,58.32v1.11H188V58.32Z"/><path d="M167.37,55.25l1.8,4.86c.18.54.39,1.19.52,1.68h0c.15-.49.32-1.12.53-1.71l1.63-4.83h1.58l-2.25,5.86c-1.07,2.82-1.8,4.27-2.82,5.15a4,4,0,0,1-1.83,1L166.19,66a3.8,3.8,0,0,0,1.31-.73,4.51,4.51,0,0,0,1.26-1.66,1.06,1.06,0,0,0,.12-.36,1.67,1.67,0,0,0-.1-.39l-3.05-7.58Z"/><path d="M178.38,59.34v.74L175.47,66h-1.2l2.9-5.67v0h-3.26v-.94Z"/><path d="M138.14,58.32v1.11h-4.2V58.32Z"/><path d="M156.16,58.32v1.11H152V58.32Z"/><path d="M113,55.25l1.8,4.86c.18.54.39,1.19.52,1.68h0c.15-.49.32-1.12.53-1.71l1.63-4.83h1.58l-2.25,5.86c-1.07,2.82-1.8,4.27-2.82,5.15a4,4,0,0,1-1.83,1L111.83,66a3.8,3.8,0,0,0,1.31-.73,4.51,4.51,0,0,0,1.26-1.66,1.06,1.06,0,0,0,.12-.36,1.67,1.67,0,0,0-.1-.39l-3-7.58Z"/><path d="M124.14,60.91a1.63,1.63,0,0,1-1.07,1.49v0a1.81,1.81,0,0,1,1.33,1.66c0,1.18-1,2-2.42,2s-2.34-.87-2.34-1.8a1.81,1.81,0,0,1,1.29-1.7v0A1.63,1.63,0,0,1,119.87,61a2,2,0,0,1,2.2-1.78C123.46,59.26,124.14,60.08,124.14,60.91Zm-.9,3.28c0-.73-.54-1.07-1.34-1.29a1.33,1.33,0,0,0-1.13,1.22A1.16,1.16,0,0,0,122,65.26,1.1,1.1,0,0,0,123.24,64.19Zm-2.3-3.2c0,.6.46.92,1.19,1.11a1.16,1.16,0,0,0,.94-1.07,1,1,0,0,0-1-1A1,1,0,0,0,120.94,61Z"/><path d="M102.09,58.32v1.11h-4.2V58.32Z"/><path d="M84.06,58.32v1.11H79.87V58.32Z"/><path d="M58.94,55.25l1.81,4.86c.18.54.39,1.19.52,1.68h0c.15-.49.32-1.12.52-1.71l1.63-4.83h1.59L62.8,61.11C61.73,63.93,61,65.38,60,66.26a4,4,0,0,1-1.84,1L57.77,66a3.89,3.89,0,0,0,1.31-.73,4.51,4.51,0,0,0,1.26-1.66,1.06,1.06,0,0,0,.12-.36,1.39,1.39,0,0,0-.11-.39l-3-7.58Z"/><path d="M66.15,65.16a4.58,4.58,0,0,0,.72,0,2.76,2.76,0,0,0,1.42-.58A2.49,2.49,0,0,0,69.16,63h0a1.92,1.92,0,0,1-1.53.64,2,2,0,0,1-2-2A2.34,2.34,0,0,1,68,59.26c1.53,0,2.38,1.17,2.38,2.8a4,4,0,0,1-1.17,3.06,3.71,3.71,0,0,1-2.23.9,3.51,3.51,0,0,1-.78,0Zm.55-3.61a1.18,1.18,0,0,0,1.2,1.28,1.42,1.42,0,0,0,1.21-.61.71.71,0,0,0,.07-.34c0-1-.38-1.77-1.28-1.77A1.31,1.31,0,0,0,66.7,61.55Z"/><path d="M48,58.32v1.11h-4.2V58.32Z"/><path d="M30,58.32v1.11h-4.2V58.32Z"/><path d="M12,58.32v1.11H7.77V58.32Z"/><path d="M553.68,104.46v1.11h-4.2v-1.11Z"/><path d="M571.72,104.46v1.11h-4.2v-1.11Z"/><path d="M527.35,108.75l3.73-4.85c.35-.44.69-.83,1.07-1.27v0h-4.46v-1.2H534l0,.93-3.67,4.78a16.52,16.52,0,0,1-1.06,1.29v0H534v1.19h-6.68Z"/><path d="M534.71,108.81c0-2.1,1-3.41,2.5-3.41s2.43,1.29,2.43,3.35-.83,3.45-2.49,3.45C535.65,112.2,534.71,110.92,534.71,108.81Zm3.75,0c0-1.58-.43-2.49-1.28-2.49s-1.27.91-1.27,2.49.49,2.57,1.25,2.57S538.46,110.38,538.46,108.76Z"/><path d="M517.6,104.46v1.11h-4.2v-1.11Z"/><path d="M499.56,104.46v1.11h-4.2v-1.11Z"/><path d="M474,108.75l3.73-4.85c.35-.44.69-.83,1.07-1.27v0h-4.46v-1.2h6.28l0,.93-3.67,4.78a16.52,16.52,0,0,1-1.06,1.29v0h4.82v1.19H474Z"/><path d="M482.8,112.11v-5.59h0l-1.22.59-.19-.88,1.6-.75h1v6.63Z"/><path d="M463.48,104.46v1.11h-4.2v-1.11Z"/><path d="M445.44,104.46v1.11h-4.2v-1.11Z"/><path d="M419.33,108.75l3.72-4.85c.36-.44.7-.83,1.07-1.27v0h-4.45v-1.2h6.27l0,.93-3.67,4.78c-.34.46-.68.87-1.05,1.29v0H426v1.19h-6.68Z"/><path d="M426.5,111.48l1.07-1c1.41-1.27,2.14-2.07,2.14-2.94a1.15,1.15,0,0,0-1.29-1.19,2.65,2.65,0,0,0-1.43.53l-.35-.77a3.27,3.27,0,0,1,2.07-.71,2,2,0,0,1,2.26,1.92c0,1.27-1,2.21-2.26,3.35l-.53.47v0h2.91v.93H426.5Z"/><path d="M409.36,104.46v1.11h-4.2v-1.11Z"/><path d="M391.32,104.46v1.11h-4.2v-1.11Z"/><path d="M365.26,108.75,369,103.9c.36-.44.69-.83,1.07-1.27v0h-4.46v-1.2h6.28l0,.93-3.67,4.78c-.34.46-.68.87-1.05,1.29v0h4.81v1.19h-6.68Z"/><path d="M372.7,105.93a3.73,3.73,0,0,1,2-.53c1.46,0,2.07.78,2.07,1.6a1.69,1.69,0,0,1-1.31,1.53v0a1.69,1.69,0,0,1,1.58,1.65c0,1.05-.95,2-2.68,2a3.69,3.69,0,0,1-1.94-.48l.3-.85a3.21,3.21,0,0,0,1.59.44c1,0,1.49-.61,1.47-1.14,0-.85-.9-1.19-1.8-1.19h-.46v-.78H374c.63,0,1.53-.29,1.55-1.09,0-.4-.31-.83-1.07-.83a2.79,2.79,0,0,0-1.45.44Z"/><path d="M355.24,104.46v1.11H351v-1.11Z"/><path d="M337.2,104.46v1.11H333v-1.11Z"/><path d="M310.78,108.75l3.72-4.85c.36-.44.7-.83,1.07-1.27v0h-4.45v-1.2h6.27l0,.93-3.67,4.78c-.34.46-.68.87-1.05,1.29v0h4.81v1.19h-6.68Z"/><path d="M321.23,112.11v-1.75H318v-.68l3-4.23h1.34v4.08h.95v.83h-.95v1.75Zm0-4.59c0-.37,0-.73,0-1.07h0a8.27,8.27,0,0,1-.58,1l-1.48,2,0,0h2Z"/><path d="M301.12,104.46v1.11h-4.2v-1.11Z"/><path d="M283.08,104.46v1.11h-4.2v-1.11Z"/><path d="M257,108.75l3.72-4.85c.36-.44.7-.83,1.07-1.27v0h-4.45v-1.2h6.27l0,.93-3.67,4.78c-.34.46-.68.87-1.05,1.29v0h4.81v1.19H257Z"/><path d="M268.51,106.42h-2.63l-.22,1.44c.14,0,.3,0,.53,0a3,3,0,0,1,1.56.37,1.9,1.9,0,0,1,.95,1.72,2.39,2.39,0,0,1-2.65,2.28,3.87,3.87,0,0,1-1.77-.41l.24-.85a3.22,3.22,0,0,0,1.51.37,1.38,1.38,0,0,0,1.5-1.29c0-.8-.55-1.36-1.92-1.36-.39,0-.72,0-1,.07l.44-3.25h3.43Z"/><path d="M247,104.46v1.11h-4.2v-1.11Z"/><path d="M229,104.46v1.11h-4.2v-1.11Z"/><path d="M202.66,108.75l3.73-4.85c.35-.44.69-.83,1.07-1.27v0H203v-1.2h6.28l0,.93-3.67,4.78a16.52,16.52,0,0,1-1.06,1.29v0h4.81v1.19h-6.68Z"/><path d="M214.17,106.3a5.63,5.63,0,0,0-.68,0,2.51,2.51,0,0,0-2.29,2.08h0a2.07,2.07,0,0,1,1.59-.7,2,2,0,0,1,2.08,2.12,2.32,2.32,0,0,1-2.35,2.37c-1.58,0-2.51-1.19-2.51-2.84a3.93,3.93,0,0,1,1.15-2.94,3.67,3.67,0,0,1,2.31-1,3.38,3.38,0,0,1,.68,0Zm-.44,3.6a1.24,1.24,0,0,0-1.29-1.37,1.37,1.37,0,0,0-1.21.76.74.74,0,0,0-.08.36c0,.92.47,1.68,1.37,1.68A1.28,1.28,0,0,0,213.73,109.9Z"/><path d="M192.88,104.46v1.11h-4.2v-1.11Z"/><path d="M174.84,104.46v1.11h-4.2v-1.11Z"/><path d="M148.87,108.75l3.72-4.85c.36-.44.7-.83,1.07-1.27v0h-4.45v-1.2h6.27l0,.93-3.67,4.78c-.34.46-.68.87-1,1.29v0h4.81v1.19h-6.68Z"/><path d="M160.63,105.48v.73l-2.91,5.9h-1.2l2.9-5.68h-3.26v-.94Z"/><path d="M138.76,104.46v1.11h-4.2v-1.11Z"/><path d="M120.72,104.46v1.11h-4.2v-1.11Z"/><path d="M94.46,108.75l3.72-4.85c.36-.44.7-.83,1.07-1.27v0H94.8v-1.2h6.27l0,.93-3.67,4.78c-.34.46-.68.87-1,1.29v0h4.81v1.19H94.46Z"/><path d="M106.34,107.05a1.63,1.63,0,0,1-1.07,1.49v0a1.81,1.81,0,0,1,1.33,1.66c0,1.18-1,2-2.42,2s-2.34-.87-2.34-1.8a1.81,1.81,0,0,1,1.29-1.7v0a1.63,1.63,0,0,1-1.06-1.48,2,2,0,0,1,2.2-1.78C105.66,105.4,106.34,106.21,106.34,107.05Zm-.9,3.28c0-.73-.54-1.07-1.34-1.29a1.33,1.33,0,0,0-1.13,1.22,1.16,1.16,0,0,0,1.25,1.14A1.1,1.1,0,0,0,105.44,110.33Zm-2.3-3.2c0,.6.46.92,1.19,1.11a1.16,1.16,0,0,0,.94-1.07,1,1,0,0,0-1-1A1,1,0,0,0,103.14,107.13Z"/><path d="M84.64,104.46v1.11h-4.2v-1.11Z"/><path d="M66.6,104.46v1.11H62.4v-1.11Z"/><path d="M40.34,108.75l3.73-4.85c.35-.44.69-.83,1.07-1.27v0H40.68v-1.2H47l0,.93-3.67,4.78a16.52,16.52,0,0,1-1.06,1.29v0H47v1.19H40.34Z"/><path d="M48.3,111.3a6.24,6.24,0,0,0,.72,0,2.85,2.85,0,0,0,1.42-.58,2.52,2.52,0,0,0,.87-1.56h0a1.92,1.92,0,0,1-1.53.64,2,2,0,0,1-2-2,2.34,2.34,0,0,1,2.39-2.34c1.53,0,2.38,1.17,2.38,2.8a4,4,0,0,1-1.17,3.06,3.71,3.71,0,0,1-2.23.9,3.51,3.51,0,0,1-.78,0Zm.55-3.61a1.18,1.18,0,0,0,1.2,1.28,1.42,1.42,0,0,0,1.21-.61.71.71,0,0,0,.07-.34c0-1-.38-1.77-1.28-1.77A1.31,1.31,0,0,0,48.85,107.69Z"/><path d="M30.52,104.46v1.11h-4.2v-1.11Z"/><path d="M12.48,104.46v1.11H8.28v-1.11Z"/><path d="M564.39,143.47l1.17,1.77c.31.46.56.88.83,1.34h.05c.28-.49.55-.92.82-1.36l1.16-1.75H570l-2.8,4,2.89,4.25h-1.7l-1.21-1.86c-.32-.47-.6-.93-.88-1.42h0c-.27.49-.56.93-.87,1.42l-1.19,1.86h-1.64l2.92-4.2-2.79-4Z"/><path d="M570.71,150.9c0-2.11,1-3.42,2.5-3.42s2.43,1.29,2.43,3.35-.83,3.45-2.5,3.45C571.65,154.28,570.71,153,570.71,150.9Zm3.74-.05c0-1.58-.42-2.5-1.27-2.5s-1.28.92-1.28,2.5.49,2.56,1.26,2.56S574.45,152.46,574.45,150.85Z"/><path d="M546.11,143.47l1.8,4.86c.18.55.39,1.19.52,1.68h0c.15-.49.32-1.12.53-1.71l1.63-4.83h1.58L550,149.33c-1.07,2.83-1.8,4.27-2.82,5.15a3.94,3.94,0,0,1-1.83,1l-.38-1.25a3.84,3.84,0,0,0,1.31-.74,4.51,4.51,0,0,0,1.26-1.66,1,1,0,0,0,.12-.36,1.27,1.27,0,0,0-.1-.39l-3-7.58Z"/><path d="M552.72,150.9c0-2.11,1-3.42,2.5-3.42s2.43,1.29,2.43,3.35-.83,3.45-2.5,3.45C553.65,154.28,552.72,153,552.72,150.9Zm3.74-.05c0-1.58-.43-2.5-1.28-2.5s-1.27.92-1.27,2.5.49,2.56,1.26,2.56S556.46,152.46,556.46,150.85Z"/><path d="M526.93,150.83l3.72-4.84c.36-.45.7-.84,1.08-1.28v0h-4.46v-1.21h6.27v.93l-3.67,4.78a16.52,16.52,0,0,1-1.06,1.29v0h4.81v1.19h-6.68Z"/><path d="M534.29,150.9c0-2.11,1-3.42,2.5-3.42s2.43,1.29,2.43,3.35-.83,3.45-2.5,3.45C535.23,154.28,534.29,153,534.29,150.9Zm3.74-.05c0-1.58-.42-2.5-1.27-2.5s-1.28.92-1.28,2.5.5,2.56,1.26,2.56S538,152.46,538,150.85Z"/><path d="M511,143.47l1.17,1.77c.31.46.56.88.83,1.34h0c.28-.49.55-.92.82-1.36l1.16-1.75h1.61l-2.8,4,2.88,4.25H515l-1.21-1.86c-.32-.47-.6-.93-.89-1.42h0c-.27.49-.56.93-.87,1.42l-1.19,1.86h-1.65l2.93-4.2-2.79-4Z"/><path d="M518.74,154.2v-5.6h0l-1.23.6-.19-.89,1.6-.74h1v6.63Z"/><path d="M492.71,143.47l1.8,4.86c.19.55.39,1.19.53,1.68h0c.15-.49.32-1.12.53-1.71l1.63-4.83h1.58l-2.24,5.86c-1.08,2.83-1.81,4.27-2.83,5.15a3.94,3.94,0,0,1-1.83,1l-.38-1.25a3.84,3.84,0,0,0,1.31-.74,4.51,4.51,0,0,0,1.26-1.66,1,1,0,0,0,.12-.36,1.27,1.27,0,0,0-.1-.39l-3-7.58Z"/><path d="M500.75,154.2v-5.6h0l-1.22.6-.19-.89,1.6-.74h1v6.63Z"/><path d="M473.53,150.83l3.72-4.85c.36-.44.7-.83,1.08-1.27v0h-4.46v-1.21h6.27v.93l-3.67,4.78a16.52,16.52,0,0,1-1.06,1.29v0h4.81v1.19h-6.68Z"/><path d="M482.32,154.2v-5.6h0l-1.23.6-.18-.89,1.59-.74h1v6.63Z"/><path d="M456.24,143.47l1.17,1.77c.3.46.56.88.83,1.34h.05c.27-.49.55-.92.82-1.36l1.15-1.75h1.62l-2.81,4L462,151.7h-1.7l-1.2-1.86c-.33-.47-.6-.93-.89-1.42h0c-.27.49-.56.93-.87,1.42l-1.19,1.86h-1.65l2.93-4.2-2.79-4Z"/><path d="M462.37,153.57l1.07-1c1.41-1.27,2.15-2.07,2.15-2.94a1.16,1.16,0,0,0-1.3-1.19,2.59,2.59,0,0,0-1.42.53l-.36-.77a3.29,3.29,0,0,1,2.07-.71,2,2,0,0,1,2.26,1.92c0,1.28-1,2.21-2.26,3.35l-.52.48v0H467v.94h-4.59Z"/><path d="M438,143.47l1.81,4.86c.18.55.39,1.19.52,1.68h0c.15-.49.32-1.12.52-1.71l1.64-4.83h1.58l-2.25,5.86c-1.07,2.83-1.8,4.27-2.82,5.15a3.94,3.94,0,0,1-1.83,1l-.38-1.25a3.84,3.84,0,0,0,1.31-.74,4.51,4.51,0,0,0,1.26-1.66,1,1,0,0,0,.12-.36,1.39,1.39,0,0,0-.11-.39l-3-7.58Z"/><path d="M444.38,153.57l1.07-1c1.41-1.27,2.14-2.07,2.14-2.94a1.16,1.16,0,0,0-1.29-1.19,2.65,2.65,0,0,0-1.43.53l-.35-.77a3.27,3.27,0,0,1,2.07-.71,2,2,0,0,1,2.26,1.92c0,1.28-1,2.21-2.26,3.35l-.53.48v0H449v.94h-4.59Z"/><path d="M418.78,150.83,422.5,146c.36-.44.7-.83,1.07-1.27v0h-4.45v-1.21h6.27v.93l-3.68,4.78c-.34.46-.68.87-1.05,1.29v0h4.81v1.19h-6.68Z"/><path d="M426,153.57l1.07-1c1.41-1.27,2.14-2.07,2.14-2.94a1.16,1.16,0,0,0-1.29-1.19,2.59,2.59,0,0,0-1.43.53l-.36-.77a3.3,3.3,0,0,1,2.08-.71,2,2,0,0,1,2.26,1.92c0,1.28-1,2.21-2.26,3.35l-.53.48v0h2.91v.94H426Z"/><path d="M402.1,143.47l1.18,1.77c.3.46.56.88.83,1.34h.05c.27-.49.55-.92.82-1.36l1.15-1.75h1.62l-2.81,4,2.89,4.25h-1.7l-1.2-1.86c-.33-.47-.6-.93-.89-1.42h0c-.27.49-.56.93-.87,1.42L402,151.7H400.3l2.93-4.2-2.79-4Z"/><path d="M408.51,148a3.79,3.79,0,0,1,2-.53c1.46,0,2.07.78,2.07,1.6a1.68,1.68,0,0,1-1.31,1.53v0a1.69,1.69,0,0,1,1.58,1.65c0,1.06-.95,2-2.68,2a3.72,3.72,0,0,1-1.94-.48l.31-.85a3.13,3.13,0,0,0,1.58.45c1,0,1.49-.62,1.48-1.14,0-.85-.9-1.19-1.8-1.19h-.46v-.78h.47c.63,0,1.53-.29,1.55-1.09,0-.41-.31-.84-1.07-.84a2.76,2.76,0,0,0-1.45.45Z"/><path d="M383.82,143.47l1.81,4.86c.18.55.39,1.19.52,1.68h0c.15-.49.32-1.12.52-1.71l1.64-4.83h1.58l-2.25,5.86c-1.07,2.83-1.8,4.27-2.82,5.15a3.94,3.94,0,0,1-1.83,1l-.38-1.25a3.84,3.84,0,0,0,1.31-.74,4.51,4.51,0,0,0,1.26-1.66,1,1,0,0,0,.12-.36,1.39,1.39,0,0,0-.11-.39l-3-7.58Z"/><path d="M390.52,148a3.73,3.73,0,0,1,2-.53c1.46,0,2.07.78,2.07,1.6a1.68,1.68,0,0,1-1.31,1.53v0a1.69,1.69,0,0,1,1.58,1.65c0,1.06-.95,2-2.68,2a3.69,3.69,0,0,1-1.94-.48l.31-.85a3.13,3.13,0,0,0,1.58.45c1,0,1.49-.62,1.47-1.14,0-.85-.9-1.19-1.8-1.19h-.46v-.78h.48c.63,0,1.53-.29,1.55-1.09,0-.41-.31-.84-1.07-.84a2.7,2.7,0,0,0-1.45.45Z"/><path d="M364.65,150.83l3.72-4.84c.36-.45.7-.84,1.07-1.28v0H365v-1.21h6.27v.93l-3.68,4.78c-.34.46-.68.87-1.05,1.29v0h4.81v1.19h-6.68Z"/><path d="M372.1,148a3.72,3.72,0,0,1,1.95-.53c1.46,0,2.08.78,2.08,1.6a1.69,1.69,0,0,1-1.31,1.53v0a1.7,1.7,0,0,1,1.58,1.65c0,1.06-1,2-2.69,2a3.72,3.72,0,0,1-1.94-.48l.31-.85a3.13,3.13,0,0,0,1.58.45c1,0,1.5-.62,1.48-1.14,0-.85-.9-1.19-1.8-1.19h-.46v-.78h.47c.63,0,1.53-.29,1.55-1.09,0-.41-.31-.84-1.07-.84a2.76,2.76,0,0,0-1.45.45Z"/><path d="M347.57,143.47l1.17,1.77c.31.46.56.88.83,1.34h.05c.28-.49.55-.92.82-1.36l1.16-1.75h1.61l-2.8,4,2.89,4.25h-1.7l-1.21-1.86c-.32-.47-.6-.93-.88-1.42h0c-.27.49-.56.93-.87,1.42l-1.19,1.86h-1.65l2.93-4.2-2.79-4Z"/><path d="M357,154.2v-1.76h-3.21v-.67l3-4.24h1.34v4.08h1v.83h-1v1.76Zm0-4.59c0-.38,0-.73.06-1.08h0a8.44,8.44,0,0,1-.58,1l-1.47,2v0h2Z"/><path d="M329.29,143.47l1.8,4.86c.18.55.39,1.19.52,1.68h0c.15-.49.32-1.12.52-1.71l1.64-4.83h1.58l-2.25,5.86c-1.07,2.83-1.8,4.27-2.82,5.15a3.94,3.94,0,0,1-1.83,1l-.38-1.25a3.84,3.84,0,0,0,1.31-.74,4.51,4.51,0,0,0,1.26-1.66,1,1,0,0,0,.12-.36,1.67,1.67,0,0,0-.1-.39l-3.05-7.58Z"/><path d="M339,154.2v-1.76h-3.21v-.67l3-4.24h1.34v4.08h.95v.83h-.95v1.76Zm0-4.59c0-.38,0-.73.05-1.08h0c-.21.4-.38.7-.58,1l-1.48,2,0,0h2Z"/><path d="M310.11,150.83l3.72-4.84c.36-.45.7-.84,1.07-1.28v0h-4.45v-1.21h6.27v.93L313,149.18c-.34.46-.68.87-1,1.29v0h4.81v1.19h-6.68Z"/><path d="M320.57,154.2v-1.76h-3.22v-.67l3-4.24h1.34v4.08h1v.83h-1v1.76Zm0-4.59c0-.38,0-.73.05-1.08h0a10.12,10.12,0,0,1-.57,1l-1.48,2v0h2Z"/><path d="M293.72,143.47l1.17,1.77c.31.46.56.88.83,1.34h0c.28-.49.55-.92.82-1.36l1.16-1.75h1.61l-2.81,4,2.89,4.25h-1.69l-1.21-1.86c-.33-.47-.6-.93-.89-1.42h0c-.27.49-.56.93-.87,1.42l-1.19,1.86h-1.65l2.93-4.2-2.79-4Z"/><path d="M304.21,148.5h-2.64l-.22,1.45a3.59,3.59,0,0,1,.53,0,2.92,2.92,0,0,1,1.56.38,1.87,1.87,0,0,1,.95,1.71,2.39,2.39,0,0,1-2.65,2.28,3.75,3.75,0,0,1-1.77-.41l.24-.85a3.21,3.21,0,0,0,1.51.38,1.39,1.39,0,0,0,1.5-1.3c0-.79-.55-1.36-1.92-1.36-.39,0-.72.06-1,.07l.44-3.24h3.44Z"/><path d="M275.43,143.47l1.81,4.86c.18.55.39,1.19.52,1.68h0c.15-.49.32-1.12.52-1.71l1.64-4.83h1.58l-2.25,5.86c-1.07,2.83-1.8,4.27-2.82,5.15a3.94,3.94,0,0,1-1.83,1l-.38-1.25a3.84,3.84,0,0,0,1.31-.74,4.51,4.51,0,0,0,1.26-1.66,1,1,0,0,0,.12-.36,1.39,1.39,0,0,0-.11-.39l-3-7.58Z"/><path d="M286.21,148.5h-2.63l-.22,1.45a3.33,3.33,0,0,1,.52,0,3,3,0,0,1,1.57.38,1.89,1.89,0,0,1,.95,1.71,2.39,2.39,0,0,1-2.65,2.28,3.75,3.75,0,0,1-1.77-.41l.24-.85a3.18,3.18,0,0,0,1.51.38,1.39,1.39,0,0,0,1.5-1.3c0-.79-.55-1.36-1.93-1.36-.39,0-.71.06-1,.07l.44-3.24h3.43Z"/><path d="M256.26,150.83,260,146c.36-.44.7-.83,1.07-1.27v0H256.6v-1.21h6.27v.93l-3.68,4.78a16.4,16.4,0,0,1-1.05,1.29v0h4.81v1.19h-6.68Z"/><path d="M267.79,148.5h-2.64l-.22,1.45a3.59,3.59,0,0,1,.53,0,2.92,2.92,0,0,1,1.56.38,1.87,1.87,0,0,1,1,1.71,2.39,2.39,0,0,1-2.65,2.28,3.75,3.75,0,0,1-1.77-.41l.24-.85a3.22,3.22,0,0,0,1.52.38,1.39,1.39,0,0,0,1.49-1.3c0-.79-.54-1.36-1.92-1.36-.39,0-.71.06-1,.07l.44-3.24h3.44Z"/><path d="M239.33,143.47l1.17,1.77c.31.46.56.88.84,1.34h0c.27-.49.54-.92.81-1.36l1.16-1.75H245l-2.8,4,2.89,4.25h-1.7l-1.21-1.86c-.32-.47-.59-.93-.88-1.42h0c-.27.49-.56.93-.86,1.42l-1.19,1.86h-1.65l2.92-4.2-2.79-4Z"/><path d="M249.8,148.38a4.24,4.24,0,0,0-.68,0,2.49,2.49,0,0,0-2.29,2.07h0a2.15,2.15,0,0,1,1.6-.7,2,2,0,0,1,2.08,2.13,2.31,2.31,0,0,1-2.35,2.36,2.54,2.54,0,0,1-2.52-2.84,4,4,0,0,1,1.16-2.94,3.73,3.73,0,0,1,2.31-1,3.36,3.36,0,0,1,.68,0Zm-.44,3.61a1.24,1.24,0,0,0-1.29-1.38,1.37,1.37,0,0,0-1.21.76.8.8,0,0,0-.08.36c0,.92.47,1.68,1.37,1.68A1.28,1.28,0,0,0,249.36,152Z"/><path d="M221.05,143.47l1.8,4.86c.19.55.39,1.19.53,1.68h0c.16-.49.33-1.12.53-1.71l1.63-4.83h1.58l-2.24,5.86c-1.07,2.83-1.8,4.27-2.82,5.15a4,4,0,0,1-1.84,1l-.37-1.25a4,4,0,0,0,1.31-.74,4.6,4.6,0,0,0,1.25-1.66,1,1,0,0,0,.12-.36,1.27,1.27,0,0,0-.1-.39l-3-7.58Z"/><path d="M231.81,148.38a4.17,4.17,0,0,0-.68,0,2.49,2.49,0,0,0-2.29,2.07h0a2.13,2.13,0,0,1,1.6-.7,2,2,0,0,1,2.07,2.13,2.3,2.3,0,0,1-2.34,2.36,2.54,2.54,0,0,1-2.52-2.84,4,4,0,0,1,1.16-2.94,3.73,3.73,0,0,1,2.31-1,3.36,3.36,0,0,1,.68,0Zm-.44,3.61a1.24,1.24,0,0,0-1.29-1.38,1.37,1.37,0,0,0-1.21.76.8.8,0,0,0-.09.36c0,.92.48,1.68,1.38,1.68A1.28,1.28,0,0,0,231.37,152Z"/><path d="M201.88,150.83,205.6,146c.36-.45.7-.84,1.07-1.28v0h-4.46v-1.21h6.28l0,.93-3.67,4.78c-.34.46-.68.87-1.05,1.29v0h4.81v1.19h-6.68Z"/><path d="M213.38,148.38a4.24,4.24,0,0,0-.68,0,2.49,2.49,0,0,0-2.29,2.07h0a2.11,2.11,0,0,1,1.59-.7,2,2,0,0,1,2.08,2.13,2.31,2.31,0,0,1-2.35,2.36c-1.58,0-2.51-1.19-2.51-2.84a4,4,0,0,1,1.15-2.94,3.73,3.73,0,0,1,2.31-1,3.38,3.38,0,0,1,.68,0Zm-.44,3.61a1.24,1.24,0,0,0-1.29-1.38,1.37,1.37,0,0,0-1.21.76.8.8,0,0,0-.08.36c0,.92.48,1.68,1.38,1.68A1.28,1.28,0,0,0,212.94,152Z"/><path d="M185.47,143.47l1.17,1.77c.31.46.57.88.84,1.34h.05c.27-.49.54-.92.81-1.36l1.16-1.75h1.62l-2.81,4,2.89,4.25h-1.7l-1.21-1.86c-.32-.47-.59-.93-.88-1.42h0c-.28.49-.57.93-.87,1.42l-1.19,1.86h-1.65l2.92-4.2-2.78-4Z"/><path d="M196.2,147.57v.73l-2.91,5.9h-1.2l2.9-5.68v0h-3.26v-.93Z"/><path d="M167.19,143.47l1.8,4.86c.19.55.39,1.19.53,1.68h0c.16-.49.33-1.12.53-1.71l1.63-4.83h1.58l-2.24,5.86c-1.07,2.83-1.8,4.27-2.82,5.15a4,4,0,0,1-1.84,1L166,154.2a4,4,0,0,0,1.31-.74,4.6,4.6,0,0,0,1.25-1.66,1,1,0,0,0,.12-.36,1.27,1.27,0,0,0-.1-.39l-3-7.58Z"/><path d="M178.21,147.57v.73l-2.91,5.9h-1.21l2.91-5.68v0h-3.26v-.93Z"/><path d="M148,150.83l3.72-4.84c.36-.45.7-.84,1.07-1.28v0h-4.45v-1.21h6.27l0,.93-3.67,4.78c-.34.46-.68.87-1.05,1.29v0h4.81v1.19H148Z"/><path d="M159.78,147.57v.73l-2.91,5.9h-1.2l2.9-5.68v0h-3.26v-.93Z"/><path d="M131,143.47l1.17,1.77c.31.46.57.88.84,1.34h.05c.27-.49.54-.92.81-1.36l1.16-1.75h1.61l-2.8,4,2.89,4.25H135l-1.21-1.86c-.32-.47-.59-.93-.88-1.42h0c-.28.49-.57.93-.87,1.42l-1.19,1.86H129.2l2.92-4.2-2.78-4Z"/><path d="M141.85,149.13a1.64,1.64,0,0,1-1.07,1.5v0a1.81,1.81,0,0,1,1.32,1.67c0,1.17-1,1.95-2.41,1.95s-2.35-.87-2.35-1.8a1.82,1.82,0,0,1,1.29-1.7v0a1.63,1.63,0,0,1-1-1.47,2,2,0,0,1,2.19-1.79C141.17,147.48,141.85,148.3,141.85,149.13Zm-.9,3.28c0-.73-.55-1.07-1.35-1.29a1.33,1.33,0,0,0-1.12,1.22,1.15,1.15,0,0,0,1.24,1.14A1.11,1.11,0,0,0,141,152.41Zm-2.3-3.19c0,.59.46.91,1.19,1.1a1.15,1.15,0,0,0,.94-1.07,1,1,0,0,0-1-1A1,1,0,0,0,138.65,149.22Z"/><path d="M112.72,143.47l1.8,4.86c.19.55.39,1.19.53,1.68h0c.16-.49.33-1.12.53-1.71l1.63-4.83h1.58l-2.24,5.86c-1.07,2.83-1.8,4.27-2.82,5.15a3.92,3.92,0,0,1-1.84,1l-.37-1.25a4,4,0,0,0,1.31-.74,4.6,4.6,0,0,0,1.25-1.66,1,1,0,0,0,.12-.36,1.27,1.27,0,0,0-.1-.39l-3-7.58Z"/><path d="M123.85,149.13a1.63,1.63,0,0,1-1.07,1.5v0a1.8,1.8,0,0,1,1.33,1.67c0,1.17-1,1.95-2.41,1.95s-2.35-.87-2.35-1.8a1.81,1.81,0,0,1,1.29-1.7v0a1.63,1.63,0,0,1-1-1.47,2,2,0,0,1,2.19-1.79C123.17,147.48,123.85,148.3,123.85,149.13Zm-.9,3.28c0-.73-.54-1.07-1.34-1.29a1.33,1.33,0,0,0-1.12,1.22,1.15,1.15,0,0,0,1.24,1.14A1.1,1.1,0,0,0,123,152.41Zm-2.29-3.19c0,.59.46.91,1.19,1.1a1.14,1.14,0,0,0,.93-1.07,1,1,0,0,0-1-1A1,1,0,0,0,120.66,149.22Z"/><path d="M93.55,150.83,97.27,146c.36-.45.69-.84,1.07-1.28v0H93.88v-1.21h6.28l0,.93-3.67,4.78c-.34.46-.68.87-1,1.29v0h4.81v1.19H93.55Z"/><path d="M105.43,149.13a1.64,1.64,0,0,1-1.07,1.5v0a1.81,1.81,0,0,1,1.32,1.67c0,1.17-1,1.95-2.41,1.95s-2.35-.87-2.35-1.8a1.82,1.82,0,0,1,1.3-1.7v0a1.63,1.63,0,0,1-1.06-1.47,2,2,0,0,1,2.19-1.79C104.75,147.48,105.43,148.3,105.43,149.13Zm-.9,3.28c0-.73-.55-1.07-1.35-1.29a1.33,1.33,0,0,0-1.12,1.22,1.15,1.15,0,0,0,1.24,1.14A1.11,1.11,0,0,0,104.53,152.41Zm-2.3-3.19c0,.59.46.91,1.19,1.1a1.15,1.15,0,0,0,.94-1.07,1,1,0,0,0-1-1A1,1,0,0,0,102.23,149.22Z"/><path d="M76.83,143.47,78,145.24c.31.46.56.88.83,1.34h0c.28-.49.55-.92.82-1.36l1.16-1.75h1.61l-2.8,4,2.89,4.25h-1.7l-1.21-1.86c-.32-.47-.6-.93-.88-1.42h0c-.27.49-.56.93-.87,1.42l-1.19,1.86H75L78,147.5l-2.79-4Z"/><path d="M83.75,153.38a4.46,4.46,0,0,0,.71,0,2.76,2.76,0,0,0,1.43-.58,2.49,2.49,0,0,0,.87-1.56h0a2.08,2.08,0,0,1-3.59-1.39,2.35,2.35,0,0,1,2.4-2.35c1.53,0,2.38,1.17,2.38,2.81a4,4,0,0,1-1.17,3.06,3.86,3.86,0,0,1-2.23.9,4.14,4.14,0,0,1-.78,0Zm.54-3.6a1.19,1.19,0,0,0,1.21,1.27,1.4,1.4,0,0,0,1.2-.61.61.61,0,0,0,.07-.34c0-1-.37-1.77-1.27-1.77A1.31,1.31,0,0,0,84.29,149.78Z"/><path d="M58.55,143.47l1.8,4.86c.19.55.39,1.19.53,1.68h0c.15-.49.32-1.12.53-1.71l1.63-4.83h1.58l-2.24,5.86c-1.08,2.83-1.81,4.27-2.83,5.15a3.94,3.94,0,0,1-1.83,1l-.38-1.25a3.84,3.84,0,0,0,1.31-.74,4.51,4.51,0,0,0,1.26-1.66,1,1,0,0,0,.12-.36,1.27,1.27,0,0,0-.1-.39l-3-7.58Z"/><path d="M65.76,153.38a4.46,4.46,0,0,0,.71,0,2.76,2.76,0,0,0,1.43-.58,2.48,2.48,0,0,0,.86-1.56h0a2.08,2.08,0,0,1-3.59-1.39,2.35,2.35,0,0,1,2.4-2.35c1.53,0,2.38,1.17,2.38,2.81a4,4,0,0,1-1.18,3.06,3.83,3.83,0,0,1-2.22.9,4.14,4.14,0,0,1-.78,0Zm.54-3.6a1.19,1.19,0,0,0,1.21,1.27,1.4,1.4,0,0,0,1.2-.61.71.71,0,0,0,.07-.34c0-1-.37-1.77-1.27-1.77A1.31,1.31,0,0,0,66.3,149.78Z"/><path d="M39.37,150.83,43.09,146c.36-.44.7-.83,1.08-1.27v0H39.71v-1.21H46v.93l-3.67,4.78a16.52,16.52,0,0,1-1.06,1.29v0h4.81v1.19H39.37Z"/><path d="M47.33,153.38a4.43,4.43,0,0,0,.71,0,2.76,2.76,0,0,0,1.43-.58,2.49,2.49,0,0,0,.87-1.56h0a2.08,2.08,0,0,1-3.59-1.39,2.35,2.35,0,0,1,2.4-2.35c1.53,0,2.38,1.17,2.38,2.81a4,4,0,0,1-1.17,3.06,3.84,3.84,0,0,1-2.23.9,4.13,4.13,0,0,1-.78,0Zm.54-3.6a1.19,1.19,0,0,0,1.21,1.27,1.42,1.42,0,0,0,1.21-.61.71.71,0,0,0,.06-.34c0-1-.37-1.77-1.27-1.77A1.31,1.31,0,0,0,47.87,149.78Z"/><path d="M29.52,146.55v1.1h-4.2v-1.1Z"/><path d="M11.46,146.55v1.1H7.26v-1.1Z"/></svg>