<svg id="Layer_1" data-name="Layer 1" xmlns="http://www.w3.org/2000/svg" viewBox="0 0 220 220"><defs><style>.cls-1,.cls-2{fill:none;stroke:#000;stroke-miterlimit:10;}.cls-1{stroke-width:0.5px;}.cls-3{fill:#0071bc;opacity:0.3;}.cls-4{font-size:16px;font-family:MyriadPro-Regular, Myriad Pro;}</style></defs><title>Morton Shaded Region</title><circle cx="55.46" cy="163.47" r="5.14"/><circle cx="91.45" cy="162.85" r="5.14"/><circle cx="127.45" cy="162.54" r="5.14"/><circle cx="163.44" cy="163.16" r="5.14"/><circle cx="55.46" cy="127.48" r="5.14"/><circle cx="91.45" cy="126.85" r="5.14"/><circle cx="127.45" cy="126.54" r="5.14"/><circle cx="163.44" cy="127.17" r="5.14"/><circle cx="55.46" cy="91.48" r="5.14"/><circle cx="91.45" cy="90.86" r="5.14"/><circle cx="127.45" cy="90.55" r="5.14"/><circle cx="163.44" cy="91.17" r="5.14"/><circle cx="55.46" cy="55.49" r="5.14"/><circle cx="91.45" cy="54.86" r="5.14"/><circle cx="127.45" cy="54.55" r="5.14"/><circle cx="163.44" cy="55.18" r="5.14"/><polyline class="cls-1" points="55.46 163.47 91.45 162.85 55.46 127.48 91.45 126.85 127.45 162.54 163.44 163.16 127.45 126.54 163.44 127.17 55.46 91.48 91.45 90.86 55.46 55.49 91.45 54.87 127.45 90.55 163.44 91.17 127.45 54.55 163.44 55.18"/><rect class="cls-2" x="19.86" y="19.86" width="180" height="180"/><rect class="cls-3" x="39.71" y="39.5" width="70.86" height="70.11"/><text class="cls-4" transform="translate(101.9 214.52)">(c)</text></svg>