<?xml version="1.0" encoding="UTF-8" standalone="no"?>
<svg
   xmlns:dc="http://purl.org/dc/elements/1.1/"
   xmlns:cc="http://creativecommons.org/ns#"
   xmlns:rdf="http://www.w3.org/1999/02/22-rdf-syntax-ns#"
   xmlns:svg="http://www.w3.org/2000/svg"
   xmlns="http://www.w3.org/2000/svg"
   xmlns:xlink="http://www.w3.org/1999/xlink"
   xmlns:sodipodi="http://sodipodi.sourceforge.net/DTD/sodipodi-0.dtd"
   xmlns:inkscape="http://www.inkscape.org/namespaces/inkscape"
   id="Layer_1"
   data-name="Layer 1"
   viewBox="0 0 485.7 297.54"
   version="1.1"
   sodipodi:docname="BRDF.svg"
   inkscape:version="1.0.1 (3bc2e813f5, 2020-09-07)">
  <metadata
     id="metadata894">
    <rdf:RDF>
      <cc:Work
         rdf:about="">
        <dc:format>image/svg+xml</dc:format>
        <dc:type
           rdf:resource="http://purl.org/dc/dcmitype/StillImage" />
      </cc:Work>
    </rdf:RDF>
  </metadata>
  <sodipodi:namedview
     pagecolor="#ffffff"
     bordercolor="#666666"
     borderopacity="1"
     objecttolerance="10"
     gridtolerance="10"
     guidetolerance="10"
     inkscape:pageopacity="0"
     inkscape:pageshadow="2"
     inkscape:window-width="1920"
     inkscape:window-height="1017"
     id="namedview892"
     showgrid="false"
     inkscape:zoom="1.4762199"
     inkscape:cx="242.85"
     inkscape:cy="148.77"
     inkscape:window-x="1912"
     inkscape:window-y="-8"
     inkscape:window-maximized="1"
     inkscape:current-layer="Layer_1"
     inkscape:document-rotation="0" />
  <defs
     id="defs835">
    <style
       id="style833">.cls-1,.cls-2,.cls-6{fill:none;}.cls-1,.cls-2,.cls-5,.cls-6{stroke:#000;stroke-miterlimit:10;}.cls-1{stroke-width:0.5px;}.cls-3{fill:#a6a6a6;}.cls-4{fill:#666;}.cls-5{fill:#fcee21;stroke-width:0.3px;}.cls-6{stroke-dasharray:2;}.cls-7{fill:#bbbdbf;}.cls-8{fill:#fff;}.cls-9{fill:#212121;}</style>
    <g
       id="g4746">
      <symbol
         overflow="visible"
         id="symbol1724">
        <path
           style="stroke:none;"
           d=""
           id="path9297" />
      </symbol>
      <symbol
         overflow="visible"
         id="symbol7006">
        <path
           style="stroke:none;"
           d="M 2.796875 -3.75 C 2.65625 -4.25 2.109375 -4.5 1.5625 -4.5 C 1.203125 -4.5 0.921875 -4.296875 0.703125 -3.9375 C 0.453125 -3.53125 0.3125 -3 0.3125 -2.953125 C 0.3125 -2.8125 0.46875 -2.8125 0.5625 -2.8125 C 0.671875 -2.8125 0.703125 -2.8125 0.75 -2.859375 C 0.78125 -2.875 0.78125 -2.90625 0.84375 -3.15625 C 1.03125 -3.921875 1.25 -4.140625 1.515625 -4.140625 C 1.671875 -4.140625 1.75 -4.046875 1.75 -3.78125 C 1.75 -3.609375 1.703125 -3.453125 1.609375 -3.046875 C 1.53125 -2.765625 1.4375 -2.375 1.390625 -2.15625 L 1.03125 -0.75 C 1 -0.625 0.953125 -0.421875 0.953125 -0.359375 C 0.953125 -0.15625 1.109375 0.078125 1.421875 0.078125 C 1.9375 0.078125 2.046875 -0.375 2.125 -0.671875 C 2.21875 -1.046875 2.296875 -1.359375 2.40625 -1.796875 C 2.4375 -1.921875 2.6875 -2.953125 2.71875 -2.984375 C 2.71875 -3.046875 3 -3.484375 3.328125 -3.765625 C 3.609375 -3.984375 3.9375 -4.140625 4.359375 -4.140625 C 4.609375 -4.140625 4.859375 -4.046875 4.859375 -3.5625 C 4.859375 -2.984375 4.421875 -1.828125 4.234375 -1.328125 C 4.109375 -1.0625 4.09375 -0.984375 4.09375 -0.8125 C 4.09375 -0.234375 4.671875 0.078125 5.21875 0.078125 C 6.265625 0.078125 6.765625 -1.28125 6.765625 -1.46875 C 6.765625 -1.609375 6.625 -1.609375 6.53125 -1.609375 C 6.40625 -1.609375 6.34375 -1.609375 6.296875 -1.484375 C 5.96875 -0.375 5.4375 -0.28125 5.28125 -0.28125 C 5.203125 -0.28125 5.109375 -0.28125 5.109375 -0.484375 C 5.109375 -0.71875 5.203125 -0.96875 5.296875 -1.21875 C 5.46875 -1.625 5.921875 -2.796875 5.921875 -3.34375 C 5.921875 -4.265625 5.15625 -4.5 4.4375 -4.5 C 4.234375 -4.5 3.5 -4.5 2.796875 -3.75 Z M 2.796875 -3.75 "
           id="path8400" />
      </symbol>
    </g>
    <g
       id="g4318">
      <symbol
         overflow="visible"
         id="symbol9032">
        <path
           style="stroke:none;"
           d=""
           id="path6400" />
      </symbol>
      <symbol
         overflow="visible"
         id="symbol4594">
        <path
           style="stroke:none;"
           d="M 3.609375 -1.390625 C 3.859375 -1.859375 4 -2.34375 4 -2.515625 C 4 -2.734375 3.875 -2.953125 3.625 -2.953125 C 3 -2.953125 2.9375 -1.890625 2.921875 -1.625 C 2.90625 -1.46875 2.90625 -1.46875 2.890625 -1.453125 C 2.734375 -1.3125 2.3125 -1.015625 1.78125 -1.015625 C 1.125 -1.015625 0.75 -1.453125 0.75 -2 C 0.75 -2.3125 0.921875 -3.0625 1.609375 -4 C 1.703125 -4.109375 1.71875 -4.140625 1.71875 -4.21875 C 1.71875 -4.34375 1.625 -4.421875 1.515625 -4.421875 C 1.421875 -4.421875 1.359375 -4.359375 1.34375 -4.359375 C 1.296875 -4.3125 0.21875 -3.015625 0.21875 -1.578125 C 0.21875 -0.578125 0.734375 0.078125 1.578125 0.078125 C 2.28125 0.078125 2.84375 -0.40625 3.0625 -0.640625 C 3.1875 -0.34375 3.484375 0.078125 4.140625 0.078125 C 5 0.078125 5.765625 -0.546875 6.203125 -1.21875 C 6.8125 -2.171875 6.890625 -3.453125 6.890625 -3.59375 C 6.890625 -4.359375 6.4375 -4.515625 6.234375 -4.515625 C 5.859375 -4.515625 5.46875 -4.109375 5.46875 -3.765625 C 5.46875 -3.5 5.65625 -3.375 5.765625 -3.296875 C 6.015625 -3.125 6.234375 -2.890625 6.234375 -2.578125 C 6.234375 -1.90625 5.390625 -1.015625 4.34375 -1.015625 C 4.0625 -1.015625 3.78125 -1.09375 3.609375 -1.390625 Z M 3.609375 -1.390625 "
           id="path5986" />
      </symbol>
      <symbol
         overflow="visible"
         id="symbol7936">
        <path
           style="stroke:none;"
           d=""
           id="path5951" />
      </symbol>
      <symbol
         overflow="visible"
         id="symbol3895">
        <path
           style="stroke:none;"
           d="M 3.6875 -1.484375 C 3.6875 -2.359375 2.9375 -3.109375 1.984375 -3.109375 C 1.015625 -3.109375 0.265625 -2.359375 0.265625 -1.484375 C 0.265625 -0.625 1.03125 0.0625 1.984375 0.0625 C 2.921875 0.0625 3.6875 -0.625 3.6875 -1.484375 Z M 1.984375 -0.15625 C 1.71875 -0.15625 1.34375 -0.234375 1.109375 -0.578125 C 0.921875 -0.859375 0.90625 -1.21875 0.90625 -1.546875 C 0.90625 -1.84375 0.90625 -2.265625 1.15625 -2.5625 C 1.328125 -2.765625 1.625 -2.90625 1.984375 -2.90625 C 2.390625 -2.90625 2.6875 -2.71875 2.84375 -2.5 C 3.03125 -2.234375 3.046875 -1.875 3.046875 -1.546875 C 3.046875 -1.21875 3.03125 -0.84375 2.828125 -0.5625 C 2.640625 -0.296875 2.328125 -0.15625 1.984375 -0.15625 Z M 1.984375 -0.15625 "
           id="path2638" />
      </symbol>
    </g>
    <g
       id="g1878">
      <symbol
         overflow="visible"
         id="symbol9077">
        <path
           style="stroke:none;"
           d=""
           id="path2100" />
      </symbol>
      <symbol
         overflow="visible"
         id="symbol3483">
        <path
           style="stroke:none;"
           d="M 3.609375 -1.390625 C 3.859375 -1.859375 4 -2.34375 4 -2.515625 C 4 -2.734375 3.875 -2.953125 3.625 -2.953125 C 3 -2.953125 2.9375 -1.890625 2.921875 -1.625 C 2.90625 -1.46875 2.90625 -1.46875 2.890625 -1.453125 C 2.734375 -1.3125 2.3125 -1.015625 1.78125 -1.015625 C 1.125 -1.015625 0.75 -1.453125 0.75 -2 C 0.75 -2.3125 0.921875 -3.0625 1.609375 -4 C 1.703125 -4.109375 1.71875 -4.140625 1.71875 -4.21875 C 1.71875 -4.34375 1.625 -4.421875 1.515625 -4.421875 C 1.421875 -4.421875 1.359375 -4.359375 1.34375 -4.359375 C 1.296875 -4.3125 0.21875 -3.015625 0.21875 -1.578125 C 0.21875 -0.578125 0.734375 0.078125 1.578125 0.078125 C 2.28125 0.078125 2.84375 -0.40625 3.0625 -0.640625 C 3.1875 -0.34375 3.484375 0.078125 4.140625 0.078125 C 5 0.078125 5.765625 -0.546875 6.203125 -1.21875 C 6.8125 -2.171875 6.890625 -3.453125 6.890625 -3.59375 C 6.890625 -4.359375 6.4375 -4.515625 6.234375 -4.515625 C 5.859375 -4.515625 5.46875 -4.109375 5.46875 -3.765625 C 5.46875 -3.5 5.65625 -3.375 5.765625 -3.296875 C 6.015625 -3.125 6.234375 -2.890625 6.234375 -2.578125 C 6.234375 -1.90625 5.390625 -1.015625 4.34375 -1.015625 C 4.0625 -1.015625 3.78125 -1.09375 3.609375 -1.390625 Z M 3.609375 -1.390625 "
           id="path6051" />
      </symbol>
      <symbol
         overflow="visible"
         id="symbol5022">
        <path
           style="stroke:none;"
           d=""
           id="path7687" />
      </symbol>
      <symbol
         overflow="visible"
         id="symbol2513">
        <path
           style="stroke:none;"
           d="M 1.46875 -4.296875 C 1.46875 -4.5 1.296875 -4.703125 1.0625 -4.703125 C 0.859375 -4.703125 0.671875 -4.53125 0.671875 -4.296875 C 0.671875 -4.046875 0.875 -3.890625 1.0625 -3.890625 C 1.296875 -3.890625 1.46875 -4.0625 1.46875 -4.296875 Z M 0.40625 -3 L 0.40625 -2.75 C 0.84375 -2.75 0.90625 -2.703125 0.90625 -2.359375 L 0.90625 -0.546875 C 0.90625 -0.25 0.84375 -0.25 0.390625 -0.25 L 0.390625 0 C 0.40625 0 0.890625 -0.03125 1.171875 -0.03125 C 1.421875 -0.03125 1.671875 -0.015625 1.90625 0 L 1.90625 -0.25 C 1.5 -0.25 1.4375 -0.25 1.4375 -0.546875 L 1.4375 -3.078125 Z M 0.40625 -3 "
           id="path4037" />
      </symbol>
    </g>
  </defs>
  <title
     id="title837">BRDF</title>
  <polygon
     class="cls-1"
     points="485.29 110.81 148.31 108.97 50.61 295.45 387.58 297.29 485.29 110.81"
     id="polygon839" />
  <line
     class="cls-2"
     x1="267.76"
     y1="203.35"
     x2="267.76"
     y2="37.91"
     id="line841" />
  <polygon
     points="273.26 42.82 267.76 38.56 262.26 42.82 267.76 29.8 273.26 42.82"
     id="polygon843" />
  <polygon
     class="cls-3"
     points="272.06 41.26 267.76 31.11 267.76 37.92 272.06 41.26"
     id="polygon845" />
  <polygon
     class="cls-4"
     points="263.46 41.26 267.76 31.11 267.76 37.92 263.46 41.26"
     id="polygon847" />
  <polygon
     class="cls-5"
     points="392.78 12.26 391.2 21.93 396.15 13.47 392.82 22.69 399.25 15.29 394.28 23.74 401.95 17.64 395.52 25.04 404.18 20.45 396.5 26.54 405.86 23.62 397.19 28.19 406.92 27.05 397.56 29.95 407.34 30.61 397.6 31.74 407.09 34.19 397.32 33.51 406.19 37.66 396.71 35.2 404.67 40.91 395.8 36.74 402.58 43.82 394.63 38.1 399.99 46.3 393.22 39.21 396.99 48.26 391.63 40.05 393.67 49.64 389.92 40.58 390.16 50.38 388.14 40.79 386.58 50.47 386.35 40.67 383.04 49.89 384.62 40.22 379.66 48.68 382.99 39.46 376.57 46.86 381.53 38.41 373.86 44.51 380.29 37.12 371.63 41.7 379.31 35.61 369.96 38.53 378.63 33.96 368.89 35.1 378.25 32.2 368.48 31.54 378.21 30.41 368.72 27.96 378.5 28.64 369.62 24.49 379.11 26.95 371.14 21.24 380.01 25.41 373.23 18.33 381.19 24.05 375.83 15.85 382.6 22.94 378.83 13.89 384.18 22.1 382.14 12.51 385.89 21.57 385.65 11.77 387.68 21.36 389.24 11.68 389.46 21.48 392.78 12.26"
     id="polygon851" />
  <line
     class="cls-2"
     x1="268.06"
     y1="203.35"
     x2="353.84"
     y2="81.12"
     id="line853" />
  <polygon
     points="355.53 88.3 353.47 81.65 346.52 81.97 358.5 74.48 355.53 88.3"
     id="polygon855" />
  <polygon
     class="cls-4"
     points="348.4 81.39 357.75 75.56 353.83 81.13 348.4 81.39"
     id="polygon859" />
  <polyline
     class="cls-6"
     points="267.57 203.23 357.64 158.04 357.64 77.67"
     id="polyline869" />
  <polyline
     class="cls-6"
     points="87.72 126.19 87.72 238.13 267.57 203.23"
     id="polyline871" />
  <line
     class="cls-2"
     x1="267.57"
     y1="203.23"
     x2="95.17"
     y2="129.38"
     id="line873" />
  <polygon
     points="101.85 126.26 95.77 129.64 97.51 136.38 87.72 126.19 101.85 126.26"
     id="polygon875" />
  <polygon
     class="cls-3"
     points="99.94 126.75 88.92 126.71 95.19 129.39 99.94 126.75"
     id="polygon877" />
  <polygon
     class="cls-4"
     points="96.56 134.65 88.92 126.71 95.19 129.39 96.56 134.65"
     id="polygon879" />
  <g
     id="Eye">
    <g
       id="_Group_"
       data-name="&lt;Group&gt;">
      <path
         class="cls-7"
         d="M44.07,91.6c4.53,12.28,1.13,22.14-9.39,27.38-9.8-12.69-20.89-19.8-29.23-24.75l1.19.12C17.8,95.44,29.31,96.58,44.07,91.6Z"
         id="path881" />
      <path
         d="M34.68,119c10.52-5.24,13.92-15.1,9.39-27.38-14.76,5-26.27,3.84-37.43,2.75l-1.19-.12C13.79,99.18,24.88,106.29,34.68,119ZM46.17,90.85C51,104,47.24,115,36,120.8c1.18,1.62,2.35,3.3,3.47,5.09l-1.89,1.17C26.23,109,11.64,100.47,2,94.81L0,93.62a2.88,2.88,0,0,0,.56-1,3.28,3.28,0,0,0,.1-1.12c2.08.18,4.14.36,6.18.57,13.24,1.3,25.73,2.55,43.61-5.4l.9,2C49.58,89.55,47.86,90.23,46.17,90.85Z"
         id="path883" />
    </g>
    <path
       class="cls-8"
       d="M43.9,107.25c-1.68,4.57-5.4,7.42-8.3,6.35s-3.9-5.65-2.21-10.22S38.79,96,41.69,97,45.59,102.67,43.9,107.25Z"
       id="path886" />
    <path
       class="cls-9"
       d="M42.71,107.86a3.53,3.53,0,0,1-4.44,2.22,3.81,3.81,0,1,1,4.44-2.22Z"
       id="path888" />
  </g>
  <g
     inkscape:label=""
     transform="matrix(2.4,0,0,2.4,37.301888,-171.68435)"
     id="g936">
    <g
       id="g9912">
      <g
         style="fill:#000000;fill-opacity:1"
         id="g4434">
        <use
           xlink:href="#symbol7006"
           x="91.925003"
           y="81.962997"
           id="use271"
           width="100%"
           height="100%" />
      </g>
    </g>
  </g>
  <g
     inkscape:label=""
     transform="matrix(2.4,0,0,2.4,-159.82321,-74.137911)"
     id="g1003">
    <g
       id="g147">
      <g
         style="fill:#000000;fill-opacity:1"
         id="g7343">
        <use
           xlink:href="#symbol4594"
           x="91.925003"
           y="81.962997"
           id="use1622"
           width="100%"
           height="100%" />
      </g>
      <g
         style="fill:#000000;fill-opacity:1"
         id="g3101">
        <use
           xlink:href="#symbol3895"
           x="99.077003"
           y="83.457001"
           id="use3813"
           width="100%"
           height="100%" />
      </g>
    </g>
  </g>
  <g
     inkscape:label=""
     transform="matrix(2.4,0,0,2.4,141.62239,-119.5241)"
     id="g1091">
    <g
       id="g5411">
      <g
         style="fill:#000000;fill-opacity:1"
         id="g1759">
        <use
           xlink:href="#symbol3483"
           x="91.925003"
           y="81.962997"
           id="use6319"
           width="100%"
           height="100%" />
      </g>
      <g
         style="fill:#000000;fill-opacity:1"
         id="g5392">
        <use
           xlink:href="#symbol2513"
           x="99.077003"
           y="83.457001"
           id="use7400"
           width="100%"
           height="100%" />
      </g>
    </g>
  </g>
</svg>
