<?xml version="1.0" encoding="UTF-8" standalone="no"?>
<svg
   xmlns:dc="http://purl.org/dc/elements/1.1/"
   xmlns:cc="http://creativecommons.org/ns#"
   xmlns:rdf="http://www.w3.org/1999/02/22-rdf-syntax-ns#"
   xmlns:svg="http://www.w3.org/2000/svg"
   xmlns="http://www.w3.org/2000/svg"
   xmlns:xlink="http://www.w3.org/1999/xlink"
   xmlns:sodipodi="http://sodipodi.sourceforge.net/DTD/sodipodi-0.dtd"
   xmlns:inkscape="http://www.inkscape.org/namespaces/inkscape"
   id="Layer_1"
   data-name="Layer 1"
   viewBox="0 0 436.33 348.54"
   version="1.1"
   sodipodi:docname="BSSRDF.svg"
   inkscape:version="1.0.1 (3bc2e813f5, 2020-09-07)">
  <metadata
     id="metadata894">
    <rdf:RDF>
      <cc:Work
         rdf:about="">
        <dc:format>image/svg+xml</dc:format>
        <dc:type
           rdf:resource="http://purl.org/dc/dcmitype/StillImage" />
      </cc:Work>
    </rdf:RDF>
  </metadata>
  <sodipodi:namedview
     pagecolor="#ffffff"
     bordercolor="#666666"
     borderopacity="1"
     objecttolerance="10"
     gridtolerance="10"
     guidetolerance="10"
     inkscape:pageopacity="0"
     inkscape:pageshadow="2"
     inkscape:window-width="1920"
     inkscape:window-height="1017"
     id="namedview892"
     showgrid="false"
     inkscape:zoom="1.6432517"
     inkscape:cx="218.165"
     inkscape:cy="174.27"
     inkscape:window-x="1912"
     inkscape:window-y="-8"
     inkscape:window-maximized="1"
     inkscape:current-layer="Layer_1"
     inkscape:document-rotation="0" />
  <defs
     id="defs835">
    <style
       id="style833">.cls-1{fill:none;}.cls-1,.cls-2,.cls-3,.cls-6{stroke:#000;stroke-miterlimit:10;}.cls-2{fill:#999;opacity:0.5;}.cls-4{fill:#a6a6a6;}.cls-5{fill:#666;}.cls-6{fill:#fcee21;stroke-width:0.3px;}.cls-7{fill:#bbbdbf;}.cls-8{fill:#fff;}.cls-9{fill:#212121;}</style>
    <g
       id="g4146">
      <symbol
         overflow="visible"
         id="symbol1965">
        <path
           style="stroke:none;"
           d=""
           id="path2233" />
      </symbol>
      <symbol
         overflow="visible"
         id="symbol4784">
        <path
           style="stroke:none;"
           d="M 3.609375 -1.390625 C 3.859375 -1.859375 4 -2.34375 4 -2.515625 C 4 -2.734375 3.875 -2.953125 3.625 -2.953125 C 3 -2.953125 2.9375 -1.890625 2.921875 -1.625 C 2.90625 -1.46875 2.90625 -1.46875 2.890625 -1.453125 C 2.734375 -1.3125 2.3125 -1.015625 1.78125 -1.015625 C 1.125 -1.015625 0.75 -1.453125 0.75 -2 C 0.75 -2.3125 0.921875 -3.0625 1.609375 -4 C 1.703125 -4.109375 1.71875 -4.140625 1.71875 -4.21875 C 1.71875 -4.34375 1.625 -4.421875 1.515625 -4.421875 C 1.421875 -4.421875 1.359375 -4.359375 1.34375 -4.359375 C 1.296875 -4.3125 0.21875 -3.015625 0.21875 -1.578125 C 0.21875 -0.578125 0.734375 0.078125 1.578125 0.078125 C 2.28125 0.078125 2.84375 -0.40625 3.0625 -0.640625 C 3.1875 -0.34375 3.484375 0.078125 4.140625 0.078125 C 5 0.078125 5.765625 -0.546875 6.203125 -1.21875 C 6.8125 -2.171875 6.890625 -3.453125 6.890625 -3.59375 C 6.890625 -4.359375 6.4375 -4.515625 6.234375 -4.515625 C 5.859375 -4.515625 5.46875 -4.109375 5.46875 -3.765625 C 5.46875 -3.5 5.65625 -3.375 5.765625 -3.296875 C 6.015625 -3.125 6.234375 -2.890625 6.234375 -2.578125 C 6.234375 -1.90625 5.390625 -1.015625 4.34375 -1.015625 C 4.0625 -1.015625 3.78125 -1.09375 3.609375 -1.390625 Z M 3.609375 -1.390625 "
           id="path3621" />
      </symbol>
      <symbol
         overflow="visible"
         id="symbol5504">
        <path
           style="stroke:none;"
           d=""
           id="path6149" />
      </symbol>
      <symbol
         overflow="visible"
         id="symbol1555">
        <path
           style="stroke:none;"
           d="M 1.46875 -4.296875 C 1.46875 -4.5 1.296875 -4.703125 1.0625 -4.703125 C 0.859375 -4.703125 0.671875 -4.53125 0.671875 -4.296875 C 0.671875 -4.046875 0.875 -3.890625 1.0625 -3.890625 C 1.296875 -3.890625 1.46875 -4.0625 1.46875 -4.296875 Z M 0.40625 -3 L 0.40625 -2.75 C 0.84375 -2.75 0.90625 -2.703125 0.90625 -2.359375 L 0.90625 -0.546875 C 0.90625 -0.25 0.84375 -0.25 0.390625 -0.25 L 0.390625 0 C 0.40625 0 0.890625 -0.03125 1.171875 -0.03125 C 1.421875 -0.03125 1.671875 -0.015625 1.90625 0 L 1.90625 -0.25 C 1.5 -0.25 1.4375 -0.25 1.4375 -0.546875 L 1.4375 -3.078125 Z M 0.40625 -3 "
           id="path7297" />
      </symbol>
    </g>
    <g
       id="g2438">
      <symbol
         overflow="visible"
         id="symbol3523">
        <path
           style="stroke:none;"
           d=""
           id="path1004" />
      </symbol>
      <symbol
         overflow="visible"
         id="symbol8843">
        <path
           style="stroke:none;"
           d="M 3.609375 -1.390625 C 3.859375 -1.859375 4 -2.34375 4 -2.515625 C 4 -2.734375 3.875 -2.953125 3.625 -2.953125 C 3 -2.953125 2.9375 -1.890625 2.921875 -1.625 C 2.90625 -1.46875 2.90625 -1.46875 2.890625 -1.453125 C 2.734375 -1.3125 2.3125 -1.015625 1.78125 -1.015625 C 1.125 -1.015625 0.75 -1.453125 0.75 -2 C 0.75 -2.3125 0.921875 -3.0625 1.609375 -4 C 1.703125 -4.109375 1.71875 -4.140625 1.71875 -4.21875 C 1.71875 -4.34375 1.625 -4.421875 1.515625 -4.421875 C 1.421875 -4.421875 1.359375 -4.359375 1.34375 -4.359375 C 1.296875 -4.3125 0.21875 -3.015625 0.21875 -1.578125 C 0.21875 -0.578125 0.734375 0.078125 1.578125 0.078125 C 2.28125 0.078125 2.84375 -0.40625 3.0625 -0.640625 C 3.1875 -0.34375 3.484375 0.078125 4.140625 0.078125 C 5 0.078125 5.765625 -0.546875 6.203125 -1.21875 C 6.8125 -2.171875 6.890625 -3.453125 6.890625 -3.59375 C 6.890625 -4.359375 6.4375 -4.515625 6.234375 -4.515625 C 5.859375 -4.515625 5.46875 -4.109375 5.46875 -3.765625 C 5.46875 -3.5 5.65625 -3.375 5.765625 -3.296875 C 6.015625 -3.125 6.234375 -2.890625 6.234375 -2.578125 C 6.234375 -1.90625 5.390625 -1.015625 4.34375 -1.015625 C 4.0625 -1.015625 3.78125 -1.09375 3.609375 -1.390625 Z M 3.609375 -1.390625 "
           id="path6092" />
      </symbol>
      <symbol
         overflow="visible"
         id="symbol2661">
        <path
           style="stroke:none;"
           d=""
           id="path9214" />
      </symbol>
      <symbol
         overflow="visible"
         id="symbol6184">
        <path
           style="stroke:none;"
           d="M 3.6875 -1.484375 C 3.6875 -2.359375 2.9375 -3.109375 1.984375 -3.109375 C 1.015625 -3.109375 0.265625 -2.359375 0.265625 -1.484375 C 0.265625 -0.625 1.03125 0.0625 1.984375 0.0625 C 2.921875 0.0625 3.6875 -0.625 3.6875 -1.484375 Z M 1.984375 -0.15625 C 1.71875 -0.15625 1.34375 -0.234375 1.109375 -0.578125 C 0.921875 -0.859375 0.90625 -1.21875 0.90625 -1.546875 C 0.90625 -1.84375 0.90625 -2.265625 1.15625 -2.5625 C 1.328125 -2.765625 1.625 -2.90625 1.984375 -2.90625 C 2.390625 -2.90625 2.6875 -2.71875 2.84375 -2.5 C 3.03125 -2.234375 3.046875 -1.875 3.046875 -1.546875 C 3.046875 -1.21875 3.03125 -0.84375 2.828125 -0.5625 C 2.640625 -0.296875 2.328125 -0.15625 1.984375 -0.15625 Z M 1.984375 -0.15625 "
           id="path7243" />
      </symbol>
    </g>
    <g
       id="g10">
      <symbol
         overflow="visible"
         id="symbol3088">
        <path
           style="stroke:none;"
           d=""
           id="path8018" />
      </symbol>
      <symbol
         overflow="visible"
         id="symbol9288">
        <path
           style="stroke:none;"
           d="M 0.515625 1.28125 C 0.484375 1.421875 0.46875 1.4375 0.453125 1.453125 C 0.40625 1.46875 0.296875 1.46875 0.203125 1.46875 C 0.03125 1.46875 -0.15625 1.46875 -0.15625 1.75 C -0.15625 1.859375 -0.0625 1.9375 0.046875 1.9375 C 0.328125 1.9375 0.65625 1.90625 0.953125 1.90625 C 1.3125 1.90625 1.6875 1.9375 2.03125 1.9375 C 2.09375 1.9375 2.28125 1.9375 2.28125 1.640625 C 2.28125 1.46875 2.125 1.46875 2.03125 1.46875 C 1.890625 1.46875 1.71875 1.46875 1.59375 1.453125 L 2.03125 -0.28125 C 2.171875 -0.140625 2.5 0.078125 3.03125 0.078125 C 4.765625 0.078125 5.84375 -1.5 5.84375 -2.859375 C 5.84375 -4.09375 4.921875 -4.5 4.09375 -4.5 C 3.390625 -4.5 2.875 -4.109375 2.71875 -3.96875 C 2.328125 -4.5 1.671875 -4.5 1.5625 -4.5 C 1.203125 -4.5 0.90625 -4.296875 0.703125 -3.9375 C 0.453125 -3.53125 0.3125 -3 0.3125 -2.953125 C 0.3125 -2.8125 0.46875 -2.8125 0.5625 -2.8125 C 0.671875 -2.8125 0.703125 -2.8125 0.75 -2.859375 C 0.78125 -2.875 0.78125 -2.90625 0.84375 -3.15625 C 1.03125 -3.953125 1.265625 -4.140625 1.515625 -4.140625 C 1.625 -4.140625 1.75 -4.109375 1.75 -3.78125 C 1.75 -3.625 1.71875 -3.484375 1.6875 -3.34375 Z M 2.8125 -3.5 C 3.09375 -3.84375 3.5625 -4.140625 4.046875 -4.140625 C 4.671875 -4.140625 4.71875 -3.609375 4.71875 -3.390625 C 4.71875 -2.875 4.375 -1.640625 4.21875 -1.25 C 3.90625 -0.53125 3.421875 -0.28125 3.015625 -0.28125 C 2.421875 -0.28125 2.1875 -0.75 2.1875 -0.859375 L 2.203125 -1 Z M 2.8125 -3.5 "
           id="path1394" />
      </symbol>
      <symbol
         overflow="visible"
         id="symbol7324">
        <path
           style="stroke:none;"
           d=""
           id="path9279" />
      </symbol>
      <symbol
         overflow="visible"
         id="symbol4084">
        <path
           style="stroke:none;"
           d="M 3.6875 -1.484375 C 3.6875 -2.359375 2.9375 -3.109375 1.984375 -3.109375 C 1.015625 -3.109375 0.265625 -2.359375 0.265625 -1.484375 C 0.265625 -0.625 1.03125 0.0625 1.984375 0.0625 C 2.921875 0.0625 3.6875 -0.625 3.6875 -1.484375 Z M 1.984375 -0.15625 C 1.71875 -0.15625 1.34375 -0.234375 1.109375 -0.578125 C 0.921875 -0.859375 0.90625 -1.21875 0.90625 -1.546875 C 0.90625 -1.84375 0.90625 -2.265625 1.15625 -2.5625 C 1.328125 -2.765625 1.625 -2.90625 1.984375 -2.90625 C 2.390625 -2.90625 2.6875 -2.71875 2.84375 -2.5 C 3.03125 -2.234375 3.046875 -1.875 3.046875 -1.546875 C 3.046875 -1.21875 3.03125 -0.84375 2.828125 -0.5625 C 2.640625 -0.296875 2.328125 -0.15625 1.984375 -0.15625 Z M 1.984375 -0.15625 "
           id="path3624" />
      </symbol>
    </g>
    <g
       id="g9170">
      <symbol
         overflow="visible"
         id="symbol5301">
        <path
           style="stroke:none;"
           d=""
           id="path9540" />
      </symbol>
      <symbol
         overflow="visible"
         id="symbol4131">
        <path
           style="stroke:none;"
           d="M 0.515625 1.28125 C 0.484375 1.421875 0.46875 1.4375 0.453125 1.453125 C 0.40625 1.46875 0.296875 1.46875 0.203125 1.46875 C 0.03125 1.46875 -0.15625 1.46875 -0.15625 1.75 C -0.15625 1.859375 -0.0625 1.9375 0.046875 1.9375 C 0.328125 1.9375 0.65625 1.90625 0.953125 1.90625 C 1.3125 1.90625 1.6875 1.9375 2.03125 1.9375 C 2.09375 1.9375 2.28125 1.9375 2.28125 1.640625 C 2.28125 1.46875 2.125 1.46875 2.03125 1.46875 C 1.890625 1.46875 1.71875 1.46875 1.59375 1.453125 L 2.03125 -0.28125 C 2.171875 -0.140625 2.5 0.078125 3.03125 0.078125 C 4.765625 0.078125 5.84375 -1.5 5.84375 -2.859375 C 5.84375 -4.09375 4.921875 -4.5 4.09375 -4.5 C 3.390625 -4.5 2.875 -4.109375 2.71875 -3.96875 C 2.328125 -4.5 1.671875 -4.5 1.5625 -4.5 C 1.203125 -4.5 0.90625 -4.296875 0.703125 -3.9375 C 0.453125 -3.53125 0.3125 -3 0.3125 -2.953125 C 0.3125 -2.8125 0.46875 -2.8125 0.5625 -2.8125 C 0.671875 -2.8125 0.703125 -2.8125 0.75 -2.859375 C 0.78125 -2.875 0.78125 -2.90625 0.84375 -3.15625 C 1.03125 -3.953125 1.265625 -4.140625 1.515625 -4.140625 C 1.625 -4.140625 1.75 -4.109375 1.75 -3.78125 C 1.75 -3.625 1.71875 -3.484375 1.6875 -3.34375 Z M 2.8125 -3.5 C 3.09375 -3.84375 3.5625 -4.140625 4.046875 -4.140625 C 4.671875 -4.140625 4.71875 -3.609375 4.71875 -3.390625 C 4.71875 -2.875 4.375 -1.640625 4.21875 -1.25 C 3.90625 -0.53125 3.421875 -0.28125 3.015625 -0.28125 C 2.421875 -0.28125 2.1875 -0.75 2.1875 -0.859375 L 2.203125 -1 Z M 2.8125 -3.5 "
           id="path9743" />
      </symbol>
      <symbol
         overflow="visible"
         id="symbol8619">
        <path
           style="stroke:none;"
           d=""
           id="path5916" />
      </symbol>
      <symbol
         overflow="visible"
         id="symbol1630">
        <path
           style="stroke:none;"
           d="M 1.46875 -4.296875 C 1.46875 -4.5 1.296875 -4.703125 1.0625 -4.703125 C 0.859375 -4.703125 0.671875 -4.53125 0.671875 -4.296875 C 0.671875 -4.046875 0.875 -3.890625 1.0625 -3.890625 C 1.296875 -3.890625 1.46875 -4.0625 1.46875 -4.296875 Z M 0.40625 -3 L 0.40625 -2.75 C 0.84375 -2.75 0.90625 -2.703125 0.90625 -2.359375 L 0.90625 -0.546875 C 0.90625 -0.25 0.84375 -0.25 0.390625 -0.25 L 0.390625 0 C 0.40625 0 0.890625 -0.03125 1.171875 -0.03125 C 1.421875 -0.03125 1.671875 -0.015625 1.90625 0 L 1.90625 -0.25 C 1.5 -0.25 1.4375 -0.25 1.4375 -0.546875 L 1.4375 -3.078125 Z M 0.40625 -3 "
           id="path3092" />
      </symbol>
    </g>
  </defs>
  <title
     id="title837">BSSRDF</title>
  <polyline
     class="cls-1"
     points="122.47 273.51 131.04 283.53 150.03 271.29 177.03 275.51 188 270.87 202.35 264.12 225.13 274.24 271.96 259.9 297.7 236.69 289.26 229.94 312.88 223.62 305.92 212.56"
     id="polyline839" />
  <polygon
     class="cls-2"
     points="435.51 161.56 98.53 159.72 0.82 346.2 337.8 348.04 435.51 161.56"
     id="polygon841" />
  <circle
     class="cls-3"
     cx="121.09"
     cy="272.75"
     r="2.25"
     id="circle843" />
  <circle
     class="cls-3"
     cx="305.92"
     cy="212.56"
     r="2.25"
     id="circle845" />
  <line
     class="cls-1"
     x1="120.87"
     y1="272.56"
     x2="61"
     y2="143.63"
     id="line847" />
  <polygon
     points="68.06 145.77 61.27 144.22 58.07 150.41 57.58 136.28 68.06 145.77"
     id="polygon849" />
  <polygon
     class="cls-4"
     points="66.31 144.86 58.14 137.47 61.01 143.65 66.31 144.86"
     id="polygon851" />
  <polygon
     class="cls-5"
     points="58.51 148.48 58.14 137.47 61.01 143.65 58.51 148.48"
     id="polygon853" />
  <line
     class="cls-1"
     x1="305.11"
     y1="212.53"
     x2="344.66"
     y2="76"
     id="line855" />
  <polygon
     points="348.58 82.24 344.48 76.62 338.01 79.18 346.92 68.21 348.58 82.24"
     id="polygon857" />
  <polygon
     class="cls-4"
     points="347.86 80.41 346.55 69.47 344.66 76.02 347.86 80.41"
     id="polygon859" />
  <polygon
     class="cls-5"
     points="339.6 78.02 346.55 69.47 344.66 76.02 339.6 78.02"
     id="polygon861" />
  <polyline
     class="cls-6"
     points="354.45 28.56 349.5 37.02 352.82 27.8 346.4 35.2 351.37 26.75 343.69 32.85 350.13 25.46 341.47 30.04 349.15 23.95 339.79 26.87 348.46 22.3 338.73 23.44 348.09 20.54 338.31 19.88 348.05 18.75 338.56 16.3 348.33 16.98 339.45 12.83 348.94 15.29 340.98 9.58 349.85 13.75 343.07 6.67 351.02 12.39 345.66 4.19 352.43 11.28 348.66 2.23 354.01 10.44 351.98 0.85 355.73 9.91 355.49 0.11 357.51 9.7 359.07 0.02 359.3 9.82 362.61 0.6 361.04 10.27 365.99 1.81 362.66 11.03 369.08 3.63 364.12 12.08 371.79 5.98 365.36 13.38 374.02 8.79 366.33 14.88 375.69 11.96 367.02 16.53 376.76 15.39 367.39 18.29 377.17 18.95 367.44 20.08 376.93 22.53 367.15 21.85 376.03 26 366.54 23.54 374.51 29.25 365.63 25.09 372.42 32.16 364.46 26.44 369.82 34.64 363.05 27.55 366.82 36.6 361.47 28.39 363.51 37.98 359.76 28.92 360 38.72 357.97 29.13 356.41 38.81 356.19 29.01 352.87 38.23 354.45 28.56"
     id="polyline863" />
  <g
     id="Eye">
    <g
       id="_Group_"
       data-name="&lt;Group&gt;">
      <path
         class="cls-7"
         d="M51.3,88.41c-4.45,12.3-13.4,17.66-24.82,14.88.68-16-3.23-28.6-6.42-37.76.29.28.54.56.84.86C28.74,74.41,36.81,82.7,51.3,88.41Z"
         id="path881" />
      <path
         d="M26.48,103.29c11.42,2.78,20.37-2.58,24.82-14.88-14.49-5.71-22.56-14-30.4-22-.3-.3-.55-.58-.84-.86C23.25,74.69,27.16,87.27,26.48,103.29ZM53.39,89.18c-4.78,13.16-14.77,19.19-27,16.39-.14,2-.32,4-.62,6.12l-2.19-.32c2.91-21.14-2.74-37.08-6.48-47.62l-.75-2.2a2.85,2.85,0,0,0,1-.36,3.27,3.27,0,0,0,.81-.8c1.47,1.49,2.92,2.94,4.35,4.42,9.29,9.53,18,18.54,36.83,24l-.61,2.13C56.84,90.38,55.08,89.79,53.39,89.18Z"
         id="path883" />
    </g>
    <path
       class="cls-8"
       d="M41.09,100.26c-4.24,2.42-8.91,2.2-10.44-.49s.66-6.83,4.89-9.24S44.45,88.34,46,91,45.33,97.85,41.09,100.26Z"
       id="path886" />
    <path
       class="cls-9"
       d="M39.78,100a3.27,3.27,0,1,1-2.94-5.76A3.27,3.27,0,1,1,39.78,100Z"
       id="path888" />
  </g>
  <g
     inkscape:label=""
     transform="matrix(2,0,0,2,153.17243,-105.82435)"
     id="g942">
    <g
       id="g4283">
      <g
         style="fill:#000000;fill-opacity:1"
         id="g7635">
        <use
           xlink:href="#symbol4784"
           x="91.925003"
           y="81.962997"
           id="use1381"
           width="100%"
           height="100%" />
      </g>
      <g
         style="fill:#000000;fill-opacity:1"
         id="g5824">
        <use
           xlink:href="#symbol1555"
           x="99.077003"
           y="83.457001"
           id="use528"
           width="100%"
           height="100%" />
      </g>
    </g>
  </g>
  <g
     inkscape:label=""
     transform="matrix(2,0,0,2,-138.32279,-36.449711)"
     id="g1021">
    <g
       id="g3842">
      <g
         style="fill:#000000;fill-opacity:1"
         id="g2561">
        <use
           xlink:href="#symbol8843"
           x="91.925003"
           y="81.962997"
           id="use9897"
           width="100%"
           height="100%" />
      </g>
      <g
         style="fill:#000000;fill-opacity:1"
         id="g8427">
        <use
           xlink:href="#symbol6184"
           x="99.077003"
           y="83.457001"
           id="use1318"
           width="100%"
           height="100%" />
      </g>
    </g>
  </g>
  <g
     inkscape:label=""
     transform="matrix(2,0,0,2,-78.684938,125.42446)"
     id="g1115">
    <g
       id="g1892">
      <g
         style="fill:#000000;fill-opacity:1"
         id="g9622">
        <use
           xlink:href="#symbol9288"
           x="91.925003"
           y="81.962997"
           id="use366"
           width="100%"
           height="100%" />
      </g>
      <g
         style="fill:#000000;fill-opacity:1"
         id="g4384">
        <use
           xlink:href="#symbol4084"
           x="97.912003"
           y="83.457001"
           id="use6930"
           width="100%"
           height="100%" />
      </g>
    </g>
  </g>
  <g
     inkscape:label=""
     transform="matrix(2,0,0,2,97.185871,50.572873)"
     id="g1224">
    <g
       id="g5732">
      <g
         style="fill:#000000;fill-opacity:1"
         id="g6813">
        <use
           xlink:href="#symbol4131"
           x="91.925003"
           y="81.962997"
           id="use8791"
           width="100%"
           height="100%" />
      </g>
      <g
         style="fill:#000000;fill-opacity:1"
         id="g2735">
        <use
           xlink:href="#symbol1630"
           x="97.912003"
           y="83.457001"
           id="use4224"
           width="100%"
           height="100%" />
      </g>
    </g>
  </g>
</svg>
