<?xml version="1.0" encoding="UTF-8" standalone="no"?>
<svg
   xmlns:dc="http://purl.org/dc/elements/1.1/"
   xmlns:cc="http://creativecommons.org/ns#"
   xmlns:rdf="http://www.w3.org/1999/02/22-rdf-syntax-ns#"
   xmlns:svg="http://www.w3.org/2000/svg"
   xmlns="http://www.w3.org/2000/svg"
   xmlns:xlink="http://www.w3.org/1999/xlink"
   xmlns:sodipodi="http://sodipodi.sourceforge.net/DTD/sodipodi-0.dtd"
   xmlns:inkscape="http://www.inkscape.org/namespaces/inkscape"
   id="Layer_1"
   data-name="Layer 1"
   viewBox="0 0 435.51 360.54"
   version="1.1"
   sodipodi:docname="DifferentialsolidangleofdA.svg"
   inkscape:version="1.0.1 (3bc2e813f5, 2020-09-07)">
  <metadata
     id="metadata902">
    <rdf:RDF>
      <cc:Work
         rdf:about="">
        <dc:format>image/svg+xml</dc:format>
        <dc:type
           rdf:resource="http://purl.org/dc/dcmitype/StillImage" />
      </cc:Work>
    </rdf:RDF>
  </metadata>
  <sodipodi:namedview
     pagecolor="#ffffff"
     bordercolor="#666666"
     borderopacity="1"
     objecttolerance="10"
     gridtolerance="10"
     guidetolerance="10"
     inkscape:pageopacity="0"
     inkscape:pageshadow="2"
     inkscape:window-width="1920"
     inkscape:window-height="1017"
     id="namedview900"
     showgrid="false"
     inkscape:zoom="1.6463457"
     inkscape:cx="217.755"
     inkscape:cy="180.27"
     inkscape:window-x="1912"
     inkscape:window-y="-8"
     inkscape:window-maximized="1"
     inkscape:current-layer="Layer_1"
     inkscape:document-rotation="0" />
  <defs
     id="defs835">
    <style
       id="style833">.cls-1,.cls-2,.cls-3,.cls-7{fill:none;}.cls-1{stroke:#999;}.cls-1,.cls-2,.cls-3,.cls-6,.cls-7,.cls-8{stroke-miterlimit:10;}.cls-2,.cls-3,.cls-6,.cls-7,.cls-8{stroke:#000;}.cls-2{stroke-width:0.5px;}.cls-4{fill:#a6a6a6;}.cls-5{fill:#666;}.cls-7{stroke-dasharray:2;}.cls-8{fill:#999;opacity:0.5;}</style>
    <g
       id="g9654">
      <symbol
         overflow="visible"
         id="symbol2997">
        <path
           style="stroke:none;"
           d=""
           id="path2447" />
      </symbol>
      <symbol
         overflow="visible"
         id="symbol6562">
        <path
           style="stroke:none;"
           d="M 3.78125 -0.546875 L 3.78125 0.109375 L 5.25 0 L 5.25 -0.3125 C 4.5625 -0.3125 4.46875 -0.375 4.46875 -0.875 L 4.46875 -6.921875 L 3.046875 -6.8125 L 3.046875 -6.5 C 3.734375 -6.5 3.8125 -6.4375 3.8125 -5.9375 L 3.8125 -3.78125 C 3.53125 -4.140625 3.09375 -4.40625 2.5625 -4.40625 C 1.390625 -4.40625 0.34375 -3.421875 0.34375 -2.140625 C 0.34375 -0.875 1.3125 0.109375 2.453125 0.109375 C 3.09375 0.109375 3.53125 -0.234375 3.78125 -0.546875 Z M 3.78125 -3.21875 L 3.78125 -1.171875 C 3.78125 -1 3.78125 -0.984375 3.671875 -0.8125 C 3.375 -0.328125 2.9375 -0.109375 2.5 -0.109375 C 2.046875 -0.109375 1.6875 -0.375 1.453125 -0.75 C 1.203125 -1.15625 1.171875 -1.71875 1.171875 -2.140625 C 1.171875 -2.5 1.1875 -3.09375 1.46875 -3.546875 C 1.6875 -3.859375 2.0625 -4.1875 2.609375 -4.1875 C 2.953125 -4.1875 3.375 -4.03125 3.671875 -3.59375 C 3.78125 -3.421875 3.78125 -3.40625 3.78125 -3.21875 Z M 3.78125 -3.21875 "
           id="path9351" />
      </symbol>
      <symbol
         overflow="visible"
         id="symbol3538">
        <path
           style="stroke:none;"
           d=""
           id="path8416" />
      </symbol>
      <symbol
         overflow="visible"
         id="symbol1143">
        <path
           style="stroke:none;"
           d="M 1.78125 -1.140625 C 1.390625 -0.484375 1 -0.34375 0.5625 -0.3125 C 0.4375 -0.296875 0.34375 -0.296875 0.34375 -0.109375 C 0.34375 -0.046875 0.40625 0 0.484375 0 C 0.75 0 1.0625 -0.03125 1.328125 -0.03125 C 1.671875 -0.03125 2.015625 0 2.328125 0 C 2.390625 0 2.515625 0 2.515625 -0.1875 C 2.515625 -0.296875 2.4375 -0.3125 2.359375 -0.3125 C 2.140625 -0.328125 1.890625 -0.40625 1.890625 -0.65625 C 1.890625 -0.78125 1.953125 -0.890625 2.03125 -1.03125 L 2.796875 -2.296875 L 5.296875 -2.296875 C 5.3125 -2.09375 5.453125 -0.734375 5.453125 -0.640625 C 5.453125 -0.34375 4.9375 -0.3125 4.734375 -0.3125 C 4.59375 -0.3125 4.5 -0.3125 4.5 -0.109375 C 4.5 0 4.609375 0 4.640625 0 C 5.046875 0 5.46875 -0.03125 5.875 -0.03125 C 6.125 -0.03125 6.765625 0 7.015625 0 C 7.0625 0 7.1875 0 7.1875 -0.203125 C 7.1875 -0.3125 7.09375 -0.3125 6.953125 -0.3125 C 6.34375 -0.3125 6.34375 -0.375 6.3125 -0.671875 L 5.703125 -6.890625 C 5.6875 -7.09375 5.6875 -7.140625 5.515625 -7.140625 C 5.359375 -7.140625 5.3125 -7.0625 5.25 -6.96875 Z M 2.984375 -2.609375 L 4.9375 -5.90625 L 5.265625 -2.609375 Z M 2.984375 -2.609375 "
           id="path6796" />
      </symbol>
    </g>
    <g
       id="g2307">
      <symbol
         overflow="visible"
         id="symbol1368">
        <path
           style="stroke:none;"
           d=""
           id="path2402" />
      </symbol>
      <symbol
         overflow="visible"
         id="symbol6810">
        <path
           style="stroke:none;"
           d="M 3.78125 -0.546875 L 3.78125 0.109375 L 5.25 0 L 5.25 -0.3125 C 4.5625 -0.3125 4.46875 -0.375 4.46875 -0.875 L 4.46875 -6.921875 L 3.046875 -6.8125 L 3.046875 -6.5 C 3.734375 -6.5 3.8125 -6.4375 3.8125 -5.9375 L 3.8125 -3.78125 C 3.53125 -4.140625 3.09375 -4.40625 2.5625 -4.40625 C 1.390625 -4.40625 0.34375 -3.421875 0.34375 -2.140625 C 0.34375 -0.875 1.3125 0.109375 2.453125 0.109375 C 3.09375 0.109375 3.53125 -0.234375 3.78125 -0.546875 Z M 3.78125 -3.21875 L 3.78125 -1.171875 C 3.78125 -1 3.78125 -0.984375 3.671875 -0.8125 C 3.375 -0.328125 2.9375 -0.109375 2.5 -0.109375 C 2.046875 -0.109375 1.6875 -0.375 1.453125 -0.75 C 1.203125 -1.15625 1.171875 -1.71875 1.171875 -2.140625 C 1.171875 -2.5 1.1875 -3.09375 1.46875 -3.546875 C 1.6875 -3.859375 2.0625 -4.1875 2.609375 -4.1875 C 2.953125 -4.1875 3.375 -4.03125 3.671875 -3.59375 C 3.78125 -3.421875 3.78125 -3.40625 3.78125 -3.21875 Z M 3.78125 -3.21875 "
           id="path4686" />
      </symbol>
      <symbol
         overflow="visible"
         id="symbol9828">
        <path
           style="stroke:none;"
           d=""
           id="path206" />
      </symbol>
      <symbol
         overflow="visible"
         id="symbol9510">
        <path
           style="stroke:none;"
           d="M 3.609375 -1.390625 C 3.859375 -1.859375 4 -2.34375 4 -2.515625 C 4 -2.734375 3.875 -2.953125 3.625 -2.953125 C 3 -2.953125 2.9375 -1.890625 2.921875 -1.625 C 2.90625 -1.46875 2.90625 -1.46875 2.890625 -1.453125 C 2.734375 -1.3125 2.3125 -1.015625 1.78125 -1.015625 C 1.125 -1.015625 0.75 -1.453125 0.75 -2 C 0.75 -2.3125 0.921875 -3.0625 1.609375 -4 C 1.703125 -4.109375 1.71875 -4.140625 1.71875 -4.21875 C 1.71875 -4.34375 1.625 -4.421875 1.515625 -4.421875 C 1.421875 -4.421875 1.359375 -4.359375 1.34375 -4.359375 C 1.296875 -4.3125 0.21875 -3.015625 0.21875 -1.578125 C 0.21875 -0.578125 0.734375 0.078125 1.578125 0.078125 C 2.28125 0.078125 2.84375 -0.40625 3.0625 -0.640625 C 3.1875 -0.34375 3.484375 0.078125 4.140625 0.078125 C 5 0.078125 5.765625 -0.546875 6.203125 -1.21875 C 6.8125 -2.171875 6.890625 -3.453125 6.890625 -3.59375 C 6.890625 -4.359375 6.4375 -4.515625 6.234375 -4.515625 C 5.859375 -4.515625 5.46875 -4.109375 5.46875 -3.765625 C 5.46875 -3.5 5.65625 -3.375 5.765625 -3.296875 C 6.015625 -3.125 6.234375 -2.890625 6.234375 -2.578125 C 6.234375 -1.90625 5.390625 -1.015625 4.34375 -1.015625 C 4.0625 -1.015625 3.78125 -1.09375 3.609375 -1.390625 Z M 3.609375 -1.390625 "
           id="path3429" />
      </symbol>
    </g>
    <g
       id="g6611">
      <symbol
         overflow="visible"
         id="symbol5993">
        <path
           style="stroke:none;"
           d=""
           id="path912" />
      </symbol>
      <symbol
         overflow="visible"
         id="symbol8288">
        <path
           style="stroke:none;"
           d="M 4.53125 -4.984375 C 4.53125 -5.640625 4.359375 -7.03125 3.34375 -7.03125 C 1.953125 -7.03125 0.421875 -4.21875 0.421875 -1.9375 C 0.421875 -1 0.703125 0.109375 1.609375 0.109375 C 3.015625 0.109375 4.53125 -2.75 4.53125 -4.984375 Z M 1.46875 -3.625 C 1.640625 -4.25 1.84375 -5.046875 2.25 -5.765625 C 2.515625 -6.25 2.875 -6.8125 3.328125 -6.8125 C 3.8125 -6.8125 3.875 -6.171875 3.875 -5.609375 C 3.875 -5.109375 3.796875 -4.609375 3.5625 -3.625 Z M 3.46875 -3.296875 C 3.359375 -2.84375 3.15625 -2 2.765625 -1.28125 C 2.421875 -0.59375 2.046875 -0.109375 1.609375 -0.109375 C 1.28125 -0.109375 1.078125 -0.40625 1.078125 -1.328125 C 1.078125 -1.75 1.140625 -2.328125 1.390625 -3.296875 Z M 3.46875 -3.296875 "
           id="path3357" />
      </symbol>
    </g>
    <g
       id="g4315">
      <symbol
         overflow="visible"
         id="symbol3312">
        <path
           style="stroke:none;"
           d=""
           id="path6625" />
      </symbol>
      <symbol
         overflow="visible"
         id="symbol1400">
        <path
           style="stroke:none;"
           d="M 0.515625 1.28125 C 0.484375 1.421875 0.46875 1.4375 0.453125 1.453125 C 0.40625 1.46875 0.296875 1.46875 0.203125 1.46875 C 0.03125 1.46875 -0.15625 1.46875 -0.15625 1.75 C -0.15625 1.859375 -0.0625 1.9375 0.046875 1.9375 C 0.328125 1.9375 0.65625 1.90625 0.953125 1.90625 C 1.3125 1.90625 1.6875 1.9375 2.03125 1.9375 C 2.09375 1.9375 2.28125 1.9375 2.28125 1.640625 C 2.28125 1.46875 2.125 1.46875 2.03125 1.46875 C 1.890625 1.46875 1.71875 1.46875 1.59375 1.453125 L 2.03125 -0.28125 C 2.171875 -0.140625 2.5 0.078125 3.03125 0.078125 C 4.765625 0.078125 5.84375 -1.5 5.84375 -2.859375 C 5.84375 -4.09375 4.921875 -4.5 4.09375 -4.5 C 3.390625 -4.5 2.875 -4.109375 2.71875 -3.96875 C 2.328125 -4.5 1.671875 -4.5 1.5625 -4.5 C 1.203125 -4.5 0.90625 -4.296875 0.703125 -3.9375 C 0.453125 -3.53125 0.3125 -3 0.3125 -2.953125 C 0.3125 -2.8125 0.46875 -2.8125 0.5625 -2.8125 C 0.671875 -2.8125 0.703125 -2.8125 0.75 -2.859375 C 0.78125 -2.875 0.78125 -2.90625 0.84375 -3.15625 C 1.03125 -3.953125 1.265625 -4.140625 1.515625 -4.140625 C 1.625 -4.140625 1.75 -4.109375 1.75 -3.78125 C 1.75 -3.625 1.71875 -3.484375 1.6875 -3.34375 Z M 2.8125 -3.5 C 3.09375 -3.84375 3.5625 -4.140625 4.046875 -4.140625 C 4.671875 -4.140625 4.71875 -3.609375 4.71875 -3.390625 C 4.71875 -2.875 4.375 -1.640625 4.21875 -1.25 C 3.90625 -0.53125 3.421875 -0.28125 3.015625 -0.28125 C 2.421875 -0.28125 2.1875 -0.75 2.1875 -0.859375 L 2.203125 -1 Z M 2.8125 -3.5 "
           id="path562" />
      </symbol>
    </g>
    <g
       id="g632">
      <symbol
         overflow="visible"
         id="symbol125">
        <path
           style="stroke:none;"
           d=""
           id="path8138" />
      </symbol>
      <symbol
         overflow="visible"
         id="symbol6809">
        <path
           style="stroke:none;"
           d="M 2.796875 -3.75 C 2.65625 -4.25 2.109375 -4.5 1.5625 -4.5 C 1.203125 -4.5 0.921875 -4.296875 0.703125 -3.9375 C 0.453125 -3.53125 0.3125 -3 0.3125 -2.953125 C 0.3125 -2.8125 0.46875 -2.8125 0.5625 -2.8125 C 0.671875 -2.8125 0.703125 -2.8125 0.75 -2.859375 C 0.78125 -2.875 0.78125 -2.90625 0.84375 -3.15625 C 1.03125 -3.921875 1.25 -4.140625 1.515625 -4.140625 C 1.671875 -4.140625 1.75 -4.046875 1.75 -3.78125 C 1.75 -3.609375 1.703125 -3.453125 1.609375 -3.046875 C 1.53125 -2.765625 1.4375 -2.375 1.390625 -2.15625 L 1.03125 -0.75 C 1 -0.625 0.953125 -0.421875 0.953125 -0.359375 C 0.953125 -0.15625 1.109375 0.078125 1.421875 0.078125 C 1.9375 0.078125 2.046875 -0.375 2.125 -0.671875 C 2.21875 -1.046875 2.296875 -1.359375 2.40625 -1.796875 C 2.4375 -1.921875 2.6875 -2.953125 2.71875 -2.984375 C 2.71875 -3.046875 3 -3.484375 3.328125 -3.765625 C 3.609375 -3.984375 3.9375 -4.140625 4.359375 -4.140625 C 4.609375 -4.140625 4.859375 -4.046875 4.859375 -3.5625 C 4.859375 -2.984375 4.421875 -1.828125 4.234375 -1.328125 C 4.109375 -1.0625 4.09375 -0.984375 4.09375 -0.8125 C 4.09375 -0.234375 4.671875 0.078125 5.21875 0.078125 C 6.265625 0.078125 6.765625 -1.28125 6.765625 -1.46875 C 6.765625 -1.609375 6.625 -1.609375 6.53125 -1.609375 C 6.40625 -1.609375 6.34375 -1.609375 6.296875 -1.484375 C 5.96875 -0.375 5.4375 -0.28125 5.28125 -0.28125 C 5.203125 -0.28125 5.109375 -0.28125 5.109375 -0.484375 C 5.109375 -0.71875 5.203125 -0.96875 5.296875 -1.21875 C 5.46875 -1.625 5.921875 -2.796875 5.921875 -3.34375 C 5.921875 -4.265625 5.15625 -4.5 4.4375 -4.5 C 4.234375 -4.5 3.5 -4.5 2.796875 -3.75 Z M 2.796875 -3.75 "
           id="path4935" />
      </symbol>
    </g>
  </defs>
  <title
     id="title837">Differential solid angle of dA</title>
  <path
     class="cls-1"
     d="M357.76,265.21C357.76,231.4,295,204,217.61,204S77.46,231.4,77.46,265.21"
     id="path839" />
  <polygon
     class="cls-2"
     points="435.09 173.8 98.11 171.96 0.41 358.45 337.39 360.29 435.09 173.8"
     id="polygon841" />
  <line
     class="cls-3"
     x1="217.75"
     y1="265.74"
     x2="217.75"
     y2="100.29"
     id="line843" />
  <polygon
     points="223.26 105.2 217.75 100.94 212.25 105.2 217.75 92.19 223.26 105.2"
     id="polygon845" />
  <polygon
     class="cls-4"
     points="222.06 103.64 217.75 93.5 217.75 100.31 222.06 103.64"
     id="polygon847" />
  <polygon
     class="cls-5"
     points="213.46 103.64 217.75 93.5 217.75 100.31 213.46 103.64"
     id="polygon849" />
  <circle
     class="cls-6"
     cx="217.63"
     cy="265.45"
     r="2.25"
     id="circle851" />
  <path
     class="cls-3"
     d="M77.11,265.22a140.25,140.25,0,0,1,280.5,0"
     id="path857" />
  <path
     class="cls-3"
     d="M77.23,265.17c0,33.84,62.8,61.27,140.27,61.27S357.76,299,357.76,265.17"
     id="path859" />
  <line
     class="cls-7"
     x1="218.05"
     y1="264.62"
     x2="383.91"
     y2="15.06"
     id="line861" />
  <line
     class="cls-7"
     x1="217.22"
     y1="265.03"
     x2="367.04"
     y2="34.25"
     id="line863" />
  <line
     class="cls-7"
     x1="217.47"
     y1="265.6"
     x2="389.33"
     y2="49.23"
     id="line865" />
  <line
     class="cls-7"
     x1="216.81"
     y1="265.45"
     x2="408.15"
     y2="36.98"
     id="line867" />
  <polygon
     class="cls-8"
     points="384.29 14.99 408.81 37 389.3 49.75 367.04 33.75 384.29 14.99"
     id="polygon869" />
  <polygon
     class="cls-8"
     points="278.71 172.83 288.5 181.68 280.71 186.81 271.81 180.37 278.71 172.83"
     id="polygon871" />
  <line
     class="cls-3"
     x1="385.87"
     y1="32.85"
     x2="363.93"
     y2="60.65"
     id="line881" />
  <polygon
     points="362.9 54.84 364.25 60.24 369.82 60.3 359.91 65.74 362.9 54.84"
     id="polygon883" />
  <polygon
     class="cls-4"
     points="362.89 56.41 360.56 64.92 363.94 60.64 362.89 56.41"
     id="polygon885" />
  <polygon
     class="cls-5"
     points="368.29 60.68 360.56 64.92 363.94 60.64 368.29 60.68"
     id="polygon887" />
  <line
     class="cls-3"
     x1="385.62"
     y1="32.86"
     x2="372.32"
     y2="65.68"
     id="line889" />
  <polygon
     points="369.71 60.39 372.51 65.2 377.87 63.7 369.88 71.69 369.71 60.39"
     id="polygon891" />
  <polygon
     class="cls-4"
     points="370.13 61.91 370.28 70.72 372.32 65.67 370.13 61.91"
     id="polygon893" />
  <polygon
     class="cls-5"
     points="376.51 64.49 370.28 70.72 372.32 65.67 376.51 64.49"
     id="polygon895" />
  <g
     inkscape:label=""
     transform="matrix(2,0,0,2,214.66751,-141.76655)"
     id="g953">
    <g
       id="g8307">
      <g
         style="fill:#000000;fill-opacity:1"
         id="g6293">
        <use
           xlink:href="#symbol6562"
           x="91.925003"
           y="81.962997"
           id="use5068"
           width="100%"
           height="100%" />
      </g>
      <g
         style="fill:#000000;fill-opacity:1"
         id="g7984">
        <use
           xlink:href="#symbol1143"
           x="97.459999"
           y="81.962997"
           id="use1010"
           width="100%"
           height="100%" />
      </g>
    </g>
  </g>
  <g
     inkscape:label=""
     transform="matrix(2,0,0,2,106.54926,35.595965)"
     id="g1035">
    <g
       id="g2320">
      <g
         style="fill:#000000;fill-opacity:1"
         id="g5187">
        <use
           xlink:href="#symbol6810"
           x="91.925003"
           y="81.962997"
           id="use7264"
           width="100%"
           height="100%" />
      </g>
      <g
         style="fill:#000000;fill-opacity:1"
         id="g8785">
        <use
           xlink:href="#symbol9510"
           x="97.459999"
           y="81.962997"
           id="use9949"
           width="100%"
           height="100%" />
      </g>
    </g>
  </g>
  <g
     inkscape:label=""
     transform="matrix(2,0,0,2,166.07504,-79.811152)"
     id="g1126">
    <g
       id="g2689">
      <g
         style="fill:#000000;fill-opacity:1"
         id="g1184">
        <use
           xlink:href="#symbol8288"
           x="91.925003"
           y="81.962997"
           id="use4968"
           width="100%"
           height="100%" />
      </g>
    </g>
  </g>
  <g
     inkscape:label=""
     transform="matrix(2,0,0,2,27.586506,119.41797)"
     id="g1220">
    <g
       id="g4200">
      <g
         style="fill:#000000;fill-opacity:1"
         id="g4950">
        <use
           xlink:href="#symbol1400"
           x="91.925003"
           y="81.962997"
           id="use8501"
           width="100%"
           height="100%" />
      </g>
    </g>
  </g>
  <g
     inkscape:label=""
     transform="matrix(2,0,0,2,26.979094,-78.59634)"
     id="g1323">
    <g
       id="g849">
      <g
         style="fill:#000000;fill-opacity:1"
         id="g4498">
        <use
           xlink:href="#symbol6809"
           x="91.925003"
           y="81.962997"
           id="use8801"
           width="100%"
           height="100%" />
      </g>
    </g>
  </g>
</svg>
