<?xml version="1.0" encoding="UTF-8" standalone="no"?>
<!-- Created with Inkscape (http://www.inkscape.org/) -->

<svg
   width="90mm"
   height="85mm"
   viewBox="-5 -5 90 85"
   version="1.1"
   id="svg5"
   sodipodi:docname="InverseSquareLaw.svg"
   inkscape:version="1.2.2 (732a01da63, 2022-12-09)"
   xmlns:inkscape="http://www.inkscape.org/namespaces/inkscape"
   xmlns:sodipodi="http://sodipodi.sourceforge.net/DTD/sodipodi-0.dtd"
   xmlns:xlink="http://www.w3.org/1999/xlink"
   xmlns="http://www.w3.org/2000/svg"
   xmlns:svg="http://www.w3.org/2000/svg">
  <sodipodi:namedview
     id="namedview7"
     pagecolor="#ffffff"
     bordercolor="#666666"
     borderopacity="1.0"
     inkscape:showpageshadow="2"
     inkscape:pageopacity="0.0"
     inkscape:pagecheckerboard="0"
     inkscape:deskcolor="#d1d1d1"
     inkscape:document-units="mm"
     showgrid="false"
     inkscape:zoom="1.6819304"
     inkscape:cx="118.91098"
     inkscape:cy="155.17883"
     inkscape:window-width="2560"
     inkscape:window-height="1494"
     inkscape:window-x="-11"
     inkscape:window-y="-11"
     inkscape:window-maximized="1"
     inkscape:current-layer="layer1" />
  <defs
     id="defs2">
    <linearGradient
       inkscape:collect="always"
       id="linearGradient4855">
      <stop
         style="stop-color:#efffb9;stop-opacity:0.80000001;"
         offset="0"
         id="stop4851" />
      <stop
         style="stop-color:#fcfff5;stop-opacity:0.69999999;"
         offset="1"
         id="stop4853" />
    </linearGradient>
    <marker
       style="overflow:visible"
       id="Arrow1L"
       refX="0"
       refY="0"
       orient="auto-start-reverse"
       inkscape:stockid="Arrow1L"
       markerWidth="8.75"
       markerHeight="5"
       viewBox="0 0 8.75 5"
       inkscape:isstock="true"
       inkscape:collect="always"
       preserveAspectRatio="xMidYMid">
      <path
         style="fill:context-stroke;fill-rule:evenodd;stroke:none"
         d="M 0,0 5,-5 -12.5,0 5,5 Z"
         id="arrow1L"
         transform="scale(-0.5)" />
    </marker>
    <linearGradient
       inkscape:collect="always"
       xlink:href="#linearGradient4855"
       id="linearGradient4857"
       x1="122.54396"
       y1="91.318062"
       x2="116.50192"
       y2="138.28741"
       gradientUnits="userSpaceOnUse" />
    <clipPath
       id="clipPath9724">
      <path
         clip-rule="nonzero"
         d="M 0,0 H 6 V 6.917969 H 0 Z m 0,0"
         id="path2653" />
    </clipPath>
    <clipPath
       id="clipPath9145">
      <path
         clip-rule="nonzero"
         d="m 6,0 h 7.730469 V 6.917969 H 6 Z m 0,0"
         id="path4089" />
    </clipPath>
    <clipPath
       id="clipPath6787">
      <path
         clip-rule="nonzero"
         d="M 0,0 H 4.953125 V 6.917969 H 0 Z m 0,0"
         id="path2728" />
    </clipPath>
    <clipPath
       id="clipPath2981">
      <path
         clip-rule="nonzero"
         d="M 0,0 H 4.769531 V 4.289063 H 0 Z m 0,0"
         id="path660" />
    </clipPath>
    <clipPath
       id="clipPath2294">
      <path
         clip-rule="nonzero"
         d="M 0,0 H 6 V 6.917969 H 0 Z m 0,0"
         id="path7728" />
    </clipPath>
    <clipPath
       id="clipPath6803">
      <path
         clip-rule="nonzero"
         d="m 5,0 h 8 V 6.917969 H 5 Z m 0,0"
         id="path8224" />
    </clipPath>
    <clipPath
       id="clipPath7431">
      <path
         clip-rule="nonzero"
         d="M 0,0 H 5 V 6.808594 H 0 Z m 0,0"
         id="path3812" />
    </clipPath>
    <clipPath
       id="clipPath8466">
      <path
         clip-rule="nonzero"
         d="M 0,0 H 7 V 4.429688 H 0 Z m 0,0"
         id="path1908" />
    </clipPath>
  </defs>
  <g
     inkscape:label="图层 1"
     inkscape:groupmode="layer"
     id="layer1"
     transform="translate(-65.843194,-77.915051)">
    <g
       id="g2512"
       transform="matrix(1.0013969,0,-0.62074972,0.62074972,74.752842,69.5479)"
       style="stroke-width:0.634174;stroke-dasharray:none">
      <rect
         style="display:inline;fill:#ffffff;fill-opacity:1;stroke:#000000;stroke-width:0.400225;stroke-dasharray:none;stroke-opacity:1"
         id="rect2294"
         width="50.487782"
         height="50.487782"
         x="77.994453"
         y="89.163414" />
      <circle
         style="display:inline;fill:#fcfff5;fill-opacity:1;stroke:#000000;stroke-width:0.380505;stroke-dasharray:none;stroke-opacity:1"
         id="path2296"
         cx="103.23835"
         cy="114.4073"
         r="8.9480648" />
    </g>
    <path
       style="fill:none;fill-opacity:1;stroke:#000000;stroke-width:0.3;stroke-dasharray:none;stroke-opacity:1"
       id="path9868"
       sodipodi:type="arc"
       sodipodi:cx="107.1171"
       sodipodi:cy="140.56619"
       sodipodi:rx="10.728656"
       sodipodi:ry="10.728656"
       sodipodi:start="4.7076433"
       sodipodi:end="5.0100456"
       sodipodi:arc-type="arc"
       d="m 107.06619,129.83766 a 10.728656,10.728656 0 0 1 3.19742,0.47165"
       sodipodi:open="true"
       transform="translate(-1.979999e-6)" />
    <path
       style="display:inline;fill:none;stroke:#000000;stroke-width:0.5;stroke-linecap:butt;stroke-linejoin:miter;stroke-dasharray:none;stroke-opacity:1;marker-end:url(#Arrow1L)"
       d="M 107.1171,140.5662 V 85.205618"
       id="path2676"
       sodipodi:nodetypes="cc" />
    <path
       style="display:inline;fill:none;stroke:#000000;stroke-width:0.5;stroke-linecap:butt;stroke-linejoin:miter;stroke-dasharray:none;stroke-opacity:1"
       d="M 107.1171,140.5662 122.54396,91.31806"
       id="path2676-2"
       sodipodi:nodetypes="cc" />
    <path
       style="display:inline;fill:url(#linearGradient4857);fill-opacity:1;stroke:#000000;stroke-width:0.265;stroke-linecap:butt;stroke-linejoin:miter;stroke-dasharray:none;stroke-opacity:1"
       d="m 96.760656,142.55802 25.783304,-51.23996 -4.92132,46.72691"
       id="path2889" />
    <path
       style="display:inline;fill:none;stroke:#000000;stroke-width:0.5;stroke-linecap:butt;stroke-linejoin:miter;stroke-dasharray:none;stroke-opacity:1"
       d="M 107.1171,126.59454 V 110.76418"
       id="path2676-7"
       sodipodi:nodetypes="cc" />
    <g
       inkscape:label=""
       transform="matrix(1.5,0,0,1.5,121.58775,107.99271)"
       id="g8999">
      <g
         clip-path="url(#clipPath9724)"
         id="g24"
         transform="matrix(0.352778,0,0,0.352778,-0.121267,0.039952)">
        <g
           fill="#000000"
           fill-opacity="1"
           id="g22">
          <g
             id="use20"
             transform="translate(0,6.9180002)">
            <path
               d="m 3.78125,-0.546875 v 0.65625 L 5.25,0 v -0.3125 c -0.6875,0 -0.78125,-0.0625 -0.78125,-0.5625 V -6.921875 L 3.046875,-6.8125 V -6.5 c 0.6875,0 0.765625,0.0625 0.765625,0.5625 v 2.15625 c -0.28125,-0.359375 -0.71875,-0.625 -1.25,-0.625 -1.171875,0 -2.21875,0.984375 -2.21875,2.265625 0,1.265625 0.96875,2.25 2.109375,2.25 0.640625,0 1.078125,-0.34375 1.328125,-0.65625 z m 0,-2.671875 v 2.046875 c 0,0.171875 0,0.1875 -0.109375,0.359375 C 3.375,-0.328125 2.9375,-0.109375 2.5,-0.109375 2.046875,-0.109375 1.6875,-0.375 1.453125,-0.75 1.203125,-1.15625 1.171875,-1.71875 1.171875,-2.140625 1.171875,-2.5 1.1875,-3.09375 1.46875,-3.546875 1.6875,-3.859375 2.0625,-4.1875 2.609375,-4.1875 c 0.34375,0 0.765625,0.15625 1.0625,0.59375 0.109375,0.171875 0.109375,0.1875 0.109375,0.375 z m 0,0"
               id="path36" />
          </g>
        </g>
      </g>
      <g
         clip-path="url(#clipPath9145)"
         id="g30"
         transform="matrix(0.352778,0,0,0.352778,-0.121267,0.039952)">
        <g
           fill="#000000"
           fill-opacity="1"
           id="g28">
          <g
             id="use26"
             transform="translate(5.5349998,6.9180002)">
            <path
               d="m 5.03125,-0.625 c 0.1875,-0.40625 0.484375,-0.828125 1.375,-1.78125 C 7.015625,-3.0625 7.828125,-4 7.828125,-5 c 0,-1.078125 -0.921875,-2.03125 -2.515625,-2.03125 -1.78125,0 -3.703125,1.296875 -3.703125,3.0625 0,0.5 0.109375,0.890625 0.4375,1.65625 C 2.328125,-1.640625 2.5,-1.21875 2.5,-0.625 H 1.640625 c -0.21875,0 -0.46875,-0.015625 -0.53125,-0.046875 C 1.0625,-0.703125 1.0625,-1.03125 1.0625,-1.203125 c 0,-0.25 0,-0.265625 -0.015625,-0.28125 0,-0.0625 -0.0625,-0.09375 -0.109375,-0.09375 -0.125,0 -0.125,0.078125 -0.125,0.140625 -0.015625,0.125 -0.015625,0.765625 -0.015625,0.921875 V -0.125 C 0.8125,0 0.875,0 1.078125,0 h 1.28125 C 2.578125,0 2.59375,-0.015625 2.625,-0.0625 2.640625,-0.09375 2.75,-0.453125 2.75,-1.09375 c 0,-0.140625 0,-0.484375 -0.09375,-1.234375 -0.109375,-0.75 -0.109375,-1.015625 -0.109375,-1.234375 0,-2.265625 1.65625,-3.25 2.78125,-3.25 0.75,0 1.5625,0.4375 1.5625,1.578125 0,0.984375 -0.59375,1.9375 -1.203125,2.90625 -0.234375,0.390625 -0.546875,0.875 -0.75,1.28125 -0.25,0.53125 -0.328125,0.875 -0.328125,0.921875 C 4.609375,0 4.6875,0 4.890625,0 h 1.28125 c 0.21875,0 0.234375,-0.015625 0.3125,-0.15625 0.078125,-0.171875 0.625,-1.25 0.625,-1.3125 0,-0.0625 -0.03125,-0.109375 -0.125,-0.109375 -0.03125,0 -0.0625,0.015625 -0.09375,0.03125 0,0.015625 -0.015625,0.03125 -0.09375,0.1875 -0.015625,0.03125 -0.203125,0.390625 -0.3125,0.5625 -0.0625,0.125 -0.109375,0.171875 -0.6875,0.171875 z m 0,0"
               id="path40" />
          </g>
        </g>
      </g>
    </g>
    <g
       inkscape:label=""
       transform="matrix(1.5,0,0,1.5,107.88261,125.38554)"
       id="g9092">
      <g
         clip-path="url(#clipPath6787)"
         id="g17"
         transform="matrix(0.352778,0,0,0.352778,-0.148828,0.039952)">
        <g
           fill="#000000"
           fill-opacity="1"
           id="g15">
          <g
             id="use13"
             transform="translate(0,6.9180002)">
            <path
               d="m 4.53125,-4.984375 c 0,-0.65625 -0.171875,-2.046875 -1.1875,-2.046875 -1.390625,0 -2.921875,2.8125 -2.921875,5.09375 0,0.9375 0.28125,2.046875 1.1875,2.046875 1.40625,0 2.921875,-2.859375 2.921875,-5.09375 z M 1.46875,-3.625 C 1.640625,-4.25 1.84375,-5.046875 2.25,-5.765625 2.515625,-6.25 2.875,-6.8125 3.328125,-6.8125 c 0.484375,0 0.546875,0.640625 0.546875,1.203125 0,0.5 -0.078125,1 -0.3125,1.984375 z m 2,0.328125 C 3.359375,-2.84375 3.15625,-2 2.765625,-1.28125 c -0.34375,0.6875 -0.71875,1.171875 -1.15625,1.171875 -0.328125,0 -0.53125,-0.296875 -0.53125,-1.21875 0,-0.421875 0.0625,-1 0.3125,-1.96875 z m 0,0"
               id="path23" />
          </g>
        </g>
      </g>
    </g>
    <g
       inkscape:label=""
       transform="matrix(1.5,0,0,1.5,114.83053,118.36067)"
       id="g9197">
      <g
         clip-path="url(#clipPath2981)"
         id="g9195"
         transform="matrix(0.352778,0,0,0.352778,-0.104731,0.0413632)">
        <g
           fill="#000000"
           fill-opacity="1"
           id="g9193">
          <g
             id="g9191"
             transform="translate(0,4.289)">
            <path
               d="m 0.875,-0.59375 c -0.03125,0.15625 -0.09375,0.390625 -0.09375,0.4375 0,0.171875 0.140625,0.265625 0.296875,0.265625 0.125,0 0.296875,-0.078125 0.375,-0.28125 C 1.46875,-0.203125 1.796875,-1.5625 1.84375,-1.75 c 0.078125,-0.328125 0.265625,-1.015625 0.3125,-1.296875 0.046875,-0.125 0.328125,-0.59375 0.5625,-0.8125 0.078125,-0.0625 0.375,-0.328125 0.796875,-0.328125 0.265625,0 0.40625,0.125 0.421875,0.125 -0.296875,0.046875 -0.515625,0.28125 -0.515625,0.546875 0,0.15625 0.109375,0.34375 0.375,0.34375 0.265625,0 0.546875,-0.234375 0.546875,-0.59375 0,-0.34375 -0.3125,-0.640625 -0.828125,-0.640625 C 2.875,-4.40625 2.4375,-3.921875 2.25,-3.640625 2.15625,-4.09375 1.796875,-4.40625 1.328125,-4.40625 0.875,-4.40625 0.6875,-4.015625 0.59375,-3.84375 0.421875,-3.5 0.296875,-2.90625 0.296875,-2.875 c 0,0.109375 0.09375,0.109375 0.109375,0.109375 0.109375,0 0.109375,-0.015625 0.171875,-0.234375 0.171875,-0.703125 0.375,-1.1875 0.734375,-1.1875 0.15625,0 0.296875,0.078125 0.296875,0.453125 0,0.21875 -0.03125,0.328125 -0.15625,0.84375 z m 0,0"
               id="path9189" />
          </g>
        </g>
      </g>
    </g>
    <g
       inkscape:label=""
       transform="matrix(1.5,0,0,1.5,98.449573,147.44191)"
       id="g9326">
      <g
         clip-path="url(#clipPath2294)"
         id="g9316"
         transform="matrix(0.352778,0,0,0.352778,-0.121267,0.0785371)">
        <g
           fill="#000000"
           fill-opacity="1"
           id="g9314">
          <g
             id="g9312"
             transform="translate(0,6.9180002)">
            <path
               d="m 3.78125,-0.546875 v 0.65625 L 5.25,0 v -0.3125 c -0.6875,0 -0.78125,-0.0625 -0.78125,-0.5625 V -6.921875 L 3.046875,-6.8125 V -6.5 c 0.6875,0 0.765625,0.0625 0.765625,0.5625 v 2.15625 c -0.28125,-0.359375 -0.71875,-0.625 -1.25,-0.625 -1.171875,0 -2.21875,0.984375 -2.21875,2.265625 0,1.265625 0.96875,2.25 2.109375,2.25 0.640625,0 1.078125,-0.34375 1.328125,-0.65625 z m 0,-2.671875 v 2.046875 c 0,0.171875 0,0.1875 -0.109375,0.359375 C 3.375,-0.328125 2.9375,-0.109375 2.5,-0.109375 2.046875,-0.109375 1.6875,-0.375 1.453125,-0.75 1.203125,-1.15625 1.171875,-1.71875 1.171875,-2.140625 1.171875,-2.5 1.1875,-3.09375 1.46875,-3.546875 1.6875,-3.859375 2.0625,-4.1875 2.609375,-4.1875 c 0.34375,0 0.765625,0.15625 1.0625,0.59375 0.109375,0.171875 0.109375,0.1875 0.109375,0.375 z m 0,0"
               id="path9310" />
          </g>
        </g>
      </g>
      <g
         clip-path="url(#clipPath6803)"
         id="g9324"
         transform="matrix(0.352778,0,0,0.352778,-0.121267,0.0785371)">
        <g
           fill="#000000"
           fill-opacity="1"
           id="g9322">
          <g
             id="g9320"
             transform="translate(5.5349998,6.9180002)">
            <path
               d="M 1.78125,-1.140625 C 1.390625,-0.484375 1,-0.34375 0.5625,-0.3125 0.4375,-0.296875 0.34375,-0.296875 0.34375,-0.109375 0.34375,-0.046875 0.40625,0 0.484375,0 0.75,0 1.0625,-0.03125 1.328125,-0.03125 c 0.34375,0 0.6875,0.03125 1,0.03125 0.0625,0 0.1875,0 0.1875,-0.1875 0,-0.109375 -0.078125,-0.125 -0.15625,-0.125 -0.21875,-0.015625 -0.46875,-0.09375 -0.46875,-0.34375 0,-0.125 0.0625,-0.234375 0.140625,-0.375 l 0.765625,-1.265625 h 2.5 c 0.015625,0.203125 0.15625,1.5625 0.15625,1.65625 0,0.296875 -0.515625,0.328125 -0.71875,0.328125 C 4.59375,-0.3125 4.5,-0.3125 4.5,-0.109375 4.5,0 4.609375,0 4.640625,0 5.046875,0 5.46875,-0.03125 5.875,-0.03125 6.125,-0.03125 6.765625,0 7.015625,0 7.0625,0 7.1875,0 7.1875,-0.203125 7.1875,-0.3125 7.09375,-0.3125 6.953125,-0.3125 6.34375,-0.3125 6.34375,-0.375 6.3125,-0.671875 l -0.609375,-6.21875 c -0.015625,-0.203125 -0.015625,-0.25 -0.1875,-0.25 -0.15625,0 -0.203125,0.078125 -0.265625,0.171875 z M 2.984375,-2.609375 4.9375,-5.90625 5.265625,-2.609375 Z m 0,0"
               id="path9318" />
          </g>
        </g>
      </g>
    </g>
    <g
       inkscape:label=""
       transform="matrix(1.5,0,0,1.5,124.54296,90.118746)"
       id="g9477">
      <g
         clip-path="url(#clipPath7431)"
         id="g9475"
         transform="matrix(0.352778,0,0,0.352778,-0.121267,0.00158747)">
        <g
           fill="#000000"
           fill-opacity="1"
           id="g9473">
          <g
             id="g9471"
             transform="translate(0,6.8080001)">
            <path
               d="M 3.734375,-6.046875 C 3.8125,-6.40625 3.84375,-6.5 4.640625,-6.5 c 0.234375,0 0.3125,0 0.3125,-0.1875 0,-0.125 -0.109375,-0.125 -0.140625,-0.125 -0.296875,0 -1.03125,0.03125 -1.328125,0.03125 -0.296875,0 -1.015625,-0.03125 -1.328125,-0.03125 -0.0625,0 -0.1875,0 -0.1875,0.203125 C 1.96875,-6.5 2.046875,-6.5 2.25,-6.5 c 0.40625,0 0.6875,0 0.6875,0.1875 0,0.046875 0,0.078125 -0.03125,0.15625 l -1.34375,5.375 c -0.09375,0.375 -0.109375,0.46875 -0.90625,0.46875 -0.234375,0 -0.3125,0 -0.3125,0.203125 C 0.34375,0 0.453125,0 0.484375,0 0.78125,0 1.5,-0.03125 1.796875,-0.03125 2.09375,-0.03125 2.828125,0 3.125,0 c 0.078125,0 0.203125,0 0.203125,-0.1875 0,-0.125 -0.078125,-0.125 -0.296875,-0.125 -0.1875,0 -0.234375,0 -0.421875,-0.015625 -0.21875,-0.015625 -0.25,-0.0625 -0.25,-0.171875 0,-0.078125 0.015625,-0.15625 0.03125,-0.234375 z m 0,0"
               id="path9469" />
          </g>
        </g>
      </g>
    </g>
    <g
       inkscape:label=""
       transform="matrix(1.5,0,0,1.5,108.3671,139.58154)"
       id="g9629">
      <g
         fill="#000000"
         fill-opacity="1"
         id="g12"
         transform="matrix(0.352778,0,0,0.352778,-0.143316,0.00158747)">
        <g
           id="use10"
           transform="translate(0,6.8080001)">
          <path
             d="M 3.015625,-3.15625 H 4.71875 c 1.40625,0 2.796875,-1.03125 2.796875,-2.140625 0,-0.78125 -0.65625,-1.515625 -1.96875,-1.515625 h -3.21875 c -0.1875,0 -0.296875,0 -0.296875,0.1875 0,0.125 0.078125,0.125 0.28125,0.125 0.125,0 0.3125,0.015625 0.421875,0.015625 0.171875,0.03125 0.21875,0.046875 0.21875,0.171875 0,0.03125 0,0.0625 -0.03125,0.1875 l -1.34375,5.34375 c -0.09375,0.390625 -0.109375,0.46875 -0.90625,0.46875 -0.15625,0 -0.265625,0 -0.265625,0.1875 C 0.40625,0 0.515625,0 0.546875,0 0.828125,0 1.53125,-0.03125 1.8125,-0.03125 c 0.21875,0 0.4375,0.015625 0.640625,0.015625 0.21875,0 0.4375,0.015625 0.640625,0.015625 0.078125,0 0.203125,0 0.203125,-0.203125 0,-0.109375 -0.09375,-0.109375 -0.28125,-0.109375 -0.359375,0 -0.640625,0 -0.640625,-0.171875 0,-0.0625 0.015625,-0.109375 0.03125,-0.171875 z M 3.734375,-6.125 C 3.828125,-6.46875 3.84375,-6.5 4.28125,-6.5 h 0.953125 c 0.828125,0 1.359375,0.265625 1.359375,0.953125 0,0.390625 -0.203125,1.25 -0.59375,1.609375 -0.5,0.453125 -1.09375,0.53125 -1.53125,0.53125 H 3.0625 Z m 0,0"
             id="path18" />
        </g>
      </g>
    </g>
    <g
       inkscape:label=""
       transform="matrix(1.5,0,0,1.5,105.17114,77.876951)"
       id="g9793">
      <g
         clip-path="url(#clipPath8466)"
         id="g9791"
         transform="matrix(0.352778,0,0,0.352778,-0.110243,0.0254)">
        <g
           fill="#000000"
           fill-opacity="1"
           id="g9789">
          <g
             id="g9787"
             transform="translate(0,4.428)">
            <path
               d="M 2.796875,-3.75 C 2.65625,-4.25 2.109375,-4.5 1.5625,-4.5 1.203125,-4.5 0.921875,-4.296875 0.703125,-3.9375 0.453125,-3.53125 0.3125,-3 0.3125,-2.953125 c 0,0.140625 0.15625,0.140625 0.25,0.140625 0.109375,0 0.140625,0 0.1875,-0.046875 C 0.78125,-2.875 0.78125,-2.90625 0.84375,-3.15625 1.03125,-3.921875 1.25,-4.140625 1.515625,-4.140625 c 0.15625,0 0.234375,0.09375 0.234375,0.359375 0,0.171875 -0.046875,0.328125 -0.140625,0.734375 C 1.53125,-2.765625 1.4375,-2.375 1.390625,-2.15625 L 1.03125,-0.75 C 1,-0.625 0.953125,-0.421875 0.953125,-0.359375 c 0,0.203125 0.15625,0.4375 0.46875,0.4375 0.515625,0 0.625,-0.453125 0.703125,-0.75 0.09375,-0.375 0.171875,-0.6875 0.28125,-1.125 0.03125,-0.125 0.28125,-1.15625 0.3125,-1.1875 0,-0.0625 0.28125,-0.5 0.609375,-0.78125 0.28125,-0.21875 0.609375,-0.375 1.03125,-0.375 0.25,0 0.5,0.09375 0.5,0.578125 0,0.578125 -0.4375,1.734375 -0.625,2.234375 -0.125,0.265625 -0.140625,0.34375 -0.140625,0.515625 0,0.578125 0.578125,0.890625 1.125,0.890625 1.046875,0 1.546875,-1.359375 1.546875,-1.546875 0,-0.140625 -0.140625,-0.140625 -0.234375,-0.140625 -0.125,0 -0.1875,0 -0.234375,0.125 C 5.96875,-0.375 5.4375,-0.28125 5.28125,-0.28125 c -0.078125,0 -0.171875,0 -0.171875,-0.203125 0,-0.234375 0.09375,-0.484375 0.1875,-0.734375 0.171875,-0.40625 0.625,-1.578125 0.625,-2.125 C 5.921875,-4.265625 5.15625,-4.5 4.4375,-4.5 4.234375,-4.5 3.5,-4.5 2.796875,-3.75 Z m 0,0"
               id="path9785" />
          </g>
        </g>
      </g>
    </g>
  </g>
</svg>
