<?xml version="1.0" encoding="UTF-8" standalone="no"?>
<!-- Created with Inkscape (http://www.inkscape.org/) -->

<svg
   width="84.900291mm"
   height="87.573349mm"
   viewBox="-3 -3 69.802298 72"
   version="1.1"
   id="svg5"
   inkscape:version="1.2.2 (732a01da63, 2022-12-09)"
   sodipodi:docname="ex-radiance.svg"
   xmlns:inkscape="http://www.inkscape.org/namespaces/inkscape"
   xmlns:sodipodi="http://sodipodi.sourceforge.net/DTD/sodipodi-0.dtd"
   xmlns:xlink="http://www.w3.org/1999/xlink"
   xmlns="http://www.w3.org/2000/svg"
   xmlns:svg="http://www.w3.org/2000/svg">
  <sodipodi:namedview
     id="namedview7"
     pagecolor="#ffffff"
     bordercolor="#666666"
     borderopacity="1.0"
     inkscape:showpageshadow="2"
     inkscape:pageopacity="0.0"
     inkscape:pagecheckerboard="0"
     inkscape:deskcolor="#d1d1d1"
     inkscape:document-units="mm"
     showgrid="false"
     showguides="true"
     inkscape:zoom="2.3786088"
     inkscape:cx="166.90428"
     inkscape:cy="142.9407"
     inkscape:window-width="2560"
     inkscape:window-height="1494"
     inkscape:window-x="-11"
     inkscape:window-y="-11"
     inkscape:window-maximized="1"
     inkscape:current-layer="layer1">
    <sodipodi:guide
       position="-10.878829,29.380882"
       orientation="-1,0"
       id="guide245"
       inkscape:locked="false"
       inkscape:label=""
       inkscape:color="rgb(0,134,229)" />
    <sodipodi:guide
       position="68.853885,29.380882"
       orientation="0,1"
       id="guide247"
       inkscape:locked="false"
       inkscape:label=""
       inkscape:color="rgb(0,134,229)" />
    <sodipodi:guide
       position="28.987528,-10.485475"
       orientation="-1,0"
       id="guide6149"
       inkscape:locked="false"
       inkscape:label=""
       inkscape:color="rgb(0,134,229)" />
    <sodipodi:guide
       position="28.987528,69.24724"
       orientation="0,1"
       id="guide8453"
       inkscape:locked="false"
       inkscape:label=""
       inkscape:color="rgb(0,134,229)" />
    <sodipodi:guide
       position="21.014257,69.24724"
       orientation="-1,0"
       id="guide9991"
       inkscape:locked="false"
       inkscape:label=""
       inkscape:color="rgb(0,134,229)" />
    <sodipodi:guide
       position="28.987528,61.273969"
       orientation="0,1"
       id="guide11525"
       inkscape:locked="false"
       inkscape:label=""
       inkscape:color="rgb(0,134,229)" />
  </sodipodi:namedview>
  <defs
     id="defs2">
    <marker
       style="overflow:visible"
       id="marker21484"
       refX="0"
       refY="0"
       orient="auto-start-reverse"
       inkscape:stockid="Arrow1L"
       markerWidth="3"
       markerHeight="1.7142857"
       viewBox="0 0 8.75 5"
       inkscape:isstock="true"
       inkscape:collect="always"
       preserveAspectRatio="xMidYMid">
      <path
         style="fill:context-stroke;fill-rule:evenodd;stroke:none"
         d="M 0,0 5,-5 -12.5,0 5,5 Z"
         id="path21482"
         transform="scale(-0.5)" />
    </marker>
    <marker
       style="overflow:visible"
       id="marker20350"
       refX="0"
       refY="0"
       orient="auto-start-reverse"
       inkscape:stockid="Arrow1L"
       markerWidth="7"
       markerHeight="4"
       viewBox="0 0 8.75 5"
       inkscape:isstock="true"
       inkscape:collect="always"
       preserveAspectRatio="xMidYMid">
      <path
         style="fill:context-stroke;fill-rule:evenodd;stroke:none"
         d="M 0,0 5,-5 -12.5,0 5,5 Z"
         id="path20348"
         transform="scale(-0.5)" />
    </marker>
    <linearGradient
       inkscape:collect="always"
       id="linearGradient16053">
      <stop
         style="stop-color:#e5ff80;stop-opacity:1;"
         offset="0"
         id="stop16049" />
      <stop
         style="stop-color:#e5ff80;stop-opacity:0;"
         offset="1"
         id="stop16051" />
    </linearGradient>
    <marker
       style="overflow:visible"
       id="Arrow1L"
       refX="0"
       refY="0"
       orient="auto-start-reverse"
       inkscape:stockid="Arrow1L"
       markerWidth="8.75"
       markerHeight="5"
       viewBox="0 0 8.75 5"
       inkscape:isstock="true"
       inkscape:collect="always"
       preserveAspectRatio="xMidYMid">
      <path
         style="fill:context-stroke;fill-rule:evenodd;stroke:none"
         d="M 0,0 5,-5 -12.5,0 5,5 Z"
         id="arrow1L"
         transform="scale(-0.5)" />
    </marker>
    <marker
       style="overflow:visible"
       id="Arrow1L-3"
       refX="0"
       refY="0"
       orient="auto-start-reverse"
       inkscape:stockid="Arrow1L"
       markerWidth="8.75"
       markerHeight="5"
       viewBox="0 0 8.75 5"
       inkscape:isstock="true"
       inkscape:collect="always"
       preserveAspectRatio="xMidYMid">
      <path
         style="fill:context-stroke;fill-rule:evenodd;stroke:none"
         d="M 0,0 5,-5 -12.5,0 5,5 Z"
         id="arrow1L-1"
         transform="scale(-0.5)" />
    </marker>
    <marker
       style="overflow:visible"
       id="Arrow1L-5"
       refX="0"
       refY="0"
       orient="auto-start-reverse"
       inkscape:stockid="Arrow1L"
       markerWidth="8.75"
       markerHeight="5"
       viewBox="0 0 8.75 5"
       inkscape:isstock="true"
       inkscape:collect="always"
       preserveAspectRatio="xMidYMid">
      <path
         style="fill:context-stroke;fill-rule:evenodd;stroke:none"
         d="M 0,0 5,-5 -12.5,0 5,5 Z"
         id="arrow1L-2"
         transform="scale(-0.5)" />
    </marker>
    <linearGradient
       inkscape:collect="always"
       xlink:href="#linearGradient16053"
       id="linearGradient16055"
       x1="385.06488"
       y1="309.42886"
       x2="507.88205"
       y2="309.42886"
       gradientUnits="userSpaceOnUse" />
    <marker
       style="overflow:visible"
       id="marker20350-7"
       refX="0"
       refY="0"
       orient="auto-start-reverse"
       inkscape:stockid="Arrow1L"
       markerWidth="3"
       markerHeight="1.7142857"
       viewBox="0 0 8.75 5"
       inkscape:isstock="true"
       inkscape:collect="always"
       preserveAspectRatio="xMidYMid">
      <path
         style="fill:context-stroke;fill-rule:evenodd;stroke:none"
         d="M 0,0 5,-5 -12.5,0 5,5 Z"
         id="path20348-3"
         transform="scale(-0.5)" />
    </marker>
    <clipPath
       id="clipPath8010">
      <path
         clip-rule="nonzero"
         d="M 0,0 H 6 V 6.917969 H 0 Z m 0,0"
         id="path8433" />
    </clipPath>
    <clipPath
       id="clipPath5606">
      <path
         clip-rule="nonzero"
         d="m 5,0 h 8 V 6.917969 H 5 Z m 0,0"
         id="path997" />
    </clipPath>
    <clipPath
       id="clipPath6215">
      <path
         clip-rule="nonzero"
         d="M 0,0 H 6 V 6.917969 H 0 Z m 0,0"
         id="path6962" />
    </clipPath>
    <clipPath
       id="clipPath1621">
      <path
         clip-rule="nonzero"
         d="m 6,0 h 7.730469 V 6.917969 H 6 Z m 0,0"
         id="path5530" />
    </clipPath>
    <clipPath
       id="clipPath626">
      <path
         clip-rule="nonzero"
         d="M 0,0 H 4.953125 V 6.917969 H 0 Z m 0,0"
         id="path919" />
    </clipPath>
    <clipPath
       id="clipPath4535">
      <path
         clip-rule="nonzero"
         d="M 0,0 H 6 V 6.917969 H 0 Z m 0,0"
         id="path6207" />
    </clipPath>
    <clipPath
       id="clipPath6116">
      <path
         clip-rule="nonzero"
         d="m 5,0 h 7 V 6.917969 H 5 Z m 0,0"
         id="path8439" />
    </clipPath>
    <clipPath
       id="clipPath2105">
      <path
         clip-rule="nonzero"
         d="M 0,0 H 7 V 4.429688 H 0 Z m 0,0"
         id="path3167" />
    </clipPath>
  </defs>
  <g
     inkscape:label="图层 1"
     inkscape:groupmode="layer"
     id="layer1"
     transform="translate(-86.746906,-37.697609)">
    <rect
       style="display:inline;fill:#efffb9;fill-opacity:1;stroke:#000000;stroke-width:0.594602;stroke-dasharray:none;stroke-opacity:1"
       id="rect15559"
       width="10"
       height="7.0710678"
       x="-205"
       y="137.88582"
       transform="matrix(-1,0,-0.70710679,0.70710679,0,0)" />
    <rect
       style="display:inline;fill:#efffb9;fill-opacity:0.5;stroke:#000000;stroke-width:0.499924;stroke-dasharray:0.999848, 0.499924;stroke-dashoffset:0;stroke-opacity:0.5"
       id="rect15559-7"
       width="8.7705994"
       height="6.3786178"
       x="-145.65839"
       y="-9.6634474"
       transform="matrix(-0.67399475,-0.73873613,-0.73873613,0.67399475,0,0)" />
    <path
       style="display:inline;fill:none;stroke:#000000;stroke-width:0.5;stroke-linecap:butt;stroke-linejoin:miter;stroke-dasharray:none;stroke-opacity:1;marker-end:url(#Arrow1L)"
       d="M 100,100 V 38.822609"
       id="path1641"
       sodipodi:nodetypes="cc" />
    <path
       style="fill:none;stroke:#000000;stroke-width:0.5;stroke-linecap:butt;stroke-linejoin:miter;stroke-dasharray:none;stroke-opacity:1;marker-end:url(#Arrow1L)"
       d="M 100,100 140,50.000001"
       id="path2369"
       sodipodi:nodetypes="cc" />
    <path
       style="fill:none;stroke:#000000;stroke-width:0.5;stroke-linecap:butt;stroke-linejoin:miter;stroke-dasharray:none;stroke-opacity:1;marker-end:url(#Arrow1L-3)"
       d="M 132.17995,67.820046 150,50.000001"
       id="path2369-5"
       sodipodi:nodetypes="cc" />
    <path
       style="fill:none;stroke:#000000;stroke-width:0.5;stroke-linecap:butt;stroke-linejoin:miter;stroke-dasharray:none;stroke-opacity:1;marker-end:url(#Arrow1L-5)"
       d="M 100,100 150,60.000001"
       id="path2369-55"
       sodipodi:nodetypes="cc" />
    <ellipse
       style="fill:none;fill-opacity:1;stroke:#000000;stroke-width:0.499999;stroke-dasharray:none;stroke-opacity:1"
       id="path6093"
       cy="-45.509327"
       cx="141.42136"
       rx="5"
       ry="3"
       transform="rotate(45)" />
    <path
       style="display:inline;fill:url(#linearGradient16055);fill-opacity:1;stroke:#000000;stroke-width:0.280892;stroke-dasharray:none;stroke-opacity:1"
       d="m 385.21585,370.59721 c 0.0307,-0.0797 22.02826,-27.60877 48.88356,-61.17566 l 48.82782,-61.03071 0.0937,1.44147 c 0.33175,5.10469 3.08491,10.43675 7.8486,15.20043 4.76368,4.76369 10.09574,7.51685 15.20043,7.8486 l 1.44147,0.0937 -61.03071,48.82782 c -33.56689,26.8553 -61.09594,48.85291 -61.17566,48.88356 -0.0797,0.0307 -0.11986,-0.009 -0.0892,-0.0892 z"
       id="path16024"
       transform="scale(0.26458333)" />
    <path
       style="display:inline;fill:none;stroke:#000000;stroke-width:0.5;stroke-linecap:butt;stroke-linejoin:miter;stroke-dasharray:none;stroke-opacity:1"
       d="M 100.17678,99.823224 130.05863,69.941367"
       id="path2369-5-0"
       sodipodi:nodetypes="cc" />
    <path
       style="display:inline;fill:#efffb9;fill-opacity:1;stroke:#000000;stroke-width:0.198621;stroke-dasharray:none;stroke-opacity:1"
       d="m 505.70527,270.84784 c -2.84124,-0.32405 -5.99993,-1.5792 -8.95349,-3.55779 -5.76385,-3.86121 -10.18665,-9.87867 -11.45393,-15.5837 -0.31523,-1.41908 -0.34541,-3.86755 -0.0607,-4.92344 1.45336,-5.38986 7.42496,-6.5845 14.61338,-2.92345 1.64254,0.83654 3.70544,2.218 5.15634,3.45303 l 1.14093,0.97118 -3.66161,3.66272 -3.6616,3.66273 0.68137,0.70793 c 0.37475,0.38936 0.69504,0.73073 0.71174,0.75858 0.0167,0.0279 1.68704,-1.60263 3.71186,-3.62331 l 3.68148,-3.67396 0.52173,0.57807 c 2.99159,3.31463 5.18552,7.51719 5.8269,11.1617 0.18117,1.02943 0.2013,3.04591 0.0392,3.92762 -0.38731,2.10692 -1.72057,3.90068 -3.52085,4.73693 -1.23611,0.57419 -3.18678,0.84604 -4.77278,0.66516 z"
       id="path16093"
       transform="scale(0.26458333)" />
    <path
       style="fill:none;fill-opacity:1;stroke:#000000;stroke-width:0.5;stroke-dasharray:none;stroke-opacity:1;marker-end:url(#marker20350)"
       id="path20346"
       sodipodi:type="arc"
       sodipodi:cx="100"
       sodipodi:cy="100"
       sodipodi:rx="15"
       sodipodi:ry="15"
       sodipodi:start="4.712389"
       sodipodi:end="5.3407075"
       sodipodi:arc-type="arc"
       d="m 100,85 a 15,15 0 0 1 8.81678,2.864745"
       sodipodi:open="true" />
    <path
       style="fill:none;fill-opacity:1;stroke:#000000;stroke-width:0.5;stroke-dasharray:none;stroke-opacity:1;marker-start:url(#marker21484);marker-end:url(#marker20350-7)"
       id="path20346-3"
       sodipodi:type="arc"
       sodipodi:cx="100"
       sodipodi:cy="100"
       sodipodi:rx="30"
       sodipodi:ry="30"
       sodipodi:start="5.427974"
       sodipodi:end="5.5676003"
       sodipodi:arc-type="arc"
       d="m 119.68177,77.358713 a 30,30 0 0 1 2.95952,2.959516"
       sodipodi:open="true" />
    <g
       inkscape:label=""
       transform="matrix(1.5,0,0,1.5,84.746905,99.919045)"
       id="g23524">
      <g
         clip-path="url(#clipPath8010)"
         id="g24"
         transform="matrix(0.352778,0,0,0.352778,-0.121267,0.0785371)">
        <g
           fill="#000000"
           fill-opacity="1"
           id="g22">
          <g
             id="use20"
             transform="translate(0,6.9180002)">
            <path
               d="m 3.78125,-0.546875 v 0.65625 L 5.25,0 v -0.3125 c -0.6875,0 -0.78125,-0.0625 -0.78125,-0.5625 V -6.921875 L 3.046875,-6.8125 V -6.5 c 0.6875,0 0.765625,0.0625 0.765625,0.5625 v 2.15625 c -0.28125,-0.359375 -0.71875,-0.625 -1.25,-0.625 -1.171875,0 -2.21875,0.984375 -2.21875,2.265625 0,1.265625 0.96875,2.25 2.109375,2.25 0.640625,0 1.078125,-0.34375 1.328125,-0.65625 z m 0,-2.671875 v 2.046875 c 0,0.171875 0,0.1875 -0.109375,0.359375 C 3.375,-0.328125 2.9375,-0.109375 2.5,-0.109375 2.046875,-0.109375 1.6875,-0.375 1.453125,-0.75 1.203125,-1.15625 1.171875,-1.71875 1.171875,-2.140625 1.171875,-2.5 1.1875,-3.09375 1.46875,-3.546875 1.6875,-3.859375 2.0625,-4.1875 2.609375,-4.1875 c 0.34375,0 0.765625,0.15625 1.0625,0.59375 0.109375,0.171875 0.109375,0.1875 0.109375,0.375 z m 0,0"
               id="path36" />
          </g>
        </g>
      </g>
      <g
         clip-path="url(#clipPath5606)"
         id="g30"
         transform="matrix(0.352778,0,0,0.352778,-0.121267,0.0785371)">
        <g
           fill="#000000"
           fill-opacity="1"
           id="g28">
          <g
             id="use26"
             transform="translate(5.5349998,6.9180002)">
            <path
               d="M 1.78125,-1.140625 C 1.390625,-0.484375 1,-0.34375 0.5625,-0.3125 0.4375,-0.296875 0.34375,-0.296875 0.34375,-0.109375 0.34375,-0.046875 0.40625,0 0.484375,0 0.75,0 1.0625,-0.03125 1.328125,-0.03125 c 0.34375,0 0.6875,0.03125 1,0.03125 0.0625,0 0.1875,0 0.1875,-0.1875 0,-0.109375 -0.078125,-0.125 -0.15625,-0.125 -0.21875,-0.015625 -0.46875,-0.09375 -0.46875,-0.34375 0,-0.125 0.0625,-0.234375 0.140625,-0.375 l 0.765625,-1.265625 h 2.5 c 0.015625,0.203125 0.15625,1.5625 0.15625,1.65625 0,0.296875 -0.515625,0.328125 -0.71875,0.328125 C 4.59375,-0.3125 4.5,-0.3125 4.5,-0.109375 4.5,0 4.609375,0 4.640625,0 5.046875,0 5.46875,-0.03125 5.875,-0.03125 6.125,-0.03125 6.765625,0 7.015625,0 7.0625,0 7.1875,0 7.1875,-0.203125 7.1875,-0.3125 7.09375,-0.3125 6.953125,-0.3125 6.34375,-0.3125 6.34375,-0.375 6.3125,-0.671875 l -0.609375,-6.21875 c -0.015625,-0.203125 -0.015625,-0.25 -0.1875,-0.25 -0.15625,0 -0.203125,0.078125 -0.265625,0.171875 z M 2.984375,-2.609375 4.9375,-5.90625 5.265625,-2.609375 Z m 0,0"
               id="path40" />
          </g>
        </g>
      </g>
    </g>
    <g
       inkscape:label=""
       transform="matrix(1.5,0,0,1.5,123.62582,81.066918)"
       id="g23745">
      <g
         clip-path="url(#clipPath6215)"
         id="g23735"
         transform="matrix(0.352778,0,0,0.352778,-0.121267,0.039952)">
        <g
           fill="#000000"
           fill-opacity="1"
           id="g23733">
          <g
             id="g23731"
             transform="translate(0,6.9180002)">
            <path
               d="m 3.78125,-0.546875 v 0.65625 L 5.25,0 v -0.3125 c -0.6875,0 -0.78125,-0.0625 -0.78125,-0.5625 V -6.921875 L 3.046875,-6.8125 V -6.5 c 0.6875,0 0.765625,0.0625 0.765625,0.5625 v 2.15625 c -0.28125,-0.359375 -0.71875,-0.625 -1.25,-0.625 -1.171875,0 -2.21875,0.984375 -2.21875,2.265625 0,1.265625 0.96875,2.25 2.109375,2.25 0.640625,0 1.078125,-0.34375 1.328125,-0.65625 z m 0,-2.671875 v 2.046875 c 0,0.171875 0,0.1875 -0.109375,0.359375 C 3.375,-0.328125 2.9375,-0.109375 2.5,-0.109375 2.046875,-0.109375 1.6875,-0.375 1.453125,-0.75 1.203125,-1.15625 1.171875,-1.71875 1.171875,-2.140625 1.171875,-2.5 1.1875,-3.09375 1.46875,-3.546875 1.6875,-3.859375 2.0625,-4.1875 2.609375,-4.1875 c 0.34375,0 0.765625,0.15625 1.0625,0.59375 0.109375,0.171875 0.109375,0.1875 0.109375,0.375 z m 0,0"
               id="path23729" />
          </g>
        </g>
      </g>
      <g
         clip-path="url(#clipPath1621)"
         id="g23743"
         transform="matrix(0.352778,0,0,0.352778,-0.121267,0.039952)">
        <g
           fill="#000000"
           fill-opacity="1"
           id="g23741">
          <g
             id="g23739"
             transform="translate(5.5349998,6.9180002)">
            <path
               d="m 5.03125,-0.625 c 0.1875,-0.40625 0.484375,-0.828125 1.375,-1.78125 C 7.015625,-3.0625 7.828125,-4 7.828125,-5 c 0,-1.078125 -0.921875,-2.03125 -2.515625,-2.03125 -1.78125,0 -3.703125,1.296875 -3.703125,3.0625 0,0.5 0.109375,0.890625 0.4375,1.65625 C 2.328125,-1.640625 2.5,-1.21875 2.5,-0.625 H 1.640625 c -0.21875,0 -0.46875,-0.015625 -0.53125,-0.046875 C 1.0625,-0.703125 1.0625,-1.03125 1.0625,-1.203125 c 0,-0.25 0,-0.265625 -0.015625,-0.28125 0,-0.0625 -0.0625,-0.09375 -0.109375,-0.09375 -0.125,0 -0.125,0.078125 -0.125,0.140625 -0.015625,0.125 -0.015625,0.765625 -0.015625,0.921875 V -0.125 C 0.8125,0 0.875,0 1.078125,0 h 1.28125 C 2.578125,0 2.59375,-0.015625 2.625,-0.0625 2.640625,-0.09375 2.75,-0.453125 2.75,-1.09375 c 0,-0.140625 0,-0.484375 -0.09375,-1.234375 -0.109375,-0.75 -0.109375,-1.015625 -0.109375,-1.234375 0,-2.265625 1.65625,-3.25 2.78125,-3.25 0.75,0 1.5625,0.4375 1.5625,1.578125 0,0.984375 -0.59375,1.9375 -1.203125,2.90625 -0.234375,0.390625 -0.546875,0.875 -0.75,1.28125 -0.25,0.53125 -0.328125,0.875 -0.328125,0.921875 C 4.609375,0 4.6875,0 4.890625,0 h 1.28125 c 0.21875,0 0.234375,-0.015625 0.3125,-0.15625 0.078125,-0.171875 0.625,-1.25 0.625,-1.3125 0,-0.0625 -0.03125,-0.109375 -0.125,-0.109375 -0.03125,0 -0.0625,0.015625 -0.09375,0.03125 0,0.015625 -0.015625,0.03125 -0.09375,0.1875 -0.015625,0.03125 -0.203125,0.390625 -0.3125,0.5625 -0.0625,0.125 -0.109375,0.171875 -0.6875,0.171875 z m 0,0"
               id="path23737" />
          </g>
        </g>
      </g>
    </g>
    <g
       inkscape:label=""
       transform="matrix(1.5,0,0,1.5,105,81.066918)"
       id="g25578">
      <g
         clip-path="url(#clipPath626)"
         id="g17"
         transform="matrix(0.352778,0,0,0.352778,-0.148828,0.039952)">
        <g
           fill="#000000"
           fill-opacity="1"
           id="g15">
          <g
             id="use13"
             transform="translate(0,6.9180002)">
            <path
               d="m 4.53125,-4.984375 c 0,-0.65625 -0.171875,-2.046875 -1.1875,-2.046875 -1.390625,0 -2.921875,2.8125 -2.921875,5.09375 0,0.9375 0.28125,2.046875 1.1875,2.046875 1.40625,0 2.921875,-2.859375 2.921875,-5.09375 z M 1.46875,-3.625 C 1.640625,-4.25 1.84375,-5.046875 2.25,-5.765625 2.515625,-6.25 2.875,-6.8125 3.328125,-6.8125 c 0.484375,0 0.546875,0.640625 0.546875,1.203125 0,0.5 -0.078125,1 -0.3125,1.984375 z m 2,0.328125 C 3.359375,-2.84375 3.15625,-2 2.765625,-1.28125 c -0.34375,0.6875 -0.71875,1.171875 -1.15625,1.171875 -0.328125,0 -0.53125,-0.296875 -0.53125,-1.21875 0,-0.421875 0.0625,-1 0.3125,-1.96875 z m 0,0"
               id="path23" />
          </g>
        </g>
      </g>
    </g>
    <g
       inkscape:label=""
       transform="matrix(1.5,0,0,1.5,137.20306,61.959205)"
       id="g26623">
      <g
         clip-path="url(#clipPath4535)"
         id="g26613"
         transform="matrix(0.352778,0,0,0.352778,-0.121267,0.00136694)">
        <g
           fill="#000000"
           fill-opacity="1"
           id="g26611">
          <g
             id="g26609"
             transform="translate(0,6.9180002)">
            <path
               d="m 3.78125,-0.546875 v 0.65625 L 5.25,0 v -0.3125 c -0.6875,0 -0.78125,-0.0625 -0.78125,-0.5625 V -6.921875 L 3.046875,-6.8125 V -6.5 c 0.6875,0 0.765625,0.0625 0.765625,0.5625 v 2.15625 c -0.28125,-0.359375 -0.71875,-0.625 -1.25,-0.625 -1.171875,0 -2.21875,0.984375 -2.21875,2.265625 0,1.265625 0.96875,2.25 2.109375,2.25 0.640625,0 1.078125,-0.34375 1.328125,-0.65625 z m 0,-2.671875 v 2.046875 c 0,0.171875 0,0.1875 -0.109375,0.359375 C 3.375,-0.328125 2.9375,-0.109375 2.5,-0.109375 2.046875,-0.109375 1.6875,-0.375 1.453125,-0.75 1.203125,-1.15625 1.171875,-1.71875 1.171875,-2.140625 1.171875,-2.5 1.1875,-3.09375 1.46875,-3.546875 1.6875,-3.859375 2.0625,-4.1875 2.609375,-4.1875 c 0.34375,0 0.765625,0.15625 1.0625,0.59375 0.109375,0.171875 0.109375,0.1875 0.109375,0.375 z m 0,0"
               id="path26607" />
          </g>
        </g>
      </g>
      <g
         clip-path="url(#clipPath6116)"
         id="g26621"
         transform="matrix(0.352778,0,0,0.352778,-0.121267,0.00136694)">
        <g
           fill="#000000"
           fill-opacity="1"
           id="g26619">
          <g
             id="g26617"
             transform="translate(5.5349998,6.9180002)">
            <path
               d="M 4.359375,-5.984375 C 4.46875,-6.40625 4.5,-6.5 5.4375,-6.5 c 0.296875,0 0.375,0 0.375,-0.1875 0,-0.125 -0.109375,-0.125 -0.15625,-0.125 -0.25,0 -0.515625,0.03125 -0.765625,0.03125 -0.234375,0 -0.484375,0 -0.71875,0 -0.265625,0 -0.515625,0 -0.765625,0 -0.25,0 -0.5,-0.03125 -0.734375,-0.03125 -0.09375,0 -0.203125,0 -0.203125,0.203125 C 2.46875,-6.5 2.546875,-6.5 2.796875,-6.5 c 0.21875,0 0.28125,0 0.515625,0.015625 0.296875,0.03125 0.328125,0.078125 0.328125,0.203125 0,0.046875 -0.0625,0.28125 -0.09375,0.421875 l -0.09375,0.390625 c -1.734375,0.140625 -3.21875,1.25 -3.21875,2.40625 0,0.921875 0.90625,1.625 2.171875,1.71875 l -0.109375,0.5 C 2.1875,-0.40625 2.15625,-0.3125 1.203125,-0.3125 c -0.28125,0 -0.359375,0 -0.359375,0.203125 C 0.84375,0 0.953125,0 1,0 1.25,0 1.5,-0.015625 1.75,-0.015625 2,-0.015625 2.234375,-0.03125 2.46875,-0.03125 2.8125,-0.03125 3.640625,0 3.984375,0 4.0625,0 4.1875,0 4.1875,-0.1875 4.1875,-0.265625 4.125,-0.296875 4.125,-0.296875 4.09375,-0.3125 4.078125,-0.3125 3.84375,-0.3125 c -0.21875,0 -0.265625,0 -0.515625,-0.015625 -0.28125,-0.03125 -0.3125,-0.078125 -0.3125,-0.203125 0,-0.0625 0.109375,-0.546875 0.1875,-0.8125 C 5,-1.484375 6.40625,-2.625 6.40625,-3.75 c 0,-0.84375 -0.828125,-1.609375 -2.171875,-1.71875 z M 2.46875,-1.5625 c -0.390625,-0.046875 -0.6875,-0.15625 -0.921875,-0.34375 -0.40625,-0.3125 -0.40625,-0.75 -0.40625,-0.921875 0,-0.59375 0.296875,-2.203125 2.25,-2.421875 z M 4.171875,-5.25 C 4.265625,-5.234375 4.75,-5.171875 5.109375,-4.890625 5.40625,-4.640625 5.5,-4.34375 5.5,-3.984375 5.5,-3.71875 5.421875,-1.84375 3.265625,-1.5625 Z m 0,0"
               id="path26615" />
          </g>
        </g>
      </g>
    </g>
    <g
       inkscape:label=""
       transform="matrix(2,0,0,2,102.17289,35.646809)"
       id="g29286">
      <g
         clip-path="url(#clipPath2105)"
         id="g29284"
         transform="matrix(0.352778,0,0,0.352778,-0.110243,0.0254)">
        <g
           fill="#000000"
           fill-opacity="1"
           id="g29282">
          <g
             id="g29280"
             transform="translate(0,4.428)">
            <path
               d="M 2.796875,-3.75 C 2.65625,-4.25 2.109375,-4.5 1.5625,-4.5 1.203125,-4.5 0.921875,-4.296875 0.703125,-3.9375 0.453125,-3.53125 0.3125,-3 0.3125,-2.953125 c 0,0.140625 0.15625,0.140625 0.25,0.140625 0.109375,0 0.140625,0 0.1875,-0.046875 C 0.78125,-2.875 0.78125,-2.90625 0.84375,-3.15625 1.03125,-3.921875 1.25,-4.140625 1.515625,-4.140625 c 0.15625,0 0.234375,0.09375 0.234375,0.359375 0,0.171875 -0.046875,0.328125 -0.140625,0.734375 C 1.53125,-2.765625 1.4375,-2.375 1.390625,-2.15625 L 1.03125,-0.75 C 1,-0.625 0.953125,-0.421875 0.953125,-0.359375 c 0,0.203125 0.15625,0.4375 0.46875,0.4375 0.515625,0 0.625,-0.453125 0.703125,-0.75 0.09375,-0.375 0.171875,-0.6875 0.28125,-1.125 0.03125,-0.125 0.28125,-1.15625 0.3125,-1.1875 0,-0.0625 0.28125,-0.5 0.609375,-0.78125 0.28125,-0.21875 0.609375,-0.375 1.03125,-0.375 0.25,0 0.5,0.09375 0.5,0.578125 0,0.578125 -0.4375,1.734375 -0.625,2.234375 -0.125,0.265625 -0.140625,0.34375 -0.140625,0.515625 0,0.578125 0.578125,0.890625 1.125,0.890625 1.046875,0 1.546875,-1.359375 1.546875,-1.546875 0,-0.140625 -0.140625,-0.140625 -0.234375,-0.140625 -0.125,0 -0.1875,0 -0.234375,0.125 C 5.96875,-0.375 5.4375,-0.28125 5.28125,-0.28125 c -0.078125,0 -0.171875,0 -0.171875,-0.203125 0,-0.234375 0.09375,-0.484375 0.1875,-0.734375 0.171875,-0.40625 0.625,-1.578125 0.625,-2.125 C 5.921875,-4.265625 5.15625,-4.5 4.4375,-4.5 4.234375,-4.5 3.5,-4.5 2.796875,-3.75 Z m 0,0"
               id="path29278" />
          </g>
        </g>
      </g>
    </g>
    <path
       style="fill:none;stroke:#000000;stroke-width:0.398664;stroke-linecap:butt;stroke-linejoin:miter;stroke-dasharray:none;stroke-opacity:1"
       d="m 97.500007,102.49999 h 5.000003 l 2.75318,-2.753184"
       id="path37518" />
  </g>
</svg>
