<?xml version="1.0" encoding="UTF-8" standalone="no"?>
<svg
   xmlns:dc="http://purl.org/dc/elements/1.1/"
   xmlns:cc="http://creativecommons.org/ns#"
   xmlns:rdf="http://www.w3.org/1999/02/22-rdf-syntax-ns#"
   xmlns:svg="http://www.w3.org/2000/svg"
   xmlns="http://www.w3.org/2000/svg"
   xmlns:xlink="http://www.w3.org/1999/xlink"
   xmlns:sodipodi="http://sodipodi.sourceforge.net/DTD/sodipodi-0.dtd"
   xmlns:inkscape="http://www.inkscape.org/namespaces/inkscape"
   id="Layer_1"
   data-name="Layer 1"
   viewBox="0 0 468.18 311.04"
   version="1.1"
   sodipodi:docname="Incidentoutgoingradiance.svg"
   inkscape:version="1.0.1 (3bc2e813f5, 2020-09-07)">
  <metadata
     id="metadata1082">
    <rdf:RDF>
      <cc:Work
         rdf:about="">
        <dc:format>image/svg+xml</dc:format>
        <dc:type
           rdf:resource="http://purl.org/dc/dcmitype/StillImage" />
      </cc:Work>
    </rdf:RDF>
  </metadata>
  <sodipodi:namedview
     pagecolor="#ffffff"
     bordercolor="#666666"
     borderopacity="1"
     objecttolerance="10"
     gridtolerance="10"
     guidetolerance="10"
     inkscape:pageopacity="0"
     inkscape:pageshadow="2"
     inkscape:window-width="1920"
     inkscape:window-height="1017"
     id="namedview1080"
     showgrid="false"
     inkscape:zoom="1.5314623"
     inkscape:cx="254.35378"
     inkscape:cy="214.71168"
     inkscape:window-x="1912"
     inkscape:window-y="-8"
     inkscape:window-maximized="1"
     inkscape:current-layer="Layer_1"
     inkscape:document-rotation="0" />
  <defs
     id="defs1005">
    <style
       id="style1003">.cls-1{fill:#ccc;}.cls-2,.cls-6{fill:none;}.cls-2,.cls-3,.cls-6,.cls-7{stroke:#000;stroke-miterlimit:10;}.cls-4{fill:#a6a6a6;}.cls-5{fill:#666;}.cls-6{stroke-dasharray:4;}.cls-7{fill:#fcee21;stroke-width:0.3px;}</style>
    <g
       id="g2666">
      <symbol
         overflow="visible"
         id="symbol2601">
        <path
           style="stroke:none;"
           d=""
           id="path5827" />
      </symbol>
      <symbol
         overflow="visible"
         id="symbol1510">
        <path
           style="stroke:none;"
           d="M 3.734375 -6.03125 C 3.8125 -6.390625 3.84375 -6.5 4.78125 -6.5 C 5.078125 -6.5 5.15625 -6.5 5.15625 -6.6875 C 5.15625 -6.8125 5.046875 -6.8125 5 -6.8125 C 4.671875 -6.8125 3.859375 -6.78125 3.53125 -6.78125 C 3.234375 -6.78125 2.5 -6.8125 2.203125 -6.8125 C 2.140625 -6.8125 2.015625 -6.8125 2.015625 -6.609375 C 2.015625 -6.5 2.109375 -6.5 2.296875 -6.5 C 2.3125 -6.5 2.5 -6.5 2.671875 -6.484375 C 2.84375 -6.453125 2.9375 -6.453125 2.9375 -6.3125 C 2.9375 -6.28125 2.9375 -6.25 2.90625 -6.125 L 1.5625 -0.78125 C 1.46875 -0.390625 1.453125 -0.3125 0.65625 -0.3125 C 0.484375 -0.3125 0.390625 -0.3125 0.390625 -0.109375 C 0.390625 0 0.484375 0 0.65625 0 L 5.28125 0 C 5.515625 0 5.515625 0 5.578125 -0.171875 L 6.375 -2.328125 C 6.40625 -2.4375 6.40625 -2.453125 6.40625 -2.46875 C 6.40625 -2.5 6.375 -2.578125 6.296875 -2.578125 C 6.203125 -2.578125 6.1875 -2.515625 6.125 -2.359375 C 5.78125 -1.453125 5.34375 -0.3125 3.625 -0.3125 L 2.6875 -0.3125 C 2.546875 -0.3125 2.515625 -0.3125 2.46875 -0.3125 C 2.359375 -0.328125 2.328125 -0.34375 2.328125 -0.421875 C 2.328125 -0.453125 2.328125 -0.46875 2.375 -0.640625 Z M 3.734375 -6.03125 "
           id="path7853" />
      </symbol>
      <symbol
         overflow="visible"
         id="symbol2071">
        <path
           style="stroke:none;"
           d="M 2.03125 -0.015625 C 2.03125 -0.671875 1.78125 -1.0625 1.390625 -1.0625 C 1.0625 -1.0625 0.859375 -0.8125 0.859375 -0.53125 C 0.859375 -0.265625 1.0625 0 1.390625 0 C 1.5 0 1.640625 -0.046875 1.734375 -0.125 C 1.765625 -0.15625 1.78125 -0.15625 1.78125 -0.15625 C 1.796875 -0.15625 1.796875 -0.15625 1.796875 -0.015625 C 1.796875 0.734375 1.453125 1.328125 1.125 1.65625 C 1.015625 1.765625 1.015625 1.78125 1.015625 1.8125 C 1.015625 1.890625 1.0625 1.921875 1.109375 1.921875 C 1.21875 1.921875 2.03125 1.15625 2.03125 -0.015625 Z M 2.03125 -0.015625 "
           id="path2613" />
      </symbol>
      <symbol
         overflow="visible"
         id="symbol46">
        <path
           style="stroke:none;"
           d=""
           id="path7559" />
      </symbol>
      <symbol
         overflow="visible"
         id="symbol2296">
        <path
           style="stroke:none;"
           d="M 1.46875 -4.296875 C 1.46875 -4.5 1.296875 -4.703125 1.0625 -4.703125 C 0.859375 -4.703125 0.671875 -4.53125 0.671875 -4.296875 C 0.671875 -4.046875 0.875 -3.890625 1.0625 -3.890625 C 1.296875 -3.890625 1.46875 -4.0625 1.46875 -4.296875 Z M 0.40625 -3 L 0.40625 -2.75 C 0.84375 -2.75 0.90625 -2.703125 0.90625 -2.359375 L 0.90625 -0.546875 C 0.90625 -0.25 0.84375 -0.25 0.390625 -0.25 L 0.390625 0 C 0.40625 0 0.890625 -0.03125 1.171875 -0.03125 C 1.421875 -0.03125 1.671875 -0.015625 1.90625 0 L 1.90625 -0.25 C 1.5 -0.25 1.4375 -0.25 1.4375 -0.546875 L 1.4375 -3.078125 Z M 0.40625 -3 "
           id="path2298" />
      </symbol>
      <symbol
         overflow="visible"
         id="symbol4046">
        <path
           style="stroke:none;"
           d=""
           id="path1984" />
      </symbol>
      <symbol
         overflow="visible"
         id="symbol976">
        <path
           style="stroke:none;"
           d="M 3.296875 2.390625 C 3.296875 2.359375 3.296875 2.34375 3.125 2.171875 C 1.890625 0.921875 1.5625 -0.96875 1.5625 -2.5 C 1.5625 -4.234375 1.9375 -5.96875 3.171875 -7.203125 C 3.296875 -7.328125 3.296875 -7.34375 3.296875 -7.375 C 3.296875 -7.453125 3.265625 -7.484375 3.203125 -7.484375 C 3.09375 -7.484375 2.203125 -6.796875 1.609375 -5.53125 C 1.109375 -4.4375 0.984375 -3.328125 0.984375 -2.5 C 0.984375 -1.71875 1.09375 -0.515625 1.640625 0.625 C 2.25 1.84375 3.09375 2.5 3.203125 2.5 C 3.265625 2.5 3.296875 2.46875 3.296875 2.390625 Z M 3.296875 2.390625 "
           id="path9348" />
      </symbol>
      <symbol
         overflow="visible"
         id="symbol852">
        <path
           style="stroke:none;"
           d="M 2.875 -2.5 C 2.875 -3.265625 2.765625 -4.46875 2.21875 -5.609375 C 1.625 -6.828125 0.765625 -7.484375 0.671875 -7.484375 C 0.609375 -7.484375 0.5625 -7.4375 0.5625 -7.375 C 0.5625 -7.34375 0.5625 -7.328125 0.75 -7.140625 C 1.734375 -6.15625 2.296875 -4.578125 2.296875 -2.5 C 2.296875 -0.78125 1.9375 0.96875 0.703125 2.21875 C 0.5625 2.34375 0.5625 2.359375 0.5625 2.390625 C 0.5625 2.453125 0.609375 2.5 0.671875 2.5 C 0.765625 2.5 1.671875 1.8125 2.25 0.546875 C 2.765625 -0.546875 2.875 -1.65625 2.875 -2.5 Z M 2.875 -2.5 "
           id="path8063" />
      </symbol>
      <symbol
         overflow="visible"
         id="symbol5512">
        <path
           style="stroke:none;"
           d=""
           id="path9028" />
      </symbol>
      <symbol
         overflow="visible"
         id="symbol1165">
        <path
           style="stroke:none;"
           d="M 0.515625 1.28125 C 0.484375 1.421875 0.46875 1.4375 0.453125 1.453125 C 0.40625 1.46875 0.296875 1.46875 0.203125 1.46875 C 0.03125 1.46875 -0.15625 1.46875 -0.15625 1.75 C -0.15625 1.859375 -0.0625 1.9375 0.046875 1.9375 C 0.328125 1.9375 0.65625 1.90625 0.953125 1.90625 C 1.3125 1.90625 1.6875 1.9375 2.03125 1.9375 C 2.09375 1.9375 2.28125 1.9375 2.28125 1.640625 C 2.28125 1.46875 2.125 1.46875 2.03125 1.46875 C 1.890625 1.46875 1.71875 1.46875 1.59375 1.453125 L 2.03125 -0.28125 C 2.171875 -0.140625 2.5 0.078125 3.03125 0.078125 C 4.765625 0.078125 5.84375 -1.5 5.84375 -2.859375 C 5.84375 -4.09375 4.921875 -4.5 4.09375 -4.5 C 3.390625 -4.5 2.875 -4.109375 2.71875 -3.96875 C 2.328125 -4.5 1.671875 -4.5 1.5625 -4.5 C 1.203125 -4.5 0.90625 -4.296875 0.703125 -3.9375 C 0.453125 -3.53125 0.3125 -3 0.3125 -2.953125 C 0.3125 -2.8125 0.46875 -2.8125 0.5625 -2.8125 C 0.671875 -2.8125 0.703125 -2.8125 0.75 -2.859375 C 0.78125 -2.875 0.78125 -2.90625 0.84375 -3.15625 C 1.03125 -3.953125 1.265625 -4.140625 1.515625 -4.140625 C 1.625 -4.140625 1.75 -4.109375 1.75 -3.78125 C 1.75 -3.625 1.71875 -3.484375 1.6875 -3.34375 Z M 2.8125 -3.5 C 3.09375 -3.84375 3.5625 -4.140625 4.046875 -4.140625 C 4.671875 -4.140625 4.71875 -3.609375 4.71875 -3.390625 C 4.71875 -2.875 4.375 -1.640625 4.21875 -1.25 C 3.90625 -0.53125 3.421875 -0.28125 3.015625 -0.28125 C 2.421875 -0.28125 2.1875 -0.75 2.1875 -0.859375 L 2.203125 -1 Z M 2.8125 -3.5 "
           id="path4621" />
      </symbol>
      <symbol
         overflow="visible"
         id="symbol5060">
        <path
           style="stroke:none;"
           d="M 3.609375 -1.390625 C 3.859375 -1.859375 4 -2.34375 4 -2.515625 C 4 -2.734375 3.875 -2.953125 3.625 -2.953125 C 3 -2.953125 2.9375 -1.890625 2.921875 -1.625 C 2.90625 -1.46875 2.90625 -1.46875 2.890625 -1.453125 C 2.734375 -1.3125 2.3125 -1.015625 1.78125 -1.015625 C 1.125 -1.015625 0.75 -1.453125 0.75 -2 C 0.75 -2.3125 0.921875 -3.0625 1.609375 -4 C 1.703125 -4.109375 1.71875 -4.140625 1.71875 -4.21875 C 1.71875 -4.34375 1.625 -4.421875 1.515625 -4.421875 C 1.421875 -4.421875 1.359375 -4.359375 1.34375 -4.359375 C 1.296875 -4.3125 0.21875 -3.015625 0.21875 -1.578125 C 0.21875 -0.578125 0.734375 0.078125 1.578125 0.078125 C 2.28125 0.078125 2.84375 -0.40625 3.0625 -0.640625 C 3.1875 -0.34375 3.484375 0.078125 4.140625 0.078125 C 5 0.078125 5.765625 -0.546875 6.203125 -1.21875 C 6.8125 -2.171875 6.890625 -3.453125 6.890625 -3.59375 C 6.890625 -4.359375 6.4375 -4.515625 6.234375 -4.515625 C 5.859375 -4.515625 5.46875 -4.109375 5.46875 -3.765625 C 5.46875 -3.5 5.65625 -3.375 5.765625 -3.296875 C 6.015625 -3.125 6.234375 -2.890625 6.234375 -2.578125 C 6.234375 -1.90625 5.390625 -1.015625 4.34375 -1.015625 C 4.0625 -1.015625 3.78125 -1.09375 3.609375 -1.390625 Z M 3.609375 -1.390625 "
           id="path9875" />
      </symbol>
    </g>
    <g
       id="g3813">
      <symbol
         overflow="visible"
         id="symbol7539">
        <path
           style="stroke:none;"
           d=""
           id="path8868" />
      </symbol>
      <symbol
         overflow="visible"
         id="symbol1211">
        <path
           style="stroke:none;"
           d="M 3.734375 -6.03125 C 3.8125 -6.390625 3.84375 -6.5 4.78125 -6.5 C 5.078125 -6.5 5.15625 -6.5 5.15625 -6.6875 C 5.15625 -6.8125 5.046875 -6.8125 5 -6.8125 C 4.671875 -6.8125 3.859375 -6.78125 3.53125 -6.78125 C 3.234375 -6.78125 2.5 -6.8125 2.203125 -6.8125 C 2.140625 -6.8125 2.015625 -6.8125 2.015625 -6.609375 C 2.015625 -6.5 2.109375 -6.5 2.296875 -6.5 C 2.3125 -6.5 2.5 -6.5 2.671875 -6.484375 C 2.84375 -6.453125 2.9375 -6.453125 2.9375 -6.3125 C 2.9375 -6.28125 2.9375 -6.25 2.90625 -6.125 L 1.5625 -0.78125 C 1.46875 -0.390625 1.453125 -0.3125 0.65625 -0.3125 C 0.484375 -0.3125 0.390625 -0.3125 0.390625 -0.109375 C 0.390625 0 0.484375 0 0.65625 0 L 5.28125 0 C 5.515625 0 5.515625 0 5.578125 -0.171875 L 6.375 -2.328125 C 6.40625 -2.4375 6.40625 -2.453125 6.40625 -2.46875 C 6.40625 -2.5 6.375 -2.578125 6.296875 -2.578125 C 6.203125 -2.578125 6.1875 -2.515625 6.125 -2.359375 C 5.78125 -1.453125 5.34375 -0.3125 3.625 -0.3125 L 2.6875 -0.3125 C 2.546875 -0.3125 2.515625 -0.3125 2.46875 -0.3125 C 2.359375 -0.328125 2.328125 -0.34375 2.328125 -0.421875 C 2.328125 -0.453125 2.328125 -0.46875 2.375 -0.640625 Z M 3.734375 -6.03125 "
           id="path2278" />
      </symbol>
      <symbol
         overflow="visible"
         id="symbol307">
        <path
           style="stroke:none;"
           d="M 2.03125 -0.015625 C 2.03125 -0.671875 1.78125 -1.0625 1.390625 -1.0625 C 1.0625 -1.0625 0.859375 -0.8125 0.859375 -0.53125 C 0.859375 -0.265625 1.0625 0 1.390625 0 C 1.5 0 1.640625 -0.046875 1.734375 -0.125 C 1.765625 -0.15625 1.78125 -0.15625 1.78125 -0.15625 C 1.796875 -0.15625 1.796875 -0.15625 1.796875 -0.015625 C 1.796875 0.734375 1.453125 1.328125 1.125 1.65625 C 1.015625 1.765625 1.015625 1.78125 1.015625 1.8125 C 1.015625 1.890625 1.0625 1.921875 1.109375 1.921875 C 1.21875 1.921875 2.03125 1.15625 2.03125 -0.015625 Z M 2.03125 -0.015625 "
           id="path2632" />
      </symbol>
      <symbol
         overflow="visible"
         id="symbol2576">
        <path
           style="stroke:none;"
           d=""
           id="path3058" />
      </symbol>
      <symbol
         overflow="visible"
         id="symbol2213">
        <path
           style="stroke:none;"
           d="M 3.6875 -1.484375 C 3.6875 -2.359375 2.9375 -3.109375 1.984375 -3.109375 C 1.015625 -3.109375 0.265625 -2.359375 0.265625 -1.484375 C 0.265625 -0.625 1.03125 0.0625 1.984375 0.0625 C 2.921875 0.0625 3.6875 -0.625 3.6875 -1.484375 Z M 1.984375 -0.15625 C 1.71875 -0.15625 1.34375 -0.234375 1.109375 -0.578125 C 0.921875 -0.859375 0.90625 -1.21875 0.90625 -1.546875 C 0.90625 -1.84375 0.90625 -2.265625 1.15625 -2.5625 C 1.328125 -2.765625 1.625 -2.90625 1.984375 -2.90625 C 2.390625 -2.90625 2.6875 -2.71875 2.84375 -2.5 C 3.03125 -2.234375 3.046875 -1.875 3.046875 -1.546875 C 3.046875 -1.21875 3.03125 -0.84375 2.828125 -0.5625 C 2.640625 -0.296875 2.328125 -0.15625 1.984375 -0.15625 Z M 1.984375 -0.15625 "
           id="path310" />
      </symbol>
      <symbol
         overflow="visible"
         id="symbol3170">
        <path
           style="stroke:none;"
           d=""
           id="path6803" />
      </symbol>
      <symbol
         overflow="visible"
         id="symbol6265">
        <path
           style="stroke:none;"
           d="M 3.296875 2.390625 C 3.296875 2.359375 3.296875 2.34375 3.125 2.171875 C 1.890625 0.921875 1.5625 -0.96875 1.5625 -2.5 C 1.5625 -4.234375 1.9375 -5.96875 3.171875 -7.203125 C 3.296875 -7.328125 3.296875 -7.34375 3.296875 -7.375 C 3.296875 -7.453125 3.265625 -7.484375 3.203125 -7.484375 C 3.09375 -7.484375 2.203125 -6.796875 1.609375 -5.53125 C 1.109375 -4.4375 0.984375 -3.328125 0.984375 -2.5 C 0.984375 -1.71875 1.09375 -0.515625 1.640625 0.625 C 2.25 1.84375 3.09375 2.5 3.203125 2.5 C 3.265625 2.5 3.296875 2.46875 3.296875 2.390625 Z M 3.296875 2.390625 "
           id="path4688" />
      </symbol>
      <symbol
         overflow="visible"
         id="symbol9728">
        <path
           style="stroke:none;"
           d="M 2.875 -2.5 C 2.875 -3.265625 2.765625 -4.46875 2.21875 -5.609375 C 1.625 -6.828125 0.765625 -7.484375 0.671875 -7.484375 C 0.609375 -7.484375 0.5625 -7.4375 0.5625 -7.375 C 0.5625 -7.34375 0.5625 -7.328125 0.75 -7.140625 C 1.734375 -6.15625 2.296875 -4.578125 2.296875 -2.5 C 2.296875 -0.78125 1.9375 0.96875 0.703125 2.21875 C 0.5625 2.34375 0.5625 2.359375 0.5625 2.390625 C 0.5625 2.453125 0.609375 2.5 0.671875 2.5 C 0.765625 2.5 1.671875 1.8125 2.25 0.546875 C 2.765625 -0.546875 2.875 -1.65625 2.875 -2.5 Z M 2.875 -2.5 "
           id="path8581" />
      </symbol>
      <symbol
         overflow="visible"
         id="symbol882">
        <path
           style="stroke:none;"
           d=""
           id="path7351" />
      </symbol>
      <symbol
         overflow="visible"
         id="symbol577">
        <path
           style="stroke:none;"
           d="M 0.515625 1.28125 C 0.484375 1.421875 0.46875 1.4375 0.453125 1.453125 C 0.40625 1.46875 0.296875 1.46875 0.203125 1.46875 C 0.03125 1.46875 -0.15625 1.46875 -0.15625 1.75 C -0.15625 1.859375 -0.0625 1.9375 0.046875 1.9375 C 0.328125 1.9375 0.65625 1.90625 0.953125 1.90625 C 1.3125 1.90625 1.6875 1.9375 2.03125 1.9375 C 2.09375 1.9375 2.28125 1.9375 2.28125 1.640625 C 2.28125 1.46875 2.125 1.46875 2.03125 1.46875 C 1.890625 1.46875 1.71875 1.46875 1.59375 1.453125 L 2.03125 -0.28125 C 2.171875 -0.140625 2.5 0.078125 3.03125 0.078125 C 4.765625 0.078125 5.84375 -1.5 5.84375 -2.859375 C 5.84375 -4.09375 4.921875 -4.5 4.09375 -4.5 C 3.390625 -4.5 2.875 -4.109375 2.71875 -3.96875 C 2.328125 -4.5 1.671875 -4.5 1.5625 -4.5 C 1.203125 -4.5 0.90625 -4.296875 0.703125 -3.9375 C 0.453125 -3.53125 0.3125 -3 0.3125 -2.953125 C 0.3125 -2.8125 0.46875 -2.8125 0.5625 -2.8125 C 0.671875 -2.8125 0.703125 -2.8125 0.75 -2.859375 C 0.78125 -2.875 0.78125 -2.90625 0.84375 -3.15625 C 1.03125 -3.953125 1.265625 -4.140625 1.515625 -4.140625 C 1.625 -4.140625 1.75 -4.109375 1.75 -3.78125 C 1.75 -3.625 1.71875 -3.484375 1.6875 -3.34375 Z M 2.8125 -3.5 C 3.09375 -3.84375 3.5625 -4.140625 4.046875 -4.140625 C 4.671875 -4.140625 4.71875 -3.609375 4.71875 -3.390625 C 4.71875 -2.875 4.375 -1.640625 4.21875 -1.25 C 3.90625 -0.53125 3.421875 -0.28125 3.015625 -0.28125 C 2.421875 -0.28125 2.1875 -0.75 2.1875 -0.859375 L 2.203125 -1 Z M 2.8125 -3.5 "
           id="path5636" />
      </symbol>
      <symbol
         overflow="visible"
         id="symbol169">
        <path
           style="stroke:none;"
           d="M 3.609375 -1.390625 C 3.859375 -1.859375 4 -2.34375 4 -2.515625 C 4 -2.734375 3.875 -2.953125 3.625 -2.953125 C 3 -2.953125 2.9375 -1.890625 2.921875 -1.625 C 2.90625 -1.46875 2.90625 -1.46875 2.890625 -1.453125 C 2.734375 -1.3125 2.3125 -1.015625 1.78125 -1.015625 C 1.125 -1.015625 0.75 -1.453125 0.75 -2 C 0.75 -2.3125 0.921875 -3.0625 1.609375 -4 C 1.703125 -4.109375 1.71875 -4.140625 1.71875 -4.21875 C 1.71875 -4.34375 1.625 -4.421875 1.515625 -4.421875 C 1.421875 -4.421875 1.359375 -4.359375 1.34375 -4.359375 C 1.296875 -4.3125 0.21875 -3.015625 0.21875 -1.578125 C 0.21875 -0.578125 0.734375 0.078125 1.578125 0.078125 C 2.28125 0.078125 2.84375 -0.40625 3.0625 -0.640625 C 3.1875 -0.34375 3.484375 0.078125 4.140625 0.078125 C 5 0.078125 5.765625 -0.546875 6.203125 -1.21875 C 6.8125 -2.171875 6.890625 -3.453125 6.890625 -3.59375 C 6.890625 -4.359375 6.4375 -4.515625 6.234375 -4.515625 C 5.859375 -4.515625 5.46875 -4.109375 5.46875 -3.765625 C 5.46875 -3.5 5.65625 -3.375 5.765625 -3.296875 C 6.015625 -3.125 6.234375 -2.890625 6.234375 -2.578125 C 6.234375 -1.90625 5.390625 -1.015625 4.34375 -1.015625 C 4.0625 -1.015625 3.78125 -1.09375 3.609375 -1.390625 Z M 3.609375 -1.390625 "
           id="path2666" />
      </symbol>
    </g>
    <g
       id="g7587">
      <symbol
         overflow="visible"
         id="symbol2560">
        <path
           style="stroke:none;"
           d=""
           id="path8887" />
      </symbol>
      <symbol
         overflow="visible"
         id="symbol7307">
        <path
           style="stroke:none;"
           d="M 0.515625 1.28125 C 0.484375 1.421875 0.46875 1.4375 0.453125 1.453125 C 0.40625 1.46875 0.296875 1.46875 0.203125 1.46875 C 0.03125 1.46875 -0.15625 1.46875 -0.15625 1.75 C -0.15625 1.859375 -0.0625 1.9375 0.046875 1.9375 C 0.328125 1.9375 0.65625 1.90625 0.953125 1.90625 C 1.3125 1.90625 1.6875 1.9375 2.03125 1.9375 C 2.09375 1.9375 2.28125 1.9375 2.28125 1.640625 C 2.28125 1.46875 2.125 1.46875 2.03125 1.46875 C 1.890625 1.46875 1.71875 1.46875 1.59375 1.453125 L 2.03125 -0.28125 C 2.171875 -0.140625 2.5 0.078125 3.03125 0.078125 C 4.765625 0.078125 5.84375 -1.5 5.84375 -2.859375 C 5.84375 -4.09375 4.921875 -4.5 4.09375 -4.5 C 3.390625 -4.5 2.875 -4.109375 2.71875 -3.96875 C 2.328125 -4.5 1.671875 -4.5 1.5625 -4.5 C 1.203125 -4.5 0.90625 -4.296875 0.703125 -3.9375 C 0.453125 -3.53125 0.3125 -3 0.3125 -2.953125 C 0.3125 -2.8125 0.46875 -2.8125 0.5625 -2.8125 C 0.671875 -2.8125 0.703125 -2.8125 0.75 -2.859375 C 0.78125 -2.875 0.78125 -2.90625 0.84375 -3.15625 C 1.03125 -3.953125 1.265625 -4.140625 1.515625 -4.140625 C 1.625 -4.140625 1.75 -4.109375 1.75 -3.78125 C 1.75 -3.625 1.71875 -3.484375 1.6875 -3.34375 Z M 2.8125 -3.5 C 3.09375 -3.84375 3.5625 -4.140625 4.046875 -4.140625 C 4.671875 -4.140625 4.71875 -3.609375 4.71875 -3.390625 C 4.71875 -2.875 4.375 -1.640625 4.21875 -1.25 C 3.90625 -0.53125 3.421875 -0.28125 3.015625 -0.28125 C 2.421875 -0.28125 2.1875 -0.75 2.1875 -0.859375 L 2.203125 -1 Z M 2.8125 -3.5 "
           id="path4848" />
      </symbol>
    </g>
    <g
       id="g5400">
      <symbol
         overflow="visible"
         id="symbol1847">
        <path
           style="stroke:none;"
           d=""
           id="path5087" />
      </symbol>
      <symbol
         overflow="visible"
         id="symbol671">
        <path
           style="stroke:none;"
           d="M 0.515625 1.28125 C 0.484375 1.421875 0.46875 1.4375 0.453125 1.453125 C 0.40625 1.46875 0.296875 1.46875 0.203125 1.46875 C 0.03125 1.46875 -0.15625 1.46875 -0.15625 1.75 C -0.15625 1.859375 -0.0625 1.9375 0.046875 1.9375 C 0.328125 1.9375 0.65625 1.90625 0.953125 1.90625 C 1.3125 1.90625 1.6875 1.9375 2.03125 1.9375 C 2.09375 1.9375 2.28125 1.9375 2.28125 1.640625 C 2.28125 1.46875 2.125 1.46875 2.03125 1.46875 C 1.890625 1.46875 1.71875 1.46875 1.59375 1.453125 L 2.03125 -0.28125 C 2.171875 -0.140625 2.5 0.078125 3.03125 0.078125 C 4.765625 0.078125 5.84375 -1.5 5.84375 -2.859375 C 5.84375 -4.09375 4.921875 -4.5 4.09375 -4.5 C 3.390625 -4.5 2.875 -4.109375 2.71875 -3.96875 C 2.328125 -4.5 1.671875 -4.5 1.5625 -4.5 C 1.203125 -4.5 0.90625 -4.296875 0.703125 -3.9375 C 0.453125 -3.53125 0.3125 -3 0.3125 -2.953125 C 0.3125 -2.8125 0.46875 -2.8125 0.5625 -2.8125 C 0.671875 -2.8125 0.703125 -2.8125 0.75 -2.859375 C 0.78125 -2.875 0.78125 -2.90625 0.84375 -3.15625 C 1.03125 -3.953125 1.265625 -4.140625 1.515625 -4.140625 C 1.625 -4.140625 1.75 -4.109375 1.75 -3.78125 C 1.75 -3.625 1.71875 -3.484375 1.6875 -3.34375 Z M 2.8125 -3.5 C 3.09375 -3.84375 3.5625 -4.140625 4.046875 -4.140625 C 4.671875 -4.140625 4.71875 -3.609375 4.71875 -3.390625 C 4.71875 -2.875 4.375 -1.640625 4.21875 -1.25 C 3.90625 -0.53125 3.421875 -0.28125 3.015625 -0.28125 C 2.421875 -0.28125 2.1875 -0.75 2.1875 -0.859375 L 2.203125 -1 Z M 2.8125 -3.5 "
           id="path6867" />
      </symbol>
    </g>
  </defs>
  <title
     id="title1007">Incident outgoing radiance</title>
  <polygon
     class="cls-1"
     points="361.29 284.69 341.89 284.42 347.07 281.64 343.92 278.31 350.96 278.31 349.11 272.01 355.41 275.35 353.93 265.15 358 269.79 364.12 269.79 367.82 266.64 374.68 272.75 373.2 277.57 378.38 278.68 371.34 281.46 378.01 284.61 361.29 284.69"
     id="polygon1009" />
  <line
     class="cls-2"
     y1="281.77"
     x2="216.35"
     y2="281.77"
     id="line1011" />
  <circle
     class="cls-3"
     cx="109.45"
     cy="282.06"
     r="5.17"
     id="circle1013" />
  <line
     class="cls-2"
     x1="77.17"
     y1="89.28"
     x2="65.56"
     y2="19.36"
     id="line1017" />
  <polygon
     points="81.79 83.53 77.06 88.63 70.93 85.33 78.49 97.27 81.79 83.53"
     id="polygon1019" />
  <polygon
     class="cls-4"
     points="80.86 85.26 78.28 95.97 77.16 89.26 80.86 85.26"
     id="polygon1021" />
  <polygon
     class="cls-5"
     points="72.38 86.67 78.28 95.97 77.16 89.26 72.38 86.67"
     id="polygon1023" />
  <line
     class="cls-6"
     x1="94.68"
     y1="194.78"
     x2="78.49"
     y2="97.27"
     id="line1025" />
  <line
     class="cls-2"
     x1="109.08"
     y1="281.48"
     x2="96.01"
     y2="202.77"
     id="line1027" />
  <polygon
     points="102.25 206.71 96.12 203.41 91.39 208.51 94.68 194.78 102.25 206.71"
     id="polygon1029" />
  <polygon
     class="cls-4"
     points="100.8 205.37 94.9 196.07 96.01 202.79 100.8 205.37"
     id="polygon1031" />
  <polygon
     class="cls-5"
     points="92.32 206.78 94.9 196.07 96.01 202.79 92.32 206.78"
     id="polygon1033" />
  <polygon
     class="cls-7"
     points="70.29 0.6 68.72 10.27 73.67 1.81 70.34 11.03 76.76 3.63 71.8 12.08 79.47 5.98 73.04 13.38 81.7 8.79 74.02 14.88 83.37 11.96 74.7 16.53 84.44 15.39 75.08 18.29 84.85 18.95 75.12 20.08 84.61 22.53 74.83 21.85 83.71 26 74.22 23.54 82.19 29.25 73.32 25.09 80.1 32.16 72.14 26.44 77.5 34.64 70.73 27.55 74.5 36.6 69.15 28.39 71.19 37.98 67.44 28.92 67.68 38.72 65.66 29.13 64.09 38.81 63.87 29.01 60.55 38.23 62.13 28.56 57.18 37.02 60.51 27.8 54.08 35.2 59.05 26.75 51.38 32.85 57.81 25.46 49.15 30.04 56.83 23.95 47.47 26.87 56.14 22.3 46.41 23.44 55.77 20.54 45.99 19.88 55.73 18.75 46.24 16.3 56.01 16.98 47.13 12.83 56.62 15.29 48.66 9.58 57.53 13.75 50.75 6.67 58.7 12.39 53.34 4.19 60.11 11.28 56.34 2.23 61.7 10.44 59.66 0.85 63.41 9.91 63.17 0.11 65.19 9.7 66.75 0.02 66.98 9.82 70.29 0.6"
     id="polygon1035" />
  <line
     class="cls-2"
     x1="251.84"
     y1="284.41"
     x2="468.18"
     y2="284.41"
     id="line1051" />
  <circle
     class="cls-3"
     cx="361.29"
     cy="284.69"
     r="5.17"
     id="circle1053" />
  <line
     class="cls-2"
     x1="360.36"
     y1="283.94"
     x2="395.64"
     y2="212.36"
     id="line1057" />
  <polygon
     points="398.4 219.2 395.35 212.95 388.53 214.34 399.22 205.09 398.4 219.2"
     id="polygon1059" />
  <polygon
     class="cls-4"
     points="398.01 217.27 398.64 206.27 395.63 212.38 398.01 217.27"
     id="polygon1061" />
  <polygon
     class="cls-5"
     points="390.3 213.47 398.64 206.27 395.63 212.38 390.3 213.47"
     id="polygon1063" />
  <g
     inkscape:label=""
     transform="matrix(2,0,0,2,-75.770975,73.859043)"
     id="g1162">
    <g
       id="g7181">
      <g
         style="fill:#000000;fill-opacity:1"
         id="g7578">
        <use
           xlink:href="#symbol1510"
           x="91.925003"
           y="81.962997"
           id="use7434"
           width="100%"
           height="100%" />
      </g>
      <g
         style="fill:#000000;fill-opacity:1"
         id="g1889">
        <use
           xlink:href="#symbol2296"
           x="98.705002"
           y="83.457001"
           id="use8317"
           width="100%"
           height="100%" />
      </g>
      <g
         style="fill:#000000;fill-opacity:1"
         id="g7011">
        <use
           xlink:href="#symbol976"
           x="101.459"
           y="81.962997"
           id="use9765"
           width="100%"
           height="100%" />
      </g>
      <g
         style="fill:#000000;fill-opacity:1"
         id="g3560">
        <use
           xlink:href="#symbol1165"
           x="105.333"
           y="81.962997"
           id="use61"
           width="100%"
           height="100%" />
      </g>
      <g
         style="fill:#000000;fill-opacity:1"
         id="g3629">
        <use
           xlink:href="#symbol2071"
           x="111.32"
           y="81.962997"
           id="use748"
           width="100%"
           height="100%" />
      </g>
      <g
         style="fill:#000000;fill-opacity:1"
         id="g216">
        <use
           xlink:href="#symbol5060"
           x="115.748"
           y="81.962997"
           id="use5838"
           width="100%"
           height="100%" />
      </g>
      <g
         style="fill:#000000;fill-opacity:1"
         id="g8365">
        <use
           xlink:href="#symbol852"
           x="123.268"
           y="81.962997"
           id="use5201"
           width="100%"
           height="100%" />
      </g>
    </g>
  </g>
  <g
     inkscape:label=""
     transform="matrix(2,0,0,2,114.2435,75.164985)"
     id="g1321">
    <g
       id="g2695">
      <g
         style="fill:#000000;fill-opacity:1"
         id="g6725">
        <use
           xlink:href="#symbol1211"
           x="91.925003"
           y="81.962997"
           id="use3560"
           width="100%"
           height="100%" />
      </g>
      <g
         style="fill:#000000;fill-opacity:1"
         id="g1412">
        <use
           xlink:href="#symbol2213"
           x="98.705002"
           y="83.457001"
           id="use7575"
           width="100%"
           height="100%" />
      </g>
      <g
         style="fill:#000000;fill-opacity:1"
         id="g382">
        <use
           xlink:href="#symbol6265"
           x="103.175"
           y="81.962997"
           id="use2963"
           width="100%"
           height="100%" />
      </g>
      <g
         style="fill:#000000;fill-opacity:1"
         id="g9990">
        <use
           xlink:href="#symbol577"
           x="107.049"
           y="81.962997"
           id="use1240"
           width="100%"
           height="100%" />
      </g>
      <g
         style="fill:#000000;fill-opacity:1"
         id="g791">
        <use
           xlink:href="#symbol307"
           x="113.036"
           y="81.962997"
           id="use8355"
           width="100%"
           height="100%" />
      </g>
      <g
         style="fill:#000000;fill-opacity:1"
         id="g8077">
        <use
           xlink:href="#symbol169"
           x="117.464"
           y="81.962997"
           id="use354"
           width="100%"
           height="100%" />
      </g>
      <g
         style="fill:#000000;fill-opacity:1"
         id="g5614">
        <use
           xlink:href="#symbol9728"
           x="124.984"
           y="81.962997"
           id="use6771"
           width="100%"
           height="100%" />
      </g>
    </g>
  </g>
  <g
     inkscape:label=""
     transform="matrix(2,0,0,2,171.05195,139.80909)"
     id="g1489">
    <g
       id="g8218">
      <g
         style="fill:#000000;fill-opacity:1"
         id="g9814">
        <use
           xlink:href="#symbol7307"
           x="91.925003"
           y="81.962997"
           id="use9186"
           width="100%"
           height="100%" />
      </g>
    </g>
  </g>
  <g
     inkscape:label=""
     transform="matrix(2,0,0,2,-80.34177,137.85017)"
     id="g1636">
    <g
       id="g199">
      <g
         style="fill:#000000;fill-opacity:1"
         id="g660">
        <use
           xlink:href="#symbol671"
           x="91.925003"
           y="81.962997"
           id="use1746"
           width="100%"
           height="100%" />
      </g>
    </g>
  </g>
</svg>
