<svg id="Layer_1" data-name="Layer 1" xmlns="http://www.w3.org/2000/svg" viewBox="0 0 339.51 308.5"><defs><style>.cls-1{fill:#e6e6e6;}.cls-2,.cls-4{fill:none;}.cls-2,.cls-3,.cls-4,.cls-5{stroke:#000;stroke-miterlimit:10;}.cls-4{stroke-dasharray:2;}.cls-5{fill:#fff;}</style></defs><title>Irregular SPD resample</title><polygon class="cls-1" points="217.31 288.3 217.31 149.58 180.74 89.07 158.19 245.97 145.31 249.42 145.31 288.07 217.31 288.3"/><polyline class="cls-2" points="0.5 0 0.5 288.08 339.51 288.08"/><line class="cls-2" x1="73.09" y1="287.51" x2="73.09" y2="278.42"/><line class="cls-2" x1="145.35" y1="287.51" x2="145.35" y2="278.66"/><line class="cls-2" x1="216.86" y1="278.42" x2="216.86" y2="287.75"/><line class="cls-2" x1="289.01" y1="287.61" x2="289.01" y2="278.45"/><polyline class="cls-2" points="35.14 186.81 102.19 263.44 157.49 245.59 180.56 88.41 250.66 204.23 307.26 235.14"/><circle class="cls-3" cx="35.38" cy="186.81" r="5.17"/><circle class="cls-3" cx="102.23" cy="263.48" r="5.17"/><circle class="cls-3" cx="157.32" cy="245.81" r="5.17"/><circle class="cls-3" cx="180.69" cy="88.88" r="5.17"/><circle class="cls-3" cx="250.62" cy="204.28" r="5.17"/><circle class="cls-3" cx="307.1" cy="235.32" r="5.17"/><line class="cls-4" x1="145.35" y1="249.42" x2="145.35" y2="280.41"/><line class="cls-4" x1="157.35" y1="287.82" x2="157.35" y2="245.93"/><line class="cls-4" x1="181.11" y1="89.15" x2="181.11" y2="288.07"/><line class="cls-4" x1="216.86" y1="149.49" x2="216.86" y2="280.65"/><circle class="cls-5" cx="216.89" cy="149.59" r="5.17"/><circle class="cls-5" cx="145.05" cy="249.73" r="5.17"/><path d="M53.07,307.44v-2.83H48.24v-.93L52.88,297H54.4v6.47h1.46v1.11H54.4v2.83Zm0-3.94V300c0-.55,0-1.09,0-1.63h0c-.32.6-.58,1.05-.86,1.53l-2.55,3.54v0Z"/><path d="M63.84,302.12c0,3.54-1.31,5.49-3.62,5.49-2,0-3.41-1.9-3.44-5.34s1.51-5.41,3.62-5.41S63.84,298.81,63.84,302.12Zm-5.65.16c0,2.71.83,4.25,2.11,4.25,1.44,0,2.13-1.68,2.13-4.34S61.77,298,60.32,298C59.09,298,58.19,299.45,58.19,302.28Z"/><path d="M72.05,302.12c0,3.54-1.32,5.49-3.62,5.49-2,0-3.41-1.9-3.44-5.34s1.5-5.41,3.62-5.41S72.05,298.81,72.05,302.12Zm-5.65.16c0,2.71.83,4.25,2.11,4.25,1.44,0,2.13-1.68,2.13-4.34S70,298,68.53,298C67.29,298,66.4,299.45,66.4,302.28Z"/><path d="M77.18,301.79c0-.8,0-1.46-.06-2.1h1.24l.08,1.28h0A2.85,2.85,0,0,1,81,299.52c1.07,0,2.73.64,2.73,3.29v4.63h-1.4V303c0-1.25-.47-2.29-1.8-2.29a2,2,0,0,0-1.89,1.44,2.19,2.19,0,0,0-.09.66v4.66H77.18Z"/><path d="M86.06,301.79c0-.8,0-1.46-.06-2.1h1.23l.06,1.25h0a2.65,2.65,0,0,1,2.43-1.42,2.3,2.3,0,0,1,2.2,1.55h0a3.21,3.21,0,0,1,.86-1,2.68,2.68,0,0,1,1.72-.54c1,0,2.54.67,2.54,3.36v4.56H95.74v-4.39c0-1.49-.54-2.38-1.68-2.38A1.82,1.82,0,0,0,92.4,302a2.14,2.14,0,0,0-.11.7v4.79H90.91V302.8c0-1.24-.54-2.13-1.62-2.13a1.91,1.91,0,0,0-1.74,1.41,1.87,1.87,0,0,0-.11.68v4.68H86.06Z"/><path d="M128.06,298.22h-4l-.4,2.67a6,6,0,0,1,.85-.06,4.34,4.34,0,0,1,2.24.56,3,3,0,0,1,1.49,2.67,3.61,3.61,0,0,1-3.87,3.55,5.12,5.12,0,0,1-2.6-.64l.36-1.07a4.6,4.6,0,0,0,2.22.58,2.3,2.3,0,0,0,2.47-2.26c0-1.34-.92-2.3-3-2.3a10.58,10.58,0,0,0-1.44.11l.67-5h5Z"/><path d="M137,302.12c0,3.54-1.31,5.49-3.61,5.49-2,0-3.41-1.9-3.45-5.34s1.51-5.41,3.62-5.41S137,298.81,137,302.12Zm-5.65.16c0,2.71.84,4.25,2.12,4.25,1.44,0,2.13-1.68,2.13-4.34s-.66-4.24-2.12-4.24C132.22,298,131.32,299.45,131.32,302.28Z"/><path d="M145.18,302.12c0,3.54-1.31,5.49-3.62,5.49-2,0-3.41-1.9-3.44-5.34s1.51-5.41,3.62-5.41S145.18,298.81,145.18,302.12Zm-5.65.16c0,2.71.83,4.25,2.11,4.25,1.44,0,2.13-1.68,2.13-4.34s-.65-4.24-2.11-4.24C140.43,298,139.53,299.45,139.53,302.28Z"/><path d="M150.31,301.79c0-.8,0-1.46-.06-2.1h1.25l.08,1.28h0a2.86,2.86,0,0,1,2.56-1.45c1.07,0,2.74.64,2.74,3.29v4.63H155.5V303c0-1.25-.46-2.29-1.79-2.29a2,2,0,0,0-1.89,1.44,2.18,2.18,0,0,0-.1.66v4.66h-1.41Z"/><path d="M159.19,301.79c0-.8,0-1.46-.06-2.1h1.23l.07,1.25h0a2.65,2.65,0,0,1,2.43-1.42,2.3,2.3,0,0,1,2.19,1.55h0a3.23,3.23,0,0,1,.87-1,2.63,2.63,0,0,1,1.71-.54c1,0,2.55.67,2.55,3.36v4.56h-1.38v-4.39c0-1.49-.55-2.38-1.68-2.38a1.83,1.83,0,0,0-1.67,1.28,2.45,2.45,0,0,0-.11.7v4.79H164V302.8c0-1.24-.54-2.13-1.61-2.13a1.93,1.93,0,0,0-1.75,1.41,1.87,1.87,0,0,0-.11.68v4.68h-1.38Z"/><path d="M200.92,298a5,5,0,0,0-1,.06,4.24,4.24,0,0,0-3.62,3.7h.05A3.17,3.17,0,0,1,202,304a3.48,3.48,0,0,1-3.46,3.66c-2.22,0-3.68-1.72-3.68-4.43a6.57,6.57,0,0,1,1.76-4.69A5.65,5.65,0,0,1,199.9,297a7.39,7.39,0,0,1,1-.08Zm-.4,6a2.12,2.12,0,0,0-2.14-2.39,2.33,2.33,0,0,0-2,1.28,1.27,1.27,0,0,0-.16.63c0,1.71.82,3,2.29,3C199.71,306.53,200.52,305.52,200.52,304Z"/><path d="M210.11,302.12c0,3.54-1.31,5.49-3.62,5.49-2,0-3.41-1.9-3.44-5.34s1.5-5.41,3.62-5.41S210.11,298.81,210.11,302.12Zm-5.65.16c0,2.71.83,4.25,2.11,4.25,1.44,0,2.13-1.68,2.13-4.34S208,298,206.59,298C205.35,298,204.46,299.45,204.46,302.28Z"/><path d="M218.32,302.12c0,3.54-1.32,5.49-3.62,5.49-2,0-3.41-1.9-3.44-5.34s1.5-5.41,3.61-5.41S218.32,298.81,218.32,302.12Zm-5.65.16c0,2.71.83,4.25,2.11,4.25,1.44,0,2.13-1.68,2.13-4.34s-.66-4.24-2.12-4.24C213.56,298,212.67,299.45,212.67,302.28Z"/><path d="M223.45,301.79c0-.8,0-1.46-.07-2.1h1.25l.08,1.28h0a2.88,2.88,0,0,1,2.57-1.45c1.07,0,2.73.64,2.73,3.29v4.63h-1.41V303c0-1.25-.46-2.29-1.79-2.29a2,2,0,0,0-1.89,1.44,2.19,2.19,0,0,0-.09.66v4.66h-1.41Z"/><path d="M232.33,301.79c0-.8,0-1.46-.07-2.1h1.24l.06,1.25h.05a2.65,2.65,0,0,1,2.43-1.42,2.28,2.28,0,0,1,2.19,1.55h0a3.21,3.21,0,0,1,.86-1,2.67,2.67,0,0,1,1.71-.54c1,0,2.55.67,2.55,3.36v4.56H242v-4.39c0-1.49-.54-2.38-1.68-2.38a1.82,1.82,0,0,0-1.66,1.28,2.13,2.13,0,0,0-.12.7v4.79h-1.37V302.8c0-1.24-.55-2.13-1.62-2.13a1.91,1.91,0,0,0-1.74,1.41,1.87,1.87,0,0,0-.12.68v4.68h-1.37Z"/><path d="M274.87,297V298l-4.53,9.48h-1.45l4.51-9.21v0h-5.09V297Z"/><path d="M283.24,302.12c0,3.54-1.31,5.49-3.61,5.49-2,0-3.41-1.9-3.45-5.34s1.51-5.41,3.62-5.41S283.24,298.81,283.24,302.12Zm-5.65.16c0,2.71.83,4.25,2.12,4.25,1.44,0,2.12-1.69,2.12-4.34s-.65-4.24-2.11-4.24C278.49,298,277.59,299.45,277.59,302.28Z"/><path d="M291.45,302.12c0,3.54-1.31,5.49-3.62,5.49-2,0-3.41-1.9-3.44-5.34s1.51-5.41,3.62-5.41S291.45,298.81,291.45,302.12Zm-5.65.16c0,2.71.83,4.25,2.11,4.25,1.44,0,2.13-1.69,2.13-4.34s-.65-4.24-2.11-4.24C286.7,298,285.8,299.45,285.8,302.28Z"/><path d="M296.58,301.79c0-.8,0-1.46-.06-2.1h1.25l.08,1.28h0a2.84,2.84,0,0,1,2.56-1.46c1.07,0,2.74.65,2.74,3.3v4.63h-1.41V303c0-1.25-.47-2.29-1.79-2.29a2,2,0,0,0-1.89,1.44,1.91,1.91,0,0,0-.1.66v4.66h-1.41Z"/><path d="M305.46,301.79c0-.8,0-1.46-.06-2.1h1.23l.07,1.25h0a2.69,2.69,0,0,1,2.44-1.43,2.31,2.31,0,0,1,2.19,1.56h0a3.23,3.23,0,0,1,.87-1,2.64,2.64,0,0,1,1.71-.55c1,0,2.54.68,2.54,3.37v4.56h-1.37v-4.39c0-1.49-.55-2.38-1.68-2.38A1.83,1.83,0,0,0,311.8,302a2.45,2.45,0,0,0-.11.7v4.79h-1.38V302.8c0-1.24-.54-2.13-1.61-2.13a1.93,1.93,0,0,0-1.75,1.41,1.87,1.87,0,0,0-.11.68v4.68h-1.38Z"/></svg>