<?xml version="1.0" encoding="UTF-8" standalone="no"?>
<svg
   xmlns:dc="http://purl.org/dc/elements/1.1/"
   xmlns:cc="http://creativecommons.org/ns#"
   xmlns:rdf="http://www.w3.org/1999/02/22-rdf-syntax-ns#"
   xmlns:svg="http://www.w3.org/2000/svg"
   xmlns="http://www.w3.org/2000/svg"
   xmlns:xlink="http://www.w3.org/1999/xlink"
   xmlns:sodipodi="http://sodipodi.sourceforge.net/DTD/sodipodi-0.dtd"
   xmlns:inkscape="http://www.inkscape.org/namespaces/inkscape"
   id="Layer_1"
   data-name="Layer 1"
   viewBox="0 0 325.15 267.64"
   version="1.1"
   sodipodi:docname="LambertsLaw.svg"
   inkscape:version="1.0.1 (3bc2e813f5, 2020-09-07)">
  <metadata
     id="metadata1037">
    <rdf:RDF>
      <cc:Work
         rdf:about="">
        <dc:format>image/svg+xml</dc:format>
        <dc:type
           rdf:resource="http://purl.org/dc/dcmitype/StillImage" />
      </cc:Work>
    </rdf:RDF>
  </metadata>
  <sodipodi:namedview
     pagecolor="#ffffff"
     bordercolor="#666666"
     borderopacity="1"
     objecttolerance="10"
     gridtolerance="10"
     guidetolerance="10"
     inkscape:pageopacity="0"
     inkscape:pageshadow="2"
     inkscape:window-width="1920"
     inkscape:window-height="1017"
     id="namedview1035"
     showgrid="false"
     inkscape:zoom="2.2051361"
     inkscape:cx="162.575"
     inkscape:cy="133.82"
     inkscape:window-x="1912"
     inkscape:window-y="-8"
     inkscape:window-maximized="1"
     inkscape:current-layer="Layer_1"
     inkscape:document-rotation="0" />
  <defs
     id="defs938">
    <style
       id="style936">.cls-1,.cls-2,.cls-3,.cls-4{fill:none;stroke-miterlimit:10;}.cls-1,.cls-2,.cls-3{stroke:#000;}.cls-2{stroke-width:4px;}.cls-3{stroke-dasharray:4;}.cls-4{stroke:#fcee21;}.cls-5{fill:#a6a6a6;}.cls-6{fill:#666;}</style>
    <g
       id="g8329">
      <symbol
         overflow="visible"
         id="symbol8541">
        <path
           style="stroke:none;"
           d=""
           id="path4853" />
      </symbol>
      <symbol
         overflow="visible"
         id="symbol8607">
        <path
           style="stroke:none;"
           d="M 1.78125 -1.140625 C 1.390625 -0.484375 1 -0.34375 0.5625 -0.3125 C 0.4375 -0.296875 0.34375 -0.296875 0.34375 -0.109375 C 0.34375 -0.046875 0.40625 0 0.484375 0 C 0.75 0 1.0625 -0.03125 1.328125 -0.03125 C 1.671875 -0.03125 2.015625 0 2.328125 0 C 2.390625 0 2.515625 0 2.515625 -0.1875 C 2.515625 -0.296875 2.4375 -0.3125 2.359375 -0.3125 C 2.140625 -0.328125 1.890625 -0.40625 1.890625 -0.65625 C 1.890625 -0.78125 1.953125 -0.890625 2.03125 -1.03125 L 2.796875 -2.296875 L 5.296875 -2.296875 C 5.3125 -2.09375 5.453125 -0.734375 5.453125 -0.640625 C 5.453125 -0.34375 4.9375 -0.3125 4.734375 -0.3125 C 4.59375 -0.3125 4.5 -0.3125 4.5 -0.109375 C 4.5 0 4.609375 0 4.640625 0 C 5.046875 0 5.46875 -0.03125 5.875 -0.03125 C 6.125 -0.03125 6.765625 0 7.015625 0 C 7.0625 0 7.1875 0 7.1875 -0.203125 C 7.1875 -0.3125 7.09375 -0.3125 6.953125 -0.3125 C 6.34375 -0.3125 6.34375 -0.375 6.3125 -0.671875 L 5.703125 -6.890625 C 5.6875 -7.09375 5.6875 -7.140625 5.515625 -7.140625 C 5.359375 -7.140625 5.3125 -7.0625 5.25 -6.96875 Z M 2.984375 -2.609375 L 4.9375 -5.90625 L 5.265625 -2.609375 Z M 2.984375 -2.609375 "
           id="path9334" />
      </symbol>
      <symbol
         overflow="visible"
         id="symbol7628">
        <path
           style="stroke:none;"
           d=""
           id="path9344" />
      </symbol>
      <symbol
         overflow="visible"
         id="symbol340">
        <path
           style="stroke:none;"
           d="M 2.328125 -4.4375 C 2.328125 -4.625 2.328125 -4.625 2.125 -4.625 C 1.671875 -4.1875 1.046875 -4.1875 0.765625 -4.1875 L 0.765625 -3.9375 C 0.921875 -3.9375 1.390625 -3.9375 1.765625 -4.125 L 1.765625 -0.578125 C 1.765625 -0.34375 1.765625 -0.25 1.078125 -0.25 L 0.8125 -0.25 L 0.8125 0 C 0.9375 0 1.796875 -0.03125 2.046875 -0.03125 C 2.265625 -0.03125 3.140625 0 3.296875 0 L 3.296875 -0.25 L 3.03125 -0.25 C 2.328125 -0.25 2.328125 -0.34375 2.328125 -0.578125 Z M 2.328125 -4.4375 "
           id="path9563" />
      </symbol>
    </g>
    <g
       id="g5188">
      <symbol
         overflow="visible"
         id="symbol8139">
        <path
           style="stroke:none;"
           d=""
           id="path497" />
      </symbol>
      <symbol
         overflow="visible"
         id="symbol7100">
        <path
           style="stroke:none;"
           d="M 1.78125 -1.140625 C 1.390625 -0.484375 1 -0.34375 0.5625 -0.3125 C 0.4375 -0.296875 0.34375 -0.296875 0.34375 -0.109375 C 0.34375 -0.046875 0.40625 0 0.484375 0 C 0.75 0 1.0625 -0.03125 1.328125 -0.03125 C 1.671875 -0.03125 2.015625 0 2.328125 0 C 2.390625 0 2.515625 0 2.515625 -0.1875 C 2.515625 -0.296875 2.4375 -0.3125 2.359375 -0.3125 C 2.140625 -0.328125 1.890625 -0.40625 1.890625 -0.65625 C 1.890625 -0.78125 1.953125 -0.890625 2.03125 -1.03125 L 2.796875 -2.296875 L 5.296875 -2.296875 C 5.3125 -2.09375 5.453125 -0.734375 5.453125 -0.640625 C 5.453125 -0.34375 4.9375 -0.3125 4.734375 -0.3125 C 4.59375 -0.3125 4.5 -0.3125 4.5 -0.109375 C 4.5 0 4.609375 0 4.640625 0 C 5.046875 0 5.46875 -0.03125 5.875 -0.03125 C 6.125 -0.03125 6.765625 0 7.015625 0 C 7.0625 0 7.1875 0 7.1875 -0.203125 C 7.1875 -0.3125 7.09375 -0.3125 6.953125 -0.3125 C 6.34375 -0.3125 6.34375 -0.375 6.3125 -0.671875 L 5.703125 -6.890625 C 5.6875 -7.09375 5.6875 -7.140625 5.515625 -7.140625 C 5.359375 -7.140625 5.3125 -7.0625 5.25 -6.96875 Z M 2.984375 -2.609375 L 4.9375 -5.90625 L 5.265625 -2.609375 Z M 2.984375 -2.609375 "
           id="path9043" />
      </symbol>
      <symbol
         overflow="visible"
         id="symbol7708">
        <path
           style="stroke:none;"
           d=""
           id="path2530" />
      </symbol>
      <symbol
         overflow="visible"
         id="symbol4661">
        <path
           style="stroke:none;"
           d="M 3.515625 -1.265625 L 3.28125 -1.265625 C 3.265625 -1.109375 3.1875 -0.703125 3.09375 -0.640625 C 3.046875 -0.59375 2.515625 -0.59375 2.40625 -0.59375 L 1.125 -0.59375 C 1.859375 -1.234375 2.109375 -1.4375 2.515625 -1.765625 C 3.03125 -2.171875 3.515625 -2.609375 3.515625 -3.265625 C 3.515625 -4.109375 2.78125 -4.625 1.890625 -4.625 C 1.03125 -4.625 0.4375 -4.015625 0.4375 -3.375 C 0.4375 -3.03125 0.734375 -2.984375 0.8125 -2.984375 C 0.96875 -2.984375 1.171875 -3.109375 1.171875 -3.359375 C 1.171875 -3.484375 1.125 -3.734375 0.765625 -3.734375 C 0.984375 -4.21875 1.453125 -4.375 1.78125 -4.375 C 2.484375 -4.375 2.84375 -3.828125 2.84375 -3.265625 C 2.84375 -2.65625 2.40625 -2.1875 2.1875 -1.9375 L 0.515625 -0.265625 C 0.4375 -0.203125 0.4375 -0.1875 0.4375 0 L 3.3125 0 Z M 3.515625 -1.265625 "
           id="path6446" />
      </symbol>
    </g>
    <g
       id="g5647">
      <symbol
         overflow="visible"
         id="symbol2808">
        <path
           style="stroke:none;"
           d=""
           id="path386" />
      </symbol>
      <symbol
         overflow="visible"
         id="symbol8431">
        <path
           style="stroke:none;"
           d="M 1.78125 -1.140625 C 1.390625 -0.484375 1 -0.34375 0.5625 -0.3125 C 0.4375 -0.296875 0.34375 -0.296875 0.34375 -0.109375 C 0.34375 -0.046875 0.40625 0 0.484375 0 C 0.75 0 1.0625 -0.03125 1.328125 -0.03125 C 1.671875 -0.03125 2.015625 0 2.328125 0 C 2.390625 0 2.515625 0 2.515625 -0.1875 C 2.515625 -0.296875 2.4375 -0.3125 2.359375 -0.3125 C 2.140625 -0.328125 1.890625 -0.40625 1.890625 -0.65625 C 1.890625 -0.78125 1.953125 -0.890625 2.03125 -1.03125 L 2.796875 -2.296875 L 5.296875 -2.296875 C 5.3125 -2.09375 5.453125 -0.734375 5.453125 -0.640625 C 5.453125 -0.34375 4.9375 -0.3125 4.734375 -0.3125 C 4.59375 -0.3125 4.5 -0.3125 4.5 -0.109375 C 4.5 0 4.609375 0 4.640625 0 C 5.046875 0 5.46875 -0.03125 5.875 -0.03125 C 6.125 -0.03125 6.765625 0 7.015625 0 C 7.0625 0 7.1875 0 7.1875 -0.203125 C 7.1875 -0.3125 7.09375 -0.3125 6.953125 -0.3125 C 6.34375 -0.3125 6.34375 -0.375 6.3125 -0.671875 L 5.703125 -6.890625 C 5.6875 -7.09375 5.6875 -7.140625 5.515625 -7.140625 C 5.359375 -7.140625 5.3125 -7.0625 5.25 -6.96875 Z M 2.984375 -2.609375 L 4.9375 -5.90625 L 5.265625 -2.609375 Z M 2.984375 -2.609375 "
           id="path1106" />
      </symbol>
    </g>
    <g
       id="g4150">
      <symbol
         overflow="visible"
         id="symbol5885">
        <path
           style="stroke:none;"
           d=""
           id="path8429" />
      </symbol>
      <symbol
         overflow="visible"
         id="symbol3953">
        <path
           style="stroke:none;"
           d="M 1.78125 -1.140625 C 1.390625 -0.484375 1 -0.34375 0.5625 -0.3125 C 0.4375 -0.296875 0.34375 -0.296875 0.34375 -0.109375 C 0.34375 -0.046875 0.40625 0 0.484375 0 C 0.75 0 1.0625 -0.03125 1.328125 -0.03125 C 1.671875 -0.03125 2.015625 0 2.328125 0 C 2.390625 0 2.515625 0 2.515625 -0.1875 C 2.515625 -0.296875 2.4375 -0.3125 2.359375 -0.3125 C 2.140625 -0.328125 1.890625 -0.40625 1.890625 -0.65625 C 1.890625 -0.78125 1.953125 -0.890625 2.03125 -1.03125 L 2.796875 -2.296875 L 5.296875 -2.296875 C 5.3125 -2.09375 5.453125 -0.734375 5.453125 -0.640625 C 5.453125 -0.34375 4.9375 -0.3125 4.734375 -0.3125 C 4.59375 -0.3125 4.5 -0.3125 4.5 -0.109375 C 4.5 0 4.609375 0 4.640625 0 C 5.046875 0 5.46875 -0.03125 5.875 -0.03125 C 6.125 -0.03125 6.765625 0 7.015625 0 C 7.0625 0 7.1875 0 7.1875 -0.203125 C 7.1875 -0.3125 7.09375 -0.3125 6.953125 -0.3125 C 6.34375 -0.3125 6.34375 -0.375 6.3125 -0.671875 L 5.703125 -6.890625 C 5.6875 -7.09375 5.6875 -7.140625 5.515625 -7.140625 C 5.359375 -7.140625 5.3125 -7.0625 5.25 -6.96875 Z M 2.984375 -2.609375 L 4.9375 -5.90625 L 5.265625 -2.609375 Z M 2.984375 -2.609375 "
           id="path1161" />
      </symbol>
    </g>
    <g
       id="g8563">
      <symbol
         overflow="visible"
         id="symbol1723">
        <path
           style="stroke:none;"
           d=""
           id="path2255" />
      </symbol>
      <symbol
         overflow="visible"
         id="symbol2575">
        <path
           style="stroke:none;"
           d="M 4.53125 -4.984375 C 4.53125 -5.640625 4.359375 -7.03125 3.34375 -7.03125 C 1.953125 -7.03125 0.421875 -4.21875 0.421875 -1.9375 C 0.421875 -1 0.703125 0.109375 1.609375 0.109375 C 3.015625 0.109375 4.53125 -2.75 4.53125 -4.984375 Z M 1.46875 -3.625 C 1.640625 -4.25 1.84375 -5.046875 2.25 -5.765625 C 2.515625 -6.25 2.875 -6.8125 3.328125 -6.8125 C 3.8125 -6.8125 3.875 -6.171875 3.875 -5.609375 C 3.875 -5.109375 3.796875 -4.609375 3.5625 -3.625 Z M 3.46875 -3.296875 C 3.359375 -2.84375 3.15625 -2 2.765625 -1.28125 C 2.421875 -0.59375 2.046875 -0.109375 1.609375 -0.109375 C 1.28125 -0.109375 1.078125 -0.40625 1.078125 -1.328125 C 1.078125 -1.75 1.140625 -2.328125 1.390625 -3.296875 Z M 3.46875 -3.296875 "
           id="path4343" />
      </symbol>
    </g>
    <g
       id="g7793">
      <symbol
         overflow="visible"
         id="symbol6811">
        <path
           style="stroke:none;"
           d=""
           id="path3775" />
      </symbol>
      <symbol
         overflow="visible"
         id="symbol7703">
        <path
           style="stroke:none;"
           d="M 2.796875 -3.75 C 2.65625 -4.25 2.109375 -4.5 1.5625 -4.5 C 1.203125 -4.5 0.921875 -4.296875 0.703125 -3.9375 C 0.453125 -3.53125 0.3125 -3 0.3125 -2.953125 C 0.3125 -2.8125 0.46875 -2.8125 0.5625 -2.8125 C 0.671875 -2.8125 0.703125 -2.8125 0.75 -2.859375 C 0.78125 -2.875 0.78125 -2.90625 0.84375 -3.15625 C 1.03125 -3.921875 1.25 -4.140625 1.515625 -4.140625 C 1.671875 -4.140625 1.75 -4.046875 1.75 -3.78125 C 1.75 -3.609375 1.703125 -3.453125 1.609375 -3.046875 C 1.53125 -2.765625 1.4375 -2.375 1.390625 -2.15625 L 1.03125 -0.75 C 1 -0.625 0.953125 -0.421875 0.953125 -0.359375 C 0.953125 -0.15625 1.109375 0.078125 1.421875 0.078125 C 1.9375 0.078125 2.046875 -0.375 2.125 -0.671875 C 2.21875 -1.046875 2.296875 -1.359375 2.40625 -1.796875 C 2.4375 -1.921875 2.6875 -2.953125 2.71875 -2.984375 C 2.71875 -3.046875 3 -3.484375 3.328125 -3.765625 C 3.609375 -3.984375 3.9375 -4.140625 4.359375 -4.140625 C 4.609375 -4.140625 4.859375 -4.046875 4.859375 -3.5625 C 4.859375 -2.984375 4.421875 -1.828125 4.234375 -1.328125 C 4.109375 -1.0625 4.09375 -0.984375 4.09375 -0.8125 C 4.09375 -0.234375 4.671875 0.078125 5.21875 0.078125 C 6.265625 0.078125 6.765625 -1.28125 6.765625 -1.46875 C 6.765625 -1.609375 6.625 -1.609375 6.53125 -1.609375 C 6.40625 -1.609375 6.34375 -1.609375 6.296875 -1.484375 C 5.96875 -0.375 5.4375 -0.28125 5.28125 -0.28125 C 5.203125 -0.28125 5.109375 -0.28125 5.109375 -0.484375 C 5.109375 -0.71875 5.203125 -0.96875 5.296875 -1.21875 C 5.46875 -1.625 5.921875 -2.796875 5.921875 -3.34375 C 5.921875 -4.265625 5.15625 -4.5 4.4375 -4.5 C 4.234375 -4.5 3.5 -4.5 2.796875 -3.75 Z M 2.796875 -3.75 "
           id="path1350" />
      </symbol>
    </g>
  </defs>
  <title
     id="title940">Lamberts Law</title>
  <line
     class="cls-1"
     x1="187.94"
     y1="238.71"
     x2="325.15"
     y2="238.22"
     id="line942" />
  <line
     class="cls-2"
     x1="144.99"
     y1="238.71"
     x2="187.94"
     y2="238.71"
     id="line944" />
  <line
     class="cls-1"
     x1="81.57"
     y1="238.71"
     x2="144.99"
     y2="238.71"
     id="line946" />
  <line
     class="cls-1"
     x1="45.58"
     y1="238.71"
     y2="238.71"
     id="line948" />
  <path
     class="cls-3"
     d="M45.2,23.06s0,215.31.38,215.65"
     id="path950" />
  <line
     class="cls-3"
     x1="81.57"
     y1="238.71"
     x2="81.57"
     y2="23.06"
     id="line952" />
  <line
     class="cls-2"
     x1="45.58"
     y1="238.71"
     x2="81.57"
     y2="238.71"
     id="line954" />
  <line
     class="cls-4"
     x1="79.28"
     y1="24.29"
     x2="79.28"
     y2="32.05"
     id="line956" />
  <line
     class="cls-4"
     x1="81.57"
     y1="23.06"
     x2="45.2"
     y2="23.06"
     id="line958" />
  <line
     class="cls-4"
     x1="47.7"
     y1="24.29"
     x2="47.7"
     y2="32.05"
     id="line960" />
  <line
     class="cls-4"
     x1="51.64"
     y1="24.29"
     x2="51.64"
     y2="32.05"
     id="line962" />
  <line
     class="cls-4"
     x1="55.59"
     y1="24.29"
     x2="55.59"
     y2="32.05"
     id="line964" />
  <line
     class="cls-4"
     x1="59.54"
     y1="24.29"
     x2="59.54"
     y2="32.05"
     id="line966" />
  <line
     class="cls-4"
     x1="63.49"
     y1="24.29"
     x2="63.49"
     y2="32.05"
     id="line968" />
  <line
     class="cls-4"
     x1="67.44"
     y1="24.29"
     x2="67.44"
     y2="32.05"
     id="line970" />
  <line
     class="cls-4"
     x1="71.38"
     y1="24.29"
     x2="71.38"
     y2="32.05"
     id="line972" />
  <line
     class="cls-4"
     x1="75.33"
     y1="24.29"
     x2="75.33"
     y2="32.05"
     id="line974" />
  <line
     class="cls-4"
     x1="307.95"
     y1="46.62"
     x2="303.78"
     y2="53.15"
     id="line978" />
  <line
     class="cls-4"
     x1="310.55"
     y1="46.81"
     x2="279.88"
     y2="27.25"
     id="line980" />
  <line
     class="cls-4"
     x1="281.32"
     y1="29.63"
     x2="277.15"
     y2="36.17"
     id="line982" />
  <line
     class="cls-4"
     x1="284.65"
     y1="31.76"
     x2="280.48"
     y2="38.29"
     id="line984" />
  <line
     class="cls-4"
     x1="287.98"
     y1="33.88"
     x2="283.81"
     y2="40.42"
     id="line986" />
  <line
     class="cls-4"
     x1="291.31"
     y1="36"
     x2="287.14"
     y2="42.54"
     id="line988" />
  <line
     class="cls-4"
     x1="294.63"
     y1="38.12"
     x2="290.46"
     y2="44.66"
     id="line990" />
  <line
     class="cls-4"
     x1="297.96"
     y1="40.25"
     x2="293.79"
     y2="46.79"
     id="line992" />
  <line
     class="cls-4"
     x1="301.29"
     y1="42.37"
     x2="297.12"
     y2="48.91"
     id="line994" />
  <line
     class="cls-4"
     x1="304.62"
     y1="44.49"
     x2="300.45"
     y2="51.03"
     id="line996" />
  <line
     class="cls-3"
     x1="279.61"
     y1="27.79"
     x2="145.13"
     y2="238.66"
     id="line998" />
  <line
     class="cls-3"
     x1="310.38"
     y1="46.86"
     x2="188.06"
     y2="238.65"
     id="line1000" />
  <line
     class="cls-1"
     x1="167.99"
     y1="237.96"
     x2="167.99"
     y2="140.18"
     id="line1012" />
  <polygon
     points="173.49 145.09 167.99 140.84 162.48 145.09 167.99 132.08 173.49 145.09"
     id="polygon1014" />
  <polygon
     class="cls-5"
     points="172.29 143.54 167.99 133.39 167.99 140.2 172.29 143.54"
     id="polygon1016" />
  <polygon
     class="cls-6"
     points="163.69 143.54 167.99 133.39 167.99 140.2 163.69 143.54"
     id="polygon1018" />
  <line
     class="cls-1"
     x1="167.87"
     y1="238.66"
     x2="219.91"
     y2="155.88"
     id="line1020" />
  <polygon
     points="221.95 162.96 219.56 156.43 212.63 157.1 224.22 149.02 221.95 162.96"
     id="polygon1022" />
  <polygon
     class="cls-5"
     points="221.76 161 223.52 150.13 219.9 155.89 221.76 161"
     id="polygon1024" />
  <polygon
     class="cls-6"
     points="214.48 156.43 223.52 150.13 219.9 155.89 214.48 156.43"
     id="polygon1026" />
  <path
     class="cls-1"
     d="M168.13,210.44a28.17,28.17,0,0,1,14.48,4"
     id="path1028" />
  <g
     inkscape:label=""
     transform="matrix(2,0,0,2,-130.55713,95.730055)"
     id="g1104">
    <g
       id="g6718">
      <g
         style="fill:#000000;fill-opacity:1"
         id="g5107">
        <use
           xlink:href="#symbol8607"
           x="91.925003"
           y="81.962997"
           id="use5295"
           width="100%"
           height="100%" />
      </g>
      <g
         style="fill:#000000;fill-opacity:1"
         id="g2795">
        <use
           xlink:href="#symbol340"
           x="99.397003"
           y="83.457001"
           id="use9039"
           width="100%"
           height="100%" />
      </g>
    </g>
  </g>
  <g
     inkscape:label=""
     transform="matrix(2,0,0,2,-26.255181,95.730055)"
     id="g1202">
    <g
       id="g3359">
      <g
         style="fill:#000000;fill-opacity:1"
         id="g3482">
        <use
           xlink:href="#symbol7100"
           x="91.925003"
           y="81.962997"
           id="use5839"
           width="100%"
           height="100%" />
      </g>
      <g
         style="fill:#000000;fill-opacity:1"
         id="g4046">
        <use
           xlink:href="#symbol4661"
           x="99.397003"
           y="83.457001"
           id="use6729"
           width="100%"
           height="100%" />
      </g>
    </g>
  </g>
  <g
     inkscape:label=""
     transform="matrix(2,0,0,2,-128.74319,-144.16444)"
     id="g1309">
    <g
       id="g2504">
      <g
         style="fill:#000000;fill-opacity:1"
         id="g9930">
        <use
           xlink:href="#symbol8431"
           x="91.925003"
           y="81.962997"
           id="use5655"
           width="100%"
           height="100%" />
      </g>
    </g>
  </g>
  <g
     inkscape:label=""
     transform="matrix(2,0,0,2,108.88387,-134.18773)"
     id="g1419">
    <g
       id="g6889">
      <g
         style="fill:#000000;fill-opacity:1"
         id="g8406">
        <use
           xlink:href="#symbol3953"
           x="91.925003"
           y="81.962997"
           id="use3600"
           width="100%"
           height="100%" />
      </g>
    </g>
  </g>
  <g
     inkscape:label=""
     transform="matrix(2,0,0,2,-9.6567608,44.850391)"
     id="g1538">
    <g
       id="g4366">
      <g
         style="fill:#000000;fill-opacity:1"
         id="g8571">
        <use
           xlink:href="#symbol2575"
           x="91.925003"
           y="81.962997"
           id="use1983"
           width="100%"
           height="100%" />
      </g>
    </g>
  </g>
  <g
     inkscape:label=""
     transform="matrix(2,0,0,2,-21.720316,-35.327616)"
     id="g1666">
    <g
       id="g5503">
      <g
         style="fill:#000000;fill-opacity:1"
         id="g2745">
        <use
           xlink:href="#symbol7703"
           x="91.925003"
           y="81.962997"
           id="use606"
           width="100%"
           height="100%" />
      </g>
    </g>
  </g>
</svg>
