<?xml version="1.0" encoding="UTF-8" standalone="no"?>
<svg
   xmlns:dc="http://purl.org/dc/elements/1.1/"
   xmlns:cc="http://creativecommons.org/ns#"
   xmlns:rdf="http://www.w3.org/1999/02/22-rdf-syntax-ns#"
   xmlns:svg="http://www.w3.org/2000/svg"
   xmlns="http://www.w3.org/2000/svg"
   xmlns:xlink="http://www.w3.org/1999/xlink"
   xmlns:sodipodi="http://sodipodi.sourceforge.net/DTD/sodipodi-0.dtd"
   xmlns:inkscape="http://www.inkscape.org/namespaces/inkscape"
   id="Layer_1"
   data-name="Layer 1"
   viewBox="0 0 549.16 438.99"
   version="1.1"
   sodipodi:docname="Projectedsolidangle.svg"
   inkscape:version="1.0.1 (3bc2e813f5, 2020-09-07)">
  <metadata
     id="metadata886">
    <rdf:RDF>
      <cc:Work
         rdf:about="">
        <dc:format>image/svg+xml</dc:format>
        <dc:type
           rdf:resource="http://purl.org/dc/dcmitype/StillImage" />
      </cc:Work>
    </rdf:RDF>
  </metadata>
  <sodipodi:namedview
     pagecolor="#ffffff"
     bordercolor="#666666"
     borderopacity="1"
     objecttolerance="10"
     gridtolerance="10"
     guidetolerance="10"
     inkscape:pageopacity="0"
     inkscape:pageshadow="2"
     inkscape:window-width="1920"
     inkscape:window-height="1017"
     id="namedview884"
     showgrid="false"
     inkscape:zoom="1.3056304"
     inkscape:cx="274.58"
     inkscape:cy="219.495"
     inkscape:window-x="1912"
     inkscape:window-y="-8"
     inkscape:window-maximized="1"
     inkscape:current-layer="Layer_1"
     inkscape:document-rotation="0" />
  <defs
     id="defs835">
    <style
       id="style833">.cls-1,.cls-6{fill:none;}.cls-1,.cls-2,.cls-5,.cls-6,.cls-7{stroke:#000;stroke-miterlimit:10;}.cls-2,.cls-5{fill:#b3b3b3;}.cls-3{fill:#a6a6a6;}.cls-4{fill:#666;}.cls-5{stroke-width:3px;}.cls-6{stroke-dasharray:2;}</style>
    <g
       id="g5375">
      <symbol
         overflow="visible"
         id="symbol9786">
        <path
           style="stroke:none;"
           d=""
           id="path9568" />
      </symbol>
      <symbol
         overflow="visible"
         id="symbol8722">
        <path
           style="stroke:none;"
           d="M 2.796875 -3.75 C 2.65625 -4.25 2.109375 -4.5 1.5625 -4.5 C 1.203125 -4.5 0.921875 -4.296875 0.703125 -3.9375 C 0.453125 -3.53125 0.3125 -3 0.3125 -2.953125 C 0.3125 -2.8125 0.46875 -2.8125 0.5625 -2.8125 C 0.671875 -2.8125 0.703125 -2.8125 0.75 -2.859375 C 0.78125 -2.875 0.78125 -2.90625 0.84375 -3.15625 C 1.03125 -3.921875 1.25 -4.140625 1.515625 -4.140625 C 1.671875 -4.140625 1.75 -4.046875 1.75 -3.78125 C 1.75 -3.609375 1.703125 -3.453125 1.609375 -3.046875 C 1.53125 -2.765625 1.4375 -2.375 1.390625 -2.15625 L 1.03125 -0.75 C 1 -0.625 0.953125 -0.421875 0.953125 -0.359375 C 0.953125 -0.15625 1.109375 0.078125 1.421875 0.078125 C 1.9375 0.078125 2.046875 -0.375 2.125 -0.671875 C 2.21875 -1.046875 2.296875 -1.359375 2.40625 -1.796875 C 2.4375 -1.921875 2.6875 -2.953125 2.71875 -2.984375 C 2.71875 -3.046875 3 -3.484375 3.328125 -3.765625 C 3.609375 -3.984375 3.9375 -4.140625 4.359375 -4.140625 C 4.609375 -4.140625 4.859375 -4.046875 4.859375 -3.5625 C 4.859375 -2.984375 4.421875 -1.828125 4.234375 -1.328125 C 4.109375 -1.0625 4.09375 -0.984375 4.09375 -0.8125 C 4.09375 -0.234375 4.671875 0.078125 5.21875 0.078125 C 6.265625 0.078125 6.765625 -1.28125 6.765625 -1.46875 C 6.765625 -1.609375 6.625 -1.609375 6.53125 -1.609375 C 6.40625 -1.609375 6.34375 -1.609375 6.296875 -1.484375 C 5.96875 -0.375 5.4375 -0.28125 5.28125 -0.28125 C 5.203125 -0.28125 5.109375 -0.28125 5.109375 -0.484375 C 5.109375 -0.71875 5.203125 -0.96875 5.296875 -1.21875 C 5.46875 -1.625 5.921875 -2.796875 5.921875 -3.34375 C 5.921875 -4.265625 5.15625 -4.5 4.4375 -4.5 C 4.234375 -4.5 3.5 -4.5 2.796875 -3.75 Z M 2.796875 -3.75 "
           id="path8273" />
      </symbol>
    </g>
    <g
       id="g3056">
      <symbol
         overflow="visible"
         id="symbol1840">
        <path
           style="stroke:none;"
           d=""
           id="path1562" />
      </symbol>
      <symbol
         overflow="visible"
         id="symbol7171">
        <path
           style="stroke:none;"
           d="M 0.515625 1.28125 C 0.484375 1.421875 0.46875 1.4375 0.453125 1.453125 C 0.40625 1.46875 0.296875 1.46875 0.203125 1.46875 C 0.03125 1.46875 -0.15625 1.46875 -0.15625 1.75 C -0.15625 1.859375 -0.0625 1.9375 0.046875 1.9375 C 0.328125 1.9375 0.65625 1.90625 0.953125 1.90625 C 1.3125 1.90625 1.6875 1.9375 2.03125 1.9375 C 2.09375 1.9375 2.28125 1.9375 2.28125 1.640625 C 2.28125 1.46875 2.125 1.46875 2.03125 1.46875 C 1.890625 1.46875 1.71875 1.46875 1.59375 1.453125 L 2.03125 -0.28125 C 2.171875 -0.140625 2.5 0.078125 3.03125 0.078125 C 4.765625 0.078125 5.84375 -1.5 5.84375 -2.859375 C 5.84375 -4.09375 4.921875 -4.5 4.09375 -4.5 C 3.390625 -4.5 2.875 -4.109375 2.71875 -3.96875 C 2.328125 -4.5 1.671875 -4.5 1.5625 -4.5 C 1.203125 -4.5 0.90625 -4.296875 0.703125 -3.9375 C 0.453125 -3.53125 0.3125 -3 0.3125 -2.953125 C 0.3125 -2.8125 0.46875 -2.8125 0.5625 -2.8125 C 0.671875 -2.8125 0.703125 -2.8125 0.75 -2.859375 C 0.78125 -2.875 0.78125 -2.90625 0.84375 -3.15625 C 1.03125 -3.953125 1.265625 -4.140625 1.515625 -4.140625 C 1.625 -4.140625 1.75 -4.109375 1.75 -3.78125 C 1.75 -3.625 1.71875 -3.484375 1.6875 -3.34375 Z M 2.8125 -3.5 C 3.09375 -3.84375 3.5625 -4.140625 4.046875 -4.140625 C 4.671875 -4.140625 4.71875 -3.609375 4.71875 -3.390625 C 4.71875 -2.875 4.375 -1.640625 4.21875 -1.25 C 3.90625 -0.53125 3.421875 -0.28125 3.015625 -0.28125 C 2.421875 -0.28125 2.1875 -0.75 2.1875 -0.859375 L 2.203125 -1 Z M 2.8125 -3.5 "
           id="path3669" />
      </symbol>
    </g>
  </defs>
  <title
     id="title837">Projected solid angle</title>
  <circle
     class="cls-1"
     cx="179.22"
     cy="259.76"
     r="178.72"
     id="circle839" />
  <path
     class="cls-2"
     d="M428,50.12c12-9.24,21.08-7,21.08-7,7.28,11.42-2.51,13.94,3.47,11,21.25-10.56,22,11.89,32.65,6s21.44-16,12.85,5.77-34,15.64-25,32.81,21.67,14.31,22.1,18.49S472,135.71,470,136.09l-3.87-42s-2.26-11.79-16-17-18.67-6.93-21.28-10.53Z"
     id="path841" />
  <line
     class="cls-1"
     x1="178.51"
     y1="260.61"
     x2="481.35"
     y2="5.22"
     id="line843" />
  <polygon
     points="481.14 12.6 480.85 5.64 474.04 4.18 487.54 0 481.14 12.6"
     id="polygon845" />
  <polygon
     class="cls-3"
     points="481.56 10.67 486.54 0.85 481.33 5.24 481.56 10.67"
     id="polygon847" />
  <polygon
     class="cls-4"
     points="476.01 4.1 486.54 0.85 481.33 5.24 476.01 4.1"
     id="polygon849" />
  <line
     class="cls-1"
     x1="177.45"
     y1="261.62"
     x2="541.71"
     y2="105.93"
     id="line851" />
  <polygon
     points="539.36 112.92 541.11 106.18 535.03 102.79 549.16 102.74 539.36 112.92"
     id="polygon853" />
  <polygon
     class="cls-3"
     points="540.32 111.2 547.96 103.26 541.69 105.93 540.32 111.2"
     id="polygon855" />
  <polygon
     class="cls-4"
     points="536.94 103.29 547.96 103.26 541.69 105.93 536.94 103.29"
     id="polygon857" />
  <path
     class="cls-2"
     d="M273.6,181.12c7.2-6.77,13.06-8,13.06-8,5.2,3-.91,6.44,2.75,3.75,13-9.54,14.58-.33,21.06-5.35s12.85-11.88,8.46-.69S298,185.57,304.64,190.57s14.49.76,15,2.4-13.79,13.34-15.05,14L300,190.33s-2-4.39-11-3.28-12.21,1.61-14,.73Z"
     id="path859" />
  <ellipse
     class="cls-1"
     cx="178.91"
     cy="259.87"
     rx="177.94"
     ry="48.82"
     id="ellipse861" />
  <path
     class="cls-5"
     d="M273.21,254.74a48.81,48.81,0,0,1,13.27-4.14c5.22,1.37-1,3.15,2.74,1.77,13.23-4.88,14.75-.43,21.34-3s13.1-6,8.56-.49-17.43,8.94-14.62,9.87,14.63.09,15.1.88-14.07,6.74-15.34,7.08l-4.42-8s-2-2.09-11.1-1.38-12.36,1-14.2.61Z"
     id="path863" />
  <line
     class="cls-6"
     x1="273.21"
     y1="180.17"
     x2="273.21"
     y2="254.91"
     id="line865" />
  <line
     class="cls-6"
     x1="320.55"
     y1="165.58"
     x2="320.55"
     y2="246.58"
     id="line867" />
  <line
     class="cls-1"
     x1="177.73"
     y1="262.03"
     x2="177.73"
     y2="70.17"
     id="line869" />
  <polygon
     points="183.24 75.08 177.73 70.82 172.23 75.08 177.73 62.06 183.24 75.08"
     id="polygon871" />
  <polygon
     class="cls-3"
     points="182.03 73.52 177.73 63.38 177.73 70.19 182.03 73.52"
     id="polygon873" />
  <polygon
     class="cls-4"
     points="173.44 73.52 177.73 63.38 177.73 70.19 173.44 73.52"
     id="polygon875" />
  <circle
     class="cls-7"
     cx="177.98"
     cy="261.44"
     r="2.25"
     id="circle881" />
  <g
     inkscape:label=""
     transform="matrix(2.4,0,0,2.4,-48.438286,-141.70466)"
     id="g923">
    <g
       id="g3274">
      <g
         style="fill:#000000;fill-opacity:1"
         id="g8473">
        <use
           xlink:href="#symbol8722"
           x="91.925003"
           y="81.962997"
           id="use2419"
           width="100%"
           height="100%" />
      </g>
    </g>
  </g>
  <g
     inkscape:label=""
     transform="matrix(2.4,0,0,2.4,-51.397712,88.069808)"
     id="g979">
    <g
       id="g1898">
      <g
         style="fill:#000000;fill-opacity:1"
         id="g1198">
        <use
           xlink:href="#symbol7171"
           x="91.925003"
           y="81.962997"
           id="use998"
           width="100%"
           height="100%" />
      </g>
    </g>
  </g>
</svg>
