<?xml version="1.0" encoding="UTF-8" standalone="no"?>
<svg
   xmlns:dc="http://purl.org/dc/elements/1.1/"
   xmlns:cc="http://creativecommons.org/ns#"
   xmlns:rdf="http://www.w3.org/1999/02/22-rdf-syntax-ns#"
   xmlns:svg="http://www.w3.org/2000/svg"
   xmlns="http://www.w3.org/2000/svg"
   xmlns:xlink="http://www.w3.org/1999/xlink"
   xmlns:sodipodi="http://sodipodi.sourceforge.net/DTD/sodipodi-0.dtd"
   xmlns:inkscape="http://www.inkscape.org/namespaces/inkscape"
   id="Layer_1"
   data-name="Layer 1"
   viewBox="0 0 277.23 276.43"
   version="1.1"
   sodipodi:docname="Radiance.svg"
   inkscape:version="1.0.1 (3bc2e813f5, 2020-09-07)">
  <metadata
     id="metadata977">
    <rdf:RDF>
      <cc:Work
         rdf:about="">
        <dc:format>image/svg+xml</dc:format>
        <dc:type
           rdf:resource="http://purl.org/dc/dcmitype/StillImage" />
      </cc:Work>
    </rdf:RDF>
  </metadata>
  <sodipodi:namedview
     pagecolor="#ffffff"
     bordercolor="#666666"
     borderopacity="1"
     objecttolerance="10"
     gridtolerance="10"
     guidetolerance="10"
     inkscape:pageopacity="0"
     inkscape:pageshadow="2"
     inkscape:window-width="1920"
     inkscape:window-height="1017"
     id="namedview975"
     showgrid="false"
     inkscape:zoom="2.5863002"
     inkscape:cx="138.615"
     inkscape:cy="138.215"
     inkscape:window-x="1912"
     inkscape:window-y="-8"
     inkscape:window-maximized="1"
     inkscape:current-layer="Layer_1"
     inkscape:document-rotation="0" />
  <defs
     id="defs908">
    <style
       id="style906">.cls-1{fill:#ccc;}.cls-1,.cls-2,.cls-5,.cls-6{stroke:#000;stroke-miterlimit:10;}.cls-2,.cls-6{fill:none;}.cls-3{fill:#a6a6a6;}.cls-4{fill:#666;}.cls-5{fill:#b3b3b3;}.cls-6{stroke-width:0.5px;}</style>
    <g
       id="g9676">
      <symbol
         overflow="visible"
         id="symbol9157">
        <path
           style="stroke:none;"
           d=""
           id="path9371" />
      </symbol>
      <symbol
         overflow="visible"
         id="symbol3985">
        <path
           style="stroke:none;"
           d="M 3.609375 -1.390625 C 3.859375 -1.859375 4 -2.34375 4 -2.515625 C 4 -2.734375 3.875 -2.953125 3.625 -2.953125 C 3 -2.953125 2.9375 -1.890625 2.921875 -1.625 C 2.90625 -1.46875 2.90625 -1.46875 2.890625 -1.453125 C 2.734375 -1.3125 2.3125 -1.015625 1.78125 -1.015625 C 1.125 -1.015625 0.75 -1.453125 0.75 -2 C 0.75 -2.3125 0.921875 -3.0625 1.609375 -4 C 1.703125 -4.109375 1.71875 -4.140625 1.71875 -4.21875 C 1.71875 -4.34375 1.625 -4.421875 1.515625 -4.421875 C 1.421875 -4.421875 1.359375 -4.359375 1.34375 -4.359375 C 1.296875 -4.3125 0.21875 -3.015625 0.21875 -1.578125 C 0.21875 -0.578125 0.734375 0.078125 1.578125 0.078125 C 2.28125 0.078125 2.84375 -0.40625 3.0625 -0.640625 C 3.1875 -0.34375 3.484375 0.078125 4.140625 0.078125 C 5 0.078125 5.765625 -0.546875 6.203125 -1.21875 C 6.8125 -2.171875 6.890625 -3.453125 6.890625 -3.59375 C 6.890625 -4.359375 6.4375 -4.515625 6.234375 -4.515625 C 5.859375 -4.515625 5.46875 -4.109375 5.46875 -3.765625 C 5.46875 -3.5 5.65625 -3.375 5.765625 -3.296875 C 6.015625 -3.125 6.234375 -2.890625 6.234375 -2.578125 C 6.234375 -1.90625 5.390625 -1.015625 4.34375 -1.015625 C 4.0625 -1.015625 3.78125 -1.09375 3.609375 -1.390625 Z M 3.609375 -1.390625 "
           id="path9972" />
      </symbol>
    </g>
    <g
       id="g4840">
      <symbol
         overflow="visible"
         id="symbol8426">
        <path
           style="stroke:none;"
           d=""
           id="path6621" />
      </symbol>
      <symbol
         overflow="visible"
         id="symbol1232">
        <path
           style="stroke:none;"
           d="M 3.78125 -0.546875 L 3.78125 0.109375 L 5.25 0 L 5.25 -0.3125 C 4.5625 -0.3125 4.46875 -0.375 4.46875 -0.875 L 4.46875 -6.921875 L 3.046875 -6.8125 L 3.046875 -6.5 C 3.734375 -6.5 3.8125 -6.4375 3.8125 -5.9375 L 3.8125 -3.78125 C 3.53125 -4.140625 3.09375 -4.40625 2.5625 -4.40625 C 1.390625 -4.40625 0.34375 -3.421875 0.34375 -2.140625 C 0.34375 -0.875 1.3125 0.109375 2.453125 0.109375 C 3.09375 0.109375 3.53125 -0.234375 3.78125 -0.546875 Z M 3.78125 -3.21875 L 3.78125 -1.171875 C 3.78125 -1 3.78125 -0.984375 3.671875 -0.8125 C 3.375 -0.328125 2.9375 -0.109375 2.5 -0.109375 C 2.046875 -0.109375 1.6875 -0.375 1.453125 -0.75 C 1.203125 -1.15625 1.171875 -1.71875 1.171875 -2.140625 C 1.171875 -2.5 1.1875 -3.09375 1.46875 -3.546875 C 1.6875 -3.859375 2.0625 -4.1875 2.609375 -4.1875 C 2.953125 -4.1875 3.375 -4.03125 3.671875 -3.59375 C 3.78125 -3.421875 3.78125 -3.40625 3.78125 -3.21875 Z M 3.78125 -3.21875 "
           id="path2377" />
      </symbol>
      <symbol
         overflow="visible"
         id="symbol9867">
        <path
           style="stroke:none;"
           d=""
           id="path6851" />
      </symbol>
      <symbol
         overflow="visible"
         id="symbol5911">
        <path
           style="stroke:none;"
           d="M 1.78125 -1.140625 C 1.390625 -0.484375 1 -0.34375 0.5625 -0.3125 C 0.4375 -0.296875 0.34375 -0.296875 0.34375 -0.109375 C 0.34375 -0.046875 0.40625 0 0.484375 0 C 0.75 0 1.0625 -0.03125 1.328125 -0.03125 C 1.671875 -0.03125 2.015625 0 2.328125 0 C 2.390625 0 2.515625 0 2.515625 -0.1875 C 2.515625 -0.296875 2.4375 -0.3125 2.359375 -0.3125 C 2.140625 -0.328125 1.890625 -0.40625 1.890625 -0.65625 C 1.890625 -0.78125 1.953125 -0.890625 2.03125 -1.03125 L 2.796875 -2.296875 L 5.296875 -2.296875 C 5.3125 -2.09375 5.453125 -0.734375 5.453125 -0.640625 C 5.453125 -0.34375 4.9375 -0.3125 4.734375 -0.3125 C 4.59375 -0.3125 4.5 -0.3125 4.5 -0.109375 C 4.5 0 4.609375 0 4.640625 0 C 5.046875 0 5.46875 -0.03125 5.875 -0.03125 C 6.125 -0.03125 6.765625 0 7.015625 0 C 7.0625 0 7.1875 0 7.1875 -0.203125 C 7.1875 -0.3125 7.09375 -0.3125 6.953125 -0.3125 C 6.34375 -0.3125 6.34375 -0.375 6.3125 -0.671875 L 5.703125 -6.890625 C 5.6875 -7.09375 5.6875 -7.140625 5.515625 -7.140625 C 5.359375 -7.140625 5.3125 -7.0625 5.25 -6.96875 Z M 2.984375 -2.609375 L 4.9375 -5.90625 L 5.265625 -2.609375 Z M 2.984375 -2.609375 "
           id="path6781" />
      </symbol>
      <symbol
         overflow="visible"
         id="symbol2617">
        <path
           style="stroke:none;"
           d=""
           id="path8455" />
      </symbol>
      <symbol
         overflow="visible"
         id="symbol3995">
        <path
           style="stroke:none;"
           d="M 3.28125 -4.5625 C 3.28125 -4.671875 3.28125 -4.84375 3.109375 -4.84375 C 2.9375 -4.84375 2.9375 -4.671875 2.9375 -4.5625 L 2.9375 -0.34375 L 0.8125 -0.34375 C 0.703125 -0.34375 0.53125 -0.34375 0.53125 -0.171875 C 0.53125 0 0.703125 0 0.8125 0 L 5.40625 0 C 5.515625 0 5.6875 0 5.6875 -0.171875 C 5.6875 -0.34375 5.53125 -0.34375 5.40625 -0.34375 L 3.28125 -0.34375 Z M 3.28125 -4.5625 "
           id="path9268" />
      </symbol>
    </g>
    <g
       id="g2858">
      <symbol
         overflow="visible"
         id="symbol3882">
        <path
           style="stroke:none;"
           d=""
           id="path4687" />
      </symbol>
      <symbol
         overflow="visible"
         id="symbol8907">
        <path
           style="stroke:none;"
           d="M 3.78125 -0.546875 L 3.78125 0.109375 L 5.25 0 L 5.25 -0.3125 C 4.5625 -0.3125 4.46875 -0.375 4.46875 -0.875 L 4.46875 -6.921875 L 3.046875 -6.8125 L 3.046875 -6.5 C 3.734375 -6.5 3.8125 -6.4375 3.8125 -5.9375 L 3.8125 -3.78125 C 3.53125 -4.140625 3.09375 -4.40625 2.5625 -4.40625 C 1.390625 -4.40625 0.34375 -3.421875 0.34375 -2.140625 C 0.34375 -0.875 1.3125 0.109375 2.453125 0.109375 C 3.09375 0.109375 3.53125 -0.234375 3.78125 -0.546875 Z M 3.78125 -3.21875 L 3.78125 -1.171875 C 3.78125 -1 3.78125 -0.984375 3.671875 -0.8125 C 3.375 -0.328125 2.9375 -0.109375 2.5 -0.109375 C 2.046875 -0.109375 1.6875 -0.375 1.453125 -0.75 C 1.203125 -1.15625 1.171875 -1.71875 1.171875 -2.140625 C 1.171875 -2.5 1.1875 -3.09375 1.46875 -3.546875 C 1.6875 -3.859375 2.0625 -4.1875 2.609375 -4.1875 C 2.953125 -4.1875 3.375 -4.03125 3.671875 -3.59375 C 3.78125 -3.421875 3.78125 -3.40625 3.78125 -3.21875 Z M 3.78125 -3.21875 "
           id="path5225" />
      </symbol>
      <symbol
         overflow="visible"
         id="symbol8485">
        <path
           style="stroke:none;"
           d=""
           id="path7572" />
      </symbol>
      <symbol
         overflow="visible"
         id="symbol6812">
        <path
           style="stroke:none;"
           d="M 1.78125 -1.140625 C 1.390625 -0.484375 1 -0.34375 0.5625 -0.3125 C 0.4375 -0.296875 0.34375 -0.296875 0.34375 -0.109375 C 0.34375 -0.046875 0.40625 0 0.484375 0 C 0.75 0 1.0625 -0.03125 1.328125 -0.03125 C 1.671875 -0.03125 2.015625 0 2.328125 0 C 2.390625 0 2.515625 0 2.515625 -0.1875 C 2.515625 -0.296875 2.4375 -0.3125 2.359375 -0.3125 C 2.140625 -0.328125 1.890625 -0.40625 1.890625 -0.65625 C 1.890625 -0.78125 1.953125 -0.890625 2.03125 -1.03125 L 2.796875 -2.296875 L 5.296875 -2.296875 C 5.3125 -2.09375 5.453125 -0.734375 5.453125 -0.640625 C 5.453125 -0.34375 4.9375 -0.3125 4.734375 -0.3125 C 4.59375 -0.3125 4.5 -0.3125 4.5 -0.109375 C 4.5 0 4.609375 0 4.640625 0 C 5.046875 0 5.46875 -0.03125 5.875 -0.03125 C 6.125 -0.03125 6.765625 0 7.015625 0 C 7.0625 0 7.1875 0 7.1875 -0.203125 C 7.1875 -0.3125 7.09375 -0.3125 6.953125 -0.3125 C 6.34375 -0.3125 6.34375 -0.375 6.3125 -0.671875 L 5.703125 -6.890625 C 5.6875 -7.09375 5.6875 -7.140625 5.515625 -7.140625 C 5.359375 -7.140625 5.3125 -7.0625 5.25 -6.96875 Z M 2.984375 -2.609375 L 4.9375 -5.90625 L 5.265625 -2.609375 Z M 2.984375 -2.609375 "
           id="path6187" />
      </symbol>
    </g>
  </defs>
  <title
     id="title910">Radiance</title>
  <ellipse
     class="cls-1"
     cx="114.75"
     cy="161.05"
     rx="26.94"
     ry="10.44"
     id="ellipse912" />
  <polyline
     class="cls-2"
     points="114.53 8.1 114.53 162.14 269.12 162.14"
     id="polyline914" />
  <polygon
     points="109.02 13.01 114.53 8.75 120.03 13.01 114.53 0 109.02 13.01"
     id="polygon916" />
  <polygon
     class="cls-3"
     points="110.22 11.46 114.53 1.31 114.53 8.12 110.22 11.46"
     id="polygon918" />
  <polygon
     class="cls-4"
     points="118.82 11.46 114.53 1.31 114.53 8.12 118.82 11.46"
     id="polygon920" />
  <polygon
     points="264.21 167.64 268.47 162.14 264.21 156.63 277.23 162.14 264.21 167.64"
     id="polygon922" />
  <polygon
     class="cls-3"
     points="265.77 166.44 275.91 162.14 269.1 162.14 265.77 166.44"
     id="polygon924" />
  <polygon
     class="cls-4"
     points="265.77 157.84 275.91 162.14 269.1 162.14 265.77 157.84"
     id="polygon926" />
  <line
     class="cls-2"
     x1="114.65"
     y1="161.78"
     x2="5.73"
     y2="270.69"
     id="line928" />
  <polygon
     points="5.31 263.33 6.19 270.24 13.09 271.12 0 276.43 5.31 263.33"
     id="polygon930" />
  <polygon
     class="cls-3"
     points="5.06 265.28 0.93 275.5 5.74 270.68 5.06 265.28"
     id="polygon932" />
  <polygon
     class="cls-4"
     points="11.14 271.36 0.93 275.5 5.74 270.68 11.14 271.36"
     id="polygon934" />
  <line
     class="cls-2"
     x1="114.41"
     y1="161.39"
     x2="132.71"
     y2="139.64"
     id="line936" />
  <ellipse
     class="cls-5"
     cx="132.1"
     cy="140.38"
     rx="10.44"
     ry="26.94"
     transform="translate(-58.74 113.2) rotate(-38.63)"
     id="ellipse950" />
  <line
     class="cls-2"
     x1="132.71"
     y1="139.64"
     x2="214.58"
     y2="42.34"
     id="line952" />
  <polygon
     points="215.63 49.64 214.16 42.83 207.21 42.55 219.8 36.14 215.63 49.64"
     id="polygon954" />
  <polygon
     class="cls-3"
     points="215.71 47.67 218.95 37.14 214.57 42.35 215.71 47.67"
     id="polygon956" />
  <polygon
     class="cls-4"
     points="209.13 42.13 218.95 37.14 214.57 42.35 209.13 42.13"
     id="polygon958" />
  <line
     class="cls-2"
     x1="130.85"
     y1="138.38"
     x2="199.73"
     y2="44.69"
     id="line960" />
  <line
     class="cls-2"
     x1="114.4"
     y1="160.7"
     x2="124.38"
     y2="147.16"
     id="line962" />
  <line
     class="cls-2"
     x1="134.36"
     y1="141.21"
     x2="215.89"
     y2="56.81"
     id="line964" />
  <line
     class="cls-2"
     x1="114.74"
     y1="161.59"
     x2="126.3"
     y2="149.58"
     id="line966" />
  <ellipse
     class="cls-6"
     cx="132.51"
     cy="139.69"
     rx="1.62"
     ry="2.34"
     transform="translate(-59.99 135.93) rotate(-45.39)"
     id="ellipse968" />
  <ellipse
     class="cls-2"
     cx="207.75"
     cy="50.77"
     rx="4.12"
     ry="10.19"
     transform="translate(44.33 188.72) rotate(-53.9)"
     id="ellipse970" />
  <g
     inkscape:label=""
     transform="matrix(2,0,0,2,33.711707,-132.36979)"
     id="g1023">
    <g
       id="g906">
      <g
         style="fill:#000000;fill-opacity:1"
         id="g6413">
        <use
           xlink:href="#symbol3985"
           x="91.925003"
           y="81.962997"
           id="use7672"
           width="100%"
           height="100%" />
      </g>
    </g>
  </g>
  <g
     inkscape:label=""
     transform="matrix(2,0,0,2,-32.405908,-20.2405)"
     id="g1100">
    <g
       id="g5477">
      <g
         style="fill:#000000;fill-opacity:1"
         id="g3854">
        <use
           xlink:href="#symbol1232"
           x="91.925003"
           y="81.962997"
           id="use162"
           width="100%"
           height="100%" />
      </g>
      <g
         style="fill:#000000;fill-opacity:1"
         id="g4076">
        <use
           xlink:href="#symbol5911"
           x="97.459999"
           y="81.962997"
           id="use8520"
           width="100%"
           height="100%" />
      </g>
      <g
         style="fill:#000000;fill-opacity:1"
         id="g7844">
        <use
           xlink:href="#symbol3995"
           x="104.932"
           y="77.848999"
           id="use439"
           width="100%"
           height="100%" />
      </g>
    </g>
  </g>
  <g
     inkscape:label=""
     transform="matrix(2,0,0,2,-75.711012,26.931132)"
     id="g1204">
    <g
       id="g5400">
      <g
         style="fill:#000000;fill-opacity:1"
         id="g2310">
        <use
           xlink:href="#symbol8907"
           x="91.925003"
           y="81.962997"
           id="use6089"
           width="100%"
           height="100%" />
      </g>
      <g
         style="fill:#000000;fill-opacity:1"
         id="g3106">
        <use
           xlink:href="#symbol6812"
           x="97.459999"
           y="81.962997"
           id="use8071"
           width="100%"
           height="100%" />
      </g>
    </g>
  </g>
</svg>
