<?xml version="1.0" encoding="UTF-8" standalone="no"?>
<svg
   xmlns:dc="http://purl.org/dc/elements/1.1/"
   xmlns:cc="http://creativecommons.org/ns#"
   xmlns:rdf="http://www.w3.org/1999/02/22-rdf-syntax-ns#"
   xmlns:svg="http://www.w3.org/2000/svg"
   xmlns="http://www.w3.org/2000/svg"
   xmlns:xlink="http://www.w3.org/1999/xlink"
   xmlns:sodipodi="http://sodipodi.sourceforge.net/DTD/sodipodi-0.dtd"
   xmlns:inkscape="http://www.inkscape.org/namespaces/inkscape"
   id="Layer_1"
   data-name="Layer 1"
   viewBox="0 0 395.86 398.71"
   version="1.1"
   sodipodi:docname="Sindthetadphi.svg"
   inkscape:version="1.0.1 (3bc2e813f5, 2020-09-07)">
  <metadata
     id="metadata924">
    <rdf:RDF>
      <cc:Work
         rdf:about="">
        <dc:format>image/svg+xml</dc:format>
        <dc:type
           rdf:resource="http://purl.org/dc/dcmitype/StillImage" />
      </cc:Work>
    </rdf:RDF>
  </metadata>
  <sodipodi:namedview
     pagecolor="#ffffff"
     bordercolor="#666666"
     borderopacity="1"
     objecttolerance="10"
     gridtolerance="10"
     guidetolerance="10"
     inkscape:pageopacity="0"
     inkscape:pageshadow="2"
     inkscape:window-width="1920"
     inkscape:window-height="1017"
     id="namedview922"
     showgrid="false"
     inkscape:zoom="1.8112464"
     inkscape:cx="197.93"
     inkscape:cy="199.355"
     inkscape:window-x="1912"
     inkscape:window-y="-8"
     inkscape:window-maximized="1"
     inkscape:current-layer="Layer_1"
     inkscape:document-rotation="0" />
  <defs
     id="defs835">
    <style
       id="style833">.cls-1,.cls-6,.cls-7{fill:none;}.cls-1,.cls-4,.cls-5,.cls-6,.cls-7{stroke:#000;stroke-miterlimit:10;}.cls-2{fill:#a6a6a6;}.cls-3{fill:#666;}.cls-5{fill:#999;opacity:0.5;}.cls-6{stroke-width:0.5px;}.cls-7{stroke-dasharray:2;}</style>
    <g
       id="g4149">
      <symbol
         overflow="visible"
         id="symbol8695">
        <path
           style="stroke:none;"
           d=""
           id="path7316" />
      </symbol>
      <symbol
         overflow="visible"
         id="symbol8481">
        <path
           style="stroke:none;"
           d="M 3.328125 -3.015625 C 3.390625 -3.265625 3.625 -4.1875 4.3125 -4.1875 C 4.359375 -4.1875 4.609375 -4.1875 4.8125 -4.0625 C 4.53125 -4 4.34375 -3.765625 4.34375 -3.515625 C 4.34375 -3.359375 4.453125 -3.171875 4.71875 -3.171875 C 4.9375 -3.171875 5.25 -3.34375 5.25 -3.75 C 5.25 -4.265625 4.671875 -4.40625 4.328125 -4.40625 C 3.75 -4.40625 3.40625 -3.875 3.28125 -3.65625 C 3.03125 -4.3125 2.5 -4.40625 2.203125 -4.40625 C 1.171875 -4.40625 0.59375 -3.125 0.59375 -2.875 C 0.59375 -2.765625 0.703125 -2.765625 0.71875 -2.765625 C 0.796875 -2.765625 0.828125 -2.796875 0.84375 -2.875 C 1.1875 -3.9375 1.84375 -4.1875 2.1875 -4.1875 C 2.375 -4.1875 2.71875 -4.09375 2.71875 -3.515625 C 2.71875 -3.203125 2.546875 -2.546875 2.1875 -1.140625 C 2.03125 -0.53125 1.671875 -0.109375 1.234375 -0.109375 C 1.171875 -0.109375 0.953125 -0.109375 0.734375 -0.234375 C 0.984375 -0.296875 1.203125 -0.5 1.203125 -0.78125 C 1.203125 -1.046875 0.984375 -1.125 0.84375 -1.125 C 0.53125 -1.125 0.296875 -0.875 0.296875 -0.546875 C 0.296875 -0.09375 0.78125 0.109375 1.21875 0.109375 C 1.890625 0.109375 2.25 -0.59375 2.265625 -0.640625 C 2.390625 -0.28125 2.75 0.109375 3.34375 0.109375 C 4.375 0.109375 4.9375 -1.171875 4.9375 -1.421875 C 4.9375 -1.53125 4.859375 -1.53125 4.828125 -1.53125 C 4.734375 -1.53125 4.71875 -1.484375 4.6875 -1.421875 C 4.359375 -0.34375 3.6875 -0.109375 3.375 -0.109375 C 2.984375 -0.109375 2.828125 -0.421875 2.828125 -0.765625 C 2.828125 -0.984375 2.875 -1.203125 2.984375 -1.640625 Z M 3.328125 -3.015625 "
           id="path6773" />
      </symbol>
    </g>
    <g
       id="g143">
      <symbol
         overflow="visible"
         id="symbol5773">
        <path
           style="stroke:none;"
           d=""
           id="path5727" />
      </symbol>
      <symbol
         overflow="visible"
         id="symbol5160">
        <path
           style="stroke:none;"
           d="M 4.84375 -3.796875 C 4.890625 -3.9375 4.890625 -3.953125 4.890625 -4.03125 C 4.890625 -4.203125 4.75 -4.296875 4.59375 -4.296875 C 4.5 -4.296875 4.34375 -4.234375 4.25 -4.09375 C 4.234375 -4.03125 4.140625 -3.734375 4.109375 -3.546875 C 4.03125 -3.296875 3.96875 -3.015625 3.90625 -2.75 L 3.453125 -0.953125 C 3.421875 -0.8125 2.984375 -0.109375 2.328125 -0.109375 C 1.828125 -0.109375 1.71875 -0.546875 1.71875 -0.921875 C 1.71875 -1.375 1.890625 -2 2.21875 -2.875 C 2.375 -3.28125 2.421875 -3.390625 2.421875 -3.59375 C 2.421875 -4.03125 2.109375 -4.40625 1.609375 -4.40625 C 0.65625 -4.40625 0.296875 -2.953125 0.296875 -2.875 C 0.296875 -2.765625 0.390625 -2.765625 0.40625 -2.765625 C 0.515625 -2.765625 0.515625 -2.796875 0.5625 -2.953125 C 0.84375 -3.890625 1.234375 -4.1875 1.578125 -4.1875 C 1.65625 -4.1875 1.828125 -4.1875 1.828125 -3.875 C 1.828125 -3.625 1.71875 -3.359375 1.65625 -3.171875 C 1.25 -2.109375 1.078125 -1.546875 1.078125 -1.078125 C 1.078125 -0.1875 1.703125 0.109375 2.296875 0.109375 C 2.6875 0.109375 3.015625 -0.0625 3.296875 -0.34375 C 3.171875 0.171875 3.046875 0.671875 2.65625 1.203125 C 2.390625 1.53125 2.015625 1.828125 1.5625 1.828125 C 1.421875 1.828125 0.96875 1.796875 0.796875 1.40625 C 0.953125 1.40625 1.09375 1.40625 1.21875 1.28125 C 1.328125 1.203125 1.421875 1.0625 1.421875 0.875 C 1.421875 0.5625 1.15625 0.53125 1.0625 0.53125 C 0.828125 0.53125 0.5 0.6875 0.5 1.171875 C 0.5 1.671875 0.9375 2.046875 1.5625 2.046875 C 2.578125 2.046875 3.609375 1.140625 3.890625 0.015625 Z M 4.84375 -3.796875 "
           id="path9401" />
      </symbol>
    </g>
    <g
       id="g5864">
      <symbol
         overflow="visible"
         id="symbol2557">
        <path
           style="stroke:none;"
           d=""
           id="path7813" />
      </symbol>
      <symbol
         overflow="visible"
         id="symbol276">
        <path
           style="stroke:none;"
           d="M 1.328125 -0.828125 C 1.859375 -1.40625 2.15625 -1.65625 2.515625 -1.96875 C 2.515625 -1.96875 3.125 -2.5 3.484375 -2.859375 C 4.4375 -3.78125 4.65625 -4.265625 4.65625 -4.3125 C 4.65625 -4.40625 4.5625 -4.40625 4.546875 -4.40625 C 4.46875 -4.40625 4.453125 -4.390625 4.390625 -4.296875 C 4.09375 -3.8125 3.890625 -3.65625 3.65625 -3.65625 C 3.40625 -3.65625 3.296875 -3.8125 3.140625 -3.984375 C 2.953125 -4.203125 2.78125 -4.40625 2.453125 -4.40625 C 1.703125 -4.40625 1.25 -3.484375 1.25 -3.265625 C 1.25 -3.21875 1.28125 -3.15625 1.359375 -3.15625 C 1.453125 -3.15625 1.46875 -3.203125 1.5 -3.265625 C 1.6875 -3.734375 2.265625 -3.734375 2.34375 -3.734375 C 2.546875 -3.734375 2.734375 -3.671875 2.96875 -3.59375 C 3.375 -3.4375 3.484375 -3.4375 3.734375 -3.4375 C 3.375 -3.015625 2.546875 -2.296875 2.359375 -2.140625 L 1.453125 -1.296875 C 0.78125 -0.625 0.421875 -0.0625 0.421875 0.015625 C 0.421875 0.109375 0.53125 0.109375 0.546875 0.109375 C 0.625 0.109375 0.640625 0.09375 0.703125 -0.015625 C 0.9375 -0.375 1.234375 -0.640625 1.5625 -0.640625 C 1.78125 -0.640625 1.890625 -0.546875 2.140625 -0.265625 C 2.296875 -0.046875 2.484375 0.109375 2.765625 0.109375 C 3.765625 0.109375 4.34375 -1.15625 4.34375 -1.421875 C 4.34375 -1.46875 4.296875 -1.53125 4.21875 -1.53125 C 4.125 -1.53125 4.109375 -1.46875 4.078125 -1.390625 C 3.84375 -0.75 3.203125 -0.5625 2.875 -0.5625 C 2.6875 -0.5625 2.5 -0.625 2.296875 -0.6875 C 1.953125 -0.8125 1.796875 -0.859375 1.59375 -0.859375 C 1.578125 -0.859375 1.421875 -0.859375 1.328125 -0.828125 Z M 1.328125 -0.828125 "
           id="path4149" />
      </symbol>
    </g>
    <g
       id="g4915">
      <symbol
         overflow="visible"
         id="symbol4234">
        <path
           style="stroke:none;"
           d=""
           id="path90" />
      </symbol>
      <symbol
         overflow="visible"
         id="symbol7544">
        <path
           style="stroke:none;"
           d="M 4.53125 -4.984375 C 4.53125 -5.640625 4.359375 -7.03125 3.34375 -7.03125 C 1.953125 -7.03125 0.421875 -4.21875 0.421875 -1.9375 C 0.421875 -1 0.703125 0.109375 1.609375 0.109375 C 3.015625 0.109375 4.53125 -2.75 4.53125 -4.984375 Z M 1.46875 -3.625 C 1.640625 -4.25 1.84375 -5.046875 2.25 -5.765625 C 2.515625 -6.25 2.875 -6.8125 3.328125 -6.8125 C 3.8125 -6.8125 3.875 -6.171875 3.875 -5.609375 C 3.875 -5.109375 3.796875 -4.609375 3.5625 -3.625 Z M 3.46875 -3.296875 C 3.359375 -2.84375 3.15625 -2 2.765625 -1.28125 C 2.421875 -0.59375 2.046875 -0.109375 1.609375 -0.109375 C 1.28125 -0.109375 1.078125 -0.40625 1.078125 -1.328125 C 1.078125 -1.75 1.140625 -2.328125 1.390625 -3.296875 Z M 3.46875 -3.296875 "
           id="path7553" />
      </symbol>
    </g>
    <g
       id="g7421">
      <symbol
         overflow="visible"
         id="symbol474">
        <path
           style="stroke:none;"
           d=""
           id="path6178" />
      </symbol>
      <symbol
         overflow="visible"
         id="symbol9751">
        <path
           style="stroke:none;"
           d="M 2.078125 -1.9375 C 2.296875 -1.890625 3.109375 -1.734375 3.109375 -1.015625 C 3.109375 -0.515625 2.765625 -0.109375 1.984375 -0.109375 C 1.140625 -0.109375 0.78125 -0.671875 0.59375 -1.53125 C 0.5625 -1.65625 0.5625 -1.6875 0.453125 -1.6875 C 0.328125 -1.6875 0.328125 -1.625 0.328125 -1.453125 L 0.328125 -0.125 C 0.328125 0.046875 0.328125 0.109375 0.4375 0.109375 C 0.484375 0.109375 0.5 0.09375 0.6875 -0.09375 C 0.703125 -0.109375 0.703125 -0.125 0.890625 -0.3125 C 1.328125 0.09375 1.78125 0.109375 1.984375 0.109375 C 3.125 0.109375 3.59375 -0.5625 3.59375 -1.28125 C 3.59375 -1.796875 3.296875 -2.109375 3.171875 -2.21875 C 2.84375 -2.546875 2.453125 -2.625 2.03125 -2.703125 C 1.46875 -2.8125 0.8125 -2.9375 0.8125 -3.515625 C 0.8125 -3.875 1.0625 -4.28125 1.921875 -4.28125 C 3.015625 -4.28125 3.078125 -3.375 3.09375 -3.078125 C 3.09375 -2.984375 3.1875 -2.984375 3.203125 -2.984375 C 3.34375 -2.984375 3.34375 -3.03125 3.34375 -3.21875 L 3.34375 -4.234375 C 3.34375 -4.390625 3.34375 -4.46875 3.234375 -4.46875 C 3.1875 -4.46875 3.15625 -4.46875 3.03125 -4.34375 C 3 -4.3125 2.90625 -4.21875 2.859375 -4.1875 C 2.484375 -4.46875 2.078125 -4.46875 1.921875 -4.46875 C 0.703125 -4.46875 0.328125 -3.796875 0.328125 -3.234375 C 0.328125 -2.890625 0.484375 -2.609375 0.75 -2.390625 C 1.078125 -2.140625 1.359375 -2.078125 2.078125 -1.9375 Z M 2.078125 -1.9375 "
           id="path9305" />
      </symbol>
      <symbol
         overflow="visible"
         id="symbol2042">
        <path
           style="stroke:none;"
           d="M 1.765625 -4.40625 L 0.375 -4.296875 L 0.375 -3.984375 C 1.015625 -3.984375 1.109375 -3.921875 1.109375 -3.4375 L 1.109375 -0.75 C 1.109375 -0.3125 1 -0.3125 0.328125 -0.3125 L 0.328125 0 C 0.640625 -0.015625 1.1875 -0.03125 1.421875 -0.03125 C 1.78125 -0.03125 2.125 -0.015625 2.46875 0 L 2.46875 -0.3125 C 1.796875 -0.3125 1.765625 -0.359375 1.765625 -0.75 Z M 1.796875 -6.140625 C 1.796875 -6.453125 1.5625 -6.671875 1.28125 -6.671875 C 0.96875 -6.671875 0.75 -6.40625 0.75 -6.140625 C 0.75 -5.875 0.96875 -5.609375 1.28125 -5.609375 C 1.5625 -5.609375 1.796875 -5.828125 1.796875 -6.140625 Z M 1.796875 -6.140625 "
           id="path5063" />
      </symbol>
      <symbol
         overflow="visible"
         id="symbol2261">
        <path
           style="stroke:none;"
           d="M 1.09375 -3.421875 L 1.09375 -0.75 C 1.09375 -0.3125 0.984375 -0.3125 0.3125 -0.3125 L 0.3125 0 C 0.671875 -0.015625 1.171875 -0.03125 1.453125 -0.03125 C 1.703125 -0.03125 2.21875 -0.015625 2.5625 0 L 2.5625 -0.3125 C 1.890625 -0.3125 1.78125 -0.3125 1.78125 -0.75 L 1.78125 -2.59375 C 1.78125 -3.625 2.5 -4.1875 3.125 -4.1875 C 3.765625 -4.1875 3.875 -3.65625 3.875 -3.078125 L 3.875 -0.75 C 3.875 -0.3125 3.765625 -0.3125 3.09375 -0.3125 L 3.09375 0 C 3.4375 -0.015625 3.953125 -0.03125 4.21875 -0.03125 C 4.46875 -0.03125 5 -0.015625 5.328125 0 L 5.328125 -0.3125 C 4.8125 -0.3125 4.5625 -0.3125 4.5625 -0.609375 L 4.5625 -2.515625 C 4.5625 -3.375 4.5625 -3.671875 4.25 -4.03125 C 4.109375 -4.203125 3.78125 -4.40625 3.203125 -4.40625 C 2.46875 -4.40625 2 -3.984375 1.71875 -3.359375 L 1.71875 -4.40625 L 0.3125 -4.296875 L 0.3125 -3.984375 C 1.015625 -3.984375 1.09375 -3.921875 1.09375 -3.421875 Z M 1.09375 -3.421875 "
           id="path2800" />
      </symbol>
      <symbol
         overflow="visible"
         id="symbol3064">
        <path
           style="stroke:none;"
           d=""
           id="path252" />
      </symbol>
      <symbol
         overflow="visible"
         id="symbol4905">
        <path
           style="stroke:none;"
           d="M 4.53125 -4.984375 C 4.53125 -5.640625 4.359375 -7.03125 3.34375 -7.03125 C 1.953125 -7.03125 0.421875 -4.21875 0.421875 -1.9375 C 0.421875 -1 0.703125 0.109375 1.609375 0.109375 C 3.015625 0.109375 4.53125 -2.75 4.53125 -4.984375 Z M 1.46875 -3.625 C 1.640625 -4.25 1.84375 -5.046875 2.25 -5.765625 C 2.515625 -6.25 2.875 -6.8125 3.328125 -6.8125 C 3.8125 -6.8125 3.875 -6.171875 3.875 -5.609375 C 3.875 -5.109375 3.796875 -4.609375 3.5625 -3.625 Z M 3.46875 -3.296875 C 3.359375 -2.84375 3.15625 -2 2.765625 -1.28125 C 2.421875 -0.59375 2.046875 -0.109375 1.609375 -0.109375 C 1.28125 -0.109375 1.078125 -0.40625 1.078125 -1.328125 C 1.078125 -1.75 1.140625 -2.328125 1.390625 -3.296875 Z M 3.46875 -3.296875 "
           id="path9756" />
      </symbol>
    </g>
    <g
       id="g8766">
      <symbol
         overflow="visible"
         id="symbol6363">
        <path
           style="stroke:none;"
           d=""
           id="path1522" />
      </symbol>
      <symbol
         overflow="visible"
         id="symbol4529">
        <path
           style="stroke:none;"
           d="M 2.078125 -1.9375 C 2.296875 -1.890625 3.109375 -1.734375 3.109375 -1.015625 C 3.109375 -0.515625 2.765625 -0.109375 1.984375 -0.109375 C 1.140625 -0.109375 0.78125 -0.671875 0.59375 -1.53125 C 0.5625 -1.65625 0.5625 -1.6875 0.453125 -1.6875 C 0.328125 -1.6875 0.328125 -1.625 0.328125 -1.453125 L 0.328125 -0.125 C 0.328125 0.046875 0.328125 0.109375 0.4375 0.109375 C 0.484375 0.109375 0.5 0.09375 0.6875 -0.09375 C 0.703125 -0.109375 0.703125 -0.125 0.890625 -0.3125 C 1.328125 0.09375 1.78125 0.109375 1.984375 0.109375 C 3.125 0.109375 3.59375 -0.5625 3.59375 -1.28125 C 3.59375 -1.796875 3.296875 -2.109375 3.171875 -2.21875 C 2.84375 -2.546875 2.453125 -2.625 2.03125 -2.703125 C 1.46875 -2.8125 0.8125 -2.9375 0.8125 -3.515625 C 0.8125 -3.875 1.0625 -4.28125 1.921875 -4.28125 C 3.015625 -4.28125 3.078125 -3.375 3.09375 -3.078125 C 3.09375 -2.984375 3.1875 -2.984375 3.203125 -2.984375 C 3.34375 -2.984375 3.34375 -3.03125 3.34375 -3.21875 L 3.34375 -4.234375 C 3.34375 -4.390625 3.34375 -4.46875 3.234375 -4.46875 C 3.1875 -4.46875 3.15625 -4.46875 3.03125 -4.34375 C 3 -4.3125 2.90625 -4.21875 2.859375 -4.1875 C 2.484375 -4.46875 2.078125 -4.46875 1.921875 -4.46875 C 0.703125 -4.46875 0.328125 -3.796875 0.328125 -3.234375 C 0.328125 -2.890625 0.484375 -2.609375 0.75 -2.390625 C 1.078125 -2.140625 1.359375 -2.078125 2.078125 -1.9375 Z M 2.078125 -1.9375 "
           id="path6702" />
      </symbol>
      <symbol
         overflow="visible"
         id="symbol9231">
        <path
           style="stroke:none;"
           d="M 1.765625 -4.40625 L 0.375 -4.296875 L 0.375 -3.984375 C 1.015625 -3.984375 1.109375 -3.921875 1.109375 -3.4375 L 1.109375 -0.75 C 1.109375 -0.3125 1 -0.3125 0.328125 -0.3125 L 0.328125 0 C 0.640625 -0.015625 1.1875 -0.03125 1.421875 -0.03125 C 1.78125 -0.03125 2.125 -0.015625 2.46875 0 L 2.46875 -0.3125 C 1.796875 -0.3125 1.765625 -0.359375 1.765625 -0.75 Z M 1.796875 -6.140625 C 1.796875 -6.453125 1.5625 -6.671875 1.28125 -6.671875 C 0.96875 -6.671875 0.75 -6.40625 0.75 -6.140625 C 0.75 -5.875 0.96875 -5.609375 1.28125 -5.609375 C 1.5625 -5.609375 1.796875 -5.828125 1.796875 -6.140625 Z M 1.796875 -6.140625 "
           id="path5335" />
      </symbol>
      <symbol
         overflow="visible"
         id="symbol3221">
        <path
           style="stroke:none;"
           d="M 1.09375 -3.421875 L 1.09375 -0.75 C 1.09375 -0.3125 0.984375 -0.3125 0.3125 -0.3125 L 0.3125 0 C 0.671875 -0.015625 1.171875 -0.03125 1.453125 -0.03125 C 1.703125 -0.03125 2.21875 -0.015625 2.5625 0 L 2.5625 -0.3125 C 1.890625 -0.3125 1.78125 -0.3125 1.78125 -0.75 L 1.78125 -2.59375 C 1.78125 -3.625 2.5 -4.1875 3.125 -4.1875 C 3.765625 -4.1875 3.875 -3.65625 3.875 -3.078125 L 3.875 -0.75 C 3.875 -0.3125 3.765625 -0.3125 3.09375 -0.3125 L 3.09375 0 C 3.4375 -0.015625 3.953125 -0.03125 4.21875 -0.03125 C 4.46875 -0.03125 5 -0.015625 5.328125 0 L 5.328125 -0.3125 C 4.8125 -0.3125 4.5625 -0.3125 4.5625 -0.609375 L 4.5625 -2.515625 C 4.5625 -3.375 4.5625 -3.671875 4.25 -4.03125 C 4.109375 -4.203125 3.78125 -4.40625 3.203125 -4.40625 C 2.46875 -4.40625 2 -3.984375 1.71875 -3.359375 L 1.71875 -4.40625 L 0.3125 -4.296875 L 0.3125 -3.984375 C 1.015625 -3.984375 1.09375 -3.921875 1.09375 -3.421875 Z M 1.09375 -3.421875 "
           id="path2241" />
      </symbol>
      <symbol
         overflow="visible"
         id="symbol7084">
        <path
           style="stroke:none;"
           d="M 3.78125 -0.546875 L 3.78125 0.109375 L 5.25 0 L 5.25 -0.3125 C 4.5625 -0.3125 4.46875 -0.375 4.46875 -0.875 L 4.46875 -6.921875 L 3.046875 -6.8125 L 3.046875 -6.5 C 3.734375 -6.5 3.8125 -6.4375 3.8125 -5.9375 L 3.8125 -3.78125 C 3.53125 -4.140625 3.09375 -4.40625 2.5625 -4.40625 C 1.390625 -4.40625 0.34375 -3.421875 0.34375 -2.140625 C 0.34375 -0.875 1.3125 0.109375 2.453125 0.109375 C 3.09375 0.109375 3.53125 -0.234375 3.78125 -0.546875 Z M 3.78125 -3.21875 L 3.78125 -1.171875 C 3.78125 -1 3.78125 -0.984375 3.671875 -0.8125 C 3.375 -0.328125 2.9375 -0.109375 2.5 -0.109375 C 2.046875 -0.109375 1.6875 -0.375 1.453125 -0.75 C 1.203125 -1.15625 1.171875 -1.71875 1.171875 -2.140625 C 1.171875 -2.5 1.1875 -3.09375 1.46875 -3.546875 C 1.6875 -3.859375 2.0625 -4.1875 2.609375 -4.1875 C 2.953125 -4.1875 3.375 -4.03125 3.671875 -3.59375 C 3.78125 -3.421875 3.78125 -3.40625 3.78125 -3.21875 Z M 3.78125 -3.21875 "
           id="path7753" />
      </symbol>
      <symbol
         overflow="visible"
         id="symbol9709">
        <path
           style="stroke:none;"
           d=""
           id="path7974" />
      </symbol>
      <symbol
         overflow="visible"
         id="symbol5221">
        <path
           style="stroke:none;"
           d="M 4.53125 -4.984375 C 4.53125 -5.640625 4.359375 -7.03125 3.34375 -7.03125 C 1.953125 -7.03125 0.421875 -4.21875 0.421875 -1.9375 C 0.421875 -1 0.703125 0.109375 1.609375 0.109375 C 3.015625 0.109375 4.53125 -2.75 4.53125 -4.984375 Z M 1.46875 -3.625 C 1.640625 -4.25 1.84375 -5.046875 2.25 -5.765625 C 2.515625 -6.25 2.875 -6.8125 3.328125 -6.8125 C 3.8125 -6.8125 3.875 -6.171875 3.875 -5.609375 C 3.875 -5.109375 3.796875 -4.609375 3.5625 -3.625 Z M 3.46875 -3.296875 C 3.359375 -2.84375 3.15625 -2 2.765625 -1.28125 C 2.421875 -0.59375 2.046875 -0.109375 1.609375 -0.109375 C 1.28125 -0.109375 1.078125 -0.40625 1.078125 -1.328125 C 1.078125 -1.75 1.140625 -2.328125 1.390625 -3.296875 Z M 3.46875 -3.296875 "
           id="path4163" />
      </symbol>
      <symbol
         overflow="visible"
         id="symbol8958">
        <path
           style="stroke:none;"
           d="M 1.6875 1.6875 C 1.65625 1.828125 1.640625 1.84375 1.640625 1.890625 C 1.640625 2.109375 1.828125 2.171875 1.9375 2.171875 C 1.984375 2.171875 2.203125 2.140625 2.296875 1.90625 C 2.328125 1.828125 2.375 1.5 2.65625 0.09375 C 2.734375 0.09375 2.8125 0.109375 2.984375 0.109375 C 4.640625 0.109375 6.171875 -1.453125 6.171875 -3.03125 C 6.171875 -3.8125 5.78125 -4.40625 5.03125 -4.40625 C 3.59375 -4.40625 2.984375 -2.46875 2.390625 -0.53125 C 1.3125 -0.734375 0.75 -1.28125 0.75 -2 C 0.75 -2.28125 0.984375 -3.375 1.578125 -4.0625 C 1.671875 -4.15625 1.671875 -4.171875 1.671875 -4.203125 C 1.671875 -4.234375 1.640625 -4.296875 1.546875 -4.296875 C 1.265625 -4.296875 0.5 -2.84375 0.5 -1.890625 C 0.5 -0.953125 1.15625 -0.234375 2.21875 0.015625 Z M 3.078125 -0.46875 C 2.984375 -0.46875 2.96875 -0.46875 2.890625 -0.484375 C 2.765625 -0.484375 2.765625 -0.484375 2.765625 -0.515625 C 2.765625 -0.53125 2.9375 -1.453125 2.953125 -1.59375 C 3.265625 -2.875 4.046875 -3.828125 4.9375 -3.828125 C 5.625 -3.828125 5.890625 -3.296875 5.890625 -2.8125 C 5.890625 -1.6875 4.609375 -0.46875 3.078125 -0.46875 Z M 3.078125 -0.46875 "
           id="path262" />
      </symbol>
    </g>
    <g
       id="g7067">
      <symbol
         overflow="visible"
         id="symbol3394">
        <path
           style="stroke:none;"
           d=""
           id="path7383" />
      </symbol>
      <symbol
         overflow="visible"
         id="symbol842">
        <path
           style="stroke:none;"
           d="M 3.78125 -0.546875 L 3.78125 0.109375 L 5.25 0 L 5.25 -0.3125 C 4.5625 -0.3125 4.46875 -0.375 4.46875 -0.875 L 4.46875 -6.921875 L 3.046875 -6.8125 L 3.046875 -6.5 C 3.734375 -6.5 3.8125 -6.4375 3.8125 -5.9375 L 3.8125 -3.78125 C 3.53125 -4.140625 3.09375 -4.40625 2.5625 -4.40625 C 1.390625 -4.40625 0.34375 -3.421875 0.34375 -2.140625 C 0.34375 -0.875 1.3125 0.109375 2.453125 0.109375 C 3.09375 0.109375 3.53125 -0.234375 3.78125 -0.546875 Z M 3.78125 -3.21875 L 3.78125 -1.171875 C 3.78125 -1 3.78125 -0.984375 3.671875 -0.8125 C 3.375 -0.328125 2.9375 -0.109375 2.5 -0.109375 C 2.046875 -0.109375 1.6875 -0.375 1.453125 -0.75 C 1.203125 -1.15625 1.171875 -1.71875 1.171875 -2.140625 C 1.171875 -2.5 1.1875 -3.09375 1.46875 -3.546875 C 1.6875 -3.859375 2.0625 -4.1875 2.609375 -4.1875 C 2.953125 -4.1875 3.375 -4.03125 3.671875 -3.59375 C 3.78125 -3.421875 3.78125 -3.40625 3.78125 -3.21875 Z M 3.78125 -3.21875 "
           id="path2289" />
      </symbol>
      <symbol
         overflow="visible"
         id="symbol2898">
        <path
           style="stroke:none;"
           d=""
           id="path7586" />
      </symbol>
      <symbol
         overflow="visible"
         id="symbol9762">
        <path
           style="stroke:none;"
           d="M 4.53125 -4.984375 C 4.53125 -5.640625 4.359375 -7.03125 3.34375 -7.03125 C 1.953125 -7.03125 0.421875 -4.21875 0.421875 -1.9375 C 0.421875 -1 0.703125 0.109375 1.609375 0.109375 C 3.015625 0.109375 4.53125 -2.75 4.53125 -4.984375 Z M 1.46875 -3.625 C 1.640625 -4.25 1.84375 -5.046875 2.25 -5.765625 C 2.515625 -6.25 2.875 -6.8125 3.328125 -6.8125 C 3.8125 -6.8125 3.875 -6.171875 3.875 -5.609375 C 3.875 -5.109375 3.796875 -4.609375 3.5625 -3.625 Z M 3.46875 -3.296875 C 3.359375 -2.84375 3.15625 -2 2.765625 -1.28125 C 2.421875 -0.59375 2.046875 -0.109375 1.609375 -0.109375 C 1.28125 -0.109375 1.078125 -0.40625 1.078125 -1.328125 C 1.078125 -1.75 1.140625 -2.328125 1.390625 -3.296875 Z M 3.46875 -3.296875 "
           id="path2476" />
      </symbol>
    </g>
  </defs>
  <title
     id="title837">Sin dtheta dphi</title>
  <circle
     class="cls-1"
     cx="179.22"
     cy="219.48"
     r="178.72"
     id="circle839" />
  <ellipse
     class="cls-1"
     cx="178.91"
     cy="219.59"
     rx="177.94"
     ry="48.82"
     id="ellipse841" />
  <line
     class="cls-1"
     x1="177.73"
     y1="221.75"
     x2="177.73"
     y2="29.89"
     id="line843" />
  <polygon
     points="183.24 34.8 177.73 30.54 172.23 34.8 177.73 21.79 183.24 34.8"
     id="polygon845" />
  <polygon
     class="cls-2"
     points="182.03 33.24 177.73 23.1 177.73 29.91 182.03 33.24"
     id="polygon847" />
  <polygon
     class="cls-3"
     points="173.44 33.24 177.73 23.1 177.73 29.91 173.44 33.24"
     id="polygon849" />
  <circle
     class="cls-4"
     cx="177.98"
     cy="221.16"
     r="2.25"
     id="circle853" />
  <line
     class="cls-1"
     x1="177.75"
     y1="221.01"
     x2="369.61"
     y2="220.27"
     id="line855" />
  <polygon
     points="364.72 225.8 368.96 220.28 364.68 214.79 377.71 220.24 364.72 225.8"
     id="polygon857" />
  <polygon
     class="cls-2"
     points="366.27 224.59 376.4 220.25 369.59 220.27 366.27 224.59"
     id="polygon859" />
  <polygon
     class="cls-3"
     points="366.24 215.99 376.4 220.25 369.59 220.27 366.24 215.99"
     id="polygon861" />
  <line
     class="cls-1"
     x1="179.3"
     y1="218.84"
     x2="43.63"
     y2="354.51"
     id="line863" />
  <polygon
     points="43.21 347.14 44.09 354.05 51 354.93 37.9 360.24 43.21 347.14"
     id="polygon865" />
  <polygon
     class="cls-2"
     points="42.96 349.1 38.83 359.31 43.65 354.49 42.96 349.1"
     id="polygon867" />
  <polygon
     class="cls-3"
     points="49.04 355.18 38.83 359.31 43.65 354.49 49.04 355.18"
     id="polygon869" />
  <path
     class="cls-1"
     d="M177.92,143.25a76.12,76.12,0,0,1,48.53,17.27"
     id="path877" />
  <polygon
     class="cls-5"
     points="267.24 110 277.03 118.86 269.24 123.99 260.34 117.55 267.24 110"
     id="polygon879" />
  <line
     class="cls-1"
     x1="263.43"
     y1="113.6"
     x2="177.52"
     y2="113.6"
     id="line881" />
  <line
     class="cls-1"
     x1="277.03"
     y1="232.75"
     x2="269.02"
     y2="239.59"
     id="line907" />
  <line
     class="cls-6"
     x1="277.03"
     y1="118.86"
     x2="178.05"
     y2="221"
     id="line909" />
  <line
     class="cls-7"
     x1="277.03"
     y1="232.75"
     x2="277.03"
     y2="118.86"
     id="line911" />
  <polyline
     class="cls-1"
     points="269.02 239.59 178.05 221 277.03 232.75"
     id="polyline913" />
  <line
     class="cls-7"
     x1="269.02"
     y1="123.99"
     x2="269.02"
     y2="239.59"
     id="line915" />
  <line
     class="cls-6"
     x1="178.05"
     y1="221"
     x2="269.02"
     y2="123.99"
     id="line917" />
  <line
     class="cls-6"
     x1="260.34"
     y1="117.55"
     x2="178.05"
     y2="221"
     id="line919" />
  <g
     inkscape:label=""
     transform="matrix(2,0,0,2,196.2535,60.931059)"
     id="g980">
    <g
       id="g252">
      <g
         style="fill:#000000;fill-opacity:1"
         id="g8465">
        <use
           xlink:href="#symbol8481"
           x="91.925003"
           y="81.962997"
           id="use9712"
           width="100%"
           height="100%" />
      </g>
    </g>
  </g>
  <g
     inkscape:label=""
     transform="matrix(2,0,0,2,-160.95908,207.79125)"
     id="g1055">
    <g
       id="g6259">
      <g
         style="fill:#000000;fill-opacity:1"
         id="g1693">
        <use
           xlink:href="#symbol5160"
           x="91.925003"
           y="81.962997"
           id="use163"
           width="100%"
           height="100%" />
      </g>
    </g>
  </g>
  <g
     inkscape:label=""
     transform="matrix(2,0,0,2,-11.890458,-145.00448)"
     id="g1139">
    <g
       id="g7885">
      <g
         style="fill:#000000;fill-opacity:1"
         id="g6125">
        <use
           xlink:href="#symbol276"
           x="91.925003"
           y="81.962997"
           id="use2599"
           width="100%"
           height="100%" />
      </g>
    </g>
  </g>
  <g
     inkscape:label=""
     transform="matrix(2,0,0,2,19.579584,-22.436949)"
     id="g1232">
    <g
       id="g9781">
      <g
         style="fill:#000000;fill-opacity:1"
         id="g589">
        <use
           xlink:href="#symbol7544"
           x="91.925003"
           y="81.962997"
           id="use3652"
           width="100%"
           height="100%" />
      </g>
    </g>
  </g>
  <g
     inkscape:label=""
     transform="matrix(2,0,0,2,20.683796,-58.875947)"
     id="g1346">
    <g
       id="g3502">
      <g
         style="fill:#000000;fill-opacity:1"
         id="g5828">
        <use
           xlink:href="#symbol9751"
           x="91.925003"
           y="81.962997"
           id="use6681"
           width="100%"
           height="100%" />
        <use
           xlink:href="#symbol2042"
           x="95.854248"
           y="81.962997"
           id="use5563"
           width="100%"
           height="100%" />
        <use
           xlink:href="#symbol2261"
           x="98.621857"
           y="81.962997"
           id="use2137"
           width="100%"
           height="100%" />
      </g>
      <g
         style="fill:#000000;fill-opacity:1"
         id="g8834">
        <use
           xlink:href="#symbol4905"
           x="105.818"
           y="81.962997"
           id="use4243"
           width="100%"
           height="100%" />
      </g>
    </g>
  </g>
  <g
     inkscape:label=""
     transform="matrix(2,0,0,2,95.42653,74.525284)"
     id="g1501">
    <g
       id="g2212">
      <g
         style="fill:#000000;fill-opacity:1"
         id="g2878">
        <use
           xlink:href="#symbol4529"
           x="91.925003"
           y="81.962997"
           id="use9968"
           width="100%"
           height="100%" />
        <use
           xlink:href="#symbol9231"
           x="95.854248"
           y="81.962997"
           id="use4534"
           width="100%"
           height="100%" />
        <use
           xlink:href="#symbol3221"
           x="98.621857"
           y="81.962997"
           id="use272"
           width="100%"
           height="100%" />
      </g>
      <g
         style="fill:#000000;fill-opacity:1"
         id="g580">
        <use
           xlink:href="#symbol5221"
           x="105.818"
           y="81.962997"
           id="use9991"
           width="100%"
           height="100%" />
      </g>
      <g
         style="fill:#000000;fill-opacity:1"
         id="g1134">
        <use
           xlink:href="#symbol7084"
           x="110.771"
           y="81.962997"
           id="use4664"
           width="100%"
           height="100%" />
      </g>
      <g
         style="fill:#000000;fill-opacity:1"
         id="g4297">
        <use
           xlink:href="#symbol8958"
           x="116.306"
           y="81.962997"
           id="use1273"
           width="100%"
           height="100%" />
      </g>
    </g>
  </g>
  <g
     inkscape:label=""
     transform="matrix(2,0,0,2,90.249152,-52.250675)"
     id="g1679">
    <g
       id="g4896">
      <g
         style="fill:#000000;fill-opacity:1"
         id="g988">
        <use
           xlink:href="#symbol842"
           x="91.925003"
           y="81.962997"
           id="use6634"
           width="100%"
           height="100%" />
      </g>
      <g
         style="fill:#000000;fill-opacity:1"
         id="g5028">
        <use
           xlink:href="#symbol9762"
           x="97.459999"
           y="81.962997"
           id="use380"
           width="100%"
           height="100%" />
      </g>
    </g>
  </g>
</svg>
