<svg id="Layer_1" data-name="Layer 1" xmlns="http://www.w3.org/2000/svg" viewBox="0 0 549.16 438.99"><defs><style>.cls-1{fill:none;}.cls-1,.cls-2,.cls-5{stroke:#000;stroke-miterlimit:10;}.cls-2,.cls-5{fill:#b3b3b3;}.cls-3{fill:#a6a6a6;}.cls-4{fill:#666;}.cls-5{stroke-width:3px;}</style></defs><title>Solid angle</title><circle class="cls-1" cx="179.22" cy="259.76" r="178.72"/><path class="cls-2" d="M428,50.12c12-9.24,21.08-7,21.08-7,7.28,11.42-2.51,13.94,3.47,11,21.25-10.56,22,11.89,32.65,6s21.44-16,12.85,5.77-34,15.64-25,32.81,21.67,14.31,22.1,18.49S472,135.71,470,136.09l-3.87-42s-2.26-11.79-16-17-18.67-6.93-21.28-10.53Z"/><line class="cls-1" x1="178.51" y1="260.61" x2="481.35" y2="5.22"/><polygon points="481.14 12.6 480.85 5.64 474.04 4.18 487.54 0 481.14 12.6"/><polygon class="cls-3" points="481.56 10.67 486.54 0.85 481.33 5.24 481.56 10.67"/><polygon class="cls-4" points="476.01 4.1 486.54 0.85 481.33 5.24 476.01 4.1"/><line class="cls-1" x1="177.45" y1="261.62" x2="541.71" y2="105.93"/><polygon points="539.36 112.92 541.11 106.18 535.03 102.79 549.16 102.74 539.36 112.92"/><polygon class="cls-3" points="540.32 111.2 547.96 103.26 541.69 105.93 540.32 111.2"/><polygon class="cls-4" points="536.94 103.29 547.96 103.26 541.69 105.93 536.94 103.29"/><path class="cls-5" d="M273.6,181.12c7.2-6.77,13.06-8,13.06-8,5.2,3-.91,6.44,2.75,3.75,13-9.54,14.58-.33,21.06-5.35s12.85-11.88,8.46-.69S298,185.57,304.64,190.57s14.49.76,15,2.4-13.79,13.34-15.05,14L300,190.33s-2-4.39-11-3.28-12.21,1.61-14,.73Z"/><ellipse class="cls-1" cx="178.91" cy="259.87" rx="177.94" ry="48.82"/></svg>