<?xml version="1.0" encoding="UTF-8" standalone="no"?>
<svg
   xmlns:dc="http://purl.org/dc/elements/1.1/"
   xmlns:cc="http://creativecommons.org/ns#"
   xmlns:rdf="http://www.w3.org/1999/02/22-rdf-syntax-ns#"
   xmlns:svg="http://www.w3.org/2000/svg"
   xmlns="http://www.w3.org/2000/svg"
   xmlns:xlink="http://www.w3.org/1999/xlink"
   xmlns:sodipodi="http://sodipodi.sourceforge.net/DTD/sodipodi-0.dtd"
   xmlns:inkscape="http://www.inkscape.org/namespaces/inkscape"
   id="Layer_1"
   data-name="Layer 1"
   viewBox="0 0 395.86 393.28"
   version="1.1"
   sodipodi:docname="Sphericalcoordinates.svg"
   inkscape:version="1.0.1 (3bc2e813f5, 2020-09-07)">
  <metadata
     id="metadata896">
    <rdf:RDF>
      <cc:Work
         rdf:about="">
        <dc:format>image/svg+xml</dc:format>
        <dc:type
           rdf:resource="http://purl.org/dc/dcmitype/StillImage" />
      </cc:Work>
    </rdf:RDF>
  </metadata>
  <sodipodi:namedview
     pagecolor="#ffffff"
     bordercolor="#666666"
     borderopacity="1"
     objecttolerance="10"
     gridtolerance="10"
     guidetolerance="10"
     inkscape:pageopacity="0"
     inkscape:pageshadow="2"
     inkscape:window-width="1920"
     inkscape:window-height="1017"
     id="namedview894"
     showgrid="false"
     inkscape:zoom="1.8112464"
     inkscape:cx="197.93"
     inkscape:cy="196.64"
     inkscape:window-x="1912"
     inkscape:window-y="-8"
     inkscape:window-maximized="1"
     inkscape:current-layer="Layer_1"
     inkscape:document-rotation="0" />
  <defs
     id="defs835">
    <style
       id="style833">.cls-1,.cls-5{fill:none;}.cls-1,.cls-4,.cls-5{stroke:#000;stroke-miterlimit:10;}.cls-2{fill:#a6a6a6;}.cls-3{fill:#666;}.cls-5{stroke-dasharray:2;}</style>
    <g
       id="g6863">
      <symbol
         overflow="visible"
         id="symbol4925">
        <path
           style="stroke:none;"
           d=""
           id="path4839" />
      </symbol>
      <symbol
         overflow="visible"
         id="symbol139">
        <path
           style="stroke:none;"
           d="M 3.328125 -3.015625 C 3.390625 -3.265625 3.625 -4.1875 4.3125 -4.1875 C 4.359375 -4.1875 4.609375 -4.1875 4.8125 -4.0625 C 4.53125 -4 4.34375 -3.765625 4.34375 -3.515625 C 4.34375 -3.359375 4.453125 -3.171875 4.71875 -3.171875 C 4.9375 -3.171875 5.25 -3.34375 5.25 -3.75 C 5.25 -4.265625 4.671875 -4.40625 4.328125 -4.40625 C 3.75 -4.40625 3.40625 -3.875 3.28125 -3.65625 C 3.03125 -4.3125 2.5 -4.40625 2.203125 -4.40625 C 1.171875 -4.40625 0.59375 -3.125 0.59375 -2.875 C 0.59375 -2.765625 0.703125 -2.765625 0.71875 -2.765625 C 0.796875 -2.765625 0.828125 -2.796875 0.84375 -2.875 C 1.1875 -3.9375 1.84375 -4.1875 2.1875 -4.1875 C 2.375 -4.1875 2.71875 -4.09375 2.71875 -3.515625 C 2.71875 -3.203125 2.546875 -2.546875 2.1875 -1.140625 C 2.03125 -0.53125 1.671875 -0.109375 1.234375 -0.109375 C 1.171875 -0.109375 0.953125 -0.109375 0.734375 -0.234375 C 0.984375 -0.296875 1.203125 -0.5 1.203125 -0.78125 C 1.203125 -1.046875 0.984375 -1.125 0.84375 -1.125 C 0.53125 -1.125 0.296875 -0.875 0.296875 -0.546875 C 0.296875 -0.09375 0.78125 0.109375 1.21875 0.109375 C 1.890625 0.109375 2.25 -0.59375 2.265625 -0.640625 C 2.390625 -0.28125 2.75 0.109375 3.34375 0.109375 C 4.375 0.109375 4.9375 -1.171875 4.9375 -1.421875 C 4.9375 -1.53125 4.859375 -1.53125 4.828125 -1.53125 C 4.734375 -1.53125 4.71875 -1.484375 4.6875 -1.421875 C 4.359375 -0.34375 3.6875 -0.109375 3.375 -0.109375 C 2.984375 -0.109375 2.828125 -0.421875 2.828125 -0.765625 C 2.828125 -0.984375 2.875 -1.203125 2.984375 -1.640625 Z M 3.328125 -3.015625 "
           id="path8889" />
      </symbol>
    </g>
    <g
       id="g8712">
      <symbol
         overflow="visible"
         id="symbol7330">
        <path
           style="stroke:none;"
           d=""
           id="path3342" />
      </symbol>
      <symbol
         overflow="visible"
         id="symbol8782">
        <path
           style="stroke:none;"
           d="M 4.84375 -3.796875 C 4.890625 -3.9375 4.890625 -3.953125 4.890625 -4.03125 C 4.890625 -4.203125 4.75 -4.296875 4.59375 -4.296875 C 4.5 -4.296875 4.34375 -4.234375 4.25 -4.09375 C 4.234375 -4.03125 4.140625 -3.734375 4.109375 -3.546875 C 4.03125 -3.296875 3.96875 -3.015625 3.90625 -2.75 L 3.453125 -0.953125 C 3.421875 -0.8125 2.984375 -0.109375 2.328125 -0.109375 C 1.828125 -0.109375 1.71875 -0.546875 1.71875 -0.921875 C 1.71875 -1.375 1.890625 -2 2.21875 -2.875 C 2.375 -3.28125 2.421875 -3.390625 2.421875 -3.59375 C 2.421875 -4.03125 2.109375 -4.40625 1.609375 -4.40625 C 0.65625 -4.40625 0.296875 -2.953125 0.296875 -2.875 C 0.296875 -2.765625 0.390625 -2.765625 0.40625 -2.765625 C 0.515625 -2.765625 0.515625 -2.796875 0.5625 -2.953125 C 0.84375 -3.890625 1.234375 -4.1875 1.578125 -4.1875 C 1.65625 -4.1875 1.828125 -4.1875 1.828125 -3.875 C 1.828125 -3.625 1.71875 -3.359375 1.65625 -3.171875 C 1.25 -2.109375 1.078125 -1.546875 1.078125 -1.078125 C 1.078125 -0.1875 1.703125 0.109375 2.296875 0.109375 C 2.6875 0.109375 3.015625 -0.0625 3.296875 -0.34375 C 3.171875 0.171875 3.046875 0.671875 2.65625 1.203125 C 2.390625 1.53125 2.015625 1.828125 1.5625 1.828125 C 1.421875 1.828125 0.96875 1.796875 0.796875 1.40625 C 0.953125 1.40625 1.09375 1.40625 1.21875 1.28125 C 1.328125 1.203125 1.421875 1.0625 1.421875 0.875 C 1.421875 0.5625 1.15625 0.53125 1.0625 0.53125 C 0.828125 0.53125 0.5 0.6875 0.5 1.171875 C 0.5 1.671875 0.9375 2.046875 1.5625 2.046875 C 2.578125 2.046875 3.609375 1.140625 3.890625 0.015625 Z M 4.84375 -3.796875 "
           id="path9813" />
      </symbol>
    </g>
    <g
       id="g2236">
      <symbol
         overflow="visible"
         id="symbol8682">
        <path
           style="stroke:none;"
           d=""
           id="path9578" />
      </symbol>
      <symbol
         overflow="visible"
         id="symbol1232">
        <path
           style="stroke:none;"
           d="M 1.328125 -0.828125 C 1.859375 -1.40625 2.15625 -1.65625 2.515625 -1.96875 C 2.515625 -1.96875 3.125 -2.5 3.484375 -2.859375 C 4.4375 -3.78125 4.65625 -4.265625 4.65625 -4.3125 C 4.65625 -4.40625 4.5625 -4.40625 4.546875 -4.40625 C 4.46875 -4.40625 4.453125 -4.390625 4.390625 -4.296875 C 4.09375 -3.8125 3.890625 -3.65625 3.65625 -3.65625 C 3.40625 -3.65625 3.296875 -3.8125 3.140625 -3.984375 C 2.953125 -4.203125 2.78125 -4.40625 2.453125 -4.40625 C 1.703125 -4.40625 1.25 -3.484375 1.25 -3.265625 C 1.25 -3.21875 1.28125 -3.15625 1.359375 -3.15625 C 1.453125 -3.15625 1.46875 -3.203125 1.5 -3.265625 C 1.6875 -3.734375 2.265625 -3.734375 2.34375 -3.734375 C 2.546875 -3.734375 2.734375 -3.671875 2.96875 -3.59375 C 3.375 -3.4375 3.484375 -3.4375 3.734375 -3.4375 C 3.375 -3.015625 2.546875 -2.296875 2.359375 -2.140625 L 1.453125 -1.296875 C 0.78125 -0.625 0.421875 -0.0625 0.421875 0.015625 C 0.421875 0.109375 0.53125 0.109375 0.546875 0.109375 C 0.625 0.109375 0.640625 0.09375 0.703125 -0.015625 C 0.9375 -0.375 1.234375 -0.640625 1.5625 -0.640625 C 1.78125 -0.640625 1.890625 -0.546875 2.140625 -0.265625 C 2.296875 -0.046875 2.484375 0.109375 2.765625 0.109375 C 3.765625 0.109375 4.34375 -1.15625 4.34375 -1.421875 C 4.34375 -1.46875 4.296875 -1.53125 4.21875 -1.53125 C 4.125 -1.53125 4.109375 -1.46875 4.078125 -1.390625 C 3.84375 -0.75 3.203125 -0.5625 2.875 -0.5625 C 2.6875 -0.5625 2.5 -0.625 2.296875 -0.6875 C 1.953125 -0.8125 1.796875 -0.859375 1.59375 -0.859375 C 1.578125 -0.859375 1.421875 -0.859375 1.328125 -0.828125 Z M 1.328125 -0.828125 "
           id="path2574" />
      </symbol>
    </g>
    <g
       id="g1040">
      <symbol
         overflow="visible"
         id="symbol5040">
        <path
           style="stroke:none;"
           d=""
           id="path9960" />
      </symbol>
      <symbol
         overflow="visible"
         id="symbol8935">
        <path
           style="stroke:none;"
           d="M 4.53125 -4.984375 C 4.53125 -5.640625 4.359375 -7.03125 3.34375 -7.03125 C 1.953125 -7.03125 0.421875 -4.21875 0.421875 -1.9375 C 0.421875 -1 0.703125 0.109375 1.609375 0.109375 C 3.015625 0.109375 4.53125 -2.75 4.53125 -4.984375 Z M 1.46875 -3.625 C 1.640625 -4.25 1.84375 -5.046875 2.25 -5.765625 C 2.515625 -6.25 2.875 -6.8125 3.328125 -6.8125 C 3.8125 -6.8125 3.875 -6.171875 3.875 -5.609375 C 3.875 -5.109375 3.796875 -4.609375 3.5625 -3.625 Z M 3.46875 -3.296875 C 3.359375 -2.84375 3.15625 -2 2.765625 -1.28125 C 2.421875 -0.59375 2.046875 -0.109375 1.609375 -0.109375 C 1.28125 -0.109375 1.078125 -0.40625 1.078125 -1.328125 C 1.078125 -1.75 1.140625 -2.328125 1.390625 -3.296875 Z M 3.46875 -3.296875 "
           id="path3337" />
      </symbol>
    </g>
    <g
       id="g1761">
      <symbol
         overflow="visible"
         id="symbol8868">
        <path
           style="stroke:none;"
           d=""
           id="path9928" />
      </symbol>
      <symbol
         overflow="visible"
         id="symbol9062">
        <path
           style="stroke:none;"
           d="M 4.359375 -6.671875 C 4.359375 -6.703125 4.390625 -6.8125 4.390625 -6.8125 C 4.390625 -6.828125 4.390625 -6.921875 4.265625 -6.921875 C 4.171875 -6.921875 4.15625 -6.890625 4.109375 -6.71875 L 3.53125 -4.421875 C 1.953125 -4.359375 0.484375 -3.046875 0.484375 -1.6875 C 0.484375 -0.734375 1.1875 0.046875 2.40625 0.125 C 2.328125 0.421875 2.25 0.75 2.171875 1.0625 C 2.046875 1.53125 1.953125 1.90625 1.953125 1.9375 C 1.953125 2.03125 2.03125 2.046875 2.078125 2.046875 C 2.125 2.046875 2.140625 2.03125 2.171875 2 C 2.1875 1.984375 2.25 1.75 2.28125 1.609375 L 2.65625 0.125 C 4.265625 0.0625 5.71875 -1.28125 5.71875 -2.609375 C 5.71875 -3.40625 5.1875 -4.3125 3.796875 -4.421875 Z M 2.453125 -0.09375 C 1.859375 -0.125 1.140625 -0.484375 1.140625 -1.46875 C 1.140625 -2.671875 2 -4.0625 3.484375 -4.203125 Z M 3.734375 -4.203125 C 4.5 -4.15625 5.0625 -3.703125 5.0625 -2.828125 C 5.0625 -1.640625 4.203125 -0.21875 2.71875 -0.09375 Z M 3.734375 -4.203125 "
           id="path3759" />
      </symbol>
    </g>
    <g
       id="g2192">
      <symbol
         overflow="visible"
         id="symbol6291">
        <path
           style="stroke:none;"
           d=""
           id="path6291" />
      </symbol>
      <symbol
         overflow="visible"
         id="symbol5229">
        <path
           style="stroke:none;"
           d="M 1.6875 1.6875 C 1.65625 1.828125 1.640625 1.84375 1.640625 1.890625 C 1.640625 2.109375 1.828125 2.171875 1.9375 2.171875 C 1.984375 2.171875 2.203125 2.140625 2.296875 1.90625 C 2.328125 1.828125 2.375 1.5 2.65625 0.09375 C 2.734375 0.09375 2.8125 0.109375 2.984375 0.109375 C 4.640625 0.109375 6.171875 -1.453125 6.171875 -3.03125 C 6.171875 -3.8125 5.78125 -4.40625 5.03125 -4.40625 C 3.59375 -4.40625 2.984375 -2.46875 2.390625 -0.53125 C 1.3125 -0.734375 0.75 -1.28125 0.75 -2 C 0.75 -2.28125 0.984375 -3.375 1.578125 -4.0625 C 1.671875 -4.15625 1.671875 -4.171875 1.671875 -4.203125 C 1.671875 -4.234375 1.640625 -4.296875 1.546875 -4.296875 C 1.265625 -4.296875 0.5 -2.84375 0.5 -1.890625 C 0.5 -0.953125 1.15625 -0.234375 2.21875 0.015625 Z M 3.078125 -0.46875 C 2.984375 -0.46875 2.96875 -0.46875 2.890625 -0.484375 C 2.765625 -0.484375 2.765625 -0.484375 2.765625 -0.515625 C 2.765625 -0.53125 2.9375 -1.453125 2.953125 -1.59375 C 3.265625 -2.875 4.046875 -3.828125 4.9375 -3.828125 C 5.625 -3.828125 5.890625 -3.296875 5.890625 -2.8125 C 5.890625 -1.6875 4.609375 -0.46875 3.078125 -0.46875 Z M 3.078125 -0.46875 "
           id="path5889" />
      </symbol>
    </g>
  </defs>
  <title
     id="title837">Spherical coordinates</title>
  <circle
     class="cls-1"
     cx="179.22"
     cy="214.05"
     r="178.72"
     id="circle839" />
  <ellipse
     class="cls-1"
     cx="178.91"
     cy="214.16"
     rx="177.94"
     ry="48.82"
     id="ellipse841" />
  <line
     class="cls-1"
     x1="177.73"
     y1="216.32"
     x2="177.73"
     y2="24.46"
     id="line843" />
  <polygon
     points="183.24 29.37 177.73 25.11 172.23 29.37 177.73 16.35 183.24 29.37"
     id="polygon845" />
  <polygon
     class="cls-2"
     points="182.03 27.81 177.73 17.67 177.73 24.48 182.03 27.81"
     id="polygon847" />
  <polygon
     class="cls-3"
     points="173.44 27.81 177.73 17.67 177.73 24.48 173.44 27.81"
     id="polygon849" />
  <circle
     class="cls-4"
     cx="177.98"
     cy="215.73"
     r="2.25"
     id="circle853" />
  <line
     class="cls-1"
     x1="177.75"
     y1="215.58"
     x2="369.61"
     y2="214.84"
     id="line855" />
  <polygon
     points="364.72 220.36 368.96 214.84 364.68 209.36 377.71 214.81 364.72 220.36"
     id="polygon857" />
  <polygon
     class="cls-2"
     points="366.27 219.16 376.4 214.81 369.59 214.84 366.27 219.16"
     id="polygon859" />
  <polygon
     class="cls-3"
     points="366.24 210.56 376.4 214.81 369.59 214.84 366.24 210.56"
     id="polygon861" />
  <line
     class="cls-1"
     x1="179.3"
     y1="213.41"
     x2="43.63"
     y2="349.08"
     id="line863" />
  <polygon
     points="43.21 341.71 44.09 348.62 51 349.5 37.9 354.81 43.21 341.71"
     id="polygon865" />
  <polygon
     class="cls-2"
     points="42.96 343.66 38.83 353.88 43.65 349.06 42.96 343.66"
     id="polygon867" />
  <polygon
     class="cls-3"
     points="49.04 349.74 38.83 353.88 43.65 349.06 49.04 349.74"
     id="polygon869" />
  <line
     class="cls-1"
     x1="178.87"
     y1="214.47"
     x2="261.76"
     y2="117.03"
     id="line875" />
  <polygon
     points="262.77 124.34 261.34 117.53 254.39 117.21 267.01 110.86 262.77 124.34"
     id="polygon877" />
  <polygon
     class="cls-2"
     points="262.87 122.37 266.16 111.86 261.75 117.05 262.87 122.37"
     id="polygon879" />
  <polygon
     class="cls-3"
     points="256.32 116.8 266.16 111.86 261.75 117.05 256.32 116.8"
     id="polygon881" />
  <polyline
     class="cls-5"
     points="267.01 110.86 267.01 237.15 178.15 215.87"
     id="polyline883" />
  <path
     class="cls-1"
     d="M237.07,215a60.35,60.35,0,0,1,.58,8.35c0,1.94,0,4.43-.19,6.32"
     id="path885" />
  <path
     class="cls-1"
     d="M177.92,137.82a77.3,77.3,0,0,1,50.2,18.43"
     id="path891" />
  <g
     inkscape:label=""
     transform="matrix(2,0,0,2,199.01403,55.45553)"
     id="g938">
    <g
       id="g9349">
      <g
         style="fill:#000000;fill-opacity:1"
         id="g4493">
        <use
           xlink:href="#symbol139"
           x="91.925003"
           y="81.962997"
           id="use7906"
           width="100%"
           height="100%" />
      </g>
    </g>
  </g>
  <g
     inkscape:label=""
     transform="matrix(2,0,0,2,-157.64644,203.97204)"
     id="g999">
    <g
       id="g5322">
      <g
         style="fill:#000000;fill-opacity:1"
         id="g1302">
        <use
           xlink:href="#symbol8782"
           x="91.925003"
           y="81.962997"
           id="use712"
           width="100%"
           height="100%" />
      </g>
    </g>
  </g>
  <g
     inkscape:label=""
     transform="matrix(2,0,0,2,-11.338352,-150.48001)"
     id="g1069">
    <g
       id="g5640">
      <g
         style="fill:#000000;fill-opacity:1"
         id="g3955">
        <use
           xlink:href="#symbol1232"
           x="91.925003"
           y="81.962997"
           id="use4002"
           width="100%"
           height="100%" />
      </g>
    </g>
  </g>
  <g
     inkscape:label=""
     transform="matrix(2,0,0,2,17.923271,-30.673001)"
     id="g1148">
    <g
       id="g6929">
      <g
         style="fill:#000000;fill-opacity:1"
         id="g5190">
        <use
           xlink:href="#symbol8935"
           x="91.925003"
           y="81.962997"
           id="use7474"
           width="100%"
           height="100%" />
      </g>
    </g>
  </g>
  <g
     inkscape:label=""
     transform="matrix(2,0,0,2,61.53964,62.632908)"
     id="g1333">
    <g
       id="g5991">
      <g
         style="fill:#000000;fill-opacity:1"
         id="g4751">
        <use
           xlink:href="#symbol5229"
           x="91.925003"
           y="81.962997"
           id="use5148"
           width="100%"
           height="100%" />
      </g>
    </g>
  </g>
</svg>
