<?xml version="1.0" encoding="UTF-8" standalone="no"?>
<svg
   xmlns:dc="http://purl.org/dc/elements/1.1/"
   xmlns:cc="http://creativecommons.org/ns#"
   xmlns:rdf="http://www.w3.org/1999/02/22-rdf-syntax-ns#"
   xmlns:svg="http://www.w3.org/2000/svg"
   xmlns="http://www.w3.org/2000/svg"
   xmlns:sodipodi="http://sodipodi.sourceforge.net/DTD/sodipodi-0.dtd"
   xmlns:inkscape="http://www.inkscape.org/namespaces/inkscape"
   id="Layer_1"
   data-name="Layer 1"
   viewBox="0 0 330.91 165.99"
   version="1.1"
   sodipodi:docname="Filminfront.svg"
   inkscape:version="1.0.1 (3bc2e813f5, 2020-09-07)">
  <metadata
     id="metadata86">
    <rdf:RDF>
      <cc:Work
         rdf:about="">
        <dc:format>image/svg+xml</dc:format>
        <dc:type
           rdf:resource="http://purl.org/dc/dcmitype/StillImage" />
      </cc:Work>
    </rdf:RDF>
  </metadata>
  <sodipodi:namedview
     pagecolor="#ffffff"
     bordercolor="#666666"
     borderopacity="1"
     objecttolerance="10"
     gridtolerance="10"
     guidetolerance="10"
     inkscape:pageopacity="0"
     inkscape:pageshadow="2"
     inkscape:window-width="1920"
     inkscape:window-height="1017"
     id="namedview84"
     showgrid="false"
     inkscape:zoom="1.5919572"
     inkscape:cx="228.1217"
     inkscape:cy="64.187281"
     inkscape:window-x="1912"
     inkscape:window-y="-8"
     inkscape:window-maximized="1"
     inkscape:current-layer="Layer_1" />
  <defs
     id="defs51">
    <rect
       x="283.60542"
       y="104.82518"
       width="38.199007"
       height="19.987852"
       id="rect90" />
    <style
       id="style49">.cls-1{fill:none;}.cls-1,.cls-2{stroke:#000;stroke-miterlimit:10;}.cls-2{fill:#b8b5b5;opacity:0.75;}.cls-3{fill:#bbbdbf;}.cls-4{fill:#fff;}.cls-5{fill:#212121;}</style>
  </defs>
  <title
     id="title53">Film in front</title>
  <line
     class="cls-1"
     x1="67.98"
     y1="71.33"
     x2="330.87"
     y2="90.88"
     id="line55" />
  <line
     class="cls-1"
     x1="68.2"
     y1="71.03"
     x2="302.67"
     y2="165.53"
     id="line57" />
  <polygon
     class="cls-2"
     points="248.69 22.69 192.44 58.45 192.44 120.5 248.69 84.74 248.69 22.69"
     id="polygon59" />
  <line
     class="cls-1"
     x1="68.48"
     y1="71.08"
     x2="330.28"
     y2="44.08"
     id="line61" />
  <line
     class="cls-1"
     x1="68.2"
     y1="70.84"
     x2="327.18"
     y2="0.48"
     id="line63" />
  <g
     id="Eye">
    <g
       id="_Group_"
       data-name="&lt;Group&gt;">
      <path
         class="cls-3"
         d="M42.85,54.92c6.82,11.18,5.39,21.51-3.93,28.68C26.86,73,14.6,68.21,5.46,65c.39,0,.78-.07,1.19-.11C17.81,63.76,29.33,62.65,42.85,54.92Z"
         id="path73" />
      <path
         d="M38.92,83.6c9.32-7.17,10.75-17.5,3.93-28.68-13.52,7.73-25,8.84-36.2,9.93-.41,0-.8.06-1.19.11C14.6,68.21,26.86,73,38.92,83.6Zm5.85-29.82c7.26,12,5.72,23.53-4.16,31.35,1.47,1.35,2.94,2.77,4.39,4.31L43.37,91C28.71,75.45,12.75,69.88,2.19,66.2L0,65.41a2.86,2.86,0,0,0,.36-1,3.08,3.08,0,0,0-.11-1.13c2.08-.22,4.12-.44,6.17-.63,13.24-1.28,25.75-2.46,41.74-13.72l1.28,1.82C47.86,51.84,46.3,52.84,44.77,53.78Z"
         id="path75" />
    </g>
    <path
       class="cls-4"
       d="M45.7,70.31c-.76,4.81-3.86,8.32-6.91,7.83s-4.91-4.79-4.14-9.59,3.86-8.33,6.92-7.84S46.48,65.49,45.7,70.31Z"
       id="path78" />
    <path
       class="cls-5"
       d="M44.66,71.14a3.53,3.53,0,0,1-3.94,3,3.81,3.81,0,0,1,1.53-7.38A3.54,3.54,0,0,1,44.66,71.14Z"
       id="path80" />
  </g>
  <text
     xml:space="preserve"
     id="text88"
     style="font-size:16px;line-height:1.25;font-family:'Times New Roman';-inkscape-font-specification:'Times New Roman, ';white-space:pre;shape-inside:url(#rect90);"
     transform="translate(-48.637107,-3.7754832)"><tspan
       x="283.60547"
       y="120.90422"><tspan
         style="font-style:normal;font-variant:normal;font-weight:normal;font-stretch:normal;font-family:'Source Han Sans SC';-inkscape-font-specification:'Source Han Sans SC'">胶片</tspan></tspan></text>
</svg>
