<?xml version="1.0" encoding="UTF-8" standalone="no"?>
<svg
   xmlns:dc="http://purl.org/dc/elements/1.1/"
   xmlns:cc="http://creativecommons.org/ns#"
   xmlns:rdf="http://www.w3.org/1999/02/22-rdf-syntax-ns#"
   xmlns:svg="http://www.w3.org/2000/svg"
   xmlns="http://www.w3.org/2000/svg"
   xmlns:sodipodi="http://sodipodi.sourceforge.net/DTD/sodipodi-0.dtd"
   xmlns:inkscape="http://www.inkscape.org/namespaces/inkscape"
   id="Layer_1"
   data-name="Layer 1"
   viewBox="0 0 242.32 242.32"
   version="1.1"
   sodipodi:docname="Lightspheresequalpower.svg"
   inkscape:version="1.0.1 (3bc2e813f5, 2020-09-07)">
  <metadata
     id="metadata889">
    <rdf:RDF>
      <cc:Work
         rdf:about="">
        <dc:format>image/svg+xml</dc:format>
        <dc:type
           rdf:resource="http://purl.org/dc/dcmitype/StillImage" />
      </cc:Work>
    </rdf:RDF>
  </metadata>
  <sodipodi:namedview
     pagecolor="#ffffff"
     bordercolor="#666666"
     borderopacity="1"
     objecttolerance="10"
     gridtolerance="10"
     guidetolerance="10"
     inkscape:pageopacity="0"
     inkscape:pageshadow="2"
     inkscape:window-width="1920"
     inkscape:window-height="1017"
     id="namedview887"
     showgrid="false"
     inkscape:zoom="8.3690254"
     inkscape:cx="73.129251"
     inkscape:cy="98.180494"
     inkscape:window-x="1912"
     inkscape:window-y="-8"
     inkscape:window-maximized="1"
     inkscape:current-layer="Layer_1"
     inkscape:document-rotation="0" />
  <defs
     id="defs864">
    <rect
       x="100.37011"
       y="78.384276"
       width="25.317434"
       height="25.5999"
       id="rect899" />
    <style
       id="style862">.cls-1,.cls-2{fill:none;}.cls-1,.cls-2,.cls-3{stroke:#000;stroke-miterlimit:10;stroke-width:0.3px;}.cls-1{stroke-dasharray:4;}.cls-3{fill:#fcee21;}</style>
    <rect
       x="100.37011"
       y="78.384277"
       width="25.317434"
       height="25.599899"
       id="rect899-2" />
    <rect
       x="100.37011"
       y="78.384277"
       width="25.317434"
       height="25.599899"
       id="rect921" />
  </defs>
  <title
     id="title866">Light spheres equal power</title>
  <circle
     class="cls-1"
     cx="121.35"
     cy="121.28"
     r="53.32"
     id="circle868" />
  <circle
     class="cls-2"
     cx="121.16"
     cy="121.16"
     r="121.01"
     id="circle870" />
  <line
     class="cls-2"
     x1="121.27"
     y1="121.4"
     x2="90.53"
     y2="77.62"
     id="line872" />
  <line
     class="cls-2"
     x1="2.66"
     y1="95.33"
     x2="121.27"
     y2="121.24"
     id="line874" />
  <polygon
     class="cls-3"
     points="125.88 102.45 124.3 112.12 129.25 103.67 125.93 112.89 132.35 105.48 127.38 113.93 135.06 107.83 128.62 115.23 137.29 110.64 129.6 116.73 138.96 113.81 130.29 118.39 140.03 117.24 130.66 120.14 140.44 120.8 130.71 121.93 140.2 124.38 130.42 123.7 139.3 127.85 129.81 125.39 137.78 131.1 128.9 126.94 135.68 134.01 127.73 128.29 133.09 136.49 126.32 129.41 130.09 138.46 124.74 130.24 126.78 139.83 123.02 130.78 123.27 140.57 121.24 130.98 119.68 140.66 119.45 130.86 116.14 140.09 117.72 130.41 112.77 138.87 116.09 129.65 109.67 137.06 114.64 128.6 106.96 134.7 113.4 127.31 104.73 131.89 112.42 125.81 103.06 128.72 111.73 124.15 102 125.3 111.36 122.4 101.58 121.73 111.31 120.6 101.82 118.16 111.6 118.83 102.72 114.68 112.21 117.14 104.24 111.43 113.12 115.6 106.34 108.52 114.29 114.24 108.93 106.04 115.7 113.13 111.93 104.08 117.28 112.29 115.25 102.7 119 111.76 118.75 101.96 120.78 111.55 122.34 101.88 122.57 111.67 125.88 102.45"
     id="polygon876" />
  <text
     xml:space="preserve"
     id="text897"
     style="font-size:21.3333px;line-height:1.25;font-family:'Times New Roman';-inkscape-font-specification:'Times New Roman, ';white-space:pre;shape-inside:url(#rect899);"
     transform="translate(1.9118116,-7.6472464)"><tspan
       x="100.36914"
       y="97.32608"><tspan
         style="font-style:italic;font-variant:normal;font-weight:normal;font-stretch:normal;font-family:'Times New Roman';-inkscape-font-specification:'Times New Roman,  Italic';shape-inside:url(#rect899)">r</tspan><tspan
         style="font-size:65%;baseline-shift:sub">1</tspan></tspan></text>
  <text
     xml:space="preserve"
     id="text897-4"
     style="font-size:21.3333px;line-height:1.25;font-family:'Times New Roman';-inkscape-font-specification:'Times New Roman, ';white-space:pre;shape-inside:url(#rect899-2);"
     transform="translate(-78.558244,19.351253)"><tspan
       x="100.36914"
       y="97.32608"><tspan
         style="font-style:italic;font-variant:normal;font-weight:normal;font-stretch:normal;font-family:'Times New Roman';-inkscape-font-specification:'Times New Roman,  Italic';shape-inside:url(#rect899-2)">r</tspan><tspan
         style="font-size:65%;baseline-shift:sub">2</tspan></tspan></text>
</svg>
