<svg id="Layer_1" data-name="Layer 1" xmlns="http://www.w3.org/2000/svg" viewBox="0 0 299.06 247.59"><defs><style>.cls-1,.cls-2,.cls-4{fill:none;}.cls-1,.cls-2,.cls-3,.cls-4,.cls-7{stroke:#000;stroke-miterlimit:10;}.cls-1{stroke-dasharray:2;}.cls-2{stroke-dasharray:4;}.cls-3{fill:#fcee21;}.cls-3,.cls-7{stroke-width:0.3px;}.cls-5{fill:#a6a6a6;}.cls-6{fill:#666;}.cls-7{fill:#999;}</style></defs><title>Ray Tree</title><line class="cls-1" x1="241.9" y1="76.89" x2="38.7" y2="45.75"/><line class="cls-2" x1="151" y1="141.67" x2="27.71" y2="47.82"/><polygon class="cls-3" points="36.47 12.34 34.1 26.85 41.53 14.16 36.54 27.99 46.17 16.89 38.73 29.56 50.23 20.42 40.58 31.51 53.58 24.63 42.05 33.76 56.09 29.39 43.09 36.24 57.69 34.53 43.64 38.88 58.31 39.87 43.71 41.56 57.94 45.24 43.28 44.22 56.59 50.45 42.37 46.75 54.31 55.32 41.01 49.07 51.17 59.69 39.24 51.1 47.29 63.41 37.13 52.77 42.78 66.35 34.75 54.03 37.81 68.41 32.19 54.83 32.55 69.53 29.51 55.14 27.17 69.66 26.83 54.96 21.86 68.79 24.23 54.28 16.8 66.97 21.79 53.14 12.16 64.25 19.6 51.57 8.1 60.72 17.75 49.63 4.75 56.51 16.27 47.38 2.24 51.75 15.24 44.89 0.64 46.61 14.69 42.26 0.02 41.27 14.62 39.57 0.39 35.9 15.05 36.91 1.73 30.69 15.96 34.38 4.02 25.82 17.32 32.06 7.15 21.45 19.09 30.03 11.04 17.73 21.2 28.36 15.55 14.79 23.57 27.1 20.52 12.72 26.14 26.31 25.78 11.61 28.82 25.99 31.16 11.48 31.5 26.18 36.47 12.34"/><line class="cls-1" x1="226.91" y1="134.96" x2="242.02" y2="76.14"/><line class="cls-4" x1="67.89" y1="188.8" x2="136.14" y2="188.8"/><polygon points="131.24 194.31 135.49 188.81 131.24 183.3 144.25 188.81 131.24 194.31"/><polygon class="cls-5" points="132.79 193.11 142.94 188.81 136.13 188.81 132.79 193.11"/><polygon class="cls-6" points="132.79 184.51 142.94 188.81 136.13 188.81 132.79 184.51"/><line class="cls-2" x1="128.44" y1="188.74" x2="213.77" y2="188.74"/><circle class="cls-7" cx="249.95" cy="207.25" r="40.2"/><line class="cls-4" x1="213.92" y1="188.14" x2="142.57" y2="135.28"/><polygon points="149.79 133.78 143.09 135.67 143.24 142.63 136.06 130.46 149.79 133.78"/><polygon class="cls-5" points="147.82 133.82 137.11 131.24 142.58 135.29 147.82 133.82"/><polygon class="cls-6" points="142.7 140.73 137.11 131.24 142.58 135.29 142.7 140.73"/><line class="cls-4" x1="213.47" y1="187.99" x2="230.15" y2="122.32"/><polygon points="234.28 128.44 229.99 122.95 223.61 125.72 232.15 114.47 234.28 128.44"/><polygon class="cls-5" points="233.5 126.63 231.82 115.74 230.15 122.34 233.5 126.63"/><polygon class="cls-6" points="225.16 124.51 231.82 115.74 230.15 122.34 225.16 124.51"/><circle class="cls-7" cx="258.71" cy="40.35" r="40.2"/><line class="cls-4" x1="240.69" y1="76.7" x2="151.65" y2="63.06"/><polygon points="157.33 58.36 152.29 63.16 155.67 69.24 143.64 61.83 157.33 58.36"/><polygon class="cls-5" points="155.61 59.31 144.93 62.03 151.66 63.06 155.61 59.31"/><polygon class="cls-6" points="154.31 67.81 144.93 62.03 151.66 63.06 154.31 67.81"/></svg>