<?xml version="1.0" encoding="UTF-8" standalone="no"?>
<svg
   id="Layer_1"
   data-name="Layer 1"
   viewBox="0 0 472.48 170.61"
   version="1.1"
   sodipodi:docname="Exitpupilboundsfilm.svg"
   inkscape:version="1.1.1 (3bf5ae0d25, 2021-09-20)"
   xmlns:inkscape="http://www.inkscape.org/namespaces/inkscape"
   xmlns:sodipodi="http://sodipodi.sourceforge.net/DTD/sodipodi-0.dtd"
   xmlns:xlink="http://www.w3.org/1999/xlink"
   xmlns="http://www.w3.org/2000/svg"
   xmlns:svg="http://www.w3.org/2000/svg"
   xmlns:rdf="http://www.w3.org/1999/02/22-rdf-syntax-ns#"
   xmlns:cc="http://creativecommons.org/ns#"
   xmlns:dc="http://purl.org/dc/elements/1.1/">
  <sodipodi:namedview
     id="namedview145"
     pagecolor="#ffffff"
     bordercolor="#666666"
     borderopacity="1.0"
     inkscape:pageshadow="2"
     inkscape:pageopacity="0.0"
     inkscape:pagecheckerboard="0"
     showgrid="false"
     inkscape:zoom="3.4837453"
     inkscape:cx="160.74654"
     inkscape:cy="179.69166"
     inkscape:window-width="2560"
     inkscape:window-height="1494"
     inkscape:window-x="-11"
     inkscape:window-y="-11"
     inkscape:window-maximized="1"
     inkscape:current-layer="Layer_1" />
  <defs
     id="defs80">
    <rect
       x="59.418809"
       y="138.93094"
       width="90.13288"
       height="74.345273"
       id="rect4183" />
    <style
       id="style78">.cls-1,.cls-2{fill:none;}.cls-1,.cls-2,.cls-3{stroke:#000;stroke-miterlimit:10;}.cls-1{stroke-dasharray:2;}</style>
    <g
       id="g8361">
      <symbol
         overflow="visible"
         id="symbol5446">
        <path
           style="stroke:none;"
           d=""
           id="path7878" />
      </symbol>
      <symbol
         overflow="visible"
         id="symbol483">
        <path
           style="stroke:none;"
           d="M 0.875 -0.59375 C 0.84375 -0.4375 0.78125 -0.203125 0.78125 -0.15625 C 0.78125 0.015625 0.921875 0.109375 1.078125 0.109375 C 1.203125 0.109375 1.375 0.03125 1.453125 -0.171875 C 1.46875 -0.203125 1.796875 -1.5625 1.84375 -1.75 C 1.921875 -2.078125 2.109375 -2.765625 2.15625 -3.046875 C 2.203125 -3.171875 2.484375 -3.640625 2.71875 -3.859375 C 2.796875 -3.921875 3.09375 -4.1875 3.515625 -4.1875 C 3.78125 -4.1875 3.921875 -4.0625 3.9375 -4.0625 C 3.640625 -4.015625 3.421875 -3.78125 3.421875 -3.515625 C 3.421875 -3.359375 3.53125 -3.171875 3.796875 -3.171875 C 4.0625 -3.171875 4.34375 -3.40625 4.34375 -3.765625 C 4.34375 -4.109375 4.03125 -4.40625 3.515625 -4.40625 C 2.875 -4.40625 2.4375 -3.921875 2.25 -3.640625 C 2.15625 -4.09375 1.796875 -4.40625 1.328125 -4.40625 C 0.875 -4.40625 0.6875 -4.015625 0.59375 -3.84375 C 0.421875 -3.5 0.296875 -2.90625 0.296875 -2.875 C 0.296875 -2.765625 0.390625 -2.765625 0.40625 -2.765625 C 0.515625 -2.765625 0.515625 -2.78125 0.578125 -3 C 0.75 -3.703125 0.953125 -4.1875 1.3125 -4.1875 C 1.46875 -4.1875 1.609375 -4.109375 1.609375 -3.734375 C 1.609375 -3.515625 1.578125 -3.40625 1.453125 -2.890625 Z M 0.875 -0.59375 "
           id="path2065" />
      </symbol>
    </g>
    <g
       id="g5299">
      <symbol
         overflow="visible"
         id="symbol9311">
        <path
           style="stroke:none;"
           d=""
           id="path4882" />
      </symbol>
      <symbol
         overflow="visible"
         id="symbol7595">
        <path
           style="stroke:none;"
           d="M 0.875 -0.59375 C 0.84375 -0.4375 0.78125 -0.203125 0.78125 -0.15625 C 0.78125 0.015625 0.921875 0.109375 1.078125 0.109375 C 1.203125 0.109375 1.375 0.03125 1.453125 -0.171875 C 1.46875 -0.203125 1.796875 -1.5625 1.84375 -1.75 C 1.921875 -2.078125 2.109375 -2.765625 2.15625 -3.046875 C 2.203125 -3.171875 2.484375 -3.640625 2.71875 -3.859375 C 2.796875 -3.921875 3.09375 -4.1875 3.515625 -4.1875 C 3.78125 -4.1875 3.921875 -4.0625 3.9375 -4.0625 C 3.640625 -4.015625 3.421875 -3.78125 3.421875 -3.515625 C 3.421875 -3.359375 3.53125 -3.171875 3.796875 -3.171875 C 4.0625 -3.171875 4.34375 -3.40625 4.34375 -3.765625 C 4.34375 -4.109375 4.03125 -4.40625 3.515625 -4.40625 C 2.875 -4.40625 2.4375 -3.921875 2.25 -3.640625 C 2.15625 -4.09375 1.796875 -4.40625 1.328125 -4.40625 C 0.875 -4.40625 0.6875 -4.015625 0.59375 -3.84375 C 0.421875 -3.5 0.296875 -2.90625 0.296875 -2.875 C 0.296875 -2.765625 0.390625 -2.765625 0.40625 -2.765625 C 0.515625 -2.765625 0.515625 -2.78125 0.578125 -3 C 0.75 -3.703125 0.953125 -4.1875 1.3125 -4.1875 C 1.46875 -4.1875 1.609375 -4.109375 1.609375 -3.734375 C 1.609375 -3.515625 1.578125 -3.40625 1.453125 -2.890625 Z M 0.875 -0.59375 "
           id="path8531" />
      </symbol>
    </g>
    <g
       id="g1310">
      <symbol
         overflow="visible"
         id="symbol6432">
        <path
           style="stroke:none;"
           d=""
           id="path9656" />
      </symbol>
      <symbol
         overflow="visible"
         id="symbol2969">
        <path
           style="stroke:none;"
           d="M 4.078125 -2.296875 L 6.859375 -2.296875 C 7 -2.296875 7.1875 -2.296875 7.1875 -2.5 C 7.1875 -2.6875 7 -2.6875 6.859375 -2.6875 L 4.078125 -2.6875 L 4.078125 -5.484375 C 4.078125 -5.625 4.078125 -5.8125 3.875 -5.8125 C 3.671875 -5.8125 3.671875 -5.625 3.671875 -5.484375 L 3.671875 -2.6875 L 0.890625 -2.6875 C 0.75 -2.6875 0.5625 -2.6875 0.5625 -2.5 C 0.5625 -2.296875 0.75 -2.296875 0.890625 -2.296875 L 3.671875 -2.296875 L 3.671875 0.5 C 3.671875 0.640625 3.671875 0.828125 3.875 0.828125 C 4.078125 0.828125 4.078125 0.640625 4.078125 0.5 Z M 4.078125 -2.296875 "
           id="path8722" />
      </symbol>
      <symbol
         overflow="visible"
         id="symbol1867">
        <path
           style="stroke:none;"
           d=""
           id="path5737" />
      </symbol>
      <symbol
         overflow="visible"
         id="symbol956">
        <path
           style="stroke:none;"
           d="M 3.328125 -3.015625 C 3.390625 -3.265625 3.625 -4.1875 4.3125 -4.1875 C 4.359375 -4.1875 4.609375 -4.1875 4.8125 -4.0625 C 4.53125 -4 4.34375 -3.765625 4.34375 -3.515625 C 4.34375 -3.359375 4.453125 -3.171875 4.71875 -3.171875 C 4.9375 -3.171875 5.25 -3.34375 5.25 -3.75 C 5.25 -4.265625 4.671875 -4.40625 4.328125 -4.40625 C 3.75 -4.40625 3.40625 -3.875 3.28125 -3.65625 C 3.03125 -4.3125 2.5 -4.40625 2.203125 -4.40625 C 1.171875 -4.40625 0.59375 -3.125 0.59375 -2.875 C 0.59375 -2.765625 0.703125 -2.765625 0.71875 -2.765625 C 0.796875 -2.765625 0.828125 -2.796875 0.84375 -2.875 C 1.1875 -3.9375 1.84375 -4.1875 2.1875 -4.1875 C 2.375 -4.1875 2.71875 -4.09375 2.71875 -3.515625 C 2.71875 -3.203125 2.546875 -2.546875 2.1875 -1.140625 C 2.03125 -0.53125 1.671875 -0.109375 1.234375 -0.109375 C 1.171875 -0.109375 0.953125 -0.109375 0.734375 -0.234375 C 0.984375 -0.296875 1.203125 -0.5 1.203125 -0.78125 C 1.203125 -1.046875 0.984375 -1.125 0.84375 -1.125 C 0.53125 -1.125 0.296875 -0.875 0.296875 -0.546875 C 0.296875 -0.09375 0.78125 0.109375 1.21875 0.109375 C 1.890625 0.109375 2.25 -0.59375 2.265625 -0.640625 C 2.390625 -0.28125 2.75 0.109375 3.34375 0.109375 C 4.375 0.109375 4.9375 -1.171875 4.9375 -1.421875 C 4.9375 -1.53125 4.859375 -1.53125 4.828125 -1.53125 C 4.734375 -1.53125 4.71875 -1.484375 4.6875 -1.421875 C 4.359375 -0.34375 3.6875 -0.109375 3.375 -0.109375 C 2.984375 -0.109375 2.828125 -0.421875 2.828125 -0.765625 C 2.828125 -0.984375 2.875 -1.203125 2.984375 -1.640625 Z M 3.328125 -3.015625 "
           id="path9309" />
      </symbol>
    </g>
    <g
       id="g255">
      <symbol
         overflow="visible"
         id="symbol6830">
        <path
           style="stroke:none;"
           d=""
           id="path7518" />
      </symbol>
      <symbol
         overflow="visible"
         id="symbol7067">
        <path
           style="stroke:none;"
           d="M 4.53125 -4.984375 C 4.53125 -5.640625 4.359375 -7.03125 3.34375 -7.03125 C 1.953125 -7.03125 0.421875 -4.21875 0.421875 -1.9375 C 0.421875 -1 0.703125 0.109375 1.609375 0.109375 C 3.015625 0.109375 4.53125 -2.75 4.53125 -4.984375 Z M 1.46875 -3.625 C 1.640625 -4.25 1.84375 -5.046875 2.25 -5.765625 C 2.515625 -6.25 2.875 -6.8125 3.328125 -6.8125 C 3.8125 -6.8125 3.875 -6.171875 3.875 -5.609375 C 3.875 -5.109375 3.796875 -4.609375 3.5625 -3.625 Z M 3.46875 -3.296875 C 3.359375 -2.84375 3.15625 -2 2.765625 -1.28125 C 2.421875 -0.59375 2.046875 -0.109375 1.609375 -0.109375 C 1.28125 -0.109375 1.078125 -0.40625 1.078125 -1.328125 C 1.078125 -1.75 1.140625 -2.328125 1.390625 -3.296875 Z M 3.46875 -3.296875 "
           id="path6693" />
      </symbol>
    </g>
    <rect
       x="59.418808"
       y="138.93094"
       width="90.132881"
       height="74.345276"
       id="rect4183-9" />
  </defs>
  <title
     id="title82">Exit pupil bounds film</title>
  <line
     class="cls-1"
     x1="116.8"
     y1="85.8"
     x2="179.51"
     y2="85.8"
     id="line84" />
  <line
     class="cls-2"
     x1="8.18"
     y1="85.8"
     x2="116.8"
     y2="85.8"
     id="line86" />
  <circle
     class="cls-3"
     cx="7.96"
     cy="85.8"
     r="2.25"
     id="circle88" />
  <line
     class="cls-2"
     x1="17.04"
     y1="80.28"
     x2="17.04"
     y2="91.32"
     id="line90" />
  <line
     class="cls-2"
     x1="116.86"
     y1="80.28"
     x2="116.86"
     y2="91.32"
     id="line92" />
  <line
     class="cls-2"
     x1="105.77"
     y1="80.28"
     x2="105.77"
     y2="91.32"
     id="line94" />
  <line
     class="cls-2"
     x1="94.68"
     y1="80.28"
     x2="94.68"
     y2="91.32"
     id="line96" />
  <line
     class="cls-2"
     x1="83.58"
     y1="80.28"
     x2="83.58"
     y2="91.32"
     id="line98" />
  <line
     class="cls-2"
     x1="72.49"
     y1="80.28"
     x2="72.49"
     y2="91.32"
     id="line100" />
  <line
     class="cls-2"
     x1="61.4"
     y1="80.28"
     x2="61.4"
     y2="91.32"
     id="line102" />
  <line
     class="cls-2"
     x1="50.31"
     y1="80.28"
     x2="50.31"
     y2="91.32"
     id="line104" />
  <line
     class="cls-2"
     x1="39.22"
     y1="80.28"
     x2="39.22"
     y2="91.32"
     id="line106" />
  <line
     class="cls-2"
     x1="28.13"
     y1="80.28"
     x2="28.13"
     y2="91.32"
     id="line108" />
  <rect
     class="cls-2"
     x="240.03"
     y="0.5"
     width="208.05"
     height="145.04"
     id="rect128" />
  <line
     class="cls-2"
     x1="343.76"
     y1="73.42"
     x2="470.62"
     y2="72.48"
     id="line130" />
  <circle
     class="cls-3"
     cx="343.88"
     cy="73.37"
     r="2.25"
     id="circle134" />
  <circle
     class="cls-3"
     cx="395.28"
     cy="23.38"
     r="2.25"
     id="circle136" />
  <line
     class="cls-2"
     x1="394.93"
     y1="23.03"
     x2="343.18"
     y2="73.37"
     id="line138" />
  <path
     class="cls-2"
     d="M371.43,45.66A39,39,0,0,1,383,73.37"
     id="path140" />
  <metadata
     id="metadata227">
    <rdf:RDF>
      <cc:Work
         rdf:about="">
        <dc:title>Exit pupil bounds film</dc:title>
      </cc:Work>
    </rdf:RDF>
  </metadata>
  <g
     inkscape:label=""
     transform="matrix(2,0,0,2,-70.405885,-54.551233)"
     id="g308">
    <g
       id="g392">
      <g
         style="fill:#000000;fill-opacity:1"
         id="g9809">
        <use
           xlink:href="#symbol483"
           x="91.925003"
           y="81.962997"
           id="use9505"
           width="100%"
           height="100%" />
      </g>
    </g>
  </g>
  <g
     inkscape:label=""
     transform="matrix(2,0,0,2,275.77327,-78.089119)"
     id="g435">
    <g
       id="g5481">
      <g
         style="fill:#000000;fill-opacity:1"
         id="g1569">
        <use
           xlink:href="#symbol7595"
           x="91.925003"
           y="81.962997"
           id="use4686"
           width="100%"
           height="100%" />
      </g>
    </g>
  </g>
  <g
     inkscape:label=""
     transform="matrix(2,0,0,2,-15.866882,-53.690091)"
     id="g586">
    <g
       id="g3069">
      <g
         style="fill:#000000;fill-opacity:1"
         id="g2728">
        <use
           xlink:href="#symbol2969"
           x="91.925003"
           y="81.962997"
           id="use5086"
           width="100%"
           height="100%" />
      </g>
      <g
         style="fill:#000000;fill-opacity:1"
         id="g9624">
        <use
           xlink:href="#symbol956"
           x="99.674004"
           y="81.962997"
           id="use6188"
           width="100%"
           height="100%" />
      </g>
    </g>
  </g>
  <g
     inkscape:label=""
     transform="matrix(2,0,0,2,201.14094,-103.63634)"
     id="g767">
    <g
       id="g5253">
      <g
         style="fill:#000000;fill-opacity:1"
         id="g2464">
        <use
           xlink:href="#symbol7067"
           x="91.925003"
           y="81.962997"
           id="use3224"
           width="100%"
           height="100%" />
      </g>
    </g>
  </g>
  <text
     xml:space="preserve"
     id="text4181"
     style="font-style:normal;font-weight:normal;font-size:16px;line-height:1.25;font-family:sans-serif;white-space:pre;shape-inside:url(#rect4183);fill:#000000;fill-opacity:1;stroke:none"
     transform="translate(-56.835383,10.333706)"><tspan
       x="59.417969"
       y="155.01164"
       id="tspan14623"><tspan
         style="font-family:'Source Han Serif';-inkscape-font-specification:'Source Han Serif'"
         id="tspan14621">(a)</tspan></tspan></text>
  <text
     xml:space="preserve"
     id="text4181-8"
     style="font-style:normal;font-weight:normal;font-size:16px;line-height:1.25;font-family:sans-serif;white-space:pre;shape-inside:url(#rect4183-9);fill:#000000;fill-opacity:1;stroke:none"
     transform="translate(178.30299,10.566896)"><tspan
       x="59.417969"
       y="155.01164"
       id="tspan14627"><tspan
         style="font-family:'Source Han Serif';-inkscape-font-specification:'Source Han Serif'"
         id="tspan14625">(b)</tspan></tspan></text>
</svg>
