<svg id="Layer_1" data-name="Layer 1" xmlns="http://www.w3.org/2000/svg" viewBox="0 0 319.2 203.73"><defs><style>.cls-1,.cls-2,.cls-3{fill:none;}.cls-1,.cls-2,.cls-3,.cls-6{stroke:#000;stroke-miterlimit:10;}.cls-2{stroke-width:3px;}.cls-3{stroke-dasharray:2;}.cls-4{fill:#a6a6a6;}.cls-5{fill:#666;}.cls-6{fill:#fff;}</style></defs><title>Lens correct intersection</title><path class="cls-1" d="M225.69,172.34A99.53,99.53,0,1,1,225.6,35"/><path class="cls-2" d="M225.6,35a99.54,99.54,0,0,1,.09,137.37"/><line class="cls-3" x1="62.98" y1="30.67" x2="287.01" y2="141.78"/><line class="cls-1" x1="2.05" y1="0.45" x2="55.72" y2="27.07"/><polygon points="48.88 29.81 55.14 26.78 53.77 19.95 62.98 30.67 48.88 29.81"/><polygon class="cls-4" points="50.8 29.43 61.8 30.08 55.7 27.06 50.8 29.43"/><polygon class="cls-5" points="54.63 21.73 61.8 30.08 55.7 27.06 54.63 21.73"/><line class="cls-1" y1="103.65" x2="319.2" y2="103.65"/><circle class="cls-6" cx="78.69" cy="38.49" r="2.25"/><circle class="cls-6" cx="250.93" cy="123.69" r="2.25"/></svg>