<?xml version="1.0" encoding="UTF-8" standalone="no"?>
<svg
   id="Layer_1"
   data-name="Layer 1"
   viewBox="0 0 386.34 191.8"
   version="1.1"
   sodipodi:docname="Lenselement.svg"
   inkscape:version="1.1.1 (3bf5ae0d25, 2021-09-20)"
   xmlns:inkscape="http://www.inkscape.org/namespaces/inkscape"
   xmlns:sodipodi="http://sodipodi.sourceforge.net/DTD/sodipodi-0.dtd"
   xmlns:xlink="http://www.w3.org/1999/xlink"
   xmlns="http://www.w3.org/2000/svg"
   xmlns:svg="http://www.w3.org/2000/svg">
  <sodipodi:namedview
     id="namedview157"
     pagecolor="#ffffff"
     bordercolor="#666666"
     borderopacity="1.0"
     inkscape:pageshadow="2"
     inkscape:pageopacity="0.0"
     inkscape:pagecheckerboard="0"
     showgrid="false"
     inkscape:zoom="3.0944246"
     inkscape:cx="168.85207"
     inkscape:cy="109.87503"
     inkscape:window-width="2560"
     inkscape:window-height="1494"
     inkscape:window-x="-11"
     inkscape:window-y="-11"
     inkscape:window-maximized="1"
     inkscape:current-layer="Layer_1" />
  <defs
     id="defs86">
    <rect
       x="289.87619"
       y="56.391744"
       width="80.628883"
       height="92.26271"
       id="rect4188" />
    <style
       id="style84">.cls-1,.cls-2,.cls-3,.cls-4{fill:none;stroke:#000;stroke-miterlimit:10;}.cls-1{stroke-width:2px;}.cls-3{stroke-dasharray:2;}.cls-4{stroke-width:0.5px;}</style>
    <g
       id="g4313">
      <symbol
         overflow="visible"
         id="symbol6661">
        <path
           style="stroke:none;"
           d=""
           id="path2732" />
      </symbol>
      <symbol
         overflow="visible"
         id="symbol9052">
        <path
           style="stroke:none;"
           d="M 0.875 -0.59375 C 0.84375 -0.4375 0.78125 -0.203125 0.78125 -0.15625 C 0.78125 0.015625 0.921875 0.109375 1.078125 0.109375 C 1.203125 0.109375 1.375 0.03125 1.453125 -0.171875 C 1.46875 -0.203125 1.796875 -1.5625 1.84375 -1.75 C 1.921875 -2.078125 2.109375 -2.765625 2.15625 -3.046875 C 2.203125 -3.171875 2.484375 -3.640625 2.71875 -3.859375 C 2.796875 -3.921875 3.09375 -4.1875 3.515625 -4.1875 C 3.78125 -4.1875 3.921875 -4.0625 3.9375 -4.0625 C 3.640625 -4.015625 3.421875 -3.78125 3.421875 -3.515625 C 3.421875 -3.359375 3.53125 -3.171875 3.796875 -3.171875 C 4.0625 -3.171875 4.34375 -3.40625 4.34375 -3.765625 C 4.34375 -4.109375 4.03125 -4.40625 3.515625 -4.40625 C 2.875 -4.40625 2.4375 -3.921875 2.25 -3.640625 C 2.15625 -4.09375 1.796875 -4.40625 1.328125 -4.40625 C 0.875 -4.40625 0.6875 -4.015625 0.59375 -3.84375 C 0.421875 -3.5 0.296875 -2.90625 0.296875 -2.875 C 0.296875 -2.765625 0.390625 -2.765625 0.40625 -2.765625 C 0.515625 -2.765625 0.515625 -2.78125 0.578125 -3 C 0.75 -3.703125 0.953125 -4.1875 1.3125 -4.1875 C 1.46875 -4.1875 1.609375 -4.109375 1.609375 -3.734375 C 1.609375 -3.515625 1.578125 -3.40625 1.453125 -2.890625 Z M 0.875 -0.59375 "
           id="path6002" />
      </symbol>
    </g>
    <g
       id="g1209">
      <symbol
         overflow="visible"
         id="symbol6961">
        <path
           style="stroke:none;"
           d=""
           id="path490" />
      </symbol>
      <symbol
         overflow="visible"
         id="symbol6769">
        <path
           style="stroke:none;"
           d="M 0.875 -0.59375 C 0.84375 -0.4375 0.78125 -0.203125 0.78125 -0.15625 C 0.78125 0.015625 0.921875 0.109375 1.078125 0.109375 C 1.203125 0.109375 1.375 0.03125 1.453125 -0.171875 C 1.46875 -0.203125 1.796875 -1.5625 1.84375 -1.75 C 1.921875 -2.078125 2.109375 -2.765625 2.15625 -3.046875 C 2.203125 -3.171875 2.484375 -3.640625 2.71875 -3.859375 C 2.796875 -3.921875 3.09375 -4.1875 3.515625 -4.1875 C 3.78125 -4.1875 3.921875 -4.0625 3.9375 -4.0625 C 3.640625 -4.015625 3.421875 -3.78125 3.421875 -3.515625 C 3.421875 -3.359375 3.53125 -3.171875 3.796875 -3.171875 C 4.0625 -3.171875 4.34375 -3.40625 4.34375 -3.765625 C 4.34375 -4.109375 4.03125 -4.40625 3.515625 -4.40625 C 2.875 -4.40625 2.4375 -3.921875 2.25 -3.640625 C 2.15625 -4.09375 1.796875 -4.40625 1.328125 -4.40625 C 0.875 -4.40625 0.6875 -4.015625 0.59375 -3.84375 C 0.421875 -3.5 0.296875 -2.90625 0.296875 -2.875 C 0.296875 -2.765625 0.390625 -2.765625 0.40625 -2.765625 C 0.515625 -2.765625 0.515625 -2.78125 0.578125 -3 C 0.75 -3.703125 0.953125 -4.1875 1.3125 -4.1875 C 1.46875 -4.1875 1.609375 -4.109375 1.609375 -3.734375 C 1.609375 -3.515625 1.578125 -3.40625 1.453125 -2.890625 Z M 0.875 -0.59375 "
           id="path4735" />
      </symbol>
    </g>
    <g
       id="g5141">
      <symbol
         overflow="visible"
         id="symbol6337">
        <path
           style="stroke:none;"
           d=""
           id="path7567" />
      </symbol>
      <symbol
         overflow="visible"
         id="symbol995">
        <path
           style="stroke:none;"
           d="M 1.328125 -0.828125 C 1.859375 -1.40625 2.15625 -1.65625 2.515625 -1.96875 C 2.515625 -1.96875 3.125 -2.5 3.484375 -2.859375 C 4.4375 -3.78125 4.65625 -4.265625 4.65625 -4.3125 C 4.65625 -4.40625 4.5625 -4.40625 4.546875 -4.40625 C 4.46875 -4.40625 4.453125 -4.390625 4.390625 -4.296875 C 4.09375 -3.8125 3.890625 -3.65625 3.65625 -3.65625 C 3.40625 -3.65625 3.296875 -3.8125 3.140625 -3.984375 C 2.953125 -4.203125 2.78125 -4.40625 2.453125 -4.40625 C 1.703125 -4.40625 1.25 -3.484375 1.25 -3.265625 C 1.25 -3.21875 1.28125 -3.15625 1.359375 -3.15625 C 1.453125 -3.15625 1.46875 -3.203125 1.5 -3.265625 C 1.6875 -3.734375 2.265625 -3.734375 2.34375 -3.734375 C 2.546875 -3.734375 2.734375 -3.671875 2.96875 -3.59375 C 3.375 -3.4375 3.484375 -3.4375 3.734375 -3.4375 C 3.375 -3.015625 2.546875 -2.296875 2.359375 -2.140625 L 1.453125 -1.296875 C 0.78125 -0.625 0.421875 -0.0625 0.421875 0.015625 C 0.421875 0.109375 0.53125 0.109375 0.546875 0.109375 C 0.625 0.109375 0.640625 0.09375 0.703125 -0.015625 C 0.9375 -0.375 1.234375 -0.640625 1.5625 -0.640625 C 1.78125 -0.640625 1.890625 -0.546875 2.140625 -0.265625 C 2.296875 -0.046875 2.484375 0.109375 2.765625 0.109375 C 3.765625 0.109375 4.34375 -1.15625 4.34375 -1.421875 C 4.34375 -1.46875 4.296875 -1.53125 4.21875 -1.53125 C 4.125 -1.53125 4.109375 -1.46875 4.078125 -1.390625 C 3.84375 -0.75 3.203125 -0.5625 2.875 -0.5625 C 2.6875 -0.5625 2.5 -0.625 2.296875 -0.6875 C 1.953125 -0.8125 1.796875 -0.859375 1.59375 -0.859375 C 1.578125 -0.859375 1.421875 -0.859375 1.328125 -0.828125 Z M 1.328125 -0.828125 "
           id="path6112" />
      </symbol>
    </g>
    <rect
       x="289.87619"
       y="56.391743"
       width="80.628883"
       height="92.262711"
       id="rect4188-9" />
  </defs>
  <title
     id="title88">Lens element</title>
  <path
     class="cls-1"
     d="M248.93,191.23a167.14,167.14,0,0,0,0-166.09"
     id="path90" />
  <polyline
     class="cls-2"
     points="260.29 49.77 96.16 107.56 271.01 107.56"
     id="polyline92" />
  <line
     class="cls-3"
     x1="176.15"
     y1="25.12"
     x2="303.99"
     y2="25.12"
     id="line146" />
  <line
     class="cls-3"
     x1="174.91"
     y1="191.3"
     x2="302.75"
     y2="191.3"
     id="line148" />
  <line
     class="cls-3"
     x1="271.23"
     y1="107.45"
     x2="271.23"
     y2="155.31"
     id="line150" />
  <line
     class="cls-4"
     y1="107.68"
     x2="386.34"
     y2="107.68"
     id="line152" />
  <line
     class="cls-2"
     x1="369.1"
     y1="103.09"
     x2="369.1"
     y2="112.14"
     id="line154" />
  <g
     inkscape:label=""
     transform="matrix(2,0,0,2,5.9386683,-43.786339)"
     id="g322">
    <g
       id="g2720">
      <g
         style="fill:#000000;fill-opacity:1"
         id="g2359">
        <use
           xlink:href="#symbol9052"
           x="91.925003"
           y="81.962997"
           id="use7531"
           width="100%"
           height="100%" />
      </g>
    </g>
  </g>
  <g
     inkscape:label=""
     transform="matrix(2,0,0,2,-16.036341,-93.553265)"
     id="g453">
    <g
       id="g114">
      <g
         style="fill:#000000;fill-opacity:1"
         id="g7985">
        <use
           xlink:href="#symbol6769"
           x="91.925003"
           y="81.962997"
           id="use1669"
           width="100%"
           height="100%" />
      </g>
    </g>
  </g>
  <g
     inkscape:label=""
     transform="matrix(2,0,0,2,82.204867,1.1331592)"
     id="g602">
    <g
       id="g5546">
      <g
         style="fill:#000000;fill-opacity:1"
         id="g7085">
        <use
           xlink:href="#symbol995"
           x="91.925003"
           y="81.962997"
           id="use237"
           width="100%"
           height="100%" />
      </g>
    </g>
  </g>
  <text
     xml:space="preserve"
     id="text4186"
     style="font-style:normal;font-weight:normal;font-size:12px;line-height:1.25;font-family:sans-serif;white-space:pre;shape-inside:url(#rect4188);fill:#000000;fill-opacity:1;stroke:none"
     transform="translate(16.965997,35.709385)"><tspan
       x="289.87695"
       y="67.340542"
       id="tspan11067">厚度</tspan></text>
  <text
     xml:space="preserve"
     id="text4186-8"
     style="font-style:normal;font-weight:normal;font-size:12px;line-height:1.25;font-family:sans-serif;white-space:pre;shape-inside:url(#rect4188-9);fill:#000000;fill-opacity:1;stroke:none"
     transform="translate(15.509006,-37.736008)"><tspan
       x="289.87695"
       y="67.340542"
       id="tspan11069">光圈半径</tspan></text>
</svg>
