<?xml version="1.0" encoding="UTF-8" standalone="no"?>
<svg
   id="Layer_1"
   data-name="Layer 1"
   viewBox="0 0 597.93 228.08"
   version="1.1"
   sodipodi:docname="Lenssystemcardinalpoints.svg"
   inkscape:version="1.1.1 (3bf5ae0d25, 2021-09-20)"
   xmlns:inkscape="http://www.inkscape.org/namespaces/inkscape"
   xmlns:sodipodi="http://sodipodi.sourceforge.net/DTD/sodipodi-0.dtd"
   xmlns:xlink="http://www.w3.org/1999/xlink"
   xmlns="http://www.w3.org/2000/svg"
   xmlns:svg="http://www.w3.org/2000/svg">
  <sodipodi:namedview
     id="namedview321"
     pagecolor="#ffffff"
     bordercolor="#666666"
     borderopacity="1.0"
     inkscape:pageshadow="2"
     inkscape:pageopacity="0.0"
     inkscape:pagecheckerboard="0"
     showgrid="false"
     inkscape:zoom="3.9987958"
     inkscape:cx="298.965"
     inkscape:cy="114.03433"
     inkscape:window-width="2560"
     inkscape:window-height="1494"
     inkscape:window-x="-11"
     inkscape:window-y="-11"
     inkscape:window-maximized="1"
     inkscape:current-layer="Layer_1" />
  <defs
     id="defs168">
    <style
       id="style166">.cls-1,.cls-2,.cls-3,.cls-4{fill:none;stroke-linecap:square;stroke-miterlimit:3.25;}.cls-1{stroke:#0071bc;}.cls-1,.cls-3{stroke-width:2px;}.cls-2,.cls-3,.cls-4{stroke:#000;}.cls-4{stroke-dasharray:2;}</style>
    <g
       id="g5881">
      <symbol
         overflow="visible"
         id="symbol7650">
        <path
           style="stroke:none;"
           d=""
           id="path3054" />
      </symbol>
      <symbol
         overflow="visible"
         id="symbol1618">
        <path
           style="stroke:none;"
           d="M 3.65625 -3.984375 L 4.515625 -3.984375 C 4.71875 -3.984375 4.8125 -3.984375 4.8125 -4.1875 C 4.8125 -4.296875 4.71875 -4.296875 4.546875 -4.296875 L 3.71875 -4.296875 L 3.921875 -5.4375 C 3.96875 -5.640625 4.109375 -6.34375 4.171875 -6.46875 C 4.25 -6.65625 4.421875 -6.8125 4.640625 -6.8125 C 4.671875 -6.8125 4.9375 -6.8125 5.125 -6.625 C 4.6875 -6.59375 4.578125 -6.234375 4.578125 -6.09375 C 4.578125 -5.859375 4.765625 -5.734375 4.953125 -5.734375 C 5.21875 -5.734375 5.5 -5.96875 5.5 -6.34375 C 5.5 -6.796875 5.046875 -7.03125 4.640625 -7.03125 C 4.296875 -7.03125 3.671875 -6.84375 3.375 -5.859375 C 3.3125 -5.65625 3.28125 -5.546875 3.046875 -4.296875 L 2.359375 -4.296875 C 2.15625 -4.296875 2.046875 -4.296875 2.046875 -4.109375 C 2.046875 -3.984375 2.140625 -3.984375 2.328125 -3.984375 L 2.984375 -3.984375 L 2.25 -0.046875 C 2.0625 0.921875 1.890625 1.828125 1.375 1.828125 C 1.328125 1.828125 1.09375 1.828125 0.890625 1.640625 C 1.359375 1.609375 1.453125 1.25 1.453125 1.109375 C 1.453125 0.875 1.265625 0.75 1.078125 0.75 C 0.8125 0.75 0.53125 0.984375 0.53125 1.359375 C 0.53125 1.796875 0.96875 2.046875 1.375 2.046875 C 1.921875 2.046875 2.328125 1.453125 2.5 1.078125 C 2.828125 0.453125 3.046875 -0.75 3.0625 -0.828125 Z M 3.65625 -3.984375 "
           id="path9642" />
      </symbol>
      <symbol
         overflow="visible"
         id="symbol7499">
        <path
           style="stroke:none;"
           d=""
           id="path6445" />
      </symbol>
      <symbol
         overflow="visible"
         id="symbol5392">
        <path
           style="stroke:none;"
           d="M 1.171875 -0.609375 C 1.359375 -0.796875 1.484375 -0.921875 2.0625 -1.40625 C 2.21875 -1.515625 2.734375 -1.9375 2.9375 -2.125 C 3.359375 -2.546875 3.625 -2.90625 3.625 -2.984375 C 3.625 -3.078125 3.546875 -3.078125 3.515625 -3.078125 C 3.453125 -3.078125 3.421875 -3.0625 3.390625 -3 C 3.171875 -2.6875 3.03125 -2.578125 2.859375 -2.578125 C 2.78125 -2.578125 2.671875 -2.578125 2.46875 -2.78125 C 2.234375 -3.03125 2.078125 -3.078125 1.921875 -3.078125 C 1.359375 -3.078125 0.984375 -2.46875 0.984375 -2.265625 C 0.984375 -2.1875 1.046875 -2.171875 1.09375 -2.171875 C 1.1875 -2.171875 1.203125 -2.1875 1.21875 -2.265625 C 1.328125 -2.515625 1.71875 -2.53125 1.828125 -2.53125 C 2 -2.53125 2.171875 -2.484375 2.265625 -2.46875 C 2.65625 -2.390625 2.703125 -2.390625 2.875 -2.390625 C 2.703125 -2.1875 2.578125 -2.0625 1.90625 -1.546875 C 1.359375 -1.109375 1.171875 -0.9375 1.046875 -0.796875 C 0.625 -0.390625 0.421875 -0.078125 0.421875 -0.015625 C 0.421875 0.0625 0.515625 0.0625 0.546875 0.0625 C 0.609375 0.0625 0.625 0.0625 0.65625 0 C 0.84375 -0.265625 1.0625 -0.421875 1.296875 -0.421875 C 1.390625 -0.421875 1.484375 -0.421875 1.671875 -0.25 C 1.890625 -0.03125 2.03125 0.0625 2.265625 0.0625 C 3 0.0625 3.46875 -0.78125 3.46875 -1.015625 C 3.46875 -1.09375 3.390625 -1.09375 3.359375 -1.09375 C 3.265625 -1.09375 3.25 -1.0625 3.21875 -0.984375 C 3.09375 -0.640625 2.6875 -0.46875 2.34375 -0.46875 C 2.1875 -0.46875 2 -0.515625 1.828125 -0.546875 C 1.515625 -0.625 1.453125 -0.625 1.328125 -0.625 C 1.3125 -0.625 1.21875 -0.625 1.171875 -0.609375 Z M 1.171875 -0.609375 "
           id="path4077" />
      </symbol>
    </g>
    <g
       id="g8971">
      <symbol
         overflow="visible"
         id="symbol6592">
        <path
           style="stroke:none;"
           d=""
           id="path4067" />
      </symbol>
      <symbol
         overflow="visible"
         id="symbol9359">
        <path
           style="stroke:none;"
           d="M 3.65625 -3.984375 L 4.515625 -3.984375 C 4.71875 -3.984375 4.8125 -3.984375 4.8125 -4.1875 C 4.8125 -4.296875 4.71875 -4.296875 4.546875 -4.296875 L 3.71875 -4.296875 L 3.921875 -5.4375 C 3.96875 -5.640625 4.109375 -6.34375 4.171875 -6.46875 C 4.25 -6.65625 4.421875 -6.8125 4.640625 -6.8125 C 4.671875 -6.8125 4.9375 -6.8125 5.125 -6.625 C 4.6875 -6.59375 4.578125 -6.234375 4.578125 -6.09375 C 4.578125 -5.859375 4.765625 -5.734375 4.953125 -5.734375 C 5.21875 -5.734375 5.5 -5.96875 5.5 -6.34375 C 5.5 -6.796875 5.046875 -7.03125 4.640625 -7.03125 C 4.296875 -7.03125 3.671875 -6.84375 3.375 -5.859375 C 3.3125 -5.65625 3.28125 -5.546875 3.046875 -4.296875 L 2.359375 -4.296875 C 2.15625 -4.296875 2.046875 -4.296875 2.046875 -4.109375 C 2.046875 -3.984375 2.140625 -3.984375 2.328125 -3.984375 L 2.984375 -3.984375 L 2.25 -0.046875 C 2.0625 0.921875 1.890625 1.828125 1.375 1.828125 C 1.328125 1.828125 1.09375 1.828125 0.890625 1.640625 C 1.359375 1.609375 1.453125 1.25 1.453125 1.109375 C 1.453125 0.875 1.265625 0.75 1.078125 0.75 C 0.8125 0.75 0.53125 0.984375 0.53125 1.359375 C 0.53125 1.796875 0.96875 2.046875 1.375 2.046875 C 1.921875 2.046875 2.328125 1.453125 2.5 1.078125 C 2.828125 0.453125 3.046875 -0.75 3.0625 -0.828125 Z M 3.65625 -3.984375 "
           id="path4218" />
      </symbol>
      <symbol
         overflow="visible"
         id="symbol787">
        <path
           style="stroke:none;"
           d=""
           id="path7502" />
      </symbol>
      <symbol
         overflow="visible"
         id="symbol8188">
        <path
           style="stroke:none;"
           d="M 2.015625 -3.296875 C 2.078125 -3.40625 2.078125 -3.46875 2.078125 -3.515625 C 2.078125 -3.734375 1.890625 -3.890625 1.671875 -3.890625 C 1.40625 -3.890625 1.328125 -3.671875 1.296875 -3.5625 L 0.375 -0.546875 C 0.359375 -0.53125 0.328125 -0.453125 0.328125 -0.4375 C 0.328125 -0.359375 0.546875 -0.28125 0.609375 -0.28125 C 0.65625 -0.28125 0.65625 -0.296875 0.703125 -0.40625 Z M 2.015625 -3.296875 "
           id="path8901" />
      </symbol>
      <symbol
         overflow="visible"
         id="symbol4712">
        <path
           style="stroke:none;"
           d=""
           id="path2098" />
      </symbol>
      <symbol
         overflow="visible"
         id="symbol3228">
        <path
           style="stroke:none;"
           d="M 1.171875 -0.609375 C 1.359375 -0.796875 1.484375 -0.921875 2.0625 -1.40625 C 2.21875 -1.515625 2.734375 -1.9375 2.9375 -2.125 C 3.359375 -2.546875 3.625 -2.90625 3.625 -2.984375 C 3.625 -3.078125 3.546875 -3.078125 3.515625 -3.078125 C 3.453125 -3.078125 3.421875 -3.0625 3.390625 -3 C 3.171875 -2.6875 3.03125 -2.578125 2.859375 -2.578125 C 2.78125 -2.578125 2.671875 -2.578125 2.46875 -2.78125 C 2.234375 -3.03125 2.078125 -3.078125 1.921875 -3.078125 C 1.359375 -3.078125 0.984375 -2.46875 0.984375 -2.265625 C 0.984375 -2.1875 1.046875 -2.171875 1.09375 -2.171875 C 1.1875 -2.171875 1.203125 -2.1875 1.21875 -2.265625 C 1.328125 -2.515625 1.71875 -2.53125 1.828125 -2.53125 C 2 -2.53125 2.171875 -2.484375 2.265625 -2.46875 C 2.65625 -2.390625 2.703125 -2.390625 2.875 -2.390625 C 2.703125 -2.1875 2.578125 -2.0625 1.90625 -1.546875 C 1.359375 -1.109375 1.171875 -0.9375 1.046875 -0.796875 C 0.625 -0.390625 0.421875 -0.078125 0.421875 -0.015625 C 0.421875 0.0625 0.515625 0.0625 0.546875 0.0625 C 0.609375 0.0625 0.625 0.0625 0.65625 0 C 0.84375 -0.265625 1.0625 -0.421875 1.296875 -0.421875 C 1.390625 -0.421875 1.484375 -0.421875 1.671875 -0.25 C 1.890625 -0.03125 2.03125 0.0625 2.265625 0.0625 C 3 0.0625 3.46875 -0.78125 3.46875 -1.015625 C 3.46875 -1.09375 3.390625 -1.09375 3.359375 -1.09375 C 3.265625 -1.09375 3.25 -1.0625 3.21875 -0.984375 C 3.09375 -0.640625 2.6875 -0.46875 2.34375 -0.46875 C 2.1875 -0.46875 2 -0.515625 1.828125 -0.546875 C 1.515625 -0.625 1.453125 -0.625 1.328125 -0.625 C 1.3125 -0.625 1.21875 -0.625 1.171875 -0.609375 Z M 1.171875 -0.609375 "
           id="path7634" />
      </symbol>
    </g>
    <g
       id="g5697">
      <symbol
         overflow="visible"
         id="symbol286">
        <path
           style="stroke:none;"
           d=""
           id="path6419" />
      </symbol>
      <symbol
         overflow="visible"
         id="symbol114">
        <path
           style="stroke:none;"
           d="M 0.453125 1.21875 C 0.375 1.5625 0.34375 1.625 -0.09375 1.625 C -0.203125 1.625 -0.3125 1.625 -0.3125 1.8125 C -0.3125 1.890625 -0.265625 1.9375 -0.1875 1.9375 C 0.078125 1.9375 0.375 1.90625 0.640625 1.90625 C 0.984375 1.90625 1.3125 1.9375 1.640625 1.9375 C 1.6875 1.9375 1.8125 1.9375 1.8125 1.734375 C 1.8125 1.625 1.71875 1.625 1.578125 1.625 C 1.078125 1.625 1.078125 1.5625 1.078125 1.46875 C 1.078125 1.34375 1.5 -0.28125 1.5625 -0.53125 C 1.6875 -0.234375 1.96875 0.109375 2.484375 0.109375 C 3.640625 0.109375 4.890625 -1.34375 4.890625 -2.8125 C 4.890625 -3.75 4.3125 -4.40625 3.5625 -4.40625 C 3.0625 -4.40625 2.578125 -4.046875 2.25 -3.65625 C 2.15625 -4.203125 1.71875 -4.40625 1.359375 -4.40625 C 0.890625 -4.40625 0.703125 -4.015625 0.625 -3.84375 C 0.4375 -3.5 0.3125 -2.90625 0.3125 -2.875 C 0.3125 -2.765625 0.40625 -2.765625 0.421875 -2.765625 C 0.53125 -2.765625 0.53125 -2.78125 0.59375 -3 C 0.765625 -3.703125 0.96875 -4.1875 1.328125 -4.1875 C 1.5 -4.1875 1.640625 -4.109375 1.640625 -3.734375 C 1.640625 -3.5 1.609375 -3.390625 1.5625 -3.21875 Z M 2.203125 -3.109375 C 2.265625 -3.375 2.546875 -3.65625 2.71875 -3.8125 C 3.078125 -4.109375 3.359375 -4.1875 3.53125 -4.1875 C 3.921875 -4.1875 4.171875 -3.84375 4.171875 -3.25 C 4.171875 -2.65625 3.84375 -1.515625 3.65625 -1.140625 C 3.3125 -0.4375 2.84375 -0.109375 2.46875 -0.109375 C 1.8125 -0.109375 1.6875 -0.9375 1.6875 -1 C 1.6875 -1.015625 1.6875 -1.03125 1.71875 -1.15625 Z M 2.203125 -3.109375 "
           id="path2856" />
      </symbol>
      <symbol
         overflow="visible"
         id="symbol7855">
        <path
           style="stroke:none;"
           d=""
           id="path4883" />
      </symbol>
      <symbol
         overflow="visible"
         id="symbol4946">
        <path
           style="stroke:none;"
           d="M 2.015625 -3.296875 C 2.078125 -3.40625 2.078125 -3.46875 2.078125 -3.515625 C 2.078125 -3.734375 1.890625 -3.890625 1.671875 -3.890625 C 1.40625 -3.890625 1.328125 -3.671875 1.296875 -3.5625 L 0.375 -0.546875 C 0.359375 -0.53125 0.328125 -0.453125 0.328125 -0.4375 C 0.328125 -0.359375 0.546875 -0.28125 0.609375 -0.28125 C 0.65625 -0.28125 0.65625 -0.296875 0.703125 -0.40625 Z M 2.015625 -3.296875 "
           id="path4592" />
      </symbol>
      <symbol
         overflow="visible"
         id="symbol131">
        <path
           style="stroke:none;"
           d=""
           id="path5441" />
      </symbol>
      <symbol
         overflow="visible"
         id="symbol7613">
        <path
           style="stroke:none;"
           d="M 1.171875 -0.609375 C 1.359375 -0.796875 1.484375 -0.921875 2.0625 -1.40625 C 2.21875 -1.515625 2.734375 -1.9375 2.9375 -2.125 C 3.359375 -2.546875 3.625 -2.90625 3.625 -2.984375 C 3.625 -3.078125 3.546875 -3.078125 3.515625 -3.078125 C 3.453125 -3.078125 3.421875 -3.0625 3.390625 -3 C 3.171875 -2.6875 3.03125 -2.578125 2.859375 -2.578125 C 2.78125 -2.578125 2.671875 -2.578125 2.46875 -2.78125 C 2.234375 -3.03125 2.078125 -3.078125 1.921875 -3.078125 C 1.359375 -3.078125 0.984375 -2.46875 0.984375 -2.265625 C 0.984375 -2.1875 1.046875 -2.171875 1.09375 -2.171875 C 1.1875 -2.171875 1.203125 -2.1875 1.21875 -2.265625 C 1.328125 -2.515625 1.71875 -2.53125 1.828125 -2.53125 C 2 -2.53125 2.171875 -2.484375 2.265625 -2.46875 C 2.65625 -2.390625 2.703125 -2.390625 2.875 -2.390625 C 2.703125 -2.1875 2.578125 -2.0625 1.90625 -1.546875 C 1.359375 -1.109375 1.171875 -0.9375 1.046875 -0.796875 C 0.625 -0.390625 0.421875 -0.078125 0.421875 -0.015625 C 0.421875 0.0625 0.515625 0.0625 0.546875 0.0625 C 0.609375 0.0625 0.625 0.0625 0.65625 0 C 0.84375 -0.265625 1.0625 -0.421875 1.296875 -0.421875 C 1.390625 -0.421875 1.484375 -0.421875 1.671875 -0.25 C 1.890625 -0.03125 2.03125 0.0625 2.265625 0.0625 C 3 0.0625 3.46875 -0.78125 3.46875 -1.015625 C 3.46875 -1.09375 3.390625 -1.09375 3.359375 -1.09375 C 3.265625 -1.09375 3.25 -1.0625 3.21875 -0.984375 C 3.09375 -0.640625 2.6875 -0.46875 2.34375 -0.46875 C 2.1875 -0.46875 2 -0.515625 1.828125 -0.546875 C 1.515625 -0.625 1.453125 -0.625 1.328125 -0.625 C 1.3125 -0.625 1.21875 -0.625 1.171875 -0.609375 Z M 1.171875 -0.609375 "
           id="path922" />
      </symbol>
    </g>
    <g
       id="g3044">
      <symbol
         overflow="visible"
         id="symbol5930">
        <path
           style="stroke:none;"
           d=""
           id="path3799" />
      </symbol>
      <symbol
         overflow="visible"
         id="symbol1571">
        <path
           style="stroke:none;"
           d="M 0.453125 1.21875 C 0.375 1.5625 0.34375 1.625 -0.09375 1.625 C -0.203125 1.625 -0.3125 1.625 -0.3125 1.8125 C -0.3125 1.890625 -0.265625 1.9375 -0.1875 1.9375 C 0.078125 1.9375 0.375 1.90625 0.640625 1.90625 C 0.984375 1.90625 1.3125 1.9375 1.640625 1.9375 C 1.6875 1.9375 1.8125 1.9375 1.8125 1.734375 C 1.8125 1.625 1.71875 1.625 1.578125 1.625 C 1.078125 1.625 1.078125 1.5625 1.078125 1.46875 C 1.078125 1.34375 1.5 -0.28125 1.5625 -0.53125 C 1.6875 -0.234375 1.96875 0.109375 2.484375 0.109375 C 3.640625 0.109375 4.890625 -1.34375 4.890625 -2.8125 C 4.890625 -3.75 4.3125 -4.40625 3.5625 -4.40625 C 3.0625 -4.40625 2.578125 -4.046875 2.25 -3.65625 C 2.15625 -4.203125 1.71875 -4.40625 1.359375 -4.40625 C 0.890625 -4.40625 0.703125 -4.015625 0.625 -3.84375 C 0.4375 -3.5 0.3125 -2.90625 0.3125 -2.875 C 0.3125 -2.765625 0.40625 -2.765625 0.421875 -2.765625 C 0.53125 -2.765625 0.53125 -2.78125 0.59375 -3 C 0.765625 -3.703125 0.96875 -4.1875 1.328125 -4.1875 C 1.5 -4.1875 1.640625 -4.109375 1.640625 -3.734375 C 1.640625 -3.5 1.609375 -3.390625 1.5625 -3.21875 Z M 2.203125 -3.109375 C 2.265625 -3.375 2.546875 -3.65625 2.71875 -3.8125 C 3.078125 -4.109375 3.359375 -4.1875 3.53125 -4.1875 C 3.921875 -4.1875 4.171875 -3.84375 4.171875 -3.25 C 4.171875 -2.65625 3.84375 -1.515625 3.65625 -1.140625 C 3.3125 -0.4375 2.84375 -0.109375 2.46875 -0.109375 C 1.8125 -0.109375 1.6875 -0.9375 1.6875 -1 C 1.6875 -1.015625 1.6875 -1.03125 1.71875 -1.15625 Z M 2.203125 -3.109375 "
           id="path3213" />
      </symbol>
      <symbol
         overflow="visible"
         id="symbol4083">
        <path
           style="stroke:none;"
           d=""
           id="path7208" />
      </symbol>
      <symbol
         overflow="visible"
         id="symbol1788">
        <path
           style="stroke:none;"
           d="M 1.171875 -0.609375 C 1.359375 -0.796875 1.484375 -0.921875 2.0625 -1.40625 C 2.21875 -1.515625 2.734375 -1.9375 2.9375 -2.125 C 3.359375 -2.546875 3.625 -2.90625 3.625 -2.984375 C 3.625 -3.078125 3.546875 -3.078125 3.515625 -3.078125 C 3.453125 -3.078125 3.421875 -3.0625 3.390625 -3 C 3.171875 -2.6875 3.03125 -2.578125 2.859375 -2.578125 C 2.78125 -2.578125 2.671875 -2.578125 2.46875 -2.78125 C 2.234375 -3.03125 2.078125 -3.078125 1.921875 -3.078125 C 1.359375 -3.078125 0.984375 -2.46875 0.984375 -2.265625 C 0.984375 -2.1875 1.046875 -2.171875 1.09375 -2.171875 C 1.1875 -2.171875 1.203125 -2.1875 1.21875 -2.265625 C 1.328125 -2.515625 1.71875 -2.53125 1.828125 -2.53125 C 2 -2.53125 2.171875 -2.484375 2.265625 -2.46875 C 2.65625 -2.390625 2.703125 -2.390625 2.875 -2.390625 C 2.703125 -2.1875 2.578125 -2.0625 1.90625 -1.546875 C 1.359375 -1.109375 1.171875 -0.9375 1.046875 -0.796875 C 0.625 -0.390625 0.421875 -0.078125 0.421875 -0.015625 C 0.421875 0.0625 0.515625 0.0625 0.546875 0.0625 C 0.609375 0.0625 0.625 0.0625 0.65625 0 C 0.84375 -0.265625 1.0625 -0.421875 1.296875 -0.421875 C 1.390625 -0.421875 1.484375 -0.421875 1.671875 -0.25 C 1.890625 -0.03125 2.03125 0.0625 2.265625 0.0625 C 3 0.0625 3.46875 -0.78125 3.46875 -1.015625 C 3.46875 -1.09375 3.390625 -1.09375 3.359375 -1.09375 C 3.265625 -1.09375 3.25 -1.0625 3.21875 -0.984375 C 3.09375 -0.640625 2.6875 -0.46875 2.34375 -0.46875 C 2.1875 -0.46875 2 -0.515625 1.828125 -0.546875 C 1.515625 -0.625 1.453125 -0.625 1.328125 -0.625 C 1.3125 -0.625 1.21875 -0.625 1.171875 -0.609375 Z M 1.171875 -0.609375 "
           id="path9345" />
      </symbol>
    </g>
  </defs>
  <title
     id="title170">Lens system cardinal points</title>
  <line
     class="cls-1"
     x1="291.39"
     y1="18.26"
     x2="291.39"
     y2="198.93"
     id="line172" />
  <path
     class="cls-2"
     d="M202.78,27a170.57,170.57,0,0,0,0,145.84"
     id="path174" />
  <path
     class="cls-2"
     d="M203.15,27H214"
     id="path176" />
  <path
     class="cls-2"
     d="M203.15,172.88H214"
     id="path178" />
  <path
     class="cls-2"
     d="M214.44,27a490.33,490.33,0,0,0,0,145.84"
     id="path180" />
  <path
     class="cls-2"
     d="M231.09,33.35a111.56,111.56,0,0,0,0,133.11"
     id="path182" />
  <path
     class="cls-2"
     d="M231.26,33.41H242.1"
     id="path184" />
  <path
     class="cls-2"
     d="M231.26,166.52H242.1"
     id="path186" />
  <path
     class="cls-2"
     d="M241.47,33.35a235.86,235.86,0,0,0,0,133.11"
     id="path188" />
  <path
     class="cls-2"
     d="M242.1,33.41H273"
     id="path190" />
  <path
     class="cls-2"
     d="M242.1,166.52H273"
     id="path192" />
  <path
     class="cls-2"
     d="M273,33.41V47.87"
     id="path194" />
  <path
     class="cls-2"
     d="M273,166.52V152.05"
     id="path196" />
  <path
     class="cls-2"
     d="M273.55,47.83a73.77,73.77,0,0,0,0,104.16"
     id="path198" />
  <path
     class="cls-3"
     d="M284.5,50.48V1"
     id="path200" />
  <path
     class="cls-3"
     d="M284.5,149.44v49.49"
     id="path202" />
  <path
     class="cls-2"
     d="M295,149.1a83.89,83.89,0,0,0,0-98.39"
     id="path204" />
  <path
     class="cls-2"
     d="M294.6,42.09h30"
     id="path206" />
  <path
     class="cls-2"
     d="M294.6,157.83h30"
     id="path208" />
  <path
     class="cls-2"
     d="M294.6,42.09v8.68"
     id="path210" />
  <path
     class="cls-2"
     d="M294.6,157.83v-8.68"
     id="path212" />
  <path
     class="cls-2"
     d="M324,42a236.21,236.21,0,0,0,0,115.75"
     id="path214" />
  <path
     class="cls-2"
     d="M324.57,42.09h12.72"
     id="path216" />
  <path
     class="cls-2"
     d="M324.57,157.83h12.72"
     id="path218" />
  <path
     class="cls-2"
     d="M336.82,157.78a118,118,0,0,0,0-115.75"
     id="path220" />
  <path
     class="cls-2"
     d="M353.52,42q-1.33,57.87,0,115.75"
     id="path222" />
  <path
     class="cls-2"
     d="M354.23,42.09H364.8"
     id="path224" />
  <path
     class="cls-2"
     d="M354.23,157.83H364.8"
     id="path226" />
  <path
     class="cls-2"
     d="M364.74,157.78a229.94,229.94,0,0,0,0-115.75"
     id="path228" />
  <path
     class="cls-2"
     d="M597.43,100H104.65"
     id="path230" />
  <path
     class="cls-2"
     d="M192.39,56.55l17.91,1.88"
     id="path232" />
  <path
     class="cls-2"
     d="M210.3,58.43l6.64.78"
     id="path234" />
  <path
     class="cls-2"
     d="M216.94,59.21l18.44,4.16"
     id="path236" />
  <path
     class="cls-2"
     d="M235.38,63.37l23.12,5.18"
     id="path238" />
  <path
     class="cls-2"
     d="M258.5,68.55l26,1.58"
     id="path240" />
  <path
     class="cls-2"
     d="M284.5,70.13l21,1.28"
     id="path242" />
  <path
     class="cls-2"
     d="M305.53,71.41l13.74-1.34"
     id="path244" />
  <path
     class="cls-2"
     d="M319.27,70.07l28.64-2.56"
     id="path246" />
  <path
     class="cls-2"
     d="M347.91,67.51l5.86.22"
     id="path248" />
  <path
     class="cls-2"
     d="M353.77,67.73l16.22.45"
     id="path250" />
  <path
     d="M583,99.91a2.59,2.59,0,1,0-.76,1.84A2.6,2.6,0,0,0,583,99.91Z"
     id="path252" />
  <path
     class="cls-2"
     d="M370,68.18,580.79,100"
     id="path254" />
  <path
     class="cls-4"
     d="M370.51,128.9H165.43"
     id="path256" />
  <path
     class="cls-2"
     d="M597.43,128.9H370.51"
     id="path258" />
  <path
     class="cls-2"
     d="M370.38,128.9,353.73,128"
     id="path260" />
  <path
     class="cls-2"
     d="M353.73,128l-4.54-.45"
     id="path262" />
  <path
     class="cls-2"
     d="M349.19,127.57l-30.71-4.75"
     id="path264" />
  <path
     class="cls-2"
     d="M318.48,122.82l-10.65-1.75"
     id="path266" />
  <path
     class="cls-2"
     d="M307.83,121.07l-23.33-2.49"
     id="path268" />
  <line
     class="cls-1"
     x1="316.97"
     y1="18.26"
     x2="316.97"
     y2="198.93"
     id="line270" />
  <path
     class="cls-2"
     d="M284.5,118.58l-31.43-3.35"
     id="path272" />
  <path
     class="cls-2"
     d="M253.07,115.23l-20,.5"
     id="path274" />
  <path
     class="cls-2"
     d="M233.05,115.73l-22.62.55"
     id="path276" />
  <path
     class="cls-2"
     d="M210.43,116.28l-1.63-.09"
     id="path278" />
  <path
     class="cls-2"
     d="M208.8,116.19l-21.29-.46"
     id="path280" />
  <path
     d="M32.23,99.91a2.6,2.6,0,0,0-4.44-1.84,2.63,2.63,0,0,0,0,3.68,2.6,2.6,0,0,0,4.44-1.84Z"
     id="path282" />
  <path
     class="cls-2"
     d="M187,115.86,28.92,100"
     id="path284" />
  <path
     class="cls-4"
     d="M403,137.52,187,115.86"
     id="path286" />
  <path
     class="cls-2"
     d="M187.51,100H.5"
     id="path288" />
  <line
     class="cls-4"
     x1="370.03"
     y1="68.12"
     x2="164.63"
     y2="37.91"
     id="line294" />
  <circle
     cx="290.87"
     cy="56.29"
     r="3.73"
     id="circle296" />
  <circle
     cx="316.97"
     cy="129.26"
     r="3.73"
     id="circle298" />
  <path
     class="cls-4"
     d="M191.93,56.55h208.8"
     id="path300" />
  <path
     class="cls-2"
     d="M18.69,56.55H191.93"
     id="path302" />
  <g
     inkscape:label=""
     transform="matrix(2,0,0,2,-163.25907,-40.948766)"
     id="g574">
    <g
       id="g7523">
      <g
         style="fill:#000000;fill-opacity:1"
         id="g8380">
        <use
           xlink:href="#symbol1618"
           x="91.925003"
           y="81.962997"
           id="use4076"
           width="100%"
           height="100%" />
      </g>
      <g
         style="fill:#000000;fill-opacity:1"
         id="g1578">
        <use
           xlink:href="#symbol5392"
           x="96.803001"
           y="83.457001"
           id="use7874"
           width="100%"
           height="100%" />
      </g>
    </g>
  </g>
  <g
     inkscape:label=""
     transform="matrix(2,0,0,2,388.90715,-78.460058)"
     id="g817">
    <g
       id="g6310">
      <g
         style="fill:#000000;fill-opacity:1"
         id="g6917">
        <use
           xlink:href="#symbol9359"
           x="91.925003"
           y="81.962997"
           id="use5554"
           width="100%"
           height="100%" />
      </g>
      <g
         style="fill:#000000;fill-opacity:1"
         id="g6002">
        <use
           xlink:href="#symbol8188"
           x="97.875"
           y="77.848999"
           id="use5283"
           width="100%"
           height="100%" />
      </g>
      <g
         style="fill:#000000;fill-opacity:1"
         id="g5636">
        <use
           xlink:href="#symbol3228"
           x="96.803001"
           y="84.426003"
           id="use1571"
           width="100%"
           height="100%" />
      </g>
    </g>
  </g>
  <g
     inkscape:label=""
     transform="matrix(2,0,0,2,125.82796,54.830067)"
     id="g1108">
    <g
       id="g869">
      <g
         style="fill:#000000;fill-opacity:1"
         id="g8161">
        <use
           xlink:href="#symbol114"
           x="91.925003"
           y="81.962997"
           id="use7920"
           width="100%"
           height="100%" />
      </g>
      <g
         style="fill:#000000;fill-opacity:1"
         id="g1624">
        <use
           xlink:href="#symbol4946"
           x="96.938004"
           y="77.848999"
           id="use3166"
           width="100%"
           height="100%" />
      </g>
      <g
         style="fill:#000000;fill-opacity:1"
         id="g2513">
        <use
           xlink:href="#symbol7613"
           x="96.938004"
           y="84.426003"
           id="use9436"
           width="100%"
           height="100%" />
      </g>
    </g>
  </g>
  <g
     inkscape:label=""
     transform="matrix(2,0,0,2,100.32028,55.080142)"
     id="g1435">
    <g
       id="g9143">
      <g
         style="fill:#000000;fill-opacity:1"
         id="g32">
        <use
           xlink:href="#symbol1571"
           x="91.925003"
           y="81.962997"
           id="use3164"
           width="100%"
           height="100%" />
      </g>
      <g
         style="fill:#000000;fill-opacity:1"
         id="g1622">
        <use
           xlink:href="#symbol1788"
           x="96.938004"
           y="83.457001"
           id="use9404"
           width="100%"
           height="100%" />
      </g>
    </g>
  </g>
</svg>
