<?xml version="1.0" encoding="UTF-8" standalone="no"?>
<svg
   id="Layer_1"
   data-name="Layer 1"
   viewBox="0 0 254.52 244.37"
   version="1.1"
   sodipodi:docname="Orthoviewingvolume.svg"
   inkscape:version="1.1.1 (3bf5ae0d25, 2021-09-20)"
   xmlns:inkscape="http://www.inkscape.org/namespaces/inkscape"
   xmlns:sodipodi="http://sodipodi.sourceforge.net/DTD/sodipodi-0.dtd"
   xmlns:xlink="http://www.w3.org/1999/xlink"
   xmlns="http://www.w3.org/2000/svg"
   xmlns:svg="http://www.w3.org/2000/svg">
  <sodipodi:namedview
     id="namedview109"
     pagecolor="#ffffff"
     bordercolor="#666666"
     borderopacity="1.0"
     inkscape:pageshadow="2"
     inkscape:pageopacity="0.0"
     inkscape:pagecheckerboard="0"
     showgrid="false"
     inkscape:zoom="3.5243936"
     inkscape:cx="164.70919"
     inkscape:cy="118.8857"
     inkscape:window-width="2560"
     inkscape:window-height="1494"
     inkscape:window-x="-11"
     inkscape:window-y="-11"
     inkscape:window-maximized="1"
     inkscape:current-layer="Layer_1" />
  <defs
     id="defs62">
    <style
       id="style60">.cls-1,.cls-5,.cls-6{fill:none;}.cls-1,.cls-4,.cls-5,.cls-6,.cls-7,.cls-8{stroke:#000;stroke-miterlimit:10;}.cls-2{fill:#a6a6a6;}.cls-3{fill:#666;}.cls-4,.cls-7,.cls-8{fill:#999;}.cls-4{opacity:0.5;}.cls-5,.cls-8{stroke-dasharray:2;}.cls-5,.cls-6{fill-rule:evenodd;}</style>
    <g
       id="g8146">
      <symbol
         overflow="visible"
         id="symbol3265">
        <path
           style="stroke:none;"
           d=""
           id="path1885" />
      </symbol>
      <symbol
         overflow="visible"
         id="symbol1496">
        <path
           style="stroke:none;"
           d="M 1.328125 -0.828125 C 1.859375 -1.40625 2.15625 -1.65625 2.515625 -1.96875 C 2.515625 -1.96875 3.125 -2.5 3.484375 -2.859375 C 4.4375 -3.78125 4.65625 -4.265625 4.65625 -4.3125 C 4.65625 -4.40625 4.5625 -4.40625 4.546875 -4.40625 C 4.46875 -4.40625 4.453125 -4.390625 4.390625 -4.296875 C 4.09375 -3.8125 3.890625 -3.65625 3.65625 -3.65625 C 3.40625 -3.65625 3.296875 -3.8125 3.140625 -3.984375 C 2.953125 -4.203125 2.78125 -4.40625 2.453125 -4.40625 C 1.703125 -4.40625 1.25 -3.484375 1.25 -3.265625 C 1.25 -3.21875 1.28125 -3.15625 1.359375 -3.15625 C 1.453125 -3.15625 1.46875 -3.203125 1.5 -3.265625 C 1.6875 -3.734375 2.265625 -3.734375 2.34375 -3.734375 C 2.546875 -3.734375 2.734375 -3.671875 2.96875 -3.59375 C 3.375 -3.4375 3.484375 -3.4375 3.734375 -3.4375 C 3.375 -3.015625 2.546875 -2.296875 2.359375 -2.140625 L 1.453125 -1.296875 C 0.78125 -0.625 0.421875 -0.0625 0.421875 0.015625 C 0.421875 0.109375 0.53125 0.109375 0.546875 0.109375 C 0.625 0.109375 0.640625 0.09375 0.703125 -0.015625 C 0.9375 -0.375 1.234375 -0.640625 1.5625 -0.640625 C 1.78125 -0.640625 1.890625 -0.546875 2.140625 -0.265625 C 2.296875 -0.046875 2.484375 0.109375 2.765625 0.109375 C 3.765625 0.109375 4.34375 -1.15625 4.34375 -1.421875 C 4.34375 -1.46875 4.296875 -1.53125 4.21875 -1.53125 C 4.125 -1.53125 4.109375 -1.46875 4.078125 -1.390625 C 3.84375 -0.75 3.203125 -0.5625 2.875 -0.5625 C 2.6875 -0.5625 2.5 -0.625 2.296875 -0.6875 C 1.953125 -0.8125 1.796875 -0.859375 1.59375 -0.859375 C 1.578125 -0.859375 1.421875 -0.859375 1.328125 -0.828125 Z M 1.328125 -0.828125 "
           id="path4600" />
      </symbol>
    </g>
    <g
       id="g2691">
      <symbol
         overflow="visible"
         id="symbol676">
        <path
           style="stroke:none;"
           d=""
           id="path5736" />
      </symbol>
      <symbol
         overflow="visible"
         id="symbol5011">
        <path
           style="stroke:none;"
           d="M 3.328125 -3.015625 C 3.390625 -3.265625 3.625 -4.1875 4.3125 -4.1875 C 4.359375 -4.1875 4.609375 -4.1875 4.8125 -4.0625 C 4.53125 -4 4.34375 -3.765625 4.34375 -3.515625 C 4.34375 -3.359375 4.453125 -3.171875 4.71875 -3.171875 C 4.9375 -3.171875 5.25 -3.34375 5.25 -3.75 C 5.25 -4.265625 4.671875 -4.40625 4.328125 -4.40625 C 3.75 -4.40625 3.40625 -3.875 3.28125 -3.65625 C 3.03125 -4.3125 2.5 -4.40625 2.203125 -4.40625 C 1.171875 -4.40625 0.59375 -3.125 0.59375 -2.875 C 0.59375 -2.765625 0.703125 -2.765625 0.71875 -2.765625 C 0.796875 -2.765625 0.828125 -2.796875 0.84375 -2.875 C 1.1875 -3.9375 1.84375 -4.1875 2.1875 -4.1875 C 2.375 -4.1875 2.71875 -4.09375 2.71875 -3.515625 C 2.71875 -3.203125 2.546875 -2.546875 2.1875 -1.140625 C 2.03125 -0.53125 1.671875 -0.109375 1.234375 -0.109375 C 1.171875 -0.109375 0.953125 -0.109375 0.734375 -0.234375 C 0.984375 -0.296875 1.203125 -0.5 1.203125 -0.78125 C 1.203125 -1.046875 0.984375 -1.125 0.84375 -1.125 C 0.53125 -1.125 0.296875 -0.875 0.296875 -0.546875 C 0.296875 -0.09375 0.78125 0.109375 1.21875 0.109375 C 1.890625 0.109375 2.25 -0.59375 2.265625 -0.640625 C 2.390625 -0.28125 2.75 0.109375 3.34375 0.109375 C 4.375 0.109375 4.9375 -1.171875 4.9375 -1.421875 C 4.9375 -1.53125 4.859375 -1.53125 4.828125 -1.53125 C 4.734375 -1.53125 4.71875 -1.484375 4.6875 -1.421875 C 4.359375 -0.34375 3.6875 -0.109375 3.375 -0.109375 C 2.984375 -0.109375 2.828125 -0.421875 2.828125 -0.765625 C 2.828125 -0.984375 2.875 -1.203125 2.984375 -1.640625 Z M 3.328125 -3.015625 "
           id="path696" />
      </symbol>
    </g>
    <g
       id="g5870">
      <symbol
         overflow="visible"
         id="symbol9954">
        <path
           style="stroke:none;"
           d=""
           id="path1656" />
      </symbol>
      <symbol
         overflow="visible"
         id="symbol5562">
        <path
           style="stroke:none;"
           d="M 4.84375 -3.796875 C 4.890625 -3.9375 4.890625 -3.953125 4.890625 -4.03125 C 4.890625 -4.203125 4.75 -4.296875 4.59375 -4.296875 C 4.5 -4.296875 4.34375 -4.234375 4.25 -4.09375 C 4.234375 -4.03125 4.140625 -3.734375 4.109375 -3.546875 C 4.03125 -3.296875 3.96875 -3.015625 3.90625 -2.75 L 3.453125 -0.953125 C 3.421875 -0.8125 2.984375 -0.109375 2.328125 -0.109375 C 1.828125 -0.109375 1.71875 -0.546875 1.71875 -0.921875 C 1.71875 -1.375 1.890625 -2 2.21875 -2.875 C 2.375 -3.28125 2.421875 -3.390625 2.421875 -3.59375 C 2.421875 -4.03125 2.109375 -4.40625 1.609375 -4.40625 C 0.65625 -4.40625 0.296875 -2.953125 0.296875 -2.875 C 0.296875 -2.765625 0.390625 -2.765625 0.40625 -2.765625 C 0.515625 -2.765625 0.515625 -2.796875 0.5625 -2.953125 C 0.84375 -3.890625 1.234375 -4.1875 1.578125 -4.1875 C 1.65625 -4.1875 1.828125 -4.1875 1.828125 -3.875 C 1.828125 -3.625 1.71875 -3.359375 1.65625 -3.171875 C 1.25 -2.109375 1.078125 -1.546875 1.078125 -1.078125 C 1.078125 -0.1875 1.703125 0.109375 2.296875 0.109375 C 2.6875 0.109375 3.015625 -0.0625 3.296875 -0.34375 C 3.171875 0.171875 3.046875 0.671875 2.65625 1.203125 C 2.390625 1.53125 2.015625 1.828125 1.5625 1.828125 C 1.421875 1.828125 0.96875 1.796875 0.796875 1.40625 C 0.953125 1.40625 1.09375 1.40625 1.21875 1.28125 C 1.328125 1.203125 1.421875 1.0625 1.421875 0.875 C 1.421875 0.5625 1.15625 0.53125 1.0625 0.53125 C 0.828125 0.53125 0.5 0.6875 0.5 1.171875 C 0.5 1.671875 0.9375 2.046875 1.5625 2.046875 C 2.578125 2.046875 3.609375 1.140625 3.890625 0.015625 Z M 4.84375 -3.796875 "
           id="path7326" />
      </symbol>
    </g>
  </defs>
  <title
     id="title64">Ortho viewing volume</title>
  <polyline
     class="cls-1"
     points="5.5 82.17 5.5 236.21 160.1 236.21"
     id="polyline66" />
  <polygon
     points="0 87.08 5.5 82.82 11.01 87.08 5.5 74.07 0 87.08"
     id="polygon68" />
  <polygon
     class="cls-2"
     points="1.2 85.52 5.5 75.38 5.5 82.19 1.2 85.52"
     id="polygon70" />
  <polygon
     class="cls-3"
     points="9.8 85.52 5.5 75.38 5.5 82.19 9.8 85.52"
     id="polygon72" />
  <polygon
     points="155.19 241.71 159.45 236.21 155.19 230.7 168.21 236.21 155.19 241.71"
     id="polygon74" />
  <polygon
     class="cls-2"
     points="156.75 240.51 166.89 236.21 160.08 236.21 156.75 240.51"
     id="polygon76" />
  <polygon
     class="cls-3"
     points="156.75 231.91 166.89 236.21 160.08 236.21 156.75 231.91"
     id="polygon78" />
  <line
     class="cls-1"
     x1="218.6"
     y1="23.08"
     x2="5.52"
     y2="236.16"
     id="line80" />
  <polygon
     points="211.24 22.66 218.14 23.54 219.02 30.44 224.33 17.35 211.24 22.66"
     id="polygon82" />
  <polygon
     class="cls-2"
     points="213.19 22.41 223.4 18.28 218.59 23.09 213.19 22.41"
     id="polygon84" />
  <polygon
     class="cls-3"
     points="219.27 28.49 223.4 18.28 218.59 23.09 219.27 28.49"
     id="polygon86" />
  <rect
     class="cls-4"
     x="62.79"
     y="127.99"
     width="110.19"
     height="66.2"
     id="rect94" />
  <polyline
     class="cls-5"
     points="254.02 113.33 143.83 113.33 143.83 47.13"
     id="polyline96" />
  <polyline
     class="cls-6"
     points="143.83 47.13 254.02 47.13 254.02 113.33"
     id="polyline98" />
  <line
     class="cls-1"
     x1="62.79"
     y1="127.99"
     x2="143.83"
     y2="47.13"
     id="line100" />
  <line
     class="cls-7"
     x1="172.98"
     y1="127.99"
     x2="254.02"
     y2="47.13"
     id="line102" />
  <line
     class="cls-7"
     x1="254.02"
     y1="113.33"
     x2="172.98"
     y2="194.19"
     id="line104" />
  <line
     class="cls-8"
     x1="143.83"
     y1="113.33"
     x2="62.79"
     y2="194.19"
     id="line106" />
  <g
     inkscape:label=""
     transform="matrix(2,0,0,2,44.113446,-142.81616)"
     id="g250">
    <g
       id="g2662">
      <g
         style="fill:#000000;fill-opacity:1"
         id="g9069">
        <use
           xlink:href="#symbol1496"
           x="91.925003"
           y="81.962997"
           id="use5247"
           width="100%"
           height="100%" />
      </g>
    </g>
  </g>
  <g
     inkscape:label=""
     transform="matrix(2,0,0,2,-12.066432,75.944874)"
     id="g357">
    <g
       id="g351">
      <g
         style="fill:#000000;fill-opacity:1"
         id="g5836">
        <use
           xlink:href="#symbol5011"
           x="91.925003"
           y="81.962997"
           id="use2911"
           width="100%"
           height="100%" />
      </g>
    </g>
  </g>
  <g
     inkscape:label=""
     transform="matrix(2,0,0,2,-180.60606,-97.134547)"
     id="g482">
    <g
       id="g9091">
      <g
         style="fill:#000000;fill-opacity:1"
         id="g4676">
        <use
           xlink:href="#symbol5562"
           x="91.925003"
           y="81.962997"
           id="use3968"
           width="100%"
           height="100%" />
      </g>
    </g>
  </g>
</svg>
