<?xml version="1.0" encoding="UTF-8" standalone="no"?>
<svg
   id="Layer_1"
   data-name="Layer 1"
   viewBox="0 0 288.83 187.77"
   version="1.1"
   sodipodi:docname="Sampleexitpupil.svg"
   inkscape:version="1.1.1 (3bf5ae0d25, 2021-09-20)"
   xmlns:inkscape="http://www.inkscape.org/namespaces/inkscape"
   xmlns:sodipodi="http://sodipodi.sourceforge.net/DTD/sodipodi-0.dtd"
   xmlns:xlink="http://www.w3.org/1999/xlink"
   xmlns="http://www.w3.org/2000/svg"
   xmlns:svg="http://www.w3.org/2000/svg"
   xmlns:rdf="http://www.w3.org/1999/02/22-rdf-syntax-ns#"
   xmlns:cc="http://creativecommons.org/ns#"
   xmlns:dc="http://purl.org/dc/elements/1.1/">
  <sodipodi:namedview
     id="namedview113"
     pagecolor="#ffffff"
     bordercolor="#666666"
     borderopacity="1.0"
     inkscape:pageshadow="2"
     inkscape:pageopacity="0.0"
     inkscape:pagecheckerboard="0"
     showgrid="false"
     inkscape:zoom="4.0296983"
     inkscape:cx="143.93137"
     inkscape:cy="72.213843"
     inkscape:window-width="2560"
     inkscape:window-height="1494"
     inkscape:window-x="-11"
     inkscape:window-y="-11"
     inkscape:window-maximized="1"
     inkscape:current-layer="Layer_1" />
  <defs
     id="defs64">
    <style
       id="style62">.cls-1,.cls-2{fill:none;}.cls-1,.cls-2,.cls-3{stroke:#000;stroke-miterlimit:10;}.cls-2{stroke-dasharray:2;}.cls-4{fill:#a6a6a6;}.cls-5{fill:#666;}</style>
    <g
       id="g8186">
      <symbol
         overflow="visible"
         id="symbol6157">
        <path
           style="stroke:none;"
           d=""
           id="path1287" />
      </symbol>
      <symbol
         overflow="visible"
         id="symbol6055">
        <path
           style="stroke:none;"
           d="M 1.328125 -0.828125 C 1.859375 -1.40625 2.15625 -1.65625 2.515625 -1.96875 C 2.515625 -1.96875 3.125 -2.5 3.484375 -2.859375 C 4.4375 -3.78125 4.65625 -4.265625 4.65625 -4.3125 C 4.65625 -4.40625 4.5625 -4.40625 4.546875 -4.40625 C 4.46875 -4.40625 4.453125 -4.390625 4.390625 -4.296875 C 4.09375 -3.8125 3.890625 -3.65625 3.65625 -3.65625 C 3.40625 -3.65625 3.296875 -3.8125 3.140625 -3.984375 C 2.953125 -4.203125 2.78125 -4.40625 2.453125 -4.40625 C 1.703125 -4.40625 1.25 -3.484375 1.25 -3.265625 C 1.25 -3.21875 1.28125 -3.15625 1.359375 -3.15625 C 1.453125 -3.15625 1.46875 -3.203125 1.5 -3.265625 C 1.6875 -3.734375 2.265625 -3.734375 2.34375 -3.734375 C 2.546875 -3.734375 2.734375 -3.671875 2.96875 -3.59375 C 3.375 -3.4375 3.484375 -3.4375 3.734375 -3.4375 C 3.375 -3.015625 2.546875 -2.296875 2.359375 -2.140625 L 1.453125 -1.296875 C 0.78125 -0.625 0.421875 -0.0625 0.421875 0.015625 C 0.421875 0.109375 0.53125 0.109375 0.546875 0.109375 C 0.625 0.109375 0.640625 0.09375 0.703125 -0.015625 C 0.9375 -0.375 1.234375 -0.640625 1.5625 -0.640625 C 1.78125 -0.640625 1.890625 -0.546875 2.140625 -0.265625 C 2.296875 -0.046875 2.484375 0.109375 2.765625 0.109375 C 3.765625 0.109375 4.34375 -1.15625 4.34375 -1.421875 C 4.34375 -1.46875 4.296875 -1.53125 4.21875 -1.53125 C 4.125 -1.53125 4.109375 -1.46875 4.078125 -1.390625 C 3.84375 -0.75 3.203125 -0.5625 2.875 -0.5625 C 2.6875 -0.5625 2.5 -0.625 2.296875 -0.6875 C 1.953125 -0.8125 1.796875 -0.859375 1.59375 -0.859375 C 1.578125 -0.859375 1.421875 -0.859375 1.328125 -0.828125 Z M 1.328125 -0.828125 "
           id="path607" />
      </symbol>
    </g>
  </defs>
  <title
     id="title66">Sample exit pupil</title>
  <path
     class="cls-1"
     d="M216.5,58.88a163.38,163.38,0,0,0-144,.15"
     id="path68" />
  <path
     class="cls-1"
     d="M216.44,59.38A162.45,162.45,0,0,1,144.57,76,162.41,162.41,0,0,1,72.41,59.24"
     id="path70" />
  <line
     class="cls-1"
     y1="76.33"
     x2="288.83"
     y2="76.33"
     id="line72" />
  <line
     class="cls-2"
     x1="143.89"
     y1="21.98"
     x2="143.89"
     y2="184.33"
     id="line74" />
  <line
     class="cls-1"
     x1="143.72"
     y1="183.68"
     x2="288.1"
     y2="183.68"
     id="line76" />
  <line
     class="cls-1"
     x1="171.22"
     y1="179.58"
     x2="171.22"
     y2="187.65"
     id="line78" />
  <line
     class="cls-1"
     x1="198.38"
     y1="179.69"
     x2="198.38"
     y2="187.77"
     id="line80" />
  <circle
     class="cls-3"
     cx="177.64"
     cy="183.78"
     r="2.25"
     id="circle82" />
  <circle
     class="cls-3"
     cx="193.01"
     cy="183.65"
     r="2.25"
     id="circle84" />
  <line
     class="cls-1"
     x1="216.59"
     y1="72.07"
     x2="216.59"
     y2="80.15"
     id="line86" />
  <line
     class="cls-1"
     x1="72.59"
     y1="72.33"
     x2="72.59"
     y2="80.41"
     id="line88" />
  <circle
     class="cls-3"
     cx="204.46"
     cy="76.36"
     r="2.25"
     id="circle90" />
  <circle
     class="cls-3"
     cx="115.18"
     cy="76.81"
     r="2.25"
     id="circle92" />
  <line
     class="cls-1"
     x1="177.51"
     y1="183.65"
     x2="120.41"
     y2="86.09"
     id="line94" />
  <polygon
     points="127.64 87.55 120.74 86.65 118.14 93.11 116.31 79.09 127.64 87.55"
     id="polygon96" />
  <polygon
     class="cls-4"
     points="125.81 86.81 116.98 80.23 120.42 86.11 125.81 86.81"
     id="polygon98" />
  <polygon
     class="cls-5"
     points="118.39 91.15 116.98 80.23 120.42 86.11 118.39 91.15"
     id="polygon100" />
  <line
     class="cls-1"
     x1="192.61"
     y1="183.78"
     x2="203.55"
     y2="87.02"
     id="line102" />
  <polygon
     points="208.47 92.51 203.48 87.66 197.53 91.28 204.46 78.96 208.47 92.51"
     id="polygon104" />
  <polygon
     class="cls-4"
     points="207.45 90.83 204.31 80.27 203.55 87.04 207.45 90.83"
     id="polygon106" />
  <polygon
     class="cls-5"
     points="198.91 89.86 204.31 80.27 203.55 87.04 198.91 89.86"
     id="polygon108" />
  <metadata
     id="metadata195">
    <rdf:RDF>
      <cc:Work
         rdf:about="">
        <dc:title>Sample exit pupil</dc:title>
      </cc:Work>
    </rdf:RDF>
  </metadata>
  <g
     inkscape:label=""
     transform="matrix(2,0,0,2,-44.204687,-146.79268)"
     id="g260">
    <g
       id="g1000">
      <g
         style="fill:#000000;fill-opacity:1"
         id="g9225">
        <use
           xlink:href="#symbol6055"
           x="91.925003"
           y="81.962997"
           id="use697"
           width="100%"
           height="100%" />
      </g>
    </g>
  </g>
</svg>
