<?xml version="1.0" encoding="UTF-8" standalone="no"?>
<svg
   id="Layer_1"
   data-name="Layer 1"
   viewBox="0 0 384.13 206.82"
   version="1.1"
   sodipodi:docname="Thinlens.svg"
   inkscape:version="1.1.1 (3bf5ae0d25, 2021-09-20)"
   xmlns:inkscape="http://www.inkscape.org/namespaces/inkscape"
   xmlns:sodipodi="http://sodipodi.sourceforge.net/DTD/sodipodi-0.dtd"
   xmlns:xlink="http://www.w3.org/1999/xlink"
   xmlns="http://www.w3.org/2000/svg"
   xmlns:svg="http://www.w3.org/2000/svg">
  <sodipodi:namedview
     id="namedview73"
     pagecolor="#ffffff"
     bordercolor="#666666"
     borderopacity="1.0"
     inkscape:pageshadow="2"
     inkscape:pageopacity="0.0"
     inkscape:pagecheckerboard="0"
     showgrid="false"
     inkscape:zoom="2.9445895"
     inkscape:cx="284.41995"
     inkscape:cy="106.63626"
     inkscape:window-width="2560"
     inkscape:window-height="1494"
     inkscape:window-x="-11"
     inkscape:window-y="-11"
     inkscape:window-maximized="1"
     inkscape:current-layer="Layer_1" />
  <defs
     id="defs44">
    <style
       id="style42">.cls-1,.cls-3,.cls-4{fill:none;}.cls-1,.cls-2,.cls-3{stroke:#000;}.cls-1,.cls-2,.cls-3,.cls-4{stroke-miterlimit:10;}.cls-3{stroke-dasharray:2;}.cls-4{stroke:#0071bc;}</style>
    <g
       id="g7234">
      <symbol
         overflow="visible"
         id="symbol7368">
        <path
           style="stroke:none;"
           d=""
           id="path4445" />
      </symbol>
      <symbol
         overflow="visible"
         id="symbol5453">
        <path
           style="stroke:none;"
           d="M 3.65625 -3.984375 L 4.515625 -3.984375 C 4.71875 -3.984375 4.8125 -3.984375 4.8125 -4.1875 C 4.8125 -4.296875 4.71875 -4.296875 4.546875 -4.296875 L 3.71875 -4.296875 L 3.921875 -5.4375 C 3.96875 -5.640625 4.109375 -6.34375 4.171875 -6.46875 C 4.25 -6.65625 4.421875 -6.8125 4.640625 -6.8125 C 4.671875 -6.8125 4.9375 -6.8125 5.125 -6.625 C 4.6875 -6.59375 4.578125 -6.234375 4.578125 -6.09375 C 4.578125 -5.859375 4.765625 -5.734375 4.953125 -5.734375 C 5.21875 -5.734375 5.5 -5.96875 5.5 -6.34375 C 5.5 -6.796875 5.046875 -7.03125 4.640625 -7.03125 C 4.296875 -7.03125 3.671875 -6.84375 3.375 -5.859375 C 3.3125 -5.65625 3.28125 -5.546875 3.046875 -4.296875 L 2.359375 -4.296875 C 2.15625 -4.296875 2.046875 -4.296875 2.046875 -4.109375 C 2.046875 -3.984375 2.140625 -3.984375 2.328125 -3.984375 L 2.984375 -3.984375 L 2.25 -0.046875 C 2.0625 0.921875 1.890625 1.828125 1.375 1.828125 C 1.328125 1.828125 1.09375 1.828125 0.890625 1.640625 C 1.359375 1.609375 1.453125 1.25 1.453125 1.109375 C 1.453125 0.875 1.265625 0.75 1.078125 0.75 C 0.8125 0.75 0.53125 0.984375 0.53125 1.359375 C 0.53125 1.796875 0.96875 2.046875 1.375 2.046875 C 1.921875 2.046875 2.328125 1.453125 2.5 1.078125 C 2.828125 0.453125 3.046875 -0.75 3.0625 -0.828125 Z M 3.65625 -3.984375 "
           id="path7113" />
      </symbol>
    </g>
    <g
       id="g2129">
      <symbol
         overflow="visible"
         id="symbol3214">
        <path
           style="stroke:none;"
           d=""
           id="path3707" />
      </symbol>
      <symbol
         overflow="visible"
         id="symbol6125">
        <path
           style="stroke:none;"
           d="M 1.328125 -0.828125 C 1.859375 -1.40625 2.15625 -1.65625 2.515625 -1.96875 C 2.515625 -1.96875 3.125 -2.5 3.484375 -2.859375 C 4.4375 -3.78125 4.65625 -4.265625 4.65625 -4.3125 C 4.65625 -4.40625 4.5625 -4.40625 4.546875 -4.40625 C 4.46875 -4.40625 4.453125 -4.390625 4.390625 -4.296875 C 4.09375 -3.8125 3.890625 -3.65625 3.65625 -3.65625 C 3.40625 -3.65625 3.296875 -3.8125 3.140625 -3.984375 C 2.953125 -4.203125 2.78125 -4.40625 2.453125 -4.40625 C 1.703125 -4.40625 1.25 -3.484375 1.25 -3.265625 C 1.25 -3.21875 1.28125 -3.15625 1.359375 -3.15625 C 1.453125 -3.15625 1.46875 -3.203125 1.5 -3.265625 C 1.6875 -3.734375 2.265625 -3.734375 2.34375 -3.734375 C 2.546875 -3.734375 2.734375 -3.671875 2.96875 -3.59375 C 3.375 -3.4375 3.484375 -3.4375 3.734375 -3.4375 C 3.375 -3.015625 2.546875 -2.296875 2.359375 -2.140625 L 1.453125 -1.296875 C 0.78125 -0.625 0.421875 -0.0625 0.421875 0.015625 C 0.421875 0.109375 0.53125 0.109375 0.546875 0.109375 C 0.625 0.109375 0.640625 0.09375 0.703125 -0.015625 C 0.9375 -0.375 1.234375 -0.640625 1.5625 -0.640625 C 1.78125 -0.640625 1.890625 -0.546875 2.140625 -0.265625 C 2.296875 -0.046875 2.484375 0.109375 2.765625 0.109375 C 3.765625 0.109375 4.34375 -1.15625 4.34375 -1.421875 C 4.34375 -1.46875 4.296875 -1.53125 4.21875 -1.53125 C 4.125 -1.53125 4.109375 -1.46875 4.078125 -1.390625 C 3.84375 -0.75 3.203125 -0.5625 2.875 -0.5625 C 2.6875 -0.5625 2.5 -0.625 2.296875 -0.6875 C 1.953125 -0.8125 1.796875 -0.859375 1.59375 -0.859375 C 1.578125 -0.859375 1.421875 -0.859375 1.328125 -0.828125 Z M 1.328125 -0.828125 "
           id="path6467" />
      </symbol>
      <symbol
         overflow="visible"
         id="symbol1491">
        <path
           style="stroke:none;"
           d=""
           id="path3938" />
      </symbol>
      <symbol
         overflow="visible"
         id="symbol2814">
        <path
           style="stroke:none;"
           d="M 6.84375 -3.265625 C 7 -3.265625 7.1875 -3.265625 7.1875 -3.453125 C 7.1875 -3.65625 7 -3.65625 6.859375 -3.65625 L 0.890625 -3.65625 C 0.75 -3.65625 0.5625 -3.65625 0.5625 -3.453125 C 0.5625 -3.265625 0.75 -3.265625 0.890625 -3.265625 Z M 6.859375 -1.328125 C 7 -1.328125 7.1875 -1.328125 7.1875 -1.53125 C 7.1875 -1.71875 7 -1.71875 6.84375 -1.71875 L 0.890625 -1.71875 C 0.75 -1.71875 0.5625 -1.71875 0.5625 -1.53125 C 0.5625 -1.328125 0.75 -1.328125 0.890625 -1.328125 Z M 6.859375 -1.328125 "
           id="path7606" />
      </symbol>
      <symbol
         overflow="visible"
         id="symbol3000">
        <path
           style="stroke:none;"
           d="M 4.578125 -3.1875 C 4.578125 -3.984375 4.53125 -4.78125 4.1875 -5.515625 C 3.734375 -6.484375 2.90625 -6.640625 2.5 -6.640625 C 1.890625 -6.640625 1.171875 -6.375 0.75 -5.453125 C 0.4375 -4.765625 0.390625 -3.984375 0.390625 -3.1875 C 0.390625 -2.4375 0.421875 -1.546875 0.84375 -0.78125 C 1.265625 0.015625 2 0.21875 2.484375 0.21875 C 3.015625 0.21875 3.78125 0.015625 4.21875 -0.9375 C 4.53125 -1.625 4.578125 -2.40625 4.578125 -3.1875 Z M 2.484375 0 C 2.09375 0 1.5 -0.25 1.328125 -1.203125 C 1.21875 -1.796875 1.21875 -2.71875 1.21875 -3.3125 C 1.21875 -3.953125 1.21875 -4.609375 1.296875 -5.140625 C 1.484375 -6.328125 2.234375 -6.421875 2.484375 -6.421875 C 2.8125 -6.421875 3.46875 -6.234375 3.65625 -5.25 C 3.765625 -4.6875 3.765625 -3.9375 3.765625 -3.3125 C 3.765625 -2.5625 3.765625 -1.890625 3.65625 -1.25 C 3.5 -0.296875 2.9375 0 2.484375 0 Z M 2.484375 0 "
           id="path2473" />
      </symbol>
    </g>
    <g
       id="g5188">
      <symbol
         overflow="visible"
         id="symbol6805">
        <path
           style="stroke:none;"
           d=""
           id="path9525" />
      </symbol>
      <symbol
         overflow="visible"
         id="symbol5107">
        <path
           style="stroke:none;"
           d="M 0.515625 1.28125 C 0.484375 1.421875 0.46875 1.4375 0.453125 1.453125 C 0.40625 1.46875 0.296875 1.46875 0.203125 1.46875 C 0.03125 1.46875 -0.15625 1.46875 -0.15625 1.75 C -0.15625 1.859375 -0.0625 1.9375 0.046875 1.9375 C 0.328125 1.9375 0.65625 1.90625 0.953125 1.90625 C 1.3125 1.90625 1.6875 1.9375 2.03125 1.9375 C 2.09375 1.9375 2.28125 1.9375 2.28125 1.640625 C 2.28125 1.46875 2.125 1.46875 2.03125 1.46875 C 1.890625 1.46875 1.71875 1.46875 1.59375 1.453125 L 2.03125 -0.28125 C 2.171875 -0.140625 2.5 0.078125 3.03125 0.078125 C 4.765625 0.078125 5.84375 -1.5 5.84375 -2.859375 C 5.84375 -4.09375 4.921875 -4.5 4.09375 -4.5 C 3.390625 -4.5 2.875 -4.109375 2.71875 -3.96875 C 2.328125 -4.5 1.671875 -4.5 1.5625 -4.5 C 1.203125 -4.5 0.90625 -4.296875 0.703125 -3.9375 C 0.453125 -3.53125 0.3125 -3 0.3125 -2.953125 C 0.3125 -2.8125 0.46875 -2.8125 0.5625 -2.8125 C 0.671875 -2.8125 0.703125 -2.8125 0.75 -2.859375 C 0.78125 -2.875 0.78125 -2.90625 0.84375 -3.15625 C 1.03125 -3.953125 1.265625 -4.140625 1.515625 -4.140625 C 1.625 -4.140625 1.75 -4.109375 1.75 -3.78125 C 1.75 -3.625 1.71875 -3.484375 1.6875 -3.34375 Z M 2.8125 -3.5 C 3.09375 -3.84375 3.5625 -4.140625 4.046875 -4.140625 C 4.671875 -4.140625 4.71875 -3.609375 4.71875 -3.390625 C 4.71875 -2.875 4.375 -1.640625 4.21875 -1.25 C 3.90625 -0.53125 3.421875 -0.28125 3.015625 -0.28125 C 2.421875 -0.28125 2.1875 -0.75 2.1875 -0.859375 L 2.203125 -1 Z M 2.8125 -3.5 "
           id="path7044" />
      </symbol>
    </g>
  </defs>
  <title
     id="title46">Thin lens</title>
  <path
     class="cls-1"
     d="M252.17,183.82a163.43,163.43,0,0,0-.14-144"
     id="path48" />
  <path
     class="cls-1"
     d="M251.67,183.76a163.41,163.41,0,0,1,.15-144"
     id="path50" />
  <line
     class="cls-1"
     x1="377.43"
     y1="112.15"
     y2="112.15"
     id="line52" />
  <circle
     class="cls-2"
     cx="377.5"
     cy="111.82"
     r="2.25"
     id="circle54" />
  <polyline
     class="cls-3"
     points="0.25 58.82 252 58.82 377.5 111.82 252.25 139.82 0.75 139.82"
     id="polyline56" />
  <polyline
     class="cls-3"
     points="377.5 111.82 252.75 166.32 0.5 166.32"
     id="polyline58" />
  <polyline
     class="cls-4"
     points="251.7 31.04 251.7 22.55 378.3 22.55 378.3 31.61"
     id="polyline68" />
  <g
     inkscape:label=""
     transform="matrix(2,0,0,2,128.46574,-148.62649)"
     id="g196">
    <g
       id="g7534">
      <g
         style="fill:#000000;fill-opacity:1"
         id="g1487">
        <use
           xlink:href="#symbol5453"
           x="91.925003"
           y="81.962997"
           id="use7004"
           width="100%"
           height="100%" />
      </g>
    </g>
  </g>
  <g
     inkscape:label=""
     transform="matrix(2,0,0,2,43.903859,36.119129)"
     id="g295">
    <g
       id="g7619">
      <g
         style="fill:#000000;fill-opacity:1"
         id="g1725">
        <use
           xlink:href="#symbol6125"
           x="91.925003"
           y="81.962997"
           id="use2126"
           width="100%"
           height="100%" />
      </g>
      <g
         style="fill:#000000;fill-opacity:1"
         id="g8365">
        <use
           xlink:href="#symbol2814"
           x="99.764"
           y="81.962997"
           id="use9249"
           width="100%"
           height="100%" />
      </g>
      <g
         style="fill:#000000;fill-opacity:1"
         id="g4110">
        <use
           xlink:href="#symbol3000"
           x="110.28252"
           y="81.962997"
           id="use5025"
           width="100%"
           height="100%" />
      </g>
    </g>
  </g>
  <g
     inkscape:label=""
     transform="matrix(2,0,0,2,185.85914,-34.179294)"
     id="g432">
    <g
       id="g6772">
      <g
         style="fill:#000000;fill-opacity:1"
         id="g4856">
        <use
           xlink:href="#symbol5107"
           x="91.925003"
           y="81.962997"
           id="use4391"
           width="100%"
           height="100%" />
      </g>
    </g>
  </g>
</svg>
