<svg id="Layer_1" data-name="Layer 1" xmlns="http://www.w3.org/2000/svg" viewBox="0 0 257.78 350.74"><defs><style>.cls-1,.cls-2,.cls-5,.cls-6{stroke:#000;stroke-miterlimit:10;}.cls-2,.cls-6{fill:none;}.cls-3{fill:#a6a6a6;}.cls-4{fill:#666;}.cls-5{fill:#fff;}.cls-6{stroke-dasharray:2 2;}</style></defs><title>Thin lens choose ray</title><circle class="cls-1" cx="241.21" cy="18.35" r="2.25"/><path d="M6.16,2.86A13.19,13.19,0,0,0,3.63,11a13.41,13.41,0,0,0,2.53,8.12H4.77A12.93,12.93,0,0,1,2.15,11,13.2,13.2,0,0,1,4.77,2.86Z"/><path d="M13.38,16.74l-.14-1.22h-.07a3.61,3.61,0,0,1-3,1.44,2.76,2.76,0,0,1-3-2.78c0-2.34,2.08-3.62,5.83-3.6v-.2a2,2,0,0,0-2.2-2.24,4.83,4.83,0,0,0-2.53.72L8,7.7a6,6,0,0,1,3.18-.86c3,0,3.69,2,3.69,4v3.62A13.63,13.63,0,0,0,15,16.74Zm-.26-4.94C11.19,11.76,9,12.1,9,14a1.56,1.56,0,0,0,1.66,1.68A2.4,2.4,0,0,0,13,14a1.59,1.59,0,0,0,.11-.56Z"/><path d="M16.59,19.16A13.54,13.54,0,0,0,19.11,11a13.26,13.26,0,0,0-2.52-8.12H18A12.74,12.74,0,0,1,20.57,11,13,13,0,0,1,18,19.16Z"/><path d="M5.28,182.5a13.19,13.19,0,0,0-2.52,8.18,13.48,13.48,0,0,0,2.52,8.12H3.9a12.93,12.93,0,0,1-2.62-8.12A13.2,13.2,0,0,1,3.9,182.5Z"/><path d="M7.06,196.38c0-.66.08-1.64.08-2.5v-11.7H8.88v6.08h0a3.61,3.61,0,0,1,3.3-1.78c2.4,0,4.1,2,4.08,4.94,0,3.46-2.18,5.18-4.34,5.18a3.45,3.45,0,0,1-3.24-1.82H8.66l-.08,1.6Zm1.82-3.88a3.3,3.3,0,0,0,.08.64,2.72,2.72,0,0,0,2.64,2.06c1.84,0,2.94-1.5,2.94-3.72,0-1.94-1-3.6-2.88-3.6A2.81,2.81,0,0,0,9,190a3.47,3.47,0,0,0-.1.72Z"/><path d="M17.4,198.8a13.54,13.54,0,0,0,2.52-8.18,13.26,13.26,0,0,0-2.52-8.12h1.36a12.74,12.74,0,0,1,2.62,8.14,13,13,0,0,1-2.62,8.16Z"/><line class="cls-2" x1="241.41" y1="18.05" x2="71.83" y2="98.7"/><polygon points="73.9 91.62 72.42 98.42 78.63 101.56 64.51 102.18 73.9 91.62"/><polygon class="cls-3" points="73.01 93.38 65.7 101.62 71.85 98.69 73.01 93.38"/><polygon class="cls-4" points="76.7 101.14 65.7 101.62 71.85 98.69 76.7 101.14"/><line class="cls-2" x1="242.06" y1="64.07" x2="1.09" y2="64.07"/><line class="cls-2" x1="241.95" y1="2.21" x2="241.95" y2="128.37"/><circle class="cls-5" cx="145.08" cy="63.83" r="2.25"/><path d="M227.56,152.72v-8.34H226.2V143h1.36v-.53a3.88,3.88,0,0,1,4.22-4.22,4.84,4.84,0,0,1,2.46.64l-.5,1.34a3.7,3.7,0,0,0-2-.56c-1.86,0-2.4,1.3-2.4,2.84V143h5.62v9.68h-1.74v-8.34H229.3v8.34Z"/><path d="M237.84,138.51h1.76v14.21h-1.76Z"/><path d="M242.56,145.66c0-1,0-1.83-.08-2.62H244l.08,1.55h.06a3.34,3.34,0,0,1,3-1.78,2.87,2.87,0,0,1,2.74,1.94h0a3.84,3.84,0,0,1,1.08-1.25,3.25,3.25,0,0,1,2.14-.69c1.28,0,3.18.85,3.18,4.21v5.7h-1.72v-5.48c0-1.86-.68-3-2.1-3a2.29,2.29,0,0,0-2.08,1.61,2.9,2.9,0,0,0-.14.88v6h-1.72v-5.8c0-1.54-.68-2.67-2-2.67a2.64,2.64,0,0,0-2.32,2.63v5.84h-1.72Z"/><circle class="cls-1" cx="242.16" cy="216.25" r="2.25"/><line class="cls-2" x1="243.5" y1="216.02" x2="8.27" y2="274.13"/><polygon points="10.75 269.44 8.72 274.02 12.65 277.13 2.6 275.53 10.75 269.44"/><polygon class="cls-3" points="9.87 270.55 3.52 275.31 8.28 274.13 9.87 270.55"/><polygon class="cls-4" points="11.35 276.56 3.52 275.31 8.28 274.13 11.35 276.56"/><line class="cls-2" x1="242.06" y1="240.56" x2="1.09" y2="240.56"/><line class="cls-2" x1="241.95" y1="178.69" x2="241.95" y2="304.86"/><circle class="cls-5" cx="145.69" cy="240.38" r="2.25"/><path d="M227.21,336.24V327.9h-1.36v-1.34h1.36V326a3.88,3.88,0,0,1,4.22-4.22,4.84,4.84,0,0,1,2.46.64l-.5,1.34a3.7,3.7,0,0,0-2-.56c-1.86,0-2.4,1.3-2.4,2.84v.48h5.62v9.68h-1.74V327.9H229v8.34Z"/><path d="M237.49,322h1.76v14.2h-1.76Z"/><path d="M242.21,329.18c0-1,0-1.82-.08-2.62h1.54l.08,1.56h.06a3.34,3.34,0,0,1,3-1.78,2.86,2.86,0,0,1,2.74,1.94h0a4,4,0,0,1,1.08-1.26,3.3,3.3,0,0,1,2.14-.68c1.28,0,3.19.84,3.19,4.2v5.7h-1.73v-5.48c0-1.86-.68-3-2.1-3a2.28,2.28,0,0,0-2.08,1.6,2.9,2.9,0,0,0-.14.88v6h-1.72v-5.8c0-1.54-.68-2.66-2-2.66a2.62,2.62,0,0,0-2.32,2.62v5.84h-1.72Z"/><path d="M117.16,336.24,117,335H117a3.61,3.61,0,0,1-3,1.44,2.76,2.76,0,0,1-3-2.78c0-2.34,2.08-3.62,5.82-3.6v-.2a2,2,0,0,0-2.2-2.24,4.82,4.82,0,0,0-2.52.72l-.4-1.16a6,6,0,0,1,3.18-.86c3,0,3.68,2,3.68,4v3.62a13.63,13.63,0,0,0,.16,2.32Zm-.26-4.94c-1.92,0-4.1.3-4.1,2.18a1.56,1.56,0,0,0,1.66,1.68,2.41,2.41,0,0,0,2.34-1.62,1.84,1.84,0,0,0,.1-.56Z"/><path d="M121.44,329.72c0-1.24,0-2.24-.08-3.16h1.58l.08,1.66h0a3.81,3.81,0,0,1,3.44-1.88c2.34,0,4.1,2,4.1,4.92,0,3.48-2.12,5.2-4.4,5.2a3.39,3.39,0,0,1-3-1.52h0v5.26h-1.74Zm1.74,2.58a4,4,0,0,0,.08.72,2.72,2.72,0,0,0,2.64,2.06c1.86,0,2.94-1.52,2.94-3.74,0-1.94-1-3.6-2.88-3.6a2.81,2.81,0,0,0-2.66,2.18,2.85,2.85,0,0,0-.12.72Z"/><path d="M133.8,331.72a3.1,3.1,0,0,0,3.32,3.36,6.36,6.36,0,0,0,2.68-.5l.3,1.26a7.84,7.84,0,0,1-3.22.6c-3,0-4.76-2-4.76-4.88s1.72-5.22,4.54-5.22c3.16,0,4,2.78,4,4.56a6.64,6.64,0,0,1-.06.82Zm5.16-1.26c0-1.12-.46-2.86-2.44-2.86-1.78,0-2.56,1.64-2.7,2.86Z"/><path d="M142.84,329.58c0-1.14,0-2.12-.08-3h1.54l.06,1.9h.08a2.9,2.9,0,0,1,2.68-2.12,1.9,1.9,0,0,1,.5.06v1.66a2.64,2.64,0,0,0-.6-.06,2.47,2.47,0,0,0-2.36,2.26,5,5,0,0,0-.08.82v5.16h-1.74Z"/><path d="M152,323.78v2.78h2.52v1.34H152v5.22c0,1.2.34,1.88,1.32,1.88a3.92,3.92,0,0,0,1-.12l.08,1.32a4.31,4.31,0,0,1-1.56.24,2.44,2.44,0,0,1-1.9-.74,3.59,3.59,0,0,1-.68-2.52V327.9h-1.5v-1.34h1.5v-2.32Z"/><path d="M164.58,333.6c0,1,0,1.88.08,2.64H163.1l-.1-1.58h0a3.64,3.64,0,0,1-3.2,1.8c-1.52,0-3.34-.84-3.34-4.24v-5.66h1.76v5.36c0,1.84.56,3.08,2.16,3.08a2.54,2.54,0,0,0,2.32-1.6,2.57,2.57,0,0,0,.16-.9v-5.94h1.76Z"/><path d="M167.5,329.58c0-1.14,0-2.12-.08-3H169l.06,1.9h.08a2.9,2.9,0,0,1,2.68-2.12,1.9,1.9,0,0,1,.5.06v1.66a2.64,2.64,0,0,0-.6-.06,2.47,2.47,0,0,0-2.36,2.26,5,5,0,0,0-.08.82v5.16H167.5Z"/><path d="M174.82,331.72a3.1,3.1,0,0,0,3.32,3.36,6.36,6.36,0,0,0,2.68-.5l.3,1.26a7.84,7.84,0,0,1-3.22.6c-3,0-4.76-2-4.76-4.88s1.72-5.22,4.54-5.22c3.16,0,4,2.78,4,4.56a6.64,6.64,0,0,1-.06.82Zm5.16-1.26c0-1.12-.46-2.86-2.44-2.86-1.78,0-2.56,1.64-2.7,2.86Z"/><line class="cls-2" x1="141.38" y1="215.9" x2="150.01" y2="215.9"/><line class="cls-2" x1="141.38" y1="264.86" x2="150.01" y2="264.86"/><line class="cls-2" x1="48.71" y1="180.86" x2="48.71" y2="307.03"/><path d="M15.72,320.22c0-1.24,0-2.24-.08-3.16h1.58l.08,1.66h0a3.82,3.82,0,0,1,3.45-1.88c2.34,0,4.1,2,4.1,4.92,0,3.48-2.12,5.2-4.4,5.2a3.41,3.41,0,0,1-3-1.52h0v5.26H15.72Zm1.74,2.58a4,4,0,0,0,.08.72,2.72,2.72,0,0,0,2.64,2.06c1.86,0,2.95-1.52,2.95-3.74,0-1.94-1-3.6-2.88-3.6a2.81,2.81,0,0,0-2.67,2.18,2.85,2.85,0,0,0-.12.72Z"/><path d="M27.1,312.54h1.76v14.2H27.1Z"/><path d="M37.18,326.74,37,325.52H37A3.61,3.61,0,0,1,34,327a2.76,2.76,0,0,1-3-2.78c0-2.34,2.08-3.62,5.82-3.6v-.2a2,2,0,0,0-2.2-2.24,4.82,4.82,0,0,0-2.52.72l-.4-1.16a6,6,0,0,1,3.18-.86c3,0,3.68,2,3.68,4v3.62a13.56,13.56,0,0,0,.17,2.32Zm-.26-4.94c-1.92,0-4.1.3-4.1,2.18a1.56,1.56,0,0,0,1.66,1.68A2.41,2.41,0,0,0,36.82,324a1.84,1.84,0,0,0,.1-.56Z"/><path d="M41.46,319.68c0-1,0-1.82-.08-2.62h1.56l.1,1.6h0a3.56,3.56,0,0,1,3.2-1.82c1.34,0,3.43.8,3.43,4.12v5.78H47.94v-5.58c0-1.56-.58-2.86-2.24-2.86a2.5,2.5,0,0,0-2.36,1.8,2.53,2.53,0,0,0-.12.82v5.82H41.46Z"/><path d="M53.54,322.22a3.1,3.1,0,0,0,3.32,3.36,6.36,6.36,0,0,0,2.68-.5l.3,1.26a7.84,7.84,0,0,1-3.22.6c-3,0-4.76-2-4.76-4.88s1.72-5.22,4.54-5.22c3.16,0,4,2.78,4,4.56a6.64,6.64,0,0,1-.06.82ZM58.7,321c0-1.12-.46-2.86-2.44-2.86-1.78,0-2.56,1.64-2.7,2.86Z"/><path d="M75.58,321.82c0,3.58-2.48,5.14-4.82,5.14-2.62,0-4.64-1.92-4.64-5,0-3.24,2.12-5.14,4.8-5.14S75.58,318.86,75.58,321.82Zm-7.68.1c0,2.12,1.22,3.72,2.94,3.72s2.94-1.58,2.94-3.76c0-1.64-.82-3.72-2.9-3.72S67.9,320.08,67.9,321.92Z"/><path d="M78,326.74V318.4H76.62v-1.34H78v-.46a4.56,4.56,0,0,1,1.12-3.38,3.37,3.37,0,0,1,2.36-.9,4.08,4.08,0,0,1,1.5.28L82.72,314a2.63,2.63,0,0,0-1.12-.22c-1.5,0-1.88,1.32-1.88,2.8v.52h2.34v1.34H79.72v8.34Z"/><path d="M27.63,345.74V337.4H26.27v-1.34h1.36v-.46a4.56,4.56,0,0,1,1.12-3.38,3.37,3.37,0,0,1,2.36-.9,4.08,4.08,0,0,1,1.5.28L32.38,333a2.72,2.72,0,0,0-1.13-.22c-1.5,0-1.88,1.32-1.88,2.8v.52h2.34v1.34H29.37v8.34Z"/><path d="M41.8,340.82A4.74,4.74,0,0,1,37,346c-2.62,0-4.64-1.92-4.64-5,0-3.24,2.12-5.14,4.8-5.14S41.8,337.86,41.8,340.82Zm-7.69.1c0,2.12,1.22,3.72,2.94,3.72s3-1.58,3-3.76c0-1.64-.83-3.72-2.91-3.72S34.11,339.08,34.11,340.92Z"/><path d="M50.91,345.38a6.48,6.48,0,0,1-2.78.56A4.6,4.6,0,0,1,43.31,341a4.92,4.92,0,0,1,5.2-5.14,5.88,5.88,0,0,1,2.44.5l-.4,1.36a4.08,4.08,0,0,0-2-.46,3.65,3.65,0,0,0-.06,7.28,5,5,0,0,0,2.16-.48Z"/><path d="M61.08,343.1c0,1,0,1.88.08,2.64H59.6l-.1-1.58h0a3.66,3.66,0,0,1-3.21,1.8c-1.52,0-3.34-.84-3.34-4.24v-5.66h1.76v5.36c0,1.84.56,3.08,2.16,3.08a2.57,2.57,0,0,0,2.33-1.6,2.83,2.83,0,0,0,.16-.9v-5.94h1.76Z"/><path d="M63.75,343.94a4.61,4.61,0,0,0,2.32.7c1.28,0,1.88-.64,1.88-1.44s-.5-1.3-1.8-1.78c-1.74-.62-2.56-1.58-2.56-2.74,0-1.56,1.26-2.84,3.34-2.84a4.83,4.83,0,0,1,2.38.6l-.43,1.28a3.84,3.84,0,0,0-2-.56c-1,0-1.62.6-1.62,1.32s.58,1.16,1.84,1.64c1.68.64,2.54,1.48,2.54,2.92,0,1.7-1.32,2.9-3.62,2.9a5.52,5.52,0,0,1-2.72-.66Z"/><circle class="cls-1" cx="48.8" cy="263.94" r="2.25"/><polyline class="cls-6" points="242.03 216.27 144.6 256.82 11.38 266.92"/><polygon points="14.6 262.7 11.84 266.88 15.2 270.6 5.56 267.36 14.6 262.7"/><polygon class="cls-3" points="13.55 263.65 6.5 267.29 11.39 266.92 13.55 263.65"/><polygon class="cls-4" points="14.02 269.82 6.5 267.29 11.39 266.92 14.02 269.82"/><circle class="cls-1" cx="145.03" cy="256.24" r="2.25"/></svg>