<?xml version="1.0" encoding="UTF-8" standalone="no"?>
<svg
   xmlns:dc="http://purl.org/dc/elements/1.1/"
   xmlns:cc="http://creativecommons.org/ns#"
   xmlns:rdf="http://www.w3.org/1999/02/22-rdf-syntax-ns#"
   xmlns:svg="http://www.w3.org/2000/svg"
   xmlns="http://www.w3.org/2000/svg"
   xmlns:xlink="http://www.w3.org/1999/xlink"
   xmlns:sodipodi="http://sodipodi.sourceforge.net/DTD/sodipodi-0.dtd"
   xmlns:inkscape="http://www.inkscape.org/namespaces/inkscape"
   id="Layer_1"
   data-name="Layer 1"
   viewBox="0 0 327.4 474.47"
   version="1.1"
   sodipodi:docname="CoordSysPoint.svg"
   inkscape:version="1.0.1 (3bc2e813f5, 2020-09-07)">
  <metadata
     id="metadata890">
    <rdf:RDF>
      <cc:Work
         rdf:about="">
        <dc:format>image/svg+xml</dc:format>
        <dc:type
           rdf:resource="http://purl.org/dc/dcmitype/StillImage" />
      </cc:Work>
    </rdf:RDF>
  </metadata>
  <sodipodi:namedview
     pagecolor="#ffffff"
     bordercolor="#666666"
     borderopacity="1"
     objecttolerance="10"
     gridtolerance="10"
     guidetolerance="10"
     inkscape:pageopacity="0"
     inkscape:pageshadow="2"
     inkscape:window-width="1920"
     inkscape:window-height="1017"
     id="namedview888"
     showgrid="false"
     inkscape:zoom="1.2652721"
     inkscape:cx="367.56414"
     inkscape:cy="216.25863"
     inkscape:window-x="1912"
     inkscape:window-y="-8"
     inkscape:window-maximized="1"
     inkscape:current-layer="Layer_1"
     inkscape:document-rotation="0" />
  <defs
     id="defs835">
    <rect
       x="101.1532"
       y="115.96293"
       width="13.692008"
       height="23.751442"
       id="rect943" />
    <style
       id="style833">.cls-1,.cls-5,.cls-6,.cls-7{fill:none;}.cls-1,.cls-4,.cls-5,.cls-6,.cls-7{stroke:#000;stroke-miterlimit:10;}.cls-2{fill:#a6a6a6;}.cls-3{fill:#666;}.cls-5{stroke-width:0.5px;}.cls-6{stroke-dasharray:4 4;}.cls-7{fill-rule:evenodd;}</style>
    <g
       id="g1935">
      <symbol
         overflow="visible"
         id="symbol8136">
        <path
           style="stroke:none;"
           d=""
           id="path5987" />
      </symbol>
      <symbol
         overflow="visible"
         id="symbol7886">
        <path
           style="stroke:none;"
           d="M 0.515625 1.28125 C 0.484375 1.421875 0.46875 1.4375 0.453125 1.453125 C 0.40625 1.46875 0.296875 1.46875 0.203125 1.46875 C 0.03125 1.46875 -0.15625 1.46875 -0.15625 1.75 C -0.15625 1.859375 -0.0625 1.9375 0.046875 1.9375 C 0.328125 1.9375 0.65625 1.90625 0.953125 1.90625 C 1.3125 1.90625 1.6875 1.9375 2.03125 1.9375 C 2.09375 1.9375 2.28125 1.9375 2.28125 1.640625 C 2.28125 1.46875 2.125 1.46875 2.03125 1.46875 C 1.890625 1.46875 1.71875 1.46875 1.59375 1.453125 L 2.03125 -0.28125 C 2.171875 -0.140625 2.5 0.078125 3.03125 0.078125 C 4.765625 0.078125 5.84375 -1.5 5.84375 -2.859375 C 5.84375 -4.09375 4.921875 -4.5 4.09375 -4.5 C 3.390625 -4.5 2.875 -4.109375 2.71875 -3.96875 C 2.328125 -4.5 1.671875 -4.5 1.5625 -4.5 C 1.203125 -4.5 0.90625 -4.296875 0.703125 -3.9375 C 0.453125 -3.53125 0.3125 -3 0.3125 -2.953125 C 0.3125 -2.8125 0.46875 -2.8125 0.5625 -2.8125 C 0.671875 -2.8125 0.703125 -2.8125 0.75 -2.859375 C 0.78125 -2.875 0.78125 -2.90625 0.84375 -3.15625 C 1.03125 -3.953125 1.265625 -4.140625 1.515625 -4.140625 C 1.625 -4.140625 1.75 -4.109375 1.75 -3.78125 C 1.75 -3.625 1.71875 -3.484375 1.6875 -3.34375 Z M 2.8125 -3.5 C 3.09375 -3.84375 3.5625 -4.140625 4.046875 -4.140625 C 4.671875 -4.140625 4.71875 -3.609375 4.71875 -3.390625 C 4.71875 -2.875 4.375 -1.640625 4.21875 -1.25 C 3.90625 -0.53125 3.421875 -0.28125 3.015625 -0.28125 C 2.421875 -0.28125 2.1875 -0.75 2.1875 -0.859375 L 2.203125 -1 Z M 2.8125 -3.5 "
           id="path5030" />
      </symbol>
    </g>
    <rect
       x="101.1532"
       y="115.96293"
       width="29.103713"
       height="32.050052"
       id="rect943-4" />
    <rect
       x="101.1532"
       y="115.96293"
       width="13.692008"
       height="23.751442"
       id="rect958" />
    <rect
       x="101.1532"
       y="115.96293"
       width="13.692008"
       height="23.751442"
       id="rect943-2" />
    <rect
       x="101.1532"
       y="115.96293"
       width="13.692008"
       height="23.751442"
       id="rect958-3" />
    <rect
       x="101.1532"
       y="115.96293"
       width="16.853383"
       height="30.074193"
       id="rect943-29" />
    <rect
       x="101.1532"
       y="115.96293"
       width="13.692008"
       height="23.751442"
       id="rect958-9" />
    <rect
       x="101.1532"
       y="115.96293"
       width="16.853382"
       height="30.074192"
       id="rect943-29-6" />
    <rect
       x="101.1532"
       y="115.96293"
       width="16.853382"
       height="30.074192"
       id="rect1018" />
    <rect
       x="101.1532"
       y="115.96293"
       width="16.853382"
       height="30.074192"
       id="rect943-29-3" />
    <rect
       x="101.1532"
       y="115.96293"
       width="16.853382"
       height="30.074192"
       id="rect1047" />
    <rect
       x="101.1532"
       y="115.96293"
       width="16.853382"
       height="30.074192"
       id="rect943-29-7" />
    <rect
       x="101.1532"
       y="115.96293"
       width="16.853382"
       height="30.074192"
       id="rect1105" />
  </defs>
  <title
     id="title837">Coord Sys Point</title>
  <polyline
     class="cls-1"
     points="5.5 155.89 5.5 435.79 286.4 435.79"
     id="polyline839" />
  <polygon
     points="0 160.8 5.5 156.54 11.01 160.8 5.5 147.79 0 160.8"
     id="polygon841" />
  <polygon
     class="cls-2"
     points="1.2 159.25 5.5 149.1 5.5 155.91 1.2 159.25"
     id="polygon843" />
  <polygon
     class="cls-3"
     points="9.8 159.25 5.5 149.1 5.5 155.91 9.8 159.25"
     id="polygon845" />
  <polygon
     points="281.49 441.29 285.75 435.79 281.49 430.29 294.5 435.79 281.49 441.29"
     id="polygon847" />
  <polygon
     class="cls-2"
     points="283.05 440.09 293.19 435.79 286.38 435.79 283.05 440.09"
     id="polygon849" />
  <polygon
     class="cls-3"
     points="283.05 431.49 293.19 435.79 286.38 435.79 283.05 431.49"
     id="polygon851" />
  <circle
     class="cls-4"
     cx="212"
     cy="230.79"
     r="7"
     id="circle853" />
  <line
     class="cls-5"
     x1="212.5"
     y1="436.17"
     x2="212.5"
     y2="230.79"
     id="line855" />
  <polyline
     class="cls-5"
     points="212.5 438.17 212.5 448.14 5.56 448.14 5.56 438.17"
     id="polyline859" />
  <polyline
     class="cls-6"
     points="257.15 7.23 197.77 124.59 193.09 133.85 320.17 198.15"
     id="polyline863" />
  <polygon
     points="250.02 9.13 256.85 7.81 259.84 14.1 260.81 0 250.02 9.13"
     id="polygon865" />
  <polygon
     class="cls-2"
     points="251.8 8.28 260.21 1.17 257.14 7.25 251.8 8.28"
     id="polygon867" />
  <polygon
     class="cls-3"
     points="259.47 12.16 260.21 1.17 257.14 7.25 259.47 12.16"
     id="polygon869" />
  <polygon
     points="313.31 200.84 319.59 197.86 318.27 191.02 327.4 201.81 313.31 200.84"
     id="polygon871" />
  <polygon
     class="cls-2"
     points="315.24 200.47 326.23 201.22 320.15 198.14 315.24 200.47"
     id="polygon873" />
  <polygon
     class="cls-3"
     points="319.12 192.8 326.23 201.22 320.15 198.14 319.12 192.8"
     id="polygon875" />
  <polyline
     class="cls-7"
     points="215.15 224.67 251.83 152.17 197.77 124.59"
     id="polyline877" />
  <g
     inkscape:label=""
     transform="matrix(2.1747573,0,0,2.1747573,-17.182923,55.910797)"
     id="g929">
    <g
       id="g9207">
      <g
         style="fill:#000000;fill-opacity:1"
         id="g1475">
        <use
           xlink:href="#symbol7886"
           x="91.925003"
           y="81.962997"
           id="use3314"
           width="100%"
           height="100%" />
      </g>
    </g>
  </g>
  <text
     xml:space="preserve"
     id="text941-9"
     style="font-size:18.6667px;line-height:1.25;font-family:'Times New Roman';-inkscape-font-specification:'Times New Roman, ';white-space:pre;shape-inside:url(#rect943-29);"
     transform="rotate(27.16155,166.85246,380.02298)"><tspan
       x="101.15234"
       y="134.89877"><tspan
         style="font-size:21.3333px">2</tspan></tspan></text>
  <text
     xml:space="preserve"
     id="text941-9-5"
     style="font-size:18.6667px;line-height:1.25;font-family:'Times New Roman';-inkscape-font-specification:'Times New Roman, ';white-space:pre;shape-inside:url(#rect943-29-6);"
     transform="translate(119.52141,208.47585)"><tspan
       x="101.15234"
       y="134.89877"><tspan
         style="font-size:21.3333px">8</tspan></tspan></text>
  <text
     xml:space="preserve"
     id="text941-9-3"
     style="font-size:18.6667px;line-height:1.25;font-family:'Times New Roman';-inkscape-font-specification:'Times New Roman, ';white-space:pre;shape-inside:url(#rect943-29-3);"
     transform="translate(0.96984206,332.16466)"><tspan
       x="101.15234"
       y="134.89877"><tspan
         style="font-size:21.3333px">8</tspan></tspan></text>
  <text
     xml:space="preserve"
     id="text941-9-2"
     style="font-size:18.6667px;line-height:1.25;font-family:'Times New Roman';-inkscape-font-specification:'Times New Roman, ';white-space:pre;shape-inside:url(#rect943-29-7);"
     transform="rotate(27.16155,25.514217,437.88942)"><tspan
       x="101.15234"
       y="132.53184"><tspan>-4</tspan></tspan></text>
</svg>
