<?xml version="1.0" encoding="UTF-8" standalone="no"?>
<svg
   xmlns:dc="http://purl.org/dc/elements/1.1/"
   xmlns:cc="http://creativecommons.org/ns#"
   xmlns:rdf="http://www.w3.org/1999/02/22-rdf-syntax-ns#"
   xmlns:svg="http://www.w3.org/2000/svg"
   xmlns="http://www.w3.org/2000/svg"
   xmlns:xlink="http://www.w3.org/1999/xlink"
   xmlns:sodipodi="http://sodipodi.sourceforge.net/DTD/sodipodi-0.dtd"
   xmlns:inkscape="http://www.inkscape.org/namespaces/inkscape"
   id="Layer_1"
   data-name="Layer 1"
   viewBox="0 0 179.24 190.82"
   version="1.1"
   sodipodi:docname="Localdifferentialgeometry.svg"
   inkscape:version="1.0.1 (3bc2e813f5, 2020-09-07)">
  <metadata
     id="metadata1874">
    <rdf:RDF>
      <cc:Work
         rdf:about="">
        <dc:format>image/svg+xml</dc:format>
        <dc:type
           rdf:resource="http://purl.org/dc/dcmitype/StillImage" />
      </cc:Work>
    </rdf:RDF>
  </metadata>
  <sodipodi:namedview
     pagecolor="#ffffff"
     bordercolor="#666666"
     borderopacity="1"
     objecttolerance="10"
     gridtolerance="10"
     guidetolerance="10"
     inkscape:pageopacity="0"
     inkscape:pageshadow="2"
     inkscape:window-width="1920"
     inkscape:window-height="1017"
     id="namedview1872"
     showgrid="false"
     inkscape:zoom="4.1564383"
     inkscape:cx="89.62"
     inkscape:cy="95.41"
     inkscape:window-x="1912"
     inkscape:window-y="-8"
     inkscape:window-maximized="1"
     inkscape:current-layer="Layer_1"
     inkscape:document-rotation="0" />
  <defs
     id="defs1827">
    <style
       id="style1825">.cls-1,.cls-2{fill:none;stroke:#000;stroke-miterlimit:10;}.cls-2{stroke-width:0.5px;}.cls-3{fill:#a6a6a6;}.cls-4{fill:#666;}</style>
    <g
       id="g4444">
      <symbol
         overflow="visible"
         id="symbol1446">
        <path
           style="stroke:none;"
           d=""
           id="path3290" />
      </symbol>
      <symbol
         overflow="visible"
         id="symbol7292">
        <path
           style="stroke:none;"
           d="M 0.515625 1.28125 C 0.484375 1.421875 0.46875 1.4375 0.453125 1.453125 C 0.40625 1.46875 0.296875 1.46875 0.203125 1.46875 C 0.03125 1.46875 -0.15625 1.46875 -0.15625 1.75 C -0.15625 1.859375 -0.0625 1.9375 0.046875 1.9375 C 0.328125 1.9375 0.65625 1.90625 0.953125 1.90625 C 1.3125 1.90625 1.6875 1.9375 2.03125 1.9375 C 2.09375 1.9375 2.28125 1.9375 2.28125 1.640625 C 2.28125 1.46875 2.125 1.46875 2.03125 1.46875 C 1.890625 1.46875 1.71875 1.46875 1.59375 1.453125 L 2.03125 -0.28125 C 2.171875 -0.140625 2.5 0.078125 3.03125 0.078125 C 4.765625 0.078125 5.84375 -1.5 5.84375 -2.859375 C 5.84375 -4.09375 4.921875 -4.5 4.09375 -4.5 C 3.390625 -4.5 2.875 -4.109375 2.71875 -3.96875 C 2.328125 -4.5 1.671875 -4.5 1.5625 -4.5 C 1.203125 -4.5 0.90625 -4.296875 0.703125 -3.9375 C 0.453125 -3.53125 0.3125 -3 0.3125 -2.953125 C 0.3125 -2.8125 0.46875 -2.8125 0.5625 -2.8125 C 0.671875 -2.8125 0.703125 -2.8125 0.75 -2.859375 C 0.78125 -2.875 0.78125 -2.90625 0.84375 -3.15625 C 1.03125 -3.953125 1.265625 -4.140625 1.515625 -4.140625 C 1.625 -4.140625 1.75 -4.109375 1.75 -3.78125 C 1.75 -3.625 1.71875 -3.484375 1.6875 -3.34375 Z M 2.8125 -3.5 C 3.09375 -3.84375 3.5625 -4.140625 4.046875 -4.140625 C 4.671875 -4.140625 4.71875 -3.609375 4.71875 -3.390625 C 4.71875 -2.875 4.375 -1.640625 4.21875 -1.25 C 3.90625 -0.53125 3.421875 -0.28125 3.015625 -0.28125 C 2.421875 -0.28125 2.1875 -0.75 2.1875 -0.859375 L 2.203125 -1 Z M 2.8125 -3.5 "
           id="path27" />
      </symbol>
    </g>
    <g
       id="g4354">
      <symbol
         overflow="visible"
         id="symbol3721">
        <path
           style="stroke:none;"
           d=""
           id="path169" />
      </symbol>
      <symbol
         overflow="visible"
         id="symbol1729">
        <path
           style="stroke:none;"
           d="M 2.796875 -3.75 C 2.65625 -4.25 2.109375 -4.5 1.5625 -4.5 C 1.203125 -4.5 0.921875 -4.296875 0.703125 -3.9375 C 0.453125 -3.53125 0.3125 -3 0.3125 -2.953125 C 0.3125 -2.8125 0.46875 -2.8125 0.5625 -2.8125 C 0.671875 -2.8125 0.703125 -2.8125 0.75 -2.859375 C 0.78125 -2.875 0.78125 -2.90625 0.84375 -3.15625 C 1.03125 -3.921875 1.25 -4.140625 1.515625 -4.140625 C 1.671875 -4.140625 1.75 -4.046875 1.75 -3.78125 C 1.75 -3.609375 1.703125 -3.453125 1.609375 -3.046875 C 1.53125 -2.765625 1.4375 -2.375 1.390625 -2.15625 L 1.03125 -0.75 C 1 -0.625 0.953125 -0.421875 0.953125 -0.359375 C 0.953125 -0.15625 1.109375 0.078125 1.421875 0.078125 C 1.9375 0.078125 2.046875 -0.375 2.125 -0.671875 C 2.21875 -1.046875 2.296875 -1.359375 2.40625 -1.796875 C 2.4375 -1.921875 2.6875 -2.953125 2.71875 -2.984375 C 2.71875 -3.046875 3 -3.484375 3.328125 -3.765625 C 3.609375 -3.984375 3.9375 -4.140625 4.359375 -4.140625 C 4.609375 -4.140625 4.859375 -4.046875 4.859375 -3.5625 C 4.859375 -2.984375 4.421875 -1.828125 4.234375 -1.328125 C 4.109375 -1.0625 4.09375 -0.984375 4.09375 -0.8125 C 4.09375 -0.234375 4.671875 0.078125 5.21875 0.078125 C 6.265625 0.078125 6.765625 -1.28125 6.765625 -1.46875 C 6.765625 -1.609375 6.625 -1.609375 6.53125 -1.609375 C 6.40625 -1.609375 6.34375 -1.609375 6.296875 -1.484375 C 5.96875 -0.375 5.4375 -0.28125 5.28125 -0.28125 C 5.203125 -0.28125 5.109375 -0.28125 5.109375 -0.484375 C 5.109375 -0.71875 5.203125 -0.96875 5.296875 -1.21875 C 5.46875 -1.625 5.921875 -2.796875 5.921875 -3.34375 C 5.921875 -4.265625 5.15625 -4.5 4.4375 -4.5 C 4.234375 -4.5 3.5 -4.5 2.796875 -3.75 Z M 2.796875 -3.75 "
           id="path4319" />
      </symbol>
    </g>
  </defs>
  <title
     id="title1829">Local differential geometry</title>
  <path
     class="cls-1"
     d="M151.91,35.33s-11.33,21.84-44.35,18.83-49-25.85-81.83.81C6.22,70.82,4.94,83.19.47,95.77"
     id="path1831" />
  <line
     class="cls-1"
     x1="178.76"
     y1="131.11"
     x2="151.87"
     y2="34.89"
     id="line1833" />
  <line
     class="cls-1"
     x1="27.26"
     y1="190.19"
     x2="0.54"
     y2="95.33"
     id="line1835" />
  <path
     class="cls-1"
     d="M178.74,130.59s-11.6,22.22-44.62,19.21-49-25.84-81.83.81c-18.94,15.39-20.82,27.84-25,40"
     id="path1837" />
  <polygon
     class="cls-2"
     points="118.28 100.93 55.03 101.61 40.66 71.89 103.92 71.21 118.28 100.93"
     id="polygon1839" />
  <line
     class="cls-1"
     x1="79.68"
     y1="87.48"
     x2="79.68"
     y2="26.63"
     id="line1841" />
  <polygon
     points="85.19 31.54 79.68 27.28 74.18 31.54 79.68 18.53 85.19 31.54"
     id="polygon1843" />
  <polygon
     class="cls-3"
     points="83.99 29.98 79.68 19.84 79.68 26.65 83.99 29.98"
     id="polygon1845" />
  <polygon
     class="cls-4"
     points="75.39 29.98 79.68 19.84 79.68 26.65 75.39 29.98"
     id="polygon1847" />
  <circle
     cx="79.66"
     cy="86.94"
     r="3.41"
     id="circle1851" />
  <line
     class="cls-1"
     x1="79.51"
     y1="87.06"
     x2="108.84"
     y2="119.17"
     id="line1855" />
  <polygon
     points="101.46 119.25 108.4 118.69 109.59 111.83 114.3 125.15 101.46 119.25"
     id="polygon1857" />
  <polygon
     class="cls-3"
     points="103.4 119.59 113.42 124.18 108.82 119.15 103.4 119.59"
     id="polygon1859" />
  <polygon
     class="cls-4"
     points="109.75 113.79 113.42 124.18 108.82 119.15 109.75 113.79"
     id="polygon1861" />
  <line
     class="cls-1"
     x1="122.47"
     y1="90.99"
     x2="79.51"
     y2="86.86"
     id="line1863" />
  <polygon
     points="118.11 85.05 121.82 90.93 117.05 96 130.53 91.77 118.11 85.05"
     id="polygon1865" />
  <polygon
     class="cls-3"
     points="119.54 86.39 129.23 91.64 122.45 90.99 119.54 86.39"
     id="polygon1867" />
  <polygon
     class="cls-4"
     points="118.72 94.95 129.23 91.64 122.45 90.99 118.72 94.95"
     id="polygon1869" />
  <g
     inkscape:label=""
     transform="matrix(2.4,0,0,2.4,-162.27924,-106.86854)"
     id="g1909">
    <g
       id="g5898">
      <g
         style="fill:#000000;fill-opacity:1"
         id="g5373">
        <use
           xlink:href="#symbol7292"
           x="91.925003"
           y="81.962997"
           id="use7961"
           width="100%"
           height="100%" />
      </g>
    </g>
  </g>
  <g
     inkscape:label=""
     transform="matrix(2.4,0,0,2.4,-149.28735,-180.00808)"
     id="g1963">
    <g
       id="g6752">
      <g
         style="fill:#000000;fill-opacity:1"
         id="g2849">
        <use
           xlink:href="#symbol1729"
           x="91.925003"
           y="81.962997"
           id="use1285"
           width="100%"
           height="100%" />
      </g>
    </g>
  </g>
</svg>
