<?xml version="1.0" encoding="UTF-8" standalone="no"?>
<svg
   xmlns:dc="http://purl.org/dc/elements/1.1/"
   xmlns:cc="http://creativecommons.org/ns#"
   xmlns:rdf="http://www.w3.org/1999/02/22-rdf-syntax-ns#"
   xmlns:svg="http://www.w3.org/2000/svg"
   xmlns="http://www.w3.org/2000/svg"
   xmlns:xlink="http://www.w3.org/1999/xlink"
   xmlns:sodipodi="http://sodipodi.sourceforge.net/DTD/sodipodi-0.dtd"
   xmlns:inkscape="http://www.inkscape.org/namespaces/inkscape"
   id="Layer_1"
   data-name="Layer 1"
   viewBox="0 0 200.08 227.47"
   version="1.1"
   sodipodi:docname="Pointtranslation2d.svg"
   inkscape:version="1.0.1 (3bc2e813f5, 2020-09-07)">
  <metadata
     id="metadata929">
    <rdf:RDF>
      <cc:Work
         rdf:about="">
        <dc:format>image/svg+xml</dc:format>
        <dc:type
           rdf:resource="http://purl.org/dc/dcmitype/StillImage" />
      </cc:Work>
    </rdf:RDF>
  </metadata>
  <sodipodi:namedview
     pagecolor="#ffffff"
     bordercolor="#666666"
     borderopacity="1"
     objecttolerance="10"
     gridtolerance="10"
     guidetolerance="10"
     inkscape:pageopacity="0"
     inkscape:pageshadow="2"
     inkscape:window-width="1920"
     inkscape:window-height="1017"
     id="namedview927"
     showgrid="false"
     inkscape:zoom="2.5339642"
     inkscape:cx="111.16157"
     inkscape:cy="140.87692"
     inkscape:window-x="1912"
     inkscape:window-y="-8"
     inkscape:window-maximized="1"
     inkscape:current-layer="Layer_1"
     inkscape:document-rotation="0" />
  <defs
     id="defs884">
    <style
       id="style882">.cls-1,.cls-4{fill:none;stroke:#000;stroke-miterlimit:10;}.cls-2{fill:#a6a6a6;}.cls-3{fill:#666;}.cls-4{stroke-dasharray:4;}</style>
    <g
       id="g3560">
      <symbol
         overflow="visible"
         id="symbol4600">
        <path
           style="stroke:none;"
           d=""
           id="path6581" />
      </symbol>
      <symbol
         overflow="visible"
         id="symbol8299">
        <path
           style="stroke:none;"
           d="M 0.515625 1.28125 C 0.484375 1.421875 0.46875 1.4375 0.453125 1.453125 C 0.40625 1.46875 0.296875 1.46875 0.203125 1.46875 C 0.03125 1.46875 -0.15625 1.46875 -0.15625 1.75 C -0.15625 1.859375 -0.0625 1.9375 0.046875 1.9375 C 0.328125 1.9375 0.65625 1.90625 0.953125 1.90625 C 1.3125 1.90625 1.6875 1.9375 2.03125 1.9375 C 2.09375 1.9375 2.28125 1.9375 2.28125 1.640625 C 2.28125 1.46875 2.125 1.46875 2.03125 1.46875 C 1.890625 1.46875 1.71875 1.46875 1.59375 1.453125 L 2.03125 -0.28125 C 2.171875 -0.140625 2.5 0.078125 3.03125 0.078125 C 4.765625 0.078125 5.84375 -1.5 5.84375 -2.859375 C 5.84375 -4.09375 4.921875 -4.5 4.09375 -4.5 C 3.390625 -4.5 2.875 -4.109375 2.71875 -3.96875 C 2.328125 -4.5 1.671875 -4.5 1.5625 -4.5 C 1.203125 -4.5 0.90625 -4.296875 0.703125 -3.9375 C 0.453125 -3.53125 0.3125 -3 0.3125 -2.953125 C 0.3125 -2.8125 0.46875 -2.8125 0.5625 -2.8125 C 0.671875 -2.8125 0.703125 -2.8125 0.75 -2.859375 C 0.78125 -2.875 0.78125 -2.90625 0.84375 -3.15625 C 1.03125 -3.953125 1.265625 -4.140625 1.515625 -4.140625 C 1.625 -4.140625 1.75 -4.109375 1.75 -3.78125 C 1.75 -3.625 1.71875 -3.484375 1.6875 -3.34375 Z M 2.8125 -3.5 C 3.09375 -3.84375 3.5625 -4.140625 4.046875 -4.140625 C 4.671875 -4.140625 4.71875 -3.609375 4.71875 -3.390625 C 4.71875 -2.875 4.375 -1.640625 4.21875 -1.25 C 3.90625 -0.53125 3.421875 -0.28125 3.015625 -0.28125 C 2.421875 -0.28125 2.1875 -0.75 2.1875 -0.859375 L 2.203125 -1 Z M 2.8125 -3.5 "
           id="path1167" />
      </symbol>
    </g>
    <g
       id="g5135">
      <symbol
         overflow="visible"
         id="symbol2766">
        <path
           style="stroke:none;"
           d=""
           id="path7075" />
      </symbol>
      <symbol
         overflow="visible"
         id="symbol3046">
        <path
           style="stroke:none;"
           d="M 0.515625 1.28125 C 0.484375 1.421875 0.46875 1.4375 0.453125 1.453125 C 0.40625 1.46875 0.296875 1.46875 0.203125 1.46875 C 0.03125 1.46875 -0.15625 1.46875 -0.15625 1.75 C -0.15625 1.859375 -0.0625 1.9375 0.046875 1.9375 C 0.328125 1.9375 0.65625 1.90625 0.953125 1.90625 C 1.3125 1.90625 1.6875 1.9375 2.03125 1.9375 C 2.09375 1.9375 2.28125 1.9375 2.28125 1.640625 C 2.28125 1.46875 2.125 1.46875 2.03125 1.46875 C 1.890625 1.46875 1.71875 1.46875 1.59375 1.453125 L 2.03125 -0.28125 C 2.171875 -0.140625 2.5 0.078125 3.03125 0.078125 C 4.765625 0.078125 5.84375 -1.5 5.84375 -2.859375 C 5.84375 -4.09375 4.921875 -4.5 4.09375 -4.5 C 3.390625 -4.5 2.875 -4.109375 2.71875 -3.96875 C 2.328125 -4.5 1.671875 -4.5 1.5625 -4.5 C 1.203125 -4.5 0.90625 -4.296875 0.703125 -3.9375 C 0.453125 -3.53125 0.3125 -3 0.3125 -2.953125 C 0.3125 -2.8125 0.46875 -2.8125 0.5625 -2.8125 C 0.671875 -2.8125 0.703125 -2.8125 0.75 -2.859375 C 0.78125 -2.875 0.78125 -2.90625 0.84375 -3.15625 C 1.03125 -3.953125 1.265625 -4.140625 1.515625 -4.140625 C 1.625 -4.140625 1.75 -4.109375 1.75 -3.78125 C 1.75 -3.625 1.71875 -3.484375 1.6875 -3.34375 Z M 2.8125 -3.5 C 3.09375 -3.84375 3.5625 -4.140625 4.046875 -4.140625 C 4.671875 -4.140625 4.71875 -3.609375 4.71875 -3.390625 C 4.71875 -2.875 4.375 -1.640625 4.21875 -1.25 C 3.90625 -0.53125 3.421875 -0.28125 3.015625 -0.28125 C 2.421875 -0.28125 2.1875 -0.75 2.1875 -0.859375 L 2.203125 -1 Z M 2.8125 -3.5 "
           id="path1336" />
      </symbol>
      <symbol
         overflow="visible"
         id="symbol8427">
        <path
           style="stroke:none;"
           d=""
           id="path4038" />
      </symbol>
      <symbol
         overflow="visible"
         id="symbol5604">
        <path
           style="stroke:none;"
           d="M 2.015625 -3.296875 C 2.078125 -3.40625 2.078125 -3.46875 2.078125 -3.515625 C 2.078125 -3.734375 1.890625 -3.890625 1.671875 -3.890625 C 1.40625 -3.890625 1.328125 -3.671875 1.296875 -3.5625 L 0.375 -0.546875 C 0.359375 -0.53125 0.328125 -0.453125 0.328125 -0.4375 C 0.328125 -0.359375 0.546875 -0.28125 0.609375 -0.28125 C 0.65625 -0.28125 0.65625 -0.296875 0.703125 -0.40625 Z M 2.015625 -3.296875 "
           id="path9560" />
      </symbol>
    </g>
    <g
       id="g1353">
      <symbol
         overflow="visible"
         id="symbol7311">
        <path
           style="stroke:none;"
           d=""
           id="path4247" />
      </symbol>
      <symbol
         overflow="visible"
         id="symbol7632">
        <path
           style="stroke:none;"
           d="M 3.328125 -3.015625 C 3.390625 -3.265625 3.625 -4.1875 4.3125 -4.1875 C 4.359375 -4.1875 4.609375 -4.1875 4.8125 -4.0625 C 4.53125 -4 4.34375 -3.765625 4.34375 -3.515625 C 4.34375 -3.359375 4.453125 -3.171875 4.71875 -3.171875 C 4.9375 -3.171875 5.25 -3.34375 5.25 -3.75 C 5.25 -4.265625 4.671875 -4.40625 4.328125 -4.40625 C 3.75 -4.40625 3.40625 -3.875 3.28125 -3.65625 C 3.03125 -4.3125 2.5 -4.40625 2.203125 -4.40625 C 1.171875 -4.40625 0.59375 -3.125 0.59375 -2.875 C 0.59375 -2.765625 0.703125 -2.765625 0.71875 -2.765625 C 0.796875 -2.765625 0.828125 -2.796875 0.84375 -2.875 C 1.1875 -3.9375 1.84375 -4.1875 2.1875 -4.1875 C 2.375 -4.1875 2.71875 -4.09375 2.71875 -3.515625 C 2.71875 -3.203125 2.546875 -2.546875 2.1875 -1.140625 C 2.03125 -0.53125 1.671875 -0.109375 1.234375 -0.109375 C 1.171875 -0.109375 0.953125 -0.109375 0.734375 -0.234375 C 0.984375 -0.296875 1.203125 -0.5 1.203125 -0.78125 C 1.203125 -1.046875 0.984375 -1.125 0.84375 -1.125 C 0.53125 -1.125 0.296875 -0.875 0.296875 -0.546875 C 0.296875 -0.09375 0.78125 0.109375 1.21875 0.109375 C 1.890625 0.109375 2.25 -0.59375 2.265625 -0.640625 C 2.390625 -0.28125 2.75 0.109375 3.34375 0.109375 C 4.375 0.109375 4.9375 -1.171875 4.9375 -1.421875 C 4.9375 -1.53125 4.859375 -1.53125 4.828125 -1.53125 C 4.734375 -1.53125 4.71875 -1.484375 4.6875 -1.421875 C 4.359375 -0.34375 3.6875 -0.109375 3.375 -0.109375 C 2.984375 -0.109375 2.828125 -0.421875 2.828125 -0.765625 C 2.828125 -0.984375 2.875 -1.203125 2.984375 -1.640625 Z M 3.328125 -3.015625 "
           id="path59" />
      </symbol>
    </g>
    <g
       id="g6082">
      <symbol
         overflow="visible"
         id="symbol7374">
        <path
           style="stroke:none;"
           d=""
           id="path6678" />
      </symbol>
      <symbol
         overflow="visible"
         id="symbol8121">
        <path
           style="stroke:none;"
           d="M 4.84375 -3.796875 C 4.890625 -3.9375 4.890625 -3.953125 4.890625 -4.03125 C 4.890625 -4.203125 4.75 -4.296875 4.59375 -4.296875 C 4.5 -4.296875 4.34375 -4.234375 4.25 -4.09375 C 4.234375 -4.03125 4.140625 -3.734375 4.109375 -3.546875 C 4.03125 -3.296875 3.96875 -3.015625 3.90625 -2.75 L 3.453125 -0.953125 C 3.421875 -0.8125 2.984375 -0.109375 2.328125 -0.109375 C 1.828125 -0.109375 1.71875 -0.546875 1.71875 -0.921875 C 1.71875 -1.375 1.890625 -2 2.21875 -2.875 C 2.375 -3.28125 2.421875 -3.390625 2.421875 -3.59375 C 2.421875 -4.03125 2.109375 -4.40625 1.609375 -4.40625 C 0.65625 -4.40625 0.296875 -2.953125 0.296875 -2.875 C 0.296875 -2.765625 0.390625 -2.765625 0.40625 -2.765625 C 0.515625 -2.765625 0.515625 -2.796875 0.5625 -2.953125 C 0.84375 -3.890625 1.234375 -4.1875 1.578125 -4.1875 C 1.65625 -4.1875 1.828125 -4.1875 1.828125 -3.875 C 1.828125 -3.625 1.71875 -3.359375 1.65625 -3.171875 C 1.25 -2.109375 1.078125 -1.546875 1.078125 -1.078125 C 1.078125 -0.1875 1.703125 0.109375 2.296875 0.109375 C 2.6875 0.109375 3.015625 -0.0625 3.296875 -0.34375 C 3.171875 0.171875 3.046875 0.671875 2.65625 1.203125 C 2.390625 1.53125 2.015625 1.828125 1.5625 1.828125 C 1.421875 1.828125 0.96875 1.796875 0.796875 1.40625 C 0.953125 1.40625 1.09375 1.40625 1.21875 1.28125 C 1.328125 1.203125 1.421875 1.0625 1.421875 0.875 C 1.421875 0.5625 1.15625 0.53125 1.0625 0.53125 C 0.828125 0.53125 0.5 0.6875 0.5 1.171875 C 0.5 1.671875 0.9375 2.046875 1.5625 2.046875 C 2.578125 2.046875 3.609375 1.140625 3.890625 0.015625 Z M 4.84375 -3.796875 "
           id="path5770" />
      </symbol>
    </g>
    <g
       id="g3287">
      <symbol
         overflow="visible"
         id="symbol8555">
        <path
           style="stroke:none;"
           d=""
           id="path1340" />
      </symbol>
      <symbol
         overflow="visible"
         id="symbol5985">
        <path
           style="stroke:none;"
           d="M 4.40625 -6.953125 C 4.34375 -7.09375 4.3125 -7.140625 4.140625 -7.140625 C 3.984375 -7.140625 3.953125 -7.09375 3.890625 -6.953125 L 0.515625 -0.203125 C 0.46875 -0.109375 0.46875 -0.09375 0.46875 -0.078125 C 0.46875 0 0.53125 0 0.6875 0 L 7.609375 0 C 7.765625 0 7.828125 0 7.828125 -0.078125 C 7.828125 -0.09375 7.828125 -0.109375 7.78125 -0.203125 Z M 3.828125 -6.140625 L 6.515625 -0.75 L 1.140625 -0.75 Z M 3.828125 -6.140625 "
           id="path9901" />
      </symbol>
      <symbol
         overflow="visible"
         id="symbol7979">
        <path
           style="stroke:none;"
           d=""
           id="path4652" />
      </symbol>
      <symbol
         overflow="visible"
         id="symbol2757">
        <path
           style="stroke:none;"
           d="M 4.84375 -3.796875 C 4.890625 -3.9375 4.890625 -3.953125 4.890625 -4.03125 C 4.890625 -4.203125 4.75 -4.296875 4.59375 -4.296875 C 4.5 -4.296875 4.34375 -4.234375 4.25 -4.09375 C 4.234375 -4.03125 4.140625 -3.734375 4.109375 -3.546875 C 4.03125 -3.296875 3.96875 -3.015625 3.90625 -2.75 L 3.453125 -0.953125 C 3.421875 -0.8125 2.984375 -0.109375 2.328125 -0.109375 C 1.828125 -0.109375 1.71875 -0.546875 1.71875 -0.921875 C 1.71875 -1.375 1.890625 -2 2.21875 -2.875 C 2.375 -3.28125 2.421875 -3.390625 2.421875 -3.59375 C 2.421875 -4.03125 2.109375 -4.40625 1.609375 -4.40625 C 0.65625 -4.40625 0.296875 -2.953125 0.296875 -2.875 C 0.296875 -2.765625 0.390625 -2.765625 0.40625 -2.765625 C 0.515625 -2.765625 0.515625 -2.796875 0.5625 -2.953125 C 0.84375 -3.890625 1.234375 -4.1875 1.578125 -4.1875 C 1.65625 -4.1875 1.828125 -4.1875 1.828125 -3.875 C 1.828125 -3.625 1.71875 -3.359375 1.65625 -3.171875 C 1.25 -2.109375 1.078125 -1.546875 1.078125 -1.078125 C 1.078125 -0.1875 1.703125 0.109375 2.296875 0.109375 C 2.6875 0.109375 3.015625 -0.0625 3.296875 -0.34375 C 3.171875 0.171875 3.046875 0.671875 2.65625 1.203125 C 2.390625 1.53125 2.015625 1.828125 1.5625 1.828125 C 1.421875 1.828125 0.96875 1.796875 0.796875 1.40625 C 0.953125 1.40625 1.09375 1.40625 1.21875 1.28125 C 1.328125 1.203125 1.421875 1.0625 1.421875 0.875 C 1.421875 0.5625 1.15625 0.53125 1.0625 0.53125 C 0.828125 0.53125 0.5 0.6875 0.5 1.171875 C 0.5 1.671875 0.9375 2.046875 1.5625 2.046875 C 2.578125 2.046875 3.609375 1.140625 3.890625 0.015625 Z M 4.84375 -3.796875 "
           id="path8267" />
      </symbol>
    </g>
    <g
       id="g7961">
      <symbol
         overflow="visible"
         id="symbol6777">
        <path
           style="stroke:none;"
           d=""
           id="path3875" />
      </symbol>
      <symbol
         overflow="visible"
         id="symbol6148">
        <path
           style="stroke:none;"
           d="M 4.40625 -6.953125 C 4.34375 -7.09375 4.3125 -7.140625 4.140625 -7.140625 C 3.984375 -7.140625 3.953125 -7.09375 3.890625 -6.953125 L 0.515625 -0.203125 C 0.46875 -0.109375 0.46875 -0.09375 0.46875 -0.078125 C 0.46875 0 0.53125 0 0.6875 0 L 7.609375 0 C 7.765625 0 7.828125 0 7.828125 -0.078125 C 7.828125 -0.09375 7.828125 -0.109375 7.78125 -0.203125 Z M 3.828125 -6.140625 L 6.515625 -0.75 L 1.140625 -0.75 Z M 3.828125 -6.140625 "
           id="path5418" />
      </symbol>
      <symbol
         overflow="visible"
         id="symbol6834">
        <path
           style="stroke:none;"
           d=""
           id="path2307" />
      </symbol>
      <symbol
         overflow="visible"
         id="symbol7796">
        <path
           style="stroke:none;"
           d="M 3.328125 -3.015625 C 3.390625 -3.265625 3.625 -4.1875 4.3125 -4.1875 C 4.359375 -4.1875 4.609375 -4.1875 4.8125 -4.0625 C 4.53125 -4 4.34375 -3.765625 4.34375 -3.515625 C 4.34375 -3.359375 4.453125 -3.171875 4.71875 -3.171875 C 4.9375 -3.171875 5.25 -3.34375 5.25 -3.75 C 5.25 -4.265625 4.671875 -4.40625 4.328125 -4.40625 C 3.75 -4.40625 3.40625 -3.875 3.28125 -3.65625 C 3.03125 -4.3125 2.5 -4.40625 2.203125 -4.40625 C 1.171875 -4.40625 0.59375 -3.125 0.59375 -2.875 C 0.59375 -2.765625 0.703125 -2.765625 0.71875 -2.765625 C 0.796875 -2.765625 0.828125 -2.796875 0.84375 -2.875 C 1.1875 -3.9375 1.84375 -4.1875 2.1875 -4.1875 C 2.375 -4.1875 2.71875 -4.09375 2.71875 -3.515625 C 2.71875 -3.203125 2.546875 -2.546875 2.1875 -1.140625 C 2.03125 -0.53125 1.671875 -0.109375 1.234375 -0.109375 C 1.171875 -0.109375 0.953125 -0.109375 0.734375 -0.234375 C 0.984375 -0.296875 1.203125 -0.5 1.203125 -0.78125 C 1.203125 -1.046875 0.984375 -1.125 0.84375 -1.125 C 0.53125 -1.125 0.296875 -0.875 0.296875 -0.546875 C 0.296875 -0.09375 0.78125 0.109375 1.21875 0.109375 C 1.890625 0.109375 2.25 -0.59375 2.265625 -0.640625 C 2.390625 -0.28125 2.75 0.109375 3.34375 0.109375 C 4.375 0.109375 4.9375 -1.171875 4.9375 -1.421875 C 4.9375 -1.53125 4.859375 -1.53125 4.828125 -1.53125 C 4.734375 -1.53125 4.71875 -1.484375 4.6875 -1.421875 C 4.359375 -0.34375 3.6875 -0.109375 3.375 -0.109375 C 2.984375 -0.109375 2.828125 -0.421875 2.828125 -0.765625 C 2.828125 -0.984375 2.875 -1.203125 2.984375 -1.640625 Z M 3.328125 -3.015625 "
           id="path9914" />
      </symbol>
    </g>
  </defs>
  <title
     id="title886">Point translation 2d</title>
  <polyline
     class="cls-1"
     points="5.5 67.27 5.5 221.31 160.1 221.31"
     id="polyline888" />
  <polygon
     points="0 72.18 5.5 67.92 11.01 72.18 5.5 59.17 0 72.18"
     id="polygon890" />
  <polygon
     class="cls-2"
     points="1.2 70.63 5.5 60.48 5.5 67.29 1.2 70.63"
     id="polygon892" />
  <polygon
     class="cls-3"
     points="9.8 70.63 5.5 60.48 5.5 67.29 9.8 70.63"
     id="polygon894" />
  <polygon
     points="155.19 226.81 159.45 221.31 155.19 215.8 168.21 221.31 155.19 226.81"
     id="polygon896" />
  <polygon
     class="cls-2"
     points="156.75 225.61 166.89 221.31 160.08 221.31 156.75 225.61"
     id="polygon898" />
  <polygon
     class="cls-3"
     points="156.75 217.01 166.89 221.31 160.08 221.31 156.75 217.01"
     id="polygon900" />
  <circle
     cx="78.21"
     cy="148.46"
     r="6.22"
     id="circle906" />
  <polyline
     class="cls-4"
     points="78.21 148.46 166.54 148.46 166.54 13.04"
     id="polyline908" />
  <circle
     cx="166.84"
     cy="15.17"
     r="6.22"
     id="circle910" />
  <g
     inkscape:label=""
     transform="matrix(2.1884641,0,0,2.1884641,-130.28899,-8.2308634)"
     id="g963">
    <g
       id="g379">
      <g
         style="fill:#000000;fill-opacity:1"
         id="g6039">
        <use
           xlink:href="#symbol8299"
           x="91.925003"
           y="81.962997"
           id="use632"
           width="100%"
           height="100%" />
      </g>
    </g>
  </g>
  <g
     inkscape:label=""
     transform="matrix(2.1884641,0,0,2.1884641,-25.315132,-158.19352)"
     id="g1022">
    <g
       id="g3687">
      <g
         style="fill:#000000;fill-opacity:1"
         id="g7445">
        <use
           xlink:href="#symbol3046"
           x="91.925003"
           y="81.962997"
           id="use6112"
           width="100%"
           height="100%" />
      </g>
      <g
         style="fill:#000000;fill-opacity:1"
         id="g477">
        <use
           xlink:href="#symbol5604"
           x="97.912003"
           y="77.848999"
           id="use2647"
           width="100%"
           height="100%" />
      </g>
    </g>
  </g>
  <g
     inkscape:label=""
     transform="matrix(2.1884641,0,0,2.1884641,-29.656155,45.439981)"
     id="g1096">
    <g
       id="g622">
      <g
         style="fill:#000000;fill-opacity:1"
         id="g4680">
        <use
           xlink:href="#symbol7632"
           x="91.925003"
           y="81.962997"
           id="use3690"
           width="100%"
           height="100%" />
      </g>
    </g>
  </g>
  <g
     inkscape:label=""
     transform="matrix(2.1884641,0,0,2.1884641,-200.14002,-130.56882)"
     id="g1173">
    <g
       id="g8100">
      <g
         style="fill:#000000;fill-opacity:1"
         id="g405">
        <use
           xlink:href="#symbol8121"
           x="91.925003"
           y="81.962997"
           id="use5830"
           width="100%"
           height="100%" />
      </g>
    </g>
  </g>
  <g
     inkscape:label=""
     transform="matrix(2.1884641,0,0,2.1884641,-32.813268,-82.028275)"
     id="g1265">
    <g
       id="g4508">
      <g
         style="fill:#000000;fill-opacity:1"
         id="g2003">
        <use
           xlink:href="#symbol5985"
           x="91.925003"
           y="81.962997"
           id="use3762"
           width="100%"
           height="100%" />
      </g>
      <g
         style="fill:#000000;fill-opacity:1"
         id="g7260">
        <use
           xlink:href="#symbol2757"
           x="100.227"
           y="81.962997"
           id="use3692"
           width="100%"
           height="100%" />
      </g>
    </g>
  </g>
  <g
     inkscape:label=""
     transform="matrix(2.1884641,0,0,2.1884641,-86.878749,-7.0469495)"
     id="g1378">
    <g
       id="g5723">
      <g
         style="fill:#000000;fill-opacity:1"
         id="g5710">
        <use
           xlink:href="#symbol6148"
           x="91.925003"
           y="81.962997"
           id="use8855"
           width="100%"
           height="100%" />
      </g>
      <g
         style="fill:#000000;fill-opacity:1"
         id="g1851">
        <use
           xlink:href="#symbol7796"
           x="100.227"
           y="81.962997"
           id="use3138"
           width="100%"
           height="100%" />
      </g>
    </g>
  </g>
</svg>
