<?xml version="1.0" encoding="UTF-8" standalone="no"?>
<svg
   xmlns:dc="http://purl.org/dc/elements/1.1/"
   xmlns:cc="http://creativecommons.org/ns#"
   xmlns:rdf="http://www.w3.org/1999/02/22-rdf-syntax-ns#"
   xmlns:svg="http://www.w3.org/2000/svg"
   xmlns="http://www.w3.org/2000/svg"
   xmlns:xlink="http://www.w3.org/1999/xlink"
   xmlns:sodipodi="http://sodipodi.sourceforge.net/DTD/sodipodi-0.dtd"
   xmlns:inkscape="http://www.inkscape.org/namespaces/inkscape"
   width="115.96141mm"
   height="124.95718mm"
   viewBox="0 0 115.96141 124.95718"
   version="1.1"
   id="svg8"
   inkscape:version="1.0.1 (3bc2e813f5, 2020-09-07)"
   sodipodi:docname="QuaternionAndRotaion.svg">
  <defs
     id="defs2">
    <marker
       style="overflow:visible"
       id="marker2285"
       refX="0"
       refY="0"
       orient="auto"
       inkscape:stockid="Arrow1Mend"
       inkscape:isstock="true">
      <path
         transform="matrix(-0.4,0,0,-0.4,-4,0)"
         style="fill:#000000;fill-opacity:1;fill-rule:evenodd;stroke:#000000;stroke-width:1pt;stroke-opacity:1"
         d="M 0,0 5,-5 -12.5,0 5,5 Z"
         id="path2283" />
    </marker>
    <marker
       style="overflow:visible"
       id="marker2081"
       refX="0"
       refY="0"
       orient="auto"
       inkscape:stockid="Arrow1Mend"
       inkscape:isstock="true">
      <path
         transform="matrix(-0.4,0,0,-0.4,-4,0)"
         style="fill:#000000;fill-opacity:1;fill-rule:evenodd;stroke:#000000;stroke-width:1pt;stroke-opacity:1"
         d="M 0,0 5,-5 -12.5,0 5,5 Z"
         id="path2079" />
    </marker>
    <marker
       style="overflow:visible"
       id="marker1958"
       refX="0"
       refY="0"
       orient="auto"
       inkscape:stockid="Arrow1Mend"
       inkscape:isstock="true">
      <path
         transform="matrix(-0.4,0,0,-0.4,-4,0)"
         style="fill:#000000;fill-opacity:1;fill-rule:evenodd;stroke:#000000;stroke-width:1pt;stroke-opacity:1"
         d="M 0,0 5,-5 -12.5,0 5,5 Z"
         id="path1956" />
    </marker>
    <marker
       style="overflow:visible"
       id="marker1860"
       refX="0"
       refY="0"
       orient="auto"
       inkscape:stockid="Arrow1Mend"
       inkscape:isstock="true"
       inkscape:collect="always">
      <path
         transform="matrix(-0.4,0,0,-0.4,-4,0)"
         style="fill:#000000;fill-opacity:1;fill-rule:evenodd;stroke:#000000;stroke-width:1pt;stroke-opacity:1"
         d="M 0,0 5,-5 -12.5,0 5,5 Z"
         id="path1858" />
    </marker>
    <marker
       style="overflow:visible"
       id="marker1714"
       refX="0"
       refY="0"
       orient="auto"
       inkscape:stockid="Arrow1Mend"
       inkscape:isstock="true"
       inkscape:collect="always">
      <path
         transform="matrix(-0.4,0,0,-0.4,-4,0)"
         style="fill:#000000;fill-opacity:1;fill-rule:evenodd;stroke:#000000;stroke-width:1pt;stroke-opacity:1"
         d="M 0,0 5,-5 -12.5,0 5,5 Z"
         id="path1712" />
    </marker>
    <marker
       style="overflow:visible"
       id="marker1441"
       refX="0"
       refY="0"
       orient="auto"
       inkscape:stockid="Arrow1Mend"
       inkscape:isstock="true">
      <path
         transform="matrix(-0.4,0,0,-0.4,-4,0)"
         style="fill:#000000;fill-opacity:1;fill-rule:evenodd;stroke:#000000;stroke-width:1pt;stroke-opacity:1"
         d="M 0,0 5,-5 -12.5,0 5,5 Z"
         id="path1439" />
    </marker>
    <marker
       style="overflow:visible"
       id="marker1331"
       refX="0"
       refY="0"
       orient="auto"
       inkscape:stockid="Arrow1Mend"
       inkscape:isstock="true">
      <path
         transform="matrix(-0.4,0,0,-0.4,-4,0)"
         style="fill:#000000;fill-opacity:1;fill-rule:evenodd;stroke:#000000;stroke-width:1pt;stroke-opacity:1"
         d="M 0,0 5,-5 -12.5,0 5,5 Z"
         id="path1329" />
    </marker>
    <marker
       style="overflow:visible"
       id="marker1283"
       refX="0"
       refY="0"
       orient="auto"
       inkscape:stockid="Arrow1Mend"
       inkscape:isstock="true"
       inkscape:collect="always">
      <path
         transform="matrix(-0.4,0,0,-0.4,-4,0)"
         style="fill:#000000;fill-opacity:1;fill-rule:evenodd;stroke:#000000;stroke-width:1pt;stroke-opacity:1"
         d="M 0,0 5,-5 -12.5,0 5,5 Z"
         id="path1281" />
    </marker>
    <marker
       style="overflow:visible"
       id="Arrow1Mend-0"
       refX="0"
       refY="0"
       orient="auto"
       inkscape:stockid="Arrow1Mend"
       inkscape:isstock="true">
      <path
         transform="matrix(-0.4,0,0,-0.4,-4,0)"
         style="fill:#000000;fill-opacity:1;fill-rule:evenodd;stroke:#000000;stroke-width:1pt;stroke-opacity:1"
         d="M 0,0 5,-5 -12.5,0 5,5 Z"
         id="path844-6" />
    </marker>
    <marker
       style="overflow:visible"
       id="marker1283-5"
       refX="0"
       refY="0"
       orient="auto"
       inkscape:stockid="Arrow1Mend"
       inkscape:isstock="true">
      <path
         transform="matrix(-0.4,0,0,-0.4,-4,0)"
         style="fill:#000000;fill-opacity:1;fill-rule:evenodd;stroke:#000000;stroke-width:1pt;stroke-opacity:1"
         d="M 0,0 5,-5 -12.5,0 5,5 Z"
         id="path1281-3" />
    </marker>
    <marker
       style="overflow:visible"
       id="marker1714-5"
       refX="0"
       refY="0"
       orient="auto"
       inkscape:stockid="Arrow1Mend"
       inkscape:isstock="true">
      <path
         transform="matrix(-0.4,0,0,-0.4,-4,0)"
         style="fill:#000000;fill-opacity:1;fill-rule:evenodd;stroke:#000000;stroke-width:1pt;stroke-opacity:1"
         d="M 0,0 5,-5 -12.5,0 5,5 Z"
         id="path1712-8" />
    </marker>
    <marker
       style="overflow:visible"
       id="marker1860-2"
       refX="0"
       refY="0"
       orient="auto"
       inkscape:stockid="Arrow1Mend"
       inkscape:isstock="true">
      <path
         transform="matrix(-0.4,0,0,-0.4,-4,0)"
         style="fill:#000000;fill-opacity:1;fill-rule:evenodd;stroke:#000000;stroke-width:1pt;stroke-opacity:1"
         d="M 0,0 5,-5 -12.5,0 5,5 Z"
         id="path1858-5" />
    </marker>
    <g
       id="g1066">
      <symbol
         overflow="visible"
         id="symbol9131">
        <path
           style="stroke:none"
           d=""
           id="path2169" />
      </symbol>
      <symbol
         overflow="visible"
         id="symbol1690">
        <path
           style="stroke:none"
           d="m 4.53125,-4.984375 c 0,-0.65625 -0.171875,-2.046875 -1.1875,-2.046875 -1.390625,0 -2.921875,2.8125 -2.921875,5.09375 0,0.9375 0.28125,2.046875 1.1875,2.046875 1.40625,0 2.921875,-2.859375 2.921875,-5.09375 z M 1.46875,-3.625 C 1.640625,-4.25 1.84375,-5.046875 2.25,-5.765625 2.515625,-6.25 2.875,-6.8125 3.328125,-6.8125 c 0.484375,0 0.546875,0.640625 0.546875,1.203125 0,0.5 -0.078125,1 -0.3125,1.984375 z m 2,0.328125 C 3.359375,-2.84375 3.15625,-2 2.765625,-1.28125 c -0.34375,0.6875 -0.71875,1.171875 -1.15625,1.171875 -0.328125,0 -0.53125,-0.296875 -0.53125,-1.21875 0,-0.421875 0.0625,-1 0.3125,-1.96875 z m 0,0"
           id="path5149" />
      </symbol>
    </g>
    <g
       id="g6007">
      <symbol
         overflow="visible"
         id="symbol5562">
        <path
           style="stroke:none"
           d=""
           id="path2716" />
      </symbol>
      <symbol
         overflow="visible"
         id="symbol3574">
        <path
           style="stroke:none"
           d="M 3.015625,-3.15625 H 4.71875 c 1.40625,0 2.796875,-1.03125 2.796875,-2.140625 0,-0.78125 -0.65625,-1.515625 -1.96875,-1.515625 h -3.21875 c -0.1875,0 -0.296875,0 -0.296875,0.1875 0,0.125 0.078125,0.125 0.28125,0.125 0.125,0 0.3125,0.015625 0.421875,0.015625 0.171875,0.03125 0.21875,0.046875 0.21875,0.171875 0,0.03125 0,0.0625 -0.03125,0.1875 l -1.34375,5.34375 c -0.09375,0.390625 -0.109375,0.46875 -0.90625,0.46875 -0.15625,0 -0.265625,0 -0.265625,0.1875 C 0.40625,0 0.515625,0 0.546875,0 0.828125,0 1.53125,-0.03125 1.8125,-0.03125 c 0.21875,0 0.4375,0.015625 0.640625,0.015625 0.21875,0 0.4375,0.015625 0.640625,0.015625 0.078125,0 0.203125,0 0.203125,-0.203125 0,-0.109375 -0.09375,-0.109375 -0.28125,-0.109375 -0.359375,0 -0.640625,0 -0.640625,-0.171875 0,-0.0625 0.015625,-0.109375 0.03125,-0.171875 z M 3.734375,-6.125 C 3.828125,-6.46875 3.84375,-6.5 4.28125,-6.5 h 0.953125 c 0.828125,0 1.359375,0.265625 1.359375,0.953125 0,0.390625 -0.203125,1.25 -0.59375,1.609375 -0.5,0.453125 -1.09375,0.53125 -1.53125,0.53125 H 3.0625 Z m 0,0"
           id="path2784" />
      </symbol>
    </g>
    <g
       id="g6251">
      <symbol
         overflow="visible"
         id="symbol5168">
        <path
           style="stroke:none"
           d=""
           id="path6777" />
      </symbol>
      <symbol
         overflow="visible"
         id="symbol8848">
        <path
           style="stroke:none"
           d="M 3.015625,-3.15625 H 4.71875 c 1.40625,0 2.796875,-1.03125 2.796875,-2.140625 0,-0.78125 -0.65625,-1.515625 -1.96875,-1.515625 h -3.21875 c -0.1875,0 -0.296875,0 -0.296875,0.1875 0,0.125 0.078125,0.125 0.28125,0.125 0.125,0 0.3125,0.015625 0.421875,0.015625 0.171875,0.03125 0.21875,0.046875 0.21875,0.171875 0,0.03125 0,0.0625 -0.03125,0.1875 l -1.34375,5.34375 c -0.09375,0.390625 -0.109375,0.46875 -0.90625,0.46875 -0.15625,0 -0.265625,0 -0.265625,0.1875 C 0.40625,0 0.515625,0 0.546875,0 0.828125,0 1.53125,-0.03125 1.8125,-0.03125 c 0.21875,0 0.4375,0.015625 0.640625,0.015625 0.21875,0 0.4375,0.015625 0.640625,0.015625 0.078125,0 0.203125,0 0.203125,-0.203125 0,-0.109375 -0.09375,-0.109375 -0.28125,-0.109375 -0.359375,0 -0.640625,0 -0.640625,-0.171875 0,-0.0625 0.015625,-0.109375 0.03125,-0.171875 z M 3.734375,-6.125 C 3.828125,-6.46875 3.84375,-6.5 4.28125,-6.5 h 0.953125 c 0.828125,0 1.359375,0.265625 1.359375,0.953125 0,0.390625 -0.203125,1.25 -0.59375,1.609375 -0.5,0.453125 -1.09375,0.53125 -1.53125,0.53125 H 3.0625 Z m 0,0"
           id="path6456" />
      </symbol>
      <symbol
         overflow="visible"
         id="symbol2981">
        <path
           style="stroke:none"
           d=""
           id="path4721" />
      </symbol>
      <symbol
         overflow="visible"
         id="symbol2869">
        <path
           style="stroke:none"
           d="m 2.015625,-3.296875 c 0.0625,-0.109375 0.0625,-0.171875 0.0625,-0.21875 0,-0.21875 -0.1875,-0.375 -0.40625,-0.375 -0.265625,0 -0.34375,0.21875 -0.375,0.328125 L 0.375,-0.546875 c -0.015625,0.015625 -0.046875,0.09375 -0.046875,0.109375 0,0.078125 0.21875,0.15625 0.28125,0.15625 0.046875,0 0.046875,-0.015625 0.09375,-0.125 z m 0,0"
           id="path2658" />
      </symbol>
    </g>
    <g
       id="g9570">
      <symbol
         overflow="visible"
         id="symbol3348">
        <path
           style="stroke:none"
           d=""
           id="path3710" />
      </symbol>
      <symbol
         overflow="visible"
         id="symbol3393">
        <path
           style="stroke:none"
           d="m 7.375,-4.34375 c 0,-1.609375 -1.0625,-2.6875 -2.546875,-2.6875 -2.140625,0 -4.34375,2.265625 -4.34375,4.59375 0,1.65625 1.125,2.65625 2.5625,2.65625 2.109375,0 4.328125,-2.1875 4.328125,-4.5625 z m -4.28125,4.296875 c -0.984375,0 -1.671875,-0.796875 -1.671875,-2.109375 0,-0.453125 0.140625,-1.90625 0.90625,-3.0625 0.6875,-1.046875 1.65625,-1.5625 2.453125,-1.5625 0.8125,0 1.703125,0.5625 1.703125,2.046875 0,0.71875 -0.265625,2.265625 -1.25,3.5 C 4.75,-0.625 3.9375,-0.046875 3.09375,-0.046875 Z m 0,0"
           id="path9130" />
      </symbol>
    </g>
    <g
       id="g9164">
      <symbol
         overflow="visible"
         id="symbol8725">
        <path
           style="stroke:none"
           d=""
           id="path8142" />
      </symbol>
      <symbol
         overflow="visible"
         id="symbol5213">
        <path
           style="stroke:none"
           d="M 7.609375,-6.046875 C 7.703125,-6.40625 7.71875,-6.5 8.4375,-6.5 c 0.265625,0 0.34375,0 0.34375,-0.203125 0,-0.109375 -0.109375,-0.109375 -0.140625,-0.109375 -0.28125,0 -1,0.03125 -1.28125,0.03125 -0.28125,0 -0.984375,-0.03125 -1.28125,-0.03125 -0.078125,0 -0.1875,0 -0.1875,0.203125 0,0.109375 0.09375,0.109375 0.28125,0.109375 0.015625,0 0.203125,0 0.375,0.015625 0.1875,0.03125 0.265625,0.03125 0.265625,0.171875 0,0.03125 0,0.046875 -0.03125,0.1875 L 6.1875,-3.703125 H 3.140625 l 0.59375,-2.34375 C 3.8125,-6.40625 3.84375,-6.5 4.5625,-6.5 c 0.265625,0 0.34375,0 0.34375,-0.203125 0,-0.109375 -0.109375,-0.109375 -0.140625,-0.109375 -0.28125,0 -1,0.03125 -1.28125,0.03125 -0.28125,0 -0.984375,-0.03125 -1.28125,-0.03125 -0.078125,0 -0.1875,0 -0.1875,0.203125 0,0.109375 0.09375,0.109375 0.28125,0.109375 0.015625,0 0.203125,0 0.375,0.015625 0.171875,0.03125 0.265625,0.03125 0.265625,0.171875 0,0.03125 0,0.0625 -0.03125,0.1875 L 1.5625,-0.78125 c -0.09375,0.390625 -0.109375,0.46875 -0.90625,0.46875 -0.171875,0 -0.265625,0 -0.265625,0.203125 C 0.390625,0 0.515625,0 0.53125,0 0.8125,0 1.515625,-0.03125 1.796875,-0.03125 2,-0.03125 2.21875,-0.015625 2.4375,-0.015625 2.65625,-0.015625 2.875,0 3.078125,0 3.15625,0 3.28125,0 3.28125,-0.203125 3.28125,-0.3125 3.1875,-0.3125 3,-0.3125 c -0.375,0 -0.640625,0 -0.640625,-0.171875 0,-0.0625 0.015625,-0.109375 0.015625,-0.171875 l 0.6875,-2.734375 h 3.03125 c -0.40625,1.65625 -0.640625,2.609375 -0.6875,2.75 C 5.3125,-0.3125 5.125,-0.3125 4.5,-0.3125 c -0.140625,0 -0.234375,0 -0.234375,0.203125 C 4.265625,0 4.390625,0 4.40625,0 4.6875,0 5.390625,-0.03125 5.671875,-0.03125 5.875,-0.03125 6.09375,-0.015625 6.3125,-0.015625 6.53125,-0.015625 6.75,0 6.953125,0 7.03125,0 7.15625,0 7.15625,-0.203125 7.15625,-0.3125 7.0625,-0.3125 6.875,-0.3125 c -0.359375,0 -0.640625,0 -0.640625,-0.171875 0,-0.0625 0.015625,-0.109375 0.03125,-0.171875 z m 0,0"
           id="path3507" />
      </symbol>
    </g>
    <g
       id="g7562">
      <symbol
         overflow="visible"
         id="symbol7233">
        <path
           style="stroke:none"
           d=""
           id="path1557" />
      </symbol>
      <symbol
         overflow="visible"
         id="symbol5915">
        <path
           style="stroke:none"
           d="m 5.390625,-3.609375 c 0,-0.90625 -0.671875,-0.90625 -0.671875,-0.90625 -0.40625,0 -0.765625,0.421875 -0.765625,0.75 0,0.28125 0.21875,0.40625 0.296875,0.453125 0.421875,0.25 0.5,0.4375 0.5,0.625 0,0.21875 -0.578125,2.40625 -1.734375,2.40625 -0.71875,0 -0.71875,-0.59375 -0.71875,-0.78125 0,-0.578125 0.28125,-1.296875 0.59375,-2.09375 C 2.96875,-3.359375 3,-3.453125 3,-3.609375 3,-4.1875 2.421875,-4.5 1.875,-4.5 c -1.0625,0 -1.5625,1.34375 -1.5625,1.546875 0,0.140625 0.15625,0.140625 0.25,0.140625 0.109375,0 0.1875,0 0.21875,-0.125 0.328125,-1.078125 0.859375,-1.203125 1.03125,-1.203125 0.078125,0 0.171875,0 0.171875,0.203125 0,0.234375 -0.125,0.515625 -0.15625,0.59375 C 1.375,-2.1875 1.21875,-1.734375 1.21875,-1.25 c 0,1.046875 0.859375,1.328125 1.734375,1.328125 1.71875,0 2.4375,-2.828125 2.4375,-3.6875 z m 0,0"
           id="path4632" />
      </symbol>
    </g>
    <g
       id="g3807">
      <symbol
         overflow="visible"
         id="symbol8773">
        <path
           style="stroke:none"
           d=""
           id="path735" />
      </symbol>
      <symbol
         overflow="visible"
         id="symbol1877">
        <path
           style="stroke:none"
           d="m 5.609375,-3.15625 c 0.078125,-0.28125 0.1875,-0.765625 0.1875,-0.828125 0,-0.21875 -0.15625,-0.4375 -0.46875,-0.4375 -0.15625,0 -0.515625,0.078125 -0.65625,0.53125 -0.03125,0.125 -0.484375,1.9375 -0.5625,2.265625 -0.0625,0.234375 -0.125,0.515625 -0.15625,0.703125 C 3.78125,-0.6875 3.390625,-0.28125 2.875,-0.28125 c -0.578125,0 -0.59375,-0.5 -0.59375,-0.71875 0,-0.609375 0.3125,-1.390625 0.59375,-2.109375 C 2.96875,-3.375 3,-3.4375 3,-3.609375 3,-4.1875 2.421875,-4.5 1.875,-4.5 c -1.0625,0 -1.5625,1.34375 -1.5625,1.546875 0,0.140625 0.15625,0.140625 0.25,0.140625 0.109375,0 0.1875,0 0.21875,-0.125 0.328125,-1.109375 0.875,-1.203125 1.03125,-1.203125 0.078125,0 0.171875,0 0.171875,0.203125 0,0.234375 -0.125,0.515625 -0.15625,0.625 -0.421875,1.046875 -0.609375,1.609375 -0.609375,2.09375 0,1.140625 1,1.296875 1.578125,1.296875 0.296875,0 0.734375,-0.03125 1.265625,-0.546875 0.328125,0.484375 0.90625,0.546875 1.140625,0.546875 0.375,0 0.65625,-0.203125 0.875,-0.5625 0.234375,-0.40625 0.375,-0.9375 0.375,-0.984375 0,-0.140625 -0.15625,-0.140625 -0.25,-0.140625 -0.109375,0 -0.140625,0 -0.1875,0.046875 -0.03125,0.015625 -0.03125,0.03125 -0.078125,0.28125 -0.203125,0.78125 -0.421875,1 -0.6875,1 -0.140625,0 -0.21875,-0.09375 -0.21875,-0.359375 0,-0.171875 0.03125,-0.34375 0.125,-0.734375 0.078125,-0.28125 0.171875,-0.671875 0.234375,-0.890625 z m 0,0"
           id="path1165" />
      </symbol>
    </g>
    <g
       id="g666">
      <symbol
         overflow="visible"
         id="symbol9307">
        <path
           style="stroke:none"
           d=""
           id="path1425" />
      </symbol>
      <symbol
         overflow="visible"
         id="symbol1444">
        <path
           style="stroke:none"
           d="m 5.609375,-3.15625 c 0.078125,-0.28125 0.1875,-0.765625 0.1875,-0.828125 0,-0.21875 -0.15625,-0.4375 -0.46875,-0.4375 -0.15625,0 -0.515625,0.078125 -0.65625,0.53125 -0.03125,0.125 -0.484375,1.9375 -0.5625,2.265625 -0.0625,0.234375 -0.125,0.515625 -0.15625,0.703125 C 3.78125,-0.6875 3.390625,-0.28125 2.875,-0.28125 c -0.578125,0 -0.59375,-0.5 -0.59375,-0.71875 0,-0.609375 0.3125,-1.390625 0.59375,-2.109375 C 2.96875,-3.375 3,-3.4375 3,-3.609375 3,-4.1875 2.421875,-4.5 1.875,-4.5 c -1.0625,0 -1.5625,1.34375 -1.5625,1.546875 0,0.140625 0.15625,0.140625 0.25,0.140625 0.109375,0 0.1875,0 0.21875,-0.125 0.328125,-1.109375 0.875,-1.203125 1.03125,-1.203125 0.078125,0 0.171875,0 0.171875,0.203125 0,0.234375 -0.125,0.515625 -0.15625,0.625 -0.421875,1.046875 -0.609375,1.609375 -0.609375,2.09375 0,1.140625 1,1.296875 1.578125,1.296875 0.296875,0 0.734375,-0.03125 1.265625,-0.546875 0.328125,0.484375 0.90625,0.546875 1.140625,0.546875 0.375,0 0.65625,-0.203125 0.875,-0.5625 0.234375,-0.40625 0.375,-0.9375 0.375,-0.984375 0,-0.140625 -0.15625,-0.140625 -0.25,-0.140625 -0.109375,0 -0.140625,0 -0.1875,0.046875 -0.03125,0.015625 -0.03125,0.03125 -0.078125,0.28125 -0.203125,0.78125 -0.421875,1 -0.6875,1 -0.140625,0 -0.21875,-0.09375 -0.21875,-0.359375 0,-0.171875 0.03125,-0.34375 0.125,-0.734375 0.078125,-0.28125 0.171875,-0.671875 0.234375,-0.890625 z m 0,0"
           id="path9825" />
      </symbol>
      <symbol
         overflow="visible"
         id="symbol942">
        <path
           style="stroke:none"
           d=""
           id="path2258" />
      </symbol>
      <symbol
         overflow="visible"
         id="symbol9741">
        <path
           style="stroke:none"
           d="m 2.015625,-3.296875 c 0.0625,-0.109375 0.0625,-0.171875 0.0625,-0.21875 0,-0.21875 -0.1875,-0.375 -0.40625,-0.375 -0.265625,0 -0.34375,0.21875 -0.375,0.328125 L 0.375,-0.546875 c -0.015625,0.015625 -0.046875,0.09375 -0.046875,0.109375 0,0.078125 0.21875,0.15625 0.28125,0.15625 0.046875,0 0.046875,-0.015625 0.09375,-0.125 z m 0,0"
           id="path1790" />
      </symbol>
    </g>
    <g
       id="g5294">
      <symbol
         overflow="visible"
         id="symbol7182">
        <path
           style="stroke:none"
           d=""
           id="path5873" />
      </symbol>
      <symbol
         overflow="visible"
         id="symbol4035">
        <path
           style="stroke:none"
           d="M 2.796875,-3.75 C 2.65625,-4.25 2.109375,-4.5 1.5625,-4.5 1.203125,-4.5 0.921875,-4.296875 0.703125,-3.9375 0.453125,-3.53125 0.3125,-3 0.3125,-2.953125 c 0,0.140625 0.15625,0.140625 0.25,0.140625 0.109375,0 0.140625,0 0.1875,-0.046875 C 0.78125,-2.875 0.78125,-2.90625 0.84375,-3.15625 1.03125,-3.921875 1.25,-4.140625 1.515625,-4.140625 c 0.15625,0 0.234375,0.09375 0.234375,0.359375 0,0.171875 -0.046875,0.328125 -0.140625,0.734375 C 1.53125,-2.765625 1.4375,-2.375 1.390625,-2.15625 L 1.03125,-0.75 C 1,-0.625 0.953125,-0.421875 0.953125,-0.359375 c 0,0.203125 0.15625,0.4375 0.46875,0.4375 0.515625,0 0.625,-0.453125 0.703125,-0.75 0.09375,-0.375 0.171875,-0.6875 0.28125,-1.125 0.03125,-0.125 0.28125,-1.15625 0.3125,-1.1875 0,-0.0625 0.28125,-0.5 0.609375,-0.78125 0.28125,-0.21875 0.609375,-0.375 1.03125,-0.375 0.25,0 0.5,0.09375 0.5,0.578125 0,0.578125 -0.4375,1.734375 -0.625,2.234375 -0.125,0.265625 -0.140625,0.34375 -0.140625,0.515625 0,0.578125 0.578125,0.890625 1.125,0.890625 1.046875,0 1.546875,-1.359375 1.546875,-1.546875 0,-0.140625 -0.140625,-0.140625 -0.234375,-0.140625 -0.125,0 -0.1875,0 -0.234375,0.125 C 5.96875,-0.375 5.4375,-0.28125 5.28125,-0.28125 c -0.078125,0 -0.171875,0 -0.171875,-0.203125 0,-0.234375 0.09375,-0.484375 0.1875,-0.734375 0.171875,-0.40625 0.625,-1.578125 0.625,-2.125 C 5.921875,-4.265625 5.15625,-4.5 4.4375,-4.5 4.234375,-4.5 3.5,-4.5 2.796875,-3.75 Z m 0,0"
           id="path4788" />
      </symbol>
    </g>
    <g
       id="g2510">
      <symbol
         overflow="visible"
         id="symbol5507">
        <path
           style="stroke:none"
           d=""
           id="path5347" />
      </symbol>
      <symbol
         overflow="visible"
         id="symbol1896">
        <path
           style="stroke:none"
           d="M 3.15625,-6.5625 C 3.1875,-6.703125 3.1875,-6.734375 3.1875,-6.734375 c 0,-0.140625 -0.109375,-0.1875 -0.21875,-0.1875 -0.03125,0 -0.046875,0 -0.0625,0.015625 l -1.296875,0.0625 c -0.140625,0 -0.3125,0.015625 -0.3125,0.296875 0,0.171875 0.171875,0.171875 0.265625,0.171875 0.109375,0 0.28125,0 0.40625,0.03125 l -1.4375,5.75 C 0.53125,-0.5625 0.5,-0.40625 0.5,-0.375 c 0,0.25 0.1875,0.453125 0.484375,0.453125 0.046875,0 0.5,0 0.640625,-0.5625 L 2.21875,-2.84375 c 0.046875,-0.1875 0.046875,-0.203125 0.203125,-0.40625 0.15625,-0.21875 0.65625,-0.890625 1.484375,-0.890625 0.265625,0 0.5,0.09375 0.5,0.578125 0,0.578125 -0.4375,1.75 -0.625,2.234375 -0.109375,0.265625 -0.140625,0.34375 -0.140625,0.515625 0,0.578125 0.578125,0.890625 1.125,0.890625 1.0625,0 1.546875,-1.359375 1.546875,-1.546875 0,-0.140625 -0.140625,-0.140625 -0.234375,-0.140625 -0.109375,0 -0.1875,0 -0.21875,0.125 -0.328125,1.109375 -0.875,1.203125 -1.03125,1.203125 -0.078125,0 -0.171875,0 -0.171875,-0.203125 0,-0.21875 0.109375,-0.5 0.171875,-0.65625 C 5.015625,-1.625 5.46875,-2.796875 5.46875,-3.34375 5.46875,-4.265625 4.703125,-4.5 3.984375,-4.5 c -0.21875,0 -0.828125,0 -1.5,0.609375 z m 0,0"
           id="path380" />
      </symbol>
    </g>
    <g
       id="g8596">
      <symbol
         overflow="visible"
         id="symbol687">
        <path
           style="stroke:none"
           d=""
           id="path4790" />
      </symbol>
      <symbol
         overflow="visible"
         id="symbol7493">
        <path
           style="stroke:none"
           d="M 0.515625,1.28125 C 0.484375,1.421875 0.46875,1.4375 0.453125,1.453125 0.40625,1.46875 0.296875,1.46875 0.203125,1.46875 c -0.171875,0 -0.359375,0 -0.359375,0.28125 0,0.109375 0.09375,0.1875 0.203125,0.1875 0.28125,0 0.609375,-0.03125 0.90625,-0.03125 0.359375,0 0.734375,0.03125 1.078125,0.03125 0.0625,0 0.25,0 0.25,-0.296875 0,-0.171875 -0.15625,-0.171875 -0.25,-0.171875 -0.140625,0 -0.3125,0 -0.4375,-0.015625 l 0.4375,-1.734375 c 0.140625,0.140625 0.46875,0.359375 1,0.359375 1.734375,0 2.8125,-1.578125 2.8125,-2.9375 C 5.84375,-4.09375 4.921875,-4.5 4.09375,-4.5 3.390625,-4.5 2.875,-4.109375 2.71875,-3.96875 2.328125,-4.5 1.671875,-4.5 1.5625,-4.5 1.203125,-4.5 0.90625,-4.296875 0.703125,-3.9375 0.453125,-3.53125 0.3125,-3 0.3125,-2.953125 c 0,0.140625 0.15625,0.140625 0.25,0.140625 0.109375,0 0.140625,0 0.1875,-0.046875 C 0.78125,-2.875 0.78125,-2.90625 0.84375,-3.15625 c 0.1875,-0.796875 0.421875,-0.984375 0.671875,-0.984375 0.109375,0 0.234375,0.03125 0.234375,0.359375 0,0.15625 -0.03125,0.296875 -0.0625,0.4375 z M 2.8125,-3.5 c 0.28125,-0.34375 0.75,-0.640625 1.234375,-0.640625 0.625,0 0.671875,0.53125 0.671875,0.75 0,0.515625 -0.34375,1.75 -0.5,2.140625 -0.3125,0.71875 -0.796875,0.96875 -1.203125,0.96875 C 2.421875,-0.28125 2.1875,-0.75 2.1875,-0.859375 L 2.203125,-1 Z m 0,0"
           id="path1898" />
      </symbol>
    </g>
    <g
       id="g1789">
      <symbol
         overflow="visible"
         id="symbol9581">
        <path
           style="stroke:none"
           d=""
           id="path1349" />
      </symbol>
      <symbol
         overflow="visible"
         id="symbol1868">
        <path
           style="stroke:none"
           d="M 0.515625,1.28125 C 0.484375,1.421875 0.46875,1.4375 0.453125,1.453125 0.40625,1.46875 0.296875,1.46875 0.203125,1.46875 c -0.171875,0 -0.359375,0 -0.359375,0.28125 0,0.109375 0.09375,0.1875 0.203125,0.1875 0.28125,0 0.609375,-0.03125 0.90625,-0.03125 0.359375,0 0.734375,0.03125 1.078125,0.03125 0.0625,0 0.25,0 0.25,-0.296875 0,-0.171875 -0.15625,-0.171875 -0.25,-0.171875 -0.140625,0 -0.3125,0 -0.4375,-0.015625 l 0.4375,-1.734375 c 0.140625,0.140625 0.46875,0.359375 1,0.359375 1.734375,0 2.8125,-1.578125 2.8125,-2.9375 C 5.84375,-4.09375 4.921875,-4.5 4.09375,-4.5 3.390625,-4.5 2.875,-4.109375 2.71875,-3.96875 2.328125,-4.5 1.671875,-4.5 1.5625,-4.5 1.203125,-4.5 0.90625,-4.296875 0.703125,-3.9375 0.453125,-3.53125 0.3125,-3 0.3125,-2.953125 c 0,0.140625 0.15625,0.140625 0.25,0.140625 0.109375,0 0.140625,0 0.1875,-0.046875 C 0.78125,-2.875 0.78125,-2.90625 0.84375,-3.15625 c 0.1875,-0.796875 0.421875,-0.984375 0.671875,-0.984375 0.109375,0 0.234375,0.03125 0.234375,0.359375 0,0.15625 -0.03125,0.296875 -0.0625,0.4375 z M 2.8125,-3.5 c 0.28125,-0.34375 0.75,-0.640625 1.234375,-0.640625 0.625,0 0.671875,0.53125 0.671875,0.75 0,0.515625 -0.34375,1.75 -0.5,2.140625 -0.3125,0.71875 -0.796875,0.96875 -1.203125,0.96875 C 2.421875,-0.28125 2.1875,-0.75 2.1875,-0.859375 L 2.203125,-1 Z m 0,0"
           id="path1682" />
      </symbol>
      <symbol
         overflow="visible"
         id="symbol4277">
        <path
           style="stroke:none"
           d=""
           id="path6465" />
      </symbol>
      <symbol
         overflow="visible"
         id="symbol1177">
        <path
           style="stroke:none"
           d="m 2.015625,-3.296875 c 0.0625,-0.109375 0.0625,-0.171875 0.0625,-0.21875 0,-0.21875 -0.1875,-0.375 -0.40625,-0.375 -0.265625,0 -0.34375,0.21875 -0.375,0.328125 L 0.375,-0.546875 c -0.015625,0.015625 -0.046875,0.09375 -0.046875,0.109375 0,0.078125 0.21875,0.15625 0.28125,0.15625 0.046875,0 0.046875,-0.015625 0.09375,-0.125 z m 0,0"
           id="path9555" />
      </symbol>
    </g>
    <g
       id="g2851">
      <symbol
         overflow="visible"
         id="symbol4732">
        <path
           style="stroke:none;"
           d=""
           id="path5333" />
      </symbol>
      <symbol
         overflow="visible"
         id="symbol8542">
        <path
           style="stroke:none;"
           d="M 6.265625 -5.671875 C 6.75 -6.453125 7.171875 -6.484375 7.53125 -6.5 C 7.65625 -6.515625 7.671875 -6.671875 7.671875 -6.6875 C 7.671875 -6.765625 7.609375 -6.8125 7.53125 -6.8125 C 7.28125 -6.8125 6.984375 -6.78125 6.71875 -6.78125 C 6.390625 -6.78125 6.046875 -6.8125 5.734375 -6.8125 C 5.671875 -6.8125 5.546875 -6.8125 5.546875 -6.625 C 5.546875 -6.515625 5.625 -6.5 5.703125 -6.5 C 5.96875 -6.484375 6.15625 -6.375 6.15625 -6.171875 C 6.15625 -6.015625 6.015625 -5.796875 6.015625 -5.796875 L 2.953125 -0.921875 L 2.265625 -6.203125 C 2.265625 -6.375 2.5 -6.5 2.953125 -6.5 C 3.09375 -6.5 3.203125 -6.5 3.203125 -6.703125 C 3.203125 -6.78125 3.125 -6.8125 3.078125 -6.8125 C 2.671875 -6.8125 2.25 -6.78125 1.828125 -6.78125 C 1.65625 -6.78125 1.46875 -6.78125 1.28125 -6.78125 C 1.109375 -6.78125 0.921875 -6.8125 0.75 -6.8125 C 0.671875 -6.8125 0.5625 -6.8125 0.5625 -6.625 C 0.5625 -6.5 0.640625 -6.5 0.8125 -6.5 C 1.359375 -6.5 1.375 -6.40625 1.40625 -6.15625 L 2.1875 -0.015625 C 2.21875 0.1875 2.265625 0.21875 2.390625 0.21875 C 2.546875 0.21875 2.59375 0.171875 2.671875 0.046875 Z M 6.265625 -5.671875 "
           id="path4902" />
      </symbol>
    </g>
  </defs>
  <sodipodi:namedview
     id="base"
     pagecolor="#ffffff"
     bordercolor="#666666"
     borderopacity="1.0"
     inkscape:pageopacity="0.0"
     inkscape:pageshadow="2"
     inkscape:zoom="1.4"
     inkscape:cx="292.32921"
     inkscape:cy="253.62711"
     inkscape:document-units="mm"
     inkscape:current-layer="layer1"
     inkscape:document-rotation="0"
     showgrid="false"
     inkscape:snap-bbox="false"
     inkscape:bbox-nodes="true"
     inkscape:snap-bbox-edge-midpoints="true"
     inkscape:snap-bbox-midpoints="true"
     inkscape:bbox-paths="false"
     inkscape:snap-intersection-paths="true"
     inkscape:object-paths="true"
     inkscape:snap-object-midpoints="true"
     inkscape:snap-center="true"
     inkscape:window-width="1920"
     inkscape:window-height="1017"
     inkscape:window-x="1912"
     inkscape:window-y="-8"
     inkscape:window-maximized="1"
     fit-margin-top="5"
     lock-margins="true"
     fit-margin-left="5"
     fit-margin-right="5"
     fit-margin-bottom="5" />
  <metadata
     id="metadata5">
    <rdf:RDF>
      <cc:Work
         rdf:about="">
        <dc:format>image/svg+xml</dc:format>
        <dc:type
           rdf:resource="http://purl.org/dc/dcmitype/StillImage" />
        <dc:title />
      </cc:Work>
    </rdf:RDF>
  </metadata>
  <g
     inkscape:label="图层 1"
     inkscape:groupmode="layer"
     id="layer1"
     transform="translate(-30.016732,-64.246069)">
    <path
       style="font-variation-settings:normal;opacity:1;vector-effect:none;fill:none;fill-opacity:1;stroke:#000000;stroke-width:1.06943;stroke-linecap:butt;stroke-linejoin:miter;stroke-miterlimit:4;stroke-dasharray:6.41655, 2.13885;stroke-dashoffset:0;stroke-opacity:1;marker-end:url(#marker2285);stop-color:#000000;stop-opacity:1"
       d="M 114.66502,175.06311 79.307183,80.982594"
       id="path833"
       sodipodi:nodetypes="cc" />
    <path
       style="font-variation-settings:normal;opacity:1;vector-effect:none;fill:none;fill-opacity:1;stroke:#000000;stroke-width:1.09678;stroke-linecap:butt;stroke-linejoin:miter;stroke-miterlimit:4;stroke-dasharray:none;stroke-dashoffset:0;stroke-opacity:1;marker-end:url(#marker1283);stop-color:#000000;stop-opacity:1"
       d="M 78.847483,79.738155 H 138.81674"
       id="path1119" />
    <path
       style="font-variation-settings:normal;opacity:1;vector-effect:none;fill:none;fill-opacity:1;stroke:#000000;stroke-width:1.08969;stroke-linecap:butt;stroke-linejoin:miter;stroke-miterlimit:4;stroke-dasharray:none;stroke-dashoffset:0;stroke-opacity:1;stop-color:#000000;stop-opacity:1"
       id="path1327"
       transform="matrix(0.95915201,-0.28289119,0.29457715,0.9556277,0,0)"
       sodipodi:type="arc"
       sodipodi:cx="48.655376"
       sodipodi:cy="85.563095"
       sodipodi:rx="75"
       sodipodi:ry="55"
       sodipodi:start="0.59657331"
       sodipodi:end="2.1851522"
       sodipodi:open="true"
       sodipodi:arc-type="arc"
       d="M 110.7003,116.4627 A 75,55 0 0 1 62.077693,139.67515 75,55 0 0 1 5.4229542,130.50607" />
    <path
       style="font-variation-settings:normal;opacity:1;vector-effect:none;fill:none;fill-opacity:1;stroke:#000000;stroke-width:1.14657;stroke-linecap:butt;stroke-linejoin:miter;stroke-miterlimit:4;stroke-dasharray:none;stroke-dashoffset:0;stroke-opacity:1;marker-end:url(#marker1441);stop-color:#000000;stop-opacity:1"
       d="M 78.826,79.68192 44.834293,121.85601"
       id="path1381" />
    <path
       style="font-variation-settings:normal;opacity:1;vector-effect:none;fill:none;fill-opacity:1;stroke:#000000;stroke-width:1.06787;stroke-linecap:butt;stroke-linejoin:miter;stroke-miterlimit:4;stroke-dasharray:6.40721, 2.13574;stroke-dashoffset:0;stroke-opacity:1;marker-end:url(#marker1714);stop-color:#000000;stop-opacity:1"
       d="M 114.67073,175.07035 45.120248,124.85478"
       id="path1539" />
    <path
       style="font-variation-settings:normal;opacity:1;vector-effect:none;fill:none;fill-opacity:1;stroke:#000000;stroke-width:1.08232;stroke-linecap:butt;stroke-linejoin:miter;stroke-miterlimit:4;stroke-dasharray:6.49391, 2.16464;stroke-dashoffset:0;stroke-opacity:1;marker-end:url(#marker1860);stop-color:#000000;stop-opacity:1"
       d="m 114.64989,175.05942 1.39529,-66.00677"
       id="path1782"
       sodipodi:nodetypes="cc" />
    <path
       style="font-variation-settings:normal;opacity:1;vector-effect:none;fill:none;fill-opacity:1;stroke:#000000;stroke-width:1.05757;stroke-linecap:butt;stroke-linejoin:miter;stroke-miterlimit:4;stroke-dasharray:none;stroke-dashoffset:0;stroke-opacity:1;marker-end:url(#marker1958);stop-color:#000000;stop-opacity:1"
       d="m 78.8153,79.665396 36.26673,26.379454"
       id="path1928" />
    <path
       style="font-variation-settings:normal;opacity:1;vector-effect:none;fill:none;fill-opacity:1;stroke:#000000;stroke-width:1.5;stroke-linecap:butt;stroke-linejoin:miter;stroke-miterlimit:4;stroke-dasharray:none;stroke-dashoffset:0;stroke-opacity:1;marker-end:url(#marker2081);stop-color:#000000;stop-opacity:1"
       d="M 114.65324,175.04721 101.96435,141.27145"
       id="path2068" />
    <g
       inkscape:label=""
       transform="matrix(1.2,0,0,1.2,-34.956447,2.9096479)"
       id="g2422">
      <g
         id="g728">
        <g
           style="fill:#000000;fill-opacity:1"
           id="g2984">
          <use
             xlink:href="#symbol1690"
             x="91.925003"
             y="81.962997"
             id="use8300"
             width="100%"
             height="100%" />
        </g>
      </g>
    </g>
    <g
       inkscape:label=""
       transform="matrix(1.2,0,0,1.2,-75.780772,35.046168)"
       id="g2559">
      <g
         id="g2500">
        <g
           style="fill:#000000;fill-opacity:1"
           id="g4991">
          <use
             xlink:href="#symbol3574"
             x="91.925003"
             y="81.962997"
             id="use2658"
             width="100%"
             height="100%" />
        </g>
      </g>
    </g>
    <g
       inkscape:label=""
       transform="matrix(1.2,0,0,1.2,8.3284551,16.714681)"
       id="g2639">
      <g
         id="g5791">
        <g
           style="fill:#000000;fill-opacity:1"
           id="g4093">
          <use
             xlink:href="#symbol8848"
             x="91.925003"
             y="81.962997"
             id="use353"
             width="100%"
             height="100%" />
        </g>
        <g
           style="fill:#000000;fill-opacity:1"
           id="g7175">
          <use
             xlink:href="#symbol2869"
             x="99.705002"
             y="77.848999"
             id="use297"
             width="100%"
             height="100%" />
        </g>
      </g>
    </g>
    <g
       inkscape:label=""
       transform="matrix(1.2,0,0,1.2,4.0920275,85.585148)"
       id="g2734">
      <g
         id="g8960">
        <g
           style="fill:#000000;fill-opacity:1"
           id="g9437">
          <use
             xlink:href="#symbol3393"
             x="91.925003"
             y="81.962997"
             id="use6002"
             width="100%"
             height="100%" />
        </g>
      </g>
    </g>
    <g
       inkscape:label=""
       transform="matrix(1.2,0,0,1.2,-40.559712,-20.934528)"
       id="g2832">
      <g
         id="g3687">
        <g
           style="fill:#000000;fill-opacity:1"
           id="g3797">
          <use
             xlink:href="#symbol5213"
             x="91.925003"
             y="81.962997"
             id="use5655"
             width="100%"
             height="100%" />
        </g>
      </g>
    </g>
    <g
       inkscape:label=""
       transform="matrix(1.2,0,0,1.2,-6.1500526,-21.688544)"
       id="g2939">
      <g
         id="g9335">
        <g
           style="fill:#000000;fill-opacity:1"
           id="g7295">
          <use
             xlink:href="#symbol5915"
             x="91.925003"
             y="81.962997"
             id="use2330"
             width="100%"
             height="100%" />
        </g>
      </g>
    </g>
    <g
       inkscape:label=""
       transform="matrix(1.2,0,0,1.2,-57.221548,1.9558848)"
       id="g3055">
      <g
         id="g4791">
        <g
           style="fill:#000000;fill-opacity:1"
           id="g8918">
          <use
             xlink:href="#symbol1877"
             x="91.925003"
             y="81.962997"
             id="use2985"
             width="100%"
             height="100%" />
        </g>
      </g>
    </g>
    <g
       inkscape:label=""
       transform="matrix(1.2,0,0,1.2,-9.6968921,-3.6861324)"
       id="g3186">
      <g
         id="g4669">
        <g
           style="fill:#000000;fill-opacity:1"
           id="g6609">
          <use
             xlink:href="#symbol1444"
             x="91.925003"
             y="81.962997"
             id="use336"
             width="100%"
             height="100%" />
        </g>
        <g
           style="fill:#000000;fill-opacity:1"
           id="g2346">
          <use
             xlink:href="#symbol9741"
             x="98.709999"
             y="77.848999"
             id="use6689"
             width="100%"
             height="100%" />
        </g>
      </g>
    </g>
    <g
       inkscape:label=""
       transform="matrix(1.2,0,0,1.2,-19.281371,49.300286)"
       id="g3332">
      <g
         id="g6390">
        <g
           style="fill:#000000;fill-opacity:1"
           id="g4146">
          <use
             xlink:href="#symbol4035"
             x="91.925003"
             y="81.962997"
             id="use7349"
             width="100%"
             height="100%" />
        </g>
      </g>
    </g>
    <path
       style="font-variation-settings:normal;opacity:1;vector-effect:none;fill:none;fill-opacity:1;stroke:#000000;stroke-width:1.08969;stroke-linecap:butt;stroke-linejoin:miter;stroke-miterlimit:4;stroke-dasharray:none;stroke-dashoffset:0;stroke-opacity:1;stop-color:#000000;stop-opacity:1"
       id="path1327-5"
       transform="matrix(0.93485238,-0.35503665,0.36642066,0.9304493,0,0)"
       sodipodi:type="arc"
       sodipodi:cx="43.520878"
       sodipodi:cy="102.37829"
       sodipodi:rx="15"
       sodipodi:ry="11"
       sodipodi:start="1.0967634"
       sodipodi:end="2.4071781"
       sodipodi:open="true"
       sodipodi:arc-type="arc"
       d="M 50.368051,112.16537 A 15,11 0 0 1 32.38753,109.74997" />
    <g
       inkscape:label=""
       transform="matrix(1.2,0,0,1.2,6.2747684,-36.778272)"
       id="g1215">
      <g
         id="g1491">
        <g
           style="fill:#000000;fill-opacity:1"
           id="g8547">
          <use
             xlink:href="#symbol1896"
             x="91.925003"
             y="81.962997"
             id="use4334"
             width="100%"
             height="100%"
             transform="translate(-29.399648,45.569454)" />
        </g>
      </g>
    </g>
    <g
       inkscape:label=""
       transform="matrix(1.2,0,0,1.2,-40.978485,56.926425)"
       id="g1374">
      <g
         id="g1013">
        <g
           style="fill:#000000;fill-opacity:1"
           id="g5598">
          <use
             xlink:href="#symbol7493"
             x="91.925003"
             y="81.962997"
             id="use2151"
             width="100%"
             height="100%" />
        </g>
      </g>
    </g>
    <g
       inkscape:label=""
       transform="matrix(1.2,0,0,1.2,8.3327431,41.692062)"
       id="g1548">
      <g
         id="g2582">
        <g
           style="fill:#000000;fill-opacity:1"
           id="g6771">
          <use
             xlink:href="#symbol1868"
             x="91.925003"
             y="81.962997"
             id="use8469"
             width="100%"
             height="100%" />
        </g>
        <g
           style="fill:#000000;fill-opacity:1"
           id="g5684">
          <use
             xlink:href="#symbol1177"
             x="97.912003"
             y="77.848999"
             id="use1461"
             width="100%"
             height="100%" />
        </g>
      </g>
    </g>
    <g
       inkscape:label=""
       transform="matrix(1.2,0,0,1.2,24.641054,-21.440968)"
       id="g1239">
      <g
         id="g5408">
        <g
           style="fill:#000000;fill-opacity:1"
           id="g242">
          <use
             xlink:href="#symbol8542"
             x="91.925003"
             y="81.962997"
             id="use2637"
             width="100%"
             height="100%" />
        </g>
      </g>
    </g>
  </g>
</svg>
