<?xml version="1.0" encoding="UTF-8" standalone="no"?>
<svg
   xmlns:dc="http://purl.org/dc/elements/1.1/"
   xmlns:cc="http://creativecommons.org/ns#"
   xmlns:rdf="http://www.w3.org/1999/02/22-rdf-syntax-ns#"
   xmlns:svg="http://www.w3.org/2000/svg"
   xmlns="http://www.w3.org/2000/svg"
   xmlns:xlink="http://www.w3.org/1999/xlink"
   xmlns:sodipodi="http://sodipodi.sourceforge.net/DTD/sodipodi-0.dtd"
   xmlns:inkscape="http://www.inkscape.org/namespaces/inkscape"
   id="Layer_1"
   data-name="Layer 1"
   viewBox="0 0 286.46 291.63"
   version="1.1"
   sodipodi:docname="Quaternionrotation.svg"
   inkscape:version="1.0.1 (3bc2e813f5, 2020-09-07)">
  <metadata
     id="metadata1150">
    <rdf:RDF>
      <cc:Work
         rdf:about="">
        <dc:format>image/svg+xml</dc:format>
        <dc:type
           rdf:resource="http://purl.org/dc/dcmitype/StillImage" />
      </cc:Work>
    </rdf:RDF>
  </metadata>
  <sodipodi:namedview
     pagecolor="#ffffff"
     bordercolor="#666666"
     borderopacity="1"
     objecttolerance="10"
     gridtolerance="10"
     guidetolerance="10"
     inkscape:pageopacity="0"
     inkscape:pageshadow="2"
     inkscape:window-width="1920"
     inkscape:window-height="1017"
     id="namedview1148"
     showgrid="false"
     inkscape:zoom="5.0059346"
     inkscape:cx="184.55338"
     inkscape:cy="151.45649"
     inkscape:window-x="1912"
     inkscape:window-y="-8"
     inkscape:window-maximized="1"
     inkscape:current-layer="Layer_1"
     inkscape:document-rotation="0" />
  <defs
     id="defs1081">
    <style
       id="style1079">.cls-1{fill:none;stroke:#000;stroke-miterlimit:10;}.cls-2{fill:#a6a6a6;}.cls-3{fill:#666;}</style>
    <g
       id="g1550">
      <symbol
         overflow="visible"
         id="symbol5037">
        <path
           style="stroke:none;"
           d=""
           id="path3554" />
      </symbol>
      <symbol
         overflow="visible"
         id="symbol8221">
        <path
           style="stroke:none;"
           d="M 5.390625 -3.609375 C 5.390625 -4.515625 4.71875 -4.515625 4.71875 -4.515625 C 4.3125 -4.515625 3.953125 -4.09375 3.953125 -3.765625 C 3.953125 -3.484375 4.171875 -3.359375 4.25 -3.3125 C 4.671875 -3.0625 4.75 -2.875 4.75 -2.6875 C 4.75 -2.46875 4.171875 -0.28125 3.015625 -0.28125 C 2.296875 -0.28125 2.296875 -0.875 2.296875 -1.0625 C 2.296875 -1.640625 2.578125 -2.359375 2.890625 -3.15625 C 2.96875 -3.359375 3 -3.453125 3 -3.609375 C 3 -4.1875 2.421875 -4.5 1.875 -4.5 C 0.8125 -4.5 0.3125 -3.15625 0.3125 -2.953125 C 0.3125 -2.8125 0.46875 -2.8125 0.5625 -2.8125 C 0.671875 -2.8125 0.75 -2.8125 0.78125 -2.9375 C 1.109375 -4.015625 1.640625 -4.140625 1.8125 -4.140625 C 1.890625 -4.140625 1.984375 -4.140625 1.984375 -3.9375 C 1.984375 -3.703125 1.859375 -3.421875 1.828125 -3.34375 C 1.375 -2.1875 1.21875 -1.734375 1.21875 -1.25 C 1.21875 -0.203125 2.078125 0.078125 2.953125 0.078125 C 4.671875 0.078125 5.390625 -2.75 5.390625 -3.609375 Z M 5.390625 -3.609375 "
           id="path3605" />
      </symbol>
      <symbol
         overflow="visible"
         id="symbol9916">
        <path
           style="stroke:none;"
           d=""
           id="path1164" />
      </symbol>
      <symbol
         overflow="visible"
         id="symbol9363">
        <path
           style="stroke:none;"
           d="M 2.015625 -3.296875 C 2.078125 -3.40625 2.078125 -3.46875 2.078125 -3.515625 C 2.078125 -3.734375 1.890625 -3.890625 1.671875 -3.890625 C 1.40625 -3.890625 1.328125 -3.671875 1.296875 -3.5625 L 0.375 -0.546875 C 0.359375 -0.53125 0.328125 -0.453125 0.328125 -0.4375 C 0.328125 -0.359375 0.546875 -0.28125 0.609375 -0.28125 C 0.65625 -0.28125 0.65625 -0.296875 0.703125 -0.40625 Z M 2.015625 -3.296875 "
           id="path416" />
      </symbol>
    </g>
    <g
       id="g8067">
      <symbol
         overflow="visible"
         id="symbol3411">
        <path
           style="stroke:none;"
           d=""
           id="path5471" />
      </symbol>
      <symbol
         overflow="visible"
         id="symbol2654">
        <path
           style="stroke:none;"
           d="M 5.390625 -3.609375 C 5.390625 -4.515625 4.71875 -4.515625 4.71875 -4.515625 C 4.3125 -4.515625 3.953125 -4.09375 3.953125 -3.765625 C 3.953125 -3.484375 4.171875 -3.359375 4.25 -3.3125 C 4.671875 -3.0625 4.75 -2.875 4.75 -2.6875 C 4.75 -2.46875 4.171875 -0.28125 3.015625 -0.28125 C 2.296875 -0.28125 2.296875 -0.875 2.296875 -1.0625 C 2.296875 -1.640625 2.578125 -2.359375 2.890625 -3.15625 C 2.96875 -3.359375 3 -3.453125 3 -3.609375 C 3 -4.1875 2.421875 -4.5 1.875 -4.5 C 0.8125 -4.5 0.3125 -3.15625 0.3125 -2.953125 C 0.3125 -2.8125 0.46875 -2.8125 0.5625 -2.8125 C 0.671875 -2.8125 0.75 -2.8125 0.78125 -2.9375 C 1.109375 -4.015625 1.640625 -4.140625 1.8125 -4.140625 C 1.890625 -4.140625 1.984375 -4.140625 1.984375 -3.9375 C 1.984375 -3.703125 1.859375 -3.421875 1.828125 -3.34375 C 1.375 -2.1875 1.21875 -1.734375 1.21875 -1.25 C 1.21875 -0.203125 2.078125 0.078125 2.953125 0.078125 C 4.671875 0.078125 5.390625 -2.75 5.390625 -3.609375 Z M 5.390625 -3.609375 "
           id="path4316" />
      </symbol>
      <symbol
         overflow="visible"
         id="symbol1181">
        <path
           style="stroke:none;"
           d=""
           id="path3042" />
      </symbol>
      <symbol
         overflow="visible"
         id="symbol853">
        <path
           style="stroke:none;"
           d="M 3.59375 -2.21875 C 3.59375 -2.984375 3.5 -3.546875 3.1875 -4.03125 C 2.96875 -4.34375 2.53125 -4.625 1.984375 -4.625 C 0.359375 -4.625 0.359375 -2.71875 0.359375 -2.21875 C 0.359375 -1.71875 0.359375 0.140625 1.984375 0.140625 C 3.59375 0.140625 3.59375 -1.71875 3.59375 -2.21875 Z M 1.984375 -0.0625 C 1.65625 -0.0625 1.234375 -0.25 1.09375 -0.8125 C 1 -1.21875 1 -1.796875 1 -2.3125 C 1 -2.828125 1 -3.359375 1.09375 -3.734375 C 1.25 -4.28125 1.6875 -4.4375 1.984375 -4.4375 C 2.359375 -4.4375 2.71875 -4.203125 2.84375 -3.796875 C 2.953125 -3.421875 2.96875 -2.921875 2.96875 -2.3125 C 2.96875 -1.796875 2.96875 -1.28125 2.875 -0.84375 C 2.734375 -0.203125 2.265625 -0.0625 1.984375 -0.0625 Z M 1.984375 -0.0625 "
           id="path251" />
      </symbol>
    </g>
    <g
       id="g4652">
      <symbol
         overflow="visible"
         id="symbol7386">
        <path
           style="stroke:none;"
           d=""
           id="path2662" />
      </symbol>
      <symbol
         overflow="visible"
         id="symbol6574">
        <path
           style="stroke:none;"
           d="M 5.390625 -3.609375 C 5.390625 -4.515625 4.71875 -4.515625 4.71875 -4.515625 C 4.3125 -4.515625 3.953125 -4.09375 3.953125 -3.765625 C 3.953125 -3.484375 4.171875 -3.359375 4.25 -3.3125 C 4.671875 -3.0625 4.75 -2.875 4.75 -2.6875 C 4.75 -2.46875 4.171875 -0.28125 3.015625 -0.28125 C 2.296875 -0.28125 2.296875 -0.875 2.296875 -1.0625 C 2.296875 -1.640625 2.578125 -2.359375 2.890625 -3.15625 C 2.96875 -3.359375 3 -3.453125 3 -3.609375 C 3 -4.1875 2.421875 -4.5 1.875 -4.5 C 0.8125 -4.5 0.3125 -3.15625 0.3125 -2.953125 C 0.3125 -2.8125 0.46875 -2.8125 0.5625 -2.8125 C 0.671875 -2.8125 0.75 -2.8125 0.78125 -2.9375 C 1.109375 -4.015625 1.640625 -4.140625 1.8125 -4.140625 C 1.890625 -4.140625 1.984375 -4.140625 1.984375 -3.9375 C 1.984375 -3.703125 1.859375 -3.421875 1.828125 -3.34375 C 1.375 -2.1875 1.21875 -1.734375 1.21875 -1.25 C 1.21875 -0.203125 2.078125 0.078125 2.953125 0.078125 C 4.671875 0.078125 5.390625 -2.75 5.390625 -3.609375 Z M 5.390625 -3.609375 "
           id="path9367" />
      </symbol>
      <symbol
         overflow="visible"
         id="symbol2066">
        <path
           style="stroke:none;"
           d=""
           id="path9564" />
      </symbol>
      <symbol
         overflow="visible"
         id="symbol9339">
        <path
           style="stroke:none;"
           d="M 2.328125 -4.4375 C 2.328125 -4.625 2.328125 -4.625 2.125 -4.625 C 1.671875 -4.1875 1.046875 -4.1875 0.765625 -4.1875 L 0.765625 -3.9375 C 0.921875 -3.9375 1.390625 -3.9375 1.765625 -4.125 L 1.765625 -0.578125 C 1.765625 -0.34375 1.765625 -0.25 1.078125 -0.25 L 0.8125 -0.25 L 0.8125 0 C 0.9375 0 1.796875 -0.03125 2.046875 -0.03125 C 2.265625 -0.03125 3.140625 0 3.296875 0 L 3.296875 -0.25 L 3.03125 -0.25 C 2.328125 -0.25 2.328125 -0.34375 2.328125 -0.578125 Z M 2.328125 -4.4375 "
           id="path9698" />
      </symbol>
    </g>
    <g
       id="g869">
      <symbol
         overflow="visible"
         id="symbol2333">
        <path
           style="stroke:none;"
           d=""
           id="path1696" />
      </symbol>
      <symbol
         overflow="visible"
         id="symbol6262">
        <path
           style="stroke:none;"
           d="M 5.390625 -3.609375 C 5.390625 -4.515625 4.71875 -4.515625 4.71875 -4.515625 C 4.3125 -4.515625 3.953125 -4.09375 3.953125 -3.765625 C 3.953125 -3.484375 4.171875 -3.359375 4.25 -3.3125 C 4.671875 -3.0625 4.75 -2.875 4.75 -2.6875 C 4.75 -2.46875 4.171875 -0.28125 3.015625 -0.28125 C 2.296875 -0.28125 2.296875 -0.875 2.296875 -1.0625 C 2.296875 -1.640625 2.578125 -2.359375 2.890625 -3.15625 C 2.96875 -3.359375 3 -3.453125 3 -3.609375 C 3 -4.1875 2.421875 -4.5 1.875 -4.5 C 0.8125 -4.5 0.3125 -3.15625 0.3125 -2.953125 C 0.3125 -2.8125 0.46875 -2.8125 0.5625 -2.8125 C 0.671875 -2.8125 0.75 -2.8125 0.78125 -2.9375 C 1.109375 -4.015625 1.640625 -4.140625 1.8125 -4.140625 C 1.890625 -4.140625 1.984375 -4.140625 1.984375 -3.9375 C 1.984375 -3.703125 1.859375 -3.421875 1.828125 -3.34375 C 1.375 -2.1875 1.21875 -1.734375 1.21875 -1.25 C 1.21875 -0.203125 2.078125 0.078125 2.953125 0.078125 C 4.671875 0.078125 5.390625 -2.75 5.390625 -3.609375 Z M 5.390625 -3.609375 "
           id="path1160" />
      </symbol>
      <symbol
         overflow="visible"
         id="symbol2545">
        <path
           style="stroke:none;"
           d=""
           id="path6988" />
      </symbol>
      <symbol
         overflow="visible"
         id="symbol8098">
        <path
           style="stroke:none;"
           d="M 3.28125 -4.5625 C 3.28125 -4.671875 3.28125 -4.84375 3.109375 -4.84375 C 2.9375 -4.84375 2.9375 -4.671875 2.9375 -4.5625 L 2.9375 -0.34375 L 0.8125 -0.34375 C 0.703125 -0.34375 0.53125 -0.34375 0.53125 -0.171875 C 0.53125 0 0.703125 0 0.8125 0 L 5.40625 0 C 5.515625 0 5.6875 0 5.6875 -0.171875 C 5.6875 -0.34375 5.53125 -0.34375 5.40625 -0.34375 L 3.28125 -0.34375 Z M 3.28125 -4.5625 "
           id="path8759" />
      </symbol>
    </g>
    <g
       id="g9190">
      <symbol
         overflow="visible"
         id="symbol5852">
        <path
           style="stroke:none;"
           d=""
           id="path4827" />
      </symbol>
      <symbol
         overflow="visible"
         id="symbol3320">
        <path
           style="stroke:none;"
           d="M 4.53125 -4.984375 C 4.53125 -5.640625 4.359375 -7.03125 3.34375 -7.03125 C 1.953125 -7.03125 0.421875 -4.21875 0.421875 -1.9375 C 0.421875 -1 0.703125 0.109375 1.609375 0.109375 C 3.015625 0.109375 4.53125 -2.75 4.53125 -4.984375 Z M 1.46875 -3.625 C 1.640625 -4.25 1.84375 -5.046875 2.25 -5.765625 C 2.515625 -6.25 2.875 -6.8125 3.328125 -6.8125 C 3.8125 -6.8125 3.875 -6.171875 3.875 -5.609375 C 3.875 -5.109375 3.796875 -4.609375 3.5625 -3.625 Z M 3.46875 -3.296875 C 3.359375 -2.84375 3.15625 -2 2.765625 -1.28125 C 2.421875 -0.59375 2.046875 -0.109375 1.609375 -0.109375 C 1.28125 -0.109375 1.078125 -0.40625 1.078125 -1.328125 C 1.078125 -1.75 1.140625 -2.328125 1.390625 -3.296875 Z M 3.46875 -3.296875 "
           id="path3534" />
      </symbol>
    </g>
    <g
       id="g8695">
      <symbol
         overflow="visible"
         id="symbol5462">
        <path
           style="stroke:none;"
           d=""
           id="path3437" />
      </symbol>
      <symbol
         overflow="visible"
         id="symbol3244">
        <path
           style="stroke:none;"
           d="M 4.53125 -4.984375 C 4.53125 -5.640625 4.359375 -7.03125 3.34375 -7.03125 C 1.953125 -7.03125 0.421875 -4.21875 0.421875 -1.9375 C 0.421875 -1 0.703125 0.109375 1.609375 0.109375 C 3.015625 0.109375 4.53125 -2.75 4.53125 -4.984375 Z M 1.46875 -3.625 C 1.640625 -4.25 1.84375 -5.046875 2.25 -5.765625 C 2.515625 -6.25 2.875 -6.8125 3.328125 -6.8125 C 3.8125 -6.8125 3.875 -6.171875 3.875 -5.609375 C 3.875 -5.109375 3.796875 -4.609375 3.5625 -3.625 Z M 3.46875 -3.296875 C 3.359375 -2.84375 3.15625 -2 2.765625 -1.28125 C 2.421875 -0.59375 2.046875 -0.109375 1.609375 -0.109375 C 1.28125 -0.109375 1.078125 -0.40625 1.078125 -1.328125 C 1.078125 -1.75 1.140625 -2.328125 1.390625 -3.296875 Z M 3.46875 -3.296875 "
           id="path431" />
      </symbol>
      <symbol
         overflow="visible"
         id="symbol625">
        <path
           style="stroke:none;"
           d=""
           id="path6637" />
      </symbol>
      <symbol
         overflow="visible"
         id="symbol1637">
        <path
           style="stroke:none;"
           d="M 2.015625 -3.296875 C 2.078125 -3.40625 2.078125 -3.46875 2.078125 -3.515625 C 2.078125 -3.734375 1.890625 -3.890625 1.671875 -3.890625 C 1.40625 -3.890625 1.328125 -3.671875 1.296875 -3.5625 L 0.375 -0.546875 C 0.359375 -0.53125 0.328125 -0.453125 0.328125 -0.4375 C 0.328125 -0.359375 0.546875 -0.28125 0.609375 -0.28125 C 0.65625 -0.28125 0.65625 -0.296875 0.703125 -0.40625 Z M 2.015625 -3.296875 "
           id="path6013" />
      </symbol>
    </g>
  </defs>
  <title
     id="title1083">Quaternion rotation</title>
  <circle
     class="cls-1"
     cx="132.39"
     cy="159.24"
     r="131.89"
     id="circle1085" />
  <line
     class="cls-1"
     x1="131.93"
     y1="159.33"
     x2="131.93"
     y2="36.02"
     id="line1087" />
  <polygon
     points="137.44 40.93 131.93 36.67 126.43 40.93 131.93 27.92 137.44 40.93"
     id="polygon1089" />
  <polygon
     class="cls-2"
     points="136.23 39.37 131.93 29.23 131.93 36.04 136.23 39.37"
     id="polygon1091" />
  <polygon
     class="cls-3"
     points="127.64 39.37 131.93 29.23 131.93 36.04 127.64 39.37"
     id="polygon1093" />
  <line
     class="cls-1"
     x1="131.59"
     y1="158.98"
     x2="255.41"
     y2="158.98"
     id="line1095" />
  <polygon
     points="250.5 164.49 254.76 158.98 250.5 153.48 263.52 158.98 250.5 164.49"
     id="polygon1097" />
  <polygon
     class="cls-2"
     points="252.06 163.28 262.2 158.98 255.39 158.98 252.06 163.28"
     id="polygon1099" />
  <polygon
     class="cls-3"
     points="252.06 154.69 262.2 158.98 255.39 158.98 252.06 154.69"
     id="polygon1101" />
  <line
     class="cls-1"
     x1="132.36"
     y1="159.02"
     x2="194.29"
     y2="52.23"
     id="line1109" />
  <polygon
     points="196.59 59.24 193.96 52.8 187.07 53.72 198.36 45.22 196.59 59.24"
     id="polygon1111" />
  <polygon
     class="cls-2"
     points="196.33 57.29 197.7 46.36 194.28 52.25 196.33 57.29"
     id="polygon1113" />
  <polygon
     class="cls-3"
     points="188.89 52.98 197.7 46.36 194.28 52.25 188.89 52.98"
     id="polygon1115" />
  <line
     class="cls-1"
     x1="131.88"
     y1="158.91"
     x2="237.33"
     y2="94"
     id="line1117" />
  <polygon
     points="236.04 101.27 236.78 94.35 230.27 91.89 244.23 89.76 236.04 101.27"
     id="polygon1119" />
  <polygon
     class="cls-2"
     points="236.73 99.42 243.12 90.44 237.32 94.02 236.73 99.42"
     id="polygon1121" />
  <polygon
     class="cls-3"
     points="232.23 92.1 243.12 90.44 237.32 94.02 232.23 92.1"
     id="polygon1123" />
  <g
     inkscape:label=""
     transform="matrix(2,0,0,2,65.375429,-75.96792)"
     id="g1202">
    <g
       id="g8500">
      <g
         style="fill:#000000;fill-opacity:1"
         id="g7133">
        <use
           xlink:href="#symbol8221"
           x="91.925003"
           y="81.962997"
           id="use2249"
           width="100%"
           height="100%" />
      </g>
      <g
         style="fill:#000000;fill-opacity:1"
         id="g1659">
        <use
           xlink:href="#symbol9363"
           x="97.940002"
           y="77.848999"
           id="use7550"
           width="100%"
           height="100%" />
      </g>
    </g>
  </g>
  <g
     inkscape:label=""
     transform="matrix(2,0,0,2,84.552663,-0.05801774)"
     id="g1285">
    <g
       id="g9862">
      <g
         style="fill:#000000;fill-opacity:1"
         id="g7264">
        <use
           xlink:href="#symbol2654"
           x="91.925003"
           y="81.962997"
           id="use6988"
           width="100%"
           height="100%" />
      </g>
      <g
         style="fill:#000000;fill-opacity:1"
         id="g4532">
        <use
           xlink:href="#symbol853"
           x="97.570999"
           y="83.457001"
           id="use9324"
           width="100%"
           height="100%" />
      </g>
    </g>
  </g>
  <g
     inkscape:label=""
     transform="matrix(2,0,0,2,9.4418155,-125.10959)"
     id="g1383">
    <g
       id="g5689">
      <g
         style="fill:#000000;fill-opacity:1"
         id="g9142">
        <use
           xlink:href="#symbol6574"
           x="91.925003"
           y="81.962997"
           id="use9635"
           width="100%"
           height="100%" />
      </g>
      <g
         style="fill:#000000;fill-opacity:1"
         id="g5716">
        <use
           xlink:href="#symbol9339"
           x="97.570999"
           y="83.457001"
           id="use9256"
           width="100%"
           height="100%" />
      </g>
    </g>
  </g>
  <g
     inkscape:label=""
     transform="matrix(2,0,0,2,-64.070926,-144.28683)"
     id="g1496">
    <g
       id="g2092">
      <g
         style="fill:#000000;fill-opacity:1"
         id="g4894">
        <use
           xlink:href="#symbol6262"
           x="91.925003"
           y="81.962997"
           id="use7360"
           width="100%"
           height="100%" />
      </g>
      <g
         style="fill:#000000;fill-opacity:1"
         id="g2810">
        <use
           xlink:href="#symbol8098"
           x="97.570999"
           y="83.457001"
           id="use3294"
           width="100%"
           height="100%" />
      </g>
    </g>
  </g>
  <g
     inkscape:label=""
     transform="matrix(2,0,0,2,3.0494036,-66.379301)"
     id="g1618">
    <g
       id="g9392">
      <g
         style="fill:#000000;fill-opacity:1"
         id="g4919">
        <use
           xlink:href="#symbol3320"
           x="91.925003"
           y="81.962997"
           id="use8045"
           width="100%"
           height="100%" />
      </g>
    </g>
  </g>
  <g
     inkscape:label=""
     transform="matrix(2,0,0,2,-11.333525,-10.046163)"
     id="g1749">
    <g
       id="g3190">
      <g
         style="fill:#000000;fill-opacity:1"
         id="g7254">
        <use
           xlink:href="#symbol3244"
           x="91.925003"
           y="81.962997"
           id="use3121"
           width="100%"
           height="100%" />
      </g>
      <g
         style="fill:#000000;fill-opacity:1"
         id="g9772">
        <use
           xlink:href="#symbol1637"
           x="96.878998"
           y="77.848999"
           id="use9849"
           width="100%"
           height="100%" />
      </g>
    </g>
  </g>
  <path
     style="display:inline;fill:none;stroke:#000000;stroke-width:1;stroke-miterlimit:4;stroke-dasharray:none;stroke-dashoffset:0;stop-color:#000000"
     id="path942"
     sodipodi:type="arc"
     sodipodi:cx="131.59"
     sodipodi:cy="158.98"
     sodipodi:rx="37.366978"
     sodipodi:ry="37.366978"
     sodipodi:start="5.7349868"
     sodipodi:end="0"
     sodipodi:arc-type="arc"
     d="M 163.48139,139.50617 A 37.366978,37.366978 0 0 1 168.95697,158.98"
     sodipodi:open="true" />
  <path
     style="fill:none;stroke:#000000;stroke-width:1;stroke-miterlimit:4;stroke-dasharray:none;stroke-dashoffset:0;stop-color:#000000"
     id="path946"
     sodipodi:type="arc"
     sodipodi:cx="132.36"
     sodipodi:cy="159.02"
     sodipodi:rx="80"
     sodipodi:ry="80"
     sodipodi:start="5.2388027"
     sodipodi:end="0"
     sodipodi:arc-type="arc"
     d="M 172.55487,89.850844 A 80,80 0 0 1 212.36,159.02"
     sodipodi:open="true" />
</svg>
