<?xml version="1.0" encoding="UTF-8" standalone="no"?>
<svg
   xmlns:dc="http://purl.org/dc/elements/1.1/"
   xmlns:cc="http://creativecommons.org/ns#"
   xmlns:rdf="http://www.w3.org/1999/02/22-rdf-syntax-ns#"
   xmlns:svg="http://www.w3.org/2000/svg"
   xmlns="http://www.w3.org/2000/svg"
   xmlns:xlink="http://www.w3.org/1999/xlink"
   xmlns:sodipodi="http://sodipodi.sourceforge.net/DTD/sodipodi-0.dtd"
   xmlns:inkscape="http://www.inkscape.org/namespaces/inkscape"
   id="Layer_1"
   data-name="Layer 1"
   viewBox="0 0 300.83 62.58"
   version="1.1"
   sodipodi:docname="Raypointvector.svg"
   inkscape:version="1.0.1 (3bc2e813f5, 2020-09-07)">
  <metadata
     id="metadata974">
    <rdf:RDF>
      <cc:Work
         rdf:about="">
        <dc:format>image/svg+xml</dc:format>
        <dc:type
           rdf:resource="http://purl.org/dc/dcmitype/StillImage" />
      </cc:Work>
    </rdf:RDF>
  </metadata>
  <sodipodi:namedview
     pagecolor="#ffffff"
     bordercolor="#666666"
     borderopacity="1"
     objecttolerance="10"
     gridtolerance="10"
     guidetolerance="10"
     inkscape:pageopacity="0"
     inkscape:pageshadow="2"
     inkscape:window-width="1920"
     inkscape:window-height="1017"
     id="namedview972"
     showgrid="false"
     inkscape:zoom="2.3834059"
     inkscape:cx="150.415"
     inkscape:cy="31.29"
     inkscape:window-x="1912"
     inkscape:window-y="-8"
     inkscape:window-maximized="1"
     inkscape:current-layer="Layer_1"
     inkscape:document-rotation="0" />
  <defs
     id="defs953">
    <style
       id="style951">.cls-1{fill:none;stroke:#000;stroke-miterlimit:10;}.cls-2{fill:#a6a6a6;}.cls-3{fill:#666;}</style>
    <g
       id="g5544">
      <symbol
         overflow="visible"
         id="symbol2443">
        <path
           style="stroke:none;"
           d=""
           id="path2451" />
      </symbol>
      <symbol
         overflow="visible"
         id="symbol6529">
        <path
           style="stroke:none;"
           d="M 5.671875 -2.78125 C 5.671875 -3.84375 4.90625 -4.5 3.59375 -4.5 C 1.53125 -4.5 0.453125 -2.90625 0.453125 -1.640625 C 0.453125 -0.578125 1.21875 0.078125 2.53125 0.078125 C 4.609375 0.078125 5.671875 -1.53125 5.671875 -2.78125 Z M 2.546875 -0.28125 C 2.140625 -0.28125 1.609375 -0.453125 1.609375 -1.203125 C 1.609375 -1.5625 1.859375 -2.75 2.15625 -3.28125 C 2.53125 -3.921875 3.125 -4.140625 3.578125 -4.140625 C 4 -4.140625 4.53125 -3.984375 4.53125 -3.21875 C 4.53125 -2.875 4.265625 -1.671875 3.96875 -1.140625 C 3.59375 -0.5 3 -0.28125 2.546875 -0.28125 Z M 2.546875 -0.28125 "
           id="path7991" />
      </symbol>
    </g>
    <g
       id="g2587">
      <symbol
         overflow="visible"
         id="symbol3398">
        <path
           style="stroke:none;"
           d=""
           id="path6247" />
      </symbol>
      <symbol
         overflow="visible"
         id="symbol7246">
        <path
           style="stroke:none;"
           d="M 5.984375 -6.5625 C 6.015625 -6.703125 6.015625 -6.734375 6.015625 -6.734375 C 6.015625 -6.875 5.90625 -6.921875 5.796875 -6.921875 C 5.765625 -6.921875 5.75 -6.921875 5.734375 -6.90625 L 4.453125 -6.84375 C 4.3125 -6.84375 4.125 -6.828125 4.125 -6.546875 C 4.125 -6.375 4.3125 -6.375 4.390625 -6.375 C 4.5 -6.375 4.671875 -6.375 4.8125 -6.34375 L 4.265625 -4.140625 C 4.109375 -4.28125 3.78125 -4.5 3.265625 -4.5 C 1.53125 -4.5 0.453125 -2.9375 0.453125 -1.5625 C 0.453125 -0.34375 1.359375 0.078125 2.1875 0.078125 C 2.90625 0.078125 3.421875 -0.3125 3.578125 -0.453125 C 3.953125 0.078125 4.609375 0.078125 4.71875 0.078125 C 5.09375 0.078125 5.390625 -0.125 5.59375 -0.484375 C 5.84375 -0.890625 5.96875 -1.421875 5.96875 -1.46875 C 5.96875 -1.609375 5.828125 -1.609375 5.734375 -1.609375 C 5.625 -1.609375 5.578125 -1.609375 5.53125 -1.5625 C 5.515625 -1.546875 5.515625 -1.53125 5.453125 -1.28125 C 5.25 -0.484375 5.03125 -0.28125 4.78125 -0.28125 C 4.671875 -0.28125 4.546875 -0.3125 4.546875 -0.640625 C 4.546875 -0.796875 4.5625 -0.9375 4.609375 -1.078125 Z M 3.484375 -0.921875 C 3.1875 -0.59375 2.71875 -0.28125 2.25 -0.28125 C 1.625 -0.28125 1.578125 -0.8125 1.578125 -1.03125 C 1.578125 -1.5625 1.90625 -2.78125 2.078125 -3.171875 C 2.375 -3.890625 2.875 -4.140625 3.28125 -4.140625 C 3.875 -4.140625 4.109375 -3.671875 4.109375 -3.5625 L 4.09375 -3.421875 Z M 3.484375 -0.921875 "
           id="path3624" />
      </symbol>
    </g>
  </defs>
  <title
     id="title955">Ray point vector</title>
  <circle
     cx="23.79"
     cy="46.51"
     r="6.22"
     id="circle957" />
  <line
     class="cls-1"
     x1="29.23"
     y1="45"
     x2="292.79"
     y2="12.01"
     id="line959" />
  <polygon
     points="288.6 18.08 292.14 12.09 287.24 7.16 300.83 11 288.6 18.08"
     id="polygon961" />
  <polygon
     class="cls-2"
     points="290 16.69 299.53 11.16 292.77 12.01 290 16.69"
     id="polygon963" />
  <polygon
     class="cls-3"
     points="288.93 8.16 299.53 11.16 292.77 12.01 288.93 8.16"
     id="polygon965" />
  <g
     inkscape:label=""
     transform="matrix(2.8764045,0,0,2.8764045,-263.75556,-174.55049)"
     id="g996">
    <g
       id="g1002">
      <g
         style="fill:#000000;fill-opacity:1"
         id="g6490">
        <use
           xlink:href="#symbol6529"
           x="91.925003"
           y="81.962997"
           id="use8180"
           width="100%"
           height="100%" />
      </g>
    </g>
  </g>
  <g
     inkscape:label=""
     transform="matrix(2.8764045,0,0,2.8764045,-123.61997,-211.05287)"
     id="g1037">
    <g
       id="g7840">
      <g
         style="fill:#000000;fill-opacity:1"
         id="g3387">
        <use
           xlink:href="#symbol7246"
           x="91.925003"
           y="81.962997"
           id="use2477"
           width="100%"
           height="100%" />
      </g>
    </g>
  </g>
</svg>
