<?xml version="1.0" encoding="UTF-8" standalone="no"?>
<svg
   xmlns:dc="http://purl.org/dc/elements/1.1/"
   xmlns:cc="http://creativecommons.org/ns#"
   xmlns:rdf="http://www.w3.org/1999/02/22-rdf-syntax-ns#"
   xmlns:svg="http://www.w3.org/2000/svg"
   xmlns="http://www.w3.org/2000/svg"
   xmlns:xlink="http://www.w3.org/1999/xlink"
   xmlns:sodipodi="http://sodipodi.sourceforge.net/DTD/sodipodi-0.dtd"
   xmlns:inkscape="http://www.inkscape.org/namespaces/inkscape"
   id="Layer_1"
   data-name="Layer 1"
   viewBox="0 0 280.51 291.63"
   version="1.1"
   sodipodi:docname="Rotatexaxis.svg"
   inkscape:version="1.0.1 (3bc2e813f5, 2020-09-07)">
  <sodipodi:namedview
     pagecolor="#ffffff"
     bordercolor="#666666"
     borderopacity="1"
     objecttolerance="10"
     gridtolerance="10"
     guidetolerance="10"
     inkscape:pageopacity="0"
     inkscape:pageshadow="2"
     inkscape:window-width="1920"
     inkscape:window-height="1017"
     id="namedview944"
     showgrid="false"
     inkscape:zoom="5.1121172"
     inkscape:cx="125.54917"
     inkscape:cy="131.16507"
     inkscape:window-x="1912"
     inkscape:window-y="-8"
     inkscape:window-maximized="1"
     inkscape:current-layer="Layer_1"
     inkscape:document-rotation="0"
     inkscape:snap-bbox="true"
     inkscape:snap-bbox-midpoints="true"
     inkscape:bbox-nodes="true"
     inkscape:snap-bbox-edge-midpoints="true"
     inkscape:snap-intersection-paths="true" />
  <metadata
     id="metadata981">
    <rdf:RDF>
      <cc:Work
         rdf:about="">
        <dc:format>image/svg+xml</dc:format>
        <dc:type
           rdf:resource="http://purl.org/dc/dcmitype/StillImage" />
        <dc:title>Rotate x axis</dc:title>
      </cc:Work>
    </rdf:RDF>
  </metadata>
  <defs
     id="defs910">
    <style
       id="style908">.cls-1,.cls-4{fill:none;stroke:#000;stroke-miterlimit:10;}.cls-2{fill:#a6a6a6;}.cls-3{fill:#666;}.cls-4{stroke-dasharray:4 4;}</style>
    <g
       id="g7779">
      <symbol
         overflow="visible"
         id="symbol9489">
        <path
           style="stroke:none;"
           d=""
           id="path6893" />
      </symbol>
      <symbol
         overflow="visible"
         id="symbol3970">
        <path
           style="stroke:none;"
           d="M 3.328125 -3.015625 C 3.390625 -3.265625 3.625 -4.1875 4.3125 -4.1875 C 4.359375 -4.1875 4.609375 -4.1875 4.8125 -4.0625 C 4.53125 -4 4.34375 -3.765625 4.34375 -3.515625 C 4.34375 -3.359375 4.453125 -3.171875 4.71875 -3.171875 C 4.9375 -3.171875 5.25 -3.34375 5.25 -3.75 C 5.25 -4.265625 4.671875 -4.40625 4.328125 -4.40625 C 3.75 -4.40625 3.40625 -3.875 3.28125 -3.65625 C 3.03125 -4.3125 2.5 -4.40625 2.203125 -4.40625 C 1.171875 -4.40625 0.59375 -3.125 0.59375 -2.875 C 0.59375 -2.765625 0.703125 -2.765625 0.71875 -2.765625 C 0.796875 -2.765625 0.828125 -2.796875 0.84375 -2.875 C 1.1875 -3.9375 1.84375 -4.1875 2.1875 -4.1875 C 2.375 -4.1875 2.71875 -4.09375 2.71875 -3.515625 C 2.71875 -3.203125 2.546875 -2.546875 2.1875 -1.140625 C 2.03125 -0.53125 1.671875 -0.109375 1.234375 -0.109375 C 1.171875 -0.109375 0.953125 -0.109375 0.734375 -0.234375 C 0.984375 -0.296875 1.203125 -0.5 1.203125 -0.78125 C 1.203125 -1.046875 0.984375 -1.125 0.84375 -1.125 C 0.53125 -1.125 0.296875 -0.875 0.296875 -0.546875 C 0.296875 -0.09375 0.78125 0.109375 1.21875 0.109375 C 1.890625 0.109375 2.25 -0.59375 2.265625 -0.640625 C 2.390625 -0.28125 2.75 0.109375 3.34375 0.109375 C 4.375 0.109375 4.9375 -1.171875 4.9375 -1.421875 C 4.9375 -1.53125 4.859375 -1.53125 4.828125 -1.53125 C 4.734375 -1.53125 4.71875 -1.484375 4.6875 -1.421875 C 4.359375 -0.34375 3.6875 -0.109375 3.375 -0.109375 C 2.984375 -0.109375 2.828125 -0.421875 2.828125 -0.765625 C 2.828125 -0.984375 2.875 -1.203125 2.984375 -1.640625 Z M 3.328125 -3.015625 "
           id="path687" />
      </symbol>
    </g>
    <g
       id="g1299">
      <symbol
         overflow="visible"
         id="symbol8320">
        <path
           style="stroke:none;"
           d=""
           id="path2155" />
      </symbol>
      <symbol
         overflow="visible"
         id="symbol8500">
        <path
           style="stroke:none;"
           d="M 4.84375 -3.796875 C 4.890625 -3.9375 4.890625 -3.953125 4.890625 -4.03125 C 4.890625 -4.203125 4.75 -4.296875 4.59375 -4.296875 C 4.5 -4.296875 4.34375 -4.234375 4.25 -4.09375 C 4.234375 -4.03125 4.140625 -3.734375 4.109375 -3.546875 C 4.03125 -3.296875 3.96875 -3.015625 3.90625 -2.75 L 3.453125 -0.953125 C 3.421875 -0.8125 2.984375 -0.109375 2.328125 -0.109375 C 1.828125 -0.109375 1.71875 -0.546875 1.71875 -0.921875 C 1.71875 -1.375 1.890625 -2 2.21875 -2.875 C 2.375 -3.28125 2.421875 -3.390625 2.421875 -3.59375 C 2.421875 -4.03125 2.109375 -4.40625 1.609375 -4.40625 C 0.65625 -4.40625 0.296875 -2.953125 0.296875 -2.875 C 0.296875 -2.765625 0.390625 -2.765625 0.40625 -2.765625 C 0.515625 -2.765625 0.515625 -2.796875 0.5625 -2.953125 C 0.84375 -3.890625 1.234375 -4.1875 1.578125 -4.1875 C 1.65625 -4.1875 1.828125 -4.1875 1.828125 -3.875 C 1.828125 -3.625 1.71875 -3.359375 1.65625 -3.171875 C 1.25 -2.109375 1.078125 -1.546875 1.078125 -1.078125 C 1.078125 -0.1875 1.703125 0.109375 2.296875 0.109375 C 2.6875 0.109375 3.015625 -0.0625 3.296875 -0.34375 C 3.171875 0.171875 3.046875 0.671875 2.65625 1.203125 C 2.390625 1.53125 2.015625 1.828125 1.5625 1.828125 C 1.421875 1.828125 0.96875 1.796875 0.796875 1.40625 C 0.953125 1.40625 1.09375 1.40625 1.21875 1.28125 C 1.328125 1.203125 1.421875 1.0625 1.421875 0.875 C 1.421875 0.5625 1.15625 0.53125 1.0625 0.53125 C 0.828125 0.53125 0.5 0.6875 0.5 1.171875 C 0.5 1.671875 0.9375 2.046875 1.5625 2.046875 C 2.578125 2.046875 3.609375 1.140625 3.890625 0.015625 Z M 4.84375 -3.796875 "
           id="path9626" />
      </symbol>
    </g>
    <g
       id="g5660">
      <symbol
         overflow="visible"
         id="symbol9190">
        <path
           style="stroke:none;"
           d=""
           id="path743" />
      </symbol>
      <symbol
         overflow="visible"
         id="symbol3378">
        <path
           style="stroke:none;"
           d="M 1.328125 -0.828125 C 1.859375 -1.40625 2.15625 -1.65625 2.515625 -1.96875 C 2.515625 -1.96875 3.125 -2.5 3.484375 -2.859375 C 4.4375 -3.78125 4.65625 -4.265625 4.65625 -4.3125 C 4.65625 -4.40625 4.5625 -4.40625 4.546875 -4.40625 C 4.46875 -4.40625 4.453125 -4.390625 4.390625 -4.296875 C 4.09375 -3.8125 3.890625 -3.65625 3.65625 -3.65625 C 3.40625 -3.65625 3.296875 -3.8125 3.140625 -3.984375 C 2.953125 -4.203125 2.78125 -4.40625 2.453125 -4.40625 C 1.703125 -4.40625 1.25 -3.484375 1.25 -3.265625 C 1.25 -3.21875 1.28125 -3.15625 1.359375 -3.15625 C 1.453125 -3.15625 1.46875 -3.203125 1.5 -3.265625 C 1.6875 -3.734375 2.265625 -3.734375 2.34375 -3.734375 C 2.546875 -3.734375 2.734375 -3.671875 2.96875 -3.59375 C 3.375 -3.4375 3.484375 -3.4375 3.734375 -3.4375 C 3.375 -3.015625 2.546875 -2.296875 2.359375 -2.140625 L 1.453125 -1.296875 C 0.78125 -0.625 0.421875 -0.0625 0.421875 0.015625 C 0.421875 0.109375 0.53125 0.109375 0.546875 0.109375 C 0.625 0.109375 0.640625 0.09375 0.703125 -0.015625 C 0.9375 -0.375 1.234375 -0.640625 1.5625 -0.640625 C 1.78125 -0.640625 1.890625 -0.546875 2.140625 -0.265625 C 2.296875 -0.046875 2.484375 0.109375 2.765625 0.109375 C 3.765625 0.109375 4.34375 -1.15625 4.34375 -1.421875 C 4.34375 -1.46875 4.296875 -1.53125 4.21875 -1.53125 C 4.125 -1.53125 4.109375 -1.46875 4.078125 -1.390625 C 3.84375 -0.75 3.203125 -0.5625 2.875 -0.5625 C 2.6875 -0.5625 2.5 -0.625 2.296875 -0.6875 C 1.953125 -0.8125 1.796875 -0.859375 1.59375 -0.859375 C 1.578125 -0.859375 1.421875 -0.859375 1.328125 -0.828125 Z M 1.328125 -0.828125 "
           id="path1878" />
      </symbol>
    </g>
    <g
       id="g3958">
      <symbol
         overflow="visible"
         id="symbol9616">
        <path
           style="stroke:none;"
           d=""
           id="path7288" />
      </symbol>
      <symbol
         overflow="visible"
         id="symbol7616">
        <path
           style="stroke:none;"
           d="M 3.328125 -3.015625 C 3.390625 -3.265625 3.625 -4.1875 4.3125 -4.1875 C 4.359375 -4.1875 4.609375 -4.1875 4.8125 -4.0625 C 4.53125 -4 4.34375 -3.765625 4.34375 -3.515625 C 4.34375 -3.359375 4.453125 -3.171875 4.71875 -3.171875 C 4.9375 -3.171875 5.25 -3.34375 5.25 -3.75 C 5.25 -4.265625 4.671875 -4.40625 4.328125 -4.40625 C 3.75 -4.40625 3.40625 -3.875 3.28125 -3.65625 C 3.03125 -4.3125 2.5 -4.40625 2.203125 -4.40625 C 1.171875 -4.40625 0.59375 -3.125 0.59375 -2.875 C 0.59375 -2.765625 0.703125 -2.765625 0.71875 -2.765625 C 0.796875 -2.765625 0.828125 -2.796875 0.84375 -2.875 C 1.1875 -3.9375 1.84375 -4.1875 2.1875 -4.1875 C 2.375 -4.1875 2.71875 -4.09375 2.71875 -3.515625 C 2.71875 -3.203125 2.546875 -2.546875 2.1875 -1.140625 C 2.03125 -0.53125 1.671875 -0.109375 1.234375 -0.109375 C 1.171875 -0.109375 0.953125 -0.109375 0.734375 -0.234375 C 0.984375 -0.296875 1.203125 -0.5 1.203125 -0.78125 C 1.203125 -1.046875 0.984375 -1.125 0.84375 -1.125 C 0.53125 -1.125 0.296875 -0.875 0.296875 -0.546875 C 0.296875 -0.09375 0.78125 0.109375 1.21875 0.109375 C 1.890625 0.109375 2.25 -0.59375 2.265625 -0.640625 C 2.390625 -0.28125 2.75 0.109375 3.34375 0.109375 C 4.375 0.109375 4.9375 -1.171875 4.9375 -1.421875 C 4.9375 -1.53125 4.859375 -1.53125 4.828125 -1.53125 C 4.734375 -1.53125 4.71875 -1.484375 4.6875 -1.421875 C 4.359375 -0.34375 3.6875 -0.109375 3.375 -0.109375 C 2.984375 -0.109375 2.828125 -0.421875 2.828125 -0.765625 C 2.828125 -0.984375 2.875 -1.203125 2.984375 -1.640625 Z M 3.328125 -3.015625 "
           id="path7170" />
      </symbol>
      <symbol
         overflow="visible"
         id="symbol4212">
        <path
           style="stroke:none;"
           d=""
           id="path2982" />
      </symbol>
      <symbol
         overflow="visible"
         id="symbol5296">
        <path
           style="stroke:none;"
           d="M 2.015625 -3.296875 C 2.078125 -3.40625 2.078125 -3.46875 2.078125 -3.515625 C 2.078125 -3.734375 1.890625 -3.890625 1.671875 -3.890625 C 1.40625 -3.890625 1.328125 -3.671875 1.296875 -3.5625 L 0.375 -0.546875 C 0.359375 -0.53125 0.328125 -0.453125 0.328125 -0.4375 C 0.328125 -0.359375 0.546875 -0.28125 0.609375 -0.28125 C 0.65625 -0.28125 0.65625 -0.296875 0.703125 -0.40625 Z M 2.015625 -3.296875 "
           id="path6840" />
      </symbol>
    </g>
    <g
       id="g973">
      <symbol
         overflow="visible"
         id="symbol695">
        <path
           style="stroke:none;"
           d=""
           id="path1874" />
      </symbol>
      <symbol
         overflow="visible"
         id="symbol560">
        <path
           style="stroke:none;"
           d="M 4.84375 -3.796875 C 4.890625 -3.9375 4.890625 -3.953125 4.890625 -4.03125 C 4.890625 -4.203125 4.75 -4.296875 4.59375 -4.296875 C 4.5 -4.296875 4.34375 -4.234375 4.25 -4.09375 C 4.234375 -4.03125 4.140625 -3.734375 4.109375 -3.546875 C 4.03125 -3.296875 3.96875 -3.015625 3.90625 -2.75 L 3.453125 -0.953125 C 3.421875 -0.8125 2.984375 -0.109375 2.328125 -0.109375 C 1.828125 -0.109375 1.71875 -0.546875 1.71875 -0.921875 C 1.71875 -1.375 1.890625 -2 2.21875 -2.875 C 2.375 -3.28125 2.421875 -3.390625 2.421875 -3.59375 C 2.421875 -4.03125 2.109375 -4.40625 1.609375 -4.40625 C 0.65625 -4.40625 0.296875 -2.953125 0.296875 -2.875 C 0.296875 -2.765625 0.390625 -2.765625 0.40625 -2.765625 C 0.515625 -2.765625 0.515625 -2.796875 0.5625 -2.953125 C 0.84375 -3.890625 1.234375 -4.1875 1.578125 -4.1875 C 1.65625 -4.1875 1.828125 -4.1875 1.828125 -3.875 C 1.828125 -3.625 1.71875 -3.359375 1.65625 -3.171875 C 1.25 -2.109375 1.078125 -1.546875 1.078125 -1.078125 C 1.078125 -0.1875 1.703125 0.109375 2.296875 0.109375 C 2.6875 0.109375 3.015625 -0.0625 3.296875 -0.34375 C 3.171875 0.171875 3.046875 0.671875 2.65625 1.203125 C 2.390625 1.53125 2.015625 1.828125 1.5625 1.828125 C 1.421875 1.828125 0.96875 1.796875 0.796875 1.40625 C 0.953125 1.40625 1.09375 1.40625 1.21875 1.28125 C 1.328125 1.203125 1.421875 1.0625 1.421875 0.875 C 1.421875 0.5625 1.15625 0.53125 1.0625 0.53125 C 0.828125 0.53125 0.5 0.6875 0.5 1.171875 C 0.5 1.671875 0.9375 2.046875 1.5625 2.046875 C 2.578125 2.046875 3.609375 1.140625 3.890625 0.015625 Z M 4.84375 -3.796875 "
           id="path2860" />
      </symbol>
      <symbol
         overflow="visible"
         id="symbol6988">
        <path
           style="stroke:none;"
           d=""
           id="path3098" />
      </symbol>
      <symbol
         overflow="visible"
         id="symbol2879">
        <path
           style="stroke:none;"
           d="M 2.015625 -3.296875 C 2.078125 -3.40625 2.078125 -3.46875 2.078125 -3.515625 C 2.078125 -3.734375 1.890625 -3.890625 1.671875 -3.890625 C 1.40625 -3.890625 1.328125 -3.671875 1.296875 -3.5625 L 0.375 -0.546875 C 0.359375 -0.53125 0.328125 -0.453125 0.328125 -0.4375 C 0.328125 -0.359375 0.546875 -0.28125 0.609375 -0.28125 C 0.65625 -0.28125 0.65625 -0.296875 0.703125 -0.40625 Z M 2.015625 -3.296875 "
           id="path5809" />
      </symbol>
    </g>
    <g
       id="g2023">
      <symbol
         overflow="visible"
         id="symbol1130">
        <path
           style="stroke:none;"
           d=""
           id="path5177" />
      </symbol>
      <symbol
         overflow="visible"
         id="symbol5703">
        <path
           style="stroke:none;"
           d="M 1.328125 -0.828125 C 1.859375 -1.40625 2.15625 -1.65625 2.515625 -1.96875 C 2.515625 -1.96875 3.125 -2.5 3.484375 -2.859375 C 4.4375 -3.78125 4.65625 -4.265625 4.65625 -4.3125 C 4.65625 -4.40625 4.5625 -4.40625 4.546875 -4.40625 C 4.46875 -4.40625 4.453125 -4.390625 4.390625 -4.296875 C 4.09375 -3.8125 3.890625 -3.65625 3.65625 -3.65625 C 3.40625 -3.65625 3.296875 -3.8125 3.140625 -3.984375 C 2.953125 -4.203125 2.78125 -4.40625 2.453125 -4.40625 C 1.703125 -4.40625 1.25 -3.484375 1.25 -3.265625 C 1.25 -3.21875 1.28125 -3.15625 1.359375 -3.15625 C 1.453125 -3.15625 1.46875 -3.203125 1.5 -3.265625 C 1.6875 -3.734375 2.265625 -3.734375 2.34375 -3.734375 C 2.546875 -3.734375 2.734375 -3.671875 2.96875 -3.59375 C 3.375 -3.4375 3.484375 -3.4375 3.734375 -3.4375 C 3.375 -3.015625 2.546875 -2.296875 2.359375 -2.140625 L 1.453125 -1.296875 C 0.78125 -0.625 0.421875 -0.0625 0.421875 0.015625 C 0.421875 0.109375 0.53125 0.109375 0.546875 0.109375 C 0.625 0.109375 0.640625 0.09375 0.703125 -0.015625 C 0.9375 -0.375 1.234375 -0.640625 1.5625 -0.640625 C 1.78125 -0.640625 1.890625 -0.546875 2.140625 -0.265625 C 2.296875 -0.046875 2.484375 0.109375 2.765625 0.109375 C 3.765625 0.109375 4.34375 -1.15625 4.34375 -1.421875 C 4.34375 -1.46875 4.296875 -1.53125 4.21875 -1.53125 C 4.125 -1.53125 4.109375 -1.46875 4.078125 -1.390625 C 3.84375 -0.75 3.203125 -0.5625 2.875 -0.5625 C 2.6875 -0.5625 2.5 -0.625 2.296875 -0.6875 C 1.953125 -0.8125 1.796875 -0.859375 1.59375 -0.859375 C 1.578125 -0.859375 1.421875 -0.859375 1.328125 -0.828125 Z M 1.328125 -0.828125 "
           id="path9870" />
      </symbol>
      <symbol
         overflow="visible"
         id="symbol6861">
        <path
           style="stroke:none;"
           d=""
           id="path9270" />
      </symbol>
      <symbol
         overflow="visible"
         id="symbol3677">
        <path
           style="stroke:none;"
           d="M 2.015625 -3.296875 C 2.078125 -3.40625 2.078125 -3.46875 2.078125 -3.515625 C 2.078125 -3.734375 1.890625 -3.890625 1.671875 -3.890625 C 1.40625 -3.890625 1.328125 -3.671875 1.296875 -3.5625 L 0.375 -0.546875 C 0.359375 -0.53125 0.328125 -0.453125 0.328125 -0.4375 C 0.328125 -0.359375 0.546875 -0.28125 0.609375 -0.28125 C 0.65625 -0.28125 0.65625 -0.296875 0.703125 -0.40625 Z M 2.015625 -3.296875 "
           id="path5581" />
      </symbol>
    </g>
    <g
       id="g818">
      <symbol
         overflow="visible"
         id="symbol6362">
        <path
           style="stroke:none;"
           d=""
           id="path7784" />
      </symbol>
      <symbol
         overflow="visible"
         id="symbol5058">
        <path
           style="stroke:none;"
           d="M 4.53125 -4.984375 C 4.53125 -5.640625 4.359375 -7.03125 3.34375 -7.03125 C 1.953125 -7.03125 0.421875 -4.21875 0.421875 -1.9375 C 0.421875 -1 0.703125 0.109375 1.609375 0.109375 C 3.015625 0.109375 4.53125 -2.75 4.53125 -4.984375 Z M 1.46875 -3.625 C 1.640625 -4.25 1.84375 -5.046875 2.25 -5.765625 C 2.515625 -6.25 2.875 -6.8125 3.328125 -6.8125 C 3.8125 -6.8125 3.875 -6.171875 3.875 -5.609375 C 3.875 -5.109375 3.796875 -4.609375 3.5625 -3.625 Z M 3.46875 -3.296875 C 3.359375 -2.84375 3.15625 -2 2.765625 -1.28125 C 2.421875 -0.59375 2.046875 -0.109375 1.609375 -0.109375 C 1.28125 -0.109375 1.078125 -0.40625 1.078125 -1.328125 C 1.078125 -1.75 1.140625 -2.328125 1.390625 -3.296875 Z M 3.46875 -3.296875 "
           id="path4775" />
      </symbol>
    </g>
    <g
       id="g2139">
      <symbol
         overflow="visible"
         id="symbol7760">
        <path
           style="stroke:none;"
           d=""
           id="path6350" />
      </symbol>
      <symbol
         overflow="visible"
         id="symbol4567">
        <path
           style="stroke:none;"
           d="M 4.53125 -4.984375 C 4.53125 -5.640625 4.359375 -7.03125 3.34375 -7.03125 C 1.953125 -7.03125 0.421875 -4.21875 0.421875 -1.9375 C 0.421875 -1 0.703125 0.109375 1.609375 0.109375 C 3.015625 0.109375 4.53125 -2.75 4.53125 -4.984375 Z M 1.46875 -3.625 C 1.640625 -4.25 1.84375 -5.046875 2.25 -5.765625 C 2.515625 -6.25 2.875 -6.8125 3.328125 -6.8125 C 3.8125 -6.8125 3.875 -6.171875 3.875 -5.609375 C 3.875 -5.109375 3.796875 -4.609375 3.5625 -3.625 Z M 3.46875 -3.296875 C 3.359375 -2.84375 3.15625 -2 2.765625 -1.28125 C 2.421875 -0.59375 2.046875 -0.109375 1.609375 -0.109375 C 1.28125 -0.109375 1.078125 -0.40625 1.078125 -1.328125 C 1.078125 -1.75 1.140625 -2.328125 1.390625 -3.296875 Z M 3.46875 -3.296875 "
           id="path596" />
      </symbol>
    </g>
  </defs>
  <title
     id="title912">Rotate x axis</title>
  <circle
     class="cls-1"
     cx="148.12"
     cy="159.24001"
     r="131.89"
     id="circle914"
     style="display:inline" />
  <line
     class="cls-1"
     x1="149.03"
     y1="158.00999"
     x2="25.719999"
     y2="158.00999"
     id="line916"
     style="display:inline" />
  <polygon
     points="30.63,152.51 26.37,158.01 30.63,163.51 17.62,158.01 "
     id="polygon918"
     style="display:inline" />
  <polygon
     class="cls-2"
     points="29.07 153.71 18.93 158.01 25.74 158.01 29.07 153.71"
     id="polygon920" />
  <polygon
     class="cls-3"
     points="29.07 162.31 18.93 158.01 25.74 158.01 29.07 162.31"
     id="polygon922" />
  <line
     class="cls-1"
     x1="148.67999"
     y1="158.36"
     x2="148.67999"
     y2="34.529999"
     id="line924"
     style="display:inline" />
  <polygon
     points="154.18 39.44 148.68 35.18 143.18 39.44 148.68 26.43 154.18 39.44"
     id="polygon926" />
  <polygon
     class="cls-2"
     points="152.98 37.88 148.68 27.74 148.68 34.55 152.98 37.88"
     id="polygon928" />
  <polygon
     class="cls-3"
     points="144.38 37.88 148.68 27.74 148.68 34.55 144.38 37.88"
     id="polygon930" />
  <line
     class="cls-1"
     x1="147.48"
     y1="159.33"
     x2="138.52"
     y2="171.28"
     id="line932" />
  <polygon
     points="137.06 164.05 138.91 170.76 145.87 170.65 133.66 177.77 137.06 164.05"
     id="polygon934" />
  <polygon
     class="cls-2"
     points="137.09 166.02 134.45 176.72 138.54 171.27 137.09 166.02"
     id="polygon936" />
  <polygon
     class="cls-3"
     points="143.97 171.18 134.45 176.72 138.54 171.27 143.97 171.18"
     id="polygon938" />
  <line
     class="cls-4"
     x1="148.7"
     y1="158.1"
     x2="44.96"
     y2="91.45"
     id="line944" />
  <polygon
     points="52.06 89.48 45.51 91.81 46.11 98.74 38.14 87.08 52.06 89.48"
     id="polygon946" />
  <polygon
     class="cls-2"
     points="50.1 89.65 39.24 87.78 44.97 91.47 50.1 89.65"
     id="polygon948" />
  <polygon
     class="cls-3"
     points="45.45 96.88 39.24 87.78 44.97 91.47 45.45 96.88"
     id="polygon950" />
  <line
     class="cls-4"
     x1="148.22"
     y1="158.21"
     x2="215.15"
     y2="54.03"
     id="line952" />
  <polygon
     points="217.13 61.13 214.8 54.58 207.87 55.18 219.53 47.21 217.13 61.13"
     id="polygon954" />
  <polygon
     class="cls-2"
     points="216.96 59.17 218.82 48.31 215.14 54.04 216.96 59.17"
     id="polygon956" />
  <polygon
     class="cls-3"
     points="218.82,48.31 215.14,54.04 209.72,54.52 "
     id="polygon958"
     style="display:inline" />
  <g
     transform="matrix(2.4079461,0,0,2.4079461,-103.04437,-13.477464)"
     id="g1028">
    <g
       id="g1207">
      <g
         style="fill:#000000;fill-opacity:1"
         id="g7973">
        <use
           xlink:href="#symbol3970"
           x="91.925003"
           y="81.962997"
           id="use2175"
           width="100%"
           height="100%" />
      </g>
    </g>
  </g>
  <g
     transform="matrix(2.4079461,0,0,2.4079461,-78.005818,-178.96662)"
     id="g1094">
    <g
       id="g3828">
      <g
         style="fill:#000000;fill-opacity:1"
         id="g1521">
        <use
           xlink:href="#symbol8500"
           x="91.925003"
           y="81.962997"
           id="use3664"
           width="100%"
           height="100%" />
      </g>
    </g>
  </g>
  <g
     transform="matrix(2.4079461,0,0,2.4079461,-218.84766,-32.647603)"
     id="g1169">
    <g
       id="g8119">
      <g
         style="fill:#000000;fill-opacity:1"
         id="g8625">
        <use
           xlink:href="#symbol3378"
           x="91.925003"
           y="81.962997"
           id="use7329"
           width="100%"
           height="100%" />
      </g>
    </g>
  </g>
  <g
     transform="matrix(2.4079461,0,0,2.4079461,-1.7164868,-159.79649)"
     id="g1370">
    <g
       id="g9058">
      <g
         style="fill:#000000;fill-opacity:1"
         id="g5859">
        <use
           xlink:href="#symbol560"
           x="91.925003"
           y="81.962997"
           id="use5779"
           width="100%"
           height="100%" />
      </g>
      <g
         style="fill:#000000;fill-opacity:1"
         id="g2501">
        <use
           xlink:href="#symbol2879"
           x="97.167"
           y="77.848999"
           id="use4360"
           width="100%"
           height="100%" />
      </g>
    </g>
  </g>
  <g
     transform="matrix(2.4079461,0,0,2.4079461,-198.11261,-110.89307)"
     id="g1496">
    <g
       id="g2154">
      <g
         style="fill:#000000;fill-opacity:1"
         id="g4970">
        <use
           xlink:href="#symbol5703"
           x="91.925003"
           y="81.962997"
           id="use4531"
           width="100%"
           height="100%" />
      </g>
      <g
         style="fill:#000000;fill-opacity:1"
         id="g4787">
        <use
           xlink:href="#symbol3677"
           x="96.997002"
           y="77.848999"
           id="use5768"
           width="100%"
           height="100%" />
      </g>
    </g>
  </g>
  <g
     transform="matrix(2.4079461,0,0,2.4079461,-126.90923,-43.601968)"
     id="g1631"
     style="display:inline">
    <g
       id="g9492">
      <g
         style="fill:#000000;fill-opacity:1"
         id="g1247">
        <use
           xlink:href="#symbol5058"
           x="91.925003"
           y="81.962997"
           id="use6936"
           width="100%"
           height="100%" />
      </g>
    </g>
  </g>
  <g
     transform="matrix(2.4079461,0,0,2.4079461,-63.530406,-81.55102)"
     id="g1769"
     style="display:inline">
    <g
       id="g7637">
      <g
         style="fill:#000000;fill-opacity:1"
         id="g4576">
        <use
           xlink:href="#symbol4567"
           x="91.925003"
           y="81.962997"
           id="use5017"
           width="100%"
           height="100%" />
      </g>
    </g>
  </g>
  <path
     style="fill:none;stroke:#000000;stroke-width:1.29638;stop-color:#000000"
     id="path948-2"
     sodipodi:type="arc"
     sodipodi:cx="148.7"
     sodipodi:cy="158.10001"
     sodipodi:rx="35"
     sodipodi:ry="35"
     sodipodi:start="3.1415927"
     sodipodi:end="3.700098"
     sodipodi:arc-type="arc"
     d="m 113.7,158.10001 a 35,35 0 0 1 5.31831,-18.54718"
     sodipodi:open="true" />
  <path
     style="fill:none;stroke:#000000;stroke-width:1.29638;stop-color:#000000"
     id="path948-2-6"
     sodipodi:type="arc"
     sodipodi:cx="149.03"
     sodipodi:cy="157.50999"
     sodipodi:rx="35"
     sodipodi:ry="35"
     sodipodi:start="4.712389"
     sodipodi:end="5.2708943"
     sodipodi:arc-type="arc"
     d="m 149.03,122.50999 a 35,35 0 0 1 18.54717,5.31832"
     sodipodi:open="true" />
</svg>
