<?xml version="1.0" encoding="UTF-8" standalone="no"?>
<svg
   xmlns:dc="http://purl.org/dc/elements/1.1/"
   xmlns:cc="http://creativecommons.org/ns#"
   xmlns:rdf="http://www.w3.org/1999/02/22-rdf-syntax-ns#"
   xmlns:svg="http://www.w3.org/2000/svg"
   xmlns="http://www.w3.org/2000/svg"
   xmlns:xlink="http://www.w3.org/1999/xlink"
   xmlns:sodipodi="http://sodipodi.sourceforge.net/DTD/sodipodi-0.dtd"
   xmlns:inkscape="http://www.inkscape.org/namespaces/inkscape"
   id="Layer_1"
   data-name="Layer 1"
   viewBox="0 0 264.86 357.67"
   version="1.1"
   sodipodi:docname="Rotatearbitraryaxis.svg"
   inkscape:version="1.0.1 (3bc2e813f5, 2020-09-07)">
  <metadata
     id="metadata1049">
    <rdf:RDF>
      <cc:Work
         rdf:about="">
        <dc:format>image/svg+xml</dc:format>
        <dc:type
           rdf:resource="http://purl.org/dc/dcmitype/StillImage" />
      </cc:Work>
    </rdf:RDF>
  </metadata>
  <sodipodi:namedview
     pagecolor="#ffffff"
     bordercolor="#666666"
     borderopacity="1"
     objecttolerance="10"
     gridtolerance="10"
     guidetolerance="10"
     inkscape:pageopacity="0"
     inkscape:pageshadow="2"
     inkscape:window-width="1920"
     inkscape:window-height="1017"
     id="namedview1047"
     showgrid="false"
     inkscape:zoom="2.3736964"
     inkscape:cx="168.47317"
     inkscape:cy="216.67361"
     inkscape:window-x="1912"
     inkscape:window-y="-8"
     inkscape:window-maximized="1"
     inkscape:current-layer="Layer_1"
     inkscape:document-rotation="0" />
  <defs
     id="defs944">
    <style
       id="style942">.cls-1,.cls-2{fill:none;stroke:#000;stroke-miterlimit:10;}.cls-2{stroke-dasharray:4 4;}.cls-3{fill:#a6a6a6;}.cls-4{fill:#666;}</style>
    <g
       id="g6898">
      <symbol
         overflow="visible"
         id="symbol6387">
        <path
           style="stroke:none;"
           d=""
           id="path4037" />
      </symbol>
      <symbol
         overflow="visible"
         id="symbol885">
        <path
           style="stroke:none;"
           d="M 5.140625 -3.15625 C 5.1875 -3.40625 5.296875 -3.8125 5.296875 -3.890625 C 5.296875 -4.21875 5.03125 -4.34375 4.828125 -4.34375 C 4.640625 -4.34375 4.4375 -4.234375 4.3125 -4.09375 C 4.171875 -4.25 3.84375 -4.5 3.265625 -4.5 C 1.53125 -4.5 0.453125 -2.9375 0.453125 -1.5625 C 0.453125 -0.34375 1.359375 0.078125 2.1875 0.078125 C 2.90625 0.078125 3.421875 -0.3125 3.578125 -0.453125 C 3.953125 0.078125 4.609375 0.078125 4.71875 0.078125 C 5.09375 0.078125 5.390625 -0.125 5.59375 -0.484375 C 5.84375 -0.890625 5.96875 -1.421875 5.96875 -1.46875 C 5.96875 -1.609375 5.828125 -1.609375 5.734375 -1.609375 C 5.625 -1.609375 5.578125 -1.609375 5.53125 -1.5625 C 5.515625 -1.546875 5.515625 -1.53125 5.453125 -1.28125 C 5.25 -0.484375 5.03125 -0.28125 4.78125 -0.28125 C 4.671875 -0.28125 4.546875 -0.3125 4.546875 -0.640625 C 4.546875 -0.8125 4.578125 -0.984375 4.6875 -1.375 C 4.75 -1.65625 4.859375 -2.046875 4.90625 -2.265625 Z M 3.484375 -0.921875 C 3.1875 -0.59375 2.71875 -0.28125 2.25 -0.28125 C 1.625 -0.28125 1.578125 -0.8125 1.578125 -1.03125 C 1.578125 -1.5625 1.90625 -2.78125 2.078125 -3.171875 C 2.375 -3.890625 2.875 -4.140625 3.28125 -4.140625 C 3.875 -4.140625 4.109375 -3.671875 4.109375 -3.5625 L 4.09375 -3.421875 Z M 3.484375 -0.921875 "
           id="path7290" />
      </symbol>
    </g>
    <g
       id="g7117">
      <symbol
         overflow="visible"
         id="symbol3827">
        <path
           style="stroke:none;"
           d=""
           id="path7572" />
      </symbol>
      <symbol
         overflow="visible"
         id="symbol25">
        <path
           style="stroke:none;"
           d="M 5.390625 -3.609375 C 5.390625 -4.515625 4.71875 -4.515625 4.71875 -4.515625 C 4.3125 -4.515625 3.953125 -4.09375 3.953125 -3.765625 C 3.953125 -3.484375 4.171875 -3.359375 4.25 -3.3125 C 4.671875 -3.0625 4.75 -2.875 4.75 -2.6875 C 4.75 -2.46875 4.171875 -0.28125 3.015625 -0.28125 C 2.296875 -0.28125 2.296875 -0.875 2.296875 -1.0625 C 2.296875 -1.640625 2.578125 -2.359375 2.890625 -3.15625 C 2.96875 -3.359375 3 -3.453125 3 -3.609375 C 3 -4.1875 2.421875 -4.5 1.875 -4.5 C 0.8125 -4.5 0.3125 -3.15625 0.3125 -2.953125 C 0.3125 -2.8125 0.46875 -2.8125 0.5625 -2.8125 C 0.671875 -2.8125 0.75 -2.8125 0.78125 -2.9375 C 1.109375 -4.015625 1.640625 -4.140625 1.8125 -4.140625 C 1.890625 -4.140625 1.984375 -4.140625 1.984375 -3.9375 C 1.984375 -3.703125 1.859375 -3.421875 1.828125 -3.34375 C 1.375 -2.1875 1.21875 -1.734375 1.21875 -1.25 C 1.21875 -0.203125 2.078125 0.078125 2.953125 0.078125 C 4.671875 0.078125 5.390625 -2.75 5.390625 -3.609375 Z M 5.390625 -3.609375 "
           id="path7759" />
      </symbol>
    </g>
    <g
       id="g1074">
      <symbol
         overflow="visible"
         id="symbol539">
        <path
           style="stroke:none;"
           d=""
           id="path3525" />
      </symbol>
      <symbol
         overflow="visible"
         id="symbol4435">
        <path
           style="stroke:none;"
           d="M 5.390625 -3.609375 C 5.390625 -4.515625 4.71875 -4.515625 4.71875 -4.515625 C 4.3125 -4.515625 3.953125 -4.09375 3.953125 -3.765625 C 3.953125 -3.484375 4.171875 -3.359375 4.25 -3.3125 C 4.671875 -3.0625 4.75 -2.875 4.75 -2.6875 C 4.75 -2.46875 4.171875 -0.28125 3.015625 -0.28125 C 2.296875 -0.28125 2.296875 -0.875 2.296875 -1.0625 C 2.296875 -1.640625 2.578125 -2.359375 2.890625 -3.15625 C 2.96875 -3.359375 3 -3.453125 3 -3.609375 C 3 -4.1875 2.421875 -4.5 1.875 -4.5 C 0.8125 -4.5 0.3125 -3.15625 0.3125 -2.953125 C 0.3125 -2.8125 0.46875 -2.8125 0.5625 -2.8125 C 0.671875 -2.8125 0.75 -2.8125 0.78125 -2.9375 C 1.109375 -4.015625 1.640625 -4.140625 1.8125 -4.140625 C 1.890625 -4.140625 1.984375 -4.140625 1.984375 -3.9375 C 1.984375 -3.703125 1.859375 -3.421875 1.828125 -3.34375 C 1.375 -2.1875 1.21875 -1.734375 1.21875 -1.25 C 1.21875 -0.203125 2.078125 0.078125 2.953125 0.078125 C 4.671875 0.078125 5.390625 -2.75 5.390625 -3.609375 Z M 5.390625 -3.609375 "
           id="path5977" />
      </symbol>
      <symbol
         overflow="visible"
         id="symbol5530">
        <path
           style="stroke:none;"
           d=""
           id="path3601" />
      </symbol>
      <symbol
         overflow="visible"
         id="symbol559">
        <path
           style="stroke:none;"
           d="M 2.9375 -6.375 C 2.9375 -6.625 2.9375 -6.640625 2.703125 -6.640625 C 2.078125 -6 1.203125 -6 0.890625 -6 L 0.890625 -5.6875 C 1.09375 -5.6875 1.671875 -5.6875 2.1875 -5.953125 L 2.1875 -0.78125 C 2.1875 -0.421875 2.15625 -0.3125 1.265625 -0.3125 L 0.953125 -0.3125 L 0.953125 0 C 1.296875 -0.03125 2.15625 -0.03125 2.5625 -0.03125 C 2.953125 -0.03125 3.828125 -0.03125 4.171875 0 L 4.171875 -0.3125 L 3.859375 -0.3125 C 2.953125 -0.3125 2.9375 -0.421875 2.9375 -0.78125 Z M 2.9375 -6.375 "
           id="path8849" />
      </symbol>
    </g>
    <g
       id="g4811">
      <symbol
         overflow="visible"
         id="symbol2041">
        <path
           style="stroke:none;"
           d=""
           id="path7574" />
      </symbol>
      <symbol
         overflow="visible"
         id="symbol5349">
        <path
           style="stroke:none;"
           d="M 5.390625 -3.609375 C 5.390625 -4.515625 4.71875 -4.515625 4.71875 -4.515625 C 4.3125 -4.515625 3.953125 -4.09375 3.953125 -3.765625 C 3.953125 -3.484375 4.171875 -3.359375 4.25 -3.3125 C 4.671875 -3.0625 4.75 -2.875 4.75 -2.6875 C 4.75 -2.46875 4.171875 -0.28125 3.015625 -0.28125 C 2.296875 -0.28125 2.296875 -0.875 2.296875 -1.0625 C 2.296875 -1.640625 2.578125 -2.359375 2.890625 -3.15625 C 2.96875 -3.359375 3 -3.453125 3 -3.609375 C 3 -4.1875 2.421875 -4.5 1.875 -4.5 C 0.8125 -4.5 0.3125 -3.15625 0.3125 -2.953125 C 0.3125 -2.8125 0.46875 -2.8125 0.5625 -2.8125 C 0.671875 -2.8125 0.75 -2.8125 0.78125 -2.9375 C 1.109375 -4.015625 1.640625 -4.140625 1.8125 -4.140625 C 1.890625 -4.140625 1.984375 -4.140625 1.984375 -3.9375 C 1.984375 -3.703125 1.859375 -3.421875 1.828125 -3.34375 C 1.375 -2.1875 1.21875 -1.734375 1.21875 -1.25 C 1.21875 -0.203125 2.078125 0.078125 2.953125 0.078125 C 4.671875 0.078125 5.390625 -2.75 5.390625 -3.609375 Z M 5.390625 -3.609375 "
           id="path6488" />
      </symbol>
      <symbol
         overflow="visible"
         id="symbol7614">
        <path
           style="stroke:none;"
           d=""
           id="path6471" />
      </symbol>
      <symbol
         overflow="visible"
         id="symbol5582">
        <path
           style="stroke:none;"
           d="M 2.9375 -6.375 C 2.9375 -6.625 2.9375 -6.640625 2.703125 -6.640625 C 2.078125 -6 1.203125 -6 0.890625 -6 L 0.890625 -5.6875 C 1.09375 -5.6875 1.671875 -5.6875 2.1875 -5.953125 L 2.1875 -0.78125 C 2.1875 -0.421875 2.15625 -0.3125 1.265625 -0.3125 L 0.953125 -0.3125 L 0.953125 0 C 1.296875 -0.03125 2.15625 -0.03125 2.5625 -0.03125 C 2.953125 -0.03125 3.828125 -0.03125 4.171875 0 L 4.171875 -0.3125 L 3.859375 -0.3125 C 2.953125 -0.3125 2.9375 -0.421875 2.9375 -0.78125 Z M 2.9375 -6.375 "
           id="path9188" />
      </symbol>
      <symbol
         overflow="visible"
         id="symbol8506">
        <path
           style="stroke:none;"
           d=""
           id="path7609" />
      </symbol>
      <symbol
         overflow="visible"
         id="symbol4325">
        <path
           style="stroke:none;"
           d="M 2.015625 -3.296875 C 2.078125 -3.40625 2.078125 -3.46875 2.078125 -3.515625 C 2.078125 -3.734375 1.890625 -3.890625 1.671875 -3.890625 C 1.40625 -3.890625 1.328125 -3.671875 1.296875 -3.5625 L 0.375 -0.546875 C 0.359375 -0.53125 0.328125 -0.453125 0.328125 -0.4375 C 0.328125 -0.359375 0.546875 -0.28125 0.609375 -0.28125 C 0.65625 -0.28125 0.65625 -0.296875 0.703125 -0.40625 Z M 2.015625 -3.296875 "
           id="path6708" />
      </symbol>
    </g>
    <g
       id="g5271">
      <symbol
         overflow="visible"
         id="symbol8107">
        <path
           style="stroke:none;"
           d=""
           id="path9971" />
      </symbol>
      <symbol
         overflow="visible"
         id="symbol2164">
        <path
           style="stroke:none;"
           d="M 5.390625 -3.609375 C 5.390625 -4.515625 4.71875 -4.515625 4.71875 -4.515625 C 4.3125 -4.515625 3.953125 -4.09375 3.953125 -3.765625 C 3.953125 -3.484375 4.171875 -3.359375 4.25 -3.3125 C 4.671875 -3.0625 4.75 -2.875 4.75 -2.6875 C 4.75 -2.46875 4.171875 -0.28125 3.015625 -0.28125 C 2.296875 -0.28125 2.296875 -0.875 2.296875 -1.0625 C 2.296875 -1.640625 2.578125 -2.359375 2.890625 -3.15625 C 2.96875 -3.359375 3 -3.453125 3 -3.609375 C 3 -4.1875 2.421875 -4.5 1.875 -4.5 C 0.8125 -4.5 0.3125 -3.15625 0.3125 -2.953125 C 0.3125 -2.8125 0.46875 -2.8125 0.5625 -2.8125 C 0.671875 -2.8125 0.75 -2.8125 0.78125 -2.9375 C 1.109375 -4.015625 1.640625 -4.140625 1.8125 -4.140625 C 1.890625 -4.140625 1.984375 -4.140625 1.984375 -3.9375 C 1.984375 -3.703125 1.859375 -3.421875 1.828125 -3.34375 C 1.375 -2.1875 1.21875 -1.734375 1.21875 -1.25 C 1.21875 -0.203125 2.078125 0.078125 2.953125 0.078125 C 4.671875 0.078125 5.390625 -2.75 5.390625 -3.609375 Z M 5.390625 -3.609375 "
           id="path4674" />
      </symbol>
      <symbol
         overflow="visible"
         id="symbol6259">
        <path
           style="stroke:none;"
           d=""
           id="path5626" />
      </symbol>
      <symbol
         overflow="visible"
         id="symbol8000">
        <path
           style="stroke:none;"
           d="M 2.015625 -3.296875 C 2.078125 -3.40625 2.078125 -3.46875 2.078125 -3.515625 C 2.078125 -3.734375 1.890625 -3.890625 1.671875 -3.890625 C 1.40625 -3.890625 1.328125 -3.671875 1.296875 -3.5625 L 0.375 -0.546875 C 0.359375 -0.53125 0.328125 -0.453125 0.328125 -0.4375 C 0.328125 -0.359375 0.546875 -0.28125 0.609375 -0.28125 C 0.65625 -0.28125 0.65625 -0.296875 0.703125 -0.40625 Z M 2.015625 -3.296875 "
           id="path4205" />
      </symbol>
    </g>
    <g
       id="g8186">
      <symbol
         overflow="visible"
         id="symbol6974">
        <path
           style="stroke:none;"
           d=""
           id="path8684" />
      </symbol>
      <symbol
         overflow="visible"
         id="symbol7265">
        <path
           style="stroke:none;"
           d="M 5.390625 -3.609375 C 5.390625 -4.515625 4.71875 -4.515625 4.71875 -4.515625 C 4.3125 -4.515625 3.953125 -4.09375 3.953125 -3.765625 C 3.953125 -3.484375 4.171875 -3.359375 4.25 -3.3125 C 4.671875 -3.0625 4.75 -2.875 4.75 -2.6875 C 4.75 -2.46875 4.171875 -0.28125 3.015625 -0.28125 C 2.296875 -0.28125 2.296875 -0.875 2.296875 -1.0625 C 2.296875 -1.640625 2.578125 -2.359375 2.890625 -3.15625 C 2.96875 -3.359375 3 -3.453125 3 -3.609375 C 3 -4.1875 2.421875 -4.5 1.875 -4.5 C 0.8125 -4.5 0.3125 -3.15625 0.3125 -2.953125 C 0.3125 -2.8125 0.46875 -2.8125 0.5625 -2.8125 C 0.671875 -2.8125 0.75 -2.8125 0.78125 -2.9375 C 1.109375 -4.015625 1.640625 -4.140625 1.8125 -4.140625 C 1.890625 -4.140625 1.984375 -4.140625 1.984375 -3.9375 C 1.984375 -3.703125 1.859375 -3.421875 1.828125 -3.34375 C 1.375 -2.1875 1.21875 -1.734375 1.21875 -1.25 C 1.21875 -0.203125 2.078125 0.078125 2.953125 0.078125 C 4.671875 0.078125 5.390625 -2.75 5.390625 -3.609375 Z M 5.390625 -3.609375 "
           id="path7009" />
      </symbol>
      <symbol
         overflow="visible"
         id="symbol5468">
        <path
           style="stroke:none;"
           d=""
           id="path1264" />
      </symbol>
      <symbol
         overflow="visible"
         id="symbol9423">
        <path
           style="stroke:none;"
           d="M 1.265625 -0.765625 L 2.328125 -1.796875 C 3.875 -3.171875 4.46875 -3.703125 4.46875 -4.703125 C 4.46875 -5.84375 3.578125 -6.640625 2.359375 -6.640625 C 1.234375 -6.640625 0.5 -5.71875 0.5 -4.828125 C 0.5 -4.28125 1 -4.28125 1.03125 -4.28125 C 1.203125 -4.28125 1.546875 -4.390625 1.546875 -4.8125 C 1.546875 -5.0625 1.359375 -5.328125 1.015625 -5.328125 C 0.9375 -5.328125 0.921875 -5.328125 0.890625 -5.3125 C 1.109375 -5.96875 1.65625 -6.328125 2.234375 -6.328125 C 3.140625 -6.328125 3.5625 -5.515625 3.5625 -4.703125 C 3.5625 -3.90625 3.078125 -3.125 2.515625 -2.5 L 0.609375 -0.375 C 0.5 -0.265625 0.5 -0.234375 0.5 0 L 4.203125 0 L 4.46875 -1.734375 L 4.234375 -1.734375 C 4.171875 -1.4375 4.109375 -1 4 -0.84375 C 3.9375 -0.765625 3.28125 -0.765625 3.0625 -0.765625 Z M 1.265625 -0.765625 "
           id="path1787" />
      </symbol>
      <symbol
         overflow="visible"
         id="symbol5153">
        <path
           style="stroke:none;"
           d=""
           id="path154" />
      </symbol>
      <symbol
         overflow="visible"
         id="symbol6794">
        <path
           style="stroke:none;"
           d="M 2.015625 -3.296875 C 2.078125 -3.40625 2.078125 -3.46875 2.078125 -3.515625 C 2.078125 -3.734375 1.890625 -3.890625 1.671875 -3.890625 C 1.40625 -3.890625 1.328125 -3.671875 1.296875 -3.5625 L 0.375 -0.546875 C 0.359375 -0.53125 0.328125 -0.453125 0.328125 -0.4375 C 0.328125 -0.359375 0.546875 -0.28125 0.609375 -0.28125 C 0.65625 -0.28125 0.65625 -0.296875 0.703125 -0.40625 Z M 2.015625 -3.296875 "
           id="path3655" />
      </symbol>
    </g>
    <g
       id="g1401">
      <symbol
         overflow="visible"
         id="symbol2643">
        <path
           style="stroke:none;"
           d=""
           id="path7251" />
      </symbol>
      <symbol
         overflow="visible"
         id="symbol6196">
        <path
           style="stroke:none;"
           d="M 5.390625 -3.609375 C 5.390625 -4.515625 4.71875 -4.515625 4.71875 -4.515625 C 4.3125 -4.515625 3.953125 -4.09375 3.953125 -3.765625 C 3.953125 -3.484375 4.171875 -3.359375 4.25 -3.3125 C 4.671875 -3.0625 4.75 -2.875 4.75 -2.6875 C 4.75 -2.46875 4.171875 -0.28125 3.015625 -0.28125 C 2.296875 -0.28125 2.296875 -0.875 2.296875 -1.0625 C 2.296875 -1.640625 2.578125 -2.359375 2.890625 -3.15625 C 2.96875 -3.359375 3 -3.453125 3 -3.609375 C 3 -4.1875 2.421875 -4.5 1.875 -4.5 C 0.8125 -4.5 0.3125 -3.15625 0.3125 -2.953125 C 0.3125 -2.8125 0.46875 -2.8125 0.5625 -2.8125 C 0.671875 -2.8125 0.75 -2.8125 0.78125 -2.9375 C 1.109375 -4.015625 1.640625 -4.140625 1.8125 -4.140625 C 1.890625 -4.140625 1.984375 -4.140625 1.984375 -3.9375 C 1.984375 -3.703125 1.859375 -3.421875 1.828125 -3.34375 C 1.375 -2.1875 1.21875 -1.734375 1.21875 -1.25 C 1.21875 -0.203125 2.078125 0.078125 2.953125 0.078125 C 4.671875 0.078125 5.390625 -2.75 5.390625 -3.609375 Z M 5.390625 -3.609375 "
           id="path5446" />
      </symbol>
      <symbol
         overflow="visible"
         id="symbol9999">
        <path
           style="stroke:none;"
           d=""
           id="path9428" />
      </symbol>
      <symbol
         overflow="visible"
         id="symbol7244">
        <path
           style="stroke:none;"
           d="M 1.265625 -0.765625 L 2.328125 -1.796875 C 3.875 -3.171875 4.46875 -3.703125 4.46875 -4.703125 C 4.46875 -5.84375 3.578125 -6.640625 2.359375 -6.640625 C 1.234375 -6.640625 0.5 -5.71875 0.5 -4.828125 C 0.5 -4.28125 1 -4.28125 1.03125 -4.28125 C 1.203125 -4.28125 1.546875 -4.390625 1.546875 -4.8125 C 1.546875 -5.0625 1.359375 -5.328125 1.015625 -5.328125 C 0.9375 -5.328125 0.921875 -5.328125 0.890625 -5.3125 C 1.109375 -5.96875 1.65625 -6.328125 2.234375 -6.328125 C 3.140625 -6.328125 3.5625 -5.515625 3.5625 -4.703125 C 3.5625 -3.90625 3.078125 -3.125 2.515625 -2.5 L 0.609375 -0.375 C 0.5 -0.265625 0.5 -0.234375 0.5 0 L 4.203125 0 L 4.46875 -1.734375 L 4.234375 -1.734375 C 4.171875 -1.4375 4.109375 -1 4 -0.84375 C 3.9375 -0.765625 3.28125 -0.765625 3.0625 -0.765625 Z M 1.265625 -0.765625 "
           id="path5339" />
      </symbol>
    </g>
    <g
       id="g4914">
      <symbol
         overflow="visible"
         id="symbol4294">
        <path
           style="stroke:none;"
           d=""
           id="path9773" />
      </symbol>
      <symbol
         overflow="visible"
         id="symbol9488">
        <path
           style="stroke:none;"
           d="M 4.53125 -4.984375 C 4.53125 -5.640625 4.359375 -7.03125 3.34375 -7.03125 C 1.953125 -7.03125 0.421875 -4.21875 0.421875 -1.9375 C 0.421875 -1 0.703125 0.109375 1.609375 0.109375 C 3.015625 0.109375 4.53125 -2.75 4.53125 -4.984375 Z M 1.46875 -3.625 C 1.640625 -4.25 1.84375 -5.046875 2.25 -5.765625 C 2.515625 -6.25 2.875 -6.8125 3.328125 -6.8125 C 3.8125 -6.8125 3.875 -6.171875 3.875 -5.609375 C 3.875 -5.109375 3.796875 -4.609375 3.5625 -3.625 Z M 3.46875 -3.296875 C 3.359375 -2.84375 3.15625 -2 2.765625 -1.28125 C 2.421875 -0.59375 2.046875 -0.109375 1.609375 -0.109375 C 1.28125 -0.109375 1.078125 -0.40625 1.078125 -1.328125 C 1.078125 -1.75 1.140625 -2.328125 1.390625 -3.296875 Z M 3.46875 -3.296875 "
           id="path2289" />
      </symbol>
    </g>
    <g
       id="g5736">
      <symbol
         overflow="visible"
         id="symbol3566">
        <path
           style="stroke:none;"
           d=""
           id="path39" />
      </symbol>
      <symbol
         overflow="visible"
         id="symbol2697">
        <path
           style="stroke:none;"
           d="M 4.53125 -4.984375 C 4.53125 -5.640625 4.359375 -7.03125 3.34375 -7.03125 C 1.953125 -7.03125 0.421875 -4.21875 0.421875 -1.9375 C 0.421875 -1 0.703125 0.109375 1.609375 0.109375 C 3.015625 0.109375 4.53125 -2.75 4.53125 -4.984375 Z M 1.46875 -3.625 C 1.640625 -4.25 1.84375 -5.046875 2.25 -5.765625 C 2.515625 -6.25 2.875 -6.8125 3.328125 -6.8125 C 3.8125 -6.8125 3.875 -6.171875 3.875 -5.609375 C 3.875 -5.109375 3.796875 -4.609375 3.5625 -3.625 Z M 3.46875 -3.296875 C 3.359375 -2.84375 3.15625 -2 2.765625 -1.28125 C 2.421875 -0.59375 2.046875 -0.109375 1.609375 -0.109375 C 1.28125 -0.109375 1.078125 -0.40625 1.078125 -1.328125 C 1.078125 -1.75 1.140625 -2.328125 1.390625 -3.296875 Z M 3.46875 -3.296875 "
           id="path4804" />
      </symbol>
    </g>
    <g
       id="g5366">
      <symbol
         overflow="visible"
         id="symbol1826">
        <path
           style="stroke:none;"
           d=""
           id="path321" />
      </symbol>
      <symbol
         overflow="visible"
         id="symbol1134">
        <path
           style="stroke:none;"
           d="M 4.75 -2.359375 C 4.75 -3.921875 3.828125 -4.40625 3.09375 -4.40625 C 1.71875 -4.40625 0.40625 -2.984375 0.40625 -1.578125 C 0.40625 -0.640625 1 0.109375 2.03125 0.109375 C 2.65625 0.109375 3.375 -0.125 4.125 -0.734375 C 4.25 -0.203125 4.578125 0.109375 5.03125 0.109375 C 5.5625 0.109375 5.875 -0.4375 5.875 -0.59375 C 5.875 -0.671875 5.8125 -0.703125 5.75 -0.703125 C 5.6875 -0.703125 5.65625 -0.671875 5.625 -0.59375 C 5.4375 -0.109375 5.078125 -0.109375 5.0625 -0.109375 C 4.75 -0.109375 4.75 -0.890625 4.75 -1.125 C 4.75 -1.328125 4.75 -1.359375 4.859375 -1.46875 C 5.796875 -2.65625 6 -3.8125 6 -3.8125 C 6 -3.84375 5.984375 -3.921875 5.875 -3.921875 C 5.78125 -3.921875 5.78125 -3.890625 5.734375 -3.703125 C 5.546875 -3.078125 5.21875 -2.328125 4.75 -1.734375 Z M 4.09375 -0.984375 C 3.203125 -0.21875 2.4375 -0.109375 2.046875 -0.109375 C 1.453125 -0.109375 1.140625 -0.5625 1.140625 -1.203125 C 1.140625 -1.6875 1.40625 -2.765625 1.71875 -3.265625 C 2.1875 -4 2.734375 -4.1875 3.078125 -4.1875 C 4.0625 -4.1875 4.0625 -2.875 4.0625 -2.109375 C 4.0625 -1.734375 4.0625 -1.15625 4.09375 -0.984375 Z M 4.09375 -0.984375 "
           id="path5093" />
      </symbol>
    </g>
    <g
       id="g8280">
      <symbol
         overflow="visible"
         id="symbol2124">
        <path
           style="stroke:none;"
           d=""
           id="path4579" />
      </symbol>
      <symbol
         overflow="visible"
         id="symbol695">
        <path
           style="stroke:none;"
           d="M 5.390625 -3.609375 C 5.390625 -4.515625 4.71875 -4.515625 4.71875 -4.515625 C 4.3125 -4.515625 3.953125 -4.09375 3.953125 -3.765625 C 3.953125 -3.484375 4.171875 -3.359375 4.25 -3.3125 C 4.671875 -3.0625 4.75 -2.875 4.75 -2.6875 C 4.75 -2.46875 4.171875 -0.28125 3.015625 -0.28125 C 2.296875 -0.28125 2.296875 -0.875 2.296875 -1.0625 C 2.296875 -1.640625 2.578125 -2.359375 2.890625 -3.15625 C 2.96875 -3.359375 3 -3.453125 3 -3.609375 C 3 -4.1875 2.421875 -4.5 1.875 -4.5 C 0.8125 -4.5 0.3125 -3.15625 0.3125 -2.953125 C 0.3125 -2.8125 0.46875 -2.8125 0.5625 -2.8125 C 0.671875 -2.8125 0.75 -2.8125 0.78125 -2.9375 C 1.109375 -4.015625 1.640625 -4.140625 1.8125 -4.140625 C 1.890625 -4.140625 1.984375 -4.140625 1.984375 -3.9375 C 1.984375 -3.703125 1.859375 -3.421875 1.828125 -3.34375 C 1.375 -2.1875 1.21875 -1.734375 1.21875 -1.25 C 1.21875 -0.203125 2.078125 0.078125 2.953125 0.078125 C 4.671875 0.078125 5.390625 -2.75 5.390625 -3.609375 Z M 5.390625 -3.609375 "
           id="path3124" />
      </symbol>
      <symbol
         overflow="visible"
         id="symbol1643">
        <path
           style="stroke:none;"
           d=""
           id="path3230" />
      </symbol>
      <symbol
         overflow="visible"
         id="symbol9329">
        <path
           style="stroke:none;"
           d="M 2.328125 -4.4375 C 2.328125 -4.625 2.328125 -4.625 2.125 -4.625 C 1.671875 -4.1875 1.046875 -4.1875 0.765625 -4.1875 L 0.765625 -3.9375 C 0.921875 -3.9375 1.390625 -3.9375 1.765625 -4.125 L 1.765625 -0.578125 C 1.765625 -0.34375 1.765625 -0.25 1.078125 -0.25 L 0.8125 -0.25 L 0.8125 0 C 0.9375 0 1.796875 -0.03125 2.046875 -0.03125 C 2.265625 -0.03125 3.140625 0 3.296875 0 L 3.296875 -0.25 L 3.03125 -0.25 C 2.328125 -0.25 2.328125 -0.34375 2.328125 -0.578125 Z M 2.328125 -4.4375 "
           id="path1045" />
      </symbol>
    </g>
    <g
       id="g1794">
      <symbol
         overflow="visible"
         id="symbol7831">
        <path
           style="stroke:none;"
           d=""
           id="path4904" />
      </symbol>
      <symbol
         overflow="visible"
         id="symbol9885">
        <path
           style="stroke:none;"
           d="M 5.390625 -3.609375 C 5.390625 -4.515625 4.71875 -4.515625 4.71875 -4.515625 C 4.3125 -4.515625 3.953125 -4.09375 3.953125 -3.765625 C 3.953125 -3.484375 4.171875 -3.359375 4.25 -3.3125 C 4.671875 -3.0625 4.75 -2.875 4.75 -2.6875 C 4.75 -2.46875 4.171875 -0.28125 3.015625 -0.28125 C 2.296875 -0.28125 2.296875 -0.875 2.296875 -1.0625 C 2.296875 -1.640625 2.578125 -2.359375 2.890625 -3.15625 C 2.96875 -3.359375 3 -3.453125 3 -3.609375 C 3 -4.1875 2.421875 -4.5 1.875 -4.5 C 0.8125 -4.5 0.3125 -3.15625 0.3125 -2.953125 C 0.3125 -2.8125 0.46875 -2.8125 0.5625 -2.8125 C 0.671875 -2.8125 0.75 -2.8125 0.78125 -2.9375 C 1.109375 -4.015625 1.640625 -4.140625 1.8125 -4.140625 C 1.890625 -4.140625 1.984375 -4.140625 1.984375 -3.9375 C 1.984375 -3.703125 1.859375 -3.421875 1.828125 -3.34375 C 1.375 -2.1875 1.21875 -1.734375 1.21875 -1.25 C 1.21875 -0.203125 2.078125 0.078125 2.953125 0.078125 C 4.671875 0.078125 5.390625 -2.75 5.390625 -3.609375 Z M 5.390625 -3.609375 "
           id="path6356" />
      </symbol>
      <symbol
         overflow="visible"
         id="symbol1920">
        <path
           style="stroke:none;"
           d=""
           id="path3105" />
      </symbol>
      <symbol
         overflow="visible"
         id="symbol7103">
        <path
           style="stroke:none;"
           d="M 3.515625 -1.265625 L 3.28125 -1.265625 C 3.265625 -1.109375 3.1875 -0.703125 3.09375 -0.640625 C 3.046875 -0.59375 2.515625 -0.59375 2.40625 -0.59375 L 1.125 -0.59375 C 1.859375 -1.234375 2.109375 -1.4375 2.515625 -1.765625 C 3.03125 -2.171875 3.515625 -2.609375 3.515625 -3.265625 C 3.515625 -4.109375 2.78125 -4.625 1.890625 -4.625 C 1.03125 -4.625 0.4375 -4.015625 0.4375 -3.375 C 0.4375 -3.03125 0.734375 -2.984375 0.8125 -2.984375 C 0.96875 -2.984375 1.171875 -3.109375 1.171875 -3.359375 C 1.171875 -3.484375 1.125 -3.734375 0.765625 -3.734375 C 0.984375 -4.21875 1.453125 -4.375 1.78125 -4.375 C 2.484375 -4.375 2.84375 -3.828125 2.84375 -3.265625 C 2.84375 -2.65625 2.40625 -2.1875 2.1875 -1.9375 L 0.515625 -0.265625 C 0.4375 -0.203125 0.4375 -0.1875 0.4375 0 L 3.3125 0 Z M 3.515625 -1.265625 "
           id="path8511" />
      </symbol>
    </g>
    <g
       id="g9635">
      <symbol
         overflow="visible"
         id="symbol3585">
        <path
           style="stroke:none;"
           d=""
           id="path8343" />
      </symbol>
      <symbol
         overflow="visible"
         id="symbol4944">
        <path
           style="stroke:none;"
           d="M 5.390625 -3.609375 C 5.390625 -4.515625 4.71875 -4.515625 4.71875 -4.515625 C 4.3125 -4.515625 3.953125 -4.09375 3.953125 -3.765625 C 3.953125 -3.484375 4.171875 -3.359375 4.25 -3.3125 C 4.671875 -3.0625 4.75 -2.875 4.75 -2.6875 C 4.75 -2.46875 4.171875 -0.28125 3.015625 -0.28125 C 2.296875 -0.28125 2.296875 -0.875 2.296875 -1.0625 C 2.296875 -1.640625 2.578125 -2.359375 2.890625 -3.15625 C 2.96875 -3.359375 3 -3.453125 3 -3.609375 C 3 -4.1875 2.421875 -4.5 1.875 -4.5 C 0.8125 -4.5 0.3125 -3.15625 0.3125 -2.953125 C 0.3125 -2.8125 0.46875 -2.8125 0.5625 -2.8125 C 0.671875 -2.8125 0.75 -2.8125 0.78125 -2.9375 C 1.109375 -4.015625 1.640625 -4.140625 1.8125 -4.140625 C 1.890625 -4.140625 1.984375 -4.140625 1.984375 -3.9375 C 1.984375 -3.703125 1.859375 -3.421875 1.828125 -3.34375 C 1.375 -2.1875 1.21875 -1.734375 1.21875 -1.25 C 1.21875 -0.203125 2.078125 0.078125 2.953125 0.078125 C 4.671875 0.078125 5.390625 -2.75 5.390625 -3.609375 Z M 5.390625 -3.609375 "
           id="path1996" />
      </symbol>
      <symbol
         overflow="visible"
         id="symbol6542">
        <path
           style="stroke:none;"
           d=""
           id="path6423" />
      </symbol>
      <symbol
         overflow="visible"
         id="symbol3412">
        <path
           style="stroke:none;"
           d="M 2.015625 -3.296875 C 2.078125 -3.40625 2.078125 -3.46875 2.078125 -3.515625 C 2.078125 -3.734375 1.890625 -3.890625 1.671875 -3.890625 C 1.40625 -3.890625 1.328125 -3.671875 1.296875 -3.5625 L 0.375 -0.546875 C 0.359375 -0.53125 0.328125 -0.453125 0.328125 -0.4375 C 0.328125 -0.359375 0.546875 -0.28125 0.609375 -0.28125 C 0.65625 -0.28125 0.65625 -0.296875 0.703125 -0.40625 Z M 2.015625 -3.296875 "
           id="path6946" />
      </symbol>
      <symbol
         overflow="visible"
         id="symbol9630">
        <path
           style="stroke:none;"
           d=""
           id="path3081" />
      </symbol>
      <symbol
         overflow="visible"
         id="symbol4027">
        <path
           style="stroke:none;"
           d="M 3.515625 -1.265625 L 3.28125 -1.265625 C 3.265625 -1.109375 3.1875 -0.703125 3.09375 -0.640625 C 3.046875 -0.59375 2.515625 -0.59375 2.40625 -0.59375 L 1.125 -0.59375 C 1.859375 -1.234375 2.109375 -1.4375 2.515625 -1.765625 C 3.03125 -2.171875 3.515625 -2.609375 3.515625 -3.265625 C 3.515625 -4.109375 2.78125 -4.625 1.890625 -4.625 C 1.03125 -4.625 0.4375 -4.015625 0.4375 -3.375 C 0.4375 -3.03125 0.734375 -2.984375 0.8125 -2.984375 C 0.96875 -2.984375 1.171875 -3.109375 1.171875 -3.359375 C 1.171875 -3.484375 1.125 -3.734375 0.765625 -3.734375 C 0.984375 -4.21875 1.453125 -4.375 1.78125 -4.375 C 2.484375 -4.375 2.84375 -3.828125 2.84375 -3.265625 C 2.84375 -2.65625 2.40625 -2.1875 2.1875 -1.9375 L 0.515625 -0.265625 C 0.4375 -0.203125 0.4375 -0.1875 0.4375 0 L 3.3125 0 Z M 3.515625 -1.265625 "
           id="path1801" />
      </symbol>
    </g>
    <g
       id="g3809">
      <symbol
         overflow="visible"
         id="symbol7635">
        <path
           style="stroke:none;"
           d=""
           id="path2803" />
      </symbol>
      <symbol
         overflow="visible"
         id="symbol1147">
        <path
           style="stroke:none;"
           d="M 5.390625 -3.609375 C 5.390625 -4.515625 4.71875 -4.515625 4.71875 -4.515625 C 4.3125 -4.515625 3.953125 -4.09375 3.953125 -3.765625 C 3.953125 -3.484375 4.171875 -3.359375 4.25 -3.3125 C 4.671875 -3.0625 4.75 -2.875 4.75 -2.6875 C 4.75 -2.46875 4.171875 -0.28125 3.015625 -0.28125 C 2.296875 -0.28125 2.296875 -0.875 2.296875 -1.0625 C 2.296875 -1.640625 2.578125 -2.359375 2.890625 -3.15625 C 2.96875 -3.359375 3 -3.453125 3 -3.609375 C 3 -4.1875 2.421875 -4.5 1.875 -4.5 C 0.8125 -4.5 0.3125 -3.15625 0.3125 -2.953125 C 0.3125 -2.8125 0.46875 -2.8125 0.5625 -2.8125 C 0.671875 -2.8125 0.75 -2.8125 0.78125 -2.9375 C 1.109375 -4.015625 1.640625 -4.140625 1.8125 -4.140625 C 1.890625 -4.140625 1.984375 -4.140625 1.984375 -3.9375 C 1.984375 -3.703125 1.859375 -3.421875 1.828125 -3.34375 C 1.375 -2.1875 1.21875 -1.734375 1.21875 -1.25 C 1.21875 -0.203125 2.078125 0.078125 2.953125 0.078125 C 4.671875 0.078125 5.390625 -2.75 5.390625 -3.609375 Z M 5.390625 -3.609375 "
           id="path2704" />
      </symbol>
      <symbol
         overflow="visible"
         id="symbol9390">
        <path
           style="stroke:none;"
           d=""
           id="path1403" />
      </symbol>
      <symbol
         overflow="visible"
         id="symbol9303">
        <path
           style="stroke:none;"
           d="M 2.015625 -3.296875 C 2.078125 -3.40625 2.078125 -3.46875 2.078125 -3.515625 C 2.078125 -3.734375 1.890625 -3.890625 1.671875 -3.890625 C 1.40625 -3.890625 1.328125 -3.671875 1.296875 -3.5625 L 0.375 -0.546875 C 0.359375 -0.53125 0.328125 -0.453125 0.328125 -0.4375 C 0.328125 -0.359375 0.546875 -0.28125 0.609375 -0.28125 C 0.65625 -0.28125 0.65625 -0.296875 0.703125 -0.40625 Z M 2.015625 -3.296875 "
           id="path5362" />
      </symbol>
      <symbol
         overflow="visible"
         id="symbol4277">
        <path
           style="stroke:none;"
           d=""
           id="path9889" />
      </symbol>
      <symbol
         overflow="visible"
         id="symbol3236">
        <path
           style="stroke:none;"
           d="M 2.328125 -4.4375 C 2.328125 -4.625 2.328125 -4.625 2.125 -4.625 C 1.671875 -4.1875 1.046875 -4.1875 0.765625 -4.1875 L 0.765625 -3.9375 C 0.921875 -3.9375 1.390625 -3.9375 1.765625 -4.125 L 1.765625 -0.578125 C 1.765625 -0.34375 1.765625 -0.25 1.078125 -0.25 L 0.8125 -0.25 L 0.8125 0 C 0.9375 0 1.796875 -0.03125 2.046875 -0.03125 C 2.265625 -0.03125 3.140625 0 3.296875 0 L 3.296875 -0.25 L 3.03125 -0.25 C 2.328125 -0.25 2.328125 -0.34375 2.328125 -0.578125 Z M 2.328125 -4.4375 "
           id="path5559" />
      </symbol>
    </g>
  </defs>
  <title
     id="title946">Rotate arbitrary axis</title>
  <ellipse
     class="cls-1"
     cx="132.43"
     cy="176.59"
     rx="131.89"
     ry="45.85"
     id="ellipse948" />
  <line
     class="cls-2"
     x1="132.03"
     y1="176.67"
     x2="93.79"
     y2="139.29"
     id="line950" />
  <polygon
     points="101.15 138.79 94.25 139.75 93.45 146.66 87.99 133.63 101.15 138.79"
     id="polygon952" />
  <polygon
     class="cls-3"
     points="99.19 138.56 88.93 134.55 93.8 139.31 99.19 138.56"
     id="polygon954" />
  <polygon
     class="cls-4"
     points="93.18 144.71 88.93 134.55 93.8 139.31 93.18 144.71"
     id="polygon956" />
  <line
     class="cls-2"
     x1="131.58"
     y1="176.6"
     x2="247.84"
     y2="162.22"
     id="line958" />
  <polygon
     points="243.65 168.29 247.2 162.3 242.29 157.36 255.89 161.23 243.65 168.29"
     id="polygon960" />
  <polygon
     class="cls-3"
     points="245.04 166.9 254.58 161.39 247.82 162.23 245.04 166.9"
     id="polygon962" />
  <polygon
     class="cls-4"
     points="243.99 158.37 254.58 161.39 247.82 162.23 243.99 158.37"
     id="polygon964" />
  <line
     class="cls-1"
     x1="132.32"
     y1="176.52"
     x2="37.73"
     y2="150.07"
     id="line966" />
  <polygon
     points="43.94 146.09 38.35 150.25 40.98 156.69 29.92 147.89 43.94 146.09"
     id="polygon968" />
  <polygon
     class="cls-3"
     points="42.12 146.83 31.19 148.24 37.75 150.08 42.12 146.83"
     id="polygon970" />
  <polygon
     class="cls-4"
     points="39.8 155.11 31.19 148.24 37.75 150.08 39.8 155.11"
     id="polygon972" />
  <line
     class="cls-1"
     x1="131.83"
     y1="176.54"
     x2="207.08"
     y2="144.02"
     id="line974" />
  <polygon
     points="204.76 151.02 206.49 144.28 200.39 140.91 214.52 140.8 204.76 151.02"
     id="polygon976" />
  <polygon
     class="cls-3"
     points="205.71 149.29 213.32 141.32 207.07 144.03 205.71 149.29"
     id="polygon978" />
  <polygon
     class="cls-4"
     points="202.3 141.4 213.32 141.32 207.07 144.03 202.3 141.4"
     id="polygon980" />
  <path
     class="cls-1"
     d="M155.29,166.41c5.25,1.46,9.44,3.43,11.85,5.79"
     id="path982" />
  <path
     class="cls-1"
     d="M103,168.32a62,62,0,0,1,16.4-4"
     id="path984" />
  <line
     class="cls-1"
     x1="135.06"
     y1="357.66"
     x2="128.41"
     y2="31.8"
     id="line986" />
  <polygon
     points="134.01 36.6 128.43 32.45 123.01 36.82 128.25 23.7 134.01 36.6"
     id="polygon988" />
  <polygon
     class="cls-3"
     points="132.78 35.07 128.27 25.01 128.41 31.82 132.78 35.07"
     id="polygon990" />
  <polygon
     class="cls-4"
     points="124.18 35.24 128.27 25.01 128.41 31.82 124.18 35.24"
     id="polygon992" />
  <line
     class="cls-1"
     x1="135.02"
     y1="357.27"
     x2="251.17"
     y2="168.75"
     id="line1016" />
  <polygon
     points="253.28 175.82 250.83 169.3 243.91 170.04 255.42 161.85 253.28 175.82"
     id="polygon1018" />
  <polygon
     class="cls-3"
     points="253.07 173.86 254.73 162.97 251.16 168.77 253.07 173.86"
     id="polygon1020" />
  <polygon
     class="cls-4"
     points="245.75 169.35 254.73 162.97 251.16 168.77 245.75 169.35"
     id="polygon1022" />
  <line
     class="cls-1"
     x1="210.95"
     y1="148.3"
     x2="135.08"
     y2="356.1"
     id="line1030" />
  <polygon
     points="204.09 151.03 210.72 148.91 214.43 154.8 213.73 140.69 204.09 151.03"
     id="polygon1032" />
  <polygon
     class="cls-3"
     points="205.76 149.97 213.28 141.92 210.94 148.32 205.76 149.97"
     id="polygon1034" />
  <polygon
     class="cls-4"
     points="213.83 152.92 213.28 141.92 210.94 148.32 213.83 152.92"
     id="polygon1036" />
  <path
     class="cls-1"
     d="M134,316.36h.74a40.58,40.58,0,0,1,21.47,6.1"
     id="path1042" />
  <g
     inkscape:label=""
     transform="matrix(2,0,0,2,-61.128594,-143.65543)"
     id="g1113">
    <g
       id="g3897">
      <g
         style="fill:#000000;fill-opacity:1"
         id="g3116">
        <use
           xlink:href="#symbol885"
           x="91.925003"
           y="81.962997"
           id="use9199"
           width="100%"
           height="100%" />
      </g>
    </g>
  </g>
  <g
     inkscape:label=""
     transform="matrix(2,0,0,2,29.728672,78.8704)"
     id="g1196">
    <g
       id="g3325">
      <g
         style="fill:#000000;fill-opacity:1"
         id="g3379">
        <use
           xlink:href="#symbol25"
           x="91.925003"
           y="81.962997"
           id="use6038"
           width="100%"
           height="100%" />
      </g>
    </g>
  </g>
  <g
     inkscape:label=""
     transform="matrix(2,0,0,2,-27.16883,94.658713)"
     id="g1565">
    <g
       id="g545">
      <g
         style="fill:#000000;fill-opacity:1"
         id="g357">
        <use
           xlink:href="#symbol2164"
           x="91.925003"
           y="81.962997"
           id="use3196"
           width="100%"
           height="100%" />
      </g>
      <g
         style="fill:#000000;fill-opacity:1"
         id="g7367">
        <use
           xlink:href="#symbol8000"
           x="97.940002"
           y="77.848999"
           id="use315"
           width="100%"
           height="100%" />
      </g>
    </g>
  </g>
  <g
     inkscape:label=""
     transform="matrix(2,0,0,2,-2.7416306,4.3972279)"
     id="g2093">
    <g
       id="g6477">
      <g
         style="fill:#000000;fill-opacity:1"
         id="g5089">
        <use
           xlink:href="#symbol9488"
           x="91.925003"
           y="81.962997"
           id="use4007"
           width="100%"
           height="100%" />
      </g>
    </g>
  </g>
  <g
     inkscape:label=""
     transform="matrix(2,0,0,2,-88.534721,1.4183029)"
     id="g2281">
    <g
       id="g7944">
      <g
         style="fill:#000000;fill-opacity:1"
         id="g8698">
        <use
           xlink:href="#symbol2697"
           x="91.925003"
           y="81.962997"
           id="use8269"
           width="100%"
           height="100%" />
      </g>
    </g>
  </g>
  <g
     inkscape:label=""
     transform="matrix(2,0,0,2,-47.127639,144.40678)"
     id="g2478">
    <g
       id="g1176">
      <g
         style="fill:#000000;fill-opacity:1"
         id="g8687">
        <use
           xlink:href="#symbol1134"
           x="91.925003"
           y="81.962997"
           id="use927"
           width="100%"
           height="100%" />
      </g>
    </g>
  </g>
  <g
     inkscape:label=""
     transform="matrix(2,0,0,2,-23.10879,-11.836778)"
     id="g2662">
    <g
       id="g6622">
      <g
         style="fill:#000000;fill-opacity:1"
         id="g922">
        <use
           xlink:href="#symbol695"
           x="91.925003"
           y="81.962997"
           id="use7976"
           width="100%"
           height="100%" />
      </g>
      <g
         style="fill:#000000;fill-opacity:1"
         id="g7937">
        <use
           xlink:href="#symbol9329"
           x="97.570999"
           y="83.457001"
           id="use3263"
           width="100%"
           height="100%" />
      </g>
    </g>
  </g>
  <g
     inkscape:label=""
     transform="matrix(2,0,0,2,-145.41616,5.9465684)"
     id="g2867">
    <g
       id="g3031">
      <g
         style="fill:#000000;fill-opacity:1"
         id="g8221">
        <use
           xlink:href="#symbol9885"
           x="91.925003"
           y="81.962997"
           id="use3143"
           width="100%"
           height="100%" />
      </g>
      <g
         style="fill:#000000;fill-opacity:1"
         id="g6719">
        <use
           xlink:href="#symbol7103"
           x="97.570999"
           y="83.457001"
           id="use4862"
           width="100%"
           height="100%" />
      </g>
    </g>
  </g>
  <g
     inkscape:label=""
     transform="matrix(2,0,0,2,-77.794524,-12.224888)"
     id="g3093">
    <g
       id="g5349">
      <g
         style="fill:#000000;fill-opacity:1"
         id="g5210">
        <use
           xlink:href="#symbol4944"
           x="91.925003"
           y="81.962997"
           id="use8231"
           width="100%"
           height="100%" />
      </g>
      <g
         style="fill:#000000;fill-opacity:1"
         id="g1646">
        <use
           xlink:href="#symbol3412"
           x="97.940002"
           y="77.848999"
           id="use7014"
           width="100%"
           height="100%" />
      </g>
      <g
         style="fill:#000000;fill-opacity:1"
         id="g6215">
        <use
           xlink:href="#symbol4027"
           x="97.570999"
           y="84.426003"
           id="use7743"
           width="100%"
           height="100%" />
      </g>
    </g>
  </g>
  <g
     inkscape:label=""
     transform="matrix(2,0,0,2,-28.344339,26.799053)"
     id="g3346">
    <g
       id="g9305">
      <g
         style="fill:#000000;fill-opacity:1"
         id="g5711">
        <use
           xlink:href="#symbol1147"
           x="91.925003"
           y="81.962997"
           id="use7449"
           width="100%"
           height="100%" />
      </g>
      <g
         style="fill:#000000;fill-opacity:1"
         id="g8063">
        <use
           xlink:href="#symbol9303"
           x="97.940002"
           y="77.848999"
           id="use6785"
           width="100%"
           height="100%" />
      </g>
      <g
         style="fill:#000000;fill-opacity:1"
         id="g7481">
        <use
           xlink:href="#symbol3236"
           x="97.570999"
           y="84.426003"
           id="use2869"
           width="100%"
           height="100%" />
      </g>
    </g>
  </g>
</svg>
