<svg id="Layer_1" data-name="Layer 1" xmlns="http://www.w3.org/2000/svg" viewBox="0 0 173.8 146.09"><defs><style>.cls-1,.cls-2{fill:none;stroke:#000;stroke-miterlimit:10;}.cls-1{stroke-dasharray:4;}.cls-3{fill:#a6a6a6;}.cls-4{fill:#666;}</style></defs><title>Viewing transform</title><line class="cls-1" x1="6.61" y1="105.89" x2="168.61" y2="13.61"/><line class="cls-2" x1="5.5" y1="8.1" x2="5.5" y2="106.78"/><polygon points="0 13.01 5.5 8.75 11.01 13.01 5.5 0 0 13.01"/><polygon class="cls-3" points="1.2 11.46 5.5 1.31 5.5 8.12 1.2 11.46"/><polygon class="cls-4" points="9.8 11.46 5.5 1.31 5.5 8.12 9.8 11.46"/><line class="cls-2" x1="92.99" y1="56.71" x2="5.42" y2="106.57"/><polygon points="86 54.35 92.42 57.03 91.45 63.92 100.03 52.7 86 54.35"/><polygon class="cls-3" points="87.95 54.63 98.89 53.35 92.97 56.72 87.95 54.63"/><polygon class="cls-4" points="92.2 62.1 98.89 53.35 92.97 56.72 92.2 62.1"/><line class="cls-2" x1="106.23" y1="142.56" x2="5.5" y2="106.54"/><polygon points="103.46 135.73 105.61 142.34 99.75 146.09 113.86 145.29 103.46 135.73"/><polygon class="cls-3" points="104.52 137.38 112.62 144.85 106.21 142.56 104.52 137.38"/><polygon class="cls-4" points="101.62 145.48 112.62 144.85 106.21 142.56 101.62 145.48"/><circle cx="167.58" cy="14.71" r="6.22"/></svg>