<?xml version="1.0" encoding="UTF-8" standalone="no"?>
<svg
   xmlns:dc="http://purl.org/dc/elements/1.1/"
   xmlns:cc="http://creativecommons.org/ns#"
   xmlns:rdf="http://www.w3.org/1999/02/22-rdf-syntax-ns#"
   xmlns:svg="http://www.w3.org/2000/svg"
   xmlns="http://www.w3.org/2000/svg"
   xmlns:sodipodi="http://sodipodi.sourceforge.net/DTD/sodipodi-0.dtd"
   xmlns:inkscape="http://www.inkscape.org/namespaces/inkscape"
   width="352.38281pt"
   height="65.149155pt"
   viewBox="0 0 352.38281 65.149155"
   version="1.1"
   id="svg859"
   sodipodi:docname="curve-approx-linear.svg"
   inkscape:version="1.0.1 (3bc2e813f5, 2020-09-07)">
  <metadata
     id="metadata865">
    <rdf:RDF>
      <cc:Work
         rdf:about="">
        <dc:format>image/svg+xml</dc:format>
        <dc:type
           rdf:resource="http://purl.org/dc/dcmitype/StillImage" />
        <dc:title></dc:title>
      </cc:Work>
    </rdf:RDF>
  </metadata>
  <defs
     id="defs863" />
  <sodipodi:namedview
     pagecolor="#ffffff"
     bordercolor="#666666"
     borderopacity="1"
     objecttolerance="10"
     gridtolerance="10"
     guidetolerance="10"
     inkscape:pageopacity="0"
     inkscape:pageshadow="2"
     inkscape:window-width="1920"
     inkscape:window-height="1017"
     id="namedview861"
     showgrid="false"
     fit-margin-top="1"
     lock-margins="true"
     fit-margin-left="1"
     fit-margin-right="1"
     fit-margin-bottom="1"
     inkscape:zoom="1.49375"
     inkscape:cx="235.58854"
     inkscape:cy="14.61033"
     inkscape:window-x="1912"
     inkscape:window-y="-8"
     inkscape:window-maximized="1"
     inkscape:current-layer="svg859" />
  <g
     id="surface68"
     transform="translate(-3.308594,-47.542252)">
    <path
       style="fill:none;stroke:#000000;stroke-width:1;stroke-linecap:square;stroke-linejoin:miter;stroke-miterlimit:3.25;stroke-opacity:1"
       d="M 81.179688,122.00781 C 183.29687,19.894531 310.94141,70.949219 425.82031,109.24219"
       transform="translate(-74,-13)"
       id="path850" />
    <path
       style="fill:#000000;fill-opacity:1;fill-rule:evenodd;stroke:none"
       d="m 9.691406,109 c 0,-0.71484 -0.28125,-1.39844 -0.789062,-1.90234 C 8.398438,106.58984 7.714844,106.30859 7,106.30859 c -0.714844,0 -1.398438,0.28125 -1.902344,0.78907 -0.507812,0.5039 -0.789062,1.1875 -0.789062,1.90234 0,0.71484 0.28125,1.39844 0.789062,1.90234 0.503906,0.50782 1.1875,0.78907 1.902344,0.78907 0.714844,0 1.398438,-0.28125 1.902344,-0.78907 0.507812,-0.5039 0.789062,-1.1875 0.789062,-1.90234 z m 0,0"
       id="path852" />
    <path
       style="fill:#000000;fill-opacity:1;fill-rule:evenodd;stroke:none"
       d="m 354.69141,96 c 0,-0.714844 -0.28125,-1.398438 -0.78907,-1.902344 -0.5039,-0.507812 -1.1875,-0.789062 -1.90234,-0.789062 -0.71484,0 -1.39844,0.28125 -1.90234,0.789062 -0.50782,0.503906 -0.78907,1.1875 -0.78907,1.902344 0,0.714844 0.28125,1.398438 0.78907,1.902344 0.5039,0.507812 1.1875,0.789062 1.90234,0.789062 0.71484,0 1.39844,-0.28125 1.90234,-0.789062 0.50782,-0.503906 0.78907,-1.1875 0.78907,-1.902344 z m 0,0"
       id="path854" />
    <path
       style="fill:none;stroke:#000000;stroke-width:1;stroke-linecap:square;stroke-linejoin:miter;stroke-miterlimit:3.25;stroke-dasharray:4, 4;stroke-opacity:1"
       d="M 81.179688,122.00781 425.82031,109.24219"
       transform="translate(-74,-13)"
       id="path856" />
  </g>
</svg>
