<?xml version="1.0" encoding="UTF-8" standalone="no"?>
<svg
   xmlns:dc="http://purl.org/dc/elements/1.1/"
   xmlns:cc="http://creativecommons.org/ns#"
   xmlns:rdf="http://www.w3.org/1999/02/22-rdf-syntax-ns#"
   xmlns:svg="http://www.w3.org/2000/svg"
   xmlns="http://www.w3.org/2000/svg"
   xmlns:xlink="http://www.w3.org/1999/xlink"
   xmlns:sodipodi="http://sodipodi.sourceforge.net/DTD/sodipodi-0.dtd"
   xmlns:inkscape="http://www.inkscape.org/namespaces/inkscape"
   id="Layer_1"
   data-name="Layer 1"
   viewBox="0 0 448.67 346.18"
   version="1.1"
   sodipodi:docname="Cylindersetting.svg"
   inkscape:version="1.0.1 (3bc2e813f5, 2020-09-07)">
  <metadata
     id="metadata93">
    <rdf:RDF>
      <cc:Work
         rdf:about="">
        <dc:format>image/svg+xml</dc:format>
        <dc:type
           rdf:resource="http://purl.org/dc/dcmitype/StillImage" />
      </cc:Work>
    </rdf:RDF>
  </metadata>
  <sodipodi:namedview
     pagecolor="#ffffff"
     bordercolor="#666666"
     borderopacity="1"
     objecttolerance="10"
     gridtolerance="10"
     guidetolerance="10"
     inkscape:pageopacity="0"
     inkscape:pageshadow="2"
     inkscape:window-width="1920"
     inkscape:window-height="1017"
     id="namedview91"
     showgrid="false"
     inkscape:zoom="1.6604631"
     inkscape:cx="224.335"
     inkscape:cy="173.09"
     inkscape:window-x="1912"
     inkscape:window-y="-8"
     inkscape:window-maximized="1"
     inkscape:current-layer="Layer_1"
     inkscape:document-rotation="0" />
  <defs
     id="defs12">
    <style
       id="style10">.cls-1,.cls-2{fill:none;stroke-miterlimit:10;}.cls-1{stroke:gray;}.cls-2{stroke:#000;}.cls-3{fill:#a6a6a6;}.cls-4{fill:#666;}</style>
    <g
       id="g9781">
      <symbol
         overflow="visible"
         id="symbol1692">
        <path
           style="stroke:none;"
           d=""
           id="path8681" />
      </symbol>
      <symbol
         overflow="visible"
         id="symbol8845">
        <path
           style="stroke:none;"
           d="M 0.875 -0.59375 C 0.84375 -0.4375 0.78125 -0.203125 0.78125 -0.15625 C 0.78125 0.015625 0.921875 0.109375 1.078125 0.109375 C 1.203125 0.109375 1.375 0.03125 1.453125 -0.171875 C 1.46875 -0.203125 1.796875 -1.5625 1.84375 -1.75 C 1.921875 -2.078125 2.109375 -2.765625 2.15625 -3.046875 C 2.203125 -3.171875 2.484375 -3.640625 2.71875 -3.859375 C 2.796875 -3.921875 3.09375 -4.1875 3.515625 -4.1875 C 3.78125 -4.1875 3.921875 -4.0625 3.9375 -4.0625 C 3.640625 -4.015625 3.421875 -3.78125 3.421875 -3.515625 C 3.421875 -3.359375 3.53125 -3.171875 3.796875 -3.171875 C 4.0625 -3.171875 4.34375 -3.40625 4.34375 -3.765625 C 4.34375 -4.109375 4.03125 -4.40625 3.515625 -4.40625 C 2.875 -4.40625 2.4375 -3.921875 2.25 -3.640625 C 2.15625 -4.09375 1.796875 -4.40625 1.328125 -4.40625 C 0.875 -4.40625 0.6875 -4.015625 0.59375 -3.84375 C 0.421875 -3.5 0.296875 -2.90625 0.296875 -2.875 C 0.296875 -2.765625 0.390625 -2.765625 0.40625 -2.765625 C 0.515625 -2.765625 0.515625 -2.78125 0.578125 -3 C 0.75 -3.703125 0.953125 -4.1875 1.3125 -4.1875 C 1.46875 -4.1875 1.609375 -4.109375 1.609375 -3.734375 C 1.609375 -3.515625 1.578125 -3.40625 1.453125 -2.890625 Z M 0.875 -0.59375 "
           id="path9529" />
      </symbol>
    </g>
    <g
       id="g1360">
      <symbol
         overflow="visible"
         id="symbol4504">
        <path
           style="stroke:none;"
           d=""
           id="path3133" />
      </symbol>
      <symbol
         overflow="visible"
         id="symbol5803">
        <path
           style="stroke:none;"
           d="M 3.328125 -3.015625 C 3.390625 -3.265625 3.625 -4.1875 4.3125 -4.1875 C 4.359375 -4.1875 4.609375 -4.1875 4.8125 -4.0625 C 4.53125 -4 4.34375 -3.765625 4.34375 -3.515625 C 4.34375 -3.359375 4.453125 -3.171875 4.71875 -3.171875 C 4.9375 -3.171875 5.25 -3.34375 5.25 -3.75 C 5.25 -4.265625 4.671875 -4.40625 4.328125 -4.40625 C 3.75 -4.40625 3.40625 -3.875 3.28125 -3.65625 C 3.03125 -4.3125 2.5 -4.40625 2.203125 -4.40625 C 1.171875 -4.40625 0.59375 -3.125 0.59375 -2.875 C 0.59375 -2.765625 0.703125 -2.765625 0.71875 -2.765625 C 0.796875 -2.765625 0.828125 -2.796875 0.84375 -2.875 C 1.1875 -3.9375 1.84375 -4.1875 2.1875 -4.1875 C 2.375 -4.1875 2.71875 -4.09375 2.71875 -3.515625 C 2.71875 -3.203125 2.546875 -2.546875 2.1875 -1.140625 C 2.03125 -0.53125 1.671875 -0.109375 1.234375 -0.109375 C 1.171875 -0.109375 0.953125 -0.109375 0.734375 -0.234375 C 0.984375 -0.296875 1.203125 -0.5 1.203125 -0.78125 C 1.203125 -1.046875 0.984375 -1.125 0.84375 -1.125 C 0.53125 -1.125 0.296875 -0.875 0.296875 -0.546875 C 0.296875 -0.09375 0.78125 0.109375 1.21875 0.109375 C 1.890625 0.109375 2.25 -0.59375 2.265625 -0.640625 C 2.390625 -0.28125 2.75 0.109375 3.34375 0.109375 C 4.375 0.109375 4.9375 -1.171875 4.9375 -1.421875 C 4.9375 -1.53125 4.859375 -1.53125 4.828125 -1.53125 C 4.734375 -1.53125 4.71875 -1.484375 4.6875 -1.421875 C 4.359375 -0.34375 3.6875 -0.109375 3.375 -0.109375 C 2.984375 -0.109375 2.828125 -0.421875 2.828125 -0.765625 C 2.828125 -0.984375 2.875 -1.203125 2.984375 -1.640625 Z M 3.328125 -3.015625 "
           id="path5432" />
      </symbol>
    </g>
    <g
       id="g7815">
      <symbol
         overflow="visible"
         id="symbol5150">
        <path
           style="stroke:none;"
           d=""
           id="path3740" />
      </symbol>
      <symbol
         overflow="visible"
         id="symbol7434">
        <path
           style="stroke:none;"
           d="M 4.84375 -3.796875 C 4.890625 -3.9375 4.890625 -3.953125 4.890625 -4.03125 C 4.890625 -4.203125 4.75 -4.296875 4.59375 -4.296875 C 4.5 -4.296875 4.34375 -4.234375 4.25 -4.09375 C 4.234375 -4.03125 4.140625 -3.734375 4.109375 -3.546875 C 4.03125 -3.296875 3.96875 -3.015625 3.90625 -2.75 L 3.453125 -0.953125 C 3.421875 -0.8125 2.984375 -0.109375 2.328125 -0.109375 C 1.828125 -0.109375 1.71875 -0.546875 1.71875 -0.921875 C 1.71875 -1.375 1.890625 -2 2.21875 -2.875 C 2.375 -3.28125 2.421875 -3.390625 2.421875 -3.59375 C 2.421875 -4.03125 2.109375 -4.40625 1.609375 -4.40625 C 0.65625 -4.40625 0.296875 -2.953125 0.296875 -2.875 C 0.296875 -2.765625 0.390625 -2.765625 0.40625 -2.765625 C 0.515625 -2.765625 0.515625 -2.796875 0.5625 -2.953125 C 0.84375 -3.890625 1.234375 -4.1875 1.578125 -4.1875 C 1.65625 -4.1875 1.828125 -4.1875 1.828125 -3.875 C 1.828125 -3.625 1.71875 -3.359375 1.65625 -3.171875 C 1.25 -2.109375 1.078125 -1.546875 1.078125 -1.078125 C 1.078125 -0.1875 1.703125 0.109375 2.296875 0.109375 C 2.6875 0.109375 3.015625 -0.0625 3.296875 -0.34375 C 3.171875 0.171875 3.046875 0.671875 2.65625 1.203125 C 2.390625 1.53125 2.015625 1.828125 1.5625 1.828125 C 1.421875 1.828125 0.96875 1.796875 0.796875 1.40625 C 0.953125 1.40625 1.09375 1.40625 1.21875 1.28125 C 1.328125 1.203125 1.421875 1.0625 1.421875 0.875 C 1.421875 0.5625 1.15625 0.53125 1.0625 0.53125 C 0.828125 0.53125 0.5 0.6875 0.5 1.171875 C 0.5 1.671875 0.9375 2.046875 1.5625 2.046875 C 2.578125 2.046875 3.609375 1.140625 3.890625 0.015625 Z M 4.84375 -3.796875 "
           id="path8735" />
      </symbol>
    </g>
    <g
       id="g8237">
      <symbol
         overflow="visible"
         id="symbol3471">
        <path
           style="stroke:none;"
           d=""
           id="path1360" />
      </symbol>
      <symbol
         overflow="visible"
         id="symbol2070">
        <path
           style="stroke:none;"
           d="M 1.328125 -0.828125 C 1.859375 -1.40625 2.15625 -1.65625 2.515625 -1.96875 C 2.515625 -1.96875 3.125 -2.5 3.484375 -2.859375 C 4.4375 -3.78125 4.65625 -4.265625 4.65625 -4.3125 C 4.65625 -4.40625 4.5625 -4.40625 4.546875 -4.40625 C 4.46875 -4.40625 4.453125 -4.390625 4.390625 -4.296875 C 4.09375 -3.8125 3.890625 -3.65625 3.65625 -3.65625 C 3.40625 -3.65625 3.296875 -3.8125 3.140625 -3.984375 C 2.953125 -4.203125 2.78125 -4.40625 2.453125 -4.40625 C 1.703125 -4.40625 1.25 -3.484375 1.25 -3.265625 C 1.25 -3.21875 1.28125 -3.15625 1.359375 -3.15625 C 1.453125 -3.15625 1.46875 -3.203125 1.5 -3.265625 C 1.6875 -3.734375 2.265625 -3.734375 2.34375 -3.734375 C 2.546875 -3.734375 2.734375 -3.671875 2.96875 -3.59375 C 3.375 -3.4375 3.484375 -3.4375 3.734375 -3.4375 C 3.375 -3.015625 2.546875 -2.296875 2.359375 -2.140625 L 1.453125 -1.296875 C 0.78125 -0.625 0.421875 -0.0625 0.421875 0.015625 C 0.421875 0.109375 0.53125 0.109375 0.546875 0.109375 C 0.625 0.109375 0.640625 0.09375 0.703125 -0.015625 C 0.9375 -0.375 1.234375 -0.640625 1.5625 -0.640625 C 1.78125 -0.640625 1.890625 -0.546875 2.140625 -0.265625 C 2.296875 -0.046875 2.484375 0.109375 2.765625 0.109375 C 3.765625 0.109375 4.34375 -1.15625 4.34375 -1.421875 C 4.34375 -1.46875 4.296875 -1.53125 4.21875 -1.53125 C 4.125 -1.53125 4.109375 -1.46875 4.078125 -1.390625 C 3.84375 -0.75 3.203125 -0.5625 2.875 -0.5625 C 2.6875 -0.5625 2.5 -0.625 2.296875 -0.6875 C 1.953125 -0.8125 1.796875 -0.859375 1.59375 -0.859375 C 1.578125 -0.859375 1.421875 -0.859375 1.328125 -0.828125 Z M 1.328125 -0.828125 "
           id="path709" />
      </symbol>
    </g>
    <g
       id="g3181">
      <symbol
         overflow="visible"
         id="symbol8068">
        <path
           style="stroke:none;"
           d=""
           id="path8515" />
      </symbol>
      <symbol
         overflow="visible"
         id="symbol8401">
        <path
           style="stroke:none;"
           d="M 1.328125 -0.828125 C 1.859375 -1.40625 2.15625 -1.65625 2.515625 -1.96875 C 2.515625 -1.96875 3.125 -2.5 3.484375 -2.859375 C 4.4375 -3.78125 4.65625 -4.265625 4.65625 -4.3125 C 4.65625 -4.40625 4.5625 -4.40625 4.546875 -4.40625 C 4.46875 -4.40625 4.453125 -4.390625 4.390625 -4.296875 C 4.09375 -3.8125 3.890625 -3.65625 3.65625 -3.65625 C 3.40625 -3.65625 3.296875 -3.8125 3.140625 -3.984375 C 2.953125 -4.203125 2.78125 -4.40625 2.453125 -4.40625 C 1.703125 -4.40625 1.25 -3.484375 1.25 -3.265625 C 1.25 -3.21875 1.28125 -3.15625 1.359375 -3.15625 C 1.453125 -3.15625 1.46875 -3.203125 1.5 -3.265625 C 1.6875 -3.734375 2.265625 -3.734375 2.34375 -3.734375 C 2.546875 -3.734375 2.734375 -3.671875 2.96875 -3.59375 C 3.375 -3.4375 3.484375 -3.4375 3.734375 -3.4375 C 3.375 -3.015625 2.546875 -2.296875 2.359375 -2.140625 L 1.453125 -1.296875 C 0.78125 -0.625 0.421875 -0.0625 0.421875 0.015625 C 0.421875 0.109375 0.53125 0.109375 0.546875 0.109375 C 0.625 0.109375 0.640625 0.09375 0.703125 -0.015625 C 0.9375 -0.375 1.234375 -0.640625 1.5625 -0.640625 C 1.78125 -0.640625 1.890625 -0.546875 2.140625 -0.265625 C 2.296875 -0.046875 2.484375 0.109375 2.765625 0.109375 C 3.765625 0.109375 4.34375 -1.15625 4.34375 -1.421875 C 4.34375 -1.46875 4.296875 -1.53125 4.21875 -1.53125 C 4.125 -1.53125 4.109375 -1.46875 4.078125 -1.390625 C 3.84375 -0.75 3.203125 -0.5625 2.875 -0.5625 C 2.6875 -0.5625 2.5 -0.625 2.296875 -0.6875 C 1.953125 -0.8125 1.796875 -0.859375 1.59375 -0.859375 C 1.578125 -0.859375 1.421875 -0.859375 1.328125 -0.828125 Z M 1.328125 -0.828125 "
           id="path2279" />
      </symbol>
      <symbol
         overflow="visible"
         id="symbol5661">
        <path
           style="stroke:none;"
           d=""
           id="path3958" />
      </symbol>
      <symbol
         overflow="visible"
         id="symbol3864">
        <path
           style="stroke:none;"
           d="M 5.734375 -2.109375 C 5.734375 -2.71875 5.421875 -3.078125 4.6875 -3.078125 C 4.125 -3.078125 3.75 -2.78125 3.5625 -2.421875 C 3.421875 -2.921875 3.046875 -3.078125 2.546875 -3.078125 C 1.96875 -3.078125 1.609375 -2.765625 1.40625 -2.390625 L 1.40625 -3.078125 L 0.375 -3 L 0.375 -2.75 C 0.84375 -2.75 0.90625 -2.703125 0.90625 -2.359375 L 0.90625 -0.546875 C 0.90625 -0.25 0.828125 -0.25 0.375 -0.25 L 0.375 0 C 0.390625 0 0.875 -0.03125 1.171875 -0.03125 C 1.421875 -0.03125 1.90625 0 1.96875 0 L 1.96875 -0.25 C 1.515625 -0.25 1.453125 -0.25 1.453125 -0.546875 L 1.453125 -1.8125 C 1.453125 -2.53125 2.03125 -2.875 2.484375 -2.875 C 2.96875 -2.875 3.03125 -2.5 3.03125 -2.140625 L 3.03125 -0.546875 C 3.03125 -0.25 2.96875 -0.25 2.515625 -0.25 L 2.515625 0 C 2.53125 0 3.015625 -0.03125 3.3125 -0.03125 C 3.5625 -0.03125 4.046875 0 4.109375 0 L 4.109375 -0.25 C 3.65625 -0.25 3.59375 -0.25 3.59375 -0.546875 L 3.59375 -1.8125 C 3.59375 -2.53125 4.171875 -2.875 4.625 -2.875 C 5.109375 -2.875 5.171875 -2.5 5.171875 -2.140625 L 5.171875 -0.546875 C 5.171875 -0.25 5.109375 -0.25 4.65625 -0.25 L 4.65625 0 C 4.671875 0 5.15625 -0.03125 5.453125 -0.03125 C 5.703125 -0.03125 6.1875 0 6.25 0 L 6.25 -0.25 C 5.796875 -0.25 5.734375 -0.25 5.734375 -0.546875 Z M 5.734375 -2.109375 "
           id="path7276" />
      </symbol>
      <symbol
         overflow="visible"
         id="symbol4751">
        <path
           style="stroke:none;"
           d="M 1.46875 -4.296875 C 1.46875 -4.5 1.296875 -4.703125 1.0625 -4.703125 C 0.859375 -4.703125 0.671875 -4.53125 0.671875 -4.296875 C 0.671875 -4.046875 0.875 -3.890625 1.0625 -3.890625 C 1.296875 -3.890625 1.46875 -4.0625 1.46875 -4.296875 Z M 0.40625 -3 L 0.40625 -2.75 C 0.84375 -2.75 0.90625 -2.703125 0.90625 -2.359375 L 0.90625 -0.546875 C 0.90625 -0.25 0.84375 -0.25 0.390625 -0.25 L 0.390625 0 C 0.40625 0 0.890625 -0.03125 1.171875 -0.03125 C 1.421875 -0.03125 1.671875 -0.015625 1.90625 0 L 1.90625 -0.25 C 1.5 -0.25 1.4375 -0.25 1.4375 -0.546875 L 1.4375 -3.078125 Z M 0.40625 -3 "
           id="path5108" />
      </symbol>
      <symbol
         overflow="visible"
         id="symbol1571">
        <path
           style="stroke:none;"
           d="M 3.59375 -2.109375 C 3.59375 -2.71875 3.296875 -3.078125 2.546875 -3.078125 C 1.96875 -3.078125 1.609375 -2.765625 1.40625 -2.390625 L 1.40625 -3.078125 L 0.375 -3 L 0.375 -2.75 C 0.84375 -2.75 0.90625 -2.703125 0.90625 -2.359375 L 0.90625 -0.546875 C 0.90625 -0.25 0.828125 -0.25 0.375 -0.25 L 0.375 0 C 0.390625 0 0.875 -0.03125 1.171875 -0.03125 C 1.421875 -0.03125 1.90625 0 1.96875 0 L 1.96875 -0.25 C 1.515625 -0.25 1.453125 -0.25 1.453125 -0.546875 L 1.453125 -1.8125 C 1.453125 -2.53125 2.03125 -2.875 2.484375 -2.875 C 2.96875 -2.875 3.03125 -2.5 3.03125 -2.140625 L 3.03125 -0.546875 C 3.03125 -0.25 2.96875 -0.25 2.515625 -0.25 L 2.515625 0 C 2.53125 0 3.015625 -0.03125 3.3125 -0.03125 C 3.5625 -0.03125 4.046875 0 4.109375 0 L 4.109375 -0.25 C 3.65625 -0.25 3.59375 -0.25 3.59375 -0.546875 Z M 3.59375 -2.109375 "
           id="path3828" />
      </symbol>
    </g>
    <g
       id="g4461">
      <symbol
         overflow="visible"
         id="symbol9299">
        <path
           style="stroke:none;"
           d=""
           id="path2349" />
      </symbol>
      <symbol
         overflow="visible"
         id="symbol5747">
        <path
           style="stroke:none;"
           d="M 1.328125 -0.828125 C 1.859375 -1.40625 2.15625 -1.65625 2.515625 -1.96875 C 2.515625 -1.96875 3.125 -2.5 3.484375 -2.859375 C 4.4375 -3.78125 4.65625 -4.265625 4.65625 -4.3125 C 4.65625 -4.40625 4.5625 -4.40625 4.546875 -4.40625 C 4.46875 -4.40625 4.453125 -4.390625 4.390625 -4.296875 C 4.09375 -3.8125 3.890625 -3.65625 3.65625 -3.65625 C 3.40625 -3.65625 3.296875 -3.8125 3.140625 -3.984375 C 2.953125 -4.203125 2.78125 -4.40625 2.453125 -4.40625 C 1.703125 -4.40625 1.25 -3.484375 1.25 -3.265625 C 1.25 -3.21875 1.28125 -3.15625 1.359375 -3.15625 C 1.453125 -3.15625 1.46875 -3.203125 1.5 -3.265625 C 1.6875 -3.734375 2.265625 -3.734375 2.34375 -3.734375 C 2.546875 -3.734375 2.734375 -3.671875 2.96875 -3.59375 C 3.375 -3.4375 3.484375 -3.4375 3.734375 -3.4375 C 3.375 -3.015625 2.546875 -2.296875 2.359375 -2.140625 L 1.453125 -1.296875 C 0.78125 -0.625 0.421875 -0.0625 0.421875 0.015625 C 0.421875 0.109375 0.53125 0.109375 0.546875 0.109375 C 0.625 0.109375 0.640625 0.09375 0.703125 -0.015625 C 0.9375 -0.375 1.234375 -0.640625 1.5625 -0.640625 C 1.78125 -0.640625 1.890625 -0.546875 2.140625 -0.265625 C 2.296875 -0.046875 2.484375 0.109375 2.765625 0.109375 C 3.765625 0.109375 4.34375 -1.15625 4.34375 -1.421875 C 4.34375 -1.46875 4.296875 -1.53125 4.21875 -1.53125 C 4.125 -1.53125 4.109375 -1.46875 4.078125 -1.390625 C 3.84375 -0.75 3.203125 -0.5625 2.875 -0.5625 C 2.6875 -0.5625 2.5 -0.625 2.296875 -0.6875 C 1.953125 -0.8125 1.796875 -0.859375 1.59375 -0.859375 C 1.578125 -0.859375 1.421875 -0.859375 1.328125 -0.828125 Z M 1.328125 -0.828125 "
           id="path3363" />
      </symbol>
      <symbol
         overflow="visible"
         id="symbol132">
        <path
           style="stroke:none;"
           d=""
           id="path7810" />
      </symbol>
      <symbol
         overflow="visible"
         id="symbol9728">
        <path
           style="stroke:none;"
           d="M 5.734375 -2.109375 C 5.734375 -2.71875 5.421875 -3.078125 4.6875 -3.078125 C 4.125 -3.078125 3.75 -2.78125 3.5625 -2.421875 C 3.421875 -2.921875 3.046875 -3.078125 2.546875 -3.078125 C 1.96875 -3.078125 1.609375 -2.765625 1.40625 -2.390625 L 1.40625 -3.078125 L 0.375 -3 L 0.375 -2.75 C 0.84375 -2.75 0.90625 -2.703125 0.90625 -2.359375 L 0.90625 -0.546875 C 0.90625 -0.25 0.828125 -0.25 0.375 -0.25 L 0.375 0 C 0.390625 0 0.875 -0.03125 1.171875 -0.03125 C 1.421875 -0.03125 1.90625 0 1.96875 0 L 1.96875 -0.25 C 1.515625 -0.25 1.453125 -0.25 1.453125 -0.546875 L 1.453125 -1.8125 C 1.453125 -2.53125 2.03125 -2.875 2.484375 -2.875 C 2.96875 -2.875 3.03125 -2.5 3.03125 -2.140625 L 3.03125 -0.546875 C 3.03125 -0.25 2.96875 -0.25 2.515625 -0.25 L 2.515625 0 C 2.53125 0 3.015625 -0.03125 3.3125 -0.03125 C 3.5625 -0.03125 4.046875 0 4.109375 0 L 4.109375 -0.25 C 3.65625 -0.25 3.59375 -0.25 3.59375 -0.546875 L 3.59375 -1.8125 C 3.59375 -2.53125 4.171875 -2.875 4.625 -2.875 C 5.109375 -2.875 5.171875 -2.5 5.171875 -2.140625 L 5.171875 -0.546875 C 5.171875 -0.25 5.109375 -0.25 4.65625 -0.25 L 4.65625 0 C 4.671875 0 5.15625 -0.03125 5.453125 -0.03125 C 5.703125 -0.03125 6.1875 0 6.25 0 L 6.25 -0.25 C 5.796875 -0.25 5.734375 -0.25 5.734375 -0.546875 Z M 5.734375 -2.109375 "
           id="path6835" />
      </symbol>
      <symbol
         overflow="visible"
         id="symbol9449">
        <path
           style="stroke:none;"
           d="M 3.109375 -1.875 C 3.109375 -2.234375 3.109375 -2.5 2.78125 -2.765625 C 2.5 -3 2.171875 -3.109375 1.75 -3.109375 C 1.09375 -3.109375 0.625 -2.859375 0.625 -2.4375 C 0.625 -2.203125 0.78125 -2.09375 0.96875 -2.09375 C 1.15625 -2.09375 1.296875 -2.234375 1.296875 -2.421875 C 1.296875 -2.53125 1.234375 -2.6875 1.046875 -2.734375 C 1.296875 -2.90625 1.703125 -2.90625 1.734375 -2.90625 C 2.125 -2.90625 2.5625 -2.65625 2.5625 -2.0625 L 2.5625 -1.859375 C 2.171875 -1.84375 1.71875 -1.8125 1.203125 -1.625 C 0.578125 -1.40625 0.390625 -1.015625 0.390625 -0.703125 C 0.390625 -0.109375 1.109375 0.0625 1.609375 0.0625 C 2.15625 0.0625 2.484375 -0.25 2.640625 -0.515625 C 2.65625 -0.234375 2.84375 0.03125 3.171875 0.03125 C 3.1875 0.03125 3.859375 0.03125 3.859375 -0.625 L 3.859375 -1.015625 L 3.625 -1.015625 L 3.625 -0.640625 C 3.625 -0.5625 3.625 -0.234375 3.359375 -0.234375 C 3.109375 -0.234375 3.109375 -0.5625 3.109375 -0.640625 Z M 2.5625 -0.984375 C 2.5625 -0.3125 1.96875 -0.125 1.65625 -0.125 C 1.296875 -0.125 0.96875 -0.359375 0.96875 -0.703125 C 0.96875 -1.09375 1.296875 -1.625 2.5625 -1.671875 Z M 2.5625 -0.984375 "
           id="path6685" />
      </symbol>
      <symbol
         overflow="visible"
         id="symbol6554">
        <path
           style="stroke:none;"
           d="M 2.359375 -1.5625 C 2.359375 -1.5625 2.3125 -1.625 2.3125 -1.625 C 2.3125 -1.65625 2.765625 -2.140625 2.828125 -2.203125 C 3.078125 -2.484375 3.3125 -2.75 3.875 -2.75 L 3.875 -3 C 3.671875 -2.984375 3.46875 -2.96875 3.28125 -2.96875 C 3.078125 -2.96875 2.796875 -2.984375 2.59375 -3 L 2.59375 -2.75 C 2.703125 -2.734375 2.734375 -2.65625 2.734375 -2.59375 C 2.734375 -2.578125 2.734375 -2.46875 2.625 -2.359375 L 2.140625 -1.8125 L 1.5625 -2.46875 C 1.484375 -2.546875 1.484375 -2.578125 1.484375 -2.609375 C 1.484375 -2.703125 1.578125 -2.75 1.671875 -2.75 L 1.671875 -3 C 1.421875 -2.984375 1.15625 -2.96875 0.890625 -2.96875 C 0.6875 -2.96875 0.421875 -2.984375 0.21875 -3 L 0.21875 -2.75 C 0.53125 -2.75 0.71875 -2.75 0.90625 -2.546875 L 1.765625 -1.546875 C 1.78125 -1.53125 1.828125 -1.484375 1.828125 -1.46875 C 1.828125 -1.453125 1.296875 -0.875 1.234375 -0.796875 C 0.96875 -0.515625 0.734375 -0.265625 0.1875 -0.25 L 0.1875 0 C 0.390625 -0.015625 0.546875 -0.03125 0.765625 -0.03125 C 0.96875 -0.03125 1.25 -0.015625 1.453125 0 L 1.453125 -0.25 C 1.375 -0.265625 1.3125 -0.3125 1.3125 -0.40625 C 1.3125 -0.546875 1.390625 -0.640625 1.5 -0.75 L 2 -1.296875 L 2.59375 -0.59375 C 2.734375 -0.453125 2.734375 -0.4375 2.734375 -0.390625 C 2.734375 -0.265625 2.578125 -0.25 2.546875 -0.25 L 2.546875 0 C 2.609375 0 3.109375 -0.03125 3.328125 -0.03125 C 3.546875 -0.03125 3.78125 -0.015625 4 0 L 4 -0.25 C 3.53125 -0.25 3.484375 -0.296875 3.3125 -0.46875 Z M 2.359375 -1.5625 "
           id="path8325" />
      </symbol>
    </g>
    <g
       id="g9453">
      <symbol
         overflow="visible"
         id="symbol2541">
        <path
           style="stroke:none;"
           d=""
           id="path7926" />
      </symbol>
      <symbol
         overflow="visible"
         id="symbol8602">
        <path
           style="stroke:none;"
           d="M 1.6875 1.6875 C 1.65625 1.828125 1.640625 1.84375 1.640625 1.890625 C 1.640625 2.109375 1.828125 2.171875 1.9375 2.171875 C 1.984375 2.171875 2.203125 2.140625 2.296875 1.90625 C 2.328125 1.828125 2.375 1.5 2.65625 0.09375 C 2.734375 0.09375 2.8125 0.109375 2.984375 0.109375 C 4.640625 0.109375 6.171875 -1.453125 6.171875 -3.03125 C 6.171875 -3.8125 5.78125 -4.40625 5.03125 -4.40625 C 3.59375 -4.40625 2.984375 -2.46875 2.390625 -0.53125 C 1.3125 -0.734375 0.75 -1.28125 0.75 -2 C 0.75 -2.28125 0.984375 -3.375 1.578125 -4.0625 C 1.671875 -4.15625 1.671875 -4.171875 1.671875 -4.203125 C 1.671875 -4.234375 1.640625 -4.296875 1.546875 -4.296875 C 1.265625 -4.296875 0.5 -2.84375 0.5 -1.890625 C 0.5 -0.953125 1.15625 -0.234375 2.21875 0.015625 Z M 3.078125 -0.46875 C 2.984375 -0.46875 2.96875 -0.46875 2.890625 -0.484375 C 2.765625 -0.484375 2.765625 -0.484375 2.765625 -0.515625 C 2.765625 -0.53125 2.9375 -1.453125 2.953125 -1.59375 C 3.265625 -2.875 4.046875 -3.828125 4.9375 -3.828125 C 5.625 -3.828125 5.890625 -3.296875 5.890625 -2.8125 C 5.890625 -1.6875 4.609375 -0.46875 3.078125 -0.46875 Z M 3.078125 -0.46875 "
           id="path9002" />
      </symbol>
      <symbol
         overflow="visible"
         id="symbol1560">
        <path
           style="stroke:none;"
           d=""
           id="path1509" />
      </symbol>
      <symbol
         overflow="visible"
         id="symbol9614">
        <path
           style="stroke:none;"
           d="M 5.734375 -2.109375 C 5.734375 -2.71875 5.421875 -3.078125 4.6875 -3.078125 C 4.125 -3.078125 3.75 -2.78125 3.5625 -2.421875 C 3.421875 -2.921875 3.046875 -3.078125 2.546875 -3.078125 C 1.96875 -3.078125 1.609375 -2.765625 1.40625 -2.390625 L 1.40625 -3.078125 L 0.375 -3 L 0.375 -2.75 C 0.84375 -2.75 0.90625 -2.703125 0.90625 -2.359375 L 0.90625 -0.546875 C 0.90625 -0.25 0.828125 -0.25 0.375 -0.25 L 0.375 0 C 0.390625 0 0.875 -0.03125 1.171875 -0.03125 C 1.421875 -0.03125 1.90625 0 1.96875 0 L 1.96875 -0.25 C 1.515625 -0.25 1.453125 -0.25 1.453125 -0.546875 L 1.453125 -1.8125 C 1.453125 -2.53125 2.03125 -2.875 2.484375 -2.875 C 2.96875 -2.875 3.03125 -2.5 3.03125 -2.140625 L 3.03125 -0.546875 C 3.03125 -0.25 2.96875 -0.25 2.515625 -0.25 L 2.515625 0 C 2.53125 0 3.015625 -0.03125 3.3125 -0.03125 C 3.5625 -0.03125 4.046875 0 4.109375 0 L 4.109375 -0.25 C 3.65625 -0.25 3.59375 -0.25 3.59375 -0.546875 L 3.59375 -1.8125 C 3.59375 -2.53125 4.171875 -2.875 4.625 -2.875 C 5.109375 -2.875 5.171875 -2.5 5.171875 -2.140625 L 5.171875 -0.546875 C 5.171875 -0.25 5.109375 -0.25 4.65625 -0.25 L 4.65625 0 C 4.671875 0 5.15625 -0.03125 5.453125 -0.03125 C 5.703125 -0.03125 6.1875 0 6.25 0 L 6.25 -0.25 C 5.796875 -0.25 5.734375 -0.25 5.734375 -0.546875 Z M 5.734375 -2.109375 "
           id="path6629" />
      </symbol>
      <symbol
         overflow="visible"
         id="symbol8404">
        <path
           style="stroke:none;"
           d="M 3.109375 -1.875 C 3.109375 -2.234375 3.109375 -2.5 2.78125 -2.765625 C 2.5 -3 2.171875 -3.109375 1.75 -3.109375 C 1.09375 -3.109375 0.625 -2.859375 0.625 -2.4375 C 0.625 -2.203125 0.78125 -2.09375 0.96875 -2.09375 C 1.15625 -2.09375 1.296875 -2.234375 1.296875 -2.421875 C 1.296875 -2.53125 1.234375 -2.6875 1.046875 -2.734375 C 1.296875 -2.90625 1.703125 -2.90625 1.734375 -2.90625 C 2.125 -2.90625 2.5625 -2.65625 2.5625 -2.0625 L 2.5625 -1.859375 C 2.171875 -1.84375 1.71875 -1.8125 1.203125 -1.625 C 0.578125 -1.40625 0.390625 -1.015625 0.390625 -0.703125 C 0.390625 -0.109375 1.109375 0.0625 1.609375 0.0625 C 2.15625 0.0625 2.484375 -0.25 2.640625 -0.515625 C 2.65625 -0.234375 2.84375 0.03125 3.171875 0.03125 C 3.1875 0.03125 3.859375 0.03125 3.859375 -0.625 L 3.859375 -1.015625 L 3.625 -1.015625 L 3.625 -0.640625 C 3.625 -0.5625 3.625 -0.234375 3.359375 -0.234375 C 3.109375 -0.234375 3.109375 -0.5625 3.109375 -0.640625 Z M 2.5625 -0.984375 C 2.5625 -0.3125 1.96875 -0.125 1.65625 -0.125 C 1.296875 -0.125 0.96875 -0.359375 0.96875 -0.703125 C 0.96875 -1.09375 1.296875 -1.625 2.5625 -1.671875 Z M 2.5625 -0.984375 "
           id="path2681" />
      </symbol>
      <symbol
         overflow="visible"
         id="symbol7507">
        <path
           style="stroke:none;"
           d="M 2.359375 -1.5625 C 2.359375 -1.5625 2.3125 -1.625 2.3125 -1.625 C 2.3125 -1.65625 2.765625 -2.140625 2.828125 -2.203125 C 3.078125 -2.484375 3.3125 -2.75 3.875 -2.75 L 3.875 -3 C 3.671875 -2.984375 3.46875 -2.96875 3.28125 -2.96875 C 3.078125 -2.96875 2.796875 -2.984375 2.59375 -3 L 2.59375 -2.75 C 2.703125 -2.734375 2.734375 -2.65625 2.734375 -2.59375 C 2.734375 -2.578125 2.734375 -2.46875 2.625 -2.359375 L 2.140625 -1.8125 L 1.5625 -2.46875 C 1.484375 -2.546875 1.484375 -2.578125 1.484375 -2.609375 C 1.484375 -2.703125 1.578125 -2.75 1.671875 -2.75 L 1.671875 -3 C 1.421875 -2.984375 1.15625 -2.96875 0.890625 -2.96875 C 0.6875 -2.96875 0.421875 -2.984375 0.21875 -3 L 0.21875 -2.75 C 0.53125 -2.75 0.71875 -2.75 0.90625 -2.546875 L 1.765625 -1.546875 C 1.78125 -1.53125 1.828125 -1.484375 1.828125 -1.46875 C 1.828125 -1.453125 1.296875 -0.875 1.234375 -0.796875 C 0.96875 -0.515625 0.734375 -0.265625 0.1875 -0.25 L 0.1875 0 C 0.390625 -0.015625 0.546875 -0.03125 0.765625 -0.03125 C 0.96875 -0.03125 1.25 -0.015625 1.453125 0 L 1.453125 -0.25 C 1.375 -0.265625 1.3125 -0.3125 1.3125 -0.40625 C 1.3125 -0.546875 1.390625 -0.640625 1.5 -0.75 L 2 -1.296875 L 2.59375 -0.59375 C 2.734375 -0.453125 2.734375 -0.4375 2.734375 -0.390625 C 2.734375 -0.265625 2.578125 -0.25 2.546875 -0.25 L 2.546875 0 C 2.609375 0 3.109375 -0.03125 3.328125 -0.03125 C 3.546875 -0.03125 3.78125 -0.015625 4 0 L 4 -0.25 C 3.53125 -0.25 3.484375 -0.296875 3.3125 -0.46875 Z M 2.359375 -1.5625 "
           id="path7179" />
      </symbol>
    </g>
  </defs>
  <title
     id="title14">Cylinder setting</title>
  <path
     class="cls-1"
     d="M247.69,68.27c0,5.09-16.05,9.22-35.85,9.22S176,73.36,176,68.27s16.05-9.22,35.84-9.22c11.14,0,21.09,1.3,27.66,3.35"
     id="path16" />
  <line
     class="cls-2"
     x1="211.83"
     y1="244.45"
     x2="211.83"
     y2="31.22"
     id="line18" />
  <polygon
     points="217.34 36.13 211.83 31.87 206.33 36.13 211.83 23.12 217.34 36.13"
     id="polygon20" />
  <polygon
     class="cls-3"
     points="216.13 34.57 211.83 24.43 211.83 31.24 216.13 34.57"
     id="polygon22" />
  <polygon
     class="cls-4"
     points="207.53 34.57 211.83 24.43 211.83 31.24 207.53 34.57"
     id="polygon24" />
  <line
     class="cls-2"
     x1="211.83"
     y1="244.1"
     x2="132.74"
     y2="322.2"
     id="line26" />
  <polygon
     points="132.37 314.83 133.2 321.74 140.1 322.67 126.97 327.89 132.37 314.83"
     id="polygon28" />
  <polygon
     class="cls-3"
     points="132.1 316.79 127.91 326.97 132.75 322.19 132.1 316.79"
     id="polygon30" />
  <polygon
     class="cls-4"
     points="138.14 322.9 127.91 326.97 132.75 322.19 138.14 322.9"
     id="polygon32" />
  <line
     class="cls-2"
     x1="211.57"
     y1="243.86"
     x2="424.8"
     y2="243.86"
     id="line34" />
  <polygon
     points="419.89 249.37 424.15 243.86 419.89 238.36 432.91 243.86 419.89 249.37"
     id="polygon36" />
  <polygon
     class="cls-3"
     points="421.45 248.16 431.59 243.86 424.78 243.86 421.45 248.16"
     id="polygon38" />
  <polygon
     class="cls-4"
     points="421.45 239.56 431.59 243.86 424.78 243.86 421.45 239.56"
     id="polygon40" />
  <ellipse
     class="cls-2"
     cx="211.82"
     cy="68.44"
     rx="139.01"
     ry="21.3"
     id="ellipse58" />
  <line
     class="cls-2"
     x1="211.74"
     y1="68.17"
     x2="291.57"
     y2="51.02"
     id="line60" />
  <line
     class="cls-2"
     x1="211.89"
     y1="68.17"
     x2="350.79"
     y2="68.17"
     id="line62" />
  <ellipse
     class="cls-2"
     cx="211.72"
     cy="205.43"
     rx="139.01"
     ry="21.3"
     id="ellipse64" />
  <line
     class="cls-2"
     x1="72.77"
     y1="68.21"
     x2="72.77"
     y2="205.34"
     id="line66" />
  <line
     class="cls-2"
     x1="350.8"
     y1="68.06"
     x2="350.8"
     y2="205.95"
     id="line68" />
  <line
     class="cls-2"
     x1="68.01"
     y1="205.22"
     x2="33.52"
     y2="205.22"
     id="line70" />
  <line
     class="cls-2"
     x1="68.01"
     y1="68.39"
     x2="33.52"
     y2="68.39"
     id="line72" />
  <g
     inkscape:label=""
     transform="matrix(2.5,0,0,2.5,50.469928,-122.71312)"
     id="g145">
    <g
       id="g4509">
      <g
         style="fill:#000000;fill-opacity:1"
         id="g7706">
        <use
           xlink:href="#symbol8845"
           x="91.925003"
           y="81.962997"
           id="use4120"
           width="100%"
           height="100%" />
      </g>
    </g>
  </g>
  <g
     inkscape:label=""
     transform="matrix(2.5,0,0,2.5,204.09875,44.72625)"
     id="g216">
    <g
       id="g5951">
      <g
         style="fill:#000000;fill-opacity:1"
         id="g1790">
        <use
           xlink:href="#symbol5803"
           x="91.925003"
           y="81.962997"
           id="use721"
           width="100%"
           height="100%" />
      </g>
    </g>
  </g>
  <g
     inkscape:label=""
     transform="matrix(2.5,0,0,2.5,-117.55548,132.03508)"
     id="g296">
    <g
       id="g5178">
      <g
         style="fill:#000000;fill-opacity:1"
         id="g3255">
        <use
           xlink:href="#symbol7434"
           x="91.925003"
           y="81.962997"
           id="use2552"
           width="100%"
           height="100%" />
      </g>
    </g>
  </g>
  <g
     inkscape:label=""
     transform="matrix(2.5,0,0,2.5,-24.810273,-184.74401)"
     id="g385">
    <g
       id="g8854">
      <g
         style="fill:#000000;fill-opacity:1"
         id="g7193">
        <use
           xlink:href="#symbol2070"
           x="91.925003"
           y="81.962997"
           id="use2496"
           width="100%"
           height="100%" />
      </g>
    </g>
  </g>
  <g
     inkscape:label=""
     transform="matrix(2.5,0,0,2.5,-229.26135,7.4858389)"
     id="g495">
    <g
       id="g953">
      <g
         style="fill:#000000;fill-opacity:1"
         id="g98">
        <use
           xlink:href="#symbol8401"
           x="91.925003"
           y="81.962997"
           id="use4234"
           width="100%"
           height="100%" />
      </g>
      <g
         style="fill:#000000;fill-opacity:1"
         id="g4450">
        <use
           xlink:href="#symbol3864"
           x="96.557999"
           y="83.457001"
           id="use868"
           width="100%"
           height="100%" />
        <use
           xlink:href="#symbol4751"
           x="103.10291"
           y="83.457001"
           id="use3415"
           width="100%"
           height="100%" />
        <use
           xlink:href="#symbol1571"
           x="105.35824"
           y="83.457001"
           id="use4696"
           width="100%"
           height="100%" />
      </g>
    </g>
  </g>
  <g
     inkscape:label=""
     transform="matrix(2.5,0,0,2.5,-227.7657,-129.33778)"
     id="g638">
    <g
       id="g9037">
      <g
         style="fill:#000000;fill-opacity:1"
         id="g4454">
        <use
           xlink:href="#symbol5747"
           x="91.925003"
           y="81.962997"
           id="use5985"
           width="100%"
           height="100%" />
      </g>
      <g
         style="fill:#000000;fill-opacity:1"
         id="g220">
        <use
           xlink:href="#symbol9728"
           x="96.557999"
           y="83.457001"
           id="use9320"
           width="100%"
           height="100%" />
        <use
           xlink:href="#symbol9449"
           x="103.10291"
           y="83.457001"
           id="use2921"
           width="100%"
           height="100%" />
        <use
           xlink:href="#symbol6554"
           x="107.07449"
           y="83.457001"
           id="use3381"
           width="100%"
           height="100%" />
      </g>
    </g>
  </g>
  <g
     inkscape:label=""
     transform="matrix(2.5,0,0,2.5,-107.31737,-135.96243)"
     id="g802">
    <g
       id="g2582">
      <g
         style="fill:#000000;fill-opacity:1"
         id="g6496">
        <use
           xlink:href="#symbol8602"
           x="91.925003"
           y="81.962997"
           id="use6779"
           width="100%"
           height="100%" />
      </g>
      <g
         style="fill:#000000;fill-opacity:1"
         id="g8539">
        <use
           xlink:href="#symbol9614"
           x="98.442001"
           y="83.457001"
           id="use4894"
           width="100%"
           height="100%" />
        <use
           xlink:href="#symbol8404"
           x="104.98691"
           y="83.457001"
           id="use9415"
           width="100%"
           height="100%" />
        <use
           xlink:href="#symbol7507"
           x="108.95849"
           y="83.457001"
           id="use2322"
           width="100%"
           height="100%" />
      </g>
    </g>
  </g>
</svg>
