<?xml version="1.0" encoding="UTF-8" standalone="no"?>
<svg
   xmlns:dc="http://purl.org/dc/elements/1.1/"
   xmlns:cc="http://creativecommons.org/ns#"
   xmlns:rdf="http://www.w3.org/1999/02/22-rdf-syntax-ns#"
   xmlns:svg="http://www.w3.org/2000/svg"
   xmlns="http://www.w3.org/2000/svg"
   xmlns:xlink="http://www.w3.org/1999/xlink"
   xmlns:sodipodi="http://sodipodi.sourceforge.net/DTD/sodipodi-0.dtd"
   xmlns:inkscape="http://www.inkscape.org/namespaces/inkscape"
   id="Layer_1"
   data-name="Layer 1"
   viewBox="0 0 290.97 48.743217"
   version="1.1"
   sodipodi:docname="IEEEfloatspacing.svg"
   width="290.97"
   height="48.743217"
   inkscape:version="1.0.1 (3bc2e813f5, 2020-09-07)">
  <metadata
     id="metadata1599">
    <rdf:RDF>
      <cc:Work
         rdf:about="">
        <dc:format>image/svg+xml</dc:format>
        <dc:type
           rdf:resource="http://purl.org/dc/dcmitype/StillImage" />
        <dc:title>IEEE float spacing</dc:title>
      </cc:Work>
    </rdf:RDF>
  </metadata>
  <sodipodi:namedview
     pagecolor="#ffffff"
     bordercolor="#666666"
     borderopacity="1"
     objecttolerance="10"
     gridtolerance="10"
     guidetolerance="10"
     inkscape:pageopacity="0"
     inkscape:pageshadow="2"
     inkscape:window-width="1920"
     inkscape:window-height="1017"
     id="namedview1597"
     showgrid="false"
     inkscape:zoom="2.3011008"
     inkscape:cx="147.945"
     inkscape:cy="11.02"
     inkscape:window-x="1912"
     inkscape:window-y="-8"
     inkscape:window-maximized="1"
     inkscape:current-layer="Layer_1"
     inkscape:document-rotation="0"
     fit-margin-top="1"
     lock-margins="true"
     fit-margin-left="1"
     fit-margin-right="1"
     fit-margin-bottom="1" />
  <defs
     id="defs1574">
    <style
       id="style1572">.cls-1,.cls-2{stroke:#000;stroke-miterlimit:10;}.cls-2{fill:none;}</style>
    <g
       id="g3171">
      <symbol
         overflow="visible"
         id="symbol1348">
        <path
           style="stroke:none"
           d=""
           id="path9131" />
      </symbol>
      <symbol
         overflow="visible"
         id="symbol1968">
        <path
           style="stroke:none"
           d="M 2.625,-4.359375 C 1.390625,-4.0625 0.421875,-2.765625 0.421875,-1.5625 0.421875,-0.59375 1.0625,0.125 2,0.125 c 1.15625,0 1.984375,-1.578125 1.984375,-2.953125 0,-0.90625 -0.390625,-1.40625 -0.734375,-1.84375 C 2.890625,-5.125 2.296875,-5.875 2.296875,-6.3125 c 0,-0.21875 0.203125,-0.453125 0.546875,-0.453125 0.3125,0 0.5,0.125 0.71875,0.265625 0.203125,0.125 0.390625,0.25 0.546875,0.25 C 4.359375,-6.25 4.5,-6.484375 4.5,-6.65625 4.5,-6.875 4.34375,-6.890625 3.984375,-6.984375 3.46875,-7.09375 3.328125,-7.09375 3.171875,-7.09375 c -0.78125,0 -1.140625,0.4375 -1.140625,1.03125 0,0.546875 0.296875,1.09375 0.59375,1.703125 z m 0.125,0.21875 c 0.25,0.46875 0.546875,1 0.546875,1.71875 0,0.65625 -0.375,2.328125 -1.296875,2.328125 -0.546875,0 -0.96875,-0.421875 -0.96875,-1.1875 0,-0.625 0.375,-2.5 1.71875,-2.859375 z m 0,0"
           id="path8249" />
      </symbol>
    </g>
  </defs>
  <title
     id="title1576">IEEE float spacing</title>
  <circle
     class="cls-1"
     cx="172.87999"
     cy="10.540001"
     r="2.3499999"
     id="circle1578" />
  <line
     class="cls-2"
     x1="289.54999"
     y1="10.540001"
     x2="1.5"
     y2="10.540001"
     id="line1580" />
  <line
     class="cls-2"
     x1="1.5"
     y1="1"
     x2="1.5"
     y2="20.09"
     id="line1582" />
  <line
     class="cls-2"
     x1="73.489998"
     y1="1"
     x2="73.489998"
     y2="20.09"
     id="line1584" />
  <line
     class="cls-2"
     x1="289.47"
     y1="1"
     x2="289.47"
     y2="20.09"
     id="line1586" />
  <line
     class="cls-2"
     x1="145.48"
     y1="1"
     x2="145.48"
     y2="20.09"
     id="line1588" />
  <line
     class="cls-2"
     x1="217.48"
     y1="1"
     x2="217.48"
     y2="20.09"
     id="line1590" />
  <polyline
     class="cls-2"
     points="180.6 73.16 180.6 77.83 153.48 77.83 153.48 73.02"
     id="polyline1592"
     transform="translate(-7.8500004,-49.27)" />
  <g
     inkscape:label=""
     transform="matrix(2,0,0,2,-29.143928,-116.43278)"
     id="g1623">
    <g
       id="g6405">
      <g
         style="fill:#000000;fill-opacity:1"
         id="g3563">
        <use
           xlink:href="#symbol1968"
           x="91.925003"
           y="81.962997"
           id="use6702"
           width="100%"
           height="100%" />
      </g>
    </g>
  </g>
</svg>
