<?xml version="1.0" encoding="UTF-8" standalone="no"?>
<svg
   xmlns:dc="http://purl.org/dc/elements/1.1/"
   xmlns:cc="http://creativecommons.org/ns#"
   xmlns:rdf="http://www.w3.org/1999/02/22-rdf-syntax-ns#"
   xmlns:svg="http://www.w3.org/2000/svg"
   xmlns="http://www.w3.org/2000/svg"
   xmlns:xlink="http://www.w3.org/1999/xlink"
   xmlns:sodipodi="http://sodipodi.sourceforge.net/DTD/sodipodi-0.dtd"
   xmlns:inkscape="http://www.inkscape.org/namespaces/inkscape"
   id="Layer_1"
   data-name="Layer 1"
   viewBox="0 0 193.6 142.26"
   version="1.1"
   sodipodi:docname="Offsetandroundup.svg"
   inkscape:version="1.0.1 (3bc2e813f5, 2020-09-07)">
  <metadata
     id="metadata866">
    <rdf:RDF>
      <cc:Work
         rdf:about="">
        <dc:format>image/svg+xml</dc:format>
        <dc:type
           rdf:resource="http://purl.org/dc/dcmitype/StillImage" />
      </cc:Work>
    </rdf:RDF>
  </metadata>
  <sodipodi:namedview
     pagecolor="#ffffff"
     bordercolor="#666666"
     borderopacity="1"
     objecttolerance="10"
     gridtolerance="10"
     guidetolerance="10"
     inkscape:pageopacity="0"
     inkscape:pageshadow="2"
     inkscape:window-width="1920"
     inkscape:window-height="1017"
     id="namedview864"
     showgrid="false"
     inkscape:zoom="3.7035124"
     inkscape:cx="96.8"
     inkscape:cy="71.13"
     inkscape:window-x="1912"
     inkscape:window-y="-8"
     inkscape:window-maximized="1"
     inkscape:current-layer="Layer_1"
     inkscape:document-rotation="0" />
  <defs
     id="defs835">
    <style
       id="style833">.cls-1,.cls-2,.cls-3{stroke:#000;stroke-miterlimit:10;}.cls-2,.cls-3{fill:none;}.cls-3{stroke-dasharray:2;}</style>
    <g
       id="g9789">
      <symbol
         overflow="visible"
         id="symbol3248">
        <path
           style="stroke:none;"
           d=""
           id="path6296" />
      </symbol>
      <symbol
         overflow="visible"
         id="symbol2316">
        <path
           style="stroke:none;"
           d="M 0.515625 1.28125 C 0.484375 1.421875 0.46875 1.4375 0.453125 1.453125 C 0.40625 1.46875 0.296875 1.46875 0.203125 1.46875 C 0.03125 1.46875 -0.15625 1.46875 -0.15625 1.75 C -0.15625 1.859375 -0.0625 1.9375 0.046875 1.9375 C 0.328125 1.9375 0.65625 1.90625 0.953125 1.90625 C 1.3125 1.90625 1.6875 1.9375 2.03125 1.9375 C 2.09375 1.9375 2.28125 1.9375 2.28125 1.640625 C 2.28125 1.46875 2.125 1.46875 2.03125 1.46875 C 1.890625 1.46875 1.71875 1.46875 1.59375 1.453125 L 2.03125 -0.28125 C 2.171875 -0.140625 2.5 0.078125 3.03125 0.078125 C 4.765625 0.078125 5.84375 -1.5 5.84375 -2.859375 C 5.84375 -4.09375 4.921875 -4.5 4.09375 -4.5 C 3.390625 -4.5 2.875 -4.109375 2.71875 -3.96875 C 2.328125 -4.5 1.671875 -4.5 1.5625 -4.5 C 1.203125 -4.5 0.90625 -4.296875 0.703125 -3.9375 C 0.453125 -3.53125 0.3125 -3 0.3125 -2.953125 C 0.3125 -2.8125 0.46875 -2.8125 0.5625 -2.8125 C 0.671875 -2.8125 0.703125 -2.8125 0.75 -2.859375 C 0.78125 -2.875 0.78125 -2.90625 0.84375 -3.15625 C 1.03125 -3.953125 1.265625 -4.140625 1.515625 -4.140625 C 1.625 -4.140625 1.75 -4.109375 1.75 -3.78125 C 1.75 -3.625 1.71875 -3.484375 1.6875 -3.34375 Z M 2.8125 -3.5 C 3.09375 -3.84375 3.5625 -4.140625 4.046875 -4.140625 C 4.671875 -4.140625 4.71875 -3.609375 4.71875 -3.390625 C 4.71875 -2.875 4.375 -1.640625 4.21875 -1.25 C 3.90625 -0.53125 3.421875 -0.28125 3.015625 -0.28125 C 2.421875 -0.28125 2.1875 -0.75 2.1875 -0.859375 L 2.203125 -1 Z M 2.8125 -3.5 "
           id="path3134" />
      </symbol>
    </g>
    <g
       id="g2722">
      <symbol
         overflow="visible"
         id="symbol6460">
        <path
           style="stroke:none;"
           d=""
           id="path5251" />
      </symbol>
      <symbol
         overflow="visible"
         id="symbol1993">
        <path
           style="stroke:none;"
           d="M 4.6875 -2.140625 C 4.6875 -3.40625 3.703125 -4.46875 2.5 -4.46875 C 1.25 -4.46875 0.28125 -3.375 0.28125 -2.140625 C 0.28125 -0.84375 1.3125 0.109375 2.484375 0.109375 C 3.6875 0.109375 4.6875 -0.875 4.6875 -2.140625 Z M 2.5 -0.140625 C 2.0625 -0.140625 1.625 -0.34375 1.359375 -0.8125 C 1.109375 -1.25 1.109375 -1.859375 1.109375 -2.21875 C 1.109375 -2.609375 1.109375 -3.140625 1.34375 -3.578125 C 1.609375 -4.03125 2.078125 -4.25 2.484375 -4.25 C 2.921875 -4.25 3.34375 -4.03125 3.609375 -3.59375 C 3.875 -3.171875 3.875 -2.59375 3.875 -2.21875 C 3.875 -1.859375 3.875 -1.3125 3.65625 -0.875 C 3.421875 -0.421875 2.984375 -0.140625 2.5 -0.140625 Z M 2.5 -0.140625 "
           id="path1873" />
      </symbol>
      <symbol
         overflow="visible"
         id="symbol600">
        <path
           style="stroke:none;"
           d="M 4.46875 -3.984375 L 5.609375 -3.984375 L 5.609375 -4.296875 L 4.4375 -4.296875 L 4.4375 -5.453125 C 4.4375 -6.34375 4.921875 -6.8125 5.359375 -6.8125 C 5.390625 -6.8125 5.546875 -6.8125 5.6875 -6.734375 C 5.578125 -6.703125 5.390625 -6.5625 5.390625 -6.3125 C 5.390625 -6.09375 5.546875 -5.890625 5.828125 -5.890625 C 6.109375 -5.890625 6.265625 -6.09375 6.265625 -6.328125 C 6.265625 -6.6875 5.90625 -7.03125 5.359375 -7.03125 C 4.765625 -7.03125 4.328125 -6.65625 4.28125 -6.609375 C 3.984375 -6.984375 3.421875 -7.03125 3.15625 -7.03125 C 2.21875 -7.03125 1.0625 -6.515625 1.0625 -5.4375 L 1.0625 -4.296875 L 0.265625 -4.296875 L 0.265625 -3.984375 L 1.0625 -3.984375 L 1.0625 -0.75 C 1.0625 -0.3125 0.953125 -0.3125 0.28125 -0.3125 L 0.28125 0 C 0.609375 -0.015625 1.140625 -0.03125 1.390625 -0.03125 C 1.640625 -0.03125 2.125 -0.015625 2.5 0 L 2.5 -0.3125 C 1.828125 -0.3125 1.71875 -0.3125 1.71875 -0.75 L 1.71875 -3.984375 L 3.8125 -3.984375 L 3.8125 -0.75 C 3.8125 -0.3125 3.703125 -0.3125 3.03125 -0.3125 L 3.03125 0 C 3.421875 -0.015625 3.890625 -0.03125 4.171875 -0.03125 C 4.5625 -0.03125 5.03125 -0.03125 5.4375 0 L 5.4375 -0.3125 L 5.21875 -0.3125 C 4.484375 -0.3125 4.46875 -0.421875 4.46875 -0.78125 Z M 1.6875 -4.296875 L 1.6875 -5.421875 C 1.6875 -6.390625 2.5 -6.8125 3.15625 -6.8125 C 3.640625 -6.8125 3.921875 -6.625 3.921875 -6.625 L 3.921875 -6.609375 C 3.765625 -6.59375 3.5625 -6.453125 3.5625 -6.1875 C 3.5625 -6.125 3.5625 -5.875 3.84375 -5.78125 C 3.8125 -5.65625 3.8125 -5.5625 3.8125 -5.4375 L 3.8125 -4.296875 Z M 1.6875 -4.296875 "
           id="path5974" />
      </symbol>
      <symbol
         overflow="visible"
         id="symbol9288">
        <path
           style="stroke:none;"
           d="M 2.078125 -1.9375 C 2.296875 -1.890625 3.109375 -1.734375 3.109375 -1.015625 C 3.109375 -0.515625 2.765625 -0.109375 1.984375 -0.109375 C 1.140625 -0.109375 0.78125 -0.671875 0.59375 -1.53125 C 0.5625 -1.65625 0.5625 -1.6875 0.453125 -1.6875 C 0.328125 -1.6875 0.328125 -1.625 0.328125 -1.453125 L 0.328125 -0.125 C 0.328125 0.046875 0.328125 0.109375 0.4375 0.109375 C 0.484375 0.109375 0.5 0.09375 0.6875 -0.09375 C 0.703125 -0.109375 0.703125 -0.125 0.890625 -0.3125 C 1.328125 0.09375 1.78125 0.109375 1.984375 0.109375 C 3.125 0.109375 3.59375 -0.5625 3.59375 -1.28125 C 3.59375 -1.796875 3.296875 -2.109375 3.171875 -2.21875 C 2.84375 -2.546875 2.453125 -2.625 2.03125 -2.703125 C 1.46875 -2.8125 0.8125 -2.9375 0.8125 -3.515625 C 0.8125 -3.875 1.0625 -4.28125 1.921875 -4.28125 C 3.015625 -4.28125 3.078125 -3.375 3.09375 -3.078125 C 3.09375 -2.984375 3.1875 -2.984375 3.203125 -2.984375 C 3.34375 -2.984375 3.34375 -3.03125 3.34375 -3.21875 L 3.34375 -4.234375 C 3.34375 -4.390625 3.34375 -4.46875 3.234375 -4.46875 C 3.1875 -4.46875 3.15625 -4.46875 3.03125 -4.34375 C 3 -4.3125 2.90625 -4.21875 2.859375 -4.1875 C 2.484375 -4.46875 2.078125 -4.46875 1.921875 -4.46875 C 0.703125 -4.46875 0.328125 -3.796875 0.328125 -3.234375 C 0.328125 -2.890625 0.484375 -2.609375 0.75 -2.390625 C 1.078125 -2.140625 1.359375 -2.078125 2.078125 -1.9375 Z M 2.078125 -1.9375 "
           id="path3943" />
      </symbol>
      <symbol
         overflow="visible"
         id="symbol8561">
        <path
           style="stroke:none;"
           d="M 1.109375 -2.515625 C 1.171875 -4 2.015625 -4.25 2.359375 -4.25 C 3.375 -4.25 3.484375 -2.90625 3.484375 -2.515625 Z M 1.109375 -2.296875 L 3.890625 -2.296875 C 4.109375 -2.296875 4.140625 -2.296875 4.140625 -2.515625 C 4.140625 -3.5 3.59375 -4.46875 2.359375 -4.46875 C 1.203125 -4.46875 0.28125 -3.4375 0.28125 -2.1875 C 0.28125 -0.859375 1.328125 0.109375 2.46875 0.109375 C 3.6875 0.109375 4.140625 -1 4.140625 -1.1875 C 4.140625 -1.28125 4.0625 -1.3125 4 -1.3125 C 3.921875 -1.3125 3.890625 -1.25 3.875 -1.171875 C 3.53125 -0.140625 2.625 -0.140625 2.53125 -0.140625 C 2.03125 -0.140625 1.640625 -0.4375 1.40625 -0.8125 C 1.109375 -1.28125 1.109375 -1.9375 1.109375 -2.296875 Z M 1.109375 -2.296875 "
           id="path3820" />
      </symbol>
      <symbol
         overflow="visible"
         id="symbol6798">
        <path
           style="stroke:none;"
           d="M 1.71875 -3.984375 L 3.15625 -3.984375 L 3.15625 -4.296875 L 1.71875 -4.296875 L 1.71875 -6.125 L 1.46875 -6.125 C 1.46875 -5.3125 1.171875 -4.25 0.1875 -4.203125 L 0.1875 -3.984375 L 1.03125 -3.984375 L 1.03125 -1.234375 C 1.03125 -0.015625 1.96875 0.109375 2.328125 0.109375 C 3.03125 0.109375 3.3125 -0.59375 3.3125 -1.234375 L 3.3125 -1.796875 L 3.0625 -1.796875 L 3.0625 -1.25 C 3.0625 -0.515625 2.765625 -0.140625 2.390625 -0.140625 C 1.71875 -0.140625 1.71875 -1.046875 1.71875 -1.21875 Z M 1.71875 -3.984375 "
           id="path3507" />
      </symbol>
    </g>
  </defs>
  <title
     id="title837">Offset and round up</title>
  <circle
     class="cls-1"
     cx="96.97"
     cy="79.52"
     r="2.35"
     id="circle839" />
  <rect
     class="cls-2"
     x="0.5"
     y="17.64"
     width="192.6"
     height="124.12"
     id="rect841" />
  <circle
     class="cls-1"
     cx="141.11"
     cy="33.93"
     r="2.35"
     id="circle843" />
  <circle
     class="cls-1"
     cx="171.48"
     cy="2.85"
     r="2.35"
     id="circle845" />
  <line
     class="cls-3"
     x1="141.24"
     y1="33.82"
     x2="172.65"
     y2="1.68"
     id="line847" />
  <line
     class="cls-2"
     x1="96.48"
     y1="79.49"
     x2="141.24"
     y2="33.82"
     id="line849" />
  <g
     inkscape:label=""
     transform="matrix(1.2,0,0,1.2,-17.408702,-6.7358218)"
     id="g892">
    <g
       id="g8659">
      <g
         style="fill:#000000;fill-opacity:1"
         id="g8815">
        <use
           xlink:href="#symbol2316"
           x="91.925003"
           y="81.962997"
           id="use1629"
           width="100%"
           height="100%" />
      </g>
    </g>
  </g>
  <g
     inkscape:label=""
     transform="matrix(1.2,0,0,1.2,42.480392,-62.790716)"
     id="g949">
    <g
       id="g3297">
      <g
         style="fill:#000000;fill-opacity:1"
         id="g5464">
        <use
           xlink:href="#symbol1993"
           x="91.925003"
           y="81.962997"
           id="use7625"
           width="100%"
           height="100%" />
        <use
           xlink:href="#symbol600"
           x="96.906303"
           y="81.962997"
           id="use82"
           width="100%"
           height="100%" />
        <use
           xlink:href="#symbol9288"
           x="102.71748"
           y="81.962997"
           id="use3214"
           width="100%"
           height="100%" />
        <use
           xlink:href="#symbol8561"
           x="106.64674"
           y="81.962997"
           id="use5868"
           width="100%"
           height="100%" />
        <use
           xlink:href="#symbol6798"
           x="111.07411"
           y="81.962997"
           id="use9392"
           width="100%"
           height="100%" />
      </g>
    </g>
  </g>
</svg>
