<svg id="Layer_1" data-name="Layer 1" xmlns="http://www.w3.org/2000/svg" viewBox="0 0 315.43 293.66"><defs><style>.cls-1,.cls-2,.cls-3,.cls-5,.cls-8{stroke:#000;}.cls-1,.cls-2,.cls-3,.cls-4,.cls-5,.cls-8{stroke-miterlimit:10;}.cls-2,.cls-3,.cls-4,.cls-5{fill:none;}.cls-2{stroke-width:1.5px;}.cls-4{stroke:gray;}.cls-5{stroke-dasharray:2;}.cls-6{fill:#a6a6a6;}.cls-7{fill:#666;}.cls-8{fill:#fff;}</style></defs><title>Offset ray origin with normal and error</title><circle class="cls-1" cx="165.96" cy="141.99" r="2.35"/><path class="cls-2" d="M0,97.33c35.24-1.11,95.53-.56,111.15,26.59S127.51,184.3,149,201.47s25.06,44.32,31.23,74.24"/><rect class="cls-3" x="69.49" y="80.12" width="192.6" height="124.12"/><line class="cls-4" x1="23.99" y1="150.32" x2="142.58" y2="293.34"/><line class="cls-4" x1="196.46" y1="0.32" x2="315.05" y2="143.34"/><line class="cls-5" x1="208.35" y1="105.39" x2="254.05" y2="66.34"/><line class="cls-3" x1="168.27" y1="139.65" x2="202.19" y2="110.66"/><polygon points="202.03 118.03 201.69 111.08 194.88 109.67 208.35 105.39 202.03 118.03"/><polygon class="cls-6" points="202.44 116.11 207.35 106.25 202.17 110.67 202.44 116.11"/><polygon class="cls-7" points="196.85 109.57 207.35 106.25 202.17 110.67 196.85 109.57"/><line class="cls-5" x1="78.96" y1="215.98" x2="168.27" y2="139.65"/><circle class="cls-8" cx="252.38" cy="67.89" r="2.35"/><circle class="cls-8" cx="79.26" cy="216.55" r="2.35"/></svg>