<svg id="Layer_1" data-name="Layer 1" xmlns="http://www.w3.org/2000/svg" viewBox="0 0 505.31 398.66"><defs><style>.cls-1{fill:#fff;}.cls-1,.cls-2,.cls-3,.cls-4,.cls-6{stroke:#000;}.cls-1,.cls-2,.cls-3,.cls-4,.cls-5,.cls-6,.cls-7{stroke-miterlimit:10;}.cls-2,.cls-4,.cls-5,.cls-7{fill:none;}.cls-3{fill:#999;}.cls-4,.cls-5{stroke-dasharray:2;}.cls-5,.cls-7{stroke:#999;}</style></defs><title>Polygon intersect project</title><polygon class="cls-1" points="215.15 129.29 245.27 148.76 300.28 110.38 275.4 46.43 196.38 35.86 152.72 81.46 228.25 86.47 215.15 129.29"/><polygon class="cls-2" points="337.72 398.16 33.41 396.87 121.23 225.45 425.54 226.74 337.72 398.16"/><polygon class="cls-3" points="215.6 340.38 245.72 355.66 300.73 325.54 275.85 275.33 196.83 267.04 153.17 302.84 228.7 306.76 215.6 340.38"/><polygon class="cls-2" points="320.79 191.98 1.25 126.7 184.52 0.53 504.06 65.82 320.79 191.98"/><line class="cls-4" x1="245.6" y1="176.34" x2="245.6" y2="356.24"/><line class="cls-5" x1="245.6" y1="148.89" x2="245.6" y2="176.34"/><line class="cls-4" x1="300.59" y1="187.83" x2="300.59" y2="324.66"/><line class="cls-5" x1="300.59" y1="110.31" x2="300.59" y2="187.83"/><line class="cls-4" x1="215.29" y1="170.44" x2="215.29" y2="341.11"/><line class="cls-5" x1="215.29" y1="128.5" x2="215.29" y2="170.44"/><line class="cls-4" x1="229.24" y1="173.45" x2="229.24" y2="306.75"/><line class="cls-5" x1="229.24" y1="86.72" x2="229.24" y2="173.45"/><line class="cls-4" x1="152.27" y1="157.56" x2="152.27" y2="302.26"/><line class="cls-5" x1="152.27" y1="80.48" x2="152.27" y2="157.56"/><line class="cls-4" x1="196.66" y1="166.58" x2="196.66" y2="266.6"/><line class="cls-5" x1="196.66" y1="35.66" x2="196.66" y2="166.58"/><line class="cls-4" x1="275.38" y1="182.57" x2="275.38" y2="275.33"/><line class="cls-5" x1="275.38" y1="45.7" x2="275.38" y2="182.57"/><circle class="cls-1" cx="228.34" cy="86.5" r="2.35"/><circle class="cls-6" cx="267.73" cy="313.26" r="2.35"/><circle class="cls-1" cx="214.7" cy="129.5" r="2.35"/><circle class="cls-1" cx="245.63" cy="148.37" r="2.35"/><circle class="cls-1" cx="275.07" cy="46.37" r="2.35"/><circle class="cls-1" cx="196.07" cy="36.05" r="2.35"/><circle class="cls-1" cx="152.07" cy="81.29" r="2.35"/><circle class="cls-1" cx="300.21" cy="111.15" r="2.35"/><circle class="cls-1" cx="229.11" cy="306.69" r="2.35"/><circle class="cls-1" cx="275.63" cy="275.66" r="2.35"/><circle class="cls-1" cx="300.47" cy="325.26" r="2.35"/><circle class="cls-1" cx="245.61" cy="355.58" r="2.35"/><circle class="cls-1" cx="215.7" cy="340.63" r="2.35"/><circle class="cls-1" cx="196.94" cy="266.72" r="2.35"/><circle class="cls-1" cx="152.01" cy="303.18" r="2.35"/><line class="cls-2" x1="267.73" y1="181.16" x2="267.73" y2="312.57"/><line class="cls-7" x1="267.73" y1="90.46" x2="267.73" y2="181.16"/><circle class="cls-6" cx="267.73" cy="90.46" r="2.35"/></svg>