<svg id="Layer_1" data-name="Layer 1" xmlns="http://www.w3.org/2000/svg" viewBox="0 0 127.6 153.69"><defs><style>.cls-1,.cls-2{fill:none;}.cls-1,.cls-2,.cls-5,.cls-6{stroke:#000;stroke-miterlimit:10;}.cls-2{stroke-dasharray:2;}.cls-3{fill:#a6a6a6;}.cls-4{fill:#666;}.cls-5{fill:#fff;}</style></defs><title>Reintersect refine</title><line class="cls-1" x1="22.57" y1="153.32" x2="127.26" y2="57.29"/><line class="cls-2" x1="22.29" y1="49.75" x2="44.06" y2="99.17"/><line class="cls-1" x1="0.46" y1="0.2" x2="19.02" y2="42.34"/><polygon points="12.01 40.06 18.76 41.74 22.08 35.63 22.29 49.75 12.01 40.06"/><polygon class="cls-3" points="13.73 41.01 21.76 48.55 19.01 42.32 13.73 41.01"/><polygon class="cls-4" points="21.6 37.54 21.76 48.55 19.01 42.32 21.6 37.54"/><line class="cls-2" x1="63.16" y1="97.79" x2="74.08" y2="122.57"/><line class="cls-1" x1="53.38" y1="75.19" x2="60.97" y2="92.41"/><polygon points="53.95 90.14 60.7 91.82 64.02 85.7 64.23 99.83 53.95 90.14"/><polygon class="cls-3" points="55.68 91.08 63.7 98.63 60.96 92.4 55.68 91.08"/><polygon class="cls-4" points="63.55 87.61 63.7 98.63 60.96 92.4 63.55 87.61"/><circle class="cls-5" cx="72.68" cy="119.25" r="2.35"/><circle class="cls-6" cx="53.46" cy="75.21" r="2.35"/></svg>