<svg id="Layer_1" data-name="Layer 1" xmlns="http://www.w3.org/2000/svg" viewBox="0 0 384.52 248.15"><defs><style>.cls-1,.cls-2{fill:none;}.cls-1,.cls-2,.cls-5,.cls-6,.cls-7{stroke:#000;stroke-miterlimit:10;}.cls-1{stroke-dasharray:2;}.cls-3{fill:#a6a6a6;}.cls-4{fill:#666;}.cls-5{fill:#fcee21;stroke-width:0.3px;}.cls-7{fill:#fff;}</style></defs><title>Self intersection cases</title><line class="cls-1" x1="219.85" y1="114.78" x2="190.47" y2="38.4"/><line class="cls-2" x1="236.88" y1="158.74" x2="220.97" y2="117.7"/><polygon points="227.88 120.29 221.2 118.31 217.61 124.27 218.04 110.15 227.88 120.29"/><polygon class="cls-3" points="226.19 119.27 218.51 111.37 220.98 117.72 226.19 119.27"/><polygon class="cls-4" points="218.18 122.38 218.51 111.37 220.98 117.72 218.18 122.38"/><polyline class="cls-1" points="304.55 108.24 261.9 224.11 236.11 156.65"/><line class="cls-2" x1="320.83" y1="63.99" x2="307.35" y2="100.63"/><polygon points="303.88 94.12 307.57 100.02 314.21 97.92 304.55 108.24 303.88 94.12"/><polygon class="cls-3" points="304.47 96 305 107 307.35 100.61 304.47 96"/><polygon class="cls-4" points="312.54 98.97 305 107 307.35 100.61 312.54 98.97"/><line class="cls-1" x1="132.73" y1="159.03" x2="188.09" y2="40.58"/><line class="cls-2" x1="110" y1="207.27" x2="129.28" y2="166.36"/><polygon points="132.16 173.15 129 166.95 122.21 168.46 132.73 159.03 132.16 173.15"/><polygon class="cls-3" points="131.74 171.23 132.18 160.22 129.27 166.38 131.74 171.23"/><polygon class="cls-4" points="123.96 167.56 132.18 160.22 129.27 166.38 123.96 167.56"/><polyline class="cls-1" points="73.42 133.57 102.58 223.12 110 207.28"/><line class="cls-2" x1="58.33" y1="87.21" x2="70.91" y2="125.86"/><polygon points="64.16 122.9 70.71 125.25 74.63 119.49 73.42 133.57 64.16 122.9"/><polygon class="cls-3" points="65.78 124.01 73.02 132.32 70.91 125.84 65.78 124.01"/><polygon class="cls-4" points="73.96 121.35 73.02 132.32 70.91 125.84 73.96 121.35"/><polygon class="cls-5" points="195.71 17.51 194.14 27.18 199.09 18.73 195.76 27.95 202.18 20.54 197.22 28.99 204.89 22.89 198.46 30.29 207.12 25.7 199.44 31.79 208.79 28.88 200.13 33.45 209.86 32.3 200.5 35.2 210.28 35.86 200.54 36.99 210.03 39.44 200.25 38.76 209.13 42.91 199.64 40.45 207.61 46.16 198.74 42 205.52 49.08 197.56 43.35 202.93 51.55 196.16 44.47 199.92 53.52 194.57 45.3 196.61 54.89 192.86 45.84 193.1 55.63 191.08 46.04 189.51 55.72 189.29 45.92 185.97 55.15 187.55 45.47 182.6 53.93 185.93 44.71 179.5 52.12 184.47 43.66 176.8 49.76 183.23 42.37 174.57 46.95 182.25 40.87 172.89 43.78 181.56 39.21 171.83 40.36 181.19 37.46 171.41 36.79 181.15 35.66 171.66 33.22 181.44 33.89 172.56 29.74 182.04 32.21 174.08 26.49 182.95 30.66 176.17 23.58 184.13 29.3 178.76 21.1 185.53 28.19 181.77 19.14 187.12 27.35 185.08 17.77 188.83 26.82 188.59 17.02 190.61 26.61 192.17 16.94 192.4 26.73 195.71 17.51"/><line class="cls-2" x1="36.7" y1="193.16" x2="345.43" y2="193.16"/><circle class="cls-6" cx="102.36" cy="222.87" r="2.35"/><circle class="cls-6" cx="261.91" cy="222.87" r="2.35"/><line class="cls-2" x1="225.4" y1="181.19" x2="258.75" y2="163.07"/><circle class="cls-7" cx="109.37" cy="209.2" r="2.35"/><circle class="cls-7" cx="237.72" cy="160.8" r="2.35"/></svg>