<svg id="Layer_1" data-name="Layer 1" xmlns="http://www.w3.org/2000/svg" viewBox="0 0 311.59 120.58"><defs><style>.cls-1,.cls-3{fill:none;}.cls-1,.cls-2,.cls-3,.cls-6{stroke:#000;stroke-miterlimit:10;}.cls-3{stroke-dasharray:2;}.cls-4{fill:#a6a6a6;}.cls-5{fill:#666;}.cls-6{fill:#fff;}</style></defs><title>Self intersection oblique ray</title><line class="cls-1" y1="88.02" x2="308.73" y2="88.02"/><circle class="cls-2" cx="65.65" cy="117.73" r="2.35"/><line class="cls-3" x1="129.73" y1="104.59" x2="311.49" y2="67.3"/><line class="cls-3" x1="120.31" y1="106.52" x2="129.73" y2="104.59"/><line class="cls-1" x1="65.65" y1="117.73" x2="112.38" y2="108.15"/><polygon points="108.67 114.53 111.74 108.28 106.46 103.74 120.31 106.52 108.67 114.53"/><polygon class="cls-4" points="109.96 113.03 119.03 106.78 112.36 108.15 109.96 113.03"/><polygon class="cls-5" points="108.23 104.61 119.03 106.78 112.36 108.15 108.23 104.61"/><line class="cls-3" x1="43.9" y1="44.71" x2="65.65" y2="117.73"/><line class="cls-1" x1="30.62" y1="0.14" x2="41.58" y2="36.94"/><polygon points="34.91 33.81 41.4 36.32 45.46 30.66 43.9 44.71 34.91 33.81"/><polygon class="cls-4" points="36.5 34.96 43.52 43.45 41.58 36.92 36.5 34.96"/><polygon class="cls-5" points="44.74 32.5 43.52 43.45 41.58 36.92 44.74 32.5"/><circle class="cls-6" cx="209.77" cy="88.04" r="2.35"/></svg>