<?xml version="1.0" encoding="UTF-8" standalone="no"?>
<svg
   xmlns:dc="http://purl.org/dc/elements/1.1/"
   xmlns:cc="http://creativecommons.org/ns#"
   xmlns:rdf="http://www.w3.org/1999/02/22-rdf-syntax-ns#"
   xmlns:svg="http://www.w3.org/2000/svg"
   xmlns="http://www.w3.org/2000/svg"
   xmlns:xlink="http://www.w3.org/1999/xlink"
   xmlns:sodipodi="http://sodipodi.sourceforge.net/DTD/sodipodi-0.dtd"
   xmlns:inkscape="http://www.inkscape.org/namespaces/inkscape"
   id="Layer_1"
   data-name="Layer 1"
   viewBox="0 0 435.9 451.14"
   version="1.1"
   sodipodi:docname="Spheresetting.svg"
   inkscape:version="1.0.1 (3bc2e813f5, 2020-09-07)">
  <metadata
     id="metadata130">
    <rdf:RDF>
      <cc:Work
         rdf:about="">
        <dc:format>image/svg+xml</dc:format>
        <dc:type
           rdf:resource="http://purl.org/dc/dcmitype/StillImage" />
      </cc:Work>
    </rdf:RDF>
  </metadata>
  <sodipodi:namedview
     pagecolor="#ffffff"
     bordercolor="#666666"
     borderopacity="1"
     objecttolerance="10"
     gridtolerance="10"
     guidetolerance="10"
     inkscape:pageopacity="0"
     inkscape:pageshadow="2"
     inkscape:window-width="1920"
     inkscape:window-height="1017"
     id="namedview128"
     showgrid="false"
     inkscape:zoom="1.7091076"
     inkscape:cx="217.95"
     inkscape:cy="225.57"
     inkscape:window-x="1912"
     inkscape:window-y="-8"
     inkscape:window-maximized="1"
     inkscape:current-layer="Layer_1"
     inkscape:document-rotation="0" />
  <defs
     id="defs73">
    <style
       id="style71">.cls-1,.cls-2,.cls-3{fill:none;stroke-miterlimit:10;}.cls-1{stroke:gray;}.cls-2,.cls-3{stroke:#000;}.cls-3{stroke-dasharray:4;}.cls-4{fill:#a6a6a6;}.cls-5{fill:#666;}</style>
    <g
       id="g6459">
      <symbol
         overflow="visible"
         id="symbol2129">
        <path
           style="stroke:none;"
           d=""
           id="path5766" />
      </symbol>
      <symbol
         overflow="visible"
         id="symbol6397">
        <path
           style="stroke:none;"
           d="M 3.328125 -3.015625 C 3.390625 -3.265625 3.625 -4.1875 4.3125 -4.1875 C 4.359375 -4.1875 4.609375 -4.1875 4.8125 -4.0625 C 4.53125 -4 4.34375 -3.765625 4.34375 -3.515625 C 4.34375 -3.359375 4.453125 -3.171875 4.71875 -3.171875 C 4.9375 -3.171875 5.25 -3.34375 5.25 -3.75 C 5.25 -4.265625 4.671875 -4.40625 4.328125 -4.40625 C 3.75 -4.40625 3.40625 -3.875 3.28125 -3.65625 C 3.03125 -4.3125 2.5 -4.40625 2.203125 -4.40625 C 1.171875 -4.40625 0.59375 -3.125 0.59375 -2.875 C 0.59375 -2.765625 0.703125 -2.765625 0.71875 -2.765625 C 0.796875 -2.765625 0.828125 -2.796875 0.84375 -2.875 C 1.1875 -3.9375 1.84375 -4.1875 2.1875 -4.1875 C 2.375 -4.1875 2.71875 -4.09375 2.71875 -3.515625 C 2.71875 -3.203125 2.546875 -2.546875 2.1875 -1.140625 C 2.03125 -0.53125 1.671875 -0.109375 1.234375 -0.109375 C 1.171875 -0.109375 0.953125 -0.109375 0.734375 -0.234375 C 0.984375 -0.296875 1.203125 -0.5 1.203125 -0.78125 C 1.203125 -1.046875 0.984375 -1.125 0.84375 -1.125 C 0.53125 -1.125 0.296875 -0.875 0.296875 -0.546875 C 0.296875 -0.09375 0.78125 0.109375 1.21875 0.109375 C 1.890625 0.109375 2.25 -0.59375 2.265625 -0.640625 C 2.390625 -0.28125 2.75 0.109375 3.34375 0.109375 C 4.375 0.109375 4.9375 -1.171875 4.9375 -1.421875 C 4.9375 -1.53125 4.859375 -1.53125 4.828125 -1.53125 C 4.734375 -1.53125 4.71875 -1.484375 4.6875 -1.421875 C 4.359375 -0.34375 3.6875 -0.109375 3.375 -0.109375 C 2.984375 -0.109375 2.828125 -0.421875 2.828125 -0.765625 C 2.828125 -0.984375 2.875 -1.203125 2.984375 -1.640625 Z M 3.328125 -3.015625 "
           id="path153" />
      </symbol>
    </g>
    <g
       id="g4629">
      <symbol
         overflow="visible"
         id="symbol1395">
        <path
           style="stroke:none;"
           d=""
           id="path6166" />
      </symbol>
      <symbol
         overflow="visible"
         id="symbol5308">
        <path
           style="stroke:none;"
           d="M 4.84375 -3.796875 C 4.890625 -3.9375 4.890625 -3.953125 4.890625 -4.03125 C 4.890625 -4.203125 4.75 -4.296875 4.59375 -4.296875 C 4.5 -4.296875 4.34375 -4.234375 4.25 -4.09375 C 4.234375 -4.03125 4.140625 -3.734375 4.109375 -3.546875 C 4.03125 -3.296875 3.96875 -3.015625 3.90625 -2.75 L 3.453125 -0.953125 C 3.421875 -0.8125 2.984375 -0.109375 2.328125 -0.109375 C 1.828125 -0.109375 1.71875 -0.546875 1.71875 -0.921875 C 1.71875 -1.375 1.890625 -2 2.21875 -2.875 C 2.375 -3.28125 2.421875 -3.390625 2.421875 -3.59375 C 2.421875 -4.03125 2.109375 -4.40625 1.609375 -4.40625 C 0.65625 -4.40625 0.296875 -2.953125 0.296875 -2.875 C 0.296875 -2.765625 0.390625 -2.765625 0.40625 -2.765625 C 0.515625 -2.765625 0.515625 -2.796875 0.5625 -2.953125 C 0.84375 -3.890625 1.234375 -4.1875 1.578125 -4.1875 C 1.65625 -4.1875 1.828125 -4.1875 1.828125 -3.875 C 1.828125 -3.625 1.71875 -3.359375 1.65625 -3.171875 C 1.25 -2.109375 1.078125 -1.546875 1.078125 -1.078125 C 1.078125 -0.1875 1.703125 0.109375 2.296875 0.109375 C 2.6875 0.109375 3.015625 -0.0625 3.296875 -0.34375 C 3.171875 0.171875 3.046875 0.671875 2.65625 1.203125 C 2.390625 1.53125 2.015625 1.828125 1.5625 1.828125 C 1.421875 1.828125 0.96875 1.796875 0.796875 1.40625 C 0.953125 1.40625 1.09375 1.40625 1.21875 1.28125 C 1.328125 1.203125 1.421875 1.0625 1.421875 0.875 C 1.421875 0.5625 1.15625 0.53125 1.0625 0.53125 C 0.828125 0.53125 0.5 0.6875 0.5 1.171875 C 0.5 1.671875 0.9375 2.046875 1.5625 2.046875 C 2.578125 2.046875 3.609375 1.140625 3.890625 0.015625 Z M 4.84375 -3.796875 "
           id="path5165" />
      </symbol>
    </g>
    <g
       id="g9487">
      <symbol
         overflow="visible"
         id="symbol8385">
        <path
           style="stroke:none;"
           d=""
           id="path7385" />
      </symbol>
      <symbol
         overflow="visible"
         id="symbol2391">
        <path
           style="stroke:none;"
           d="M 1.328125 -0.828125 C 1.859375 -1.40625 2.15625 -1.65625 2.515625 -1.96875 C 2.515625 -1.96875 3.125 -2.5 3.484375 -2.859375 C 4.4375 -3.78125 4.65625 -4.265625 4.65625 -4.3125 C 4.65625 -4.40625 4.5625 -4.40625 4.546875 -4.40625 C 4.46875 -4.40625 4.453125 -4.390625 4.390625 -4.296875 C 4.09375 -3.8125 3.890625 -3.65625 3.65625 -3.65625 C 3.40625 -3.65625 3.296875 -3.8125 3.140625 -3.984375 C 2.953125 -4.203125 2.78125 -4.40625 2.453125 -4.40625 C 1.703125 -4.40625 1.25 -3.484375 1.25 -3.265625 C 1.25 -3.21875 1.28125 -3.15625 1.359375 -3.15625 C 1.453125 -3.15625 1.46875 -3.203125 1.5 -3.265625 C 1.6875 -3.734375 2.265625 -3.734375 2.34375 -3.734375 C 2.546875 -3.734375 2.734375 -3.671875 2.96875 -3.59375 C 3.375 -3.4375 3.484375 -3.4375 3.734375 -3.4375 C 3.375 -3.015625 2.546875 -2.296875 2.359375 -2.140625 L 1.453125 -1.296875 C 0.78125 -0.625 0.421875 -0.0625 0.421875 0.015625 C 0.421875 0.109375 0.53125 0.109375 0.546875 0.109375 C 0.625 0.109375 0.640625 0.09375 0.703125 -0.015625 C 0.9375 -0.375 1.234375 -0.640625 1.5625 -0.640625 C 1.78125 -0.640625 1.890625 -0.546875 2.140625 -0.265625 C 2.296875 -0.046875 2.484375 0.109375 2.765625 0.109375 C 3.765625 0.109375 4.34375 -1.15625 4.34375 -1.421875 C 4.34375 -1.46875 4.296875 -1.53125 4.21875 -1.53125 C 4.125 -1.53125 4.109375 -1.46875 4.078125 -1.390625 C 3.84375 -0.75 3.203125 -0.5625 2.875 -0.5625 C 2.6875 -0.5625 2.5 -0.625 2.296875 -0.6875 C 1.953125 -0.8125 1.796875 -0.859375 1.59375 -0.859375 C 1.578125 -0.859375 1.421875 -0.859375 1.328125 -0.828125 Z M 1.328125 -0.828125 "
           id="path4112" />
      </symbol>
    </g>
    <g
       id="g507">
      <symbol
         overflow="visible"
         id="symbol7631">
        <path
           style="stroke:none;"
           d=""
           id="path1569" />
      </symbol>
      <symbol
         overflow="visible"
         id="symbol207">
        <path
           style="stroke:none;"
           d="M 1.6875 1.6875 C 1.65625 1.828125 1.640625 1.84375 1.640625 1.890625 C 1.640625 2.109375 1.828125 2.171875 1.9375 2.171875 C 1.984375 2.171875 2.203125 2.140625 2.296875 1.90625 C 2.328125 1.828125 2.375 1.5 2.65625 0.09375 C 2.734375 0.09375 2.8125 0.109375 2.984375 0.109375 C 4.640625 0.109375 6.171875 -1.453125 6.171875 -3.03125 C 6.171875 -3.8125 5.78125 -4.40625 5.03125 -4.40625 C 3.59375 -4.40625 2.984375 -2.46875 2.390625 -0.53125 C 1.3125 -0.734375 0.75 -1.28125 0.75 -2 C 0.75 -2.28125 0.984375 -3.375 1.578125 -4.0625 C 1.671875 -4.15625 1.671875 -4.171875 1.671875 -4.203125 C 1.671875 -4.234375 1.640625 -4.296875 1.546875 -4.296875 C 1.265625 -4.296875 0.5 -2.84375 0.5 -1.890625 C 0.5 -0.953125 1.15625 -0.234375 2.21875 0.015625 Z M 3.078125 -0.46875 C 2.984375 -0.46875 2.96875 -0.46875 2.890625 -0.484375 C 2.765625 -0.484375 2.765625 -0.484375 2.765625 -0.515625 C 2.765625 -0.53125 2.9375 -1.453125 2.953125 -1.59375 C 3.265625 -2.875 4.046875 -3.828125 4.9375 -3.828125 C 5.625 -3.828125 5.890625 -3.296875 5.890625 -2.8125 C 5.890625 -1.6875 4.609375 -0.46875 3.078125 -0.46875 Z M 3.078125 -0.46875 "
           id="path1601" />
      </symbol>
      <symbol
         overflow="visible"
         id="symbol2733">
        <path
           style="stroke:none;"
           d=""
           id="path2830" />
      </symbol>
      <symbol
         overflow="visible"
         id="symbol3221">
        <path
           style="stroke:none;"
           d="M 5.734375 -2.109375 C 5.734375 -2.71875 5.421875 -3.078125 4.6875 -3.078125 C 4.125 -3.078125 3.75 -2.78125 3.5625 -2.421875 C 3.421875 -2.921875 3.046875 -3.078125 2.546875 -3.078125 C 1.96875 -3.078125 1.609375 -2.765625 1.40625 -2.390625 L 1.40625 -3.078125 L 0.375 -3 L 0.375 -2.75 C 0.84375 -2.75 0.90625 -2.703125 0.90625 -2.359375 L 0.90625 -0.546875 C 0.90625 -0.25 0.828125 -0.25 0.375 -0.25 L 0.375 0 C 0.390625 0 0.875 -0.03125 1.171875 -0.03125 C 1.421875 -0.03125 1.90625 0 1.96875 0 L 1.96875 -0.25 C 1.515625 -0.25 1.453125 -0.25 1.453125 -0.546875 L 1.453125 -1.8125 C 1.453125 -2.53125 2.03125 -2.875 2.484375 -2.875 C 2.96875 -2.875 3.03125 -2.5 3.03125 -2.140625 L 3.03125 -0.546875 C 3.03125 -0.25 2.96875 -0.25 2.515625 -0.25 L 2.515625 0 C 2.53125 0 3.015625 -0.03125 3.3125 -0.03125 C 3.5625 -0.03125 4.046875 0 4.109375 0 L 4.109375 -0.25 C 3.65625 -0.25 3.59375 -0.25 3.59375 -0.546875 L 3.59375 -1.8125 C 3.59375 -2.53125 4.171875 -2.875 4.625 -2.875 C 5.109375 -2.875 5.171875 -2.5 5.171875 -2.140625 L 5.171875 -0.546875 C 5.171875 -0.25 5.109375 -0.25 4.65625 -0.25 L 4.65625 0 C 4.671875 0 5.15625 -0.03125 5.453125 -0.03125 C 5.703125 -0.03125 6.1875 0 6.25 0 L 6.25 -0.25 C 5.796875 -0.25 5.734375 -0.25 5.734375 -0.546875 Z M 5.734375 -2.109375 "
           id="path188" />
      </symbol>
      <symbol
         overflow="visible"
         id="symbol1908">
        <path
           style="stroke:none;"
           d="M 3.109375 -1.875 C 3.109375 -2.234375 3.109375 -2.5 2.78125 -2.765625 C 2.5 -3 2.171875 -3.109375 1.75 -3.109375 C 1.09375 -3.109375 0.625 -2.859375 0.625 -2.4375 C 0.625 -2.203125 0.78125 -2.09375 0.96875 -2.09375 C 1.15625 -2.09375 1.296875 -2.234375 1.296875 -2.421875 C 1.296875 -2.53125 1.234375 -2.6875 1.046875 -2.734375 C 1.296875 -2.90625 1.703125 -2.90625 1.734375 -2.90625 C 2.125 -2.90625 2.5625 -2.65625 2.5625 -2.0625 L 2.5625 -1.859375 C 2.171875 -1.84375 1.71875 -1.8125 1.203125 -1.625 C 0.578125 -1.40625 0.390625 -1.015625 0.390625 -0.703125 C 0.390625 -0.109375 1.109375 0.0625 1.609375 0.0625 C 2.15625 0.0625 2.484375 -0.25 2.640625 -0.515625 C 2.65625 -0.234375 2.84375 0.03125 3.171875 0.03125 C 3.1875 0.03125 3.859375 0.03125 3.859375 -0.625 L 3.859375 -1.015625 L 3.625 -1.015625 L 3.625 -0.640625 C 3.625 -0.5625 3.625 -0.234375 3.359375 -0.234375 C 3.109375 -0.234375 3.109375 -0.5625 3.109375 -0.640625 Z M 2.5625 -0.984375 C 2.5625 -0.3125 1.96875 -0.125 1.65625 -0.125 C 1.296875 -0.125 0.96875 -0.359375 0.96875 -0.703125 C 0.96875 -1.09375 1.296875 -1.625 2.5625 -1.671875 Z M 2.5625 -0.984375 "
           id="path7860" />
      </symbol>
      <symbol
         overflow="visible"
         id="symbol1807">
        <path
           style="stroke:none;"
           d="M 2.359375 -1.5625 C 2.359375 -1.5625 2.3125 -1.625 2.3125 -1.625 C 2.3125 -1.65625 2.765625 -2.140625 2.828125 -2.203125 C 3.078125 -2.484375 3.3125 -2.75 3.875 -2.75 L 3.875 -3 C 3.671875 -2.984375 3.46875 -2.96875 3.28125 -2.96875 C 3.078125 -2.96875 2.796875 -2.984375 2.59375 -3 L 2.59375 -2.75 C 2.703125 -2.734375 2.734375 -2.65625 2.734375 -2.59375 C 2.734375 -2.578125 2.734375 -2.46875 2.625 -2.359375 L 2.140625 -1.8125 L 1.5625 -2.46875 C 1.484375 -2.546875 1.484375 -2.578125 1.484375 -2.609375 C 1.484375 -2.703125 1.578125 -2.75 1.671875 -2.75 L 1.671875 -3 C 1.421875 -2.984375 1.15625 -2.96875 0.890625 -2.96875 C 0.6875 -2.96875 0.421875 -2.984375 0.21875 -3 L 0.21875 -2.75 C 0.53125 -2.75 0.71875 -2.75 0.90625 -2.546875 L 1.765625 -1.546875 C 1.78125 -1.53125 1.828125 -1.484375 1.828125 -1.46875 C 1.828125 -1.453125 1.296875 -0.875 1.234375 -0.796875 C 0.96875 -0.515625 0.734375 -0.265625 0.1875 -0.25 L 0.1875 0 C 0.390625 -0.015625 0.546875 -0.03125 0.765625 -0.03125 C 0.96875 -0.03125 1.25 -0.015625 1.453125 0 L 1.453125 -0.25 C 1.375 -0.265625 1.3125 -0.3125 1.3125 -0.40625 C 1.3125 -0.546875 1.390625 -0.640625 1.5 -0.75 L 2 -1.296875 L 2.59375 -0.59375 C 2.734375 -0.453125 2.734375 -0.4375 2.734375 -0.390625 C 2.734375 -0.265625 2.578125 -0.25 2.546875 -0.25 L 2.546875 0 C 2.609375 0 3.109375 -0.03125 3.328125 -0.03125 C 3.546875 -0.03125 3.78125 -0.015625 4 0 L 4 -0.25 C 3.53125 -0.25 3.484375 -0.296875 3.3125 -0.46875 Z M 2.359375 -1.5625 "
           id="path5942" />
      </symbol>
    </g>
    <g
       id="g6899">
      <symbol
         overflow="visible"
         id="symbol5299">
        <path
           style="stroke:none;"
           d=""
           id="path187" />
      </symbol>
      <symbol
         overflow="visible"
         id="symbol4283">
        <path
           style="stroke:none;"
           d="M 0.875 -0.59375 C 0.84375 -0.4375 0.78125 -0.203125 0.78125 -0.15625 C 0.78125 0.015625 0.921875 0.109375 1.078125 0.109375 C 1.203125 0.109375 1.375 0.03125 1.453125 -0.171875 C 1.46875 -0.203125 1.796875 -1.5625 1.84375 -1.75 C 1.921875 -2.078125 2.109375 -2.765625 2.15625 -3.046875 C 2.203125 -3.171875 2.484375 -3.640625 2.71875 -3.859375 C 2.796875 -3.921875 3.09375 -4.1875 3.515625 -4.1875 C 3.78125 -4.1875 3.921875 -4.0625 3.9375 -4.0625 C 3.640625 -4.015625 3.421875 -3.78125 3.421875 -3.515625 C 3.421875 -3.359375 3.53125 -3.171875 3.796875 -3.171875 C 4.0625 -3.171875 4.34375 -3.40625 4.34375 -3.765625 C 4.34375 -4.109375 4.03125 -4.40625 3.515625 -4.40625 C 2.875 -4.40625 2.4375 -3.921875 2.25 -3.640625 C 2.15625 -4.09375 1.796875 -4.40625 1.328125 -4.40625 C 0.875 -4.40625 0.6875 -4.015625 0.59375 -3.84375 C 0.421875 -3.5 0.296875 -2.90625 0.296875 -2.875 C 0.296875 -2.765625 0.390625 -2.765625 0.40625 -2.765625 C 0.515625 -2.765625 0.515625 -2.78125 0.578125 -3 C 0.75 -3.703125 0.953125 -4.1875 1.3125 -4.1875 C 1.46875 -4.1875 1.609375 -4.109375 1.609375 -3.734375 C 1.609375 -3.515625 1.578125 -3.40625 1.453125 -2.890625 Z M 0.875 -0.59375 "
           id="path7087" />
      </symbol>
    </g>
  </defs>
  <title
     id="title75">Sphere setting</title>
  <path
     class="cls-1"
     d="M236.21,250.2c0,5.09-16.05,9.22-35.85,9.22s-35.84-4.13-35.84-9.22,16-9.22,35.84-9.22c11.14,0,21.09,1.3,27.66,3.35"
     id="path77" />
  <path
     d="M200.42,51.82A198.24,198.24,0,1,1,123,67.45a197.68,197.68,0,0,1,77.43-15.63m0-1C90,50.82.51,140.32.51,250.73S90,450.64,200.42,450.64s199.91-89.5,199.91-199.91S310.82,50.82,200.42,50.82Z"
     id="path79" />
  <path
     class="cls-2"
     d="M399.86,250.62c0,25.16-89.4,45.57-199.68,45.57S.5,275.78.5,250.62s89.4-45.57,199.68-45.57c58.9,0,111.85,5.82,148.4,15.08"
     id="path81" />
  <path
     class="cls-3"
     d="M200.3,50.82c82.81,0,149.94,89.5,149.94,199.91S283.11,450.64,200.3,450.64"
     id="path83" />
  <line
     class="cls-2"
     x1="200.65"
     y1="250.01"
     x2="348.22"
     y2="220.51"
     id="line85" />
  <line
     class="cls-2"
     x1="200.35"
     y1="250.91"
     x2="200.35"
     y2="37.68"
     id="line87" />
  <polygon
     points="205.86 42.59 200.35 38.33 194.85 42.59 200.35 29.58 205.86 42.59"
     id="polygon89" />
  <polygon
     class="cls-4"
     points="204.65 41.03 200.35 30.89 200.35 37.7 204.65 41.03"
     id="polygon91" />
  <polygon
     class="cls-5"
     points="196.06 41.03 200.35 30.89 200.35 37.7 196.06 41.03"
     id="polygon93" />
  <line
     class="cls-2"
     x1="200.35"
     y1="250.56"
     x2="121.26"
     y2="328.66"
     id="line95" />
  <polygon
     points="120.89 321.3 121.72 328.21 128.62 329.13 115.5 334.36 120.89 321.3"
     id="polygon97" />
  <polygon
     class="cls-4"
     points="120.62 323.25 116.43 333.43 121.28 328.65 120.62 323.25"
     id="polygon99" />
  <polygon
     class="cls-5"
     points="126.67 329.37 116.43 333.43 121.28 328.65 126.67 329.37"
     id="polygon101" />
  <line
     class="cls-2"
     x1="200.09"
     y1="250.32"
     x2="413.32"
     y2="250.32"
     id="line103" />
  <polygon
     points="408.41 255.83 412.67 250.32 408.41 244.82 421.43 250.32 408.41 255.83"
     id="polygon105" />
  <polygon
     class="cls-4"
     points="409.97 254.63 420.11 250.32 413.3 250.32 409.97 254.63"
     id="polygon107" />
  <polygon
     class="cls-5"
     points="409.97 246.03 420.11 250.32 413.3 250.32 409.97 246.03"
     id="polygon109" />
  <g
     inkscape:label=""
     transform="matrix(3,0,0,3,143.50517,10.191133)"
     id="g170">
    <g
       id="g8653">
      <g
         style="fill:#000000;fill-opacity:1"
         id="g579">
        <use
           xlink:href="#symbol6397"
           x="91.925003"
           y="81.962997"
           id="use7153"
           width="100%"
           height="100%" />
      </g>
    </g>
  </g>
  <g
     inkscape:label=""
     transform="matrix(3,0,0,3,-170.10879,104.97744)"
     id="g229">
    <g
       id="g6216">
      <g
         style="fill:#000000;fill-opacity:1"
         id="g1498">
        <use
           xlink:href="#symbol5308"
           x="91.925003"
           y="81.962997"
           id="use3998"
           width="100%"
           height="100%" />
      </g>
    </g>
  </g>
  <g
     inkscape:label=""
     transform="matrix(3,0,0,3,-82.928792,-221.50873)"
     id="g297">
    <g
       id="g8413">
      <g
         style="fill:#000000;fill-opacity:1"
         id="g6427">
        <use
           xlink:href="#symbol2391"
           x="91.925003"
           y="81.962997"
           id="use8479"
           width="100%"
           height="100%" />
      </g>
    </g>
  </g>
  <g
     inkscape:label=""
     transform="matrix(3,0,0,3,-71.811879,27.744149)"
     id="g386">
    <g
       id="g285">
      <g
         style="fill:#000000;fill-opacity:1"
         id="g9619">
        <use
           xlink:href="#symbol207"
           x="91.925003"
           y="81.962997"
           id="use6628"
           width="100%"
           height="100%" />
      </g>
      <g
         style="fill:#000000;fill-opacity:1"
         id="g9551">
        <use
           xlink:href="#symbol3221"
           x="98.442001"
           y="83.457001"
           id="use6219"
           width="100%"
           height="100%" />
        <use
           xlink:href="#symbol1908"
           x="104.98691"
           y="83.457001"
           id="use987"
           width="100%"
           height="100%" />
        <use
           xlink:href="#symbol1807"
           x="108.95849"
           y="83.457001"
           id="use6993"
           width="100%"
           height="100%" />
      </g>
    </g>
  </g>
  <g
     inkscape:label=""
     transform="matrix(3,0,0,3,-1.0146976,-16.138398)"
     id="g496">
    <g
       id="g9635">
      <g
         style="fill:#000000;fill-opacity:1"
         id="g4017">
        <use
           xlink:href="#symbol4283"
           x="91.925003"
           y="81.962997"
           id="use7528"
           width="100%"
           height="100%" />
      </g>
    </g>
  </g>
</svg>
