<?xml version="1.0" encoding="UTF-8" standalone="no"?>
<svg
   xmlns:dc="http://purl.org/dc/elements/1.1/"
   xmlns:cc="http://creativecommons.org/ns#"
   xmlns:rdf="http://www.w3.org/1999/02/22-rdf-syntax-ns#"
   xmlns:svg="http://www.w3.org/2000/svg"
   xmlns="http://www.w3.org/2000/svg"
   xmlns:xlink="http://www.w3.org/1999/xlink"
   xmlns:sodipodi="http://sodipodi.sourceforge.net/DTD/sodipodi-0.dtd"
   xmlns:inkscape="http://www.inkscape.org/namespaces/inkscape"
   id="Layer_1"
   data-name="Layer 1"
   viewBox="0 0 237.99 273.54"
   version="1.1"
   sodipodi:docname="Subdivtangents.svg"
   inkscape:version="1.0.1 (3bc2e813f5, 2020-09-07)">
  <metadata
     id="metadata949">
    <rdf:RDF>
      <cc:Work
         rdf:about="">
        <dc:format>image/svg+xml</dc:format>
        <dc:type
           rdf:resource="http://purl.org/dc/dcmitype/StillImage" />
      </cc:Work>
    </rdf:RDF>
  </metadata>
  <sodipodi:namedview
     pagecolor="#ffffff"
     bordercolor="#666666"
     borderopacity="1"
     objecttolerance="10"
     gridtolerance="10"
     guidetolerance="10"
     inkscape:pageopacity="0"
     inkscape:pageshadow="2"
     inkscape:window-width="1920"
     inkscape:window-height="1017"
     id="namedview947"
     showgrid="false"
     inkscape:zoom="3.0127316"
     inkscape:cx="118.995"
     inkscape:cy="136.77"
     inkscape:window-x="1912"
     inkscape:window-y="-8"
     inkscape:window-maximized="1"
     inkscape:current-layer="Layer_1"
     inkscape:document-rotation="0" />
  <defs
     id="defs894">
    <style
       id="style892">.cls-1,.cls-3{fill:none;}.cls-1,.cls-2,.cls-3{stroke:#000;stroke-miterlimit:10;}.cls-3{stroke-dasharray:2;}</style>
    <g
       id="g3902">
      <symbol
         overflow="visible"
         id="symbol5814">
        <path
           style="stroke:none;"
           d=""
           id="path6631" />
      </symbol>
      <symbol
         overflow="visible"
         id="symbol1508">
        <path
           style="stroke:none;"
           d="M 4.578125 -3.1875 C 4.578125 -3.984375 4.53125 -4.78125 4.1875 -5.515625 C 3.734375 -6.484375 2.90625 -6.640625 2.5 -6.640625 C 1.890625 -6.640625 1.171875 -6.375 0.75 -5.453125 C 0.4375 -4.765625 0.390625 -3.984375 0.390625 -3.1875 C 0.390625 -2.4375 0.421875 -1.546875 0.84375 -0.78125 C 1.265625 0.015625 2 0.21875 2.484375 0.21875 C 3.015625 0.21875 3.78125 0.015625 4.21875 -0.9375 C 4.53125 -1.625 4.578125 -2.40625 4.578125 -3.1875 Z M 2.484375 0 C 2.09375 0 1.5 -0.25 1.328125 -1.203125 C 1.21875 -1.796875 1.21875 -2.71875 1.21875 -3.3125 C 1.21875 -3.953125 1.21875 -4.609375 1.296875 -5.140625 C 1.484375 -6.328125 2.234375 -6.421875 2.484375 -6.421875 C 2.8125 -6.421875 3.46875 -6.234375 3.65625 -5.25 C 3.765625 -4.6875 3.765625 -3.9375 3.765625 -3.3125 C 3.765625 -2.5625 3.765625 -1.890625 3.65625 -1.25 C 3.5 -0.296875 2.9375 0 2.484375 0 Z M 2.484375 0 "
           id="path5847" />
      </symbol>
    </g>
    <g
       id="g7634">
      <symbol
         overflow="visible"
         id="symbol542">
        <path
           style="stroke:none;"
           d=""
           id="path5988" />
      </symbol>
      <symbol
         overflow="visible"
         id="symbol7459">
        <path
           style="stroke:none;"
           d="M 4.609375 -3.375 C 4.65625 -3.59375 4.75 -3.96875 4.75 -4.03125 C 4.75 -4.203125 4.609375 -4.296875 4.46875 -4.296875 C 4.34375 -4.296875 4.171875 -4.21875 4.09375 -4.015625 C 4.0625 -3.953125 3.59375 -2.046875 3.53125 -1.78125 C 3.453125 -1.484375 3.4375 -1.3125 3.4375 -1.125 C 3.4375 -1.015625 3.4375 -1 3.453125 -0.953125 C 3.21875 -0.421875 2.921875 -0.109375 2.53125 -0.109375 C 1.734375 -0.109375 1.734375 -0.84375 1.734375 -1.015625 C 1.734375 -1.328125 1.78125 -1.71875 2.25 -2.953125 C 2.359375 -3.25 2.421875 -3.390625 2.421875 -3.59375 C 2.421875 -4.03125 2.09375 -4.40625 1.609375 -4.40625 C 0.65625 -4.40625 0.296875 -2.953125 0.296875 -2.875 C 0.296875 -2.765625 0.390625 -2.765625 0.40625 -2.765625 C 0.515625 -2.765625 0.515625 -2.796875 0.5625 -2.953125 C 0.84375 -3.875 1.21875 -4.1875 1.578125 -4.1875 C 1.671875 -4.1875 1.828125 -4.171875 1.828125 -3.859375 C 1.828125 -3.609375 1.71875 -3.328125 1.640625 -3.15625 C 1.203125 -1.984375 1.09375 -1.53125 1.09375 -1.140625 C 1.09375 -0.234375 1.75 0.109375 2.5 0.109375 C 2.671875 0.109375 3.140625 0.109375 3.53125 -0.59375 C 3.796875 0.046875 4.484375 0.109375 4.78125 0.109375 C 5.53125 0.109375 5.96875 -0.515625 6.234375 -1.109375 C 6.5625 -1.890625 6.890625 -3.234375 6.890625 -3.703125 C 6.890625 -4.25 6.625 -4.40625 6.453125 -4.40625 C 6.203125 -4.40625 5.953125 -4.140625 5.953125 -3.921875 C 5.953125 -3.796875 6.015625 -3.734375 6.09375 -3.65625 C 6.203125 -3.546875 6.453125 -3.296875 6.453125 -2.8125 C 6.453125 -2.46875 6.171875 -1.5 5.90625 -0.984375 C 5.65625 -0.453125 5.296875 -0.109375 4.8125 -0.109375 C 4.34375 -0.109375 4.078125 -0.40625 4.078125 -0.984375 C 4.078125 -1.25 4.140625 -1.5625 4.1875 -1.703125 Z M 4.609375 -3.375 "
           id="path1039" />
      </symbol>
      <symbol
         overflow="visible"
         id="symbol6320">
        <path
           style="stroke:none;"
           d=""
           id="path7863" />
      </symbol>
      <symbol
         overflow="visible"
         id="symbol8156">
        <path
           style="stroke:none;"
           d="M 3.59375 -2.21875 C 3.59375 -2.984375 3.5 -3.546875 3.1875 -4.03125 C 2.96875 -4.34375 2.53125 -4.625 1.984375 -4.625 C 0.359375 -4.625 0.359375 -2.71875 0.359375 -2.21875 C 0.359375 -1.71875 0.359375 0.140625 1.984375 0.140625 C 3.59375 0.140625 3.59375 -1.71875 3.59375 -2.21875 Z M 1.984375 -0.0625 C 1.65625 -0.0625 1.234375 -0.25 1.09375 -0.8125 C 1 -1.21875 1 -1.796875 1 -2.3125 C 1 -2.828125 1 -3.359375 1.09375 -3.734375 C 1.25 -4.28125 1.6875 -4.4375 1.984375 -4.4375 C 2.359375 -4.4375 2.71875 -4.203125 2.84375 -3.796875 C 2.953125 -3.421875 2.96875 -2.921875 2.96875 -2.3125 C 2.96875 -1.796875 2.96875 -1.28125 2.875 -0.84375 C 2.734375 -0.203125 2.265625 -0.0625 1.984375 -0.0625 Z M 1.984375 -0.0625 "
           id="path6246" />
      </symbol>
    </g>
    <g
       id="g1182">
      <symbol
         overflow="visible"
         id="symbol9628">
        <path
           style="stroke:none;"
           d=""
           id="path4253" />
      </symbol>
      <symbol
         overflow="visible"
         id="symbol7727">
        <path
           style="stroke:none;"
           d="M 4.609375 -3.375 C 4.65625 -3.59375 4.75 -3.96875 4.75 -4.03125 C 4.75 -4.203125 4.609375 -4.296875 4.46875 -4.296875 C 4.34375 -4.296875 4.171875 -4.21875 4.09375 -4.015625 C 4.0625 -3.953125 3.59375 -2.046875 3.53125 -1.78125 C 3.453125 -1.484375 3.4375 -1.3125 3.4375 -1.125 C 3.4375 -1.015625 3.4375 -1 3.453125 -0.953125 C 3.21875 -0.421875 2.921875 -0.109375 2.53125 -0.109375 C 1.734375 -0.109375 1.734375 -0.84375 1.734375 -1.015625 C 1.734375 -1.328125 1.78125 -1.71875 2.25 -2.953125 C 2.359375 -3.25 2.421875 -3.390625 2.421875 -3.59375 C 2.421875 -4.03125 2.09375 -4.40625 1.609375 -4.40625 C 0.65625 -4.40625 0.296875 -2.953125 0.296875 -2.875 C 0.296875 -2.765625 0.390625 -2.765625 0.40625 -2.765625 C 0.515625 -2.765625 0.515625 -2.796875 0.5625 -2.953125 C 0.84375 -3.875 1.21875 -4.1875 1.578125 -4.1875 C 1.671875 -4.1875 1.828125 -4.171875 1.828125 -3.859375 C 1.828125 -3.609375 1.71875 -3.328125 1.640625 -3.15625 C 1.203125 -1.984375 1.09375 -1.53125 1.09375 -1.140625 C 1.09375 -0.234375 1.75 0.109375 2.5 0.109375 C 2.671875 0.109375 3.140625 0.109375 3.53125 -0.59375 C 3.796875 0.046875 4.484375 0.109375 4.78125 0.109375 C 5.53125 0.109375 5.96875 -0.515625 6.234375 -1.109375 C 6.5625 -1.890625 6.890625 -3.234375 6.890625 -3.703125 C 6.890625 -4.25 6.625 -4.40625 6.453125 -4.40625 C 6.203125 -4.40625 5.953125 -4.140625 5.953125 -3.921875 C 5.953125 -3.796875 6.015625 -3.734375 6.09375 -3.65625 C 6.203125 -3.546875 6.453125 -3.296875 6.453125 -2.8125 C 6.453125 -2.46875 6.171875 -1.5 5.90625 -0.984375 C 5.65625 -0.453125 5.296875 -0.109375 4.8125 -0.109375 C 4.34375 -0.109375 4.078125 -0.40625 4.078125 -0.984375 C 4.078125 -1.25 4.140625 -1.5625 4.1875 -1.703125 Z M 4.609375 -3.375 "
           id="path9911" />
      </symbol>
      <symbol
         overflow="visible"
         id="symbol5975">
        <path
           style="stroke:none;"
           d=""
           id="path120" />
      </symbol>
      <symbol
         overflow="visible"
         id="symbol9363">
        <path
           style="stroke:none;"
           d="M 2.328125 -4.4375 C 2.328125 -4.625 2.328125 -4.625 2.125 -4.625 C 1.671875 -4.1875 1.046875 -4.1875 0.765625 -4.1875 L 0.765625 -3.9375 C 0.921875 -3.9375 1.390625 -3.9375 1.765625 -4.125 L 1.765625 -0.578125 C 1.765625 -0.34375 1.765625 -0.25 1.078125 -0.25 L 0.8125 -0.25 L 0.8125 0 C 0.9375 0 1.796875 -0.03125 2.046875 -0.03125 C 2.265625 -0.03125 3.140625 0 3.296875 0 L 3.296875 -0.25 L 3.03125 -0.25 C 2.328125 -0.25 2.328125 -0.34375 2.328125 -0.578125 Z M 2.328125 -4.4375 "
           id="path3420" />
      </symbol>
    </g>
    <g
       id="g5833">
      <symbol
         overflow="visible"
         id="symbol9419">
        <path
           style="stroke:none;"
           d=""
           id="path8974" />
      </symbol>
      <symbol
         overflow="visible"
         id="symbol5770">
        <path
           style="stroke:none;"
           d="M 4.609375 -3.375 C 4.65625 -3.59375 4.75 -3.96875 4.75 -4.03125 C 4.75 -4.203125 4.609375 -4.296875 4.46875 -4.296875 C 4.34375 -4.296875 4.171875 -4.21875 4.09375 -4.015625 C 4.0625 -3.953125 3.59375 -2.046875 3.53125 -1.78125 C 3.453125 -1.484375 3.4375 -1.3125 3.4375 -1.125 C 3.4375 -1.015625 3.4375 -1 3.453125 -0.953125 C 3.21875 -0.421875 2.921875 -0.109375 2.53125 -0.109375 C 1.734375 -0.109375 1.734375 -0.84375 1.734375 -1.015625 C 1.734375 -1.328125 1.78125 -1.71875 2.25 -2.953125 C 2.359375 -3.25 2.421875 -3.390625 2.421875 -3.59375 C 2.421875 -4.03125 2.09375 -4.40625 1.609375 -4.40625 C 0.65625 -4.40625 0.296875 -2.953125 0.296875 -2.875 C 0.296875 -2.765625 0.390625 -2.765625 0.40625 -2.765625 C 0.515625 -2.765625 0.515625 -2.796875 0.5625 -2.953125 C 0.84375 -3.875 1.21875 -4.1875 1.578125 -4.1875 C 1.671875 -4.1875 1.828125 -4.171875 1.828125 -3.859375 C 1.828125 -3.609375 1.71875 -3.328125 1.640625 -3.15625 C 1.203125 -1.984375 1.09375 -1.53125 1.09375 -1.140625 C 1.09375 -0.234375 1.75 0.109375 2.5 0.109375 C 2.671875 0.109375 3.140625 0.109375 3.53125 -0.59375 C 3.796875 0.046875 4.484375 0.109375 4.78125 0.109375 C 5.53125 0.109375 5.96875 -0.515625 6.234375 -1.109375 C 6.5625 -1.890625 6.890625 -3.234375 6.890625 -3.703125 C 6.890625 -4.25 6.625 -4.40625 6.453125 -4.40625 C 6.203125 -4.40625 5.953125 -4.140625 5.953125 -3.921875 C 5.953125 -3.796875 6.015625 -3.734375 6.09375 -3.65625 C 6.203125 -3.546875 6.453125 -3.296875 6.453125 -2.8125 C 6.453125 -2.46875 6.171875 -1.5 5.90625 -0.984375 C 5.65625 -0.453125 5.296875 -0.109375 4.8125 -0.109375 C 4.34375 -0.109375 4.078125 -0.40625 4.078125 -0.984375 C 4.078125 -1.25 4.140625 -1.5625 4.1875 -1.703125 Z M 4.609375 -3.375 "
           id="path9871" />
      </symbol>
      <symbol
         overflow="visible"
         id="symbol5248">
        <path
           style="stroke:none;"
           d=""
           id="path1941" />
      </symbol>
      <symbol
         overflow="visible"
         id="symbol9666">
        <path
           style="stroke:none;"
           d="M 3.515625 -1.265625 L 3.28125 -1.265625 C 3.265625 -1.109375 3.1875 -0.703125 3.09375 -0.640625 C 3.046875 -0.59375 2.515625 -0.59375 2.40625 -0.59375 L 1.125 -0.59375 C 1.859375 -1.234375 2.109375 -1.4375 2.515625 -1.765625 C 3.03125 -2.171875 3.515625 -2.609375 3.515625 -3.265625 C 3.515625 -4.109375 2.78125 -4.625 1.890625 -4.625 C 1.03125 -4.625 0.4375 -4.015625 0.4375 -3.375 C 0.4375 -3.03125 0.734375 -2.984375 0.8125 -2.984375 C 0.96875 -2.984375 1.171875 -3.109375 1.171875 -3.359375 C 1.171875 -3.484375 1.125 -3.734375 0.765625 -3.734375 C 0.984375 -4.21875 1.453125 -4.375 1.78125 -4.375 C 2.484375 -4.375 2.84375 -3.828125 2.84375 -3.265625 C 2.84375 -2.65625 2.40625 -2.1875 2.1875 -1.9375 L 0.515625 -0.265625 C 0.4375 -0.203125 0.4375 -0.1875 0.4375 0 L 3.3125 0 Z M 3.515625 -1.265625 "
           id="path2316" />
      </symbol>
    </g>
    <g
       id="g9412">
      <symbol
         overflow="visible"
         id="symbol7926">
        <path
           style="stroke:none;"
           d=""
           id="path7238" />
      </symbol>
      <symbol
         overflow="visible"
         id="symbol8264">
        <path
           style="stroke:none;"
           d="M 4.609375 -3.375 C 4.65625 -3.59375 4.75 -3.96875 4.75 -4.03125 C 4.75 -4.203125 4.609375 -4.296875 4.46875 -4.296875 C 4.34375 -4.296875 4.171875 -4.21875 4.09375 -4.015625 C 4.0625 -3.953125 3.59375 -2.046875 3.53125 -1.78125 C 3.453125 -1.484375 3.4375 -1.3125 3.4375 -1.125 C 3.4375 -1.015625 3.4375 -1 3.453125 -0.953125 C 3.21875 -0.421875 2.921875 -0.109375 2.53125 -0.109375 C 1.734375 -0.109375 1.734375 -0.84375 1.734375 -1.015625 C 1.734375 -1.328125 1.78125 -1.71875 2.25 -2.953125 C 2.359375 -3.25 2.421875 -3.390625 2.421875 -3.59375 C 2.421875 -4.03125 2.09375 -4.40625 1.609375 -4.40625 C 0.65625 -4.40625 0.296875 -2.953125 0.296875 -2.875 C 0.296875 -2.765625 0.390625 -2.765625 0.40625 -2.765625 C 0.515625 -2.765625 0.515625 -2.796875 0.5625 -2.953125 C 0.84375 -3.875 1.21875 -4.1875 1.578125 -4.1875 C 1.671875 -4.1875 1.828125 -4.171875 1.828125 -3.859375 C 1.828125 -3.609375 1.71875 -3.328125 1.640625 -3.15625 C 1.203125 -1.984375 1.09375 -1.53125 1.09375 -1.140625 C 1.09375 -0.234375 1.75 0.109375 2.5 0.109375 C 2.671875 0.109375 3.140625 0.109375 3.53125 -0.59375 C 3.796875 0.046875 4.484375 0.109375 4.78125 0.109375 C 5.53125 0.109375 5.96875 -0.515625 6.234375 -1.109375 C 6.5625 -1.890625 6.890625 -3.234375 6.890625 -3.703125 C 6.890625 -4.25 6.625 -4.40625 6.453125 -4.40625 C 6.203125 -4.40625 5.953125 -4.140625 5.953125 -3.921875 C 5.953125 -3.796875 6.015625 -3.734375 6.09375 -3.65625 C 6.203125 -3.546875 6.453125 -3.296875 6.453125 -2.8125 C 6.453125 -2.46875 6.171875 -1.5 5.90625 -0.984375 C 5.65625 -0.453125 5.296875 -0.109375 4.8125 -0.109375 C 4.34375 -0.109375 4.078125 -0.40625 4.078125 -0.984375 C 4.078125 -1.25 4.140625 -1.5625 4.1875 -1.703125 Z M 4.609375 -3.375 "
           id="path8641" />
      </symbol>
      <symbol
         overflow="visible"
         id="symbol8954">
        <path
           style="stroke:none;"
           d=""
           id="path7873" />
      </symbol>
      <symbol
         overflow="visible"
         id="symbol6953">
        <path
           style="stroke:none;"
           d="M 1.90625 -2.328125 C 2.453125 -2.328125 2.84375 -1.953125 2.84375 -1.203125 C 2.84375 -0.34375 2.328125 -0.078125 1.9375 -0.078125 C 1.65625 -0.078125 1.03125 -0.15625 0.75 -0.578125 C 1.078125 -0.578125 1.15625 -0.8125 1.15625 -0.96875 C 1.15625 -1.1875 0.984375 -1.34375 0.765625 -1.34375 C 0.578125 -1.34375 0.375 -1.21875 0.375 -0.9375 C 0.375 -0.28125 1.09375 0.140625 1.9375 0.140625 C 2.90625 0.140625 3.578125 -0.515625 3.578125 -1.203125 C 3.578125 -1.75 3.140625 -2.296875 2.375 -2.453125 C 3.09375 -2.71875 3.359375 -3.234375 3.359375 -3.671875 C 3.359375 -4.21875 2.734375 -4.625 1.953125 -4.625 C 1.1875 -4.625 0.59375 -4.25 0.59375 -3.6875 C 0.59375 -3.453125 0.75 -3.328125 0.953125 -3.328125 C 1.171875 -3.328125 1.3125 -3.484375 1.3125 -3.671875 C 1.3125 -3.875 1.171875 -4.03125 0.953125 -4.046875 C 1.203125 -4.34375 1.671875 -4.421875 1.9375 -4.421875 C 2.25 -4.421875 2.6875 -4.265625 2.6875 -3.671875 C 2.6875 -3.375 2.59375 -3.046875 2.40625 -2.84375 C 2.1875 -2.578125 1.984375 -2.5625 1.640625 -2.53125 C 1.46875 -2.515625 1.453125 -2.515625 1.421875 -2.515625 C 1.40625 -2.515625 1.34375 -2.5 1.34375 -2.421875 C 1.34375 -2.328125 1.40625 -2.328125 1.53125 -2.328125 Z M 1.90625 -2.328125 "
           id="path5895" />
      </symbol>
    </g>
    <g
       id="g8535">
      <symbol
         overflow="visible"
         id="symbol3236">
        <path
           style="stroke:none;"
           d=""
           id="path7090" />
      </symbol>
      <symbol
         overflow="visible"
         id="symbol3456">
        <path
           style="stroke:none;"
           d="M 4.609375 -3.375 C 4.65625 -3.59375 4.75 -3.96875 4.75 -4.03125 C 4.75 -4.203125 4.609375 -4.296875 4.46875 -4.296875 C 4.34375 -4.296875 4.171875 -4.21875 4.09375 -4.015625 C 4.0625 -3.953125 3.59375 -2.046875 3.53125 -1.78125 C 3.453125 -1.484375 3.4375 -1.3125 3.4375 -1.125 C 3.4375 -1.015625 3.4375 -1 3.453125 -0.953125 C 3.21875 -0.421875 2.921875 -0.109375 2.53125 -0.109375 C 1.734375 -0.109375 1.734375 -0.84375 1.734375 -1.015625 C 1.734375 -1.328125 1.78125 -1.71875 2.25 -2.953125 C 2.359375 -3.25 2.421875 -3.390625 2.421875 -3.59375 C 2.421875 -4.03125 2.09375 -4.40625 1.609375 -4.40625 C 0.65625 -4.40625 0.296875 -2.953125 0.296875 -2.875 C 0.296875 -2.765625 0.390625 -2.765625 0.40625 -2.765625 C 0.515625 -2.765625 0.515625 -2.796875 0.5625 -2.953125 C 0.84375 -3.875 1.21875 -4.1875 1.578125 -4.1875 C 1.671875 -4.1875 1.828125 -4.171875 1.828125 -3.859375 C 1.828125 -3.609375 1.71875 -3.328125 1.640625 -3.15625 C 1.203125 -1.984375 1.09375 -1.53125 1.09375 -1.140625 C 1.09375 -0.234375 1.75 0.109375 2.5 0.109375 C 2.671875 0.109375 3.140625 0.109375 3.53125 -0.59375 C 3.796875 0.046875 4.484375 0.109375 4.78125 0.109375 C 5.53125 0.109375 5.96875 -0.515625 6.234375 -1.109375 C 6.5625 -1.890625 6.890625 -3.234375 6.890625 -3.703125 C 6.890625 -4.25 6.625 -4.40625 6.453125 -4.40625 C 6.203125 -4.40625 5.953125 -4.140625 5.953125 -3.921875 C 5.953125 -3.796875 6.015625 -3.734375 6.09375 -3.65625 C 6.203125 -3.546875 6.453125 -3.296875 6.453125 -2.8125 C 6.453125 -2.46875 6.171875 -1.5 5.90625 -0.984375 C 5.65625 -0.453125 5.296875 -0.109375 4.8125 -0.109375 C 4.34375 -0.109375 4.078125 -0.40625 4.078125 -0.984375 C 4.078125 -1.25 4.140625 -1.5625 4.1875 -1.703125 Z M 4.609375 -3.375 "
           id="path1653" />
      </symbol>
      <symbol
         overflow="visible"
         id="symbol1656">
        <path
           style="stroke:none;"
           d=""
           id="path5114" />
      </symbol>
      <symbol
         overflow="visible"
         id="symbol9621">
        <path
           style="stroke:none;"
           d="M 0.84375 -0.4375 C 0.828125 -0.34375 0.78125 -0.171875 0.78125 -0.15625 C 0.78125 0 0.90625 0.0625 1.015625 0.0625 C 1.140625 0.0625 1.25 -0.015625 1.296875 -0.078125 C 1.328125 -0.140625 1.375 -0.375 1.421875 -0.515625 C 1.453125 -0.640625 1.53125 -0.96875 1.5625 -1.140625 C 1.609375 -1.296875 1.65625 -1.453125 1.6875 -1.609375 C 1.765625 -1.890625 1.78125 -1.953125 1.984375 -2.234375 C 2.171875 -2.515625 2.5 -2.875 3.03125 -2.875 C 3.421875 -2.875 3.4375 -2.515625 3.4375 -2.390625 C 3.4375 -1.96875 3.140625 -1.203125 3.03125 -0.90625 C 2.953125 -0.703125 2.921875 -0.640625 2.921875 -0.53125 C 2.921875 -0.15625 3.21875 0.0625 3.578125 0.0625 C 4.28125 0.0625 4.578125 -0.890625 4.578125 -1 C 4.578125 -1.09375 4.5 -1.09375 4.46875 -1.09375 C 4.375 -1.09375 4.375 -1.046875 4.34375 -0.96875 C 4.1875 -0.40625 3.875 -0.125 3.609375 -0.125 C 3.453125 -0.125 3.421875 -0.21875 3.421875 -0.375 C 3.421875 -0.53125 3.46875 -0.625 3.59375 -0.9375 C 3.671875 -1.15625 3.953125 -1.890625 3.953125 -2.28125 C 3.953125 -2.953125 3.421875 -3.078125 3.046875 -3.078125 C 2.46875 -3.078125 2.078125 -2.71875 1.875 -2.4375 C 1.828125 -2.921875 1.421875 -3.078125 1.125 -3.078125 C 0.828125 -3.078125 0.671875 -2.859375 0.578125 -2.703125 C 0.421875 -2.4375 0.328125 -2.046875 0.328125 -2 C 0.328125 -1.921875 0.421875 -1.921875 0.453125 -1.921875 C 0.546875 -1.921875 0.546875 -1.9375 0.59375 -2.125 C 0.703125 -2.53125 0.84375 -2.875 1.109375 -2.875 C 1.296875 -2.875 1.34375 -2.71875 1.34375 -2.53125 C 1.34375 -2.40625 1.28125 -2.140625 1.21875 -1.953125 C 1.171875 -1.765625 1.109375 -1.484375 1.078125 -1.328125 Z M 0.84375 -0.4375 "
           id="path486" />
      </symbol>
      <symbol
         overflow="visible"
         id="symbol3631">
        <path
           style="stroke:none;"
           d=""
           id="path5751" />
      </symbol>
      <symbol
         overflow="visible"
         id="symbol9215">
        <path
           style="stroke:none;"
           d="M 5.1875 -1.578125 C 5.296875 -1.578125 5.46875 -1.578125 5.46875 -1.734375 C 5.46875 -1.921875 5.296875 -1.921875 5.1875 -1.921875 L 1.03125 -1.921875 C 0.921875 -1.921875 0.75 -1.921875 0.75 -1.75 C 0.75 -1.578125 0.90625 -1.578125 1.03125 -1.578125 Z M 5.1875 -1.578125 "
           id="path9353" />
      </symbol>
      <symbol
         overflow="visible"
         id="symbol973">
        <path
           style="stroke:none;"
           d=""
           id="path9867" />
      </symbol>
      <symbol
         overflow="visible"
         id="symbol7052">
        <path
           style="stroke:none;"
           d="M 2.328125 -4.4375 C 2.328125 -4.625 2.328125 -4.625 2.125 -4.625 C 1.671875 -4.1875 1.046875 -4.1875 0.765625 -4.1875 L 0.765625 -3.9375 C 0.921875 -3.9375 1.390625 -3.9375 1.765625 -4.125 L 1.765625 -0.578125 C 1.765625 -0.34375 1.765625 -0.25 1.078125 -0.25 L 0.8125 -0.25 L 0.8125 0 C 0.9375 0 1.796875 -0.03125 2.046875 -0.03125 C 2.265625 -0.03125 3.140625 0 3.296875 0 L 3.296875 -0.25 L 3.03125 -0.25 C 2.328125 -0.25 2.328125 -0.34375 2.328125 -0.578125 Z M 2.328125 -4.4375 "
           id="path1044" />
      </symbol>
    </g>
  </defs>
  <title
     id="title896">Subdiv tangents</title>
  <polygon
     class="cls-1"
     points="82.63 138.38 115.2 194.81 147.78 251.24 82.63 251.24 17.47 251.24 50.05 194.81 82.63 138.38"
     id="polygon898" />
  <polygon
     class="cls-1"
     points="82.63 138.24 50.05 81.81 17.47 25.38 82.63 25.38 147.78 25.38 115.2 81.81 82.63 138.24"
     id="polygon900" />
  <polygon
     class="cls-1"
     points="148.01 25.22 180.59 81.65 213.17 138.08 148.01 138.08 82.85 138.08 115.43 81.65 148.01 25.22"
     id="polygon902" />
  <polygon
     class="cls-1"
     points="147.83 250.81 115.25 194.39 82.67 137.96 147.83 137.96 212.99 137.96 180.41 194.39 147.83 250.81"
     id="polygon904" />
  <circle
     class="cls-2"
     cx="82.75"
     cy="138.13"
     r="2.35"
     id="circle906" />
  <circle
     class="cls-2"
     cx="212.6"
     cy="137.87"
     r="2.35"
     id="circle908" />
  <circle
     class="cls-2"
     cx="147.42"
     cy="25.46"
     r="2.35"
     id="circle910" />
  <circle
     class="cls-2"
     cx="17.07"
     cy="24.95"
     r="2.35"
     id="circle912" />
  <circle
     class="cls-2"
     cx="147.93"
     cy="250.79"
     r="2.35"
     id="circle914" />
  <circle
     class="cls-2"
     cx="17.32"
     cy="251.05"
     r="2.35"
     id="circle916" />
  <path
     class="cls-3"
     d="M54.53,186.75a56.11,56.11,0,0,1-.07-97.21"
     id="path918" />
  <g
     inkscape:label=""
     transform="matrix(2,0,0,2,-121.69096,-18.546222)"
     id="g988">
    <g
       id="g1608">
      <g
         style="fill:#000000;fill-opacity:1"
         id="g9969">
        <use
           xlink:href="#symbol1508"
           x="91.925003"
           y="81.962997"
           id="use785"
           width="100%"
           height="100%" />
      </g>
    </g>
  </g>
  <g
     inkscape:label=""
     transform="matrix(2,0,0,2,-41.033264,-145.67337)"
     id="g1052">
    <g
       id="g9539">
      <g
         style="fill:#000000;fill-opacity:1"
         id="g3264">
        <use
           xlink:href="#symbol7459"
           x="91.925003"
           y="81.962997"
           id="use9101"
           width="100%"
           height="100%" />
      </g>
      <g
         style="fill:#000000;fill-opacity:1"
         id="g474">
        <use
           xlink:href="#symbol8156"
           x="99.057999"
           y="83.457001"
           id="use8546"
           width="100%"
           height="100%" />
      </g>
    </g>
  </g>
  <g
     inkscape:label=""
     transform="matrix(2,0,0,2,32.654016,-22.529316)"
     id="g1137">
    <g
       id="g6110">
      <g
         style="fill:#000000;fill-opacity:1"
         id="g600">
        <use
           xlink:href="#symbol7727"
           x="91.925003"
           y="81.962997"
           id="use1116"
           width="100%"
           height="100%" />
      </g>
      <g
         style="fill:#000000;fill-opacity:1"
         id="g2651">
        <use
           xlink:href="#symbol9363"
           x="99.057999"
           y="83.457001"
           id="use2740"
           width="100%"
           height="100%" />
      </g>
    </g>
  </g>
  <g
     inkscape:label=""
     transform="matrix(2,0,0,2,-39.373641,103.27014)"
     id="g1237">
    <g
       id="g6348">
      <g
         style="fill:#000000;fill-opacity:1"
         id="g9273">
        <use
           xlink:href="#symbol5770"
           x="91.925003"
           y="81.962997"
           id="use7878"
           width="100%"
           height="100%" />
      </g>
      <g
         style="fill:#000000;fill-opacity:1"
         id="g607">
        <use
           xlink:href="#symbol9666"
           x="99.057999"
           y="83.457001"
           id="use2878"
           width="100%"
           height="100%" />
      </g>
    </g>
  </g>
  <g
     inkscape:label=""
     transform="matrix(2,0,0,2,-178.78201,103.27014)"
     id="g1352">
    <g
       id="g4919">
      <g
         style="fill:#000000;fill-opacity:1"
         id="g6318">
        <use
           xlink:href="#symbol8264"
           x="91.925003"
           y="81.962997"
           id="use8047"
           width="100%"
           height="100%" />
      </g>
      <g
         style="fill:#000000;fill-opacity:1"
         id="g3272">
        <use
           xlink:href="#symbol6953"
           x="99.057999"
           y="83.457001"
           id="use4509"
           width="100%"
           height="100%" />
      </g>
    </g>
  </g>
  <g
     inkscape:label=""
     transform="matrix(2,0,0,2,-180.1097,-147.99686)"
     id="g1494">
    <g
       id="g7208">
      <g
         style="fill:#000000;fill-opacity:1"
         id="g1152">
        <use
           xlink:href="#symbol3456"
           x="91.925003"
           y="81.962997"
           id="use2879"
           width="100%"
           height="100%" />
      </g>
      <g
         style="fill:#000000;fill-opacity:1"
         id="g8803">
        <use
           xlink:href="#symbol9621"
           x="99.057999"
           y="83.457001"
           id="use1803"
           width="100%"
           height="100%" />
      </g>
      <g
         style="fill:#000000;fill-opacity:1"
         id="g1039">
        <use
           xlink:href="#symbol9215"
           x="103.983"
           y="83.457001"
           id="use8359"
           width="100%"
           height="100%" />
      </g>
      <g
         style="fill:#000000;fill-opacity:1"
         id="g3937">
        <use
           xlink:href="#symbol7052"
           x="110.209"
           y="83.457001"
           id="use5495"
           width="100%"
           height="100%" />
      </g>
    </g>
  </g>
</svg>
