<svg id="Layer_1" data-name="Layer 1" xmlns="http://www.w3.org/2000/svg" viewBox="0 0 876.42 461.31"><defs><style>.cls-1{fill:#b3b3b3;stroke-width:0.5px;}.cls-1,.cls-2,.cls-5{stroke:#000;stroke-miterlimit:10;}.cls-2{fill:none;}.cls-3{fill:#a6a6a6;}.cls-4{fill:#666;}.cls-5{fill:#fff;}</style></defs><title>Subdiv vert face pointer update</title><circle class="cls-1" cx="208.43" cy="244.12" r="2.59"/><line class="cls-2" x1="208.4" y1="243.59" x2="379.83" y2="114.18"/><polygon points="379.23 121.53 379.31 114.57 372.6 112.75 386.3 109.3 379.23 121.53"/><polygon class="cls-3" points="379.75 119.63 385.25 110.09 379.82 114.19 379.75 119.63"/><polygon class="cls-4" points="374.57 112.77 385.25 110.09 379.82 114.19 374.57 112.77"/><line class="cls-2" x1="208.4" y1="243.59" x2="35.33" y2="112.07"/><polygon points="42.56 110.66 35.84 112.47 35.91 119.42 28.87 107.17 42.56 110.66"/><polygon class="cls-3" points="40.6 110.67 29.92 107.96 35.34 112.08 40.6 110.67"/><polygon class="cls-4" points="35.4 117.52 29.92 107.96 35.34 112.08 35.4 117.52"/><line class="cls-2" x1="208.08" y1="244.23" x2="208.08" y2="425.64"/><polygon points="202.57 420.73 208.08 424.99 213.58 420.73 208.08 433.74 202.57 420.73"/><polygon class="cls-3" points="203.77 422.29 208.08 432.43 208.08 425.62 203.77 422.29"/><polygon class="cls-4" points="212.37 422.29 208.08 432.43 208.08 425.62 212.37 422.29"/><polyline class="cls-1" points="226.33 172.07 301.93 172.07 255.18 253.05 208.43 334.02 161.68 253.05 114.93 172.07 208.43 172.07 226.33 172.07"/><polygon class="cls-5" points="207.05 5.68 302.46 170.93 397.87 336.19 207.05 336.19 16.23 336.19 111.64 170.93 207.05 5.68"/><path d="M44,313.78l1.9,5.44a24.89,24.89,0,0,1,.78,2.48h.06c.22-.8.5-1.6.82-2.48l1.88-5.44h1.84l-3.8,9.68H45.76l-3.68-9.68Z"/><path d="M53.08,325.7V309.76h3.66v1.1h-2.3V324.6h2.3v1.1Z"/><path d="M66.66,316.82c0,4.42-1.64,6.86-4.52,6.86-2.54,0-4.26-2.38-4.3-6.68s1.88-6.76,4.52-6.76S66.66,312.68,66.66,316.82Zm-7.06.2c0,3.38,1,5.3,2.64,5.3,1.8,0,2.66-2.1,2.66-5.42s-.82-5.3-2.64-5.3C60.72,311.6,59.6,313.48,59.6,317Z"/><path d="M71.42,309.74v16H67.76v-1.1h2.3V310.84h-2.3v-1.1Z"/><path d="M350.7,318.91l1.9,5.44a24.89,24.89,0,0,1,.78,2.48h.06c.22-.8.5-1.6.82-2.48l1.88-5.44H358l-3.8,9.68H352.5l-3.69-9.68Z"/><path d="M359.82,330.83V314.89h3.66V316h-2.3v13.74h2.3v1.1Z"/><path d="M368.58,317.23h0l-2.26,1.22-.35-1.34,2.85-1.52h1.5v13h-1.7Z"/><path d="M378.16,314.87v16h-3.67v-1.1h2.3V316h-2.3v-1.1Z"/><path d="M194.52,47l1.9,5.44a25.89,25.89,0,0,1,.78,2.49h.06c.22-.8.5-1.6.82-2.49L200,47h1.84L198,56.7h-1.68L192.64,47Z"/><path d="M203.64,58.94V43h3.66v1.1H205V57.84h2.3v1.1Z"/><path d="M208.58,56.7V55.62L210,54.28c3.32-3.17,4.82-4.85,4.84-6.81a2.32,2.32,0,0,0-2.58-2.54,4.43,4.43,0,0,0-2.76,1.1l-.56-1.24a5.7,5.7,0,0,1,3.68-1.32,3.66,3.66,0,0,1,4,3.78c0,2.4-1.74,4.34-4.48,7l-1,1v0h5.84V56.7Z"/><path d="M222,43v16h-3.66v-1.1h2.3V44.07h-2.3V43Z"/><path d="M195.36,456.31V448H194v-1.34h1.36v-.46a4.56,4.56,0,0,1,1.12-3.38,3.37,3.37,0,0,1,2.36-.9,4.08,4.08,0,0,1,1.5.28l-.24,1.36a2.63,2.63,0,0,0-1.12-.22c-1.5,0-1.88,1.32-1.88,2.8v.52h2.34V448H197.1v8.34Z"/><path d="M201.2,458.55V442.61h3.66v1.1h-2.3v13.74h2.3v1.1Z"/><path d="M214.78,449.67c0,4.42-1.64,6.86-4.52,6.86-2.54,0-4.26-2.38-4.3-6.68s1.88-6.76,4.52-6.76S214.78,445.53,214.78,449.67Zm-7.06.2c0,3.38,1,5.3,2.64,5.3,1.8,0,2.66-2.1,2.66-5.42s-.82-5.3-2.64-5.3C208.84,444.45,207.72,446.33,207.72,449.87Z"/><path d="M219.54,442.59v16h-3.66v-1.1h2.3V443.69h-2.3v-1.1Z"/><path d="M395.64,108.72v-8.34h-1.36V99h1.36v-.46a4.56,4.56,0,0,1,1.12-3.38,3.37,3.37,0,0,1,2.36-.9,4.08,4.08,0,0,1,1.5.28l-.24,1.36a2.63,2.63,0,0,0-1.12-.22c-1.5,0-1.88,1.32-1.88,2.8V99h2.34v1.34h-2.34v8.34Z"/><path d="M401.48,111V95h3.66v1.1h-2.3v13.74h2.3V111Z"/><path d="M410.24,97.36h0l-2.26,1.22-.35-1.34,2.85-1.52h1.5v13h-1.7Z"/><path d="M419.82,95v16h-3.67v-1.1h2.31V96.1h-2.31V95Z"/><path d="M1.64,103.59V95.25H.28V93.91H1.64v-.46a4.56,4.56,0,0,1,1.12-3.38,3.37,3.37,0,0,1,2.36-.9,4.08,4.08,0,0,1,1.5.28l-.24,1.36a2.63,2.63,0,0,0-1.12-.22c-1.5,0-1.88,1.32-1.88,2.8v.52H5.72v1.34H3.38v8.34Z"/><path d="M7.48,105.83V89.89h3.66V91H8.84v13.75h2.3v1.09Z"/><path d="M12.42,103.59v-1.08l1.38-1.34c3.32-3.16,4.82-4.84,4.84-6.8a2.32,2.32,0,0,0-2.58-2.54,4.43,4.43,0,0,0-2.76,1.1l-.56-1.24a5.7,5.7,0,0,1,3.68-1.32,3.66,3.66,0,0,1,4,3.78c0,2.4-1.74,4.34-4.48,7l-1,1v0h5.84v1.46Z"/><path d="M25.82,89.87v16H22.16v-1.09h2.3V91h-2.3v-1.1Z"/><polyline class="cls-2" points="713.56 267.56 713.34 267.95 665.43 350.46 617.93 267.72"/><polygon points="706.34 269.04 713.24 268.12 715.86 274.57 717.63 260.55 706.34 269.04"/><polygon class="cls-3" points="708.16 268.3 716.97 261.69 713.55 267.58 708.16 268.3"/><polygon class="cls-4" points="715.6 272.62 716.97 261.69 713.55 267.58 715.6 272.62"/><polyline class="cls-2" points="617.93 267.72 570.42 184.98 665.83 185.21 666.75 185.21"/><polygon points="620.25 260.72 617.6 267.16 610.71 266.2 621.96 274.75 620.25 260.72"/><polygon class="cls-3" points="619.99 262.67 621.31 273.61 617.92 267.7 619.99 262.67"/><polygon class="cls-4" points="612.53 266.95 621.31 273.61 617.92 267.7 612.53 266.95"/><polyline class="cls-2" points="666.75 185.21 761.24 185.44 716.93 261.76"/><polygon points="671.64 190.73 667.4 185.21 671.67 179.72 658.64 185.19 671.64 190.73"/><polygon class="cls-3" points="670.09 189.52 659.96 185.19 666.77 185.21 670.09 189.52"/><polygon class="cls-4" points="670.11 180.92 659.96 185.19 666.77 185.21 670.11 180.92"/><polyline class="cls-2" points="618.3 83.9 618.53 83.51 666.43 1 713.94 83.74"/><polygon points="625.53 82.42 618.63 83.34 616.01 76.89 614.23 90.91 625.53 82.42"/><polygon class="cls-3" points="623.7 83.17 614.89 89.78 618.31 83.89 623.7 83.17"/><polygon class="cls-4" points="616.27 78.85 614.89 89.78 618.31 83.89 616.27 78.85"/><polyline class="cls-2" points="713.94 83.74 761.45 166.48 666.03 166.25 665.12 166.25"/><polygon points="711.61 90.74 714.26 84.31 721.16 85.26 709.9 76.71 711.61 90.74"/><polygon class="cls-3" points="711.88 88.79 710.56 77.85 713.95 83.76 711.88 88.79"/><polygon class="cls-4" points="719.33 84.51 710.56 77.85 713.95 83.76 719.33 84.51"/><polyline class="cls-2" points="665.12 166.25 570.63 166.03 614.93 89.7"/><polygon points="660.22 160.74 664.47 166.25 660.19 171.74 673.22 166.27 660.22 160.74"/><polygon class="cls-3" points="661.78 161.94 671.91 166.27 665.1 166.25 661.78 161.94"/><polygon class="cls-4" points="661.76 170.54 671.91 166.27 665.1 166.25 661.76 170.54"/><polyline class="cls-2" points="501.99 270.88 502.21 270.49 550.12 187.98 597.62 270.72"/><polygon points="509.21 269.4 502.31 270.32 499.69 263.87 497.92 277.89 509.21 269.4"/><polygon class="cls-3" points="507.39 270.14 498.58 276.76 502 270.87 507.39 270.14"/><polygon class="cls-4" points="499.95 265.83 498.58 276.76 502 270.87 499.95 265.83"/><polyline class="cls-2" points="597.62 270.72 645.13 353.46 549.72 353.24 548.8 353.23"/><polygon points="595.29 277.72 597.95 271.29 604.84 272.24 593.59 263.69 595.29 277.72"/><polygon class="cls-3" points="595.56 275.77 594.24 264.83 597.63 270.74 595.56 275.77"/><polygon class="cls-4" points="603.02 271.49 594.24 264.83 597.63 270.74 603.02 271.49"/><polyline class="cls-2" points="548.8 353.23 454.31 353.01 498.62 276.69"/><polygon points="543.91 347.72 548.15 353.23 543.88 358.73 556.91 353.25 543.91 347.72"/><polygon class="cls-3" points="545.46 348.92 555.59 353.25 548.78 353.23 545.46 348.92"/><polygon class="cls-4" points="545.44 357.52 555.59 353.25 548.78 353.23 545.44 357.52"/><polyline class="cls-2" points="732.41 270.88 732.64 270.49 780.54 187.98 828.05 270.72"/><polygon points="739.64 269.4 732.74 270.32 730.12 263.87 728.34 277.89 739.64 269.4"/><polygon class="cls-3" points="737.82 270.14 729 276.76 732.42 270.87 737.82 270.14"/><polygon class="cls-4" points="730.38 265.83 729 276.76 732.42 270.87 730.38 265.83"/><polyline class="cls-2" points="828.05 270.72 875.55 353.46 780.15 353.24 779.23 353.23"/><polygon points="825.72 277.72 828.37 271.29 835.27 272.24 824.01 263.69 825.72 277.72"/><polygon class="cls-3" points="825.99 275.77 824.67 264.83 828.06 270.74 825.99 275.77"/><polygon class="cls-4" points="833.44 271.49 824.67 264.83 828.06 270.74 833.44 271.49"/><polyline class="cls-2" points="779.23 353.23 684.74 353.01 729.04 276.69"/><polygon points="774.33 347.72 778.58 353.23 774.3 358.73 787.33 353.25 774.33 347.72"/><polygon class="cls-3" points="775.89 348.92 786.02 353.25 779.21 353.23 775.89 348.92"/><polygon class="cls-4" points="775.87 357.52 786.02 353.25 779.21 353.23 775.87 357.52"/><path d="M476.2,332.67l1.9,5.44a24.89,24.89,0,0,1,.78,2.48h.06c.22-.8.5-1.6.82-2.48l1.88-5.44h1.84l-3.8,9.68H478l-3.68-9.68Z"/><path d="M485.32,344.59V328.65H489v1.1h-2.3v13.74H489v1.1Z"/><path d="M498.9,335.71c0,4.42-1.64,6.86-4.52,6.86-2.54,0-4.26-2.38-4.3-6.68s1.88-6.76,4.52-6.76S498.9,331.57,498.9,335.71Zm-7.06.2c0,3.38,1,5.3,2.64,5.3,1.8,0,2.66-2.1,2.66-5.42s-.82-5.3-2.64-5.3C493,330.49,491.84,332.37,491.84,335.91Z"/><path d="M503.66,328.63v16H500v-1.1h2.3V329.73H500v-1.1Z"/><path d="M601.19,335l1.9,5.44a24.89,24.89,0,0,1,.78,2.48h.06c.22-.8.5-1.6.82-2.48l1.88-5.44h1.84l-3.8,9.69H603L599.31,335Z"/><path d="M610.31,346.94V331H614v1.1h-2.3v13.75H614v1.1Z"/><path d="M619.07,333.33h0l-2.26,1.22-.34-1.34,2.84-1.52h1.5v13h-1.7Z"/><path d="M628.65,331v16H625v-1.1h2.3V332.07H625V331Z"/><path d="M537.23,223.81l1.9,5.44a24.89,24.89,0,0,1,.78,2.48H540c.22-.8.5-1.6.82-2.48l1.88-5.44h1.84l-3.8,9.68H539l-3.68-9.68Z"/><path d="M546.35,235.73V219.79H550v1.1h-2.3v13.74H550v1.1Z"/><path d="M551.29,233.49v-1.08l1.38-1.34c3.32-3.16,4.82-4.84,4.84-6.8a2.32,2.32,0,0,0-2.58-2.54,4.43,4.43,0,0,0-2.76,1.1l-.56-1.24a5.7,5.7,0,0,1,3.68-1.32,3.66,3.66,0,0,1,4,3.78c0,2.4-1.74,4.34-4.48,7l-1,1v0h5.84v1.46Z"/><path d="M564.69,219.77v16H561v-1.1h2.3V220.87H561v-1.1Z"/><path d="M543.45,285.65a6.48,6.48,0,0,1-2.78.56,4.6,4.6,0,0,1-4.82-4.94,4.92,4.92,0,0,1,5.2-5.14,5.88,5.88,0,0,1,2.44.5l-.4,1.36a4.08,4.08,0,0,0-2-.46,3.65,3.65,0,0,0-.06,7.28,5,5,0,0,0,2.16-.48Z"/><path d="M545.69,288.25V272.31h3.66v1.1h-2.3v13.74h2.3v1.1Z"/><path d="M559.27,279.37c0,4.42-1.64,6.86-4.52,6.86-2.54,0-4.26-2.38-4.3-6.68s1.88-6.76,4.52-6.76S559.27,275.23,559.27,279.37Zm-7.06.2c0,3.38,1,5.3,2.64,5.3,1.8,0,2.66-2.1,2.66-5.42s-.82-5.3-2.64-5.3C553.33,274.15,552.21,276,552.21,279.57Z"/><path d="M564,272.29v16h-3.66v-1.1h2.3V273.39h-2.3v-1.1Z"/><path d="M776.42,285.65a6.48,6.48,0,0,1-2.78.56,4.6,4.6,0,0,1-4.82-4.94,4.92,4.92,0,0,1,5.2-5.14,5.88,5.88,0,0,1,2.44.5l-.4,1.36a4.08,4.08,0,0,0-2-.46,3.65,3.65,0,0,0-.06,7.28,5,5,0,0,0,2.16-.48Z"/><path d="M778.66,288.25V272.31h3.66v1.1H780v13.74h2.3v1.1Z"/><path d="M787.42,274.65h0l-2.26,1.22-.34-1.34,2.84-1.52h1.5v13h-1.7Z"/><path d="M797,272.29v16h-3.66v-1.1h2.3V273.39h-2.3v-1.1Z"/><path d="M659.81,93.18a6.48,6.48,0,0,1-2.78.56,4.6,4.6,0,0,1-4.82-4.94,4.93,4.93,0,0,1,5.2-5.15,5.88,5.88,0,0,1,2.44.5l-.4,1.37a4.08,4.08,0,0,0-2-.46,3.65,3.65,0,0,0-.06,7.28,5,5,0,0,0,2.16-.48Z"/><path d="M662.05,95.78v-16h3.66v1.1h-2.3V94.68h2.3v1.1Z"/><path d="M667,93.54V92.46l1.38-1.34c3.32-3.16,4.82-4.84,4.84-6.8a2.32,2.32,0,0,0-2.58-2.55,4.43,4.43,0,0,0-2.76,1.1l-.56-1.24A5.7,5.7,0,0,1,671,80.31a3.66,3.66,0,0,1,4,3.78c0,2.4-1.74,4.35-4.48,7l-1,1v0h5.84v1.46Z"/><path d="M680.39,79.81v16h-3.67v-1.1H679V80.91h-2.31v-1.1Z"/><path d="M659.81,245.16a6.48,6.48,0,0,1-2.78.56,4.6,4.6,0,0,1-4.82-4.94,4.92,4.92,0,0,1,5.2-5.14,5.88,5.88,0,0,1,2.44.5l-.4,1.36a4.08,4.08,0,0,0-2-.46,3.65,3.65,0,0,0-.06,7.28,5,5,0,0,0,2.16-.48Z"/><path d="M662.05,247.76V231.82h3.66v1.1h-2.3v13.74h2.3v1.1Z"/><path d="M667.41,243.5a5.88,5.88,0,0,0,2.88.82c2.26,0,3-1.44,2.94-2.52,0-1.82-1.66-2.6-3.36-2.6h-1v-1.32h1c1.28,0,2.9-.66,2.9-2.2,0-1-.66-2-2.28-2a4.77,4.77,0,0,0-2.6.86l-.47-1.28a6.24,6.24,0,0,1,3.41-1c2.56,0,3.72,1.52,3.72,3.1a3.23,3.23,0,0,1-2.4,3.06v0a3.39,3.39,0,0,1,2.9,3.34c0,2.08-1.62,3.9-4.74,3.9a6.68,6.68,0,0,1-3.39-.88Z"/><path d="M680.39,231.8v16h-3.67v-1.1H679V232.9h-2.31v-1.1Z"/><path d="M653.26,307.43l1.9,5.44a24.89,24.89,0,0,1,.78,2.48H656c.22-.8.5-1.6.82-2.48l1.88-5.44h1.84l-3.8,9.68h-1.68l-3.68-9.68Z"/><path d="M662.38,319.35V303.41H666v1.1h-2.3v13.74H666v1.1Z"/><path d="M676,310.47c0,4.42-1.64,6.86-4.52,6.86-2.54,0-4.27-2.38-4.31-6.68s1.89-6.76,4.53-6.76S676,306.33,676,310.47Zm-7.06.2c0,3.38,1,5.3,2.64,5.3,1.8,0,2.66-2.1,2.66-5.42s-.82-5.3-2.64-5.3C670,305.25,668.9,307.13,668.9,310.67Z"/><path d="M680.72,303.39v16h-3.67v-1.1h2.31V304.49h-2.31v-1.1Z"/><path d="M715.92,194.47l1.9,5.44a24.89,24.89,0,0,1,.78,2.48h.06c.22-.8.5-1.6.82-2.48l1.88-5.44h1.84l-3.8,9.68h-1.68L714,194.47Z"/><path d="M725,206.39V190.45h3.66v1.1h-2.3v13.74h2.3v1.1Z"/><path d="M733.8,192.79h0L731.5,194l-.34-1.34,2.84-1.52h1.5v13h-1.7Z"/><path d="M743.38,190.43v16h-3.66v-1.1H742V191.53h-2.3v-1.1Z"/><path d="M590.92,194.47l1.91,5.44a24.89,24.89,0,0,1,.78,2.48h.06c.22-.8.5-1.6.82-2.48l1.88-5.44h1.84l-3.8,9.68h-1.69L589,194.47Z"/><path d="M600,206.39V190.45h3.67v1.1h-2.3v13.74h2.3v1.1Z"/><path d="M605,204.15v-1.08l1.38-1.34c3.33-3.16,4.83-4.84,4.85-6.8a2.32,2.32,0,0,0-2.59-2.54,4.43,4.43,0,0,0-2.76,1.1l-.56-1.24a5.71,5.71,0,0,1,3.69-1.32,3.66,3.66,0,0,1,4,3.78c0,2.4-1.74,4.34-4.48,7l-1,1v0h5.85v1.46Z"/><path d="M618.38,190.43v16h-3.66v-1.1H617V191.53h-2.3v-1.1Z"/><path d="M705.06,334.43l1.9,5.44a24.89,24.89,0,0,1,.78,2.48h.06c.22-.8.5-1.6.82-2.48l1.88-5.44h1.84l-3.8,9.68h-1.68l-3.68-9.68Z"/><path d="M714.18,346.35v-16h3.66v1.11h-2.3v13.74h2.3v1.1Z"/><path d="M727.76,337.47c0,4.42-1.64,6.86-4.52,6.86-2.54,0-4.26-2.38-4.3-6.68s1.88-6.76,4.52-6.76S727.76,333.33,727.76,337.47Zm-7.06.2c0,3.38,1,5.3,2.64,5.3,1.8,0,2.66-2.1,2.66-5.42s-.82-5.3-2.64-5.3C721.82,332.25,720.7,334.13,720.7,337.67Z"/><path d="M732.52,330.39v16h-3.66v-1.1h2.3V331.49h-2.3v-1.1Z"/><path d="M831.23,335l1.9,5.44a24.89,24.89,0,0,1,.78,2.48H834c.22-.8.5-1.6.82-2.48l1.88-5.44h1.84l-3.8,9.69H833L829.35,335Z"/><path d="M840.35,346.94V331H844v1.1h-2.3v13.75H844v1.1Z"/><path d="M849.11,333.33h0l-2.26,1.22-.34-1.34,2.84-1.52h1.5v13h-1.7Z"/><path d="M858.69,331v16H855v-1.1h2.3V332.07H855V331Z"/><path d="M769.61,223.81l1.9,5.44a24.89,24.89,0,0,1,.78,2.48h.06c.22-.8.5-1.6.82-2.48l1.88-5.44h1.84l-3.8,9.68h-1.68l-3.68-9.68Z"/><path d="M778.73,235.73V219.79h3.66v1.1h-2.3v13.74h2.3v1.1Z"/><path d="M783.67,233.49v-1.08l1.38-1.34c3.32-3.16,4.82-4.84,4.84-6.8a2.32,2.32,0,0,0-2.58-2.54,4.43,4.43,0,0,0-2.76,1.1l-.56-1.24a5.7,5.7,0,0,1,3.68-1.32,3.66,3.66,0,0,1,4,3.78c0,2.4-1.74,4.34-4.48,7l-1,1v0H792v1.46Z"/><path d="M797.07,219.77v16h-3.66v-1.1h2.3V220.87h-2.3v-1.1Z"/><path d="M590.92,148.4l1.91,5.45a24.89,24.89,0,0,1,.78,2.48h.06c.22-.8.5-1.6.82-2.48l1.88-5.45h1.84l-3.8,9.69h-1.69L589,148.4Z"/><path d="M600,160.33v-16h3.67v1.1h-2.3v13.75h2.3v1.1Z"/><path d="M613.63,151.45c0,4.42-1.64,6.86-4.52,6.86-2.55,0-4.27-2.38-4.31-6.68s1.88-6.77,4.53-6.77S613.63,147.3,613.63,151.45Zm-7.07.2c0,3.38,1,5.3,2.65,5.3,1.8,0,2.66-2.1,2.66-5.42s-.82-5.31-2.65-5.31C607.68,146.22,606.56,148.1,606.56,151.65Z"/><path d="M618.38,144.36v16h-3.66v-1.1H617V145.46h-2.3v-1.1Z"/><path d="M715.92,148.4l1.9,5.45a24.89,24.89,0,0,1,.78,2.48h.06c.22-.8.5-1.6.82-2.48l1.88-5.45h1.84l-3.8,9.69h-1.68L714,148.4Z"/><path d="M725,160.33v-16h3.66v1.1h-2.3v13.75h2.3v1.1Z"/><path d="M733.8,146.72h0l-2.26,1.22-.34-1.34,2.84-1.52h1.5v13h-1.7Z"/><path d="M743.38,144.36v16h-3.66v-1.1H742V145.46h-2.3v-1.1Z"/><path d="M653.26,38.08l1.9,5.44a24.89,24.89,0,0,1,.78,2.48H656c.22-.8.5-1.6.82-2.48l1.88-5.44h1.84l-3.8,9.68h-1.68l-3.68-9.68Z"/><path d="M662.38,50V34.06H666v1.1h-2.3V48.9H666V50Z"/><path d="M667.32,47.76V46.68l1.38-1.34c3.32-3.16,4.82-4.84,4.84-6.8A2.32,2.32,0,0,0,671,36a4.43,4.43,0,0,0-2.76,1.1l-.56-1.24a5.7,5.7,0,0,1,3.68-1.32,3.66,3.66,0,0,1,4,3.78c0,2.4-1.74,4.34-4.48,7l-1,1v0h5.84v1.46Z"/><path d="M680.72,34V50h-3.67V48.9h2.31V35.14h-2.31V34Z"/></svg>