<svg id="Layer_1" data-name="Layer 1" xmlns="http://www.w3.org/2000/svg" viewBox="0 0 327.84 218.43"><defs><style>.cls-1{fill:none;stroke:#000;stroke-miterlimit:10;}.cls-2{fill:#a6a6a6;}.cls-3{fill:#666;}</style></defs><title>Subdiv prev next vert</title><polyline class="cls-1" points="110.77 186.14 110.33 186.2 15.94 200.13 51.07 111.43"/><polygon points="105.11 181.41 110.13 186.23 106.72 192.3 118.79 184.96 105.11 181.41"/><polygon class="cls-2" points="106.83 182.37 117.49 185.15 110.75 186.14 106.83 182.37"/><polygon class="cls-3" points="108.08 190.88 117.49 185.15 110.75 186.14 108.08 190.88"/><polyline class="cls-1" points="51.07 111.43 86.2 22.72 145.46 97.5 146.03 98.22"/><polygon points="57.99 108.89 51.31 110.82 47.76 104.83 48.09 118.96 57.99 108.89"/><polygon class="cls-2" points="56.3 109.89 48.57 117.74 51.08 111.41 56.3 109.89"/><polygon class="cls-3" points="48.31 106.73 48.57 117.74 51.08 111.41 48.31 106.73"/><polyline class="cls-1" points="146.03 98.22 204.71 172.28 117.41 185.16"/><polygon points="144.76 105.48 146.43 98.73 153.39 98.65 140.99 91.87 144.76 105.48"/><polygon class="cls-2" points="144.74 103.52 141.81 92.89 146.04 98.23 144.74 103.52"/><polygon class="cls-3" points="151.48 98.18 141.81 92.89 146.04 98.23 151.48 98.18"/><path d="M34.46,16.74V8.4H33.1V7.06h1.36V6.6a4.56,4.56,0,0,1,1.12-3.38A3.39,3.39,0,0,1,38,2.32a4.08,4.08,0,0,1,1.5.28L39.21,4a2.64,2.64,0,0,0-1.13-.22c-1.5,0-1.87,1.32-1.87,2.8v.52h2.34V8.4H36.21v8.34Z"/><path d="M44.21,10.68V12h-5v-1.3Z"/><path d="M55.41,12l-9.29,4.76V15.36L54,11.44v0L46.12,7.48V6.1l9.29,4.76Z"/><path d="M58.18,10.22c0-1.24,0-2.24-.08-3.16h1.58l.08,1.66h0a3.82,3.82,0,0,1,3.45-1.88c2.34,0,4.1,2,4.1,4.92,0,3.48-2.12,5.2-4.4,5.2a3.41,3.41,0,0,1-3-1.52h0V20.7H58.18Zm1.74,2.58a4,4,0,0,0,.08.72,2.72,2.72,0,0,0,2.64,2.06c1.86,0,3-1.52,3-3.74,0-1.94-1-3.6-2.88-3.6A2.81,2.81,0,0,0,60,10.42a2.85,2.85,0,0,0-.12.72Z"/><path d="M69.56,10.08c0-1.14,0-2.12-.08-3H71L71.08,9h.08a2.9,2.9,0,0,1,2.68-2.12,1.9,1.9,0,0,1,.5.06V8.56a2.55,2.55,0,0,0-.59-.06,2.47,2.47,0,0,0-2.37,2.26,5,5,0,0,0-.08.82v5.16H69.56Z"/><path d="M76.88,12.22a3.1,3.1,0,0,0,3.33,3.36,6.35,6.35,0,0,0,2.67-.5l.31,1.26a7.9,7.9,0,0,1-3.23.6c-3,0-4.76-2-4.76-4.88s1.72-5.22,4.54-5.22c3.17,0,4,2.78,4,4.56a6.64,6.64,0,0,1-.06.82ZM82,11c0-1.12-.46-2.86-2.44-2.86C77.82,8.1,77,9.74,76.9,11Z"/><path d="M86.6,7.06l1.9,5.44A24.89,24.89,0,0,1,89.28,15h.06c.22-.8.5-1.6.82-2.48L92,7.06h1.84l-3.8,9.68H88.4L84.72,7.06Z"/><path d="M98.56,16.74,94.16,3.26H96l2.1,6.64c.58,1.82,1.08,3.46,1.44,5h0c.38-1.56.94-3.26,1.54-5l2.29-6.66h1.86l-4.83,13.48Z"/><path d="M107,12.22a3.1,3.1,0,0,0,3.32,3.36,6.36,6.36,0,0,0,2.68-.5l.31,1.26a7.9,7.9,0,0,1-3.23.6c-3,0-4.76-2-4.76-4.88s1.72-5.22,4.54-5.22c3.16,0,4,2.78,4,4.56,0,.36,0,.64,0,.82ZM112.18,11c0-1.12-.46-2.86-2.44-2.86C108,8.1,107.18,9.74,107,11Z"/><path d="M116.06,10.08c0-1.14,0-2.12-.08-3h1.54l.06,1.9h.08a2.9,2.9,0,0,1,2.68-2.12,1.9,1.9,0,0,1,.5.06V8.56a2.55,2.55,0,0,0-.59-.06,2.47,2.47,0,0,0-2.37,2.26,5,5,0,0,0-.08.82v5.16h-1.74Z"/><path d="M125.2,4.28V7.06h2.52V8.4H125.2v5.22c0,1.2.34,1.88,1.32,1.88a3.92,3.92,0,0,0,1-.12l.08,1.32a4.31,4.31,0,0,1-1.56.24,2.44,2.44,0,0,1-1.9-.74,3.59,3.59,0,0,1-.68-2.52V8.4H122V7.06h1.5V4.74Z"/><path d="M133.52,2.86A13.19,13.19,0,0,0,131,11a13.48,13.48,0,0,0,2.52,8.12h-1.38A12.93,12.93,0,0,1,129.52,11a13.2,13.2,0,0,1,2.62-8.18Z"/><path d="M136.06,7.06,138,12.5a24.89,24.89,0,0,1,.78,2.48h.06c.22-.8.5-1.6.82-2.48l1.88-5.44h1.84l-3.8,9.68h-1.68l-3.68-9.68Z"/><path d="M143.94,19.16A13.54,13.54,0,0,0,146.46,11a13.26,13.26,0,0,0-2.52-8.12h1.36A12.74,12.74,0,0,1,147.92,11a13,13,0,0,1-2.62,8.16Z"/><path d="M213.24,185.93v-8.34h-1.36v-1.34h1.36v-.46a4.56,4.56,0,0,1,1.12-3.38,3.37,3.37,0,0,1,2.36-.9,4.08,4.08,0,0,1,1.5.28l-.23,1.36a2.72,2.72,0,0,0-1.13-.22c-1.5,0-1.88,1.32-1.88,2.8v.52h2.35v1.34H215v8.34Z"/><path d="M223,179.87v1.3H218v-1.3Z"/><path d="M234.19,181.17l-9.29,4.76v-1.38l7.89-3.92v0l-7.89-3.92v-1.38l9.29,4.76Z"/><path d="M237,178.87c0-1,0-1.82-.08-2.62h1.56l.1,1.6h0a3.56,3.56,0,0,1,3.2-1.82c1.34,0,3.43.8,3.43,4.12v5.78h-1.77v-5.58c0-1.56-.58-2.86-2.24-2.86a2.5,2.5,0,0,0-2.36,1.8,2.53,2.53,0,0,0-.12.82v5.82H237Z"/><path d="M249,181.41a3.1,3.1,0,0,0,3.32,3.36,6.36,6.36,0,0,0,2.68-.5l.3,1.26a7.84,7.84,0,0,1-3.22.6c-3,0-4.76-2-4.76-4.88s1.72-5.22,4.54-5.22c3.16,0,4,2.78,4,4.56a6.64,6.64,0,0,1-.06.82Zm5.16-1.26c0-1.12-.46-2.86-2.44-2.86-1.78,0-2.56,1.64-2.7,2.86Z"/><path d="M258.84,176.25l1.38,2.08c.36.54.66,1,1,1.58h.06c.32-.58.64-1.08,1-1.6l1.36-2.06h1.9l-3.3,4.68,3.4,5h-2l-1.42-2.18c-.38-.56-.7-1.1-1-1.68h0c-.32.58-.66,1.1-1,1.68l-1.4,2.18h-1.94l3.44-4.94-3.28-4.74Z"/><path d="M269.66,173.47v2.78h2.52v1.34h-2.52v5.22c0,1.2.34,1.88,1.32,1.88a3.92,3.92,0,0,0,1-.12l.08,1.32a4.31,4.31,0,0,1-1.56.24,2.44,2.44,0,0,1-1.9-.74,3.59,3.59,0,0,1-.68-2.52v-5.28h-1.5v-1.34h1.5v-2.32Z"/><path d="M277.18,185.93l-4.4-13.48h1.88l2.1,6.64c.58,1.82,1.08,3.46,1.44,5h0c.38-1.56.94-3.26,1.54-5l2.28-6.66h1.86l-4.82,13.48Z"/><path d="M285.64,181.41a3.1,3.1,0,0,0,3.32,3.36,6.36,6.36,0,0,0,2.68-.5l.3,1.26a7.84,7.84,0,0,1-3.22.6c-3,0-4.76-2-4.76-4.88s1.72-5.22,4.54-5.22c3.16,0,4,2.78,4,4.56a6.64,6.64,0,0,1-.06.82Zm5.16-1.26c0-1.12-.46-2.86-2.44-2.86-1.78,0-2.56,1.64-2.7,2.86Z"/><path d="M294.68,179.27c0-1.14,0-2.12-.08-3h1.54l.06,1.9h.08A2.9,2.9,0,0,1,299,176a1.9,1.9,0,0,1,.5.06v1.66a2.64,2.64,0,0,0-.6-.06A2.47,2.47,0,0,0,296.5,180a5,5,0,0,0-.08.82v5.16h-1.74Z"/><path d="M303.82,173.47v2.78h2.52v1.34h-2.52v5.22c0,1.2.34,1.88,1.32,1.88a3.92,3.92,0,0,0,1-.12l.08,1.32a4.31,4.31,0,0,1-1.56.24,2.44,2.44,0,0,1-1.9-.74,3.59,3.59,0,0,1-.68-2.52v-5.28h-1.5v-1.34h1.5v-2.32Z"/><path d="M312.14,172.05a13.19,13.19,0,0,0-2.52,8.18,13.48,13.48,0,0,0,2.52,8.12h-1.38a12.93,12.93,0,0,1-2.62-8.12,13.2,13.2,0,0,1,2.62-8.18Z"/><path d="M314.68,176.25l1.9,5.44a24.89,24.89,0,0,1,.78,2.48h.06c.22-.8.5-1.6.82-2.48l1.88-5.44H322l-3.8,9.68h-1.68l-3.68-9.68Z"/><path d="M322.56,188.35a13.54,13.54,0,0,0,2.52-8.18,13.26,13.26,0,0,0-2.52-8.12h1.36a12.74,12.74,0,0,1,2.62,8.14,13,13,0,0,1-2.62,8.16Z"/><path d="M2.14,203.75,4,209.19a24.89,24.89,0,0,1,.78,2.48h.06c.22-.8.5-1.6.82-2.48l1.88-5.44H9.42l-3.8,9.68H3.94L.26,203.75Z"/><path d="M100.62,121.46v-8.34H99.26v-1.34h1.36v-.46a4.53,4.53,0,0,1,1.13-3.38,3.37,3.37,0,0,1,2.36-.9,4.08,4.08,0,0,1,1.5.28l-.24,1.36a2.63,2.63,0,0,0-1.12-.22c-1.5,0-1.88,1.32-1.88,2.8v.52h2.34v1.34h-2.34v8.34Z"/></svg>