<svg id="Layer_1" data-name="Layer 1" xmlns="http://www.w3.org/2000/svg" viewBox="0 0 383.74 240.55"><defs><style>.cls-1,.cls-2{fill:none;stroke:#000;stroke-miterlimit:10;}.cls-1{stroke-dasharray:4;}.cls-3{fill:#a6a6a6;}.cls-4{fill:#666;}</style></defs><title>Subdiv prev next face</title><polyline class="cls-1" points="288.1 53.27 335.06 134.61 382.88 217.43 287.24 217.43 192.22 217.43"/><polyline class="cls-1" points="190.26 217.37 96.5 217.37 0.87 217.37 48.69 134.55 95.86 52.84"/><polyline class="cls-2" points="239.5 134.08 239.28 134.47 191.37 216.98 143.87 134.24"/><polygon points="232.28 135.56 239.18 134.64 241.8 141.09 243.57 127.07 232.28 135.56"/><polygon class="cls-3" points="234.1 134.82 242.91 128.21 239.49 134.09 234.1 134.82"/><polygon class="cls-4" points="241.54 139.13 242.91 128.21 239.49 134.09 241.54 139.13"/><polyline class="cls-2" points="143.87 134.24 96.36 51.5 191.77 51.73 192.69 51.73"/><polygon points="146.19 127.24 143.54 133.68 136.65 132.72 147.9 141.27 146.19 127.24"/><polygon class="cls-3" points="145.93 129.19 147.25 140.13 143.86 134.22 145.93 129.19"/><polygon class="cls-4" points="138.47 133.47 147.25 140.13 143.86 134.22 138.47 133.47"/><polyline class="cls-2" points="192.69 51.73 287.18 51.96 242.87 128.28"/><polygon points="197.58 57.24 193.34 51.73 197.61 46.24 184.58 51.71 197.58 57.24"/><polygon class="cls-3" points="196.03 56.04 185.9 51.71 192.71 51.73 196.03 56.04"/><polygon class="cls-4" points="196.05 47.44 185.9 51.71 192.71 51.73 196.05 47.44"/><path d="M192.87,135.18v-8.34h-1.36V125.5h1.36V125a4.56,4.56,0,0,1,1.12-3.38,3.37,3.37,0,0,1,2.36-.9,4.08,4.08,0,0,1,1.5.28l-.24,1.36a2.63,2.63,0,0,0-1.12-.22c-1.5,0-1.88,1.32-1.88,2.8v.52H197v1.34h-2.34v8.34Z"/><path d="M294.91,36.39l1.9,5.44a24.89,24.89,0,0,1,.78,2.48h.06c.22-.8.5-1.6.82-2.48l1.88-5.44h1.84l-3.8,9.69h-1.68L293,36.39Z"/><path d="M304,48.32v-16h3.66v1.1h-2.3V47.22h2.3v1.1Z"/><path d="M309.59,46.08V32.59h1.9l4.32,6.82a38.16,38.16,0,0,1,2.42,4.38l0,0c-.16-1.8-.2-3.44-.2-5.54V32.59h1.64V46.08H318l-4.28-6.85a42.79,42.79,0,0,1-2.52-4.5l-.06,0c.1,1.7.14,3.32.14,5.56v5.77Z"/><path d="M329.73,39.75h-5.24v4.87h5.84v1.46h-7.58V32.59H330v1.46h-5.54v4.26h5.24Z"/><path d="M340,46.08l-1.72-3c-.7-1.14-1.14-1.88-1.56-2.66h0c-.38.78-.76,1.5-1.46,2.68l-1.62,3h-2l4.12-6.83-4-6.66h2l1.78,3.16c.5.88.88,1.56,1.24,2.28h.06c.38-.8.72-1.42,1.22-2.28l1.84-3.16h2l-4.1,6.56,4.2,6.93Z"/><path d="M346.73,34.07h-4.1V32.59h10v1.48h-4.12v12h-1.76Z"/><path d="M357.87,32.19a13.19,13.19,0,0,0-2.52,8.18,13.53,13.53,0,0,0,2.52,8.13h-1.38a13,13,0,0,1-2.62-8.13,13.2,13.2,0,0,1,2.62-8.18Z"/><path d="M361.69,33.67a1.09,1.09,0,0,1-2.18,0,1.07,1.07,0,0,1,1.1-1.1A1,1,0,0,1,361.69,33.67Zm-2,12.41V36.39h1.76v9.69Z"/><path d="M363.35,48.5a13.57,13.57,0,0,0,2.52-8.19,13.26,13.26,0,0,0-2.52-8.12h1.36a12.74,12.74,0,0,1,2.62,8.14,13,13,0,0,1-2.62,8.17Z"/><path d="M372.67,32.35v16H369v-1.1h2.3V33.45H369v-1.1Z"/><path d="M184.16,225.87l1.9,5.44a24.89,24.89,0,0,1,.78,2.48h.06c.22-.8.5-1.6.82-2.48l1.88-5.44h1.84l-3.8,9.68H186l-3.68-9.68Z"/><path d="M193.28,237.79V221.85h3.66V223h-2.3v13.74h2.3v1.1Z"/><path d="M200.74,223.15a1.09,1.09,0,0,1-2.18,0,1.07,1.07,0,0,1,1.1-1.1A1,1,0,0,1,200.74,223.15Zm-2,12.4v-9.68h1.76v9.68Z"/><path d="M206,221.83v16h-3.66v-1.1h2.3V222.93h-2.3v-1.1Z"/><path d="M14.15,36.39l1.9,5.44a24.89,24.89,0,0,1,.78,2.48h.06c.22-.8.5-1.6.82-2.48l1.88-5.44h1.84l-3.8,9.68H16l-3.68-9.68Z"/><path d="M23.27,48.31V32.37h3.66v1.1h-2.3V47.21h2.3v1.1Z"/><path d="M28.83,32.75a20.17,20.17,0,0,1,3.34-.26A5.54,5.54,0,0,1,36,33.61a3.62,3.62,0,0,1,1.18,2.82,4,4,0,0,1-1,2.88A5.59,5.59,0,0,1,32,40.79a6,6,0,0,1-1.4-.12v5.4H28.83Zm1.74,6.5a5.84,5.84,0,0,0,1.44.14c2.1,0,3.38-1,3.38-2.88s-1.26-2.64-3.18-2.64a7.3,7.3,0,0,0-1.64.14Z"/><path d="M39.47,32.77a18.12,18.12,0,0,1,3.34-.28,5.51,5.51,0,0,1,3.9,1.1,3.36,3.36,0,0,1,1.06,2.56,3.54,3.54,0,0,1-2.54,3.44v.06a3.36,3.36,0,0,1,2,2.72,21.45,21.45,0,0,0,1,3.7h-1.8a17.46,17.46,0,0,1-.9-3.22c-.4-1.86-1.12-2.56-2.7-2.62H41.21v5.84H39.47Zm1.74,6.14H43c1.86,0,3-1,3-2.56,0-1.74-1.26-2.5-3.1-2.52a7.16,7.16,0,0,0-1.72.16Z"/><path d="M57.21,39.75H52v4.86h5.84v1.46H50.23V32.59h7.28v1.46H52v4.26h5.24Z"/><path d="M63.21,46.07l-4.4-13.48h1.88l2.1,6.64c.58,1.82,1.08,3.46,1.44,5h0c.38-1.56.94-3.26,1.54-5l2.28-6.66H70L65.13,46.07Z"/><path d="M75.17,32.19a13.19,13.19,0,0,0-2.52,8.18,13.48,13.48,0,0,0,2.52,8.12H73.79a12.93,12.93,0,0,1-2.62-8.12,13.2,13.2,0,0,1,2.62-8.18Z"/><path d="M79,33.67a1.09,1.09,0,0,1-2.18,0,1.07,1.07,0,0,1,1.1-1.1A1,1,0,0,1,79,33.67Zm-2,12.4V36.39h1.76v9.68Z"/><path d="M80.65,48.49a13.54,13.54,0,0,0,2.52-8.18,13.26,13.26,0,0,0-2.52-8.12H82a12.74,12.74,0,0,1,2.62,8.14A13,13,0,0,1,82,48.49Z"/><path d="M90,32.35v16H86.31v-1.1h2.3V33.45h-2.3v-1.1Z"/><path d="M52.4,175.07c0-1.24,0-2.24-.08-3.16H53.9l.08,1.66h0a3.79,3.79,0,0,1,3.44-1.89c2.34,0,4.1,2,4.1,4.93,0,3.48-2.12,5.2-4.4,5.2a3.39,3.39,0,0,1-3-1.52h0v5.26H52.4Zm1.74,2.58a4,4,0,0,0,.08.72,2.72,2.72,0,0,0,2.64,2.06c1.86,0,2.94-1.52,2.94-3.74,0-1.95-1-3.61-2.88-3.61a2.82,2.82,0,0,0-2.66,2.19,2.85,2.85,0,0,0-.12.72Z"/><path d="M63.78,174.93c0-1.14,0-2.13-.08-3h1.54l.06,1.9h.08a2.9,2.9,0,0,1,2.68-2.13,1.9,1.9,0,0,1,.5.06v1.67a2.6,2.6,0,0,0-.6-.07,2.48,2.48,0,0,0-2.36,2.27,5,5,0,0,0-.08.82v5.16H63.78Z"/><path d="M71.1,177.07a3.1,3.1,0,0,0,3.32,3.36,6.36,6.36,0,0,0,2.68-.5l.3,1.26a7.84,7.84,0,0,1-3.22.6c-3,0-4.76-2-4.76-4.88s1.72-5.23,4.54-5.23c3.16,0,4,2.79,4,4.57a6.64,6.64,0,0,1-.06.82Zm5.16-1.26c0-1.12-.46-2.86-2.44-2.86-1.78,0-2.56,1.63-2.7,2.86Z"/><path d="M80.82,171.91l1.9,5.44a24.89,24.89,0,0,1,.78,2.48h.06c.22-.8.5-1.6.82-2.48l1.88-5.44H88.1l-3.8,9.68H82.62l-3.68-9.68Z"/><path d="M89.82,168.1h7.26v1.46H91.56V174h5.1v1.45h-5.1v6.1H89.82Z"/><path d="M104,181.59l-.14-1.22h-.06a3.61,3.61,0,0,1-3,1.44,2.76,2.76,0,0,1-3-2.78c0-2.34,2.08-3.62,5.82-3.6v-.2a2,2,0,0,0-2.2-2.24,4.82,4.82,0,0,0-2.52.71l-.4-1.16a6,6,0,0,1,3.18-.86c3,0,3.68,2,3.68,4v3.62a13.63,13.63,0,0,0,.16,2.32Zm-.26-4.94c-1.92,0-4.1.3-4.1,2.18a1.56,1.56,0,0,0,1.66,1.68,2.41,2.41,0,0,0,2.34-1.62,1.84,1.84,0,0,0,.1-.56Z"/><path d="M115.14,181.23a6.48,6.48,0,0,1-2.78.56,4.6,4.6,0,0,1-4.82-4.94,4.93,4.93,0,0,1,5.2-5.15,5.88,5.88,0,0,1,2.44.5l-.4,1.37a4.08,4.08,0,0,0-2-.46,3.65,3.65,0,0,0-.06,7.28,5,5,0,0,0,2.16-.48Z"/><path d="M118.06,177.07a3.1,3.1,0,0,0,3.32,3.36,6.36,6.36,0,0,0,2.68-.5l.3,1.26a7.84,7.84,0,0,1-3.22.6c-3,0-4.76-2-4.76-4.88s1.72-5.23,4.54-5.23c3.16,0,4,2.79,4,4.57a6.64,6.64,0,0,1-.06.82Zm5.16-1.26c0-1.12-.46-2.86-2.44-2.86-1.78,0-2.56,1.63-2.7,2.86Z"/><path d="M130.92,167.7a13.2,13.2,0,0,0-2.52,8.19,13.48,13.48,0,0,0,2.52,8.12h-1.38a12.93,12.93,0,0,1-2.62-8.12,13.23,13.23,0,0,1,2.62-8.19Z"/><path d="M134.74,169.18a1.09,1.09,0,0,1-2.18,0,1.07,1.07,0,0,1,1.1-1.1A1,1,0,0,1,134.74,169.18Zm-2,12.41v-9.68h1.76v9.68Z"/><path d="M136.4,184a13.54,13.54,0,0,0,2.52-8.18,13.27,13.27,0,0,0-2.52-8.13h1.36a12.77,12.77,0,0,1,2.62,8.15,13,13,0,0,1-2.62,8.16Z"/><path d="M243.4,174.53c0-1,0-1.83-.08-2.62h1.56l.1,1.59h0a3.56,3.56,0,0,1,3.2-1.82c1.34,0,3.42.81,3.42,4.13v5.78h-1.76V176c0-1.56-.58-2.86-2.24-2.86a2.49,2.49,0,0,0-2.36,1.8,2.53,2.53,0,0,0-.12.82v5.82H243.4Z"/><path d="M255.48,177.07a3.1,3.1,0,0,0,3.32,3.36,6.36,6.36,0,0,0,2.68-.5l.3,1.26a7.84,7.84,0,0,1-3.22.6c-3,0-4.76-2-4.76-4.88s1.72-5.23,4.54-5.23c3.16,0,4,2.79,4,4.57a6.64,6.64,0,0,1-.06.82Zm5.16-1.26c0-1.12-.46-2.86-2.44-2.86-1.78,0-2.56,1.63-2.7,2.86Z"/><path d="M265.28,171.91l1.38,2.08c.36.54.66,1,1,1.58h.06c.32-.58.64-1.08,1-1.61l1.36-2.05h1.9l-3.3,4.68,3.4,5h-2l-1.42-2.18c-.38-.56-.7-1.1-1-1.68h0c-.32.58-.66,1.1-1,1.68l-1.4,2.18h-1.94l3.44-4.94-3.28-4.74Z"/><path d="M276.1,169.12v2.79h2.52v1.33H276.1v5.23c0,1.2.34,1.88,1.32,1.88a3.92,3.92,0,0,0,1-.12l.08,1.32a4.31,4.31,0,0,1-1.56.24,2.44,2.44,0,0,1-1.9-.74,3.59,3.59,0,0,1-.68-2.52v-5.29h-1.5v-1.33h1.5v-2.33Z"/><path d="M280.66,168.1h7.26v1.46H282.4V174h5.1v1.45h-5.1v6.1h-1.74Z"/><path d="M294.8,181.59l-.14-1.22h-.06a3.61,3.61,0,0,1-3,1.44,2.76,2.76,0,0,1-3-2.78c0-2.34,2.08-3.62,5.82-3.6v-.2a2,2,0,0,0-2.2-2.24,4.82,4.82,0,0,0-2.52.71l-.4-1.16a6,6,0,0,1,3.18-.86c3,0,3.68,2,3.68,4v3.62a13.63,13.63,0,0,0,.16,2.32Zm-.26-4.94c-1.92,0-4.1.3-4.1,2.18a1.56,1.56,0,0,0,1.66,1.68,2.41,2.41,0,0,0,2.34-1.62,1.84,1.84,0,0,0,.1-.56Z"/><path d="M306,181.23a6.48,6.48,0,0,1-2.78.56,4.6,4.6,0,0,1-4.82-4.94,4.93,4.93,0,0,1,5.2-5.15,5.88,5.88,0,0,1,2.44.5l-.4,1.37a4.08,4.08,0,0,0-2-.46,3.65,3.65,0,0,0-.06,7.28,5,5,0,0,0,2.16-.48Z"/><path d="M308.9,177.07a3.1,3.1,0,0,0,3.32,3.36,6.36,6.36,0,0,0,2.68-.5l.3,1.26a7.84,7.84,0,0,1-3.22.6c-3,0-4.76-2-4.76-4.88s1.72-5.23,4.54-5.23c3.16,0,4,2.79,4,4.57a6.64,6.64,0,0,1-.06.82Zm5.16-1.26c0-1.12-.46-2.86-2.44-2.86-1.78,0-2.56,1.63-2.7,2.86Z"/><path d="M321.76,167.7a13.2,13.2,0,0,0-2.52,8.19,13.48,13.48,0,0,0,2.52,8.12h-1.38a12.93,12.93,0,0,1-2.62-8.12,13.23,13.23,0,0,1,2.62-8.19Z"/><path d="M325.58,169.18a1.09,1.09,0,0,1-2.18,0,1.07,1.07,0,0,1,1.1-1.1A1,1,0,0,1,325.58,169.18Zm-2,12.41v-9.68h1.76v9.68Z"/><path d="M327.23,184a13.47,13.47,0,0,0,2.53-8.18,13.2,13.2,0,0,0-2.53-8.13h1.37a12.77,12.77,0,0,1,2.62,8.15A13,13,0,0,1,328.6,184Z"/></svg>