<?xml version="1.0" encoding="UTF-8" standalone="no"?>
<svg
   xmlns:dc="http://purl.org/dc/elements/1.1/"
   xmlns:cc="http://creativecommons.org/ns#"
   xmlns:rdf="http://www.w3.org/1999/02/22-rdf-syntax-ns#"
   xmlns:svg="http://www.w3.org/2000/svg"
   xmlns="http://www.w3.org/2000/svg"
   xmlns:xlink="http://www.w3.org/1999/xlink"
   xmlns:sodipodi="http://sodipodi.sourceforge.net/DTD/sodipodi-0.dtd"
   xmlns:inkscape="http://www.inkscape.org/namespaces/inkscape"
   id="Layer_1"
   data-name="Layer 1"
   viewBox="0 0 341.97 255.45"
   version="1.1"
   sodipodi:docname="Subdivfaceorientation.svg"
   inkscape:version="1.0.1 (3bc2e813f5, 2020-09-07)">
  <metadata
     id="metadata1109">
    <rdf:RDF>
      <cc:Work
         rdf:about="">
        <dc:format>image/svg+xml</dc:format>
        <dc:type
           rdf:resource="http://purl.org/dc/dcmitype/StillImage" />
      </cc:Work>
    </rdf:RDF>
  </metadata>
  <sodipodi:namedview
     pagecolor="#ffffff"
     bordercolor="#666666"
     borderopacity="1"
     objecttolerance="10"
     gridtolerance="10"
     guidetolerance="10"
     inkscape:pageopacity="0"
     inkscape:pageshadow="2"
     inkscape:window-width="1920"
     inkscape:window-height="1017"
     id="namedview1107"
     showgrid="false"
     inkscape:zoom="2.2745196"
     inkscape:cx="177.14338"
     inkscape:cy="149.49214"
     inkscape:window-x="1912"
     inkscape:window-y="-8"
     inkscape:window-maximized="1"
     inkscape:current-layer="Layer_1"
     inkscape:document-rotation="0" />
  <defs
     id="defs1038">
    <style
       id="style1036">.cls-1{fill:none;stroke:#000;stroke-miterlimit:10;}.cls-2{fill:#a6a6a6;}.cls-3{fill:#666;}</style>
    <g
       id="g7173">
      <symbol
         overflow="visible"
         id="symbol5966">
        <path
           style="stroke:none;"
           d=""
           id="path908" />
      </symbol>
      <symbol
         overflow="visible"
         id="symbol3059">
        <path
           style="stroke:none;"
           d="M 5.390625 -3.609375 C 5.390625 -4.515625 4.71875 -4.515625 4.71875 -4.515625 C 4.3125 -4.515625 3.953125 -4.09375 3.953125 -3.765625 C 3.953125 -3.484375 4.171875 -3.359375 4.25 -3.3125 C 4.671875 -3.0625 4.75 -2.875 4.75 -2.6875 C 4.75 -2.46875 4.171875 -0.28125 3.015625 -0.28125 C 2.296875 -0.28125 2.296875 -0.875 2.296875 -1.0625 C 2.296875 -1.640625 2.578125 -2.359375 2.890625 -3.15625 C 2.96875 -3.359375 3 -3.453125 3 -3.609375 C 3 -4.1875 2.421875 -4.5 1.875 -4.5 C 0.8125 -4.5 0.3125 -3.15625 0.3125 -2.953125 C 0.3125 -2.8125 0.46875 -2.8125 0.5625 -2.8125 C 0.671875 -2.8125 0.75 -2.8125 0.78125 -2.9375 C 1.109375 -4.015625 1.640625 -4.140625 1.8125 -4.140625 C 1.890625 -4.140625 1.984375 -4.140625 1.984375 -3.9375 C 1.984375 -3.703125 1.859375 -3.421875 1.828125 -3.34375 C 1.375 -2.1875 1.21875 -1.734375 1.21875 -1.25 C 1.21875 -0.203125 2.078125 0.078125 2.953125 0.078125 C 4.671875 0.078125 5.390625 -2.75 5.390625 -3.609375 Z M 5.390625 -3.609375 "
           id="path1024" />
      </symbol>
      <symbol
         overflow="visible"
         id="symbol4144">
        <path
           style="stroke:none;"
           d=""
           id="path8947" />
      </symbol>
      <symbol
         overflow="visible"
         id="symbol4190">
        <path
           style="stroke:none;"
           d="M 3.59375 -2.21875 C 3.59375 -2.984375 3.5 -3.546875 3.1875 -4.03125 C 2.96875 -4.34375 2.53125 -4.625 1.984375 -4.625 C 0.359375 -4.625 0.359375 -2.71875 0.359375 -2.21875 C 0.359375 -1.71875 0.359375 0.140625 1.984375 0.140625 C 3.59375 0.140625 3.59375 -1.71875 3.59375 -2.21875 Z M 1.984375 -0.0625 C 1.65625 -0.0625 1.234375 -0.25 1.09375 -0.8125 C 1 -1.21875 1 -1.796875 1 -2.3125 C 1 -2.828125 1 -3.359375 1.09375 -3.734375 C 1.25 -4.28125 1.6875 -4.4375 1.984375 -4.4375 C 2.359375 -4.4375 2.71875 -4.203125 2.84375 -3.796875 C 2.953125 -3.421875 2.96875 -2.921875 2.96875 -2.3125 C 2.96875 -1.796875 2.96875 -1.28125 2.875 -0.84375 C 2.734375 -0.203125 2.265625 -0.0625 1.984375 -0.0625 Z M 1.984375 -0.0625 "
           id="path8824" />
      </symbol>
    </g>
    <g
       id="g1192">
      <symbol
         overflow="visible"
         id="symbol7545">
        <path
           style="stroke:none;"
           d=""
           id="path189" />
      </symbol>
      <symbol
         overflow="visible"
         id="symbol5624">
        <path
           style="stroke:none;"
           d="M 5.390625 -3.609375 C 5.390625 -4.515625 4.71875 -4.515625 4.71875 -4.515625 C 4.3125 -4.515625 3.953125 -4.09375 3.953125 -3.765625 C 3.953125 -3.484375 4.171875 -3.359375 4.25 -3.3125 C 4.671875 -3.0625 4.75 -2.875 4.75 -2.6875 C 4.75 -2.46875 4.171875 -0.28125 3.015625 -0.28125 C 2.296875 -0.28125 2.296875 -0.875 2.296875 -1.0625 C 2.296875 -1.640625 2.578125 -2.359375 2.890625 -3.15625 C 2.96875 -3.359375 3 -3.453125 3 -3.609375 C 3 -4.1875 2.421875 -4.5 1.875 -4.5 C 0.8125 -4.5 0.3125 -3.15625 0.3125 -2.953125 C 0.3125 -2.8125 0.46875 -2.8125 0.5625 -2.8125 C 0.671875 -2.8125 0.75 -2.8125 0.78125 -2.9375 C 1.109375 -4.015625 1.640625 -4.140625 1.8125 -4.140625 C 1.890625 -4.140625 1.984375 -4.140625 1.984375 -3.9375 C 1.984375 -3.703125 1.859375 -3.421875 1.828125 -3.34375 C 1.375 -2.1875 1.21875 -1.734375 1.21875 -1.25 C 1.21875 -0.203125 2.078125 0.078125 2.953125 0.078125 C 4.671875 0.078125 5.390625 -2.75 5.390625 -3.609375 Z M 5.390625 -3.609375 "
           id="path5630" />
      </symbol>
      <symbol
         overflow="visible"
         id="symbol4360">
        <path
           style="stroke:none;"
           d=""
           id="path2118" />
      </symbol>
      <symbol
         overflow="visible"
         id="symbol6020">
        <path
           style="stroke:none;"
           d="M 2.328125 -4.4375 C 2.328125 -4.625 2.328125 -4.625 2.125 -4.625 C 1.671875 -4.1875 1.046875 -4.1875 0.765625 -4.1875 L 0.765625 -3.9375 C 0.921875 -3.9375 1.390625 -3.9375 1.765625 -4.125 L 1.765625 -0.578125 C 1.765625 -0.34375 1.765625 -0.25 1.078125 -0.25 L 0.8125 -0.25 L 0.8125 0 C 0.9375 0 1.796875 -0.03125 2.046875 -0.03125 C 2.265625 -0.03125 3.140625 0 3.296875 0 L 3.296875 -0.25 L 3.03125 -0.25 C 2.328125 -0.25 2.328125 -0.34375 2.328125 -0.578125 Z M 2.328125 -4.4375 "
           id="path633" />
      </symbol>
    </g>
    <g
       id="g8242">
      <symbol
         overflow="visible"
         id="symbol3079">
        <path
           style="stroke:none;"
           d=""
           id="path1986" />
      </symbol>
      <symbol
         overflow="visible"
         id="symbol4514">
        <path
           style="stroke:none;"
           d="M 5.390625 -3.609375 C 5.390625 -4.515625 4.71875 -4.515625 4.71875 -4.515625 C 4.3125 -4.515625 3.953125 -4.09375 3.953125 -3.765625 C 3.953125 -3.484375 4.171875 -3.359375 4.25 -3.3125 C 4.671875 -3.0625 4.75 -2.875 4.75 -2.6875 C 4.75 -2.46875 4.171875 -0.28125 3.015625 -0.28125 C 2.296875 -0.28125 2.296875 -0.875 2.296875 -1.0625 C 2.296875 -1.640625 2.578125 -2.359375 2.890625 -3.15625 C 2.96875 -3.359375 3 -3.453125 3 -3.609375 C 3 -4.1875 2.421875 -4.5 1.875 -4.5 C 0.8125 -4.5 0.3125 -3.15625 0.3125 -2.953125 C 0.3125 -2.8125 0.46875 -2.8125 0.5625 -2.8125 C 0.671875 -2.8125 0.75 -2.8125 0.78125 -2.9375 C 1.109375 -4.015625 1.640625 -4.140625 1.8125 -4.140625 C 1.890625 -4.140625 1.984375 -4.140625 1.984375 -3.9375 C 1.984375 -3.703125 1.859375 -3.421875 1.828125 -3.34375 C 1.375 -2.1875 1.21875 -1.734375 1.21875 -1.25 C 1.21875 -0.203125 2.078125 0.078125 2.953125 0.078125 C 4.671875 0.078125 5.390625 -2.75 5.390625 -3.609375 Z M 5.390625 -3.609375 "
           id="path9212" />
      </symbol>
      <symbol
         overflow="visible"
         id="symbol5716">
        <path
           style="stroke:none;"
           d=""
           id="path8274" />
      </symbol>
      <symbol
         overflow="visible"
         id="symbol5680">
        <path
           style="stroke:none;"
           d="M 3.515625 -1.265625 L 3.28125 -1.265625 C 3.265625 -1.109375 3.1875 -0.703125 3.09375 -0.640625 C 3.046875 -0.59375 2.515625 -0.59375 2.40625 -0.59375 L 1.125 -0.59375 C 1.859375 -1.234375 2.109375 -1.4375 2.515625 -1.765625 C 3.03125 -2.171875 3.515625 -2.609375 3.515625 -3.265625 C 3.515625 -4.109375 2.78125 -4.625 1.890625 -4.625 C 1.03125 -4.625 0.4375 -4.015625 0.4375 -3.375 C 0.4375 -3.03125 0.734375 -2.984375 0.8125 -2.984375 C 0.96875 -2.984375 1.171875 -3.109375 1.171875 -3.359375 C 1.171875 -3.484375 1.125 -3.734375 0.765625 -3.734375 C 0.984375 -4.21875 1.453125 -4.375 1.78125 -4.375 C 2.484375 -4.375 2.84375 -3.828125 2.84375 -3.265625 C 2.84375 -2.65625 2.40625 -2.1875 2.1875 -1.9375 L 0.515625 -0.265625 C 0.4375 -0.203125 0.4375 -0.1875 0.4375 0 L 3.3125 0 Z M 3.515625 -1.265625 "
           id="path5736" />
      </symbol>
    </g>
    <g
       id="g2869">
      <symbol
         overflow="visible"
         id="symbol8959">
        <path
           style="stroke:none;"
           d=""
           id="path7441" />
      </symbol>
      <symbol
         overflow="visible"
         id="symbol150">
        <path
           style="stroke:none;"
           d="M 5.390625 -3.609375 C 5.390625 -4.515625 4.71875 -4.515625 4.71875 -4.515625 C 4.3125 -4.515625 3.953125 -4.09375 3.953125 -3.765625 C 3.953125 -3.484375 4.171875 -3.359375 4.25 -3.3125 C 4.671875 -3.0625 4.75 -2.875 4.75 -2.6875 C 4.75 -2.46875 4.171875 -0.28125 3.015625 -0.28125 C 2.296875 -0.28125 2.296875 -0.875 2.296875 -1.0625 C 2.296875 -1.640625 2.578125 -2.359375 2.890625 -3.15625 C 2.96875 -3.359375 3 -3.453125 3 -3.609375 C 3 -4.1875 2.421875 -4.5 1.875 -4.5 C 0.8125 -4.5 0.3125 -3.15625 0.3125 -2.953125 C 0.3125 -2.8125 0.46875 -2.8125 0.5625 -2.8125 C 0.671875 -2.8125 0.75 -2.8125 0.78125 -2.9375 C 1.109375 -4.015625 1.640625 -4.140625 1.8125 -4.140625 C 1.890625 -4.140625 1.984375 -4.140625 1.984375 -3.9375 C 1.984375 -3.703125 1.859375 -3.421875 1.828125 -3.34375 C 1.375 -2.1875 1.21875 -1.734375 1.21875 -1.25 C 1.21875 -0.203125 2.078125 0.078125 2.953125 0.078125 C 4.671875 0.078125 5.390625 -2.75 5.390625 -3.609375 Z M 5.390625 -3.609375 "
           id="path5961" />
      </symbol>
      <symbol
         overflow="visible"
         id="symbol6817">
        <path
           style="stroke:none;"
           d=""
           id="path3957" />
      </symbol>
      <symbol
         overflow="visible"
         id="symbol6575">
        <path
           style="stroke:none;"
           d="M 1.90625 -2.328125 C 2.453125 -2.328125 2.84375 -1.953125 2.84375 -1.203125 C 2.84375 -0.34375 2.328125 -0.078125 1.9375 -0.078125 C 1.65625 -0.078125 1.03125 -0.15625 0.75 -0.578125 C 1.078125 -0.578125 1.15625 -0.8125 1.15625 -0.96875 C 1.15625 -1.1875 0.984375 -1.34375 0.765625 -1.34375 C 0.578125 -1.34375 0.375 -1.21875 0.375 -0.9375 C 0.375 -0.28125 1.09375 0.140625 1.9375 0.140625 C 2.90625 0.140625 3.578125 -0.515625 3.578125 -1.203125 C 3.578125 -1.75 3.140625 -2.296875 2.375 -2.453125 C 3.09375 -2.71875 3.359375 -3.234375 3.359375 -3.671875 C 3.359375 -4.21875 2.734375 -4.625 1.953125 -4.625 C 1.1875 -4.625 0.59375 -4.25 0.59375 -3.6875 C 0.59375 -3.453125 0.75 -3.328125 0.953125 -3.328125 C 1.171875 -3.328125 1.3125 -3.484375 1.3125 -3.671875 C 1.3125 -3.875 1.171875 -4.03125 0.953125 -4.046875 C 1.203125 -4.34375 1.671875 -4.421875 1.9375 -4.421875 C 2.25 -4.421875 2.6875 -4.265625 2.6875 -3.671875 C 2.6875 -3.375 2.59375 -3.046875 2.40625 -2.84375 C 2.1875 -2.578125 1.984375 -2.5625 1.640625 -2.53125 C 1.46875 -2.515625 1.453125 -2.515625 1.421875 -2.515625 C 1.40625 -2.515625 1.34375 -2.5 1.34375 -2.421875 C 1.34375 -2.328125 1.40625 -2.328125 1.53125 -2.328125 Z M 1.90625 -2.328125 "
           id="path9220" />
      </symbol>
    </g>
  </defs>
  <title
     id="title1040">Subdiv face orientation</title>
  <polyline
     class="cls-1"
     points="127.34 218.45 126.89 218.51 32.5 232.44 67.63 143.74"
     id="polyline1042" />
  <polygon
     points="121.67 213.72 126.69 218.54 123.28 224.61 135.35 217.26 121.67 213.72"
     id="polygon1044" />
  <polygon
     class="cls-2"
     points="123.39 214.68 134.06 217.46 127.32 218.45 123.39 214.68"
     id="polygon1046" />
  <polygon
     class="cls-3"
     points="124.65 223.19 134.06 217.46 127.32 218.45 124.65 223.19"
     id="polygon1048" />
  <polyline
     class="cls-1"
     points="67.63 143.74 102.77 55.03 162.02 129.81 162.59 130.53"
     id="polyline1050" />
  <polygon
     points="74.56 141.2 67.87 143.13 64.32 137.14 64.65 151.27 74.56 141.2"
     id="polygon1052" />
  <polygon
     class="cls-2"
     points="72.87 142.2 65.13 150.05 67.64 143.72 72.87 142.2"
     id="polygon1054" />
  <polygon
     class="cls-3"
     points="64.87 139.04 65.13 150.05 67.64 143.72 64.87 139.04"
     id="polygon1056" />
  <polyline
     class="cls-1"
     points="162.59 130.53 221.28 204.58 133.97 217.47"
     id="polyline1058" />
  <polygon
     points="161.33 137.79 163 131.04 169.95 130.96 157.56 124.17 161.33 137.79"
     id="polygon1060" />
  <polygon
     class="cls-2"
     points="161.3 135.82 158.37 125.2 162.6 130.54 161.3 135.82"
     id="polygon1062" />
  <polygon
     class="cls-3"
     points="168.04 130.48 158.37 125.2 162.6 130.54 168.04 130.48"
     id="polygon1064" />
  <polyline
     class="cls-1"
     points="270.07 110.97 269.9 111.39 234.64 200.04 175.5 125.18"
     id="polyline1066" />
  <polygon
     points="263.14 113.5 269.83 111.58 273.37 117.57 273.07 103.44 263.14 113.5"
     id="polygon1068" />
  <polygon
     class="cls-2"
     points="264.83 112.5 272.58 104.66 270.06 110.99 264.83 112.5"
     id="polygon1070" />
  <polygon
     class="cls-3"
     points="272.82 115.68 272.58 104.66 270.06 110.99 272.82 115.68"
     id="polygon1072" />
  <polyline
     class="cls-1"
     points="175.5 125.18 116.35 50.31 210.76 36.52 211.67 36.39"
     id="polyline1074" />
  <polygon
     points="176.77 117.91 175.09 124.67 168.13 124.73 180.52 131.53 176.77 117.91"
     id="polygon1076" />
  <polygon
     class="cls-2"
     points="176.79 119.88 179.71 130.5 175.48 125.16 176.79 119.88"
     id="polygon1078" />
  <polygon
     class="cls-3"
     points="170.05 125.21 179.71 130.5 175.48 125.16 170.05 125.21"
     id="polygon1080" />
  <polyline
     class="cls-1"
     points="211.67 36.39 305.17 22.74 272.55 104.74"
     id="polyline1082" />
  <polygon
     points="217.32 41.13 212.31 36.3 215.74 30.24 203.65 37.56 217.32 41.13"
     id="polygon1084" />
  <polygon
     class="cls-2"
     points="215.61 40.16 204.95 37.37 211.69 36.39 215.61 40.16"
     id="polygon1086" />
  <polygon
     class="cls-3"
     points="214.37 31.66 204.95 37.37 211.69 36.39 214.37 31.66"
     id="polygon1088" />
  <g
     inkscape:label=""
     transform="matrix(2.4,0,0,2.4,-130.14127,-153.22964)"
     id="g1723">
    <g
       id="g3237">
      <g
         style="fill:#000000;fill-opacity:1"
         id="g9056">
        <use
           xlink:href="#symbol3059"
           x="91.925003"
           y="81.962997"
           id="use2748"
           width="100%"
           height="100%" />
      </g>
      <g
         style="fill:#000000;fill-opacity:1"
         id="g797">
        <use
           xlink:href="#symbol4190"
           x="97.570999"
           y="83.457001"
           id="use747"
           width="100%"
           height="100%" />
      </g>
    </g>
  </g>
  <g
     inkscape:label=""
     transform="matrix(2.4,0,0,2.4,5.3923361,22.008668)"
     id="g1807">
    <g
       id="g910">
      <g
         style="fill:#000000;fill-opacity:1"
         id="g9624">
        <use
           xlink:href="#symbol5624"
           x="91.925003"
           y="81.962997"
           id="use1039"
           width="100%"
           height="100%" />
      </g>
      <g
         style="fill:#000000;fill-opacity:1"
         id="g6637">
        <use
           xlink:href="#symbol6020"
           x="97.570999"
           y="83.457001"
           id="use2406"
           width="100%"
           height="100%" />
      </g>
    </g>
  </g>
  <g
     inkscape:label=""
     transform="matrix(2.4,0,0,2.4,84.849185,-178.72954)"
     id="g1906">
    <g
       id="g1054">
      <g
         style="fill:#000000;fill-opacity:1"
         id="g7208">
        <use
           xlink:href="#symbol4514"
           x="91.925003"
           y="81.962997"
           id="use3602"
           width="100%"
           height="100%" />
      </g>
      <g
         style="fill:#000000;fill-opacity:1"
         id="g1578">
        <use
           xlink:href="#symbol5680"
           x="97.570999"
           y="83.457001"
           id="use6456"
           width="100%"
           height="100%" />
      </g>
    </g>
  </g>
  <g
     inkscape:label=""
     transform="matrix(2.4,0,0,2.4,-212.79609,47.691907)"
     id="g2020">
    <g
       id="g6221">
      <g
         style="fill:#000000;fill-opacity:1"
         id="g2258">
        <use
           xlink:href="#symbol150"
           x="91.925003"
           y="81.962997"
           id="use1694"
           width="100%"
           height="100%" />
      </g>
      <g
         style="fill:#000000;fill-opacity:1"
         id="g3049">
        <use
           xlink:href="#symbol6575"
           x="97.570999"
           y="83.457001"
           id="use7052"
           width="100%"
           height="100%" />
      </g>
    </g>
  </g>
</svg>
