<svg id="Layer_1" data-name="Layer 1" xmlns="http://www.w3.org/2000/svg" viewBox="0 0 487.94 169.97"><defs><style>.cls-1,.cls-2,.cls-3{fill:#b3b3b3;}.cls-1,.cls-2,.cls-3,.cls-4,.cls-5{stroke:#000;stroke-miterlimit:10;}.cls-2,.cls-3{stroke-width:0.5px;}.cls-3{stroke-dasharray:2;}.cls-5{fill:none;}.cls-6{fill:#a6a6a6;}.cls-7{fill:#666;}</style></defs><title>Subdiv refinement</title><polygon class="cls-1" points="96.28 1 143.98 83.63 191.69 166.25 96.28 166.25 0.87 166.25 48.57 83.63 96.28 1"/><polygon class="cls-2" points="96.28 165.24 72.9 124.75 49.52 84.26 96.28 84.26 143.03 84.26 119.65 124.75 96.28 165.24"/><polygon class="cls-1" points="391.67 1 439.37 83.63 487.08 166.25 391.67 166.25 296.26 166.25 343.96 83.63 391.67 1"/><polygon class="cls-2" points="391.67 165.24 368.29 124.75 344.92 84.26 391.67 84.26 438.42 84.26 415.04 124.75 391.67 165.24"/><polygon class="cls-3" points="391.89 83.56 380.43 63.72 368.98 43.88 391.89 43.88 414.8 43.88 403.34 63.72 391.89 83.56"/><polygon class="cls-3" points="344.09 165.19 332.64 145.35 321.19 125.51 344.09 125.51 367 125.51 355.55 145.35 344.09 165.19"/><polygon class="cls-3" points="439.39 164.6 427.94 144.76 416.48 124.92 439.39 124.92 462.3 124.92 450.84 144.76 439.39 164.6"/><polygon class="cls-3" points="392.26 84.7 403.71 104.54 415.16 124.38 392.26 124.38 369.35 124.38 380.8 104.54 392.26 84.7"/><circle class="cls-4" cx="415.62" cy="43.74" r="3.53"/><circle class="cls-4" cx="391.98" cy="84.18" r="3.53"/><circle class="cls-4" cx="367.46" cy="42.79" r="3.53"/><circle class="cls-4" cx="414.93" cy="123.94" r="3.53"/><circle class="cls-4" cx="368.12" cy="124.52" r="3.53"/><circle class="cls-4" cx="462.93" cy="124.83" r="3.53"/><circle class="cls-4" cx="320.17" cy="124.55" r="3.53"/><circle class="cls-4" cx="344.31" cy="165.93" r="3.53"/><circle class="cls-4" cx="440.04" cy="165.94" r="3.53"/><line class="cls-5" x1="189.22" y1="71.61" x2="288.66" y2="71.61"/><polygon points="283.75 77.12 288.01 71.61 283.75 66.11 296.76 71.61 283.75 77.12"/><polygon class="cls-6" points="285.31 75.91 295.45 71.61 288.64 71.61 285.31 75.91"/><polygon class="cls-7" points="285.31 67.31 295.45 71.61 288.64 71.61 285.31 67.31"/></svg>