<svg id="Layer_1" data-name="Layer 1" xmlns="http://www.w3.org/2000/svg" viewBox="0 0 550.71 212.64"><defs><style>.cls-1,.cls-2{fill:#b3b3b3;}.cls-1,.cls-2,.cls-3{stroke:#000;stroke-miterlimit:10;}.cls-2{stroke-width:0.5px;}</style></defs><title>Subdiv refinement naming</title><polygon class="cls-1" points="129.39 21.76 177.1 104.38 224.8 187.01 129.39 187.01 33.98 187.01 81.69 104.38 129.39 21.76"/><polygon class="cls-1" points="420.87 21.76 468.58 104.38 516.28 187.01 420.87 187.01 325.46 187.01 373.17 104.38 420.87 21.76"/><polygon class="cls-2" points="420.87 186 397.5 145.51 374.12 105.02 420.87 105.02 467.63 105.02 444.25 145.51 420.87 186"/><circle class="cls-3" cx="420.3" cy="186.21" r="3.53"/><circle class="cls-3" cx="468.3" cy="105.27" r="3.53"/><circle class="cls-3" cx="373.37" cy="104.97" r="3.53"/><path d="M2.14,191,4,196.39a24.89,24.89,0,0,1,.78,2.48h.06c.22-.8.5-1.6.82-2.48L7.58,191H9.42l-3.8,9.68H3.94L.26,191Z"/><path d="M11.26,202.87v-16h3.66V188h-2.3v13.74h2.3v1.1Z"/><path d="M24.84,194c0,4.42-1.64,6.86-4.52,6.86-2.54,0-4.26-2.38-4.3-6.68s1.88-6.76,4.52-6.76S24.84,189.85,24.84,194Zm-7.06.2c0,3.38,1,5.3,2.64,5.3,1.8,0,2.66-2.1,2.66-5.42s-.82-5.3-2.64-5.3C18.9,188.77,17.78,190.65,17.78,194.19Z"/><path d="M29.6,186.91v16H25.94v-1.1h2.3V188h-2.3v-1.09Z"/><path d="M230.29,191l1.9,5.44a24.89,24.89,0,0,1,.78,2.48H233c.22-.8.5-1.6.82-2.48l1.88-5.44h1.84l-3.8,9.68h-1.68L228.41,191Z"/><path d="M239.41,202.87v-16h3.66V188h-2.3v13.74h2.3v1.1Z"/><path d="M248.17,189.27h0l-2.26,1.22-.34-1.34,2.84-1.53h1.5v13h-1.7Z"/><path d="M257.75,186.91v16h-3.66v-1.1h2.3V188h-2.3v-1.09Z"/><path d="M114.46,7.06l1.91,5.44a24.89,24.89,0,0,1,.78,2.48h.06c.22-.8.5-1.6.82-2.48l1.88-5.44h1.84L118,16.74h-1.69l-3.68-9.68Z"/><path d="M123.58,19V3h3.67v1.1H125V17.88h2.3V19Z"/><path d="M128.52,16.74V15.66l1.38-1.34c3.33-3.16,4.83-4.84,4.85-6.8A2.32,2.32,0,0,0,132.17,5a4.43,4.43,0,0,0-2.77,1.1l-.56-1.24a5.71,5.71,0,0,1,3.69-1.32,3.66,3.66,0,0,1,4,3.78c0,2.4-1.74,4.34-4.48,7l-1.05,1v0h5.85v1.46Z"/><path d="M141.92,3V19h-3.66v-1.1h2.3V4.12h-2.3V3Z"/><path d="M293.46,191l1.9,5.44a24.89,24.89,0,0,1,.78,2.48h.06c.22-.8.5-1.6.82-2.48L298.9,191h1.84l-3.8,9.68h-1.68L291.58,191Z"/><path d="M302.58,202.87v-16h3.66V188h-2.3v13.74h2.3v1.1Z"/><path d="M316.16,194c0,4.42-1.64,6.86-4.52,6.86-2.54,0-4.26-2.38-4.3-6.68s1.88-6.76,4.52-6.76S316.16,189.85,316.16,194Zm-7.06.2c0,3.38,1,5.3,2.64,5.3,1.8,0,2.66-2.1,2.66-5.42s-.82-5.3-2.64-5.3C310.22,188.77,309.1,190.65,309.1,194.19Z"/><path d="M320.92,186.91v16h-3.66v-1.1h2.3V188h-2.3v-1.09Z"/><path d="M521.61,191l1.9,5.44a24.89,24.89,0,0,1,.78,2.48h.06c.22-.8.5-1.6.82-2.48l1.88-5.44h1.84l-3.8,9.68h-1.68L519.73,191Z"/><path d="M530.73,202.87v-16h3.66V188h-2.3v13.74h2.3v1.1Z"/><path d="M539.49,189.27h0l-2.26,1.22-.34-1.34,2.84-1.53h1.5v13h-1.7Z"/><path d="M549.07,186.91v16h-3.66v-1.1h2.3V188h-2.3v-1.09Z"/><path d="M405.78,7.06l1.9,5.44a24.89,24.89,0,0,1,.78,2.48h.06c.23-.8.5-1.6.82-2.48l1.89-5.44h1.84l-3.81,9.68h-1.68L403.9,7.06Z"/><path d="M414.9,19V3h3.66v1.1h-2.3V17.88h2.3V19Z"/><path d="M419.84,16.74V15.66l1.38-1.34c3.32-3.16,4.82-4.84,4.84-6.8A2.32,2.32,0,0,0,423.48,5a4.43,4.43,0,0,0-2.76,1.1l-.56-1.24a5.7,5.7,0,0,1,3.68-1.32,3.67,3.67,0,0,1,4,3.78c0,2.4-1.75,4.34-4.49,7l-1,1v0h5.85v1.46Z"/><path d="M433.24,3V19h-3.66v-1.1h2.3V4.12h-2.3V3Z"/><path d="M368.15,162.71a6.48,6.48,0,0,1-2.78.56,4.61,4.61,0,0,1-4.83-4.94,4.93,4.93,0,0,1,5.21-5.14,5.88,5.88,0,0,1,2.44.5l-.4,1.36a4.08,4.08,0,0,0-2-.46,3.65,3.65,0,0,0-.06,7.28,5,5,0,0,0,2.16-.48Z"/><path d="M370.39,165.31V149.37h3.66v1.1h-2.3v13.74h2.3v1.1Z"/><path d="M384,156.43c0,4.42-1.64,6.86-4.52,6.86-2.54,0-4.27-2.38-4.31-6.68s1.89-6.76,4.53-6.76S384,152.29,384,156.43Zm-7.06.2c0,3.38,1,5.3,2.64,5.3,1.8,0,2.66-2.1,2.66-5.42s-.82-5.3-2.64-5.3C378,151.21,376.91,153.09,376.91,156.63Z"/><path d="M388.73,149.35v16h-3.67v-1.1h2.31V150.45h-2.31v-1.1Z"/><path d="M462.62,162.71a6.48,6.48,0,0,1-2.78.56,4.6,4.6,0,0,1-4.82-4.94,4.92,4.92,0,0,1,5.2-5.14,5.88,5.88,0,0,1,2.44.5l-.4,1.36a4.08,4.08,0,0,0-2-.46,3.65,3.65,0,0,0-.06,7.28,5,5,0,0,0,2.16-.48Z"/><path d="M464.86,165.31V149.37h3.66v1.1h-2.3v13.74h2.3v1.1Z"/><path d="M473.62,151.71h0l-2.26,1.22-.34-1.34,2.84-1.52h1.5v13h-1.7Z"/><path d="M483.2,149.35v16h-3.66v-1.1h2.3V150.45h-2.3v-1.1Z"/><path d="M415.62,79.09a6.48,6.48,0,0,1-2.78.56A4.6,4.6,0,0,1,408,74.71a4.92,4.92,0,0,1,5.2-5.14,5.88,5.88,0,0,1,2.44.5l-.4,1.36a4.08,4.08,0,0,0-2-.46,3.65,3.65,0,0,0-.06,7.28,5,5,0,0,0,2.16-.48Z"/><path d="M417.86,81.69v-16h3.66v1.1h-2.3V80.59h2.3v1.1Z"/><path d="M422.8,79.45V78.37L424.18,77c3.32-3.16,4.82-4.84,4.84-6.8a2.33,2.33,0,0,0-2.58-2.55,4.43,4.43,0,0,0-2.76,1.11l-.56-1.25a5.7,5.7,0,0,1,3.68-1.32,3.66,3.66,0,0,1,4,3.78c0,2.41-1.74,4.35-4.48,7l-1,1v0h5.84v1.46Z"/><path d="M436.2,65.72v16h-3.66v-1.1h2.3V66.82h-2.3v-1.1Z"/><path d="M415.62,142.14a6.48,6.48,0,0,1-2.78.56,4.6,4.6,0,0,1-4.82-4.94,4.92,4.92,0,0,1,5.2-5.14,5.88,5.88,0,0,1,2.44.5l-.4,1.36a4.08,4.08,0,0,0-2-.46,3.65,3.65,0,0,0-.06,7.28,5,5,0,0,0,2.16-.48Z"/><path d="M417.86,144.74V128.8h3.66v1.1h-2.3v13.74h2.3v1.1Z"/><path d="M423.22,140.48a5.88,5.88,0,0,0,2.88.82c2.26,0,3-1.44,2.94-2.52,0-1.82-1.66-2.6-3.36-2.6h-1v-1.32h1c1.28,0,2.9-.66,2.9-2.2,0-1-.66-2-2.28-2a4.77,4.77,0,0,0-2.6.86l-.46-1.28a6.18,6.18,0,0,1,3.4-1c2.56,0,3.72,1.52,3.72,3.1a3.23,3.23,0,0,1-2.4,3.06v0a3.39,3.39,0,0,1,2.9,3.34c0,2.08-1.62,3.9-4.74,3.9a6.61,6.61,0,0,1-3.38-.88Z"/><path d="M436.2,128.78v16h-3.66v-1.1h2.3V129.88h-2.3v-1.1Z"/><path d="M404.36,203.12a3.1,3.1,0,0,0,3.32,3.36,6.36,6.36,0,0,0,2.68-.5l.3,1.26a7.84,7.84,0,0,1-3.22.6c-3,0-4.76-2-4.76-4.88s1.72-5.22,4.54-5.22c3.16,0,4,2.78,4,4.56a6.64,6.64,0,0,1-.06.82Zm5.16-1.26c0-1.12-.46-2.86-2.44-2.86-1.78,0-2.56,1.64-2.7,2.86Z"/><path d="M414.08,198l1.9,5.44a24.89,24.89,0,0,1,.78,2.48h.06c.22-.8.5-1.6.82-2.48l1.88-5.44h1.84l-3.8,9.68h-1.68L412.2,198Z"/><path d="M423.2,209.88V193.94h3.66V195h-2.3v13.74h2.3v1.1Z"/><path d="M436.78,201c0,4.42-1.64,6.86-4.52,6.86-2.54,0-4.26-2.38-4.3-6.68s1.88-6.76,4.52-6.76S436.78,196.86,436.78,201Zm-7.06.2c0,3.38,1,5.3,2.64,5.3,1.8,0,2.66-2.1,2.66-5.42s-.82-5.3-2.64-5.3C430.84,195.78,429.72,197.66,429.72,201.2Z"/><path d="M441.54,193.92v16h-3.66v-1.1h2.3V195h-2.3v-1.1Z"/><path d="M477.85,96.39a3.1,3.1,0,0,0,3.32,3.36,6.36,6.36,0,0,0,2.68-.5l.3,1.26a7.84,7.84,0,0,1-3.22.6c-3,0-4.76-2-4.76-4.88S477.89,91,480.71,91c3.16,0,4,2.78,4,4.56a6.64,6.64,0,0,1-.06.82ZM483,95.13c0-1.12-.46-2.86-2.44-2.86-1.78,0-2.56,1.64-2.7,2.86Z"/><path d="M487.57,91.23l1.9,5.44a24.89,24.89,0,0,1,.78,2.48h.06c.22-.8.5-1.6.82-2.48L493,91.23h1.84l-3.8,9.68h-1.68l-3.68-9.68Z"/><path d="M496.69,103.15V87.21h3.66v1.1h-2.3v13.74h2.3v1.1Z"/><path d="M505.45,89.55h0l-2.26,1.22-.34-1.34,2.84-1.52h1.5v13h-1.7Z"/><path d="M515,87.19v16h-3.66v-1.1h2.3V88.29h-2.3v-1.1Z"/><path d="M327.29,94.29a3.1,3.1,0,0,0,3.32,3.36,6.36,6.36,0,0,0,2.68-.5l.3,1.26a7.84,7.84,0,0,1-3.22.6c-3,0-4.76-2-4.76-4.88s1.72-5.22,4.54-5.22c3.16,0,4,2.78,4,4.56a6.64,6.64,0,0,1-.06.82ZM332.45,93c0-1.12-.46-2.86-2.44-2.86-1.78,0-2.56,1.64-2.7,2.86Z"/><path d="M337,89.13l1.9,5.44a24.89,24.89,0,0,1,.78,2.48h.06c.22-.8.5-1.6.82-2.48l1.88-5.44h1.84l-3.8,9.68h-1.68l-3.68-9.68Z"/><path d="M346.13,101.05V85.11h3.66v1.1h-2.3V100h2.3v1.1Z"/><path d="M351.07,98.81V97.73l1.38-1.34c3.32-3.16,4.82-4.84,4.84-6.8a2.32,2.32,0,0,0-2.58-2.54,4.43,4.43,0,0,0-2.76,1.1l-.56-1.24a5.7,5.7,0,0,1,3.68-1.32,3.66,3.66,0,0,1,4,3.78c0,2.4-1.74,4.34-4.48,7l-1,1v0h5.84v1.46Z"/><path d="M364.47,85.09v16h-3.66V100h2.3V86.19h-2.3v-1.1Z"/></svg>