<svg id="Layer_1" data-name="Layer 1" xmlns="http://www.w3.org/2000/svg" viewBox="0 0 461.46 265.02"><defs><style>.cls-1{fill:none;}.cls-1,.cls-2,.cls-3{stroke:#000;stroke-miterlimit:10;}.cls-3{fill:#999;}.cls-4{fill:#a6a6a6;}.cls-5{fill:#666;}</style></defs><title>Subdiv determine boundary</title><polygon class="cls-1" points="228.69 157.36 140.01 3.75 317.38 3.75 228.69 157.36 140.01 3.75 317.38 3.75 228.69 157.36"/><polyline class="cls-1" points="228.52 157.66 51.14 157.66 139.83 4.05"/><polyline class="cls-1" points="229.04 157.61 406.42 157.61 317.73 4"/><circle class="cls-2" cx="228.6" cy="157.55" r="3.53"/><circle class="cls-2" cx="139.91" cy="4.52" r="3.53"/><circle class="cls-2" cx="317.31" cy="4.03" r="3.53"/><circle class="cls-2" cx="51.08" cy="157.76" r="3.53"/><circle class="cls-2" cx="406.59" cy="157.69" r="3.53"/><rect class="cls-3" x="0.5" y="167.29" width="460.46" height="97.23"/><line class="cls-1" x1="228.82" y1="150.58" x2="228.82" y2="102.16"/><polygon points="234.32 107.07 228.81 102.81 223.31 107.07 228.81 94.05 234.32 107.07"/><polygon class="cls-4" points="233.12 105.51 228.81 95.37 228.81 102.18 233.12 105.51"/><polygon class="cls-5" points="224.52 105.51 228.81 95.37 228.81 102.18 224.52 105.51"/><line class="cls-1" x1="259.23" y1="62.12" x2="299.08" y2="89.63"/><polygon points="291.91 91.37 298.55 89.26 298.17 82.31 305.75 94.23 291.91 91.37"/><polygon class="cls-4" points="293.88 91.26 304.67 93.48 299.06 89.61 293.88 91.26"/><polygon class="cls-5" points="298.76 84.19 304.67 93.48 299.06 89.61 298.76 84.19"/><line class="cls-1" x1="312.22" y1="130.08" x2="312.22" y2="178.51"/><polygon points="306.71 173.6 312.22 177.86 317.72 173.6 312.22 186.61 306.71 173.6"/><polygon class="cls-4" points="307.91 175.16 312.22 185.3 312.22 178.49 307.91 175.16"/><polygon class="cls-5" points="316.51 175.16 312.22 185.3 312.22 178.49 316.51 175.16"/><path d="M211.34,89.1a4.61,4.61,0,0,0,2.32.7c1.28,0,1.89-.64,1.89-1.44s-.51-1.3-1.81-1.78C212,86,211.18,85,211.18,83.84c0-1.56,1.26-2.84,3.34-2.84a4.8,4.8,0,0,1,2.38.6l-.43,1.28a3.81,3.81,0,0,0-2-.56c-1,0-1.62.6-1.62,1.32s.58,1.16,1.84,1.64c1.68.64,2.55,1.48,2.55,2.92,0,1.7-1.33,2.9-3.63,2.9a5.52,5.52,0,0,1-2.72-.66Z"/><path d="M221.62,78.44v2.78h2.52v1.34h-2.52v5.22c0,1.2.34,1.88,1.32,1.88a4.07,4.07,0,0,0,1-.12l.08,1.32a4.41,4.41,0,0,1-1.57.24,2.44,2.44,0,0,1-1.9-.74,3.59,3.59,0,0,1-.68-2.52V82.56h-1.5V81.22h1.5V78.9Z"/><path d="M231.48,90.9l-.14-1.22h-.06a3.61,3.61,0,0,1-3,1.44,2.76,2.76,0,0,1-3-2.78c0-2.34,2.08-3.62,5.82-3.6v-.2A2,2,0,0,0,229,82.3a4.82,4.82,0,0,0-2.52.72l-.4-1.16a6,6,0,0,1,3.18-.86c3,0,3.68,2,3.68,4v3.62a13.56,13.56,0,0,0,.17,2.32ZM231.22,86c-1.92,0-4.1.3-4.1,2.18a1.56,1.56,0,0,0,1.66,1.68,2.41,2.41,0,0,0,2.34-1.62,1.84,1.84,0,0,0,.1-.56Z"/><path d="M235.76,84.24c0-1.14,0-2.12-.08-3h1.54l.06,1.9h.08A2.9,2.9,0,0,1,240,81a1.9,1.9,0,0,1,.5.06v1.66a2.64,2.64,0,0,0-.6-.06,2.47,2.47,0,0,0-2.36,2.26,5,5,0,0,0-.08.82V90.9h-1.74Z"/><path d="M244.9,78.44v2.78h2.52v1.34H244.9v5.22c0,1.2.34,1.88,1.32,1.88a3.92,3.92,0,0,0,1-.12l.08,1.32a4.31,4.31,0,0,1-1.56.24,2.44,2.44,0,0,1-1.9-.74,3.59,3.59,0,0,1-.68-2.52V82.56h-1.5V81.22h1.5V78.9Z"/><path d="M307.07,99.83c0-1,0-1.82-.08-2.62h1.56l.1,1.6h0a3.56,3.56,0,0,1,3.2-1.82c1.34,0,3.42.8,3.42,4.12v5.78h-1.76v-5.58c0-1.56-.58-2.86-2.24-2.86a2.5,2.5,0,0,0-2.36,1.8,2.53,2.53,0,0,0-.12.82v5.82h-1.76Z"/><path d="M319.15,102.37a3.1,3.1,0,0,0,3.32,3.36,6.36,6.36,0,0,0,2.68-.5l.3,1.26a7.84,7.84,0,0,1-3.22.6c-3,0-4.76-2-4.76-4.88S319.19,97,322,97c3.16,0,4,2.78,4,4.56a6.64,6.64,0,0,1-.06.82Zm5.16-1.26c0-1.12-.46-2.86-2.44-2.86-1.78,0-2.56,1.64-2.7,2.86Z"/><path d="M329,97.21l1.38,2.08c.36.54.66,1,1,1.58h.06c.32-.58.64-1.08,1-1.6l1.36-2.06h1.9l-3.3,4.68,3.4,5h-2l-1.42-2.18c-.38-.56-.7-1.1-1-1.68h0c-.32.58-.66,1.1-1,1.68l-1.4,2.18h-1.94l3.44-4.94L327,97.21Z"/><path d="M339.77,94.43v2.78h2.52v1.34h-2.52v5.22c0,1.2.34,1.88,1.32,1.88a3.92,3.92,0,0,0,1-.12l.08,1.32a4.31,4.31,0,0,1-1.56.24,2.44,2.44,0,0,1-1.9-.74,3.59,3.59,0,0,1-.68-2.52V98.55h-1.5V97.21h1.5V94.89Z"/><path d="M295.13,194c0-1,0-1.82-.08-2.62h1.56l.11,1.6h0a3.56,3.56,0,0,1,3.2-1.82c1.34,0,3.42.8,3.42,4.12V201h-1.76v-5.58c0-1.57-.58-2.87-2.24-2.87a2.5,2.5,0,0,0-2.36,1.8,2.62,2.62,0,0,0-.12.82V201h-1.77Z"/><path d="M307.22,196.51a3.1,3.1,0,0,0,3.32,3.36,6.36,6.36,0,0,0,2.68-.5l.3,1.26a7.84,7.84,0,0,1-3.22.6,4.5,4.5,0,0,1-4.77-4.88c0-2.93,1.73-5.23,4.55-5.23,3.16,0,4,2.79,4,4.57a7,7,0,0,1-.06.82Zm5.16-1.27c0-1.12-.46-2.86-2.44-2.86-1.78,0-2.56,1.64-2.7,2.86Z"/><path d="M317,191.34l1.39,2.08c.36.54.66,1,1,1.58h.06c.32-.58.64-1.08,1-1.6l1.36-2.06h1.9l-3.3,4.69,3.4,5h-2l-1.42-2.18c-.38-.56-.7-1.1-1-1.68h0c-.32.58-.66,1.1-1,1.68l-1.4,2.18h-1.95l3.45-4.95-3.29-4.74Z"/><path d="M327.83,188.56v2.78h2.53v1.34h-2.53v5.23c0,1.2.34,1.88,1.32,1.88a3.94,3.94,0,0,0,1-.12l.08,1.32a4.33,4.33,0,0,1-1.57.24,2.44,2.44,0,0,1-1.9-.74,3.59,3.59,0,0,1-.68-2.52v-5.29h-1.5v-1.34h1.5V189Z"/></svg>