<?xml version="1.0" encoding="UTF-8" standalone="no"?>
<svg
   xmlns:dc="http://purl.org/dc/elements/1.1/"
   xmlns:cc="http://creativecommons.org/ns#"
   xmlns:rdf="http://www.w3.org/1999/02/22-rdf-syntax-ns#"
   xmlns:svg="http://www.w3.org/2000/svg"
   xmlns="http://www.w3.org/2000/svg"
   xmlns:xlink="http://www.w3.org/1999/xlink"
   xmlns:sodipodi="http://sodipodi.sourceforge.net/DTD/sodipodi-0.dtd"
   xmlns:inkscape="http://www.inkscape.org/namespaces/inkscape"
   id="Layer_1"
   data-name="Layer 1"
   viewBox="0 0 243.64031 338.42"
   version="1.1"
   sodipodi:docname="Subdivedgetangents.svg"
   width="243.6403"
   height="338.42001"
   inkscape:version="1.0.1 (3bc2e813f5, 2020-09-07)">
  <metadata
     id="metadata2022">
    <rdf:RDF>
      <cc:Work
         rdf:about="">
        <dc:format>image/svg+xml</dc:format>
        <dc:type
           rdf:resource="http://purl.org/dc/dcmitype/StillImage" />
        <dc:title>Subdiv edge tangents</dc:title>
      </cc:Work>
    </rdf:RDF>
  </metadata>
  <sodipodi:namedview
     pagecolor="#ffffff"
     bordercolor="#666666"
     borderopacity="1"
     objecttolerance="10"
     gridtolerance="10"
     guidetolerance="10"
     inkscape:pageopacity="0"
     inkscape:pageshadow="2"
     inkscape:window-width="1920"
     inkscape:window-height="1017"
     id="namedview2020"
     showgrid="false"
     inkscape:zoom="1.7844767"
     inkscape:cx="188.69614"
     inkscape:cy="211.84842"
     inkscape:window-x="1912"
     inkscape:window-y="-8"
     inkscape:window-maximized="1"
     inkscape:current-layer="Layer_1"
     inkscape:document-rotation="0"
     fit-margin-right="1"
     lock-margins="true"
     fit-margin-top="1"
     fit-margin-left="1"
     fit-margin-bottom="1" />
  <defs
     id="defs1979">
    <style
       id="style1977">.cls-1,.cls-4{fill:none;}.cls-1,.cls-2,.cls-4{stroke:#000;stroke-miterlimit:10;}.cls-3{fill:#b3b3b3;}.cls-4{stroke-dasharray:2;}</style>
    <g
       id="g5518">
      <symbol
         overflow="visible"
         id="symbol6796">
        <path
           style="stroke:none"
           d=""
           id="path8271" />
      </symbol>
      <symbol
         overflow="visible"
         id="symbol7018">
        <path
           style="stroke:none"
           d="m 5.390625,-3.609375 c 0,-0.90625 -0.671875,-0.90625 -0.671875,-0.90625 -0.40625,0 -0.765625,0.421875 -0.765625,0.75 0,0.28125 0.21875,0.40625 0.296875,0.453125 0.421875,0.25 0.5,0.4375 0.5,0.625 0,0.21875 -0.578125,2.40625 -1.734375,2.40625 -0.71875,0 -0.71875,-0.59375 -0.71875,-0.78125 0,-0.578125 0.28125,-1.296875 0.59375,-2.09375 C 2.96875,-3.359375 3,-3.453125 3,-3.609375 3,-4.1875 2.421875,-4.5 1.875,-4.5 c -1.0625,0 -1.5625,1.34375 -1.5625,1.546875 0,0.140625 0.15625,0.140625 0.25,0.140625 0.109375,0 0.1875,0 0.21875,-0.125 0.328125,-1.078125 0.859375,-1.203125 1.03125,-1.203125 0.078125,0 0.171875,0 0.171875,0.203125 0,0.234375 -0.125,0.515625 -0.15625,0.59375 C 1.375,-2.1875 1.21875,-1.734375 1.21875,-1.25 c 0,1.046875 0.859375,1.328125 1.734375,1.328125 1.71875,0 2.4375,-2.828125 2.4375,-3.6875 z m 0,0"
           id="path4728" />
      </symbol>
      <symbol
         overflow="visible"
         id="symbol3793">
        <path
           style="stroke:none"
           d=""
           id="path8551" />
      </symbol>
      <symbol
         overflow="visible"
         id="symbol891">
        <path
           style="stroke:none"
           d="m 0.84375,-0.4375 c -0.015625,0.09375 -0.0625,0.265625 -0.0625,0.28125 0,0.15625 0.125,0.21875 0.234375,0.21875 0.125,0 0.234375,-0.078125 0.28125,-0.140625 0.03125,-0.0625 0.078125,-0.296875 0.125,-0.4375 0.03125,-0.125 0.109375,-0.453125 0.140625,-0.625 0.046875,-0.15625 0.09375,-0.3125 0.125,-0.46875 0.078125,-0.28125 0.09375,-0.34375 0.296875,-0.625 C 2.171875,-2.515625 2.5,-2.875 3.03125,-2.875 c 0.390625,0 0.40625,0.359375 0.40625,0.484375 0,0.421875 -0.296875,1.1875 -0.40625,1.484375 -0.078125,0.203125 -0.109375,0.265625 -0.109375,0.375 0,0.375 0.296875,0.59375 0.65625,0.59375 0.703125,0 1,-0.953125 1,-1.0625 0,-0.09375 -0.078125,-0.09375 -0.109375,-0.09375 -0.09375,0 -0.09375,0.046875 -0.125,0.125 C 4.1875,-0.40625 3.875,-0.125 3.609375,-0.125 c -0.15625,0 -0.1875,-0.09375 -0.1875,-0.25 0,-0.15625 0.046875,-0.25 0.171875,-0.5625 0.078125,-0.21875 0.359375,-0.953125 0.359375,-1.34375 0,-0.671875 -0.53125,-0.796875 -0.90625,-0.796875 -0.578125,0 -0.96875,0.359375 -1.171875,0.640625 -0.046875,-0.484375 -0.453125,-0.640625 -0.75,-0.640625 -0.296875,0 -0.453125,0.21875 -0.546875,0.375 -0.15625,0.265625 -0.25,0.65625 -0.25,0.703125 0,0.078125 0.09375,0.078125 0.125,0.078125 0.09375,0 0.09375,-0.015625 0.140625,-0.203125 0.109375,-0.40625 0.25,-0.75 0.515625,-0.75 0.1875,0 0.234375,0.15625 0.234375,0.34375 0,0.125 -0.0625,0.390625 -0.125,0.578125 -0.046875,0.1875 -0.109375,0.46875 -0.140625,0.625 z m 0,0"
           id="path8718" />
      </symbol>
      <symbol
         overflow="visible"
         id="symbol967">
        <path
           style="stroke:none"
           d=""
           id="path1967" />
      </symbol>
      <symbol
         overflow="visible"
         id="symbol8745">
        <path
           style="stroke:none"
           d="m 5.1875,-1.578125 c 0.109375,0 0.28125,0 0.28125,-0.15625 0,-0.1875 -0.171875,-0.1875 -0.28125,-0.1875 H 1.03125 c -0.109375,0 -0.28125,0 -0.28125,0.171875 0,0.171875 0.15625,0.171875 0.28125,0.171875 z m 0,0"
           id="path9553" />
      </symbol>
      <symbol
         overflow="visible"
         id="symbol8786">
        <path
           style="stroke:none"
           d=""
           id="path7744" />
      </symbol>
      <symbol
         overflow="visible"
         id="symbol6512">
        <path
           style="stroke:none"
           d="m 2.328125,-4.4375 c 0,-0.1875 0,-0.1875 -0.203125,-0.1875 -0.453125,0.4375 -1.078125,0.4375 -1.359375,0.4375 v 0.25 c 0.15625,0 0.625,0 1,-0.1875 v 3.546875 c 0,0.234375 0,0.328125 -0.6875,0.328125 H 0.8125 V 0 c 0.125,0 0.984375,-0.03125 1.234375,-0.03125 0.21875,0 1.09375,0.03125 1.25,0.03125 V -0.25 H 3.03125 c -0.703125,0 -0.703125,-0.09375 -0.703125,-0.328125 z m 0,0"
           id="path9700" />
      </symbol>
    </g>
    <g
       id="g1264">
      <symbol
         overflow="visible"
         id="symbol8067">
        <path
           style="stroke:none"
           d=""
           id="path3378" />
      </symbol>
      <symbol
         overflow="visible"
         id="symbol8874">
        <path
           style="stroke:none"
           d="m 5.390625,-3.609375 c 0,-0.90625 -0.671875,-0.90625 -0.671875,-0.90625 -0.40625,0 -0.765625,0.421875 -0.765625,0.75 0,0.28125 0.21875,0.40625 0.296875,0.453125 0.421875,0.25 0.5,0.4375 0.5,0.625 0,0.21875 -0.578125,2.40625 -1.734375,2.40625 -0.71875,0 -0.71875,-0.59375 -0.71875,-0.78125 0,-0.578125 0.28125,-1.296875 0.59375,-2.09375 C 2.96875,-3.359375 3,-3.453125 3,-3.609375 3,-4.1875 2.421875,-4.5 1.875,-4.5 c -1.0625,0 -1.5625,1.34375 -1.5625,1.546875 0,0.140625 0.15625,0.140625 0.25,0.140625 0.109375,0 0.1875,0 0.21875,-0.125 0.328125,-1.078125 0.859375,-1.203125 1.03125,-1.203125 0.078125,0 0.171875,0 0.171875,0.203125 0,0.234375 -0.125,0.515625 -0.15625,0.59375 C 1.375,-2.1875 1.21875,-1.734375 1.21875,-1.25 c 0,1.046875 0.859375,1.328125 1.734375,1.328125 1.71875,0 2.4375,-2.828125 2.4375,-3.6875 z m 0,0"
           id="path4531" />
      </symbol>
      <symbol
         overflow="visible"
         id="symbol7395">
        <path
           style="stroke:none"
           d=""
           id="path2082" />
      </symbol>
      <symbol
         overflow="visible"
         id="symbol3404">
        <path
           style="stroke:none"
           d="M 3.59375,-2.21875 C 3.59375,-2.984375 3.5,-3.546875 3.1875,-4.03125 2.96875,-4.34375 2.53125,-4.625 1.984375,-4.625 c -1.625,0 -1.625,1.90625 -1.625,2.40625 0,0.5 0,2.359375 1.625,2.359375 1.609375,0 1.609375,-1.859375 1.609375,-2.359375 z M 1.984375,-0.0625 c -0.328125,0 -0.75,-0.1875 -0.890625,-0.75 C 1,-1.21875 1,-1.796875 1,-2.3125 1,-2.828125 1,-3.359375 1.09375,-3.734375 1.25,-4.28125 1.6875,-4.4375 1.984375,-4.4375 c 0.375,0 0.734375,0.234375 0.859375,0.640625 0.109375,0.375 0.125,0.875 0.125,1.484375 0,0.515625 0,1.03125 -0.09375,1.46875 -0.140625,0.640625 -0.609375,0.78125 -0.890625,0.78125 z m 0,0"
           id="path2110" />
      </symbol>
    </g>
    <g
       id="g1120">
      <symbol
         overflow="visible"
         id="symbol1576">
        <path
           style="stroke:none"
           d=""
           id="path5658" />
      </symbol>
      <symbol
         overflow="visible"
         id="symbol2908">
        <path
           style="stroke:none"
           d="m 5.390625,-3.609375 c 0,-0.90625 -0.671875,-0.90625 -0.671875,-0.90625 -0.40625,0 -0.765625,0.421875 -0.765625,0.75 0,0.28125 0.21875,0.40625 0.296875,0.453125 0.421875,0.25 0.5,0.4375 0.5,0.625 0,0.21875 -0.578125,2.40625 -1.734375,2.40625 -0.71875,0 -0.71875,-0.59375 -0.71875,-0.78125 0,-0.578125 0.28125,-1.296875 0.59375,-2.09375 C 2.96875,-3.359375 3,-3.453125 3,-3.609375 3,-4.1875 2.421875,-4.5 1.875,-4.5 c -1.0625,0 -1.5625,1.34375 -1.5625,1.546875 0,0.140625 0.15625,0.140625 0.25,0.140625 0.109375,0 0.1875,0 0.21875,-0.125 0.328125,-1.078125 0.859375,-1.203125 1.03125,-1.203125 0.078125,0 0.171875,0 0.171875,0.203125 0,0.234375 -0.125,0.515625 -0.15625,0.59375 C 1.375,-2.1875 1.21875,-1.734375 1.21875,-1.25 c 0,1.046875 0.859375,1.328125 1.734375,1.328125 1.71875,0 2.4375,-2.828125 2.4375,-3.6875 z m 0,0"
           id="path1226" />
      </symbol>
      <symbol
         overflow="visible"
         id="symbol5214">
        <path
           style="stroke:none"
           d=""
           id="path6162" />
      </symbol>
      <symbol
         overflow="visible"
         id="symbol9306">
        <path
           style="stroke:none"
           d="m 2.328125,-4.4375 c 0,-0.1875 0,-0.1875 -0.203125,-0.1875 -0.453125,0.4375 -1.078125,0.4375 -1.359375,0.4375 v 0.25 c 0.15625,0 0.625,0 1,-0.1875 v 3.546875 c 0,0.234375 0,0.328125 -0.6875,0.328125 H 0.8125 V 0 c 0.125,0 0.984375,-0.03125 1.234375,-0.03125 0.21875,0 1.09375,0.03125 1.25,0.03125 V -0.25 H 3.03125 c -0.703125,0 -0.703125,-0.09375 -0.703125,-0.328125 z m 0,0"
           id="path6051" />
      </symbol>
    </g>
    <g
       id="g6769">
      <symbol
         overflow="visible"
         id="symbol1335">
        <path
           style="stroke:none"
           d=""
           id="path154" />
      </symbol>
      <symbol
         overflow="visible"
         id="symbol6827">
        <path
           style="stroke:none"
           d="m 5.390625,-3.609375 c 0,-0.90625 -0.671875,-0.90625 -0.671875,-0.90625 -0.40625,0 -0.765625,0.421875 -0.765625,0.75 0,0.28125 0.21875,0.40625 0.296875,0.453125 0.421875,0.25 0.5,0.4375 0.5,0.625 0,0.21875 -0.578125,2.40625 -1.734375,2.40625 -0.71875,0 -0.71875,-0.59375 -0.71875,-0.78125 0,-0.578125 0.28125,-1.296875 0.59375,-2.09375 C 2.96875,-3.359375 3,-3.453125 3,-3.609375 3,-4.1875 2.421875,-4.5 1.875,-4.5 c -1.0625,0 -1.5625,1.34375 -1.5625,1.546875 0,0.140625 0.15625,0.140625 0.25,0.140625 0.109375,0 0.1875,0 0.21875,-0.125 0.328125,-1.078125 0.859375,-1.203125 1.03125,-1.203125 0.078125,0 0.171875,0 0.171875,0.203125 0,0.234375 -0.125,0.515625 -0.15625,0.59375 C 1.375,-2.1875 1.21875,-1.734375 1.21875,-1.25 c 0,1.046875 0.859375,1.328125 1.734375,1.328125 1.71875,0 2.4375,-2.828125 2.4375,-3.6875 z m 0,0"
           id="path7266" />
      </symbol>
    </g>
    <g
       id="g39">
      <symbol
         overflow="visible"
         id="symbol2526">
        <path
           style="stroke:none"
           d=""
           id="path5345" />
      </symbol>
      <symbol
         overflow="visible"
         id="symbol622">
        <path
           style="stroke:none"
           d="m 5.390625,-3.609375 c 0,-0.90625 -0.671875,-0.90625 -0.671875,-0.90625 -0.40625,0 -0.765625,0.421875 -0.765625,0.75 0,0.28125 0.21875,0.40625 0.296875,0.453125 0.421875,0.25 0.5,0.4375 0.5,0.625 0,0.21875 -0.578125,2.40625 -1.734375,2.40625 -0.71875,0 -0.71875,-0.59375 -0.71875,-0.78125 0,-0.578125 0.28125,-1.296875 0.59375,-2.09375 C 2.96875,-3.359375 3,-3.453125 3,-3.609375 3,-4.1875 2.421875,-4.5 1.875,-4.5 c -1.0625,0 -1.5625,1.34375 -1.5625,1.546875 0,0.140625 0.15625,0.140625 0.25,0.140625 0.109375,0 0.1875,0 0.21875,-0.125 0.328125,-1.078125 0.859375,-1.203125 1.03125,-1.203125 0.078125,0 0.171875,0 0.171875,0.203125 0,0.234375 -0.125,0.515625 -0.15625,0.59375 C 1.375,-2.1875 1.21875,-1.734375 1.21875,-1.25 c 0,1.046875 0.859375,1.328125 1.734375,1.328125 1.71875,0 2.4375,-2.828125 2.4375,-3.6875 z m 0,0"
           id="path2441" />
      </symbol>
      <symbol
         overflow="visible"
         id="symbol440">
        <path
           style="stroke:none"
           d=""
           id="path6194" />
      </symbol>
      <symbol
         overflow="visible"
         id="symbol1373">
        <path
           style="stroke:none"
           d="m 0.84375,-0.4375 c -0.015625,0.09375 -0.0625,0.265625 -0.0625,0.28125 0,0.15625 0.125,0.21875 0.234375,0.21875 0.125,0 0.234375,-0.078125 0.28125,-0.140625 0.03125,-0.0625 0.078125,-0.296875 0.125,-0.4375 0.03125,-0.125 0.109375,-0.453125 0.140625,-0.625 0.046875,-0.15625 0.09375,-0.3125 0.125,-0.46875 0.078125,-0.28125 0.09375,-0.34375 0.296875,-0.625 C 2.171875,-2.515625 2.5,-2.875 3.03125,-2.875 c 0.390625,0 0.40625,0.359375 0.40625,0.484375 0,0.421875 -0.296875,1.1875 -0.40625,1.484375 -0.078125,0.203125 -0.109375,0.265625 -0.109375,0.375 0,0.375 0.296875,0.59375 0.65625,0.59375 0.703125,0 1,-0.953125 1,-1.0625 0,-0.09375 -0.078125,-0.09375 -0.109375,-0.09375 -0.09375,0 -0.09375,0.046875 -0.125,0.125 C 4.1875,-0.40625 3.875,-0.125 3.609375,-0.125 c -0.15625,0 -0.1875,-0.09375 -0.1875,-0.25 0,-0.15625 0.046875,-0.25 0.171875,-0.5625 0.078125,-0.21875 0.359375,-0.953125 0.359375,-1.34375 0,-0.671875 -0.53125,-0.796875 -0.90625,-0.796875 -0.578125,0 -0.96875,0.359375 -1.171875,0.640625 -0.046875,-0.484375 -0.453125,-0.640625 -0.75,-0.640625 -0.296875,0 -0.453125,0.21875 -0.546875,0.375 -0.15625,0.265625 -0.25,0.65625 -0.25,0.703125 0,0.078125 0.09375,0.078125 0.125,0.078125 0.09375,0 0.09375,-0.015625 0.140625,-0.203125 0.109375,-0.40625 0.25,-0.75 0.515625,-0.75 0.1875,0 0.234375,0.15625 0.234375,0.34375 0,0.125 -0.0625,0.390625 -0.125,0.578125 -0.046875,0.1875 -0.109375,0.46875 -0.140625,0.625 z m 0,0"
           id="path5082" />
      </symbol>
      <symbol
         overflow="visible"
         id="symbol8774">
        <path
           style="stroke:none"
           d=""
           id="path1666" />
      </symbol>
      <symbol
         overflow="visible"
         id="symbol2115">
        <path
           style="stroke:none"
           d="m 5.1875,-1.578125 c 0.109375,0 0.28125,0 0.28125,-0.15625 0,-0.1875 -0.171875,-0.1875 -0.28125,-0.1875 H 1.03125 c -0.109375,0 -0.28125,0 -0.28125,0.171875 0,0.171875 0.15625,0.171875 0.28125,0.171875 z m 0,0"
           id="path1722" />
      </symbol>
      <symbol
         overflow="visible"
         id="symbol5567">
        <path
           style="stroke:none"
           d=""
           id="path2234" />
      </symbol>
      <symbol
         overflow="visible"
         id="symbol2055">
        <path
           style="stroke:none"
           d="M 3.515625,-1.265625 H 3.28125 c -0.015625,0.15625 -0.09375,0.5625 -0.1875,0.625 C 3.046875,-0.59375 2.515625,-0.59375 2.40625,-0.59375 H 1.125 c 0.734375,-0.640625 0.984375,-0.84375 1.390625,-1.171875 0.515625,-0.40625 1,-0.84375 1,-1.5 0,-0.84375 -0.734375,-1.359375 -1.625,-1.359375 -0.859375,0 -1.453125,0.609375 -1.453125,1.25 0,0.34375 0.296875,0.390625 0.375,0.390625 0.15625,0 0.359375,-0.125 0.359375,-0.375 0,-0.125 -0.046875,-0.375 -0.40625,-0.375 C 0.984375,-4.21875 1.453125,-4.375 1.78125,-4.375 c 0.703125,0 1.0625,0.546875 1.0625,1.109375 0,0.609375 -0.4375,1.078125 -0.65625,1.328125 L 0.515625,-0.265625 C 0.4375,-0.203125 0.4375,-0.1875 0.4375,0 h 2.875 z m 0,0"
           id="path6417" />
      </symbol>
    </g>
  </defs>
  <title
     id="title1981">Subdiv edge tangents</title>
  <polygon
     class="cls-1"
     points="72.05,167.98 128.47,200.56 184.9,233.14 128.47,265.71 72.05,298.29 72.05,233.14 "
     id="polygon1983"
     transform="translate(0.9999984,0.99999945)" />
  <circle
     class="cls-2"
     cx="73.07"
     cy="168.89"
     r="2.3499999"
     id="circle1985" />
  <circle
     class="cls-2"
     cx="72.75"
     cy="299.07999"
     r="2.3499999"
     id="circle1987" />
  <circle
     class="cls-2"
     cx="73.07"
     cy="38.380001"
     r="2.3499999"
     id="circle1989" />
  <circle
     class="cls-2"
     cx="186.14999"
     cy="234.46001"
     r="2.3499999"
     id="circle1991" />
  <circle
     class="cls-2"
     cx="186.14999"
     cy="103"
     r="2.3499999"
     id="circle1993" />
  <polygon
     class="cls-1"
     points="72.05,37.29 128.47,69.87 184.9,102.45 128.47,135.03 72.05,167.61 72.05,102.45 "
     id="polygon2011"
     transform="translate(0.9999984,0.99999945)" />
  <rect
     class="cls-3"
     width="59.400002"
     height="336.42001"
     id="rect2015"
     x="1"
     y="1" />
  <path
     class="cls-4"
     d="m 135.05,204.83 a 71.84,71.84 0 0 0 -0.41,-71.94"
     id="path2017" />
  <g
     inkscape:label=""
     transform="matrix(2.5,0,0,2.5,-165.15143,116.8359)"
     id="g2073">
    <g
       id="g3132">
      <g
         style="fill:#000000;fill-opacity:1"
         id="g1404">
        <use
           xlink:href="#symbol7018"
           x="91.925003"
           y="81.962997"
           id="use7260"
           width="100%"
           height="100%" />
      </g>
      <g
         style="fill:#000000;fill-opacity:1"
         id="g8842">
        <use
           xlink:href="#symbol891"
           x="97.570999"
           y="83.457001"
           id="use6659"
           width="100%"
           height="100%" />
      </g>
      <g
         style="fill:#000000;fill-opacity:1"
         id="g8134">
        <use
           xlink:href="#symbol8745"
           x="102.496"
           y="83.457001"
           id="use3168"
           width="100%"
           height="100%" />
      </g>
      <g
         style="fill:#000000;fill-opacity:1"
         id="g5397">
        <use
           xlink:href="#symbol6512"
           x="108.722"
           y="83.457001"
           id="use3943"
           width="100%"
           height="100%" />
      </g>
    </g>
  </g>
  <g
     inkscape:label=""
     transform="matrix(2.5,0,0,2.5,-164.35892,-174.4111)"
     id="g2167">
    <g
       id="g2187">
      <g
         style="fill:#000000;fill-opacity:1"
         id="g1953">
        <use
           xlink:href="#symbol8874"
           x="91.925003"
           y="81.962997"
           id="use3963"
           width="100%"
           height="100%" />
      </g>
      <g
         style="fill:#000000;fill-opacity:1"
         id="g4723">
        <use
           xlink:href="#symbol3404"
           x="97.570999"
           y="83.457001"
           id="use8930"
           width="100%"
           height="100%" />
      </g>
    </g>
  </g>
  <g
     inkscape:label=""
     transform="matrix(2.5,0,0,2.5,-38.746272,-95.95272)"
     id="g2264">
    <g
       id="g5999">
      <g
         style="fill:#000000;fill-opacity:1"
         id="g3345">
        <use
           xlink:href="#symbol2908"
           x="91.925003"
           y="81.962997"
           id="use8385"
           width="100%"
           height="100%" />
      </g>
      <g
         style="fill:#000000;fill-opacity:1"
         id="g1268">
        <use
           xlink:href="#symbol9306"
           x="97.570999"
           y="83.457001"
           id="use58"
           width="100%"
           height="100%" />
      </g>
    </g>
  </g>
  <g
     inkscape:label=""
     transform="matrix(2.5,0,0,2.5,-37.953762,37.585018)"
     id="g2493">
    <g
       id="g8509">
      <g
         style="fill:#000000;fill-opacity:1"
         id="g731">
        <use
           xlink:href="#symbol622"
           x="91.925003"
           y="81.962997"
           id="use895"
           width="100%"
           height="100%" />
      </g>
      <g
         style="fill:#000000;fill-opacity:1"
         id="g6680">
        <use
           xlink:href="#symbol1373"
           x="97.570999"
           y="83.457001"
           id="use2593"
           width="100%"
           height="100%" />
      </g>
      <g
         style="fill:#000000;fill-opacity:1"
         id="g3280">
        <use
           xlink:href="#symbol2115"
           x="102.496"
           y="83.457001"
           id="use3131"
           width="100%"
           height="100%" />
      </g>
      <g
         style="fill:#000000;fill-opacity:1"
         id="g8598">
        <use
           xlink:href="#symbol2055"
           x="108.722"
           y="83.457001"
           id="use14"
           width="100%"
           height="100%" />
      </g>
    </g>
  </g>
</svg>
