<?xml version="1.0" encoding="UTF-8" standalone="no"?>
<svg
   xmlns:dc="http://purl.org/dc/elements/1.1/"
   xmlns:cc="http://creativecommons.org/ns#"
   xmlns:rdf="http://www.w3.org/1999/02/22-rdf-syntax-ns#"
   xmlns:svg="http://www.w3.org/2000/svg"
   xmlns="http://www.w3.org/2000/svg"
   xmlns:xlink="http://www.w3.org/1999/xlink"
   xmlns:sodipodi="http://sodipodi.sourceforge.net/DTD/sodipodi-0.dtd"
   xmlns:inkscape="http://www.inkscape.org/namespaces/inkscape"
   id="Layer_1"
   data-name="Layer 1"
   viewBox="0 0 200.39 336.42"
   version="1.1"
   sodipodi:docname="Subdivboundaryweighting.svg"
   inkscape:version="1.0.1 (3bc2e813f5, 2020-09-07)">
  <metadata
     id="metadata2282">
    <rdf:RDF>
      <cc:Work
         rdf:about="">
        <dc:format>image/svg+xml</dc:format>
        <dc:type
           rdf:resource="http://purl.org/dc/dcmitype/StillImage" />
      </cc:Work>
    </rdf:RDF>
  </metadata>
  <sodipodi:namedview
     pagecolor="#ffffff"
     bordercolor="#666666"
     borderopacity="1"
     objecttolerance="10"
     gridtolerance="10"
     guidetolerance="10"
     inkscape:pageopacity="0"
     inkscape:pageshadow="2"
     inkscape:window-width="1920"
     inkscape:window-height="1017"
     id="namedview2280"
     showgrid="false"
     inkscape:zoom="2.5236312"
     inkscape:cx="100.195"
     inkscape:cy="168.21"
     inkscape:window-x="1912"
     inkscape:window-y="-8"
     inkscape:window-maximized="1"
     inkscape:current-layer="Layer_1"
     inkscape:document-rotation="0" />
  <defs
     id="defs2241">
    <style
       id="style2239">.cls-1,.cls-4{fill:none;}.cls-1,.cls-2,.cls-4{stroke:#000;stroke-miterlimit:10;}.cls-3{fill:#b3b3b3;}.cls-4{stroke-dasharray:2;}</style>
    <g
       id="g7704">
      <symbol
         overflow="visible"
         id="symbol4511">
        <path
           style="stroke:none;"
           d=""
           id="path2649" />
      </symbol>
      <symbol
         overflow="visible"
         id="symbol1019">
        <path
           style="stroke:none;"
           d="M 5.734375 -5.671875 C 5.734375 -6.421875 5.1875 -7.03125 4.375 -7.03125 C 3.796875 -7.03125 3.515625 -6.875 3.171875 -6.625 C 2.625 -6.21875 2.078125 -5.25 1.890625 -4.5 L 0.296875 1.828125 C 0.296875 1.875 0.34375 1.9375 0.421875 1.9375 C 0.5 1.9375 0.53125 1.90625 0.53125 1.890625 L 1.234375 -0.875 C 1.421875 -0.265625 1.859375 0.09375 2.59375 0.09375 C 3.3125 0.09375 4.0625 -0.25 4.515625 -0.6875 C 5 -1.140625 5.3125 -1.78125 5.3125 -2.515625 C 5.3125 -3.234375 4.9375 -3.765625 4.578125 -4 C 5.15625 -4.34375 5.734375 -4.953125 5.734375 -5.671875 Z M 3.9375 -4.015625 C 3.8125 -3.96875 3.703125 -3.953125 3.453125 -3.953125 C 3.3125 -3.953125 3.125 -3.9375 3.015625 -3.984375 C 3.046875 -4.09375 3.40625 -4.0625 3.515625 -4.0625 C 3.71875 -4.0625 3.8125 -4.0625 3.9375 -4.015625 Z M 5.171875 -5.90625 C 5.171875 -5.203125 4.796875 -4.484375 4.28125 -4.171875 C 4 -4.28125 3.8125 -4.296875 3.515625 -4.296875 C 3.296875 -4.296875 2.734375 -4.3125 2.734375 -3.984375 C 2.734375 -3.703125 3.25 -3.734375 3.421875 -3.734375 C 3.796875 -3.734375 3.953125 -3.734375 4.25 -3.859375 C 4.625 -3.5 4.671875 -3.1875 4.6875 -2.734375 C 4.703125 -2.15625 4.46875 -1.40625 4.1875 -1.015625 C 3.796875 -0.484375 3.125 -0.125 2.5625 -0.125 C 1.796875 -0.125 1.421875 -0.703125 1.421875 -1.40625 C 1.421875 -1.5 1.421875 -1.65625 1.46875 -1.84375 L 2.109375 -4.359375 C 2.328125 -5.21875 3.046875 -6.8125 4.25 -6.8125 C 4.828125 -6.8125 5.171875 -6.5 5.171875 -5.90625 Z M 5.171875 -5.90625 "
           id="path4669" />
      </symbol>
    </g>
    <g
       id="g9676">
      <symbol
         overflow="visible"
         id="symbol8190">
        <path
           style="stroke:none;"
           d=""
           id="path9833" />
      </symbol>
      <symbol
         overflow="visible"
         id="symbol2340">
        <path
           style="stroke:none;"
           d="M 5.734375 -5.671875 C 5.734375 -6.421875 5.1875 -7.03125 4.375 -7.03125 C 3.796875 -7.03125 3.515625 -6.875 3.171875 -6.625 C 2.625 -6.21875 2.078125 -5.25 1.890625 -4.5 L 0.296875 1.828125 C 0.296875 1.875 0.34375 1.9375 0.421875 1.9375 C 0.5 1.9375 0.53125 1.90625 0.53125 1.890625 L 1.234375 -0.875 C 1.421875 -0.265625 1.859375 0.09375 2.59375 0.09375 C 3.3125 0.09375 4.0625 -0.25 4.515625 -0.6875 C 5 -1.140625 5.3125 -1.78125 5.3125 -2.515625 C 5.3125 -3.234375 4.9375 -3.765625 4.578125 -4 C 5.15625 -4.34375 5.734375 -4.953125 5.734375 -5.671875 Z M 3.9375 -4.015625 C 3.8125 -3.96875 3.703125 -3.953125 3.453125 -3.953125 C 3.3125 -3.953125 3.125 -3.9375 3.015625 -3.984375 C 3.046875 -4.09375 3.40625 -4.0625 3.515625 -4.0625 C 3.71875 -4.0625 3.8125 -4.0625 3.9375 -4.015625 Z M 5.171875 -5.90625 C 5.171875 -5.203125 4.796875 -4.484375 4.28125 -4.171875 C 4 -4.28125 3.8125 -4.296875 3.515625 -4.296875 C 3.296875 -4.296875 2.734375 -4.3125 2.734375 -3.984375 C 2.734375 -3.703125 3.25 -3.734375 3.421875 -3.734375 C 3.796875 -3.734375 3.953125 -3.734375 4.25 -3.859375 C 4.625 -3.5 4.671875 -3.1875 4.6875 -2.734375 C 4.703125 -2.15625 4.46875 -1.40625 4.1875 -1.015625 C 3.796875 -0.484375 3.125 -0.125 2.5625 -0.125 C 1.796875 -0.125 1.421875 -0.703125 1.421875 -1.40625 C 1.421875 -1.5 1.421875 -1.65625 1.46875 -1.84375 L 2.109375 -4.359375 C 2.328125 -5.21875 3.046875 -6.8125 4.25 -6.8125 C 4.828125 -6.8125 5.171875 -6.5 5.171875 -5.90625 Z M 5.171875 -5.90625 "
           id="path2062" />
      </symbol>
    </g>
    <g
       id="g2831">
      <symbol
         overflow="visible"
         id="symbol4772">
        <path
           style="stroke:none;"
           d=""
           id="path2752" />
      </symbol>
      <symbol
         overflow="visible"
         id="symbol4778">
        <path
           style="stroke:none;"
           d="M 2.9375 -6.375 C 2.9375 -6.625 2.9375 -6.640625 2.703125 -6.640625 C 2.078125 -6 1.203125 -6 0.890625 -6 L 0.890625 -5.6875 C 1.09375 -5.6875 1.671875 -5.6875 2.1875 -5.953125 L 2.1875 -0.78125 C 2.1875 -0.421875 2.15625 -0.3125 1.265625 -0.3125 L 0.953125 -0.3125 L 0.953125 0 C 1.296875 -0.03125 2.15625 -0.03125 2.5625 -0.03125 C 2.953125 -0.03125 3.828125 -0.03125 4.171875 0 L 4.171875 -0.3125 L 3.859375 -0.3125 C 2.953125 -0.3125 2.9375 -0.421875 2.9375 -0.78125 Z M 2.9375 -6.375 "
           id="path2089" />
      </symbol>
      <symbol
         overflow="visible"
         id="symbol7684">
        <path
           style="stroke:none;"
           d="M 1.265625 -0.765625 L 2.328125 -1.796875 C 3.875 -3.171875 4.46875 -3.703125 4.46875 -4.703125 C 4.46875 -5.84375 3.578125 -6.640625 2.359375 -6.640625 C 1.234375 -6.640625 0.5 -5.71875 0.5 -4.828125 C 0.5 -4.28125 1 -4.28125 1.03125 -4.28125 C 1.203125 -4.28125 1.546875 -4.390625 1.546875 -4.8125 C 1.546875 -5.0625 1.359375 -5.328125 1.015625 -5.328125 C 0.9375 -5.328125 0.921875 -5.328125 0.890625 -5.3125 C 1.109375 -5.96875 1.65625 -6.328125 2.234375 -6.328125 C 3.140625 -6.328125 3.5625 -5.515625 3.5625 -4.703125 C 3.5625 -3.90625 3.078125 -3.125 2.515625 -2.5 L 0.609375 -0.375 C 0.5 -0.265625 0.5 -0.234375 0.5 0 L 4.203125 0 L 4.46875 -1.734375 L 4.234375 -1.734375 C 4.171875 -1.4375 4.109375 -1 4 -0.84375 C 3.9375 -0.765625 3.28125 -0.765625 3.0625 -0.765625 Z M 1.265625 -0.765625 "
           id="path3706" />
      </symbol>
      <symbol
         overflow="visible"
         id="symbol8750">
        <path
           style="stroke:none;"
           d=""
           id="path8691" />
      </symbol>
      <symbol
         overflow="visible"
         id="symbol3105">
        <path
           style="stroke:none;"
           d="M 6.5625 -2.296875 C 6.734375 -2.296875 6.921875 -2.296875 6.921875 -2.5 C 6.921875 -2.6875 6.734375 -2.6875 6.5625 -2.6875 L 1.171875 -2.6875 C 1 -2.6875 0.828125 -2.6875 0.828125 -2.5 C 0.828125 -2.296875 1 -2.296875 1.171875 -2.296875 Z M 6.5625 -2.296875 "
           id="path9875" />
      </symbol>
      <symbol
         overflow="visible"
         id="symbol6780">
        <path
           style="stroke:none;"
           d=""
           id="path2606" />
      </symbol>
      <symbol
         overflow="visible"
         id="symbol3653">
        <path
           style="stroke:none;"
           d="M 5.734375 -5.671875 C 5.734375 -6.421875 5.1875 -7.03125 4.375 -7.03125 C 3.796875 -7.03125 3.515625 -6.875 3.171875 -6.625 C 2.625 -6.21875 2.078125 -5.25 1.890625 -4.5 L 0.296875 1.828125 C 0.296875 1.875 0.34375 1.9375 0.421875 1.9375 C 0.5 1.9375 0.53125 1.90625 0.53125 1.890625 L 1.234375 -0.875 C 1.421875 -0.265625 1.859375 0.09375 2.59375 0.09375 C 3.3125 0.09375 4.0625 -0.25 4.515625 -0.6875 C 5 -1.140625 5.3125 -1.78125 5.3125 -2.515625 C 5.3125 -3.234375 4.9375 -3.765625 4.578125 -4 C 5.15625 -4.34375 5.734375 -4.953125 5.734375 -5.671875 Z M 3.9375 -4.015625 C 3.8125 -3.96875 3.703125 -3.953125 3.453125 -3.953125 C 3.3125 -3.953125 3.125 -3.9375 3.015625 -3.984375 C 3.046875 -4.09375 3.40625 -4.0625 3.515625 -4.0625 C 3.71875 -4.0625 3.8125 -4.0625 3.9375 -4.015625 Z M 5.171875 -5.90625 C 5.171875 -5.203125 4.796875 -4.484375 4.28125 -4.171875 C 4 -4.28125 3.8125 -4.296875 3.515625 -4.296875 C 3.296875 -4.296875 2.734375 -4.3125 2.734375 -3.984375 C 2.734375 -3.703125 3.25 -3.734375 3.421875 -3.734375 C 3.796875 -3.734375 3.953125 -3.734375 4.25 -3.859375 C 4.625 -3.5 4.671875 -3.1875 4.6875 -2.734375 C 4.703125 -2.15625 4.46875 -1.40625 4.1875 -1.015625 C 3.796875 -0.484375 3.125 -0.125 2.5625 -0.125 C 1.796875 -0.125 1.421875 -0.703125 1.421875 -1.40625 C 1.421875 -1.5 1.421875 -1.65625 1.46875 -1.84375 L 2.109375 -4.359375 C 2.328125 -5.21875 3.046875 -6.8125 4.25 -6.8125 C 4.828125 -6.8125 5.171875 -6.5 5.171875 -5.90625 Z M 5.171875 -5.90625 "
           id="path2865" />
      </symbol>
    </g>
    <g
       id="g4891">
      <symbol
         overflow="visible"
         id="symbol1255">
        <path
           style="stroke:none;"
           d=""
           id="path1981" />
      </symbol>
      <symbol
         overflow="visible"
         id="symbol9125">
        <path
           style="stroke:none;"
           d="M 4.578125 -3.1875 C 4.578125 -3.984375 4.53125 -4.78125 4.1875 -5.515625 C 3.734375 -6.484375 2.90625 -6.640625 2.5 -6.640625 C 1.890625 -6.640625 1.171875 -6.375 0.75 -5.453125 C 0.4375 -4.765625 0.390625 -3.984375 0.390625 -3.1875 C 0.390625 -2.4375 0.421875 -1.546875 0.84375 -0.78125 C 1.265625 0.015625 2 0.21875 2.484375 0.21875 C 3.015625 0.21875 3.78125 0.015625 4.21875 -0.9375 C 4.53125 -1.625 4.578125 -2.40625 4.578125 -3.1875 Z M 2.484375 0 C 2.09375 0 1.5 -0.25 1.328125 -1.203125 C 1.21875 -1.796875 1.21875 -2.71875 1.21875 -3.3125 C 1.21875 -3.953125 1.21875 -4.609375 1.296875 -5.140625 C 1.484375 -6.328125 2.234375 -6.421875 2.484375 -6.421875 C 2.8125 -6.421875 3.46875 -6.234375 3.65625 -5.25 C 3.765625 -4.6875 3.765625 -3.9375 3.765625 -3.3125 C 3.765625 -2.5625 3.765625 -1.890625 3.65625 -1.25 C 3.5 -0.296875 2.9375 0 2.484375 0 Z M 2.484375 0 "
           id="path2964" />
      </symbol>
    </g>
    <g
       id="g6861">
      <symbol
         overflow="visible"
         id="symbol2446">
        <path
           style="stroke:none;"
           d=""
           id="path9496" />
      </symbol>
      <symbol
         overflow="visible"
         id="symbol2427">
        <path
           style="stroke:none;"
           d="M 4.578125 -3.1875 C 4.578125 -3.984375 4.53125 -4.78125 4.1875 -5.515625 C 3.734375 -6.484375 2.90625 -6.640625 2.5 -6.640625 C 1.890625 -6.640625 1.171875 -6.375 0.75 -5.453125 C 0.4375 -4.765625 0.390625 -3.984375 0.390625 -3.1875 C 0.390625 -2.4375 0.421875 -1.546875 0.84375 -0.78125 C 1.265625 0.015625 2 0.21875 2.484375 0.21875 C 3.015625 0.21875 3.78125 0.015625 4.21875 -0.9375 C 4.53125 -1.625 4.578125 -2.40625 4.578125 -3.1875 Z M 2.484375 0 C 2.09375 0 1.5 -0.25 1.328125 -1.203125 C 1.21875 -1.796875 1.21875 -2.71875 1.21875 -3.3125 C 1.21875 -3.953125 1.21875 -4.609375 1.296875 -5.140625 C 1.484375 -6.328125 2.234375 -6.421875 2.484375 -6.421875 C 2.8125 -6.421875 3.46875 -6.234375 3.65625 -5.25 C 3.765625 -4.6875 3.765625 -3.9375 3.765625 -3.3125 C 3.765625 -2.5625 3.765625 -1.890625 3.65625 -1.25 C 3.5 -0.296875 2.9375 0 2.484375 0 Z M 2.484375 0 "
           id="path4552" />
      </symbol>
    </g>
  </defs>
  <title
     id="title2243">Subdiv boundary weighting</title>
  <polygon
     class="cls-1"
     points="184.9 233.14 128.47 265.71 72.05 298.29 72.05 233.14 72.05 167.98 128.47 200.56 184.9 233.14"
     id="polygon2245" />
  <circle
     class="cls-2"
     cx="72.07"
     cy="167.89"
     r="2.35"
     id="circle2247" />
  <circle
     class="cls-2"
     cx="71.75"
     cy="298.08"
     r="2.35"
     id="circle2249" />
  <circle
     class="cls-2"
     cx="72.07"
     cy="37.38"
     r="2.35"
     id="circle2251" />
  <circle
     class="cls-2"
     cx="185.15"
     cy="233.46"
     r="2.35"
     id="circle2253" />
  <circle
     class="cls-2"
     cx="185.15"
     cy="102"
     r="2.35"
     id="circle2255" />
  <polygon
     class="cls-1"
     points="184.9 102.45 128.47 135.03 72.05 167.61 72.05 102.45 72.05 37.29 128.47 69.87 184.9 102.45"
     id="polygon2271" />
  <rect
     class="cls-3"
     width="59.4"
     height="336.42"
     id="rect2275" />
  <path
     class="cls-4"
     d="M134.05,203.83a71.84,71.84,0,0,0-.41-71.94"
     id="path2277" />
  <g
     inkscape:label=""
     transform="matrix(2,0,0,2,-118.82829,155.49038)"
     id="g2314">
    <g
       id="g9973">
      <g
         style="fill:#000000;fill-opacity:1"
         id="g9567">
        <use
           xlink:href="#symbol1019"
           x="91.925003"
           y="81.962997"
           id="use6758"
           width="100%"
           height="100%" />
      </g>
    </g>
  </g>
  <g
     inkscape:label=""
     transform="matrix(2,0,0,2,-118.03578,-133.3791)"
     id="g2365">
    <g
       id="g8791">
      <g
         style="fill:#000000;fill-opacity:1"
         id="g5443">
        <use
           xlink:href="#symbol2340"
           x="91.925003"
           y="81.962997"
           id="use5451"
           width="100%"
           height="100%" />
      </g>
    </g>
  </g>
  <g
     inkscape:label=""
     transform="matrix(2,0,0,2,-100.20433,10.461257)"
     id="g2441">
    <g
       id="g6075">
      <g
         style="fill:#000000;fill-opacity:1"
         id="g837">
        <use
           xlink:href="#symbol4778"
           x="91.925003"
           y="81.962997"
           id="use5021"
           width="100%"
           height="100%" />
      </g>
      <g
         style="fill:#000000;fill-opacity:1"
         id="g9309">
        <use
           xlink:href="#symbol3105"
           x="99.120003"
           y="81.962997"
           id="use3189"
           width="100%"
           height="100%" />
      </g>
      <g
         style="fill:#000000;fill-opacity:1"
         id="g8800">
        <use
           xlink:href="#symbol7684"
           x="109.083"
           y="81.962997"
           id="use8174"
           width="100%"
           height="100%" />
      </g>
      <g
         style="fill:#000000;fill-opacity:1"
         id="g608">
        <use
           xlink:href="#symbol3653"
           x="114.064"
           y="81.962997"
           id="use488"
           width="100%"
           height="100%" />
      </g>
    </g>
  </g>
  <g
     inkscape:label=""
     transform="matrix(2,0,0,2,5.1806131,-55.316976)"
     id="g2542">
    <g
       id="g3408">
      <g
         style="fill:#000000;fill-opacity:1"
         id="g6923">
        <use
           xlink:href="#symbol9125"
           x="91.925003"
           y="81.962997"
           id="use2456"
           width="100%"
           height="100%" />
      </g>
    </g>
  </g>
  <g
     inkscape:label=""
     transform="matrix(2,0,0,2,5.5955954,76.635744)"
     id="g2636">
    <g
       id="g3772">
      <g
         style="fill:#000000;fill-opacity:1"
         id="g8516">
        <use
           xlink:href="#symbol2427"
           x="91.925003"
           y="81.962997"
           id="use5873"
           width="100%"
           height="100%" />
      </g>
    </g>
  </g>
</svg>
