<svg id="Layer_1" data-name="Layer 1" xmlns="http://www.w3.org/2000/svg" viewBox="0 0 265.5 259.43"><defs><style>.cls-1,.cls-5{fill:#b3b3b3;}.cls-1,.cls-2,.cls-5{stroke:#000;stroke-miterlimit:10;}.cls-1{stroke-width:0.5px;}.cls-2{fill:none;}.cls-3{fill:#a6a6a6;}.cls-4{fill:#666;}</style></defs><title>Subdiv vert face pointers</title><polyline class="cls-1" points="139.82 106.61 177.62 106.61 154.25 147.1 130.87 187.59 107.5 147.1 84.12 106.61 130.87 106.61 139.82 106.61"/><path d="M2.14,190.85,4,196.29a25.89,25.89,0,0,1,.78,2.49h.06c.22-.8.5-1.6.82-2.49l1.88-5.44H9.42l-3.8,9.69H3.94L.26,190.85Z"/><path d="M11.26,202.78V186.83h3.66v1.1h-2.3v13.75h2.3v1.1Z"/><path d="M24.84,193.89c0,4.43-1.64,6.87-4.52,6.87-2.54,0-4.26-2.38-4.3-6.68s1.88-6.77,4.52-6.77S24.84,189.75,24.84,193.89Zm-7.06.2c0,3.39,1,5.31,2.64,5.31,1.8,0,2.66-2.1,2.66-5.43s-.82-5.3-2.64-5.3C18.9,188.67,17.78,190.55,17.78,194.09Z"/><path d="M29.6,186.81v16H25.94v-1.1h2.3V187.91h-2.3v-1.1Z"/><path d="M236.4,190.85l1.9,5.44a25.89,25.89,0,0,1,.78,2.49h.06c.22-.8.5-1.6.82-2.49l1.88-5.44h1.84l-3.8,9.69H238.2l-3.68-9.69Z"/><path d="M245.52,202.78V186.83h3.66v1.1h-2.3v13.75h2.3v1.1Z"/><path d="M254.28,189.17h0L252,190.39l-.34-1.34,2.84-1.52H256v13h-1.7Z"/><path d="M263.86,186.81v16H260.2v-1.1h2.3V187.91h-2.3v-1.1Z"/><path d="M118.43,7.06l1.9,5.44a24.89,24.89,0,0,1,.78,2.48h.06c.22-.8.5-1.6.82-2.48l1.88-5.44h1.84l-3.8,9.68h-1.68l-3.68-9.68Z"/><path d="M127.55,19V3h3.66v1.1h-2.3V17.88h2.3V19Z"/><path d="M132.49,16.74V15.66l1.38-1.34c3.32-3.16,4.82-4.84,4.84-6.8A2.32,2.32,0,0,0,136.13,5a4.43,4.43,0,0,0-2.76,1.1l-.56-1.24a5.7,5.7,0,0,1,3.68-1.32,3.66,3.66,0,0,1,4,3.78c0,2.4-1.74,4.34-4.48,7l-1,1v0h5.84v1.46Z"/><path d="M145.89,3V19h-3.66v-1.1h2.3V4.12h-2.3V3Z"/><path d="M119.74,254.43v-8.35h-1.36v-1.33h1.36v-.47a4.56,4.56,0,0,1,1.12-3.38,3.37,3.37,0,0,1,2.36-.9,4.19,4.19,0,0,1,1.51.28l-.25,1.36a2.63,2.63,0,0,0-1.12-.22c-1.5,0-1.88,1.32-1.88,2.8v.53h2.34v1.33h-2.34v8.35Z"/><path d="M125.58,256.67v-16h3.66v1.1h-2.3v13.75h2.3v1.1Z"/><path d="M139.17,247.79c0,4.42-1.65,6.86-4.53,6.86-2.54,0-4.26-2.38-4.3-6.68s1.88-6.77,4.52-6.77S139.17,243.64,139.17,247.79Zm-7.07.2c0,3.38,1,5.3,2.64,5.3,1.8,0,2.66-2.1,2.66-5.42s-.82-5.31-2.64-5.31C133.22,242.56,132.1,244.44,132.1,248Z"/><path d="M143.92,240.7v16h-3.66v-1.1h2.3V241.8h-2.3v-1.1Z"/><path d="M224.72,69.52V61.18h-1.36V59.84h1.36v-.46A4.56,4.56,0,0,1,225.84,56a3.37,3.37,0,0,1,2.36-.9,4.19,4.19,0,0,1,1.51.28l-.25,1.36a2.63,2.63,0,0,0-1.12-.22c-1.5,0-1.88,1.32-1.88,2.8v.52h2.34v1.34h-2.34v8.34Z"/><path d="M230.56,71.76V55.82h3.66v1.1h-2.3V70.67h2.3v1.09Z"/><path d="M239.32,58.16h0L237,59.38,236.68,58l2.84-1.52H241v13h-1.7Z"/><path d="M248.9,55.8v16h-3.66V70.67h2.3V56.9h-2.3V55.8Z"/><path d="M12.06,69.53V61.18H10.7V59.84h1.36v-.46A4.56,4.56,0,0,1,13.18,56a3.37,3.37,0,0,1,2.36-.9,4.08,4.08,0,0,1,1.5.28l-.24,1.36a2.63,2.63,0,0,0-1.12-.22c-1.5,0-1.88,1.32-1.88,2.8v.52h2.34v1.34H13.8v8.35Z"/><path d="M17.9,71.77V55.82h3.66v1.1h-2.3V70.67h2.3v1.1Z"/><path d="M22.84,69.53V68.45l1.38-1.35c3.32-3.16,4.82-4.84,4.84-6.8a2.32,2.32,0,0,0-2.58-2.54,4.43,4.43,0,0,0-2.76,1.1l-.56-1.24a5.7,5.7,0,0,1,3.68-1.32,3.66,3.66,0,0,1,4,3.78c0,2.4-1.74,4.34-4.48,7l-1,1v0h5.84v1.46Z"/><path d="M36.24,55.8v16H32.58v-1.1h2.3V56.9h-2.3V55.8Z"/><circle class="cls-1" cx="130.87" cy="142.64" r="1.29"/><line class="cls-2" x1="130.86" y1="142.37" x2="213.34" y2="80.11"/><polygon points="212.74 87.46 212.82 80.5 206.1 78.67 219.81 75.23 212.74 87.46"/><polygon class="cls-3" points="213.26 85.56 218.76 76.02 213.32 80.12 213.26 85.56"/><polygon class="cls-4" points="208.07 78.7 218.76 76.02 213.32 80.12 208.07 78.7"/><line class="cls-2" x1="130.86" y1="142.37" x2="47.54" y2="79.06"/><polygon points="54.78 77.65 48.06 79.46 48.12 86.42 41.09 74.16 54.78 77.65"/><polygon class="cls-3" points="52.82 77.67 42.14 74.95 47.56 79.08 52.82 77.67"/><polygon class="cls-4" points="47.61 84.51 42.14 74.95 47.56 79.08 47.61 84.51"/><line class="cls-2" x1="130.69" y1="142.69" x2="130.69" y2="229.34"/><polygon points="125.19 224.43 130.69 228.69 136.2 224.43 130.69 237.45 125.19 224.43"/><polygon class="cls-3" points="126.39 225.99 130.69 236.13 130.69 229.32 126.39 225.99"/><polygon class="cls-4" points="134.99 225.99 130.69 236.13 130.69 229.32 134.99 225.99"/><polygon class="cls-5" points="130.18 23.41 177.88 106.04 225.59 188.67 130.18 188.67 34.77 188.67 82.47 106.04 130.18 23.41"/></svg>