<svg id="Layer_1" data-name="Layer 1" xmlns="http://www.w3.org/2000/svg" viewBox="0 0 703.33 270.65"><defs><style>.cls-1{fill:none;}.cls-1,.cls-2,.cls-3{stroke:#000;stroke-miterlimit:10;}.cls-3{fill:#fff;}</style></defs><title>Subdiv edge split</title><polygon class="cls-1" points="38.3 122.81 123.39 73.69 208.48 24.56 208.48 122.81 208.48 221.07 123.39 171.94 38.3 122.81"/><polygon class="cls-1" points="378.74 122.71 293.65 171.84 208.55 220.97 208.55 122.71 208.55 24.46 293.65 73.58 378.74 122.71"/><circle class="cls-2" cx="37.49" cy="122.61" r="2.35"/><circle class="cls-2" cx="208.54" cy="220.63" r="2.35"/><circle class="cls-2" cx="378.77" cy="122.34" r="2.35"/><circle class="cls-2" cx="208.54" cy="24.87" r="2.35"/><circle class="cls-3" cx="208.54" cy="123" r="2.35"/><path d="M196.61,14.72a5.88,5.88,0,0,0,2.88.82c2.26,0,3-1.44,2.94-2.52,0-1.82-1.66-2.6-3.36-2.6h-1V9.1h1c1.28,0,2.9-.66,2.9-2.2,0-1-.66-2-2.28-2a4.77,4.77,0,0,0-2.6.86l-.46-1.28a6.18,6.18,0,0,1,3.4-1c2.56,0,3.72,1.52,3.72,3.1a3.23,3.23,0,0,1-2.4,3.06v0a3.39,3.39,0,0,1,2.9,3.34c0,2.08-1.62,3.9-4.74,3.9a6.61,6.61,0,0,1-3.38-.88Z"/><path d="M205.53,17.54,211.11,3h1.36l-5.6,14.5Z"/><path d="M213.15,13.44A3.71,3.71,0,0,1,215.73,10l0-.06A3.22,3.22,0,0,1,213.65,7c0-2.06,1.74-3.46,4-3.46,2.52,0,3.78,1.58,3.78,3.2a3.3,3.3,0,0,1-2.14,3v.06a3.6,3.6,0,0,1,2.62,3.36c0,2.26-1.94,3.78-4.42,3.78C214.79,17,213.15,15.34,213.15,13.44Zm7-.08c0-1.58-1.1-2.34-2.86-2.84A2.82,2.82,0,0,0,215,13.2a2.4,2.4,0,0,0,2.6,2.48A2.35,2.35,0,0,0,220.15,13.36Zm-4.84-6.5c0,1.3,1,2,2.48,2.4a2.56,2.56,0,0,0,2-2.36,2,2,0,0,0-2.2-2.12A2.07,2.07,0,0,0,215.31,6.86Z"/><path d="M196.61,238.79a5.88,5.88,0,0,0,2.88.82c2.26,0,3-1.44,2.94-2.52,0-1.82-1.66-2.6-3.36-2.6h-1v-1.32h1c1.28,0,2.9-.66,2.9-2.2,0-1.05-.66-2-2.28-2a4.7,4.7,0,0,0-2.6.87l-.46-1.29a6.18,6.18,0,0,1,3.4-1c2.56,0,3.72,1.53,3.72,3.11a3.23,3.23,0,0,1-2.4,3.06v0a3.39,3.39,0,0,1,2.9,3.34c0,2.08-1.62,3.9-4.74,3.9a6.61,6.61,0,0,1-3.38-.88Z"/><path d="M205.53,241.61l5.58-14.51h1.36l-5.6,14.51Z"/><path d="M213.15,237.51a3.71,3.71,0,0,1,2.58-3.48l0-.06a3.22,3.22,0,0,1-2.06-2.92c0-2.06,1.74-3.47,4-3.47,2.52,0,3.78,1.59,3.78,3.21a3.3,3.3,0,0,1-2.14,3v.06a3.6,3.6,0,0,1,2.62,3.36c0,2.26-1.94,3.78-4.42,3.78C214.79,241,213.15,239.41,213.15,237.51Zm7-.08c0-1.58-1.1-2.34-2.86-2.84a2.82,2.82,0,0,0-2.34,2.68,2.4,2.4,0,0,0,2.6,2.48A2.35,2.35,0,0,0,220.15,237.43Zm-4.84-6.5c0,1.3,1,2,2.48,2.4a2.56,2.56,0,0,0,2-2.36,2,2,0,0,0-2.2-2.13A2.07,2.07,0,0,0,215.31,230.93Z"/><path d="M4.72,116.65h0l-2.26,1.22-.34-1.34L4.92,115h1.5v13H4.72Z"/><path d="M10.24,128.81l5.58-14.51h1.36l-5.6,14.51Z"/><path d="M17.86,124.71a3.71,3.71,0,0,1,2.58-3.48l0-.06a3.22,3.22,0,0,1-2.06-2.92c0-2.06,1.74-3.46,4-3.46,2.52,0,3.78,1.58,3.78,3.2A3.3,3.3,0,0,1,24,121v.06a3.6,3.6,0,0,1,2.62,3.36c0,2.26-1.94,3.78-4.42,3.78C19.5,128.23,17.86,126.61,17.86,124.71Zm7-.08c0-1.58-1.1-2.34-2.86-2.84a2.82,2.82,0,0,0-2.34,2.68,2.4,2.4,0,0,0,2.6,2.48A2.35,2.35,0,0,0,24.86,124.63ZM20,118.13c0,1.3,1,2,2.48,2.4a2.56,2.56,0,0,0,2-2.36,2,2,0,0,0-2.2-2.13A2.07,2.07,0,0,0,20,118.13Z"/><path d="M389.41,116.64h0l-2.26,1.22-.34-1.34,2.84-1.52h1.5v13h-1.7Z"/><path d="M394.93,128.81l5.58-14.51h1.36l-5.6,14.51Z"/><path d="M402.55,124.71a3.71,3.71,0,0,1,2.58-3.48l0-.06a3.22,3.22,0,0,1-2.06-2.92c0-2.07,1.74-3.47,4-3.47,2.52,0,3.78,1.58,3.78,3.2a3.31,3.31,0,0,1-2.14,3v0a3.62,3.62,0,0,1,2.62,3.37c0,2.26-1.94,3.78-4.42,3.78C404.19,128.23,402.55,126.61,402.55,124.71Zm7-.08c0-1.58-1.1-2.34-2.86-2.84a2.82,2.82,0,0,0-2.34,2.68A2.4,2.4,0,0,0,407,127,2.35,2.35,0,0,0,409.55,124.63Zm-4.84-6.51c0,1.3,1,2,2.48,2.41a2.57,2.57,0,0,0,2-2.36A2,2,0,0,0,407,116,2.07,2.07,0,0,0,404.71,118.12Z"/><path d="M48.06,251.77A13.19,13.19,0,0,0,45.54,260a13.48,13.48,0,0,0,2.52,8.12H46.68A12.93,12.93,0,0,1,44.06,260a13.2,13.2,0,0,1,2.62-8.18Z"/><path d="M55.28,265.65l-.14-1.22h-.06a3.61,3.61,0,0,1-3,1.44,2.76,2.76,0,0,1-3-2.78c0-2.34,2.08-3.62,5.82-3.6v-.2a2,2,0,0,0-2.2-2.24,4.82,4.82,0,0,0-2.52.72l-.4-1.16a6,6,0,0,1,3.18-.86c3,0,3.68,2,3.68,4v3.62a13.63,13.63,0,0,0,.16,2.32ZM55,260.71c-1.92,0-4.1.3-4.1,2.18a1.56,1.56,0,0,0,1.66,1.68A2.41,2.41,0,0,0,54.92,263a1.84,1.84,0,0,0,.1-.56Z"/><path d="M58.5,268.07A13.54,13.54,0,0,0,61,259.89a13.26,13.26,0,0,0-2.52-8.12h1.36a12.74,12.74,0,0,1,2.62,8.14,13,13,0,0,1-2.62,8.16Z"/><polygon class="cls-1" points="518.96 122.81 604.05 73.69 689.14 24.56 689.14 122.81 689.14 221.07 604.05 171.94 518.96 122.81"/><circle class="cls-2" cx="518.15" cy="122.61" r="2.35"/><circle class="cls-2" cx="689.2" cy="220.63" r="2.35"/><circle class="cls-2" cx="689.2" cy="24.87" r="2.35"/><circle class="cls-3" cx="689.2" cy="123" r="2.35"/><path d="M680.67,5.38h0L678.37,6.6,678,5.26l2.84-1.52h1.5v13h-1.7Z"/><path d="M686.19,17.54,691.77,3h1.36l-5.6,14.5Z"/><path d="M694,16.74V15.66l1.38-1.34c3.32-3.16,4.82-4.84,4.84-6.8A2.32,2.32,0,0,0,697.61,5a4.43,4.43,0,0,0-2.76,1.1l-.56-1.24A5.7,5.7,0,0,1,698,3.52a3.66,3.66,0,0,1,4,3.78c0,2.4-1.74,4.34-4.48,7l-1,1v0h5.84v1.46Z"/><path d="M680.67,229.45h0l-2.26,1.22-.34-1.34,2.84-1.53h1.5v13h-1.7Z"/><path d="M686.19,241.61l5.58-14.51h1.36l-5.6,14.51Z"/><path d="M694,240.81v-1.08l1.38-1.34c3.32-3.16,4.82-4.84,4.84-6.8a2.33,2.33,0,0,0-2.58-2.55,4.43,4.43,0,0,0-2.76,1.11l-.56-1.24a5.66,5.66,0,0,1,3.68-1.33,3.66,3.66,0,0,1,4,3.79c0,2.4-1.74,4.34-4.48,7l-1,1v0h5.84v1.46Z"/><path d="M528.72,245.77A13.19,13.19,0,0,0,526.2,254a13.48,13.48,0,0,0,2.52,8.12h-1.38a12.93,12.93,0,0,1-2.62-8.12,13.2,13.2,0,0,1,2.62-8.18Z"/><path d="M530.5,259.65c0-.66.08-1.64.08-2.5v-11.7h1.74v6.08h0a3.61,3.61,0,0,1,3.3-1.78c2.4,0,4.1,2,4.08,4.94,0,3.46-2.18,5.18-4.34,5.18a3.45,3.45,0,0,1-3.24-1.82h-.06l-.08,1.6Zm1.82-3.88a3.3,3.3,0,0,0,.08.64,2.72,2.72,0,0,0,2.64,2.06c1.84,0,2.94-1.5,2.94-3.72,0-1.94-1-3.6-2.88-3.6a2.81,2.81,0,0,0-2.68,2.16,3.47,3.47,0,0,0-.1.72Z"/><path d="M540.84,262.07a13.54,13.54,0,0,0,2.52-8.18,13.26,13.26,0,0,0-2.52-8.12h1.36a12.74,12.74,0,0,1,2.62,8.14,13,13,0,0,1-2.62,8.16Z"/></svg>