<?xml version="1.0" encoding="UTF-8" standalone="no"?>
<svg
   xmlns:dc="http://purl.org/dc/elements/1.1/"
   xmlns:cc="http://creativecommons.org/ns#"
   xmlns:rdf="http://www.w3.org/1999/02/22-rdf-syntax-ns#"
   xmlns:svg="http://www.w3.org/2000/svg"
   xmlns="http://www.w3.org/2000/svg"
   xmlns:xlink="http://www.w3.org/1999/xlink"
   xmlns:sodipodi="http://sodipodi.sourceforge.net/DTD/sodipodi-0.dtd"
   xmlns:inkscape="http://www.inkscape.org/namespaces/inkscape"
   id="Layer_1"
   data-name="Layer 1"
   viewBox="0 0 384.52 248.15"
   version="1.1"
   sodipodi:docname="Triarea.svg"
   inkscape:version="1.0.1 (3bc2e813f5, 2020-09-07)">
  <metadata
     id="metadata130">
    <rdf:RDF>
      <cc:Work
         rdf:about="">
        <dc:format>image/svg+xml</dc:format>
        <dc:type
           rdf:resource="http://purl.org/dc/dcmitype/StillImage" />
      </cc:Work>
    </rdf:RDF>
  </metadata>
  <sodipodi:namedview
     pagecolor="#ffffff"
     bordercolor="#666666"
     borderopacity="1"
     objecttolerance="10"
     gridtolerance="10"
     guidetolerance="10"
     inkscape:pageopacity="0"
     inkscape:pageshadow="2"
     inkscape:window-width="1920"
     inkscape:window-height="1017"
     id="namedview128"
     showgrid="false"
     inkscape:zoom="1.9374805"
     inkscape:cx="192.26"
     inkscape:cy="124.075"
     inkscape:window-x="1912"
     inkscape:window-y="-8"
     inkscape:window-maximized="1"
     inkscape:current-layer="Layer_1"
     inkscape:document-rotation="0" />
  <defs
     id="defs73">
    <style
       id="style71">.cls-1,.cls-2{fill:#999;}.cls-1,.cls-2,.cls-3,.cls-4,.cls-5{stroke:#000;stroke-miterlimit:10;}.cls-1{fill-rule:evenodd;}.cls-4,.cls-5{fill:none;}.cls-4{stroke-dasharray:4;}.cls-6{fill:#a6a6a6;}.cls-7{fill:#666;}</style>
    <g
       id="g7049">
      <symbol
         overflow="visible"
         id="symbol374">
        <path
           style="stroke:none;"
           d=""
           id="path240" />
      </symbol>
      <symbol
         overflow="visible"
         id="symbol4586">
        <path
           style="stroke:none;"
           d="M 5.390625 -3.609375 C 5.390625 -4.515625 4.71875 -4.515625 4.71875 -4.515625 C 4.3125 -4.515625 3.953125 -4.09375 3.953125 -3.765625 C 3.953125 -3.484375 4.171875 -3.359375 4.25 -3.3125 C 4.671875 -3.0625 4.75 -2.875 4.75 -2.6875 C 4.75 -2.46875 4.171875 -0.28125 3.015625 -0.28125 C 2.296875 -0.28125 2.296875 -0.875 2.296875 -1.0625 C 2.296875 -1.640625 2.578125 -2.359375 2.890625 -3.15625 C 2.96875 -3.359375 3 -3.453125 3 -3.609375 C 3 -4.1875 2.421875 -4.5 1.875 -4.5 C 0.8125 -4.5 0.3125 -3.15625 0.3125 -2.953125 C 0.3125 -2.8125 0.46875 -2.8125 0.5625 -2.8125 C 0.671875 -2.8125 0.75 -2.8125 0.78125 -2.9375 C 1.109375 -4.015625 1.640625 -4.140625 1.8125 -4.140625 C 1.890625 -4.140625 1.984375 -4.140625 1.984375 -3.9375 C 1.984375 -3.703125 1.859375 -3.421875 1.828125 -3.34375 C 1.375 -2.1875 1.21875 -1.734375 1.21875 -1.25 C 1.21875 -0.203125 2.078125 0.078125 2.953125 0.078125 C 4.671875 0.078125 5.390625 -2.75 5.390625 -3.609375 Z M 5.390625 -3.609375 "
           id="path9841" />
      </symbol>
      <symbol
         overflow="visible"
         id="symbol2327">
        <path
           style="stroke:none;"
           d=""
           id="path1931" />
      </symbol>
      <symbol
         overflow="visible"
         id="symbol9782">
        <path
           style="stroke:none;"
           d="M 2.328125 -4.4375 C 2.328125 -4.625 2.328125 -4.625 2.125 -4.625 C 1.671875 -4.1875 1.046875 -4.1875 0.765625 -4.1875 L 0.765625 -3.9375 C 0.921875 -3.9375 1.390625 -3.9375 1.765625 -4.125 L 1.765625 -0.578125 C 1.765625 -0.34375 1.765625 -0.25 1.078125 -0.25 L 0.8125 -0.25 L 0.8125 0 C 0.9375 0 1.796875 -0.03125 2.046875 -0.03125 C 2.265625 -0.03125 3.140625 0 3.296875 0 L 3.296875 -0.25 L 3.03125 -0.25 C 2.328125 -0.25 2.328125 -0.34375 2.328125 -0.578125 Z M 2.328125 -4.4375 "
           id="path1380" />
      </symbol>
    </g>
    <g
       id="g4235">
      <symbol
         overflow="visible"
         id="symbol317">
        <path
           style="stroke:none;"
           d=""
           id="path8827" />
      </symbol>
      <symbol
         overflow="visible"
         id="symbol7653">
        <path
           style="stroke:none;"
           d="M 5.390625 -3.609375 C 5.390625 -4.515625 4.71875 -4.515625 4.71875 -4.515625 C 4.3125 -4.515625 3.953125 -4.09375 3.953125 -3.765625 C 3.953125 -3.484375 4.171875 -3.359375 4.25 -3.3125 C 4.671875 -3.0625 4.75 -2.875 4.75 -2.6875 C 4.75 -2.46875 4.171875 -0.28125 3.015625 -0.28125 C 2.296875 -0.28125 2.296875 -0.875 2.296875 -1.0625 C 2.296875 -1.640625 2.578125 -2.359375 2.890625 -3.15625 C 2.96875 -3.359375 3 -3.453125 3 -3.609375 C 3 -4.1875 2.421875 -4.5 1.875 -4.5 C 0.8125 -4.5 0.3125 -3.15625 0.3125 -2.953125 C 0.3125 -2.8125 0.46875 -2.8125 0.5625 -2.8125 C 0.671875 -2.8125 0.75 -2.8125 0.78125 -2.9375 C 1.109375 -4.015625 1.640625 -4.140625 1.8125 -4.140625 C 1.890625 -4.140625 1.984375 -4.140625 1.984375 -3.9375 C 1.984375 -3.703125 1.859375 -3.421875 1.828125 -3.34375 C 1.375 -2.1875 1.21875 -1.734375 1.21875 -1.25 C 1.21875 -0.203125 2.078125 0.078125 2.953125 0.078125 C 4.671875 0.078125 5.390625 -2.75 5.390625 -3.609375 Z M 5.390625 -3.609375 "
           id="path7161" />
      </symbol>
      <symbol
         overflow="visible"
         id="symbol2880">
        <path
           style="stroke:none;"
           d=""
           id="path7214" />
      </symbol>
      <symbol
         overflow="visible"
         id="symbol7352">
        <path
           style="stroke:none;"
           d="M 3.515625 -1.265625 L 3.28125 -1.265625 C 3.265625 -1.109375 3.1875 -0.703125 3.09375 -0.640625 C 3.046875 -0.59375 2.515625 -0.59375 2.40625 -0.59375 L 1.125 -0.59375 C 1.859375 -1.234375 2.109375 -1.4375 2.515625 -1.765625 C 3.03125 -2.171875 3.515625 -2.609375 3.515625 -3.265625 C 3.515625 -4.109375 2.78125 -4.625 1.890625 -4.625 C 1.03125 -4.625 0.4375 -4.015625 0.4375 -3.375 C 0.4375 -3.03125 0.734375 -2.984375 0.8125 -2.984375 C 0.96875 -2.984375 1.171875 -3.109375 1.171875 -3.359375 C 1.171875 -3.484375 1.125 -3.734375 0.765625 -3.734375 C 0.984375 -4.21875 1.453125 -4.375 1.78125 -4.375 C 2.484375 -4.375 2.84375 -3.828125 2.84375 -3.265625 C 2.84375 -2.65625 2.40625 -2.1875 2.1875 -1.9375 L 0.515625 -0.265625 C 0.4375 -0.203125 0.4375 -0.1875 0.4375 0 L 3.3125 0 Z M 3.515625 -1.265625 "
           id="path4920" />
      </symbol>
    </g>
    <g
       id="g4219">
      <symbol
         overflow="visible"
         id="symbol1297">
        <path
           style="stroke:none;"
           d=""
           id="path2886" />
      </symbol>
      <symbol
         overflow="visible"
         id="symbol9894">
        <path
           style="stroke:none;"
           d="M 0.515625 1.28125 C 0.484375 1.421875 0.46875 1.4375 0.453125 1.453125 C 0.40625 1.46875 0.296875 1.46875 0.203125 1.46875 C 0.03125 1.46875 -0.15625 1.46875 -0.15625 1.75 C -0.15625 1.859375 -0.0625 1.9375 0.046875 1.9375 C 0.328125 1.9375 0.65625 1.90625 0.953125 1.90625 C 1.3125 1.90625 1.6875 1.9375 2.03125 1.9375 C 2.09375 1.9375 2.28125 1.9375 2.28125 1.640625 C 2.28125 1.46875 2.125 1.46875 2.03125 1.46875 C 1.890625 1.46875 1.71875 1.46875 1.59375 1.453125 L 2.03125 -0.28125 C 2.171875 -0.140625 2.5 0.078125 3.03125 0.078125 C 4.765625 0.078125 5.84375 -1.5 5.84375 -2.859375 C 5.84375 -4.09375 4.921875 -4.5 4.09375 -4.5 C 3.390625 -4.5 2.875 -4.109375 2.71875 -3.96875 C 2.328125 -4.5 1.671875 -4.5 1.5625 -4.5 C 1.203125 -4.5 0.90625 -4.296875 0.703125 -3.9375 C 0.453125 -3.53125 0.3125 -3 0.3125 -2.953125 C 0.3125 -2.8125 0.46875 -2.8125 0.5625 -2.8125 C 0.671875 -2.8125 0.703125 -2.8125 0.75 -2.859375 C 0.78125 -2.875 0.78125 -2.90625 0.84375 -3.15625 C 1.03125 -3.953125 1.265625 -4.140625 1.515625 -4.140625 C 1.625 -4.140625 1.75 -4.109375 1.75 -3.78125 C 1.75 -3.625 1.71875 -3.484375 1.6875 -3.34375 Z M 2.8125 -3.5 C 3.09375 -3.84375 3.5625 -4.140625 4.046875 -4.140625 C 4.671875 -4.140625 4.71875 -3.609375 4.71875 -3.390625 C 4.71875 -2.875 4.375 -1.640625 4.21875 -1.25 C 3.90625 -0.53125 3.421875 -0.28125 3.015625 -0.28125 C 2.421875 -0.28125 2.1875 -0.75 2.1875 -0.859375 L 2.203125 -1 Z M 2.8125 -3.5 "
           id="path294" />
      </symbol>
      <symbol
         overflow="visible"
         id="symbol7449">
        <path
           style="stroke:none;"
           d=""
           id="path6211" />
      </symbol>
      <symbol
         overflow="visible"
         id="symbol3734">
        <path
           style="stroke:none;"
           d="M 3.515625 -1.265625 L 3.28125 -1.265625 C 3.265625 -1.109375 3.1875 -0.703125 3.09375 -0.640625 C 3.046875 -0.59375 2.515625 -0.59375 2.40625 -0.59375 L 1.125 -0.59375 C 1.859375 -1.234375 2.109375 -1.4375 2.515625 -1.765625 C 3.03125 -2.171875 3.515625 -2.609375 3.515625 -3.265625 C 3.515625 -4.109375 2.78125 -4.625 1.890625 -4.625 C 1.03125 -4.625 0.4375 -4.015625 0.4375 -3.375 C 0.4375 -3.03125 0.734375 -2.984375 0.8125 -2.984375 C 0.96875 -2.984375 1.171875 -3.109375 1.171875 -3.359375 C 1.171875 -3.484375 1.125 -3.734375 0.765625 -3.734375 C 0.984375 -4.21875 1.453125 -4.375 1.78125 -4.375 C 2.484375 -4.375 2.84375 -3.828125 2.84375 -3.265625 C 2.84375 -2.65625 2.40625 -2.1875 2.1875 -1.9375 L 0.515625 -0.265625 C 0.4375 -0.203125 0.4375 -0.1875 0.4375 0 L 3.3125 0 Z M 3.515625 -1.265625 "
           id="path2239" />
      </symbol>
    </g>
    <g
       id="g8573">
      <symbol
         overflow="visible"
         id="symbol3494">
        <path
           style="stroke:none;"
           d=""
           id="path1696" />
      </symbol>
      <symbol
         overflow="visible"
         id="symbol56">
        <path
           style="stroke:none;"
           d="M 0.515625 1.28125 C 0.484375 1.421875 0.46875 1.4375 0.453125 1.453125 C 0.40625 1.46875 0.296875 1.46875 0.203125 1.46875 C 0.03125 1.46875 -0.15625 1.46875 -0.15625 1.75 C -0.15625 1.859375 -0.0625 1.9375 0.046875 1.9375 C 0.328125 1.9375 0.65625 1.90625 0.953125 1.90625 C 1.3125 1.90625 1.6875 1.9375 2.03125 1.9375 C 2.09375 1.9375 2.28125 1.9375 2.28125 1.640625 C 2.28125 1.46875 2.125 1.46875 2.03125 1.46875 C 1.890625 1.46875 1.71875 1.46875 1.59375 1.453125 L 2.03125 -0.28125 C 2.171875 -0.140625 2.5 0.078125 3.03125 0.078125 C 4.765625 0.078125 5.84375 -1.5 5.84375 -2.859375 C 5.84375 -4.09375 4.921875 -4.5 4.09375 -4.5 C 3.390625 -4.5 2.875 -4.109375 2.71875 -3.96875 C 2.328125 -4.5 1.671875 -4.5 1.5625 -4.5 C 1.203125 -4.5 0.90625 -4.296875 0.703125 -3.9375 C 0.453125 -3.53125 0.3125 -3 0.3125 -2.953125 C 0.3125 -2.8125 0.46875 -2.8125 0.5625 -2.8125 C 0.671875 -2.8125 0.703125 -2.8125 0.75 -2.859375 C 0.78125 -2.875 0.78125 -2.90625 0.84375 -3.15625 C 1.03125 -3.953125 1.265625 -4.140625 1.515625 -4.140625 C 1.625 -4.140625 1.75 -4.109375 1.75 -3.78125 C 1.75 -3.625 1.71875 -3.484375 1.6875 -3.34375 Z M 2.8125 -3.5 C 3.09375 -3.84375 3.5625 -4.140625 4.046875 -4.140625 C 4.671875 -4.140625 4.71875 -3.609375 4.71875 -3.390625 C 4.71875 -2.875 4.375 -1.640625 4.21875 -1.25 C 3.90625 -0.53125 3.421875 -0.28125 3.015625 -0.28125 C 2.421875 -0.28125 2.1875 -0.75 2.1875 -0.859375 L 2.203125 -1 Z M 2.8125 -3.5 "
           id="path5833" />
      </symbol>
      <symbol
         overflow="visible"
         id="symbol7065">
        <path
           style="stroke:none;"
           d=""
           id="path4373" />
      </symbol>
      <symbol
         overflow="visible"
         id="symbol232">
        <path
           style="stroke:none;"
           d="M 2.328125 -4.4375 C 2.328125 -4.625 2.328125 -4.625 2.125 -4.625 C 1.671875 -4.1875 1.046875 -4.1875 0.765625 -4.1875 L 0.765625 -3.9375 C 0.921875 -3.9375 1.390625 -3.9375 1.765625 -4.125 L 1.765625 -0.578125 C 1.765625 -0.34375 1.765625 -0.25 1.078125 -0.25 L 0.8125 -0.25 L 0.8125 0 C 0.9375 0 1.796875 -0.03125 2.046875 -0.03125 C 2.265625 -0.03125 3.140625 0 3.296875 0 L 3.296875 -0.25 L 3.03125 -0.25 C 2.328125 -0.25 2.328125 -0.34375 2.328125 -0.578125 Z M 2.328125 -4.4375 "
           id="path6894" />
      </symbol>
    </g>
    <g
       id="g9304">
      <symbol
         overflow="visible"
         id="symbol1619">
        <path
           style="stroke:none;"
           d=""
           id="path7633" />
      </symbol>
      <symbol
         overflow="visible"
         id="symbol9922">
        <path
           style="stroke:none;"
           d="M 0.515625 1.28125 C 0.484375 1.421875 0.46875 1.4375 0.453125 1.453125 C 0.40625 1.46875 0.296875 1.46875 0.203125 1.46875 C 0.03125 1.46875 -0.15625 1.46875 -0.15625 1.75 C -0.15625 1.859375 -0.0625 1.9375 0.046875 1.9375 C 0.328125 1.9375 0.65625 1.90625 0.953125 1.90625 C 1.3125 1.90625 1.6875 1.9375 2.03125 1.9375 C 2.09375 1.9375 2.28125 1.9375 2.28125 1.640625 C 2.28125 1.46875 2.125 1.46875 2.03125 1.46875 C 1.890625 1.46875 1.71875 1.46875 1.59375 1.453125 L 2.03125 -0.28125 C 2.171875 -0.140625 2.5 0.078125 3.03125 0.078125 C 4.765625 0.078125 5.84375 -1.5 5.84375 -2.859375 C 5.84375 -4.09375 4.921875 -4.5 4.09375 -4.5 C 3.390625 -4.5 2.875 -4.109375 2.71875 -3.96875 C 2.328125 -4.5 1.671875 -4.5 1.5625 -4.5 C 1.203125 -4.5 0.90625 -4.296875 0.703125 -3.9375 C 0.453125 -3.53125 0.3125 -3 0.3125 -2.953125 C 0.3125 -2.8125 0.46875 -2.8125 0.5625 -2.8125 C 0.671875 -2.8125 0.703125 -2.8125 0.75 -2.859375 C 0.78125 -2.875 0.78125 -2.90625 0.84375 -3.15625 C 1.03125 -3.953125 1.265625 -4.140625 1.515625 -4.140625 C 1.625 -4.140625 1.75 -4.109375 1.75 -3.78125 C 1.75 -3.625 1.71875 -3.484375 1.6875 -3.34375 Z M 2.8125 -3.5 C 3.09375 -3.84375 3.5625 -4.140625 4.046875 -4.140625 C 4.671875 -4.140625 4.71875 -3.609375 4.71875 -3.390625 C 4.71875 -2.875 4.375 -1.640625 4.21875 -1.25 C 3.90625 -0.53125 3.421875 -0.28125 3.015625 -0.28125 C 2.421875 -0.28125 2.1875 -0.75 2.1875 -0.859375 L 2.203125 -1 Z M 2.8125 -3.5 "
           id="path6998" />
      </symbol>
      <symbol
         overflow="visible"
         id="symbol4801">
        <path
           style="stroke:none;"
           d=""
           id="path3489" />
      </symbol>
      <symbol
         overflow="visible"
         id="symbol9488">
        <path
           style="stroke:none;"
           d="M 3.59375 -2.21875 C 3.59375 -2.984375 3.5 -3.546875 3.1875 -4.03125 C 2.96875 -4.34375 2.53125 -4.625 1.984375 -4.625 C 0.359375 -4.625 0.359375 -2.71875 0.359375 -2.21875 C 0.359375 -1.71875 0.359375 0.140625 1.984375 0.140625 C 3.59375 0.140625 3.59375 -1.71875 3.59375 -2.21875 Z M 1.984375 -0.0625 C 1.65625 -0.0625 1.234375 -0.25 1.09375 -0.8125 C 1 -1.21875 1 -1.796875 1 -2.3125 C 1 -2.828125 1 -3.359375 1.09375 -3.734375 C 1.25 -4.28125 1.6875 -4.4375 1.984375 -4.4375 C 2.359375 -4.4375 2.71875 -4.203125 2.84375 -3.796875 C 2.953125 -3.421875 2.96875 -2.921875 2.96875 -2.3125 C 2.96875 -1.796875 2.96875 -1.28125 2.875 -0.84375 C 2.734375 -0.203125 2.265625 -0.0625 1.984375 -0.0625 Z M 1.984375 -0.0625 "
           id="path5907" />
      </symbol>
    </g>
  </defs>
  <title
     id="title75">Tri area</title>
  <polyline
     class="cls-1"
     points="132.31 25.58 24.14 222.54 275.22 222.98 132.25 24.98"
     id="polyline77" />
  <line
     class="cls-2"
     x1="132.53"
     y1="25.18"
     x2="132.31"
     y2="25.58"
     id="line79" />
  <circle
     class="cls-3"
     cx="275.51"
     cy="222.96"
     r="2.35"
     id="circle81" />
  <circle
     class="cls-3"
     cx="132.37"
     cy="25.1"
     r="2.35"
     id="circle83" />
  <line
     class="cls-4"
     x1="275.69"
     y1="222.6"
     x2="384.08"
     y2="25.24"
     id="line85" />
  <line
     class="cls-5"
     x1="267.58"
     y1="222.59"
     x2="24.13"
     y2="222.13"
     id="line87" />
  <polygon
     points="262.68 217.08 266.93 222.59 262.66 228.08 275.69 222.6 262.68 217.08"
     id="polygon89" />
  <polygon
     class="cls-6"
     points="264.24 218.28 274.38 222.6 267.56 222.59 264.24 218.28"
     id="polygon91" />
  <polygon
     class="cls-7"
     points="264.22 226.88 274.38 222.6 267.56 222.59 264.22 226.88"
     id="polygon93" />
  <line
     class="cls-4"
     x1="132.68"
     y1="24.98"
     x2="384.24"
     y2="25.46"
     id="line95" />
  <line
     class="cls-5"
     x1="23.8"
     y1="222.11"
     x2="128.55"
     y2="32.41"
     id="line105" />
  <polygon
     points="131 39.37 128.24 32.98 121.36 34.05 132.47 25.31 131 39.37"
     id="polygon107" />
  <polygon
     class="cls-6"
     points="130.7 37.42 131.84 26.46 128.54 32.42 130.7 37.42"
     id="polygon109" />
  <polygon
     class="cls-7"
     points="123.17 33.27 131.84 26.46 128.54 32.42 123.17 33.27"
     id="polygon111" />
  <circle
     class="cls-3"
     cx="23.19"
     cy="222.31"
     r="2.35"
     id="circle113" />
  <g
     inkscape:label=""
     transform="matrix(2.5,0,0,2.5,-93.523654,34.22679)"
     id="g176">
    <g
       id="g4126">
      <g
         style="fill:#000000;fill-opacity:1"
         id="g9235">
        <use
           xlink:href="#symbol4586"
           x="91.925003"
           y="81.962997"
           id="use1298"
           width="100%"
           height="100%" />
      </g>
      <g
         style="fill:#000000;fill-opacity:1"
         id="g5704">
        <use
           xlink:href="#symbol9782"
           x="97.570999"
           y="83.457001"
           id="use8446"
           width="100%"
           height="100%" />
      </g>
    </g>
  </g>
  <g
     inkscape:label=""
     transform="matrix(2.5,0,0,2.5,-180.75034,-79.322744)"
     id="g253">
    <g
       id="g9338">
      <g
         style="fill:#000000;fill-opacity:1"
         id="g5789">
        <use
           xlink:href="#symbol7653"
           x="91.925003"
           y="81.962997"
           id="use8972"
           width="100%"
           height="100%" />
      </g>
      <g
         style="fill:#000000;fill-opacity:1"
         id="g4713">
        <use
           xlink:href="#symbol7352"
           x="97.570999"
           y="83.457001"
           id="use8159"
           width="100%"
           height="100%" />
      </g>
    </g>
  </g>
  <g
     inkscape:label=""
     transform="matrix(2.5,0,0,2.5,-107.45928,-188.7432)"
     id="g346">
    <g
       id="g1892">
      <g
         style="fill:#000000;fill-opacity:1"
         id="g7013">
        <use
           xlink:href="#symbol9894"
           x="91.925003"
           y="81.962997"
           id="use7160"
           width="100%"
           height="100%" />
      </g>
      <g
         style="fill:#000000;fill-opacity:1"
         id="g4407">
        <use
           xlink:href="#symbol3734"
           x="97.912003"
           y="83.457001"
           id="use3500"
           width="100%"
           height="100%" />
      </g>
    </g>
  </g>
  <g
     inkscape:label=""
     transform="matrix(2.5,0,0,2.5,52.026199,29.581578)"
     id="g453">
    <g
       id="g7996">
      <g
         style="fill:#000000;fill-opacity:1"
         id="g1531">
        <use
           xlink:href="#symbol56"
           x="91.925003"
           y="81.962997"
           id="use3777"
           width="100%"
           height="100%" />
      </g>
      <g
         style="fill:#000000;fill-opacity:1"
         id="g6896">
        <use
           xlink:href="#symbol232"
           x="97.912003"
           y="83.457001"
           id="use7036"
           width="100%"
           height="100%" />
      </g>
    </g>
  </g>
  <g
     inkscape:label=""
     transform="matrix(2.5,0,0,2.5,-227.20242,30.613845)"
     id="g575">
    <g
       id="g8096">
      <g
         style="fill:#000000;fill-opacity:1"
         id="g5988">
        <use
           xlink:href="#symbol9922"
           x="91.925003"
           y="81.962997"
           id="use2561"
           width="100%"
           height="100%" />
      </g>
      <g
         style="fill:#000000;fill-opacity:1"
         id="g4128">
        <use
           xlink:href="#symbol9488"
           x="97.912003"
           y="83.457001"
           id="use5399"
           width="100%"
           height="100%" />
      </g>
    </g>
  </g>
</svg>
