<?xml version="1.0" encoding="UTF-8" standalone="no"?>
<!-- Created with Inkscape (http://www.inkscape.org/) -->

<svg
   width="23.408993mm"
   height="6.7994108mm"
   viewBox="0 0 23.408993 6.7994109"
   version="1.1"
   id="svg5"
   xml:space="preserve"
   inkscape:version="1.2.2 (732a01da63, 2022-12-09)"
   sodipodi:docname="sign.svg"
   xmlns:inkscape="http://www.inkscape.org/namespaces/inkscape"
   xmlns:sodipodi="http://sodipodi.sourceforge.net/DTD/sodipodi-0.dtd"
   xmlns="http://www.w3.org/2000/svg"
   xmlns:svg="http://www.w3.org/2000/svg"><sodipodi:namedview
     id="namedview7"
     pagecolor="#ffffff"
     bordercolor="#666666"
     borderopacity="1.0"
     inkscape:showpageshadow="2"
     inkscape:pageopacity="0.0"
     inkscape:pagecheckerboard="0"
     inkscape:deskcolor="#d1d1d1"
     inkscape:document-units="mm"
     showgrid="false"
     inkscape:zoom="11.313709"
     inkscape:cx="43.84062"
     inkscape:cy="20.32932"
     inkscape:window-width="2560"
     inkscape:window-height="1494"
     inkscape:window-x="-11"
     inkscape:window-y="-11"
     inkscape:window-maximized="1"
     inkscape:current-layer="layer1" /><defs
     id="defs2" /><g
     inkscape:label="图层 1"
     inkscape:groupmode="layer"
     id="layer1"
     transform="translate(-5.9499044,-6.848293)"><path
       style="fill:#333333;fill-opacity:1;stroke-width:0.0120774"
       d="m 5.9717564,13.602431 -0.021852,-0.04529 0.00221,-0.09662 0.00221,-0.09662 0.00564,-0.06643 0.00564,-0.06643 0.010961,-0.06039 0.010961,-0.06039 0.00754,-0.05709 0.00754,-0.05709 0.01,-0.0062 0.01,-0.0062 -0.00626,-0.07793 -0.00626,-0.07793 0.019712,-0.04927 0.019712,-0.04927 v -0.04131 -0.04131 l 0.013294,-0.0082 0.013294,-0.0082 -0.00683,-0.03417 -0.00683,-0.03417 0.022578,-0.05796 0.022578,-0.05796 0.021353,-0.09645 0.021353,-0.09644 0.023191,-0.06056 0.023191,-0.06056 0.028068,-0.07448 0.028068,-0.07448 -0.00495,-0.0049 -0.00495,-0.0049 0.023349,-0.04833 0.023349,-0.04833 0.018246,-0.01514 0.018246,-0.01514 0.00802,-0.05351 0.00802,-0.05351 0.010075,-0.0062 0.010075,-0.0062 0.055617,-0.111379 0.055617,-0.11138 0.056708,-0.10309 0.056708,-0.10309 0.057146,-0.08716 0.057146,-0.08716 0.00753,-0.03002 0.00753,-0.03002 0.044016,-0.04747 0.044016,-0.04747 0.058012,-0.07936 0.058012,-0.07936 0.041627,-0.03175 0.041627,-0.03175 0.00101,-0.01366 0.00101,-0.01366 0.1408973,-0.129273 0.1408972,-0.129273 0.062116,-0.04887 0.062116,-0.04887 h 0.00875 0.00875 l 0.041067,-0.03606 0.041067,-0.03606 0.029539,-0.0074 0.029539,-0.0074 0.00659,-0.02078 0.00659,-0.02078 0.040222,-0.01918 0.040222,-0.01918 0.0128,-0.03433 0.0128,-0.03433 0.044731,-0.120774 0.044731,-0.1207736 0.015823,-0.042271 0.015823,-0.042271 0.031231,-0.081649 0.031231,-0.081649 v -0.022229 -0.022229 l 0.028581,-0.053754 0.028581,-0.053754 1.256e-4,-0.035606 1.256e-4,-0.035606 0.037633,-0.1083553 0.037633,-0.1083551 -0.00182,-0.012419 -0.00182,-0.012419 0.00769,-0.018116 0.00769,-0.018116 0.030363,-0.09058 0.030363,-0.09058 8.45e-5,-0.033377 8.46e-5,-0.033377 0.011691,-0.020972 0.011691,-0.020971 0.025396,-0.096619 0.025396,-0.096619 0.021329,-0.030194 0.021329,-0.030193 0.00805,-0.07767 0.00805,-0.07767 0.018073,-0.027583 0.018073,-0.027583 5.302e-4,-0.027599 5.302e-4,-0.027599 0.018275,-0.04831 0.018275,-0.04831 L 8.3024336,8.153413 8.3197016,8.075672 8.3319376,8.063436 8.3441726,8.0512 V 8.005306 7.959412 h 0.012077 0.012077 l 4.275e-4,-0.051329 4.275e-4,-0.051329 0.01726,-0.030194 0.01726,-0.030193 4.275e-4,-0.03738 4.275e-4,-0.03738 0.022244,-0.020131 0.022244,-0.020131 7.995e-4,-0.052924 7.996e-4,-0.052924 0.013188,-0.024642 0.013188,-0.024642 V 7.483861 7.441509 l 0.010743,-0.00664 0.010743,-0.00664 0.00691,-0.039363 0.00691,-0.039363 0.01124,-0.072464 0.01124,-0.072464 0.018745,-0.054348 0.018745,-0.054348 0.00838,-0.093637 0.00838,-0.093637 0.027947,-0.030156 0.02795,-0.030156 h 0.023103 0.023103 l 0.030051,0.023638 0.030051,0.023638 0.013694,0.063923 0.013694,0.063923 0.024814,0.084542 0.024814,0.084542 0.00994,0.072464 0.00994,0.072464 -0.011438,0.084177 -0.011438,0.084177 -0.011262,0.021044 -0.011262,0.021044 -0.026993,-0.00996 -0.026993,-0.00996 -0.00608,-0.028832 -0.00608,-0.028832 -0.029036,-0.054348 -0.029036,-0.054348 -0.011982,0.036232 -0.011982,0.036232 -0.012026,0.00784 -0.012026,0.00784 0.00698,0.0182 0.00698,0.0182 -0.02334,0.021123 -0.02334,0.021123 v 0.069114 0.069114 l -0.016661,0.013827 -0.016661,0.013827 -0.00911,0.038981 -0.00911,0.038981 0.00114,0.00762 0.00114,0.00762 -0.023242,0.021033 -0.023242,0.021033 0.00709,0.051727 0.00709,0.051727 -0.019601,0.027984 -0.019601,0.027984 v 0.026692 0.026692 l -0.024885,0.0079 -0.024885,0.0079 0.00713,0.032469 0.00713,0.032469 -0.030556,0.1176042 -0.030556,0.1176041 v 0.030042 0.030043 h -0.023924 -0.023924 l 0.007,0.051329 0.007,0.051329 -0.025993,0.078503 -0.025993,0.078503 -0.024574,0.03417 -0.024574,0.03417 0.00722,0.028753 0.00722,0.028753 -0.025043,0.013403 -0.025043,0.013403 0.014332,0.017269 0.014332,0.017269 -0.025211,0.06945 -0.025211,0.06945 -0.00344,0.036232 -0.00344,0.036232 -0.027174,0.00386 -0.027174,0.00386 v 0.00855 0.00855 l 0.016569,0.023823 0.016569,0.023823 -0.00968,0.025938 -0.00968,0.025938 -0.012924,0.00799 -0.012924,0.00799 v 0.040845 0.040845 l -0.012077,0.00746 -0.012077,0.00746 v 0.02997 0.02997 l -0.025248,0.034149 -0.025247,0.034149 -0.00502,0.034807 -0.00502,0.034807 -0.0072,0.057604 -0.0072,0.057604 -0.023695,0.012681 -0.023695,0.012681 0.00716,0.032608 0.00716,0.032608 -0.01808,0.02392 -0.01808,0.02392 -3.841e-4,0.035281 -3.84e-4,0.035281 -0.016243,0.019067 -0.016243,0.019067 -0.01999,0.051573 -0.019989,0.051573 v 0.01994 0.01994 l -0.01976,0.02183 -0.01976,0.02183 0.018224,0.007 0.018224,0.007 0.095136,-0.05634 0.095136,-0.056336 0.082111,-0.044005 0.082112,-0.044005 0.076308,-0.042271 0.076308,-0.042271 0.075764,-0.039929 0.075764,-0.039929 0.038698,-0.029516 0.038698,-0.029516 0.016976,-8.46e-5 0.016976,-8.45e-5 0.036232,-0.023996 0.036232,-0.023996 0.016389,-8.46e-5 0.016389,-8.45e-5 0.08023,-0.036836 0.08023,-0.036835 0.018116,-0.010861 0.018116,-0.01086 0.082484,-0.042884 0.082484,-0.042884 h 0.017154 0.017154 v -0.018116 -0.018116 h 0.022283 0.022283 l 0.02186,-0.024155 0.02186,-0.024155 h 0.020583 0.020583 l 0.067898,-0.036232 0.067898,-0.036232 0.015325,-3.358e-4 0.015325,-3.357e-4 0.047442,-0.035896 0.047442,-0.035896 h 0.025696 0.025696 l 0.040925,-0.030193 0.040925,-0.030194 h 0.015889 0.015889 l 0.093481,-0.045928 0.093481,-0.045928 0.09058,-0.043533 0.090581,-0.043533 0.03019,-0.00885 0.03019,-0.00885 0.101667,-0.052656 0.101667,-0.052656 h 0.01018 0.01018 l 0.05724,-0.024866 0.05724,-0.024866 0.03419,-0.017405 0.03419,-0.017405 h 0.02285 0.02285 l 0.05165,-0.022778 0.05165,-0.022778 0.0457,-0.019493 0.0457,-0.019493 h 0.0173 0.0173 l 0.0457,-0.019657 0.0457,-0.019657 0.04831,-0.021791 0.04831,-0.021791 0.102658,-0.024308 0.102658,-0.024308 0.06643,-0.012229 0.06643,-0.012229 0.06918,-0.00792 0.06918,-0.00792 0.04556,0.023582 0.04556,0.023582 0.03019,0.00753 0.03019,0.00753 0.02721,0.051764 0.02721,0.051764 -3.6e-5,0.089179 -3.7e-5,0.089179 -0.01341,0.049711 -0.01341,0.049711 -0.0099,0.024155 -0.0099,0.024155 -0.02026,0.066426 -0.02026,0.066426 -0.02891,0.045031 -0.02891,0.045031 v 0.022011 0.022011 l -0.05806,0.1126579 -0.05806,0.1126579 -0.03265,0.037693 -0.03265,0.037693 -0.09347,0.1289994 -0.09347,0.1289993 -0.05323,0.074018 -0.05323,0.074018 -0.176238,0.1822779 -0.176239,0.182278 -0.06039,0.04774 -0.06039,0.04774 -0.126812,0.11321 -0.126813,0.11321 -0.02415,0.02294 -0.02416,0.02294 -0.06039,0.04753 -0.06039,0.04753 -0.102658,0.07139 -0.1026586,0.07139 -0.096619,0.07134 -0.096619,0.07134 -0.084542,0.04166 -0.084542,0.04166 -0.1284525,0.06847 -0.1284524,0.06847 -0.070825,0.04226 -0.070825,0.04226 -0.030194,0.01087 -0.030193,0.01087 -0.02671,0.0207 -0.02671,0.0207 -0.075947,0.02785 -0.075947,0.02785 -0.032058,0.0221 -0.032058,0.0221 h -0.016584 -0.016584 l -0.023823,0.01606 -0.023823,0.01606 -0.1268127,0.0497 -0.1268126,0.0497 -0.054348,0.0137 -0.054348,0.0137 -0.042271,0.01124 -0.042271,0.01124 -0.072464,0.01211 -0.072464,0.01211 -0.1298319,0.01431 -0.129832,0.01431 v 0.0089 0.0089 l 0.060387,0.05717 0.060387,0.05718 v 0.01611 0.01612 h 0.036232 0.036232 v 0.0306 0.0306 l 0.042271,0.02494 0.042271,0.02494 v 0.0089 0.0089 l 0.081522,0.05181 0.081523,0.05181 0.052866,0.03166 0.052866,0.03166 0.05885,0.05298 0.05885,0.05298 v 0.01503 0.01503 l 0.041465,0.03163 0.041465,0.03163 0.00986,4.91e-4 0.00986,4.9e-4 0.041815,0.03574 0.041815,0.03574 h 0.020113 0.020113 l 0.016177,0.01949 0.016177,0.01949 0.064759,0.03655 0.064759,0.03655 0.014029,0.02246 0.014029,0.02246 h 0.016651 0.01665 l 0.068005,0.04102 0.068005,0.04102 0.078503,0.01967 0.078503,0.01967 0.042271,0.01839 0.042271,0.01839 0.020971,0.01149 0.020972,0.01149 h 0.021903 0.021903 l 0.013676,0.01368 0.013676,0.01368 0.064223,0.0213 0.064223,0.0213 0.038417,0.0081 0.038417,0.0081 0.014617,0.01761 0.014617,0.01761 0.021916,-0.007 0.021916,-0.007 0.045824,0.01182 0.045824,0.01181 0.096619,0.01986 0.09662,0.01986 0.05435,0.01143 0.05435,0.01143 0.03623,-0.01045 0.03623,-0.01045 0.09462,0.01111 0.09462,0.01111 0.276521,-0.01048 0.276521,-0.01048 0.03498,-0.02586 0.03498,-0.02586 0.02377,0.0062 0.02377,0.0062 0.0582,-0.05819 0.05819,-0.0582 0.0222,-0.05018 0.0222,-0.05019 0.01754,-0.09483 0.01754,-0.09483 0.0068,-0.169083 0.0068,-0.169084 0.0075,-0.05777 0.0075,-0.05777 0.0074,0.0075 0.0074,0.0075 0.0021,0.03822 0.0021,0.03822 0.01967,0.08454 0.01967,0.08454 0.01143,0.05306 0.01142,0.05306 0.01291,0.01555 0.0129,0.01555 0.0069,0.06714 0.0069,0.06714 -0.01508,0.09348 -0.01508,0.09348 -0.03544,0.075 -0.03544,0.075 -0.0649,0.05932 -0.0649,0.05932 -0.05622,0.02643 -0.05622,0.02643 -0.07461,0.01927 -0.0746,0.01927 -0.199277,-6.51e-4 -0.199277,-6.51e-4 -0.04227,-0.0018 -0.04227,-0.0018 -0.150968,0.0047 -0.150967,0.0047 -0.108697,-0.01 -0.1086961,-0.0099 -0.014719,-0.01981 -0.014719,-0.01981 -0.017139,0.01422 -0.017139,0.01422 -0.052683,-0.01193 -0.052683,-0.01193 -0.072464,-0.02436 -0.072464,-0.02436 -0.033377,-2.97e-4 -0.033377,-2.97e-4 -0.020971,-0.01084 -0.020972,-0.01084 -0.054348,-0.02149 -0.054348,-0.02149 -0.054348,-0.0243 -0.054348,-0.0243 -0.012077,-0.0014 -0.012077,-0.0014 -0.024155,-0.009 -0.024155,-0.009 -0.034191,-0.0175 -0.034192,-0.0175 h -0.021304 -0.021304 l -0.02186,-0.02415 -0.02186,-0.02416 h -0.026843 -0.026843 l -0.015035,-0.01812 -0.015035,-0.01812 h -0.017191 -0.017192 l -0.098448,-0.05133 -0.098448,-0.05133 -0.063517,-0.06341 -0.063517,-0.06341 h -0.01382 -0.013885 l -0.050048,-0.03902 -0.050048,-0.03902 -0.015904,-0.02155 -0.015904,-0.02155 -0.041633,-0.0174 -0.041633,-0.01739 -0.00716,-0.01866 -0.00716,-0.01866 H 8.406332 8.386483 l -0.05285,-0.04831 -0.05285,-0.04831 h -0.00391 -0.00391 l -0.057973,-0.03889 -0.057973,-0.03889 -0.012077,-0.01033 -0.012077,-0.01033 -0.04831,-0.02659 -0.04831,-0.02659 -0.00384,-0.02671 -0.00384,-0.02672 -0.038429,-0.0098 -0.038429,-0.0098 -0.058277,-0.07784 -0.058277,-0.07784 -0.0474,-0.0521 -0.0474,-0.0521 v -0.009 -0.009 l -0.080054,-0.07966 -0.080054,-0.07966 0.00831,-0.04429 0.00831,-0.04429 0.04399,-0.01838 0.04399,-0.01838 0.045674,0.01368 0.045674,0.01369 0.011534,0.02155 0.011534,0.02155 0.046625,0.01539 0.046625,0.01539 0.1322566,-0.0058 0.1322566,-0.0058 0.04831,-0.01225 0.04831,-0.01225 0.072464,-0.01431 0.072464,-0.01431 0.1147353,-0.03727 0.1147352,-0.03727 0.054348,-0.03284 0.054348,-0.03284 0.040065,-0.0085 0.040065,-0.0085 0.032399,-0.0169 0.032399,-0.0169 0.01514,-7.3e-5 0.015141,-7.2e-5 0.039258,-0.02114 0.039258,-0.02113 0.036182,-0.02541 0.036181,-0.02541 0.096619,-0.0521 0.096619,-0.0521 0.078503,-0.0402 0.078503,-0.0402 0.013618,-3.6e-5 0.013618,-3.6e-5 0.013044,-0.01572 0.013044,-0.01572 0.094112,-0.04676 0.094112,-0.04676 0.033499,-0.02508 0.0335,-0.02508 0.057081,-0.04556 0.057081,-0.04556 0.013395,-0.01069 0.013395,-0.01069 0.049192,-0.0251 0.049192,-0.0251 0.00787,-0.01274 0.00787,-0.01274 0.047425,-0.02994 0.04742,-0.02994 0.0645,-0.05713 0.0645,-0.05713 0.05202,-0.04227 0.05202,-0.04227 0.08932,-0.08145 0.08932,-0.08145 0.02955,-0.0074 0.02955,-0.0074 v -0.01507 -0.01507 l 0.09964,-0.09816 0.09964,-0.09816 0.0507,-0.03701 0.0507,-0.037008 0.0069,-0.020553 0.0069,-0.020553 0.06622,-0.071668 0.06622,-0.071668 V 9.799922 9.784629 l 0.01512,-0.00966 0.01512,-0.00966 0.01774,-0.034379 0.01774,-0.034379 0.0547,-0.063869 0.0547,-0.063869 0.05139,-0.064796 0.05139,-0.064796 0.08448,-0.169601 0.08448,-0.1696011 v -0.01622 -0.015735 l 0.01748,-0.032057 0.01748,-0.032057 0.0248,-0.073287 0.0248,-0.073287 0.0015,-0.066327 0.0015,-0.066327 -0.01603,-0.025674 -0.01603,-0.025674 -0.02475,-0.00665 -0.02475,-0.00665 -0.0785,3.72e-4 -0.0785,3.719e-4 -0.114735,0.022028 -0.114735,0.022028 -0.03623,0.019631 -0.03623,0.019631 -0.02476,7.25e-5 -0.02476,7.24e-5 -0.01147,0.010588 -0.01147,0.010588 -0.07246,0.025094 -0.07246,0.025094 -0.102658,0.037684 -0.102658,0.037684 -0.05435,0.018926 -0.05435,0.018926 -0.01208,0.00887 -0.01208,0.00887 -0.101765,0.043769 -0.101765,0.043769 h -0.01972 -0.01972 l -0.02344,0.017732 -0.02344,0.017732 -0.02657,3.841e-4 -0.02657,3.84e-4 -0.0097,0.015442 -0.0097,0.015442 -0.05435,0.022444 -0.054348,0.022444 -0.04831,0.020842 -0.04831,0.020842 -0.04831,0.015263 -0.04831,0.015263 -0.018116,0.01519 -0.018116,0.01519 -0.2876236,0.1418414 -0.2876236,0.1418415 -0.097928,0.052796 -0.097928,0.052796 h -0.026336 -0.026336 l -0.032579,0.030193 -0.032579,0.030194 H 8.8170331 8.795916 L 8.784003,9.7103117 8.77209,9.7222247 8.6652565,9.7767377 8.5584231,9.8312507 H 8.53342 8.5084162 l -0.036807,0.035337 -0.036807,0.035337 -0.078503,0.040734 -0.078503,0.040734 -0.1207739,0.068478 -0.120774,0.06848 -0.040629,0.03719 -0.040629,0.03719 -0.035896,0.0072 -0.035896,0.0072 -0.012974,0.02848 -0.012974,0.02848 h -0.00972 -0.00972 l -0.041414,0.03636 -0.041415,0.03636 -0.0082,0.03266 -0.0082,0.03266 -0.02377,0.05477 -0.02377,0.05477 -0.017619,0.03206 -0.017619,0.03206 v 0.0246 0.0246 l -0.010592,0.0065 -0.010592,0.0065 -0.013312,0.05287 -0.013312,0.05287 -0.018367,0.01524 -0.018367,0.01524 v 0.01349 0.01349 l -0.021135,0.05141 -0.021135,0.05141 -0.027317,4.8e-5 -0.027317,4.8e-5 0.00695,0.04529 0.00695,0.04529 -0.032149,0.08454 -0.032149,0.08454 -0.00645,0.02817 -0.00645,0.02817 -0.016519,0.0063 -0.016519,0.0063 v 0.02215 0.02215 l -0.012077,0.0075 -0.012077,0.0075 v 0.03404 0.03404 l -0.018116,0.01504 -0.018116,0.01503 v 0.02012 0.02012 l -0.024155,0.04738 -0.024155,0.04738 v 0.01464 0.01464 l -0.030194,0.03588 -0.030193,0.03588 v 0.0249 0.0249 l -0.034213,0.05802 -0.034213,0.05803 -0.056591,0.114609 -0.05659,0.114608 -0.035213,0.06039 -0.035213,0.06039 -0.00788,0.01812 -0.00788,0.01812 -0.029908,0.06039 -0.029908,0.06039 -0.04705,0.08454 -0.04705,0.08454 -0.011145,0.02416 -0.011145,0.02416 -0.020028,0.04227 -0.020027,0.04227 -0.023997,0.04831 -0.023997,0.04831 -0.01099,0.01812 -0.01099,0.01812 -0.054359,0.09202 -0.054359,0.09202 -0.018875,0.0072 -0.01887,0.0073 v 0.01875 0.01875 l -0.02858,0.04503 -0.02858,0.04503 -0.0444,0.0785 -0.0444,0.0785 -0.041285,0.06643 -0.041285,0.06643 -4.702e-4,0.01966 -4.702e-4,0.01966 -0.017325,0.01438 -0.017326,0.01438 -0.024945,0.04786 -0.024946,0.04786 v 0.01732 0.01732 l -0.021135,0.01087 -0.021135,0.01087 -0.012905,-0.0047 -0.012905,-0.0047 -0.038717,0.04255 -0.038717,0.04255 h -0.027664 -0.027664 z m 0.2553845,-0.435598 0.025155,-0.03402 0.034483,-0.06323 0.034483,-0.06323 0.012077,-0.02109 0.012077,-0.02109 0.038415,-0.0484 0.038415,-0.0484 0.056022,-0.107989 0.056022,-0.10799 0.015657,-0.01814 0.015657,-0.01814 0.00846,-0.0355 0.00846,-0.0355 0.023051,-0.03237 0.023051,-0.03237 0.012349,-0.02875 0.012349,-0.02875 0.010648,-0.01812 0.010648,-0.01812 0.029009,-0.06039 0.029009,-0.06039 0.028317,-0.05435 0.028317,-0.05435 0.011953,-0.0232 0.011953,-0.0232 0.030365,-0.0553 0.030365,-0.0553 0.01561,-0.01812 0.01561,-0.01812 0.00856,-0.03623 0.00856,-0.03623 0.021073,-0.02416 0.021073,-0.02416 0.044602,-0.08989 0.044602,-0.08989 0.023321,-0.03275 0.023321,-0.03275 v -0.01696 -0.01696 l 0.017732,-0.02344 0.017732,-0.02344 3.84e-4,-0.01961 3.841e-4,-0.01961 0.04831,-0.108837 0.04831,-0.108836 v -0.01416 -0.01416 l 0.084542,-0.173728 0.084542,-0.173729 v -0.01781 -0.01781 l 0.02501,-0.05834 0.02501,-0.05835 0.019629,-0.04229 0.019629,-0.04229 0.014805,-0.0091 0.014805,-0.0091 0.00846,-0.03918 0.00846,-0.03918 0.028715,-0.05176 0.028715,-0.05176 v -0.0185 -0.0185 l -0.027174,0.0082 -0.027174,0.0082 -0.089171,0.06807 -0.089171,0.06807 -0.037641,0.0258 -0.037641,0.0258 -0.1468254,0.152343 -0.1468255,0.152343 h -0.037355 -0.037355 v 0.01849 0.01849 l 0.018372,0.007 0.018373,0.0071 -0.045547,0.05153 -0.045547,0.05153 -0.027776,0.04068 -0.027776,0.04068 -0.03865,0.06316 -0.03865,0.06316 -0.069942,0.102496 -0.069942,0.102495 -0.01158,0.0072 -0.01158,0.0072 -2.9e-5,0.02042 -2.9e-5,0.02042 -0.054319,0.108159 -0.05432,0.108159 v 0.0208 0.0208 l -0.0308,0.02423 -0.0308,0.02423 -0.014491,0.0049 -0.014491,0.0049 0.016763,0.02031 0.016764,0.02031 -0.019783,0.02186 -0.019783,0.02186 v 0.02622 0.02622 h -0.015875 -0.015875 l -0.025002,0.04684 -0.025002,0.04684 0.00584,0.03054 0.00584,0.03054 -0.024741,0.03434 -0.024741,0.03434 -0.00703,0.05435 -0.00703,0.05435 -0.010239,0.02416 -0.010239,0.02415 -0.030314,0.09386 -0.030314,0.09386 0.00971,0.04303 0.00971,0.04303 -0.016985,0.04065 -0.016985,0.04065 8.7e-6,0.14855 8.7e-6,0.14855 -0.0014,0.07018 -0.0014,0.07018 0.02244,0.017 0.02244,0.017 0.012825,3.84e-4 0.012825,3.84e-4 0.025156,-0.03402 z m 5.9743671,-0.185708 -0.006,-0.0097 h -0.04111 -0.04111 l -0.05893,-0.02323 -0.05893,-0.02323 -0.04532,-0.03075 -0.04532,-0.03075 -0.04716,-0.06733 -0.04716,-0.06733 v -0.018 -0.018 l -0.01717,-0.02675 -0.01718,-0.02675 -0.01487,-0.141465 -0.01487,-0.141464 0.01243,-0.01554 0.01243,-0.01554 0.0083,-0.07246 0.0083,-0.07247 0.01276,-0.04227 0.01276,-0.04227 0.0092,-0.01872 0.0092,-0.01872 0.01556,-0.06953 0.01556,-0.06953 0.02208,-0.01182 0.02208,-0.01182 v -0.02331 -0.02331 l 0.03404,-0.03967 0.03404,-0.03967 0.01594,-0.03974 0.01594,-0.03974 0.03456,-0.04771 0.03456,-0.04771 v -0.01208 -0.01208 l 0.02469,-0.0152 0.02469,-0.0152 0.02664,-0.0537 0.02664,-0.0537 0.03925,-0.0395 0.03925,-0.0395 v -0.01248 -0.01248 h 0.01063 0.01063 l 0.04839,-0.06341 0.04839,-0.06341 0.125164,-0.126812 0.125164,-0.126813 0.09482,-0.08072 0.09482,-0.08072 0.04093,-0.01943 0.04094,-0.01943 0.06597,-0.05773 0.06597,-0.05773 0.07606,-0.03994 0.07606,-0.03994 0.09662,-0.02356 0.09662,-0.02356 0.06167,0.006 0.06167,0.006 0.07386,0.03729 0.07386,0.03728 0.01544,7.2e-5 0.01544,7.3e-5 0.02032,0.03572 0.02032,0.03572 0.031,0.0078 0.031,0.0078 v 0.01533 0.01533 l -0.01812,0.01503 -0.01812,0.01504 v 0.0094 0.0094 l 0.03803,0.01326 0.03804,0.01326 0.0073,-3.67e-4 0.0073,-3.67e-4 -0.02113,-0.01231 -0.02114,-0.01231 v -0.01752 -0.01752 h 0.01208 0.01208 v 0.01664 0.01664 l 0.01812,0.01503 0.01812,0.01503 v 0.03838 0.03838 l 0.0141,0.0141 0.0141,0.0141 -0.02243,0.0086 -0.02243,0.0086 -0.0055,-0.01638 -0.0055,-0.01638 -0.0446,-0.0492 -0.0446,-0.0492 -0.0076,-0.02114 -0.0076,-0.02113 h -0.01622 -0.01622 l -0.02467,-0.03336 -0.02467,-0.03336 -0.08932,-0.02061 -0.08932,-0.02062 -0.0996,0.006 -0.0996,0.006 -0.06095,0.03594 -0.06095,0.03594 h -0.0099 -0.0099 l -0.04559,0.03623 -0.04559,0.03623 h -0.009 -0.009 l -0.05879,0.05422 -0.05879,0.05422 -0.0128,1.29e-4 -0.0128,1.29e-4 -0.07435,0.0785 -0.07435,0.0785 h -0.01853 -0.01853 v 0.01752 0.01752 l -0.01599,0.0097 -0.01599,0.0097 -0.119228,0.132852 -0.119227,0.132851 -0.04124,0.04227 -0.04124,0.04227 -0.03484,0.05042 -0.03484,0.05041 -0.01211,0.02809 -0.01211,0.02809 -0.04881,0.06643 -0.04881,0.06643 -0.01107,0.02659 -0.01107,0.02659 -0.03244,0.05139 -0.03244,0.05139 -0.03288,0.09395 -0.03288,0.09395 -0.01212,0.01527 -0.01212,0.01527 -0.0087,0.06039 -0.0087,0.06039 -0.0053,0.160921 -0.0053,0.16092 0.03166,0.03836 0.03166,0.03836 0.03455,0.0568 0.03455,0.0568 0.05051,0.02577 0.05051,0.02577 0.08791,0.0066 0.08791,0.0066 0.04177,-0.02582 0.04177,-0.02582 h 0.0291 0.0291 l 0.02986,-0.02109 0.02986,-0.02109 0.04462,-0.0242 0.04462,-0.0242 0.140509,-0.126813 0.140509,-0.126813 0.05642,-0.05944 0.05642,-0.05944 0.0217,-0.01906 0.0217,-0.01906 0.03265,-0.03559 0.03265,-0.03559 0.06704,-0.07311 0.06704,-0.07311 0.01751,-0.02563 0.01751,-0.02563 0.05353,-0.07099 0.05353,-0.07099 0.04341,-0.04266 0.04342,-0.04266 0.02904,-0.04188 0.02904,-0.04188 0.04702,-0.05435 0.04703,-0.05435 0.05194,-0.05435 0.05194,-0.05435 0.0072,-0.02114 0.0072,-0.02114 h 0.01042 0.01042 l 0.04085,-0.06341 0.04086,-0.06341 0.05251,-0.06643 0.05251,-0.06643 0.03459,-0.04227 0.03459,-0.04227 0.0312,-0.04599 0.0312,-0.04599 0.02321,-0.04459 0.02321,-0.04459 0.05639,-0.06372 0.0564,-0.06372 0.03576,-0.01849 0.03576,-0.01849 0.04153,0.01371 0.04153,0.01371 v 0.02538 0.02538 l -0.01362,0.04313 -0.01362,0.04313 -0.01027,0.02717 -0.01027,0.02717 h -0.01631 -0.01631 l -0.02881,0.06152 -0.02881,0.06152 -0.02303,0.01613 -0.02302,0.01613 -0.0099,0.04615 -0.0099,0.04615 -0.03225,0.114735 -0.03225,0.114735 -0.0063,0.03019 -0.0063,0.03019 -0.01772,0.02037 -0.01772,0.02037 0.0083,0.01343 0.0083,0.01343 -0.01879,0.08697 -0.01879,0.08697 -0.01274,0.120774 -0.01274,0.120774 0.0063,0.173038 0.0063,0.173038 0.0069,0.03228 0.0069,0.03228 0.02942,0.06039 0.02942,0.06039 0.04515,0.04955 0.04514,0.04955 0.04831,0.03084 0.04831,0.03084 0.03787,0.03541 0.03787,0.03541 0.08894,0.01363 0.08895,0.01363 0.06365,0.0069 0.06366,0.0069 0.04504,-0.02094 0.04504,-0.02094 0.06539,-0.05269 0.0654,-0.05269 0.03726,-0.01896 0.03726,-0.01896 0.07246,-0.07559 0.07246,-0.07559 0.05952,-0.05089 0.05952,-0.05089 0.05433,-0.06599 0.05433,-0.06599 0.0341,-0.01763 0.0341,-0.01764 v -0.01828 -0.01828 l 0.08976,-0.111237 0.08976,-0.111238 0.02497,-0.0152 0.02497,-0.0152 v -0.01801 -0.01801 h 0.01238 0.01238 l 0.01148,-0.03019 0.01148,-0.03019 h 0.0099 0.0099 l 0.01596,-0.04414 0.01596,-0.04414 0.05458,-0.05304 0.05458,-0.05304 0.01945,0.0041 0.01945,0.0041 -0.0032,0.0297 -0.0032,0.0297 -0.02019,0.0151 -0.02019,0.0151 h -0.02788 -0.02789 v 0.02286 0.02286 l 0.02077,0.008 0.02077,0.008 -0.03888,0.03043 -0.03888,0.03043 v 0.02889 0.02889 l -0.02474,0.01324 -0.02473,0.01324 0.0074,0.02342 0.0074,0.02342 h -0.03018 -0.03019 l -0.02646,0.03716 -0.02646,0.03716 0.01356,0.01356 0.01356,0.01357 v 0.0097 0.0097 h -0.02416 -0.02416 v 0.02854 0.02854 l -0.05737,0.07713 -0.05737,0.07713 -0.0519,0.0524 -0.0519,0.0524 -0.01833,-0.007 -0.01833,-0.007 0.008,0.02524 0.008,0.02524 -0.146601,0.143868 -0.146602,0.143869 -0.06292,0.04986 -0.06292,0.04986 -0.09662,0.04504 -0.09662,0.04504 -0.03512,0.0084 -0.03512,0.0084 -0.111613,2.29e-4 -0.111612,2.3e-4 -0.03685,-0.01905 -0.03685,-0.01905 h -0.03022 -0.03022 l -0.03378,-0.01482 -0.03378,-0.01482 -0.06643,-0.04155 -0.06643,-0.04155 -0.07548,-0.07849 -0.07548,-0.07849 v -0.01231 -0.01231 l -0.02435,-0.02592 -0.02435,-0.02592 -0.01881,-0.09564 -0.0188,-0.09564 -0.0057,-0.181161 -0.0057,-0.18116 0.01384,-0.09662 0.01384,-0.09662 0.02337,-0.143593 0.02337,-0.143593 0.0099,-0.01945 0.0099,-0.01945 0.007,-0.04531 0.007,-0.04531 -0.0234,0.01252 -0.0234,0.01252 v 0.0136 0.0136 l -0.07465,0.09769 -0.07465,0.09769 -0.05518,0.06134 -0.05518,0.06134 -0.07592,0.08963 -0.07592,0.08963 -0.0992,0.123561 -0.0992,0.123561 -0.03238,0.04338 -0.03238,0.04338 -0.05599,0.05985 -0.05599,0.05985 -0.02033,-0.0034 -0.02033,-0.0034 v 0.02635 0.02635 l -0.06039,0.06187 -0.06039,0.06187 -0.07814,0.07483 -0.07814,0.07483 -0.03659,0.03623 -0.03659,0.03623 -0.09058,0.05732 -0.09058,0.05731 -0.09884,0.04879 -0.09884,0.04879 -0.03115,-0.0078 -0.03115,-0.0078 -0.01494,0.01199 -0.01494,0.01199 -0.04602,0.0051 -0.04602,0.0051 z m 3.494024,-0.148142 -0.01938,-0.01938 -0.0079,-0.04236 -0.0079,-0.04236 0.03058,-0.06897 0.03058,-0.06897 0.01432,-0.05435 0.01432,-0.05435 0.01553,-0.03019 0.01553,-0.03019 0.0087,-0.04227 0.0087,-0.04227 0.01619,-0.03623 0.01619,-0.03623 0.01823,-0.06643 0.01823,-0.06643 0.01373,-0.05435 0.01373,-0.05435 0.03053,-0.09058 0.03053,-0.09058 0.02946,-0.09662 0.02946,-0.09662 0.01329,-0.04831 0.01329,-0.04831 0.02111,-0.0274 0.02111,-0.0274 0.0085,-0.062 0.0085,-0.062 0.01655,-0.0396 0.01655,-0.0396 0.01156,-0.0071 0.01156,-0.0071 0.0079,-0.05709 0.0079,-0.05709 0.04192,-0.120774 0.04192,-0.120774 0.04153,-0.08702 0.04153,-0.08701 0.01512,-0.0096 0.01512,-0.0096 0.03352,-0.05172 0.03352,-0.05172 0.03606,-0.0072 0.03606,-0.0072 0.0065,-0.01052 0.0065,-0.01052 h 0.02707 0.02707 l 0.01449,0.01449 0.01449,0.01449 v 0.02206 0.02206 l -0.07822,0.153662 -0.07821,0.153663 -0.03185,0.07246 -0.03185,0.07247 -0.02178,0.02415 -0.02178,0.02416 -0.01806,0.06643 -0.01806,0.06642 -0.02522,0.06914 -0.02522,0.06914 v 0.02298 0.02298 l -0.01812,0.01503 -0.01812,0.01504 v 0.01837 0.01837 l -0.04973,0.146211 -0.04973,0.146211 -0.01121,0.02138 -0.01121,0.02138 -0.02257,0.08731 -0.02257,0.08731 -0.0084,0.02114 -0.0084,0.02114 h 0.01881 0.01881 l 0.0097,-0.01694 0.0097,-0.01694 0.06039,-0.07055 0.06039,-0.07055 0.128136,-0.132921 0.128136,-0.132921 0.02887,-0.04298 0.02887,-0.04298 0.04831,-0.04221 0.04831,-0.0422 0.06039,-0.03658 0.06039,-0.03658 0.06642,-0.01457 0.06643,-0.01457 0.06692,-0.0188 0.06692,-0.0188 0.04846,0.01305 0.04846,0.01305 0.05123,0.04385 0.05123,0.04385 -0.0049,0.01369 -0.0049,0.0137 0.01121,0.02177 0.01121,0.02177 2.86e-4,0.102542 2.86e-4,0.102542 -0.01189,0.01458 -0.01189,0.01458 -0.0012,0.0785 -0.0012,0.0785 -0.01984,0.108696 -0.01984,0.108697 -0.0029,0.09058 -0.0029,0.09058 0.04226,0.0785 0.04226,0.0785 0.03523,0.04227 0.03524,0.04227 0.01253,0.01552 0.01253,0.01552 0.05333,-0.0034 0.05333,-0.0034 0.0056,-0.01447 0.0056,-0.01447 0.03959,-0.02047 0.03959,-0.02047 0.07878,-0.08232 0.07878,-0.08232 0.05681,-0.0639 0.05681,-0.0639 0.04584,-0.04894 0.04585,-0.04894 0.02416,-0.01748 0.02416,-0.01748 0.04101,-0.04831 0.04101,-0.04831 0.08278,-0.0883 0.08279,-0.0883 v -0.0054 -0.0054 l 0.08235,-0.08143 0.08235,-0.08143 0.02229,-0.03623 0.02229,-0.03623 0.08558,-0.08953 0.08558,-0.08953 0.0785,-0.07782 0.0785,-0.07782 0.02717,-0.01822 0.02717,-0.01822 v -0.01591 -0.01591 l 0.02309,-0.0073 0.0231,-0.0073 0.04499,-0.03575 0.04499,-0.03575 h 0.01249 0.01248 l 0.02108,-0.01908 0.02108,-0.01908 0.02651,0.01419 0.02651,0.01419 0.02823,-0.0054 0.02824,-0.0054 0.0066,0.01731 0.0066,0.01731 v 0.04028 0.04028 l -0.02329,0.05433 -0.02329,0.05433 0.0067,0.02557 0.0067,0.02557 -0.02172,0.024 -0.02172,0.024 0.0027,0.07524 0.0027,0.07524 0.01114,0.131273 0.01114,0.131272 -0.01277,0.02385 -0.01277,0.02385 0.02519,0.02681 0.02519,0.02681 2.65e-4,0.01734 2.66e-4,0.01734 0.02455,0.05413 0.02455,0.05413 -0.01274,0.0042 -0.01274,0.0042 v 0.01749 0.01749 l 0.01855,0.0071 0.01854,0.0071 0.05454,0.07643 0.05454,0.07643 0.02459,0.0078 0.02459,0.0078 0.04071,-0.0076 0.04071,-0.0076 0.03372,-0.01759 0.03372,-0.01759 0.02013,-7.3e-5 0.02013,-7.2e-5 0.004,-0.01138 0.004,-0.01138 0.09662,-0.106075 0.09662,-0.106075 0.03321,-0.03231 0.03321,-0.03232 v -0.0122 -0.0122 l 0.03321,-0.02825 0.03321,-0.02825 0.05145,-0.07953 0.05145,-0.07953 0.03007,-0.02825 0.03007,-0.02825 v -0.0165 -0.0165 l 0.02717,-0.03766 0.02717,-0.03766 0.03919,-0.04337 0.03919,-0.04337 4.83e-4,-0.02416 4.83e-4,-0.02415 0.01467,-0.02616 0.01467,-0.02616 0.0324,-0.02541 0.0324,-0.02541 0.0038,-0.02599 0.0038,-0.02599 0.0151,-0.005 0.0151,-0.005 v 0.02516 0.02516 h 0.01208 0.01208 v 0.02826 0.02826 l -0.04907,0.01619 -0.04907,0.01619 0.007,0.02801 0.007,0.02801 h -0.01096 -0.01096 l -0.0082,0.04529 -0.0082,0.04529 -0.03273,0.04227 -0.03273,0.04227 -0.02329,0.03623 -0.0233,0.03623 0.0035,0.02812 0.0035,0.02812 -0.0493,0.04551 -0.0493,0.04551 v 0.01167 0.01167 l -0.02882,0.05963 -0.02882,0.05963 -0.02553,0.02301 -0.02552,0.02301 v 0.01032 0.01032 l -0.0648,0.08744 -0.0648,0.08744 -0.07217,0.07246 -0.07217,0.07246 -0.03622,0.02649 -0.03622,0.02649 -0.06535,0.02484 -0.06535,0.02484 -0.08054,6e-6 -0.08054,6e-6 -0.05086,-0.04529 -0.05086,-0.04529 -0.04619,-0.06214 -0.04619,-0.06214 -0.02497,-0.07675 -0.02497,-0.07675 -0.01575,-0.03019 -0.01575,-0.03019 -0.01509,-0.05435 -0.0151,-0.05435 -0.01493,-0.03022 -0.01493,-0.03022 0.0084,-0.09055 0.0084,-0.09055 -0.01029,-0.01955 -0.01029,-0.01955 4.71e-4,-0.09049 4.71e-4,-0.09049 0.01202,-0.04696 0.01202,-0.04696 0.0066,-0.02717 0.0066,-0.02717 h -0.02485 -0.02485 l -0.0075,0.01208 -0.0075,0.01208 h -0.03061 -0.03061 l -0.0064,0.02435 -0.0064,0.02435 -0.01968,-0.0032 -0.01968,-0.0032 0.0036,0.02596 0.0036,0.02596 -0.03563,0.02537 -0.03563,0.02537 h -0.0174 -0.0174 l -0.02028,0.02241 -0.02028,0.02241 0.0082,0.02141 0.0082,0.02141 -0.02906,0.02302 -0.02906,0.02302 -0.04529,0.02399 -0.04529,0.02399 v 0.02429 0.02429 l -0.01812,0.007 -0.01812,0.007 v 0.01621 0.01621 l -0.03925,0.03794 -0.03925,0.03794 -0.03623,0.01682 -0.03623,0.01682 -0.02288,0.01791 -0.02288,0.01791 0.01687,0.02542 0.01688,0.02541 -0.09986,0.104828 -0.09986,0.104828 -0.06125,0.07418 -0.06125,0.07418 -0.03493,0.007 -0.03493,0.007 0.0065,0.01701 0.0065,0.01701 -0.03093,0.02433 -0.03093,0.02433 v 0.01464 0.01463 l -0.03031,0.03798 -0.03031,0.03797 -0.0331,0.03377 -0.0331,0.03377 -0.04104,0.03266 -0.04104,0.03266 -0.04751,0.03912 -0.04751,0.03913 -0.05638,0.02499 -0.05638,0.02499 -0.08532,-0.008 -0.08532,-0.008 -0.03546,-0.032 -0.03545,-0.03201 -0.05626,-0.06948 -0.05626,-0.06948 -0.01816,-0.06337 -0.01817,-0.06337 -0.0134,-0.05058 -0.0134,-0.05058 0.0067,-0.04603 0.0067,-0.04603 0.0044,-0.04831 0.0044,-0.04831 0.01395,-0.102658 0.01395,-0.102657 0.01142,-0.0515 0.01142,-0.0515 -1.85e-4,-0.111543 -1.84e-4,-0.111542 -0.01071,-0.01691 -0.01071,-0.01691 -0.07063,0.0091 -0.07063,0.0091 -0.03561,-9.71e-4 -0.03561,-9.71e-4 -0.01895,0.01715 -0.01896,0.01715 -0.04824,0.0218 -0.04824,0.0218 -0.114585,0.121871 -0.114586,0.121872 -0.0785,0.08908 -0.0785,0.08908 -0.04946,0.04871 -0.04946,0.04871 -0.0756,0.112569 -0.0756,0.112569 -0.06249,0.135017 -0.06248,0.135018 -0.02321,0.03623 -0.02321,0.03623 -0.04999,0.05061 -0.04999,0.05061 -0.0304,0.0076 -0.0304,0.0076 -0.01938,-0.01938 z m 5.177545,-0.01214 -0.06183,-0.02893 -0.03764,-0.04566 -0.03764,-0.04566 -0.01941,-0.0409 -0.01941,-0.0409 0.0063,-0.110538 0.0063,-0.110538 0.0048,-0.03623 0.0048,-0.03623 0.01533,-0.02856 0.01533,-0.02856 -0.0055,-0.03727 -0.0055,-0.03727 0.02964,-0.06702 0.02964,-0.06702 0.0037,-0.03958 0.0037,-0.03958 0.01898,-0.02897 0.01898,-0.02897 0.01117,-0.0643 0.01117,-0.0643 0.03142,-0.08331 0.03142,-0.08331 0.0127,-0.0153 0.0127,-0.0153 0.03414,-0.100665 0.03414,-0.100665 0.02686,-0.06643 0.02686,-0.06643 0.0174,-0.0351 0.0174,-0.0351 -0.01317,-0.01321 -0.01317,-0.0132 -0.147376,-0.0089 -0.147375,-0.0089 -0.169084,-0.0032 -0.169083,-0.0032 -0.0031,-0.05435 -0.0031,-0.05435 0.0092,-0.01262 0.0092,-0.01262 0.04408,-0.02551 0.04408,-0.02551 0.137084,0.01097 0.137085,0.01097 0.05611,0.0054 0.05611,0.0054 0.07674,0.01197 0.07674,0.01197 0.04578,0.006 0.04578,0.006 0.02495,-0.05669 0.02495,-0.05669 0.0229,-0.04831 0.0229,-0.04831 v -0.02225 -0.02225 l 0.02384,-0.0303 0.02384,-0.03031 0.0076,-0.04062 0.0076,-0.04061 0.01685,-0.01399 0.01685,-0.01399 v -0.02099 -0.02099 l 0.02769,-0.04094 0.02769,-0.04094 0.09286,-0.190219 0.09286,-0.190219 h 0.01231 0.01231 v -0.02205 -0.02205 l 0.03019,-0.02837 0.03019,-0.028365 V 9.974663 9.953422 l 0.05133,-0.041709 0.05133,-0.041709 0.04813,-0.025526 0.04813,-0.025526 h 0.02211 0.02211 l 0.02336,0.012502 0.02336,0.012502 v 0.030148 0.030148 l -0.01565,0.00601 -0.01565,0.00601 0.0049,0.041802 0.0049,0.041803 -0.01942,0.0075 -0.01942,0.0075 -1.81e-4,0.03192 -1.81e-4,0.03192 -0.01515,0.04227 -0.01515,0.04227 -0.02107,0.03135 -0.02107,0.03135 -0.03292,0.015 -0.03292,0.015 0.02248,0.01644 0.02248,0.01644 -0.008,0.03184 -0.008,0.03184 -0.0297,0.02753 -0.0297,0.02753 v 0.0077 0.0077 h 0.01893 0.01893 l -0.0084,0.02717 -0.0084,0.02717 -0.01249,0.0047 -0.01249,0.0047 -0.04115,0.03771 -0.04115,0.03771 -0.0068,0.07504 -0.0068,0.07504 -0.01002,-0.0062 -0.01002,-0.0062 -0.03565,0.03177 -0.03565,0.03177 -0.01005,-9.58e-4 -0.01005,-9.57e-4 -0.0015,-0.02696 -0.0015,-0.02696 0.02867,-0.04542 0.02867,-0.04542 v -0.01351 -0.01351 l 0.01912,-0.0441 0.01912,-0.0441 0.01115,-0.01812 0.01115,-0.01812 0.0074,-0.01812 0.0074,-0.01812 0.02199,-0.04831 0.02199,-0.04831 0.0079,-0.03253 0.0079,-0.03253 -0.0084,-0.01355 -0.0084,-0.01355 -0.02184,0.01977 -0.02184,0.01977 -0.04338,0.08897 -0.04339,0.08897 v 0.01095 0.01095 l -0.02257,0.02043 -0.02257,0.02043 -0.03909,0.08108 -0.03909,0.08108 -0.01081,0.02097 -0.01081,0.02097 v 0.01507 0.01507 l -0.02891,0.06058 -0.02891,0.06058 -0.0324,0.06945 -0.0324,0.06945 0.03622,0.03622 0.03622,0.03622 h 0.0061 0.0061 l 0.02101,-0.02101 0.02101,-0.02101 0.0746,0.0021 0.0746,0.0021 0.07307,0.01893 0.07306,0.01893 h 0.0355 0.0355 l 0.0091,0.0091 0.0091,0.0091 h 0.05878 0.05878 l 0.01481,0.01481 0.01481,0.01481 -0.02212,0.02444 -0.02212,0.02444 h -0.08608 -0.08608 l -0.06229,-0.01616 -0.06229,-0.01616 -0.02313,0.02313 -0.02313,0.02313 -0.05006,-0.01348 -0.05006,-0.01348 v -0.01309 -0.01309 l -0.01983,0.01646 -0.01983,0.01646 -0.07981,-0.0025 -0.07981,-0.0025 -0.01965,0.006 -0.01965,0.006 -0.03772,0.07662 -0.03772,0.07662 v 0.02081 0.02081 l -0.01746,0.03206 -0.01746,0.03206 -0.02015,0.04529 -0.02015,0.04529 h -0.02278 -0.02278 v 0.01208 0.01208 h 0.01208 0.01208 v 0.02789 0.02788 l -0.01773,0.02344 -0.01773,0.02344 -3.87e-4,0.0257 -3.86e-4,0.0257 -0.01867,0.01549 -0.01867,0.01549 0.0062,0.01629 0.0063,0.01629 -0.01384,0.03311 -0.01384,0.03311 -0.002,0.02416 -0.002,0.02415 -0.01432,0.05082 -0.01431,0.05082 -0.01175,0.0073 -0.01175,0.0073 v 0.04085 0.04084 l -0.01208,0.0075 -0.01208,0.0075 v 0.03483 0.03483 l -0.02225,0.01578 -0.02224,0.01578 -0.01031,0.09058 -0.01031,0.09058 -6.64e-4,0.104524 -6.64e-4,0.104524 0.03636,0.03437 0.03636,0.03437 0.04482,0.0237 0.04482,0.0237 0.06571,-0.01378 0.06571,-0.01378 0.0705,-0.04536 0.0705,-0.04536 0.0603,-0.07023 0.0603,-0.07023 h 0.01055 0.01055 l 0.07046,-0.06944 0.07046,-0.06944 0.01569,-0.01329 0.01569,-0.01329 0.04441,-0.05011 0.04441,-0.05011 h 0.019 0.019 V 12.17499 12.1634 l 0.04831,-0.0447 0.04831,-0.0447 v -0.01391 -0.0139 l 0.03646,-0.02696 0.03646,-0.02696 0.04319,-0.06505 0.04319,-0.06505 0.04687,-0.03102 0.04687,-0.03102 0.02069,-0.03324 0.02069,-0.03323 0.03284,-0.03152 0.03284,-0.03152 0.02454,-0.04699 0.02454,-0.04698 0.06025,-0.05737 0.06025,-0.05737 h 0.01898 0.01898 V 11.4389 11.41589 l 0.0785,-0.08126 0.0785,-0.08125 v -0.0082 -0.0082 l 0.03623,-0.03471 0.03623,-0.03471 V 11.15388 11.1402 l 0.03019,-0.02625 0.03019,-0.02625 v -0.0091 -0.0091 l 0.114704,-0.118043 0.114703,-0.118043 2.05e-4,-0.0088 2.17e-4,-0.0088 0.05973,-0.0642 0.05973,-0.0642 0.03969,0.0038 0.0397,0.0038 -0.0025,0.06642 -0.0025,0.06643 -0.01376,0.04831 -0.01376,0.04831 -0.0094,0.01851 -0.0094,0.01851 -0.0089,0.04188 -0.0089,0.04187 -0.01796,0.02037 -0.01795,0.02037 0.0077,0.0124 0.0077,0.0124 -0.03667,0.07844 -0.03667,0.07844 v 0.0099 0.0099 l -0.04021,0.09625 -0.04021,0.09625 -0.01594,0.06039 -0.01594,0.06039 -0.02193,0.02448 -0.02193,0.02448 0.007,0.02693 0.007,0.02693 -0.01374,0.03316 -0.01374,0.03316 -0.0033,0.06639 -0.0033,0.06639 0.04243,0.05146 0.04243,0.05146 0.05939,0.03105 0.05939,0.03106 0.06778,-0.006 0.06778,-0.006 0.03925,-0.0084 0.03925,-0.0084 v -0.01675 -0.01674 h 0.02735 0.02735 l 0.04209,-0.0223 0.04209,-0.0223 0.03285,-0.008 0.03285,-0.008 0.0304,-0.03279 0.0304,-0.03279 0.04544,-0.0133 0.04544,-0.0133 -0.0029,-0.01386 -0.0029,-0.01386 0.04285,-0.04285 0.04285,-0.04285 0.04703,-0.03112 0.04703,-0.03112 0.01877,-0.02864 0.01877,-0.02864 0.06939,-0.05067 0.06939,-0.05067 0.107115,-0.103653 0.107113,-0.103653 0.02559,-0.02797 0.02559,-0.02797 0.03638,-0.01758 0.03638,-0.01758 0.06302,-0.06315 0.06303,-0.06315 0.02755,-0.02716 0.02756,-0.02716 0.03412,-0.03323 0.03412,-0.03323 0.05355,-0.0785 0.05355,-0.0785 0.02524,-0.03925 0.02524,-0.03925 h 0.01425 0.01425 l 0.08419,-0.03591 0.08419,-0.0359 0.01325,-3.28e-4 0.01325,-3.26e-4 0.02798,0.02427 0.02798,0.02427 -0.01544,0.02706 -0.01544,0.02706 -0.08199,0.06899 -0.08199,0.06899 -0.0374,0.05541 -0.0374,0.05541 v 0.0098 0.0098 l -0.02637,0.03353 -0.02638,0.03353 0.03532,0.0653 0.03532,0.0653 -0.04453,0.03867 -0.04453,0.03867 -0.02367,0.04363 -0.02367,0.04363 -0.02549,0.128213 -0.02549,0.128213 -0.01119,0.02943 -0.01119,0.02942 0.01259,0.0456 0.01259,0.0456 -0.02135,0.01561 -0.02135,0.01561 0.01293,0.02837 0.01293,0.02837 -0.01009,0.05402 -0.01009,0.05402 0.0056,0.03557 0.0056,0.03557 -0.0011,0.01812 -0.0011,0.01812 -1.21e-4,0.03925 -1.21e-4,0.03925 H 24.44272 24.4315 v 0.01849 0.01849 l 0.01723,0.0066 0.01723,0.0066 0.02395,0.05096 0.02395,0.05096 0.03612,0.03867 0.03612,0.03867 h 0.02308 0.02308 l 0.04756,-0.02316 0.04756,-0.02316 0.05435,-0.06607 0.05435,-0.06607 0.0444,-0.02781 0.0444,-0.02781 0.01271,-0.02789 0.01271,-0.02789 h 0.01093 0.01093 l 0.07241,-0.09964 0.07241,-0.09964 0.09219,-0.107578 0.09219,-0.107579 0.02956,-0.04943 0.02956,-0.04943 0.06691,-0.131338 0.06691,-0.131338 v -0.02111 -0.02111 l 0.02484,-0.05615 0.02484,-0.05615 -0.0037,-0.05106 -0.0037,-0.05107 -0.05435,0.0019 -0.05435,0.0019 -0.09662,0.03286 -0.09662,0.03286 -0.06039,0.0112 -0.06039,0.0112 -0.08454,0.0097 -0.08454,0.0097 -0.06039,-0.01832 -0.06039,-0.01832 -0.02806,-0.01271 -0.02806,-0.01271 -0.01599,-0.03828 -0.01599,-0.03828 -0.01331,-0.0082 -0.01331,-0.0082 v -0.033 -0.033 l 0.05133,-0.04878 0.05133,-0.04878 0.06614,-0.0413 0.06614,-0.0413 0.09691,-0.03391 0.09691,-0.03391 0.102658,-4.07e-4 0.102658,-4.07e-4 0.06039,0.03355 0.06039,0.03355 0.05993,0.05323 0.05993,0.05323 0.04349,-0.007 0.04349,-0.007 0.0717,-0.02286 0.0717,-0.02286 0.102658,-0.01902 0.102658,-0.01902 0.04478,-0.0071 0.04478,-0.0071 0.03372,-0.01759 0.03372,-0.01759 0.09904,-7.3e-5 0.09904,-7.2e-5 0.05947,0.01275 0.05947,0.01275 0.07192,0.06877 0.07192,0.06877 0.0086,0.04227 0.0086,0.04227 0.01091,0.121799 0.01091,0.121799 -0.01824,0.08352 -0.01824,0.08352 -0.01668,0.08454 -0.01668,0.08454 -0.02055,0.06039 -0.02055,0.06039 -0.02842,0.03085 -0.02842,0.03085 v 0.02694 0.02694 l -0.01693,0.02675 -0.01693,0.02675 -0.0082,0.03925 -0.0082,0.03925 h 0.03173 0.03173 l 0.02962,-0.03196 0.02962,-0.03196 v -0.02256 -0.02256 l 0.05133,-0.06357 0.05133,-0.06357 0.04227,-0.05811 0.04227,-0.05811 0.06944,-0.07865 0.06945,-0.07865 3.26e-4,-0.01388 3.38e-4,-0.01388 0.03892,-0.02898 0.03892,-0.02898 0.07247,-0.08996 0.07246,-0.08996 0.04194,-0.03807 0.04194,-0.03806 0.06374,-0.06039 0.06374,-0.06039 0.03925,-0.03268 0.03925,-0.03269 0.03019,-0.02275 0.03019,-0.02275 0.04105,-0.01401 0.04105,-0.01401 h 0.04582 0.04582 l 0.0188,0.02684 0.0188,0.02684 v 0.03887 0.03887 l 0.01343,0.0083 0.01343,0.0083 -0.004,0.134324 -0.004,0.134323 0.0099,0.0755 0.0099,0.07551 0.01089,0.0067 0.01089,0.0067 -1.21e-4,0.02646 -1.21e-4,0.02646 0.02115,0.08454 0.02115,0.08454 0.01044,0.0076 0.01044,0.0076 -0.0082,0.0257 -0.0082,0.0257 0.01894,0.01894 0.01894,0.01894 v 0.01498 0.01498 l 0.03518,0.02601 0.03518,0.02601 0.008,0.03652 0.008,0.03652 0.04063,0.01928 0.04063,0.01928 0.0191,0.02915 0.0191,0.02915 h 0.01387 0.01387 l 0.01907,0.01656 0.01907,0.01656 0.108696,0.03876 0.108697,0.03876 0.09662,0.01814 0.09662,0.01814 0.217393,-0.0057 0.217393,-0.0057 0.04058,-0.01295 0.04058,-0.01295 0.117463,-0.0081 0.117462,-0.0081 0.04425,0.0146 0.04425,0.0146 v 0.02079 0.02079 l -0.03925,0.0137 -0.03925,0.0137 -0.04831,0.01231 -0.04831,0.01232 -0.03019,0.0062 -0.03019,0.0062 -0.144929,0.03137 -0.144929,0.03138 -0.05239,0.0095 -0.05238,0.0095 -0.15897,-0.0099 -0.158969,-0.0099 -0.06643,-0.01248 -0.06643,-0.01248 -0.06643,-0.02274 -0.06642,-0.02274 -0.07099,-0.02066 -0.07099,-0.02066 -0.05456,-0.05022 -0.05455,-0.05022 -0.06306,-0.06202 -0.06306,-0.06202 -0.04324,-0.05663 -0.04324,-0.05663 -0.01376,-0.04439 -0.01376,-0.04439 -0.01832,-0.04068 -0.01832,-0.04068 -0.0017,-0.06197 -0.0017,-0.06197 -0.01,-0.0073 -0.01,-0.0073 -0.0046,-0.02894 -0.0046,-0.02894 -0.02083,-0.07246 -0.02083,-0.07246 -4.71e-4,-0.108696 -4.71e-4,-0.108697 0.0056,-0.01812 0.0056,-0.01812 -0.03984,-0.0038 -0.03984,-0.0038 -0.104105,0.08837 -0.104104,0.08837 -0.09157,0.114736 -0.09157,0.114735 -0.01057,0.0045 -0.01057,0.0045 -0.01681,0.01963 -0.01681,0.01962 -0.03728,0.04529 -0.03728,0.04529 h -0.0154 -0.0154 l -0.0143,0.03452 -0.0143,0.03452 -0.0385,0.04282 -0.0385,0.04282 -0.04227,0.0575 -0.04227,0.0575 -0.01442,0.03403 -0.01442,0.03403 -0.02606,0.02739 -0.02606,0.02739 -0.03171,0.04227 -0.03171,0.04227 -0.04303,0.05014 -0.04302,0.05014 -0.02368,0.04557 -0.02368,0.04557 -0.03925,0.05949 -0.03925,0.05949 v 0.01666 0.01666 l -0.0491,0.02505 -0.0491,0.02505 -0.03785,0.03617 -0.03785,0.03617 -0.04289,-0.0036 -0.04288,-0.0036 -0.0065,-0.0785 -0.0065,-0.0785 0.01457,-0.01208 0.01458,-0.01208 0.02646,-0.05737 0.02646,-0.05737 h 0.01075 0.01075 v -0.03036 -0.03036 l 0.01097,-0.02097 0.01097,-0.02097 0.04218,-0.09058 0.04218,-0.09058 0.01385,-0.05435 0.01385,-0.05435 0.01627,-0.03623 0.01627,-0.03623 0.01281,-0.03019 0.01281,-0.03019 0.03182,-0.09463 0.03182,-0.09463 0.005,-0.03822 0.005,-0.03822 0.01061,-0.06643 0.0106,-0.06643 0.01349,-0.04219 0.01349,-0.04219 -3.87e-4,-0.102738 -3.86e-4,-0.102737 -0.01773,-0.02344 -0.01773,-0.02344 v -0.01933 -0.01933 l -0.06669,-0.03271 -0.06669,-0.03271 h -0.06251 -0.06251 l -0.103285,0.01334 -0.103284,0.01334 -0.0613,0.02167 -0.0613,0.02167 -0.09293,0.01499 -0.09292,0.01499 -0.036,0.041 -0.03599,0.041 v 0.02295 0.02295 l 0.01301,0.034 0.01301,0.034 -0.01501,0.0711 -0.01501,0.0711 -0.01988,0.0052 -0.01988,0.0052 8.21e-4,0.05051 8.22e-4,0.05052 -0.03443,0.05174 -0.03443,0.05174 0.0063,0.01632 0.0063,0.01632 -0.03559,0.0341 -0.03559,0.0341 -0.0136,0.04539 -0.0136,0.04539 -0.03444,0.03069 -0.03444,0.03069 v 0.013 0.013 l -0.05241,0.06842 -0.05241,0.06842 -0.02307,0.03138 -0.02307,0.03138 -0.105669,0.140116 -0.105669,0.140117 -0.01913,0.01071 -0.01914,0.01071 -0.0749,0.07393 -0.0749,0.07393 -0.08354,0.04278 -0.08354,0.04278 h -0.0509 -0.0509 l -0.05361,-0.02298 -0.05361,-0.02298 -0.053,-0.09477 -0.053,-0.09477 -0.01626,-0.05435 -0.01626,-0.05435 -3.74e-4,-0.01812 -3.74e-4,-0.01812 0.0024,-0.232195 0.0024,-0.232195 -0.008,-0.0129 -0.008,-0.0129 0.01454,-0.01752 0.01454,-0.01752 -0.0059,-0.0225 -0.0059,-0.0225 0.0107,-0.01913 0.0107,-0.01913 0.006,-0.09887 0.006,-0.09887 0.0255,-0.08395 0.0255,-0.08395 -0.01321,-0.01322 -0.01321,-0.01322 -0.0307,0.01399 -0.0307,0.01399 -0.0134,0.03339 -0.0134,0.03339 -0.01279,0.0275 -0.01279,0.0275 -0.02785,0.007 -0.02785,0.007 -0.03636,0.04141 -0.03636,0.04141 v 0.01135 0.01135 l -0.03675,0.019 -0.03675,0.019 -0.01126,0.02961 -0.01126,0.02961 h -0.01826 -0.01826 l -0.03079,0.04877 -0.03079,0.04877 -0.02776,0.01265 -0.02776,0.01265 -0.02074,0.03512 -0.02074,0.03512 -0.02492,0.01334 -0.02492,0.01334 -0.03608,0.0411 -0.03608,0.0411 h -0.01716 -0.01716 l -0.05103,0.0557 -0.05103,0.0557 -0.05307,0.04092 -0.05307,0.04092 h -0.03366 -0.03365 l -0.0039,0.02486 -0.0039,0.02487 -0.108547,0.04894 -0.108546,0.04894 -0.09348,0.0064 -0.09348,0.0064 -0.07575,-0.01514 -0.07575,-0.01514 -0.03043,-0.02111 -0.03043,-0.02111 -0.02694,-0.0086 -0.02694,-0.0086 v -0.0082 -0.0082 l -0.03472,-0.03704 -0.03472,-0.03704 -0.02103,-0.04067 -0.02103,-0.04067 0.0083,-0.09137 0.0083,-0.09137 0.01881,-0.05755 0.01881,-0.05755 0.01063,-0.0066 0.01063,-0.0066 v -0.02948 -0.02948 h 0.01339 0.01339 l -0.008,-0.03177 -0.008,-0.03177 0.02256,-0.0256 0.02256,-0.0256 0.01563,-0.06643 0.01563,-0.06642 0.01678,-0.02675 0.01678,-0.02675 v -0.02387 -0.02387 l 0.01208,-0.0075 0.01208,-0.0075 v -0.02089 -0.02089 l 0.02313,-0.04538 0.02313,-0.04538 0.01458,-0.01756 0.01458,-0.01756 -0.01504,-0.01812 -0.01503,-0.01812 h -0.01453 -0.01453 l -0.02626,0.02795 -0.02626,0.02795 v 0.01462 0.01462 l -0.02975,0.01131 -0.02975,0.01131 -0.03103,0.06123 -0.03103,0.06123 -0.03583,0.0072 -0.03584,0.0072 v 0.02042 0.02042 l -0.03925,0.03755 -0.03925,0.03755 -0.02114,0.02305 -0.02114,0.02305 v 0.0138 0.0138 l -0.02895,0.01897 -0.02895,0.01897 -0.03446,0.05041 -0.03446,0.05041 -0.04831,0.04967 -0.04831,0.04967 -0.06341,0.06968 -0.06341,0.06968 v 0.01645 0.01645 l -0.02415,0.01293 -0.02416,0.01293 v 0.02285 0.02285 l -0.03119,0.02453 -0.03119,0.02453 -0.02466,0.0078 -0.02466,0.0078 -0.03551,0.04044 -0.03551,0.04044 -0.02941,0.04335 -0.02942,0.04335 v 0.01727 0.01727 l -0.03606,0.01865 -0.03606,0.01865 -0.0076,0.03029 -0.0076,0.03029 -0.02276,0.01218 -0.02276,0.01218 v 0.01829 0.01829 l -0.175419,0.175254 -0.175418,0.175254 -0.08123,0.0557 -0.08123,0.0557 -0.06022,0.02208 -0.06022,0.02208 -0.07263,-4.23e-4 -0.07263,-4.22e-4 -0.06183,-0.02893 z m 4.355347,-1.785824 0.0785,-0.02853 0.06341,-0.02094 0.06341,-0.02094 v -0.01527 -0.01527 l -0.02338,-0.02116 -0.02338,-0.02116 -0.09837,-0.01189 -0.09837,-0.01189 -0.02196,0.01988 -0.02197,0.01988 -0.03835,0.0011 -0.03835,0.0011 -0.06294,0.03266 -0.06294,0.03266 -0.02673,0.01669 -0.02673,0.01669 v 0.0194 0.0194 l 0.02717,0.01397 0.02717,0.01397 0.102658,-0.0059 0.102658,-0.0059 0.0785,-0.02853 z m -3.42998,-0.821931 v -0.0047 l -0.0166,-0.03199 -0.0166,-0.03199 -0.007,0.02667 -0.007,0.02667 0.0062,0.01 0.0062,0.01 h 0.0174 0.0174 z m -13.0677407,2.601297 -0.018116,-0.01171 0.033926,-1.85e-4 0.033926,-1.85e-4 -0.00746,0.01208 -0.00746,0.01208 -0.00835,-1.85e-4 -0.00835,-1.85e-4 z m 7.1862347,-1.265107 1.85e-4,-0.02114 0.01123,-0.01777 0.01124,-0.01777 0.0091,0.0091 0.0091,0.0091 0.003,0.02049 0.003,0.02049 -0.01443,0.0092 -0.01443,0.0092 -0.0091,1.85e-4 -0.0091,1.85e-4 1.85e-4,-0.02114 z m 5.579999,-0.652179 4.23e-4,-0.0091 0.01684,-0.03019 0.01684,-0.03019 0.0115,0.03019 0.0115,0.03019 -0.0053,0.0091 -0.0053,0.0091 H 21.52 21.49656 l 4.23e-4,-0.0091 z m 2.843971,-0.77711 -0.08437,-0.0365 -0.01924,-0.01741 -0.01924,-0.01741 h -0.0099 -0.0099 l -0.06164,-0.04129 -0.06164,-0.041288 -0.06039,-0.059229 -0.06039,-0.059229 -0.05273,-0.05649 -0.05273,-0.056489 h -0.01426 -0.01426 L 23.775498,9.688855 23.730778,9.643056 V 9.61571 9.588364 l 0.03925,-0.035995 0.03925,-0.035995 0.02904,-0.00737 0.02904,-0.00737 0.01846,0.011644 0.01846,0.011644 0.0087,0.017309 0.0087,0.017309 0.02838,0.057719 0.02838,0.057719 0.03019,0.030052 0.03019,0.030052 0.138093,0.1356611 0.138093,0.1356609 0.04442,0.02416 0.04442,0.02416 0.04535,0.05133 0.04535,0.05133 -0.03462,-4.33e-4 -0.03462,-4.33e-4 z m -4.446982,-0.1615064 -0.03856,-0.01677 -0.02378,-0.046164 -0.02378,-0.046164 -0.05157,-0.039252 -0.05157,-0.039251 h -0.0079 -0.0079 l -0.01537,-0.046581 -0.01537,-0.046581 0.0076,-0.024051 0.0076,-0.024051 0.0299,-0.013621 0.02989,-0.013621 0.03932,0.00745 0.03932,0.00745 0.0151,0.011857 0.0151,0.011857 v 0.027236 0.027236 l 0.01812,0.015035 0.01812,0.015035 3.39e-4,0.013618 3.38e-4,0.013618 0.0359,0.047442 0.0359,0.047442 v 0.022003 0.022003 h -0.01418 -0.01418 l 0.02626,0.027952 0.02626,0.027953 v 0.014318 0.014318 l -0.02113,-4.722e-4 -0.02114,-4.723e-4 -0.03856,-0.01677 z M 8.7488194,7.58487 8.7413552,7.5727926 h 0.024868 0.024868 V 7.58487 7.5969474 H 8.773687 8.7562836 Z"
       id="path858" /></g></svg>
