<?xml version="1.0" encoding="UTF-8" standalone="no"?>
<!-- Created with Inkscape (http://www.inkscape.org/) -->

<svg
   width="10.158657mm"
   height="8.0671234mm"
   viewBox="0 0 10.158657 8.0671234"
   version="1.1"
   id="svg5"
   xml:space="preserve"
   sodipodi:docname="C:\Users\jiangjun\AppData\Local\Temp\ink_ext_XXXXXX.svgDKOTQ2"
   xmlns:inkscape="http://www.inkscape.org/namespaces/inkscape"
   xmlns:sodipodi="http://sodipodi.sourceforge.net/DTD/sodipodi-0.dtd"
   xmlns="http://www.w3.org/2000/svg"
   xmlns:svg="http://www.w3.org/2000/svg"><sodipodi:namedview
     id="namedview7"
     pagecolor="#ffffff"
     bordercolor="#666666"
     borderopacity="1.0"
     inkscape:showpageshadow="2"
     inkscape:pageopacity="0.0"
     inkscape:pagecheckerboard="0"
     inkscape:deskcolor="#d1d1d1"
     inkscape:document-units="mm"
     showgrid="false"
     inkscape:zoom="3.3638608"
     inkscape:cx="229.79548"
     inkscape:cy="516.37095"
     inkscape:window-width="3840"
     inkscape:window-height="2054"
     inkscape:window-x="-11"
     inkscape:window-y="-11"
     inkscape:window-maximized="1"
     inkscape:current-layer="layer1" /><defs
     id="defs2"><clipPath
       id="clipPath6835">
      <path
   clip-rule="nonzero"
   d="m 7,2 h 4 V 5.921875 H 7 Z m 0,0"
   id="path221" />
    </clipPath><clipPath
       clipPathUnits="userSpaceOnUse"
       id="clipPath5589"><g
         id="g5595"><g
           id="g5593"><path
             d="M 51.916046,96.538197 H 62.375132 V 69.720029 H 51.916046 Z"
             id="path5591"
             style="stroke-width:0.0670454" /></g></g></clipPath></defs><g
     inkscape:label="图层 1"
     inkscape:groupmode="layer"
     id="layer1"
     transform="translate(-52.051206,-78.193739)"><path
       d="m 52.05121,84.708636 9.217136,-4.686408 -0.738036,-0.789057 1.532926,0.518261 0.146629,1.370274 -0.519602,-0.662073 -8.424392,5.801239 z"
       style="fill:#008000;fill-opacity:1;fill-rule:nonzero;stroke:none;stroke-width:0.0670454"
       id="path266"
       clip-path="url(#clipPath5589)" /><g
       inkscape:label=""
       transform="matrix(1.5,0,0,1.5,52.051208,78.193739)"
       id="g4529"
       style="fill:#008000;fill-opacity:1"><g
   fill="#000000"
   fill-opacity="1"
   id="g19"
   transform="matrix(0.352778,0,0,0.352778,-0.0771701,0.0309122)"
   style="fill:#008000;fill-opacity:1">
    <g
   id="use17"
   transform="translate(0,4.428)"
   style="fill:#008000;fill-opacity:1">
      <path
   d="M 3.609375,-1.390625 C 3.859375,-1.859375 4,-2.34375 4,-2.515625 c 0,-0.21875 -0.125,-0.4375 -0.375,-0.4375 -0.625,0 -0.6875,1.0625 -0.703125,1.328125 C 2.90625,-1.46875 2.90625,-1.46875 2.890625,-1.453125 2.734375,-1.3125 2.3125,-1.015625 1.78125,-1.015625 1.125,-1.015625 0.75,-1.453125 0.75,-2 c 0,-0.3125 0.171875,-1.0625 0.859375,-2 0.09375,-0.109375 0.109375,-0.140625 0.109375,-0.21875 0,-0.125 -0.09375,-0.203125 -0.203125,-0.203125 -0.09375,0 -0.15625,0.0625 -0.171875,0.0625 -0.046875,0.046875 -1.125,1.34375 -1.125,2.78125 0,1 0.515625,1.65625 1.359375,1.65625 0.703125,0 1.265625,-0.484375 1.484375,-0.71875 0.125,0.296875 0.421875,0.71875 1.078125,0.71875 0.859375,0 1.625,-0.625 2.0625,-1.296875 0.609375,-0.953125 0.6875,-2.234375 0.6875,-2.375 0,-0.765625 -0.453125,-0.921875 -0.65625,-0.921875 -0.375,0 -0.765625,0.40625 -0.765625,0.75 0,0.265625 0.1875,0.390625 0.296875,0.46875 0.25,0.171875 0.46875,0.40625 0.46875,0.71875 0,0.671875 -0.84375,1.5625 -1.890625,1.5625 -0.28125,0 -0.5625,-0.078125 -0.734375,-0.375 z m 0,0"
   id="path31"
   style="fill:#008000;fill-opacity:1" />
    </g>
  </g>
  <g
   clip-path="url(#clipPath6835)"
   id="g25"
   transform="matrix(0.352778,0,0,0.352778,-0.0771701,0.0309122)"
   style="fill:#008000;fill-opacity:1">
    <g
   fill="#000000"
   fill-opacity="1"
   id="g23"
   style="fill:#008000;fill-opacity:1">
      <g
   id="use21"
   transform="translate(7.151,5.9219999)"
   style="fill:#008000;fill-opacity:1">
        <path
   d="m 3.6875,-1.484375 c 0,-0.875 -0.75,-1.625 -1.703125,-1.625 -0.96875,0 -1.71875,0.75 -1.71875,1.625 0,0.859375 0.765625,1.546875 1.71875,1.546875 0.9375,0 1.703125,-0.6875 1.703125,-1.546875 z M 1.984375,-0.15625 c -0.265625,0 -0.640625,-0.078125 -0.875,-0.421875 -0.1875,-0.28125 -0.203125,-0.640625 -0.203125,-0.96875 0,-0.296875 0,-0.71875 0.25,-1.015625 0.171875,-0.203125 0.46875,-0.34375 0.828125,-0.34375 0.40625,0 0.703125,0.1875 0.859375,0.40625 0.1875,0.265625 0.203125,0.625 0.203125,0.953125 0,0.328125 -0.015625,0.703125 -0.21875,0.984375 -0.1875,0.265625 -0.5,0.40625 -0.84375,0.40625 z m 0,0"
   id="path35"
   style="fill:#008000;fill-opacity:1" />
      </g>
    </g>
  </g>
</g></g></svg>
