<svg id="Layer_1" data-name="Layer 1" xmlns="http://www.w3.org/2000/svg" viewBox="0 0 358.8 328.73"><defs><style>.cls-1{fill:#ccc;stroke-width:0.5px;}.cls-1,.cls-2,.cls-3{stroke:#000;stroke-miterlimit:10;}.cls-2{fill:none;}</style></defs><title>Box discrepancy</title><polygon class="cls-1" points="45.65 208.21 126.37 208.21 126.37 288.29 46.08 288.29 45.65 208.21"/><rect class="cls-2" x="45.93" y="18.74" width="269.71" height="269.71"/><path d="M15.92,289.57a13.19,13.19,0,0,0-2.52,8.18,13.48,13.48,0,0,0,2.52,8.12H14.54a12.93,12.93,0,0,1-2.62-8.12,13.2,13.2,0,0,1,2.62-8.18Z"/><path d="M25.86,296.81c0,4.42-1.64,6.86-4.52,6.86-2.54,0-4.26-2.38-4.3-6.68s1.88-6.76,4.52-6.76S25.86,292.67,25.86,296.81Zm-7.06.2c0,3.38,1,5.3,2.64,5.3,1.8,0,2.66-2.1,2.66-5.42s-.82-5.3-2.64-5.3C19.92,291.59,18.8,293.47,18.8,297Z"/><path d="M26.9,305.91a28.78,28.78,0,0,0,1.2-4.78l2-.2a24.38,24.38,0,0,1-1.9,4.86Z"/><path d="M40.26,296.81c0,4.42-1.64,6.86-4.52,6.86-2.54,0-4.26-2.38-4.3-6.68s1.88-6.76,4.52-6.76S40.26,292.67,40.26,296.81Zm-7.06.2c0,3.38,1,5.3,2.64,5.3,1.8,0,2.66-2.1,2.66-5.42s-.82-5.3-2.64-5.3C34.32,291.59,33.2,293.47,33.2,297Z"/><path d="M41.38,305.87a13.54,13.54,0,0,0,2.52-8.18,13.26,13.26,0,0,0-2.52-8.12h1.36a12.74,12.74,0,0,1,2.62,8.14,13,13,0,0,1-2.62,8.16Z"/><path d="M328.06,2.86A13.19,13.19,0,0,0,325.54,11a13.48,13.48,0,0,0,2.52,8.12h-1.38A12.93,12.93,0,0,1,324.06,11a13.2,13.2,0,0,1,2.62-8.18Z"/><path d="M333.18,5.38h0L330.88,6.6l-.34-1.34,2.84-1.52h1.5v13h-1.7Z"/><path d="M339,19.2a28.78,28.78,0,0,0,1.2-4.78l2-.2a24.38,24.38,0,0,1-1.9,4.86Z"/><path d="M347.58,5.38h0L345.28,6.6l-.34-1.34,2.84-1.52h1.5v13h-1.7Z"/><path d="M353.52,19.16A13.54,13.54,0,0,0,356,11a13.26,13.26,0,0,0-2.52-8.12h1.36A12.74,12.74,0,0,1,357.5,11a13,13,0,0,1-2.62,8.16Z"/><line class="cls-2" x1="41.03" y1="208.28" x2="27.1" y2="208.28"/><path d="M9.54,208.37c0,4.42-1.64,6.86-4.52,6.86-2.54,0-4.26-2.38-4.3-6.68s1.88-6.76,4.52-6.76S9.54,204.23,9.54,208.37Zm-7.06.2c0,3.38,1,5.3,2.64,5.3,1.8,0,2.66-2.1,2.66-5.42s-.82-5.3-2.64-5.3C3.6,203.15,2.48,205,2.48,208.57Z"/><path d="M11.3,214a1.18,1.18,0,0,1,1.2-1.26A1.26,1.26,0,1,1,11.3,214Z"/><path d="M15.72,213a5.88,5.88,0,0,0,2.88.82c2.26,0,3-1.44,2.94-2.52,0-1.82-1.66-2.6-3.36-2.6h-1v-1.32h1c1.28,0,2.9-.66,2.9-2.2,0-1-.66-2-2.28-2a4.77,4.77,0,0,0-2.6.86l-.46-1.28a6.18,6.18,0,0,1,3.4-1c2.56,0,3.72,1.52,3.72,3.1a3.23,3.23,0,0,1-2.4,3.06v0a3.39,3.39,0,0,1,2.9,3.34c0,2.08-1.62,3.9-4.74,3.9a6.61,6.61,0,0,1-3.38-.88Z"/><path d="M123.6,317.09c0,4.42-1.64,6.86-4.52,6.86-2.55,0-4.27-2.38-4.31-6.68s1.88-6.76,4.52-6.76S123.6,313,123.6,317.09Zm-7.07.2c0,3.38,1,5.3,2.64,5.3,1.81,0,2.66-2.1,2.66-5.42s-.81-5.3-2.64-5.3C117.65,311.87,116.53,313.75,116.53,317.29Z"/><path d="M125.35,322.69a1.18,1.18,0,0,1,1.2-1.26,1.26,1.26,0,1,1-1.2,1.26Z"/><path d="M129.77,321.71a5.88,5.88,0,0,0,2.88.82c2.26,0,3-1.44,2.94-2.52,0-1.82-1.66-2.6-3.36-2.6h-1v-1.32h1c1.28,0,2.9-.66,2.9-2.2,0-1-.66-2-2.28-2a4.77,4.77,0,0,0-2.6.86l-.46-1.28a6.18,6.18,0,0,1,3.4-1c2.56,0,3.73,1.52,3.73,3.1a3.23,3.23,0,0,1-2.41,3.06v0a3.39,3.39,0,0,1,2.91,3.34c0,2.08-1.63,3.9-4.75,3.9a6.61,6.61,0,0,1-3.38-.88Z"/><line class="cls-2" x1="126.41" y1="293.85" x2="126.41" y2="307.49"/><circle class="cls-3" cx="106.64" cy="228.71" r="5.17"/><circle class="cls-3" cx="136.73" cy="58.83" r="5.17"/><circle class="cls-3" cx="220.44" cy="230.57" r="5.17"/><circle class="cls-3" cx="290.44" cy="103.9" r="5.17"/></svg>