<?xml version="1.0" encoding="UTF-8"?>
<svg xmlns="http://www.w3.org/2000/svg" xmlns:xlink="http://www.w3.org/1999/xlink" width="300pt" height="300pt" viewBox="0 0 300 300" version="1.1">
<g id="surface381">
<path style="fill:none;stroke-width:0.5;stroke-linecap:butt;stroke-linejoin:miter;stroke:rgb(0%,0%,0%);stroke-opacity:0.4;stroke-miterlimit:3.25;" d="M 74.25 311.75 L 74.25 13.25 " transform="matrix(1,0,0,1,-74,-13)"/>
<path style="fill:none;stroke-width:0.5;stroke-linecap:butt;stroke-linejoin:miter;stroke:rgb(0%,0%,0%);stroke-opacity:0.4;stroke-miterlimit:3.25;" d="M 372.75 311.75 L 372.75 13.25 " transform="matrix(1,0,0,1,-74,-13)"/>
<path style="fill:none;stroke-width:0.5;stroke-linecap:butt;stroke-linejoin:miter;stroke:rgb(0%,0%,0%);stroke-opacity:0.4;stroke-miterlimit:3.25;" d="M 74.25 311.75 L 372.75 311.75 " transform="matrix(1,0,0,1,-74,-13)"/>
<path style="fill:none;stroke-width:0.5;stroke-linecap:butt;stroke-linejoin:miter;stroke:rgb(0%,0%,0%);stroke-opacity:0.4;stroke-miterlimit:3.25;" d="M 74.25 293.09375 L 372.75 293.09375 " transform="matrix(1,0,0,1,-74,-13)"/>
<path style="fill:none;stroke-width:0.5;stroke-linecap:butt;stroke-linejoin:miter;stroke:rgb(0%,0%,0%);stroke-opacity:0.4;stroke-miterlimit:3.25;" d="M 74.25 274.4375 L 372.75 274.4375 " transform="matrix(1,0,0,1,-74,-13)"/>
<path style="fill:none;stroke-width:0.5;stroke-linecap:butt;stroke-linejoin:miter;stroke:rgb(0%,0%,0%);stroke-opacity:0.4;stroke-miterlimit:3.25;" d="M 74.25 255.78125 L 372.75 255.78125 " transform="matrix(1,0,0,1,-74,-13)"/>
<path style="fill:none;stroke-width:0.5;stroke-linecap:butt;stroke-linejoin:miter;stroke:rgb(0%,0%,0%);stroke-opacity:0.4;stroke-miterlimit:3.25;" d="M 74.25 237.125 L 372.75 237.125 " transform="matrix(1,0,0,1,-74,-13)"/>
<path style="fill:none;stroke-width:0.5;stroke-linecap:butt;stroke-linejoin:miter;stroke:rgb(0%,0%,0%);stroke-opacity:0.4;stroke-miterlimit:3.25;" d="M 74.25 218.46875 L 372.75 218.46875 " transform="matrix(1,0,0,1,-74,-13)"/>
<path style="fill:none;stroke-width:0.5;stroke-linecap:butt;stroke-linejoin:miter;stroke:rgb(0%,0%,0%);stroke-opacity:0.4;stroke-miterlimit:3.25;" d="M 74.25 199.8125 L 372.75 199.8125 " transform="matrix(1,0,0,1,-74,-13)"/>
<path style="fill:none;stroke-width:0.5;stroke-linecap:butt;stroke-linejoin:miter;stroke:rgb(0%,0%,0%);stroke-opacity:0.4;stroke-miterlimit:3.25;" d="M 74.25 181.15625 L 372.75 181.15625 " transform="matrix(1,0,0,1,-74,-13)"/>
<path style="fill:none;stroke-width:0.5;stroke-linecap:butt;stroke-linejoin:miter;stroke:rgb(0%,0%,0%);stroke-opacity:0.4;stroke-miterlimit:3.25;" d="M 74.25 162.5 L 372.75 162.5 " transform="matrix(1,0,0,1,-74,-13)"/>
<path style="fill:none;stroke-width:0.5;stroke-linecap:butt;stroke-linejoin:miter;stroke:rgb(0%,0%,0%);stroke-opacity:0.4;stroke-miterlimit:3.25;" d="M 74.25 143.84375 L 372.75 143.84375 " transform="matrix(1,0,0,1,-74,-13)"/>
<path style="fill:none;stroke-width:0.5;stroke-linecap:butt;stroke-linejoin:miter;stroke:rgb(0%,0%,0%);stroke-opacity:0.4;stroke-miterlimit:3.25;" d="M 74.25 125.1875 L 372.75 125.1875 " transform="matrix(1,0,0,1,-74,-13)"/>
<path style="fill:none;stroke-width:0.5;stroke-linecap:butt;stroke-linejoin:miter;stroke:rgb(0%,0%,0%);stroke-opacity:0.4;stroke-miterlimit:3.25;" d="M 74.25 106.53125 L 372.75 106.53125 " transform="matrix(1,0,0,1,-74,-13)"/>
<path style="fill:none;stroke-width:0.5;stroke-linecap:butt;stroke-linejoin:miter;stroke:rgb(0%,0%,0%);stroke-opacity:0.4;stroke-miterlimit:3.25;" d="M 74.25 87.875 L 372.75 87.875 " transform="matrix(1,0,0,1,-74,-13)"/>
<path style="fill:none;stroke-width:0.5;stroke-linecap:butt;stroke-linejoin:miter;stroke:rgb(0%,0%,0%);stroke-opacity:0.4;stroke-miterlimit:3.25;" d="M 74.25 69.21875 L 372.75 69.21875 " transform="matrix(1,0,0,1,-74,-13)"/>
<path style="fill:none;stroke-width:0.5;stroke-linecap:butt;stroke-linejoin:miter;stroke:rgb(0%,0%,0%);stroke-opacity:0.4;stroke-miterlimit:3.25;" d="M 74.25 50.5625 L 372.75 50.5625 " transform="matrix(1,0,0,1,-74,-13)"/>
<path style="fill:none;stroke-width:0.5;stroke-linecap:butt;stroke-linejoin:miter;stroke:rgb(0%,0%,0%);stroke-opacity:0.4;stroke-miterlimit:3.25;" d="M 74.25 31.90625 L 372.75 31.90625 " transform="matrix(1,0,0,1,-74,-13)"/>
<path style="fill:none;stroke-width:0.5;stroke-linecap:butt;stroke-linejoin:miter;stroke:rgb(0%,0%,0%);stroke-opacity:0.4;stroke-miterlimit:3.25;" d="M 74.25 13.25 L 372.75 13.25 " transform="matrix(1,0,0,1,-74,-13)"/>
<path style=" stroke:none;fill-rule:evenodd;fill:rgb(36.84082%,50.67749%,70.979309%);fill-opacity:1;" d="M 128.984375 240 C 128.984375 239.207031 128.671875 238.449219 128.109375 237.890625 C 127.550781 237.328125 126.792969 237.015625 126 237.015625 C 125.207031 237.015625 124.449219 237.328125 123.890625 237.890625 C 123.328125 238.449219 123.015625 239.207031 123.015625 240 C 123.015625 240.792969 123.328125 241.550781 123.890625 242.109375 C 124.449219 242.671875 125.207031 242.984375 126 242.984375 C 126.792969 242.984375 127.550781 242.671875 128.109375 242.109375 C 128.671875 241.550781 128.984375 240.792969 128.984375 240 Z M 128.984375 240 "/>
<path style=" stroke:none;fill-rule:evenodd;fill:rgb(36.84082%,50.67749%,70.979309%);fill-opacity:1;" d="M 277.984375 91 C 277.984375 90.207031 277.671875 89.449219 277.109375 88.890625 C 276.550781 88.328125 275.792969 88.015625 275 88.015625 C 274.207031 88.015625 273.449219 88.328125 272.890625 88.890625 C 272.328125 89.449219 272.015625 90.207031 272.015625 91 C 272.015625 91.792969 272.328125 92.550781 272.890625 93.109375 C 273.449219 93.671875 274.207031 93.984375 275 93.984375 C 275.792969 93.984375 276.550781 93.671875 277.109375 93.109375 C 277.671875 92.550781 277.984375 91.792969 277.984375 91 Z M 277.984375 91 "/>
<path style=" stroke:none;fill-rule:evenodd;fill:rgb(36.84082%,50.67749%,70.979309%);fill-opacity:1;" d="M 53.984375 16 C 53.984375 15.207031 53.671875 14.449219 53.109375 13.890625 C 52.550781 13.328125 51.792969 13.015625 51 13.015625 C 50.207031 13.015625 49.449219 13.328125 48.890625 13.890625 C 48.328125 14.449219 48.015625 15.207031 48.015625 16 C 48.015625 16.792969 48.328125 17.550781 48.890625 18.109375 C 49.449219 18.671875 50.207031 18.984375 51 18.984375 C 51.792969 18.984375 52.550781 18.671875 53.109375 18.109375 C 53.671875 17.550781 53.984375 16.792969 53.984375 16 Z M 53.984375 16 "/>
<path style=" stroke:none;fill-rule:evenodd;fill:rgb(36.84082%,50.67749%,70.979309%);fill-opacity:1;" d="M 202.984375 165 C 202.984375 164.207031 202.671875 163.449219 202.109375 162.890625 C 201.550781 162.328125 200.792969 162.015625 200 162.015625 C 199.207031 162.015625 198.449219 162.328125 197.890625 162.890625 C 197.328125 163.449219 197.015625 164.207031 197.015625 165 C 197.015625 165.792969 197.328125 166.550781 197.890625 167.109375 C 198.449219 167.671875 199.207031 167.984375 200 167.984375 C 200.792969 167.984375 201.550781 167.671875 202.109375 167.109375 C 202.671875 166.550781 202.984375 165.792969 202.984375 165 Z M 202.984375 165 "/>
<path style=" stroke:none;fill-rule:evenodd;fill:rgb(36.84082%,50.67749%,70.979309%);fill-opacity:1;" d="M 90.984375 128 C 90.984375 127.207031 90.671875 126.449219 90.109375 125.890625 C 89.550781 125.328125 88.792969 125.015625 88 125.015625 C 87.207031 125.015625 86.449219 125.328125 85.890625 125.890625 C 85.328125 126.449219 85.015625 127.207031 85.015625 128 C 85.015625 128.792969 85.328125 129.550781 85.890625 130.109375 C 86.449219 130.671875 87.207031 130.984375 88 130.984375 C 88.792969 130.984375 89.550781 130.671875 90.109375 130.109375 C 90.671875 129.550781 90.984375 128.792969 90.984375 128 Z M 90.984375 128 "/>
<path style=" stroke:none;fill-rule:evenodd;fill:rgb(36.84082%,50.67749%,70.979309%);fill-opacity:1;" d="M 240.984375 277 C 240.984375 276.207031 240.671875 275.449219 240.109375 274.890625 C 239.550781 274.328125 238.792969 274.015625 238 274.015625 C 237.207031 274.015625 236.449219 274.328125 235.890625 274.890625 C 235.328125 275.449219 235.015625 276.207031 235.015625 277 C 235.015625 277.792969 235.328125 278.550781 235.890625 279.109375 C 236.449219 279.671875 237.207031 279.984375 238 279.984375 C 238.792969 279.984375 239.550781 279.671875 240.109375 279.109375 C 240.671875 278.550781 240.984375 277.792969 240.984375 277 Z M 240.984375 277 "/>
<path style=" stroke:none;fill-rule:evenodd;fill:rgb(36.84082%,50.67749%,70.979309%);fill-opacity:1;" d="M 16.984375 203 C 16.984375 202.207031 16.671875 201.449219 16.109375 200.890625 C 15.550781 200.328125 14.792969 200.015625 14 200.015625 C 13.207031 200.015625 12.449219 200.328125 11.890625 200.890625 C 11.328125 201.449219 11.015625 202.207031 11.015625 203 C 11.015625 203.792969 11.328125 204.550781 11.890625 205.109375 C 12.449219 205.671875 13.207031 205.984375 14 205.984375 C 14.792969 205.984375 15.550781 205.671875 16.109375 205.109375 C 16.671875 204.550781 16.984375 203.792969 16.984375 203 Z M 16.984375 203 "/>
<path style=" stroke:none;fill-rule:evenodd;fill:rgb(36.84082%,50.67749%,70.979309%);fill-opacity:1;" d="M 165.984375 53 C 165.984375 52.207031 165.671875 51.449219 165.109375 50.890625 C 164.550781 50.328125 163.792969 50.015625 163 50.015625 C 162.207031 50.015625 161.449219 50.328125 160.890625 50.890625 C 160.328125 51.449219 160.015625 52.207031 160.015625 53 C 160.015625 53.792969 160.328125 54.550781 160.890625 55.109375 C 161.449219 55.671875 162.207031 55.984375 163 55.984375 C 163.792969 55.984375 164.550781 55.671875 165.109375 55.109375 C 165.671875 54.550781 165.984375 53.792969 165.984375 53 Z M 165.984375 53 "/>
<path style=" stroke:none;fill-rule:evenodd;fill:rgb(36.84082%,50.67749%,70.979309%);fill-opacity:1;" d="M 146.984375 72 C 146.984375 71.207031 146.671875 70.449219 146.109375 69.890625 C 145.550781 69.328125 144.792969 69.015625 144 69.015625 C 143.207031 69.015625 142.449219 69.328125 141.890625 69.890625 C 141.328125 70.449219 141.015625 71.207031 141.015625 72 C 141.015625 72.792969 141.328125 73.550781 141.890625 74.109375 C 142.449219 74.671875 143.207031 74.984375 144 74.984375 C 144.792969 74.984375 145.550781 74.671875 146.109375 74.109375 C 146.671875 73.550781 146.984375 72.792969 146.984375 72 Z M 146.984375 72 "/>
<path style=" stroke:none;fill-rule:evenodd;fill:rgb(36.84082%,50.67749%,70.979309%);fill-opacity:1;" d="M 296.984375 221 C 296.984375 220.207031 296.671875 219.449219 296.109375 218.890625 C 295.550781 218.328125 294.792969 218.015625 294 218.015625 C 293.207031 218.015625 292.449219 218.328125 291.890625 218.890625 C 291.328125 219.449219 291.015625 220.207031 291.015625 221 C 291.015625 221.792969 291.328125 222.550781 291.890625 223.109375 C 292.449219 223.671875 293.207031 223.984375 294 223.984375 C 294.792969 223.984375 295.550781 223.671875 296.109375 223.109375 C 296.671875 222.550781 296.984375 221.792969 296.984375 221 Z M 296.984375 221 "/>
<path style=" stroke:none;fill-rule:evenodd;fill:rgb(36.84082%,50.67749%,70.979309%);fill-opacity:1;" d="M 72.984375 296 C 72.984375 295.207031 72.671875 294.449219 72.109375 293.890625 C 71.550781 293.328125 70.792969 293.015625 70 293.015625 C 69.207031 293.015625 68.449219 293.328125 67.890625 293.890625 C 67.328125 294.449219 67.015625 295.207031 67.015625 296 C 67.015625 296.792969 67.328125 297.550781 67.890625 298.109375 C 68.449219 298.671875 69.207031 298.984375 70 298.984375 C 70.792969 298.984375 71.550781 298.671875 72.109375 298.109375 C 72.671875 297.550781 72.984375 296.792969 72.984375 296 Z M 72.984375 296 "/>
<path style=" stroke:none;fill-rule:evenodd;fill:rgb(36.84082%,50.67749%,70.979309%);fill-opacity:1;" d="M 221.984375 147 C 221.984375 146.207031 221.671875 145.449219 221.109375 144.890625 C 220.550781 144.328125 219.792969 144.015625 219 144.015625 C 218.207031 144.015625 217.449219 144.328125 216.890625 144.890625 C 216.328125 145.449219 216.015625 146.207031 216.015625 147 C 216.015625 147.792969 216.328125 148.550781 216.890625 149.109375 C 217.449219 149.671875 218.207031 149.984375 219 149.984375 C 219.792969 149.984375 220.550781 149.671875 221.109375 149.109375 C 221.671875 148.550781 221.984375 147.792969 221.984375 147 Z M 221.984375 147 "/>
<path style=" stroke:none;fill-rule:evenodd;fill:rgb(36.84082%,50.67749%,70.979309%);fill-opacity:1;" d="M 109.984375 184 C 109.984375 183.207031 109.671875 182.449219 109.109375 181.890625 C 108.550781 181.328125 107.792969 181.015625 107 181.015625 C 106.207031 181.015625 105.449219 181.328125 104.890625 181.890625 C 104.328125 182.449219 104.015625 183.207031 104.015625 184 C 104.015625 184.792969 104.328125 185.550781 104.890625 186.109375 C 105.449219 186.671875 106.207031 186.984375 107 186.984375 C 107.792969 186.984375 108.550781 186.671875 109.109375 186.109375 C 109.671875 185.550781 109.984375 184.792969 109.984375 184 Z M 109.984375 184 "/>
<path style=" stroke:none;fill-rule:evenodd;fill:rgb(36.84082%,50.67749%,70.979309%);fill-opacity:1;" d="M 258.984375 35 C 258.984375 34.207031 258.671875 33.449219 258.109375 32.890625 C 257.550781 32.328125 256.792969 32.015625 256 32.015625 C 255.207031 32.015625 254.449219 32.328125 253.890625 32.890625 C 253.328125 33.449219 253.015625 34.207031 253.015625 35 C 253.015625 35.792969 253.328125 36.550781 253.890625 37.109375 C 254.449219 37.671875 255.207031 37.984375 256 37.984375 C 256.792969 37.984375 257.550781 37.671875 258.109375 37.109375 C 258.671875 36.550781 258.984375 35.792969 258.984375 35 Z M 258.984375 35 "/>
<path style=" stroke:none;fill-rule:evenodd;fill:rgb(36.84082%,50.67749%,70.979309%);fill-opacity:1;" d="M 34.984375 109 C 34.984375 108.207031 34.671875 107.449219 34.109375 106.890625 C 33.550781 106.328125 32.792969 106.015625 32 106.015625 C 31.207031 106.015625 30.449219 106.328125 29.890625 106.890625 C 29.328125 107.449219 29.015625 108.207031 29.015625 109 C 29.015625 109.792969 29.328125 110.550781 29.890625 111.109375 C 30.449219 111.671875 31.207031 111.984375 32 111.984375 C 32.792969 111.984375 33.550781 111.671875 34.109375 111.109375 C 34.671875 110.550781 34.984375 109.792969 34.984375 109 Z M 34.984375 109 "/>
<path style=" stroke:none;fill-rule:evenodd;fill:rgb(36.84082%,50.67749%,70.979309%);fill-opacity:1;" d="M 184.984375 259 C 184.984375 258.207031 184.671875 257.449219 184.109375 256.890625 C 183.550781 256.328125 182.792969 256.015625 182 256.015625 C 181.207031 256.015625 180.449219 256.328125 179.890625 256.890625 C 179.328125 257.449219 179.015625 258.207031 179.015625 259 C 179.015625 259.792969 179.328125 260.550781 179.890625 261.109375 C 180.449219 261.671875 181.207031 261.984375 182 261.984375 C 182.792969 261.984375 183.550781 261.671875 184.109375 261.109375 C 184.671875 260.550781 184.984375 259.792969 184.984375 259 Z M 184.984375 259 "/>
</g>
</svg>
