<?xml version="1.0" encoding="UTF-8"?>
<svg xmlns="http://www.w3.org/2000/svg" xmlns:xlink="http://www.w3.org/1999/xlink" width="300pt" height="203pt" viewBox="0 0 300 203" version="1.1">
<defs>
<clipPath id="clip1">
  <path d="M 11 0 L 288 0 L 288 185 L 11 185 Z M 11 0 "/>
</clipPath>
</defs>
<g id="surface91">
<g clip-path="url(#clip1)" clip-rule="nonzero">
<path style="fill:none;stroke-width:1.6;stroke-linecap:square;stroke-linejoin:miter;stroke:rgb(36.84082%,50.67749%,70.979309%);stroke-opacity:1;stroke-miterlimit:3.25;" d="M 93.125 197.671875 L 94.484375 197.671875 L 94.566406 197.667969 L 95.042969 197.667969 L 95.125 197.664062 L 95.363281 197.664062 L 95.445312 197.660156 L 95.605469 197.660156 L 95.683594 197.65625 L 95.765625 197.65625 L 95.84375 197.652344 L 95.925781 197.652344 L 96.003906 197.648438 L 96.082031 197.648438 L 96.164062 197.644531 L 96.324219 197.640625 L 96.402344 197.636719 L 96.484375 197.632812 L 96.5625 197.628906 L 96.644531 197.625 L 96.722656 197.621094 L 96.804688 197.617188 L 96.964844 197.605469 L 97.042969 197.597656 L 97.125 197.589844 L 97.203125 197.585938 L 97.285156 197.578125 L 97.363281 197.566406 L 97.445312 197.558594 L 97.601562 197.539062 L 97.683594 197.527344 L 97.761719 197.515625 L 97.84375 197.5 L 97.921875 197.488281 L 98.003906 197.472656 L 98.082031 197.453125 L 98.242188 197.417969 L 98.328125 197.394531 L 98.417969 197.371094 L 98.589844 197.316406 L 98.675781 197.285156 L 98.761719 197.25 L 98.9375 197.175781 L 99.023438 197.136719 L 99.109375 197.09375 L 99.195312 197.042969 L 99.285156 196.992188 L 99.371094 196.9375 L 99.457031 196.878906 L 99.628906 196.75 L 99.71875 196.675781 L 99.804688 196.597656 L 99.890625 196.515625 L 99.976562 196.425781 L 100.0625 196.332031 L 100.152344 196.230469 L 100.324219 196.007812 L 100.410156 195.882812 L 100.496094 195.753906 L 100.585938 195.613281 L 100.671875 195.464844 L 100.757812 195.308594 L 100.84375 195.140625 L 101.015625 194.773438 L 101.105469 194.574219 L 101.191406 194.359375 L 101.363281 193.894531 L 101.449219 193.644531 L 101.539062 193.378906 L 101.710938 192.796875 L 101.796875 192.484375 L 101.882812 192.152344 L 102.058594 191.433594 L 102.144531 191.046875 L 102.230469 190.640625 L 102.40625 189.757812 L 102.492188 189.285156 L 102.578125 188.789062 L 102.75 187.71875 L 102.839844 187.144531 L 102.925781 186.546875 L 103.097656 185.261719 L 103.183594 184.578125 L 103.273438 183.859375 L 103.445312 182.332031 L 103.792969 178.875 L 103.871094 177.988281 L 103.953125 177.066406 L 104.117188 175.125 L 104.195312 174.105469 L 104.277344 173.046875 L 104.441406 170.828125 L 104.519531 169.667969 L 104.601562 168.464844 L 104.761719 165.957031 L 105.085938 160.480469 L 105.167969 159.015625 L 105.25 157.511719 L 105.410156 154.386719 L 105.734375 147.675781 L 106.382812 132.460938 L 106.464844 130.402344 L 106.542969 128.3125 L 106.707031 124.035156 L 107.03125 115.152344 L 107.675781 96.355469 L 107.757812 93.945312 L 107.839844 91.523438 L 108 86.675781 L 108.324219 76.984375 L 108.972656 58.1875 L 109.050781 55.988281 L 109.132812 53.816406 L 109.289062 49.578125 L 109.609375 41.570312 L 109.6875 39.683594 L 109.765625 37.84375 L 109.925781 34.324219 L 110.003906 32.648438 L 110.082031 31.03125 L 110.242188 27.976562 L 110.320312 26.546875 L 110.402344 25.183594 L 110.480469 23.886719 L 110.558594 22.660156 L 110.640625 21.503906 L 110.71875 20.421875 L 110.878906 18.484375 L 110.957031 17.628906 L 111.035156 16.847656 L 111.117188 16.152344 L 111.195312 15.53125 L 111.273438 14.996094 L 111.355469 14.539062 L 111.433594 14.164062 L 111.511719 13.875 L 111.59375 13.664062 L 111.671875 13.542969 L 111.75 13.5 L 111.828125 13.542969 L 111.910156 13.667969 L 111.988281 13.878906 L 112.066406 14.171875 L 112.148438 14.546875 L 112.226562 15.003906 L 112.304688 15.542969 L 112.386719 16.160156 L 112.464844 16.859375 L 112.542969 17.640625 L 112.625 18.496094 L 112.78125 20.4375 L 112.863281 21.523438 L 112.941406 22.679688 L 113.101562 25.203125 L 113.179688 26.570312 L 113.257812 28 L 113.417969 31.054688 L 113.496094 32.671875 L 113.574219 34.351562 L 113.734375 37.871094 L 114.050781 45.519531 L 114.136719 47.71875 L 114.222656 49.960938 L 114.398438 54.582031 L 114.742188 64.25 L 115.429688 84.605469 L 115.601562 89.769531 L 115.773438 94.914062 L 116.117188 105.078125 L 116.808594 124.390625 L 116.894531 126.675781 L 116.980469 128.921875 L 117.152344 133.3125 L 117.496094 141.625 L 117.582031 143.601562 L 117.667969 145.539062 L 117.839844 149.28125 L 118.183594 156.246094 L 118.269531 157.878906 L 118.355469 159.46875 L 118.527344 162.511719 L 118.613281 163.96875 L 118.699219 165.382812 L 118.875 168.085938 L 118.960938 169.371094 L 119.046875 170.617188 L 119.21875 172.984375 L 119.5625 177.25 L 119.640625 178.15625 L 119.722656 179.03125 L 119.882812 180.691406 L 119.964844 181.476562 L 120.042969 182.234375 L 120.203125 183.660156 L 120.285156 184.332031 L 120.367188 184.980469 L 120.527344 186.195312 L 120.847656 188.34375 L 120.929688 188.824219 L 121.007812 189.28125 L 121.167969 190.144531 L 121.25 190.542969 L 121.328125 190.929688 L 121.492188 191.640625 L 121.570312 191.972656 L 121.652344 192.289062 L 121.8125 192.878906 L 121.890625 193.152344 L 121.972656 193.410156 L 122.132812 193.890625 L 122.214844 194.109375 L 122.292969 194.320312 L 122.453125 194.710938 L 122.535156 194.886719 L 122.613281 195.058594 L 122.777344 195.367188 L 122.855469 195.511719 L 122.9375 195.648438 L 123.097656 195.894531 L 123.175781 196.007812 L 123.257812 196.117188 L 123.417969 196.3125 L 123.5 196.402344 L 123.578125 196.484375 L 123.660156 196.5625 L 123.738281 196.636719 L 123.820312 196.707031 L 123.902344 196.773438 L 124.0625 196.890625 L 124.140625 196.945312 L 124.222656 196.996094 L 124.300781 197.042969 L 124.382812 197.089844 L 124.464844 197.128906 L 124.542969 197.167969 L 124.703125 197.238281 L 124.792969 197.273438 L 124.878906 197.304688 L 125.050781 197.359375 L 125.140625 197.386719 L 125.226562 197.410156 L 125.402344 197.449219 L 125.488281 197.46875 L 125.660156 197.5 L 125.75 197.515625 L 125.835938 197.53125 L 125.921875 197.542969 L 126.097656 197.5625 L 126.183594 197.574219 L 126.273438 197.582031 L 126.53125 197.605469 L 126.621094 197.609375 L 126.707031 197.617188 L 126.792969 197.621094 L 126.882812 197.625 L 127.140625 197.636719 L 127.230469 197.640625 L 127.402344 197.648438 L 127.492188 197.648438 L 127.578125 197.652344 L 127.664062 197.652344 L 127.75 197.65625 L 127.839844 197.65625 L 127.925781 197.660156 L 128.101562 197.660156 L 128.1875 197.664062 L 128.359375 197.664062 L 128.449219 197.667969 L 128.972656 197.667969 L 129.058594 197.671875 L 131.730469 197.671875 L 131.816406 197.667969 L 132.242188 197.667969 L 132.328125 197.664062 L 132.585938 197.664062 L 132.671875 197.660156 L 132.839844 197.660156 L 132.925781 197.65625 L 133.011719 197.65625 L 133.097656 197.652344 L 133.183594 197.652344 L 133.269531 197.648438 L 133.355469 197.648438 L 133.441406 197.644531 L 133.523438 197.640625 L 134.039062 197.617188 L 134.125 197.609375 L 134.210938 197.605469 L 134.378906 197.589844 L 134.636719 197.566406 L 134.894531 197.53125 L 135.0625 197.507812 L 135.148438 197.492188 L 135.234375 197.472656 L 135.320312 197.457031 L 135.492188 197.417969 L 135.578125 197.394531 L 135.746094 197.34375 L 135.828125 197.320312 L 135.90625 197.292969 L 135.988281 197.261719 L 136.066406 197.230469 L 136.148438 197.195312 L 136.226562 197.160156 L 136.386719 197.078125 L 136.464844 197.035156 L 136.546875 196.984375 L 136.625 196.933594 L 136.703125 196.878906 L 136.785156 196.824219 L 136.863281 196.761719 L 137.023438 196.625 L 137.101562 196.550781 L 137.183594 196.472656 L 137.261719 196.386719 L 137.34375 196.296875 L 137.421875 196.203125 L 137.503906 196.101562 L 137.660156 195.882812 L 137.742188 195.761719 L 137.820312 195.632812 L 137.980469 195.355469 L 138.058594 195.207031 L 138.140625 195.046875 L 138.300781 194.699219 L 138.378906 194.511719 L 138.460938 194.3125 L 138.617188 193.882812 L 138.699219 193.652344 L 138.777344 193.40625 L 138.9375 192.878906 L 139.015625 192.597656 L 139.097656 192.296875 L 139.257812 191.65625 L 139.335938 191.308594 L 139.414062 190.949219 L 139.574219 190.171875 L 139.65625 189.757812 L 139.734375 189.320312 L 139.894531 188.390625 L 139.972656 187.894531 L 140.054688 187.375 L 140.214844 186.273438 L 140.292969 185.683594 L 140.371094 185.070312 L 140.53125 183.769531 L 140.851562 180.84375 L 140.9375 179.972656 L 141.023438 179.066406 L 141.195312 177.144531 L 141.285156 176.125 L 141.371094 175.070312 L 141.542969 172.84375 L 141.628906 171.667969 L 141.714844 170.453125 L 141.890625 167.898438 L 142.234375 162.277344 L 142.320312 160.761719 L 142.40625 159.203125 L 142.582031 155.957031 L 142.925781 148.925781 L 143.011719 147.058594 L 143.097656 145.152344 L 143.273438 141.203125 L 143.617188 132.816406 L 143.703125 130.625 L 143.792969 128.390625 L 143.964844 123.824219 L 144.308594 114.308594 L 145 94.148438 L 145.089844 91.566406 L 145.175781 88.976562 L 145.347656 83.792969 L 145.695312 73.472656 L 146.386719 53.71875 L 146.464844 51.546875 L 146.546875 49.414062 L 146.707031 45.261719 L 146.789062 43.253906 L 146.871094 41.289062 L 147.03125 37.515625 L 147.113281 35.710938 L 147.191406 33.957031 L 147.355469 30.636719 L 147.433594 29.066406 L 147.515625 27.566406 L 147.675781 24.761719 L 147.757812 23.46875 L 147.839844 22.246094 L 147.917969 21.097656 L 148 20.023438 L 148.082031 19.03125 L 148.160156 18.113281 L 148.242188 17.277344 L 148.324219 16.523438 L 148.402344 15.847656 L 148.484375 15.257812 L 148.566406 14.753906 L 148.644531 14.332031 L 148.726562 13.996094 L 148.808594 13.746094 L 148.886719 13.585938 L 148.96875 13.507812 L 149.050781 13.515625 L 149.128906 13.613281 L 149.210938 13.792969 L 149.292969 14.0625 L 149.371094 14.414062 L 149.453125 14.855469 L 149.535156 15.378906 L 149.613281 15.984375 L 149.695312 16.675781 L 149.777344 17.449219 L 149.855469 18.300781 L 149.9375 19.234375 L 150.015625 20.246094 L 150.097656 21.332031 L 150.257812 23.734375 L 150.339844 25.046875 L 150.421875 26.429688 L 150.582031 29.394531 L 150.90625 36.085938 L 150.984375 37.90625 L 151.066406 39.777344 L 151.226562 43.675781 L 151.550781 52.003906 L 151.628906 54.140625 L 151.710938 56.3125 L 151.867188 60.738281 L 152.183594 69.871094 L 152.816406 88.738281 L 152.898438 91.105469 L 152.976562 93.472656 L 153.132812 98.183594 L 153.449219 107.460938 L 154.082031 125.09375 L 154.164062 127.183594 L 154.242188 129.246094 L 154.398438 133.273438 L 154.714844 140.945312 L 154.796875 142.777344 L 154.875 144.574219 L 155.03125 148.058594 L 155.351562 154.59375 L 155.429688 156.136719 L 155.507812 157.640625 L 155.667969 160.539062 L 155.984375 165.890625 L 156.0625 167.140625 L 156.140625 168.351562 L 156.300781 170.667969 L 156.617188 174.894531 L 156.703125 175.949219 L 156.789062 176.964844 L 156.960938 178.886719 L 157.046875 179.796875 L 157.132812 180.667969 L 157.300781 182.3125 L 157.386719 183.085938 L 157.472656 183.828125 L 157.644531 185.21875 L 157.730469 185.871094 L 157.816406 186.496094 L 157.988281 187.660156 L 158.074219 188.207031 L 158.160156 188.726562 L 158.332031 189.691406 L 158.417969 190.140625 L 158.503906 190.570312 L 158.675781 191.367188 L 158.761719 191.734375 L 158.847656 192.082031 L 159.019531 192.730469 L 159.105469 193.027344 L 159.191406 193.3125 L 159.363281 193.832031 L 159.449219 194.070312 L 159.535156 194.296875 L 159.707031 194.714844 L 159.792969 194.90625 L 159.878906 195.085938 L 160.050781 195.414062 L 160.136719 195.5625 L 160.222656 195.703125 L 160.308594 195.835938 L 160.394531 195.960938 L 160.480469 196.078125 L 160.566406 196.1875 L 160.738281 196.386719 L 160.824219 196.476562 L 160.910156 196.5625 L 160.996094 196.640625 L 161.082031 196.714844 L 161.167969 196.785156 L 161.253906 196.851562 L 161.425781 196.964844 L 161.511719 197.019531 L 161.59375 197.066406 L 161.679688 197.113281 L 161.765625 197.15625 L 161.851562 197.195312 L 161.9375 197.230469 L 162.109375 197.296875 L 162.191406 197.324219 L 162.269531 197.351562 L 162.351562 197.375 L 162.429688 197.398438 L 162.511719 197.417969 L 162.589844 197.4375 L 162.75 197.472656 L 162.832031 197.488281 L 162.910156 197.5 L 162.992188 197.515625 L 163.070312 197.527344 L 163.152344 197.539062 L 163.230469 197.550781 L 163.394531 197.570312 L 163.472656 197.578125 L 163.554688 197.585938 L 163.632812 197.59375 L 163.714844 197.597656 L 163.792969 197.605469 L 163.875 197.609375 L 164.035156 197.621094 L 164.113281 197.625 L 164.195312 197.628906 L 164.273438 197.632812 L 164.355469 197.636719 L 164.433594 197.640625 L 164.515625 197.644531 L 164.675781 197.648438 L 164.753906 197.648438 L 164.835938 197.652344 L 164.914062 197.652344 L 164.996094 197.65625 L 165.074219 197.65625 L 165.15625 197.660156 L 165.316406 197.660156 L 165.394531 197.664062 L 165.636719 197.664062 L 165.714844 197.667969 L 166.195312 197.667969 L 166.277344 197.671875 L 168.976562 197.671875 L 169.0625 197.667969 L 169.496094 197.667969 L 169.582031 197.664062 L 169.84375 197.664062 L 169.929688 197.660156 L 170.105469 197.660156 L 170.191406 197.65625 L 170.277344 197.65625 L 170.363281 197.652344 L 170.453125 197.652344 L 170.625 197.644531 L 170.710938 197.644531 L 170.796875 197.640625 L 170.886719 197.636719 L 171.144531 197.625 L 171.234375 197.621094 L 171.320312 197.613281 L 171.40625 197.609375 L 171.492188 197.601562 L 171.582031 197.59375 L 171.925781 197.5625 L 172.101562 197.539062 L 172.1875 197.527344 L 172.273438 197.511719 L 172.363281 197.496094 L 172.535156 197.464844 L 172.621094 197.445312 L 172.796875 197.402344 L 172.882812 197.378906 L 172.964844 197.355469 L 173.136719 197.300781 L 173.222656 197.265625 L 173.308594 197.234375 L 173.476562 197.160156 L 173.5625 197.117188 L 173.734375 197.023438 L 173.820312 196.972656 L 173.902344 196.914062 L 173.988281 196.855469 L 174.160156 196.722656 L 174.246094 196.652344 L 174.332031 196.574219 L 174.414062 196.488281 L 174.5 196.402344 L 174.585938 196.304688 L 174.671875 196.203125 L 174.84375 195.980469 L 174.925781 195.859375 L 175.011719 195.730469 L 175.097656 195.589844 L 175.183594 195.441406 L 175.269531 195.285156 L 175.355469 195.121094 L 175.523438 194.757812 L 175.609375 194.558594 L 175.695312 194.351562 L 175.863281 193.894531 L 175.949219 193.644531 L 176.035156 193.382812 L 176.207031 192.816406 L 176.292969 192.507812 L 176.375 192.183594 L 176.546875 191.480469 L 176.632812 191.101562 L 176.71875 190.703125 L 176.886719 189.847656 L 176.972656 189.386719 L 177.058594 188.902344 L 177.230469 187.863281 L 177.3125 187.304688 L 177.398438 186.722656 L 177.570312 185.480469 L 177.65625 184.8125 L 177.742188 184.121094 L 177.910156 182.640625 L 178.253906 179.300781 L 178.332031 178.441406 L 178.410156 177.554688 L 178.570312 175.683594 L 178.648438 174.699219 L 178.730469 173.683594 L 178.886719 171.546875 L 178.96875 170.425781 L 179.046875 169.273438 L 179.207031 166.855469 L 179.523438 161.589844 L 179.605469 160.179688 L 179.683594 158.734375 L 179.84375 155.726562 L 180.160156 149.269531 L 180.796875 134.609375 L 180.875 132.621094 L 180.957031 130.601562 L 181.113281 126.472656 L 181.433594 117.867188 L 182.070312 99.585938 L 182.148438 97.230469 L 182.226562 94.867188 L 182.386719 90.113281 L 182.703125 80.582031 L 183.339844 61.914062 L 183.425781 59.472656 L 183.511719 57.066406 L 183.6875 52.355469 L 184.03125 43.453125 L 184.117188 41.351562 L 184.203125 39.308594 L 184.375 35.402344 L 184.460938 33.546875 L 184.546875 31.753906 L 184.71875 28.390625 L 184.808594 26.820312 L 184.894531 25.324219 L 184.980469 23.910156 L 185.066406 22.582031 L 185.152344 21.335938 L 185.238281 20.175781 L 185.324219 19.101562 L 185.410156 18.121094 L 185.496094 17.230469 L 185.582031 16.429688 L 185.667969 15.726562 L 185.753906 15.117188 L 185.839844 14.605469 L 185.929688 14.1875 L 186.015625 13.871094 L 186.101562 13.648438 L 186.1875 13.527344 L 186.273438 13.503906 L 186.359375 13.578125 L 186.445312 13.753906 L 186.53125 14.023438 L 186.617188 14.394531 L 186.703125 14.863281 L 186.789062 15.425781 L 186.875 16.085938 L 186.960938 16.839844 L 187.046875 17.6875 L 187.136719 18.625 L 187.222656 19.65625 L 187.308594 20.773438 L 187.480469 23.273438 L 187.566406 24.644531 L 187.652344 26.101562 L 187.824219 29.246094 L 187.910156 30.933594 L 187.996094 32.6875 L 188.167969 36.40625 L 188.257812 38.363281 L 188.34375 40.378906 L 188.515625 44.582031 L 188.859375 53.582031 L 188.941406 55.777344 L 189.019531 58.007812 L 189.183594 62.554688 L 189.503906 71.910156 L 190.148438 91.136719 L 190.226562 93.542969 L 190.308594 95.945312 L 190.46875 100.714844 L 190.792969 110.085938 L 191.433594 127.78125 L 191.515625 129.867188 L 191.597656 131.921875 L 191.757812 135.933594 L 192.078125 143.542969 L 192.160156 145.355469 L 192.242188 147.128906 L 192.402344 150.566406 L 192.722656 156.984375 L 192.804688 158.496094 L 192.882812 159.964844 L 193.046875 162.789062 L 193.125 164.148438 L 193.207031 165.464844 L 193.367188 167.992188 L 193.449219 169.199219 L 193.527344 170.367188 L 193.6875 172.601562 L 194.011719 176.65625 L 194.097656 177.664062 L 194.183594 178.628906 L 194.359375 180.457031 L 194.445312 181.316406 L 194.535156 182.144531 L 194.707031 183.695312 L 194.796875 184.421875 L 194.882812 185.117188 L 195.058594 186.421875 L 195.144531 187.03125 L 195.230469 187.613281 L 195.40625 188.695312 L 195.492188 189.203125 L 195.582031 189.683594 L 195.753906 190.574219 L 195.84375 190.988281 L 195.929688 191.378906 L 196.105469 192.109375 L 196.191406 192.445312 L 196.277344 192.761719 L 196.453125 193.347656 L 196.539062 193.617188 L 196.628906 193.875 L 196.800781 194.34375 L 196.890625 194.554688 L 196.976562 194.757812 L 197.0625 194.949219 L 197.152344 195.128906 L 197.238281 195.296875 L 197.324219 195.457031 L 197.5 195.746094 L 197.585938 195.878906 L 197.675781 196.003906 L 197.761719 196.121094 L 197.847656 196.230469 L 197.9375 196.332031 L 198.023438 196.425781 L 198.199219 196.597656 L 198.285156 196.675781 L 198.371094 196.75 L 198.460938 196.816406 L 198.546875 196.882812 L 198.632812 196.941406 L 198.722656 196.996094 L 198.894531 197.09375 L 198.980469 197.140625 L 199.070312 197.179688 L 199.15625 197.21875 L 199.242188 197.253906 L 199.332031 197.289062 L 199.417969 197.316406 L 199.59375 197.371094 L 199.679688 197.398438 L 199.851562 197.4375 L 199.933594 197.457031 L 200.019531 197.476562 L 200.105469 197.492188 L 200.277344 197.519531 L 200.363281 197.535156 L 200.449219 197.546875 L 200.535156 197.554688 L 200.621094 197.566406 L 200.964844 197.597656 L 201.046875 197.605469 L 201.132812 197.609375 L 201.21875 197.617188 L 201.90625 197.648438 L 201.992188 197.648438 L 202.074219 197.652344 L 202.160156 197.652344 L 202.246094 197.65625 L 202.332031 197.65625 L 202.417969 197.660156 L 202.589844 197.660156 L 202.675781 197.664062 L 202.933594 197.664062 L 203.019531 197.667969 L 203.445312 197.667969 L 203.53125 197.671875 L 206.269531 197.671875 L 206.351562 197.667969 L 206.75 197.667969 L 206.832031 197.664062 L 207.070312 197.664062 L 207.148438 197.660156 L 207.308594 197.660156 L 207.390625 197.65625 L 207.46875 197.65625 L 207.628906 197.652344 L 207.710938 197.652344 L 207.867188 197.644531 L 207.949219 197.644531 L 208.027344 197.640625 L 208.109375 197.636719 L 208.269531 197.632812 L 208.347656 197.628906 L 208.429688 197.621094 L 208.507812 197.617188 L 208.589844 197.613281 L 208.667969 197.609375 L 208.746094 197.601562 L 208.90625 197.589844 L 208.988281 197.582031 L 209.066406 197.574219 L 209.148438 197.5625 L 209.226562 197.554688 L 209.308594 197.542969 L 209.386719 197.535156 L 209.546875 197.507812 L 209.625 197.496094 L 209.707031 197.480469 L 209.785156 197.464844 L 209.867188 197.445312 L 209.945312 197.429688 L 210.027344 197.410156 L 210.1875 197.363281 L 210.359375 197.308594 L 210.445312 197.277344 L 210.617188 197.207031 L 210.707031 197.167969 L 210.878906 197.082031 L 210.964844 197.035156 L 211.136719 196.925781 L 211.226562 196.867188 L 211.398438 196.734375 L 211.570312 196.582031 L 211.746094 196.40625 L 211.832031 196.3125 L 211.917969 196.207031 L 212.003906 196.097656 L 212.089844 195.984375 L 212.265625 195.726562 L 212.351562 195.585938 L 212.4375 195.433594 L 212.523438 195.277344 L 212.699219 194.925781 L 212.785156 194.734375 L 212.957031 194.320312 L 213.042969 194.089844 L 213.128906 193.851562 L 213.304688 193.328125 L 213.390625 193.042969 L 213.476562 192.742188 L 213.648438 192.089844 L 213.738281 191.738281 L 213.824219 191.367188 L 213.996094 190.566406 L 214.082031 190.132812 L 214.167969 189.679688 L 214.34375 188.699219 L 214.429688 188.175781 L 214.515625 187.625 L 214.6875 186.445312 L 214.777344 185.8125 L 214.863281 185.152344 L 215.035156 183.742188 L 215.121094 182.988281 L 215.207031 182.207031 L 215.382812 180.535156 L 215.730469 176.777344 L 215.808594 175.8125 L 215.890625 174.816406 L 216.050781 172.722656 L 216.132812 171.621094 L 216.214844 170.484375 L 216.375 168.101562 L 216.457031 166.855469 L 216.539062 165.570312 L 216.699219 162.890625 L 217.023438 157.066406 L 217.101562 155.515625 L 217.183594 153.925781 L 217.347656 150.625 L 217.667969 143.574219 L 218.316406 127.734375 L 218.398438 125.609375 L 218.476562 123.449219 L 218.640625 119.050781 L 218.964844 109.949219 L 219.609375 90.90625 L 219.773438 86.0625 L 219.933594 81.214844 L 220.257812 71.59375 L 220.902344 53.210938 L 220.984375 51.085938 L 221.0625 48.996094 L 221.222656 44.933594 L 221.300781 42.96875 L 221.378906 41.046875 L 221.539062 37.351562 L 221.617188 35.582031 L 221.695312 33.863281 L 221.855469 30.605469 L 221.933594 29.066406 L 222.015625 27.589844 L 222.171875 24.832031 L 222.25 23.558594 L 222.332031 22.351562 L 222.410156 21.214844 L 222.488281 20.152344 L 222.570312 19.167969 L 222.648438 18.253906 L 222.726562 17.421875 L 222.804688 16.664062 L 222.886719 15.984375 L 222.964844 15.390625 L 223.042969 14.871094 L 223.125 14.4375 L 223.203125 14.085938 L 223.28125 13.8125 L 223.363281 13.628906 L 223.441406 13.523438 L 223.519531 13.503906 L 223.597656 13.566406 L 223.679688 13.710938 L 223.757812 13.941406 L 223.835938 14.253906 L 223.917969 14.648438 L 223.996094 15.125 L 224.074219 15.679688 L 224.152344 16.320312 L 224.234375 17.035156 L 224.3125 17.832031 L 224.390625 18.707031 L 224.472656 19.65625 L 224.550781 20.683594 L 224.710938 22.953125 L 224.789062 24.195312 L 224.867188 25.507812 L 225.027344 28.328125 L 225.105469 29.839844 L 225.183594 31.410156 L 225.34375 34.726562 L 225.421875 36.46875 L 225.503906 38.265625 L 225.660156 42.015625 L 225.976562 50.046875 L 226.0625 52.335938 L 226.148438 54.667969 L 226.320312 59.433594 L 226.664062 69.324219 L 227.355469 89.824219 L 227.441406 92.398438 L 227.527344 94.964844 L 227.699219 100.070312 L 228.042969 110.089844 L 228.730469 128.933594 L 228.816406 131.144531 L 228.902344 133.316406 L 229.074219 137.550781 L 229.417969 145.53125 L 229.503906 147.425781 L 229.589844 149.273438 L 229.761719 152.839844 L 230.105469 159.449219 L 230.191406 160.992188 L 230.277344 162.492188 L 230.449219 165.363281 L 230.535156 166.734375 L 230.621094 168.0625 L 230.792969 170.59375 L 230.878906 171.796875 L 230.964844 172.960938 L 231.136719 175.167969 L 231.480469 179.128906 L 231.5625 179.972656 L 231.640625 180.78125 L 231.804688 182.3125 L 231.882812 183.039062 L 231.964844 183.734375 L 232.125 185.046875 L 232.203125 185.664062 L 232.285156 186.253906 L 232.445312 187.367188 L 232.523438 187.890625 L 232.605469 188.390625 L 232.765625 189.324219 L 232.847656 189.761719 L 232.925781 190.179688 L 233.085938 190.960938 L 233.167969 191.324219 L 233.246094 191.671875 L 233.40625 192.316406 L 233.488281 192.617188 L 233.570312 192.902344 L 233.730469 193.429688 L 233.808594 193.675781 L 233.890625 193.90625 L 234.050781 194.335938 L 234.128906 194.535156 L 234.210938 194.722656 L 234.371094 195.070312 L 234.453125 195.230469 L 234.53125 195.378906 L 234.691406 195.65625 L 234.773438 195.78125 L 234.851562 195.902344 L 234.933594 196.015625 L 235.011719 196.121094 L 235.09375 196.222656 L 235.171875 196.316406 L 235.335938 196.488281 L 235.414062 196.566406 L 235.496094 196.640625 L 235.574219 196.710938 L 235.65625 196.777344 L 235.734375 196.835938 L 235.816406 196.894531 L 235.976562 197 L 236.054688 197.046875 L 236.21875 197.132812 L 236.296875 197.171875 L 236.378906 197.207031 L 236.457031 197.238281 L 236.617188 197.300781 L 236.707031 197.332031 L 236.792969 197.359375 L 236.964844 197.40625 L 237.054688 197.429688 L 237.140625 197.449219 L 237.3125 197.484375 L 237.402344 197.5 L 237.488281 197.515625 L 237.574219 197.527344 L 237.664062 197.539062 L 237.835938 197.5625 L 238.011719 197.582031 L 238.183594 197.597656 L 238.269531 197.601562 L 238.359375 197.609375 L 238.445312 197.617188 L 238.617188 197.625 L 238.707031 197.628906 L 238.878906 197.636719 L 238.96875 197.640625 L 239.140625 197.648438 L 239.226562 197.648438 L 239.316406 197.652344 L 239.402344 197.652344 L 239.488281 197.65625 L 239.574219 197.65625 L 239.664062 197.660156 L 239.835938 197.660156 L 239.921875 197.664062 L 240.097656 197.664062 L 240.183594 197.667969 L 240.707031 197.667969 L 240.792969 197.671875 L 243.464844 197.671875 L 243.550781 197.667969 L 244.0625 197.667969 L 244.148438 197.664062 L 244.320312 197.664062 L 244.40625 197.660156 L 244.578125 197.660156 L 244.660156 197.65625 L 244.746094 197.65625 L 244.832031 197.652344 L 244.917969 197.652344 L 245.003906 197.648438 L 245.089844 197.648438 L 245.175781 197.644531 L 245.257812 197.640625 L 245.34375 197.636719 L 245.429688 197.636719 L 245.515625 197.632812 L 245.601562 197.625 L 245.773438 197.617188 L 245.855469 197.613281 L 246.027344 197.597656 L 246.113281 197.59375 L 246.285156 197.578125 L 246.371094 197.566406 L 246.457031 197.558594 L 246.539062 197.546875 L 246.710938 197.523438 L 247.054688 197.460938 L 247.136719 197.441406 L 247.222656 197.421875 L 247.480469 197.351562 L 247.652344 197.292969 L 247.730469 197.265625 L 247.808594 197.234375 L 247.890625 197.199219 L 247.96875 197.164062 L 248.050781 197.125 L 248.128906 197.082031 L 248.289062 196.992188 L 248.367188 196.941406 L 248.445312 196.886719 L 248.527344 196.828125 L 248.605469 196.765625 L 248.6875 196.703125 L 248.765625 196.632812 L 248.925781 196.480469 L 249.003906 196.398438 L 249.085938 196.308594 L 249.164062 196.214844 L 249.242188 196.113281 L 249.324219 196.007812 L 249.402344 195.894531 L 249.5625 195.648438 L 249.640625 195.515625 L 249.722656 195.375 L 249.882812 195.066406 L 249.960938 194.898438 L 250.039062 194.722656 L 250.199219 194.339844 L 250.277344 194.128906 L 250.359375 193.910156 L 250.519531 193.4375 L 250.597656 193.183594 L 250.675781 192.914062 L 250.835938 192.335938 L 250.917969 192.027344 L 250.996094 191.699219 L 251.15625 190.996094 L 251.234375 190.621094 L 251.316406 190.226562 L 251.472656 189.382812 L 251.554688 188.929688 L 251.632812 188.457031 L 251.792969 187.449219 L 251.871094 186.914062 L 251.953125 186.355469 L 252.109375 185.164062 L 252.191406 184.53125 L 252.269531 183.871094 L 252.429688 182.472656 L 252.75 179.339844 L 252.835938 178.410156 L 252.921875 177.441406 L 253.09375 175.394531 L 253.179688 174.3125 L 253.265625 173.191406 L 253.4375 170.832031 L 253.527344 169.589844 L 253.613281 168.304688 L 253.785156 165.609375 L 254.128906 159.699219 L 254.21875 158.113281 L 254.304688 156.480469 L 254.476562 153.085938 L 254.820312 145.773438 L 254.90625 143.835938 L 254.996094 141.855469 L 255.167969 137.773438 L 255.511719 129.136719 L 255.597656 126.882812 L 255.683594 124.59375 L 255.859375 119.921875 L 256.203125 110.226562 L 256.894531 89.878906 L 257.066406 84.699219 L 257.238281 79.523438 L 257.585938 69.289062 L 258.277344 49.9375 L 258.355469 47.832031 L 258.4375 45.769531 L 258.597656 41.78125 L 258.679688 39.855469 L 258.761719 37.984375 L 258.921875 34.402344 L 259.003906 32.695312 L 259.082031 31.050781 L 259.246094 27.949219 L 259.324219 26.5 L 259.40625 25.117188 L 259.566406 22.5625 L 259.648438 21.394531 L 259.726562 20.304688 L 259.808594 19.289062 L 259.890625 18.351562 L 259.96875 17.496094 L 260.050781 16.71875 L 260.132812 16.023438 L 260.210938 15.414062 L 260.292969 14.882812 L 260.371094 14.441406 L 260.453125 14.082031 L 260.535156 13.808594 L 260.613281 13.621094 L 260.695312 13.519531 L 260.777344 13.503906 L 260.855469 13.574219 L 260.9375 13.734375 L 261.019531 13.976562 L 261.097656 14.304688 L 261.179688 14.71875 L 261.261719 15.21875 L 261.339844 15.800781 L 261.421875 16.464844 L 261.5 17.214844 L 261.582031 18.042969 L 261.664062 18.953125 L 261.742188 19.9375 L 261.824219 21.003906 L 261.90625 22.144531 L 261.984375 23.359375 L 262.148438 26.007812 L 262.226562 27.433594 L 262.308594 28.929688 L 262.46875 32.113281 L 262.792969 39.195312 L 262.871094 41.101562 L 262.953125 43.054688 L 263.113281 47.105469 L 263.4375 55.691406 L 263.515625 57.878906 L 263.59375 60.097656 L 263.753906 64.605469 L 264.070312 73.855469 L 264.703125 92.757812 L 264.78125 95.117188 L 264.859375 97.46875 L 265.019531 102.140625 L 265.335938 111.304688 L 265.964844 128.589844 L 266.046875 130.628906 L 266.125 132.636719 L 266.28125 136.554688 L 266.597656 143.988281 L 266.679688 145.757812 L 266.757812 147.492188 L 266.914062 150.855469 L 267.230469 157.136719 L 267.308594 158.617188 L 267.390625 160.054688 L 267.546875 162.828125 L 267.625 164.160156 L 267.707031 165.453125 L 267.863281 167.9375 L 267.941406 169.125 L 268.023438 170.277344 L 268.179688 172.476562 L 268.496094 176.476562 L 268.582031 177.472656 L 268.667969 178.433594 L 268.839844 180.246094 L 268.925781 181.101562 L 269.011719 181.921875 L 269.183594 183.464844 L 269.269531 184.191406 L 269.355469 184.886719 L 269.523438 186.1875 L 269.609375 186.796875 L 269.695312 187.378906 L 269.867188 188.46875 L 269.953125 188.976562 L 270.039062 189.457031 L 270.210938 190.355469 L 270.296875 190.773438 L 270.382812 191.171875 L 270.554688 191.90625 L 270.640625 192.25 L 270.726562 192.570312 L 270.898438 193.167969 L 270.984375 193.445312 L 271.070312 193.703125 L 271.242188 194.183594 L 271.328125 194.402344 L 271.414062 194.609375 L 271.582031 194.992188 L 271.667969 195.167969 L 271.753906 195.332031 L 271.925781 195.632812 L 272.011719 195.769531 L 272.097656 195.898438 L 272.269531 196.132812 L 272.355469 196.238281 L 272.441406 196.335938 L 272.613281 196.519531 L 272.699219 196.601562 L 272.871094 196.75 L 272.957031 196.816406 L 273.042969 196.878906 L 273.128906 196.9375 L 273.300781 197.042969 L 273.386719 197.089844 L 273.46875 197.132812 L 273.554688 197.175781 L 273.640625 197.210938 L 273.726562 197.25 L 273.8125 197.28125 L 273.984375 197.339844 L 274.066406 197.363281 L 274.144531 197.386719 L 274.226562 197.410156 L 274.304688 197.429688 L 274.386719 197.449219 L 274.464844 197.464844 L 274.625 197.496094 L 274.707031 197.507812 L 274.785156 197.523438 L 274.867188 197.535156 L 274.945312 197.542969 L 275.027344 197.554688 L 275.105469 197.566406 L 275.265625 197.582031 L 275.347656 197.589844 L 275.425781 197.59375 L 275.503906 197.601562 L 275.585938 197.609375 L 275.664062 197.613281 L 275.746094 197.617188 L 275.90625 197.628906 L 275.984375 197.632812 L 276.066406 197.636719 L 276.144531 197.636719 L 276.226562 197.640625 L 276.304688 197.644531 L 276.386719 197.648438 L 276.546875 197.652344 L 276.625 197.652344 L 276.707031 197.65625 L 276.785156 197.65625 L 276.867188 197.660156 L 277.027344 197.660156 L 277.105469 197.664062 L 277.425781 197.664062 L 277.507812 197.667969 L 277.90625 197.667969 L 277.988281 197.671875 L 280.753906 197.671875 L 280.84375 197.667969 L 281.277344 197.667969 L 281.363281 197.664062 L 281.621094 197.664062 L 281.710938 197.660156 L 281.882812 197.660156 L 281.96875 197.65625 L 282.054688 197.65625 L 282.144531 197.652344 L 282.230469 197.652344 L 282.402344 197.644531 L 282.492188 197.640625 L 282.578125 197.640625 L 282.835938 197.628906 L 282.925781 197.621094 L 283.097656 197.613281 L 283.269531 197.601562 L 283.359375 197.59375 L 283.53125 197.578125 L 283.617188 197.566406 L 283.703125 197.558594 L 283.792969 197.546875 L 283.964844 197.523438 L 284.136719 197.492188 L 284.226562 197.476562 L 284.3125 197.457031 L 284.398438 197.441406 L 284.484375 197.417969 L 284.660156 197.371094 L 284.738281 197.347656 L 284.902344 197.292969 L 284.984375 197.261719 L 285.0625 197.230469 L 285.144531 197.195312 L 285.308594 197.121094 L 285.386719 197.078125 L 285.550781 196.984375 L 285.632812 196.929688 L 285.710938 196.875 L 285.792969 196.816406 L 285.957031 196.6875 L 286.035156 196.613281 L 286.117188 196.539062 L 286.199219 196.457031 L 286.277344 196.371094 L 286.359375 196.277344 L 286.441406 196.179688 L 286.601562 195.964844 L 286.683594 195.847656 L 286.765625 195.722656 L 286.925781 195.453125 L 287.007812 195.304688 L 287.089844 195.148438 L 287.25 194.808594 L 287.332031 194.625 L 287.414062 194.429688 L 287.574219 194.003906 L 287.65625 193.777344 L 287.738281 193.535156 L 287.898438 193.011719 L 287.980469 192.730469 L 288.0625 192.433594 L 288.222656 191.792969 L 288.304688 191.449219 L 288.386719 191.089844 L 288.546875 190.3125 L 288.628906 189.898438 L 288.710938 189.460938 L 288.871094 188.53125 L 288.953125 188.03125 L 289.035156 187.511719 L 289.195312 186.398438 L 289.277344 185.808594 L 289.359375 185.191406 L 289.519531 183.878906 L 289.84375 180.921875 L 289.921875 180.125 L 290.003906 179.296875 L 290.160156 177.554688 L 290.242188 176.636719 L 290.320312 175.683594 L 290.480469 173.6875 L 290.558594 172.636719 L 290.636719 171.550781 L 290.796875 169.28125 L 291.113281 164.3125 L 291.195312 162.980469 L 291.273438 161.609375 L 291.433594 158.757812 L 291.75 152.605469 L 291.828125 150.976562 L 291.910156 149.308594 L 292.066406 145.863281 L 292.386719 138.539062 L 292.464844 136.621094 L 292.542969 134.671875 L 292.703125 130.671875 L 293.019531 122.308594 L 293.65625 104.375 L 294.925781 66.636719 L 295.011719 64.148438 L 295.097656 61.683594 L 295.269531 56.847656 L 295.617188 47.617188 L 295.703125 45.417969 L 295.789062 43.273438 L 295.960938 39.140625 L 296.304688 31.617188 L 296.390625 29.90625 L 296.476562 28.265625 L 296.648438 25.214844 L 296.734375 23.8125 L 296.820312 22.488281 L 296.992188 20.09375 L 297.082031 19.03125 L 297.167969 18.054688 L 297.253906 17.171875 L 297.339844 16.378906 L 297.425781 15.683594 L 297.511719 15.082031 L 297.597656 14.574219 L 297.683594 14.164062 L 297.769531 13.851562 L 297.855469 13.636719 L 297.941406 13.523438 L 298.027344 13.503906 L 298.113281 13.585938 L 298.199219 13.765625 L 298.285156 14.042969 L 298.371094 14.417969 L 298.457031 14.890625 L 298.542969 15.457031 L 298.628906 16.121094 L 298.71875 16.878906 L 298.804688 17.730469 L 298.890625 18.671875 L 298.976562 19.707031 L 299.0625 20.828125 L 299.148438 22.035156 L 299.234375 23.332031 L 299.40625 26.164062 L 299.492188 27.699219 L 299.578125 29.3125 L 299.75 32.757812 L 299.835938 34.582031 L 299.921875 36.476562 L 300.09375 40.449219 L 300.441406 49.054688 L 300.519531 51.175781 L 300.601562 53.335938 L 300.761719 57.75 L 301.082031 66.914062 L 301.726562 86.003906 L 301.808594 88.414062 L 301.886719 90.824219 L 302.046875 95.625 L 302.371094 105.109375 L 303.011719 123.199219 L 303.09375 125.347656 L 303.171875 127.46875 L 303.335938 131.617188 L 303.65625 139.515625 L 303.734375 141.402344 L 303.816406 143.253906 L 303.976562 146.851562 L 304.300781 153.589844 L 304.378906 155.179688 L 304.460938 156.730469 L 304.621094 159.71875 L 304.941406 165.242188 L 305.023438 166.527344 L 305.101562 167.777344 L 305.265625 170.164062 L 305.585938 174.511719 L 305.671875 175.597656 L 305.757812 176.640625 L 305.933594 178.613281 L 306.019531 179.546875 L 306.109375 180.441406 L 306.28125 182.125 L 306.371094 182.917969 L 306.457031 183.675781 L 306.632812 185.101562 L 306.71875 185.769531 L 306.804688 186.40625 L 306.980469 187.597656 L 307.066406 188.152344 L 307.152344 188.679688 L 307.328125 189.667969 L 307.414062 190.125 L 307.503906 190.558594 L 307.675781 191.367188 L 307.765625 191.738281 L 307.851562 192.09375 L 308.023438 192.75 L 308.113281 193.050781 L 308.199219 193.335938 L 308.375 193.863281 L 308.460938 194.101562 L 308.546875 194.332031 L 308.636719 194.546875 L 308.722656 194.75 L 308.808594 194.941406 L 308.894531 195.121094 L 309.070312 195.449219 L 309.15625 195.597656 L 309.246094 195.742188 L 309.332031 195.871094 L 309.417969 195.996094 L 309.507812 196.113281 L 309.59375 196.222656 L 309.769531 196.421875 L 309.855469 196.511719 L 309.941406 196.59375 L 310.027344 196.671875 L 310.117188 196.746094 L 310.289062 196.878906 L 310.464844 196.992188 L 310.550781 197.042969 L 310.640625 197.089844 L 310.726562 197.136719 L 310.898438 197.214844 L 310.988281 197.25 L 311.160156 197.316406 L 311.332031 197.371094 L 311.503906 197.417969 L 311.675781 197.457031 L 311.847656 197.488281 L 311.929688 197.503906 L 312.015625 197.519531 L 312.359375 197.566406 L 312.703125 197.597656 L 312.785156 197.605469 L 312.871094 197.609375 L 312.957031 197.617188 L 313.558594 197.644531 L 313.640625 197.648438 L 313.726562 197.648438 L 313.8125 197.652344 L 313.898438 197.652344 L 313.984375 197.65625 L 314.070312 197.65625 L 314.15625 197.660156 L 314.328125 197.660156 L 314.414062 197.664062 L 314.667969 197.664062 L 314.753906 197.667969 L 315.183594 197.667969 L 315.265625 197.671875 L 317.992188 197.671875 L 318.074219 197.667969 L 318.550781 197.667969 L 318.632812 197.664062 L 318.871094 197.664062 L 318.949219 197.660156 L 319.109375 197.660156 L 319.191406 197.65625 L 319.269531 197.65625 L 319.347656 197.652344 L 319.429688 197.652344 L 319.507812 197.648438 L 319.589844 197.648438 L 319.667969 197.644531 L 319.828125 197.640625 L 319.90625 197.636719 L 319.988281 197.632812 L 320.066406 197.628906 L 320.148438 197.625 L 320.226562 197.621094 L 320.308594 197.613281 L 320.464844 197.605469 L 320.546875 197.597656 L 320.625 197.589844 L 320.707031 197.585938 L 320.785156 197.578125 L 320.867188 197.566406 L 320.945312 197.558594 L 321.105469 197.539062 L 321.183594 197.527344 L 321.265625 197.515625 L 321.34375 197.5 L 321.425781 197.488281 L 321.503906 197.472656 L 321.582031 197.453125 L 321.742188 197.417969 L 321.828125 197.394531 L 321.917969 197.371094 L 322.089844 197.316406 L 322.261719 197.253906 L 322.433594 197.179688 L 322.523438 197.136719 L 322.609375 197.09375 L 322.695312 197.046875 L 322.78125 196.996094 L 322.867188 196.941406 L 322.953125 196.882812 L 323.128906 196.75 L 323.214844 196.679688 L 323.300781 196.601562 L 323.386719 196.519531 L 323.472656 196.429688 L 323.558594 196.335938 L 323.648438 196.234375 L 323.820312 196.011719 L 323.90625 195.890625 L 323.992188 195.761719 L 324.078125 195.621094 L 324.164062 195.472656 L 324.253906 195.316406 L 324.339844 195.148438 L 324.511719 194.785156 L 324.597656 194.585938 L 324.683594 194.375 L 324.859375 193.914062 L 324.945312 193.664062 L 325.03125 193.398438 L 325.203125 192.824219 L 325.289062 192.511719 L 325.375 192.183594 L 325.550781 191.46875 L 325.636719 191.082031 L 325.722656 190.679688 L 325.894531 189.804688 L 325.984375 189.335938 L 326.070312 188.839844 L 326.242188 187.78125 L 326.328125 187.210938 L 326.414062 186.613281 L 326.589844 185.339844 L 326.675781 184.660156 L 326.761719 183.949219 L 326.933594 182.433594 L 327.28125 179 L 327.359375 178.117188 L 327.441406 177.203125 L 327.601562 175.277344 L 327.683594 174.261719 L 327.765625 173.214844 L 327.925781 171.011719 L 328.007812 169.855469 L 328.089844 168.664062 L 328.25 166.171875 L 328.574219 160.734375 L 328.652344 159.277344 L 328.734375 157.785156 L 328.894531 154.683594 L 329.21875 148.011719 L 329.863281 132.890625 L 329.945312 130.84375 L 330.027344 128.765625 L 330.1875 124.511719 L 330.511719 115.671875 L 331.15625 96.949219 L 331.238281 94.542969 L 331.320312 92.132812 L 331.480469 87.292969 L 331.804688 77.621094 L 332.449219 58.824219 L 332.527344 56.621094 L 332.609375 54.445312 L 332.765625 50.195312 L 333.082031 42.15625 L 333.164062 40.257812 L 333.242188 38.40625 L 333.398438 34.863281 L 333.71875 28.453125 L 333.796875 27.003906 L 333.875 25.621094 L 333.953125 24.304688 L 334.035156 23.058594 L 334.113281 21.882812 L 334.191406 20.777344 L 334.351562 18.792969 L 334.429688 17.910156 L 334.507812 17.109375 L 334.589844 16.382812 L 334.667969 15.738281 L 334.746094 15.175781 L 334.824219 14.691406 L 334.90625 14.289062 L 334.984375 13.96875 L 335.0625 13.730469 L 335.140625 13.578125 L 335.222656 13.503906 L 335.300781 13.515625 L 335.378906 13.613281 L 335.460938 13.789062 L 335.539062 14.050781 L 335.617188 14.394531 L 335.695312 14.820312 L 335.777344 15.328125 L 335.855469 15.914062 L 335.933594 16.582031 L 336.011719 17.328125 L 336.09375 18.152344 L 336.171875 19.054688 L 336.25 20.03125 L 336.332031 21.085938 L 336.410156 22.210938 L 336.566406 24.671875 L 336.648438 26.007812 L 336.726562 27.410156 L 336.882812 30.40625 L 336.964844 31.996094 L 337.042969 33.644531 L 337.203125 37.113281 L 337.519531 44.664062 L 337.605469 46.835938 L 337.691406 49.058594 L 337.863281 53.636719 L 338.207031 63.230469 L 338.894531 83.5 L 338.980469 86.074219 L 339.066406 88.652344 L 339.238281 93.792969 L 339.578125 103.957031 L 340.265625 123.324219 L 340.351562 125.621094 L 340.4375 127.878906 L 340.609375 132.292969 L 340.953125 140.664062 L 341.039062 142.660156 L 341.125 144.609375 L 341.296875 148.386719 L 341.640625 155.425781 L 341.726562 157.074219 L 341.8125 158.679688 L 341.984375 161.761719 L 342.070312 163.238281 L 342.15625 164.671875 L 342.328125 167.410156 L 342.414062 168.714844 L 342.5 169.980469 L 342.671875 172.386719 L 343.015625 176.722656 L 343.097656 177.644531 L 343.175781 178.539062 L 343.335938 180.230469 L 343.417969 181.027344 L 343.496094 181.800781 L 343.65625 183.257812 L 343.738281 183.941406 L 343.816406 184.601562 L 343.980469 185.847656 L 344.300781 188.042969 L 344.378906 188.535156 L 344.460938 189.007812 L 344.621094 189.890625 L 344.699219 190.300781 L 344.78125 190.695312 L 344.941406 191.429688 L 345.019531 191.769531 L 345.101562 192.09375 L 345.261719 192.699219 L 345.339844 192.980469 L 345.421875 193.246094 L 345.582031 193.742188 L 345.664062 193.972656 L 345.742188 194.1875 L 345.902344 194.589844 L 345.984375 194.773438 L 346.0625 194.949219 L 346.222656 195.269531 L 346.304688 195.417969 L 346.382812 195.558594 L 346.542969 195.816406 L 346.625 195.933594 L 346.703125 196.046875 L 346.863281 196.25 L 346.945312 196.339844 L 347.023438 196.429688 L 347.183594 196.589844 L 347.347656 196.730469 L 347.507812 196.851562 L 347.585938 196.910156 L 347.667969 196.960938 L 347.746094 197.011719 L 347.828125 197.058594 L 347.90625 197.101562 L 347.988281 197.140625 L 348.148438 197.214844 L 348.328125 197.285156 L 348.414062 197.316406 L 348.503906 197.347656 L 348.59375 197.375 L 348.683594 197.398438 L 348.863281 197.441406 L 349.042969 197.480469 L 349.3125 197.527344 L 349.398438 197.539062 L 349.578125 197.5625 L 349.667969 197.570312 L 349.757812 197.582031 L 350.027344 197.605469 L 350.117188 197.609375 L 350.207031 197.617188 L 350.386719 197.625 L 350.472656 197.628906 L 350.921875 197.648438 L 351.011719 197.648438 L 351.191406 197.65625 L 351.28125 197.65625 L 351.371094 197.660156 L 351.546875 197.660156 L 351.636719 197.664062 L 351.90625 197.664062 L 351.996094 197.667969 L 352.441406 197.667969 L 352.53125 197.671875 L 353.875 197.671875 " transform="matrix(1,0,0,1,-74,-13)"/>
</g>
<path style="fill:none;stroke-width:0.2;stroke-linecap:butt;stroke-linejoin:miter;stroke:rgb(39.99939%,39.99939%,39.99939%);stroke-opacity:1;stroke-miterlimit:3.25;" d="M 186.25 197.675781 L 186.25 194.144531 " transform="matrix(1,0,0,1,-74,-13)"/>
<path style="fill:none;stroke-width:0.2;stroke-linecap:butt;stroke-linejoin:miter;stroke:rgb(39.99939%,39.99939%,39.99939%);stroke-opacity:1;stroke-miterlimit:3.25;" d="M 149 197.675781 L 149 194.144531 " transform="matrix(1,0,0,1,-74,-13)"/>
<path style="fill:none;stroke-width:0.2;stroke-linecap:butt;stroke-linejoin:miter;stroke:rgb(39.99939%,39.99939%,39.99939%);stroke-opacity:1;stroke-miterlimit:3.25;" d="M 111.75 197.675781 L 111.75 194.144531 " transform="matrix(1,0,0,1,-74,-13)"/>
<path style="fill:none;stroke-width:0.2;stroke-linecap:butt;stroke-linejoin:miter;stroke:rgb(39.99939%,39.99939%,39.99939%);stroke-opacity:1;stroke-miterlimit:3.25;" d="M 74.5 197.675781 L 74.5 194.144531 " transform="matrix(1,0,0,1,-74,-13)"/>
<path style="fill:none;stroke-width:0.2;stroke-linecap:butt;stroke-linejoin:miter;stroke:rgb(39.99939%,39.99939%,39.99939%);stroke-opacity:1;stroke-miterlimit:3.25;" d="M 260.75 197.675781 L 260.75 194.144531 " transform="matrix(1,0,0,1,-74,-13)"/>
<path style="fill:none;stroke-width:0.2;stroke-linecap:butt;stroke-linejoin:miter;stroke:rgb(39.99939%,39.99939%,39.99939%);stroke-opacity:1;stroke-miterlimit:3.25;" d="M 298 197.675781 L 298 194.144531 " transform="matrix(1,0,0,1,-74,-13)"/>
<path style="fill:none;stroke-width:0.2;stroke-linecap:butt;stroke-linejoin:miter;stroke:rgb(39.99939%,39.99939%,39.99939%);stroke-opacity:1;stroke-miterlimit:3.25;" d="M 335.25 197.675781 L 335.25 194.144531 " transform="matrix(1,0,0,1,-74,-13)"/>
<path style="fill:none;stroke-width:0.2;stroke-linecap:butt;stroke-linejoin:miter;stroke:rgb(39.99939%,39.99939%,39.99939%);stroke-opacity:1;stroke-miterlimit:3.25;" d="M 372.5 197.675781 L 372.5 194.144531 " transform="matrix(1,0,0,1,-74,-13)"/>
<path style="fill:none;stroke-width:0.2;stroke-linecap:butt;stroke-linejoin:miter;stroke:rgb(39.99939%,39.99939%,39.99939%);stroke-opacity:1;stroke-miterlimit:3.25;" d="M 74.5 197.675781 L 372.5 197.675781 " transform="matrix(1,0,0,1,-74,-13)"/>
<path style="fill:none;stroke-width:0.2;stroke-linecap:butt;stroke-linejoin:miter;stroke:rgb(39.99939%,39.99939%,39.99939%);stroke-opacity:1;stroke-miterlimit:3.25;" d="M 223.5 197.675781 L 223.5 13.5 " transform="matrix(1,0,0,1,-74,-13)"/>
</g>
</svg>
