<?xml version="1.0" encoding="UTF-8"?>
<svg xmlns="http://www.w3.org/2000/svg" xmlns:xlink="http://www.w3.org/1999/xlink" width="350pt" height="217pt" viewBox="0 0 350 217" version="1.1">
<defs>
<clipPath id="clip1">
  <path d="M 5 57 L 349 57 L 349 159 L 5 159 Z M 5 57 "/>
</clipPath>
<clipPath id="clip2">
  <path d="M 0 38 L 349 38 L 349 178 L 0 178 Z M 0 38 "/>
</clipPath>
</defs>
<g id="surface164">
<path style=" stroke:none;fill-rule:evenodd;fill:rgb(0%,0%,0%);fill-opacity:1;" d="M 9.175781 156 C 9.175781 155.421875 8.945312 154.871094 8.539062 154.460938 C 8.128906 154.054688 7.578125 153.824219 7 153.824219 C 6.421875 153.824219 5.871094 154.054688 5.460938 154.460938 C 5.054688 154.871094 4.824219 155.421875 4.824219 156 C 4.824219 156.578125 5.054688 157.128906 5.460938 157.539062 C 5.871094 157.945312 6.421875 158.175781 7 158.175781 C 7.578125 158.175781 8.128906 157.945312 8.539062 157.539062 C 8.945312 157.128906 9.175781 156.578125 9.175781 156 Z M 9.175781 156 "/>
<path style=" stroke:none;fill-rule:evenodd;fill:rgb(0%,0%,0%);fill-opacity:1;" d="M 20.175781 156 C 20.175781 155.421875 19.945312 154.871094 19.539062 154.460938 C 19.128906 154.054688 18.578125 153.824219 18 153.824219 C 17.421875 153.824219 16.871094 154.054688 16.460938 154.460938 C 16.054688 154.871094 15.824219 155.421875 15.824219 156 C 15.824219 156.578125 16.054688 157.128906 16.460938 157.539062 C 16.871094 157.945312 17.421875 158.175781 18 158.175781 C 18.578125 158.175781 19.128906 157.945312 19.539062 157.539062 C 19.945312 157.128906 20.175781 156.578125 20.175781 156 Z M 20.175781 156 "/>
<path style=" stroke:none;fill-rule:evenodd;fill:rgb(0%,0%,0%);fill-opacity:1;" d="M 31.175781 156 C 31.175781 155.421875 30.945312 154.871094 30.539062 154.460938 C 30.128906 154.054688 29.578125 153.824219 29 153.824219 C 28.421875 153.824219 27.871094 154.054688 27.460938 154.460938 C 27.054688 154.871094 26.824219 155.421875 26.824219 156 C 26.824219 156.578125 27.054688 157.128906 27.460938 157.539062 C 27.871094 157.945312 28.421875 158.175781 29 158.175781 C 29.578125 158.175781 30.128906 157.945312 30.539062 157.539062 C 30.945312 157.128906 31.175781 156.578125 31.175781 156 Z M 31.175781 156 "/>
<path style=" stroke:none;fill-rule:evenodd;fill:rgb(0%,0%,0%);fill-opacity:1;" d="M 42.175781 156 C 42.175781 155.421875 41.945312 154.871094 41.539062 154.460938 C 41.128906 154.054688 40.578125 153.824219 40 153.824219 C 39.421875 153.824219 38.871094 154.054688 38.460938 154.460938 C 38.054688 154.871094 37.824219 155.421875 37.824219 156 C 37.824219 156.578125 38.054688 157.128906 38.460938 157.539062 C 38.871094 157.945312 39.421875 158.175781 40 158.175781 C 40.578125 158.175781 41.128906 157.945312 41.539062 157.539062 C 41.945312 157.128906 42.175781 156.578125 42.175781 156 Z M 42.175781 156 "/>
<path style=" stroke:none;fill-rule:evenodd;fill:rgb(0%,0%,0%);fill-opacity:1;" d="M 53.175781 156 C 53.175781 155.421875 52.945312 154.871094 52.539062 154.460938 C 52.128906 154.054688 51.578125 153.824219 51 153.824219 C 50.421875 153.824219 49.871094 154.054688 49.460938 154.460938 C 49.054688 154.871094 48.824219 155.421875 48.824219 156 C 48.824219 156.578125 49.054688 157.128906 49.460938 157.539062 C 49.871094 157.945312 50.421875 158.175781 51 158.175781 C 51.578125 158.175781 52.128906 157.945312 52.539062 157.539062 C 52.945312 157.128906 53.175781 156.578125 53.175781 156 Z M 53.175781 156 "/>
<path style=" stroke:none;fill-rule:evenodd;fill:rgb(0%,0%,0%);fill-opacity:1;" d="M 63.175781 156 C 63.175781 155.421875 62.945312 154.871094 62.539062 154.460938 C 62.128906 154.054688 61.578125 153.824219 61 153.824219 C 60.421875 153.824219 59.871094 154.054688 59.460938 154.460938 C 59.054688 154.871094 58.824219 155.421875 58.824219 156 C 58.824219 156.578125 59.054688 157.128906 59.460938 157.539062 C 59.871094 157.945312 60.421875 158.175781 61 158.175781 C 61.578125 158.175781 62.128906 157.945312 62.539062 157.539062 C 62.945312 157.128906 63.175781 156.578125 63.175781 156 Z M 63.175781 156 "/>
<path style=" stroke:none;fill-rule:evenodd;fill:rgb(0%,0%,0%);fill-opacity:1;" d="M 74.175781 156 C 74.175781 155.421875 73.945312 154.871094 73.539062 154.460938 C 73.128906 154.054688 72.578125 153.824219 72 153.824219 C 71.421875 153.824219 70.871094 154.054688 70.460938 154.460938 C 70.054688 154.871094 69.824219 155.421875 69.824219 156 C 69.824219 156.578125 70.054688 157.128906 70.460938 157.539062 C 70.871094 157.945312 71.421875 158.175781 72 158.175781 C 72.578125 158.175781 73.128906 157.945312 73.539062 157.539062 C 73.945312 157.128906 74.175781 156.578125 74.175781 156 Z M 74.175781 156 "/>
<path style=" stroke:none;fill-rule:evenodd;fill:rgb(0%,0%,0%);fill-opacity:1;" d="M 85.175781 156 C 85.175781 155.421875 84.945312 154.871094 84.539062 154.460938 C 84.128906 154.054688 83.578125 153.824219 83 153.824219 C 82.421875 153.824219 81.871094 154.054688 81.460938 154.460938 C 81.054688 154.871094 80.824219 155.421875 80.824219 156 C 80.824219 156.578125 81.054688 157.128906 81.460938 157.539062 C 81.871094 157.945312 82.421875 158.175781 83 158.175781 C 83.578125 158.175781 84.128906 157.945312 84.539062 157.539062 C 84.945312 157.128906 85.175781 156.578125 85.175781 156 Z M 85.175781 156 "/>
<path style=" stroke:none;fill-rule:evenodd;fill:rgb(0%,0%,0%);fill-opacity:1;" d="M 96.175781 60 C 96.175781 59.421875 95.945312 58.871094 95.539062 58.460938 C 95.128906 58.054688 94.578125 57.824219 94 57.824219 C 93.421875 57.824219 92.871094 58.054688 92.460938 58.460938 C 92.054688 58.871094 91.824219 59.421875 91.824219 60 C 91.824219 60.578125 92.054688 61.128906 92.460938 61.539062 C 92.871094 61.945312 93.421875 62.175781 94 62.175781 C 94.578125 62.175781 95.128906 61.945312 95.539062 61.539062 C 95.945312 61.128906 96.175781 60.578125 96.175781 60 Z M 96.175781 60 "/>
<path style=" stroke:none;fill-rule:evenodd;fill:rgb(0%,0%,0%);fill-opacity:1;" d="M 106.175781 60 C 106.175781 59.421875 105.945312 58.871094 105.539062 58.460938 C 105.128906 58.054688 104.578125 57.824219 104 57.824219 C 103.421875 57.824219 102.871094 58.054688 102.460938 58.460938 C 102.054688 58.871094 101.824219 59.421875 101.824219 60 C 101.824219 60.578125 102.054688 61.128906 102.460938 61.539062 C 102.871094 61.945312 103.421875 62.175781 104 62.175781 C 104.578125 62.175781 105.128906 61.945312 105.539062 61.539062 C 105.945312 61.128906 106.175781 60.578125 106.175781 60 Z M 106.175781 60 "/>
<path style=" stroke:none;fill-rule:evenodd;fill:rgb(0%,0%,0%);fill-opacity:1;" d="M 117.175781 60 C 117.175781 59.421875 116.945312 58.871094 116.539062 58.460938 C 116.128906 58.054688 115.578125 57.824219 115 57.824219 C 114.421875 57.824219 113.871094 58.054688 113.460938 58.460938 C 113.054688 58.871094 112.824219 59.421875 112.824219 60 C 112.824219 60.578125 113.054688 61.128906 113.460938 61.539062 C 113.871094 61.945312 114.421875 62.175781 115 62.175781 C 115.578125 62.175781 116.128906 61.945312 116.539062 61.539062 C 116.945312 61.128906 117.175781 60.578125 117.175781 60 Z M 117.175781 60 "/>
<path style=" stroke:none;fill-rule:evenodd;fill:rgb(0%,0%,0%);fill-opacity:1;" d="M 128.175781 60 C 128.175781 59.421875 127.945312 58.871094 127.539062 58.460938 C 127.128906 58.054688 126.578125 57.824219 126 57.824219 C 125.421875 57.824219 124.871094 58.054688 124.460938 58.460938 C 124.054688 58.871094 123.824219 59.421875 123.824219 60 C 123.824219 60.578125 124.054688 61.128906 124.460938 61.539062 C 124.871094 61.945312 125.421875 62.175781 126 62.175781 C 126.578125 62.175781 127.128906 61.945312 127.539062 61.539062 C 127.945312 61.128906 128.175781 60.578125 128.175781 60 Z M 128.175781 60 "/>
<path style=" stroke:none;fill-rule:evenodd;fill:rgb(0%,0%,0%);fill-opacity:1;" d="M 139.175781 60 C 139.175781 59.421875 138.945312 58.871094 138.539062 58.460938 C 138.128906 58.054688 137.578125 57.824219 137 57.824219 C 136.421875 57.824219 135.871094 58.054688 135.460938 58.460938 C 135.054688 58.871094 134.824219 59.421875 134.824219 60 C 134.824219 60.578125 135.054688 61.128906 135.460938 61.539062 C 135.871094 61.945312 136.421875 62.175781 137 62.175781 C 137.578125 62.175781 138.128906 61.945312 138.539062 61.539062 C 138.945312 61.128906 139.175781 60.578125 139.175781 60 Z M 139.175781 60 "/>
<path style=" stroke:none;fill-rule:evenodd;fill:rgb(0%,0%,0%);fill-opacity:1;" d="M 150.175781 60 C 150.175781 59.421875 149.945312 58.871094 149.539062 58.460938 C 149.128906 58.054688 148.578125 57.824219 148 57.824219 C 147.421875 57.824219 146.871094 58.054688 146.460938 58.460938 C 146.054688 58.871094 145.824219 59.421875 145.824219 60 C 145.824219 60.578125 146.054688 61.128906 146.460938 61.539062 C 146.871094 61.945312 147.421875 62.175781 148 62.175781 C 148.578125 62.175781 149.128906 61.945312 149.539062 61.539062 C 149.945312 61.128906 150.175781 60.578125 150.175781 60 Z M 150.175781 60 "/>
<path style=" stroke:none;fill-rule:evenodd;fill:rgb(0%,0%,0%);fill-opacity:1;" d="M 160.175781 60 C 160.175781 59.421875 159.945312 58.871094 159.539062 58.460938 C 159.128906 58.054688 158.578125 57.824219 158 57.824219 C 157.421875 57.824219 156.871094 58.054688 156.460938 58.460938 C 156.054688 58.871094 155.824219 59.421875 155.824219 60 C 155.824219 60.578125 156.054688 61.128906 156.460938 61.539062 C 156.871094 61.945312 157.421875 62.175781 158 62.175781 C 158.578125 62.175781 159.128906 61.945312 159.539062 61.539062 C 159.945312 61.128906 160.175781 60.578125 160.175781 60 Z M 160.175781 60 "/>
<path style=" stroke:none;fill-rule:evenodd;fill:rgb(0%,0%,0%);fill-opacity:1;" d="M 171.175781 60 C 171.175781 59.421875 170.945312 58.871094 170.539062 58.460938 C 170.128906 58.054688 169.578125 57.824219 169 57.824219 C 168.421875 57.824219 167.871094 58.054688 167.460938 58.460938 C 167.054688 58.871094 166.824219 59.421875 166.824219 60 C 166.824219 60.578125 167.054688 61.128906 167.460938 61.539062 C 167.871094 61.945312 168.421875 62.175781 169 62.175781 C 169.578125 62.175781 170.128906 61.945312 170.539062 61.539062 C 170.945312 61.128906 171.175781 60.578125 171.175781 60 Z M 171.175781 60 "/>
<path style=" stroke:none;fill-rule:evenodd;fill:rgb(0%,0%,0%);fill-opacity:1;" d="M 182.175781 156 C 182.175781 155.421875 181.945312 154.871094 181.539062 154.460938 C 181.128906 154.054688 180.578125 153.824219 180 153.824219 C 179.421875 153.824219 178.871094 154.054688 178.460938 154.460938 C 178.054688 154.871094 177.824219 155.421875 177.824219 156 C 177.824219 156.578125 178.054688 157.128906 178.460938 157.539062 C 178.871094 157.945312 179.421875 158.175781 180 158.175781 C 180.578125 158.175781 181.128906 157.945312 181.539062 157.539062 C 181.945312 157.128906 182.175781 156.578125 182.175781 156 Z M 182.175781 156 "/>
<path style=" stroke:none;fill-rule:evenodd;fill:rgb(0%,0%,0%);fill-opacity:1;" d="M 193.175781 156 C 193.175781 155.421875 192.945312 154.871094 192.539062 154.460938 C 192.128906 154.054688 191.578125 153.824219 191 153.824219 C 190.421875 153.824219 189.871094 154.054688 189.460938 154.460938 C 189.054688 154.871094 188.824219 155.421875 188.824219 156 C 188.824219 156.578125 189.054688 157.128906 189.460938 157.539062 C 189.871094 157.945312 190.421875 158.175781 191 158.175781 C 191.578125 158.175781 192.128906 157.945312 192.539062 157.539062 C 192.945312 157.128906 193.175781 156.578125 193.175781 156 Z M 193.175781 156 "/>
<path style=" stroke:none;fill-rule:evenodd;fill:rgb(0%,0%,0%);fill-opacity:1;" d="M 203.175781 156 C 203.175781 155.421875 202.945312 154.871094 202.539062 154.460938 C 202.128906 154.054688 201.578125 153.824219 201 153.824219 C 200.421875 153.824219 199.871094 154.054688 199.460938 154.460938 C 199.054688 154.871094 198.824219 155.421875 198.824219 156 C 198.824219 156.578125 199.054688 157.128906 199.460938 157.539062 C 199.871094 157.945312 200.421875 158.175781 201 158.175781 C 201.578125 158.175781 202.128906 157.945312 202.539062 157.539062 C 202.945312 157.128906 203.175781 156.578125 203.175781 156 Z M 203.175781 156 "/>
<path style=" stroke:none;fill-rule:evenodd;fill:rgb(0%,0%,0%);fill-opacity:1;" d="M 214.175781 156 C 214.175781 155.421875 213.945312 154.871094 213.539062 154.460938 C 213.128906 154.054688 212.578125 153.824219 212 153.824219 C 211.421875 153.824219 210.871094 154.054688 210.460938 154.460938 C 210.054688 154.871094 209.824219 155.421875 209.824219 156 C 209.824219 156.578125 210.054688 157.128906 210.460938 157.539062 C 210.871094 157.945312 211.421875 158.175781 212 158.175781 C 212.578125 158.175781 213.128906 157.945312 213.539062 157.539062 C 213.945312 157.128906 214.175781 156.578125 214.175781 156 Z M 214.175781 156 "/>
<path style=" stroke:none;fill-rule:evenodd;fill:rgb(0%,0%,0%);fill-opacity:1;" d="M 225.175781 156 C 225.175781 155.421875 224.945312 154.871094 224.539062 154.460938 C 224.128906 154.054688 223.578125 153.824219 223 153.824219 C 222.421875 153.824219 221.871094 154.054688 221.460938 154.460938 C 221.054688 154.871094 220.824219 155.421875 220.824219 156 C 220.824219 156.578125 221.054688 157.128906 221.460938 157.539062 C 221.871094 157.945312 222.421875 158.175781 223 158.175781 C 223.578125 158.175781 224.128906 157.945312 224.539062 157.539062 C 224.945312 157.128906 225.175781 156.578125 225.175781 156 Z M 225.175781 156 "/>
<path style=" stroke:none;fill-rule:evenodd;fill:rgb(0%,0%,0%);fill-opacity:1;" d="M 236.175781 156 C 236.175781 155.421875 235.945312 154.871094 235.539062 154.460938 C 235.128906 154.054688 234.578125 153.824219 234 153.824219 C 233.421875 153.824219 232.871094 154.054688 232.460938 154.460938 C 232.054688 154.871094 231.824219 155.421875 231.824219 156 C 231.824219 156.578125 232.054688 157.128906 232.460938 157.539062 C 232.871094 157.945312 233.421875 158.175781 234 158.175781 C 234.578125 158.175781 235.128906 157.945312 235.539062 157.539062 C 235.945312 157.128906 236.175781 156.578125 236.175781 156 Z M 236.175781 156 "/>
<path style=" stroke:none;fill-rule:evenodd;fill:rgb(0%,0%,0%);fill-opacity:1;" d="M 247.175781 156 C 247.175781 155.421875 246.945312 154.871094 246.539062 154.460938 C 246.128906 154.054688 245.578125 153.824219 245 153.824219 C 244.421875 153.824219 243.871094 154.054688 243.460938 154.460938 C 243.054688 154.871094 242.824219 155.421875 242.824219 156 C 242.824219 156.578125 243.054688 157.128906 243.460938 157.539062 C 243.871094 157.945312 244.421875 158.175781 245 158.175781 C 245.578125 158.175781 246.128906 157.945312 246.539062 157.539062 C 246.945312 157.128906 247.175781 156.578125 247.175781 156 Z M 247.175781 156 "/>
<path style=" stroke:none;fill-rule:evenodd;fill:rgb(0%,0%,0%);fill-opacity:1;" d="M 257.175781 156 C 257.175781 155.421875 256.945312 154.871094 256.539062 154.460938 C 256.128906 154.054688 255.578125 153.824219 255 153.824219 C 254.421875 153.824219 253.871094 154.054688 253.460938 154.460938 C 253.054688 154.871094 252.824219 155.421875 252.824219 156 C 252.824219 156.578125 253.054688 157.128906 253.460938 157.539062 C 253.871094 157.945312 254.421875 158.175781 255 158.175781 C 255.578125 158.175781 256.128906 157.945312 256.539062 157.539062 C 256.945312 157.128906 257.175781 156.578125 257.175781 156 Z M 257.175781 156 "/>
<path style=" stroke:none;fill-rule:evenodd;fill:rgb(0%,0%,0%);fill-opacity:1;" d="M 268.175781 60 C 268.175781 59.421875 267.945312 58.871094 267.539062 58.460938 C 267.128906 58.054688 266.578125 57.824219 266 57.824219 C 265.421875 57.824219 264.871094 58.054688 264.460938 58.460938 C 264.054688 58.871094 263.824219 59.421875 263.824219 60 C 263.824219 60.578125 264.054688 61.128906 264.460938 61.539062 C 264.871094 61.945312 265.421875 62.175781 266 62.175781 C 266.578125 62.175781 267.128906 61.945312 267.539062 61.539062 C 267.945312 61.128906 268.175781 60.578125 268.175781 60 Z M 268.175781 60 "/>
<path style=" stroke:none;fill-rule:evenodd;fill:rgb(0%,0%,0%);fill-opacity:1;" d="M 279.175781 60 C 279.175781 59.421875 278.945312 58.871094 278.539062 58.460938 C 278.128906 58.054688 277.578125 57.824219 277 57.824219 C 276.421875 57.824219 275.871094 58.054688 275.460938 58.460938 C 275.054688 58.871094 274.824219 59.421875 274.824219 60 C 274.824219 60.578125 275.054688 61.128906 275.460938 61.539062 C 275.871094 61.945312 276.421875 62.175781 277 62.175781 C 277.578125 62.175781 278.128906 61.945312 278.539062 61.539062 C 278.945312 61.128906 279.175781 60.578125 279.175781 60 Z M 279.175781 60 "/>
<path style=" stroke:none;fill-rule:evenodd;fill:rgb(0%,0%,0%);fill-opacity:1;" d="M 290.175781 60 C 290.175781 59.421875 289.945312 58.871094 289.539062 58.460938 C 289.128906 58.054688 288.578125 57.824219 288 57.824219 C 287.421875 57.824219 286.871094 58.054688 286.460938 58.460938 C 286.054688 58.871094 285.824219 59.421875 285.824219 60 C 285.824219 60.578125 286.054688 61.128906 286.460938 61.539062 C 286.871094 61.945312 287.421875 62.175781 288 62.175781 C 288.578125 62.175781 289.128906 61.945312 289.539062 61.539062 C 289.945312 61.128906 290.175781 60.578125 290.175781 60 Z M 290.175781 60 "/>
<path style=" stroke:none;fill-rule:evenodd;fill:rgb(0%,0%,0%);fill-opacity:1;" d="M 300.175781 60 C 300.175781 59.421875 299.945312 58.871094 299.539062 58.460938 C 299.128906 58.054688 298.578125 57.824219 298 57.824219 C 297.421875 57.824219 296.871094 58.054688 296.460938 58.460938 C 296.054688 58.871094 295.824219 59.421875 295.824219 60 C 295.824219 60.578125 296.054688 61.128906 296.460938 61.539062 C 296.871094 61.945312 297.421875 62.175781 298 62.175781 C 298.578125 62.175781 299.128906 61.945312 299.539062 61.539062 C 299.945312 61.128906 300.175781 60.578125 300.175781 60 Z M 300.175781 60 "/>
<path style=" stroke:none;fill-rule:evenodd;fill:rgb(0%,0%,0%);fill-opacity:1;" d="M 311.175781 60 C 311.175781 59.421875 310.945312 58.871094 310.539062 58.460938 C 310.128906 58.054688 309.578125 57.824219 309 57.824219 C 308.421875 57.824219 307.871094 58.054688 307.460938 58.460938 C 307.054688 58.871094 306.824219 59.421875 306.824219 60 C 306.824219 60.578125 307.054688 61.128906 307.460938 61.539062 C 307.871094 61.945312 308.421875 62.175781 309 62.175781 C 309.578125 62.175781 310.128906 61.945312 310.539062 61.539062 C 310.945312 61.128906 311.175781 60.578125 311.175781 60 Z M 311.175781 60 "/>
<path style=" stroke:none;fill-rule:evenodd;fill:rgb(0%,0%,0%);fill-opacity:1;" d="M 322.175781 60 C 322.175781 59.421875 321.945312 58.871094 321.539062 58.460938 C 321.128906 58.054688 320.578125 57.824219 320 57.824219 C 319.421875 57.824219 318.871094 58.054688 318.460938 58.460938 C 318.054688 58.871094 317.824219 59.421875 317.824219 60 C 317.824219 60.578125 318.054688 61.128906 318.460938 61.539062 C 318.871094 61.945312 319.421875 62.175781 320 62.175781 C 320.578125 62.175781 321.128906 61.945312 321.539062 61.539062 C 321.945312 61.128906 322.175781 60.578125 322.175781 60 Z M 322.175781 60 "/>
<path style=" stroke:none;fill-rule:evenodd;fill:rgb(0%,0%,0%);fill-opacity:1;" d="M 333.175781 60 C 333.175781 59.421875 332.945312 58.871094 332.539062 58.460938 C 332.128906 58.054688 331.578125 57.824219 331 57.824219 C 330.421875 57.824219 329.871094 58.054688 329.460938 58.460938 C 329.054688 58.871094 328.824219 59.421875 328.824219 60 C 328.824219 60.578125 329.054688 61.128906 329.460938 61.539062 C 329.871094 61.945312 330.421875 62.175781 331 62.175781 C 331.578125 62.175781 332.128906 61.945312 332.539062 61.539062 C 332.945312 61.128906 333.175781 60.578125 333.175781 60 Z M 333.175781 60 "/>
<path style=" stroke:none;fill-rule:evenodd;fill:rgb(0%,0%,0%);fill-opacity:1;" d="M 344.175781 60 C 344.175781 59.421875 343.945312 58.871094 343.539062 58.460938 C 343.128906 58.054688 342.578125 57.824219 342 57.824219 C 341.421875 57.824219 340.871094 58.054688 340.460938 58.460938 C 340.054688 58.871094 339.824219 59.421875 339.824219 60 C 339.824219 60.578125 340.054688 61.128906 340.460938 61.539062 C 340.871094 61.945312 341.421875 62.175781 342 62.175781 C 342.578125 62.175781 343.128906 61.945312 343.539062 61.539062 C 343.945312 61.128906 344.175781 60.578125 344.175781 60 Z M 344.175781 60 "/>
<g clip-path="url(#clip1)" clip-rule="nonzero">
<path style="fill:none;stroke-width:0.5;stroke-linecap:square;stroke-linejoin:miter;stroke:rgb(36.84082%,50.67749%,70.979309%);stroke-opacity:1;stroke-dasharray:5,7;stroke-miterlimit:3.25;" d="M 81.460938 169.429688 L 167.585938 169.429688 L 167.703125 72.644531 L 253.808594 72.644531 L 253.914062 169.429688 L 340.023438 169.429688 L 340.132812 72.644531 L 426.316406 72.644531 " transform="matrix(1,0,0,1,-74,-13)"/>
</g>
<g clip-path="url(#clip2)" clip-rule="nonzero">
<path style="fill:none;stroke-width:1.6;stroke-linecap:square;stroke-linejoin:miter;stroke:rgb(36.84082%,50.67749%,70.979309%);stroke-opacity:1;stroke-miterlimit:3.25;" d="M 81.460938 169.429688 L 81.566406 170.089844 L 81.671875 170.734375 L 81.882812 171.980469 L 81.988281 172.578125 L 82.09375 173.164062 L 82.304688 174.28125 L 82.410156 174.816406 L 82.519531 175.335938 L 82.730469 176.328125 L 83.152344 178.117188 L 83.257812 178.523438 L 83.363281 178.914062 L 83.574219 179.644531 L 83.679688 179.984375 L 83.785156 180.3125 L 84 180.914062 L 84.105469 181.191406 L 84.210938 181.453125 L 84.316406 181.699219 L 84.421875 181.925781 L 84.527344 182.140625 L 84.632812 182.339844 L 84.738281 182.523438 L 84.84375 182.691406 L 84.949219 182.84375 L 85.054688 182.980469 L 85.160156 183.101562 L 85.269531 183.210938 L 85.375 183.304688 L 85.480469 183.382812 L 85.585938 183.445312 L 85.691406 183.496094 L 85.796875 183.53125 L 85.902344 183.554688 L 86.007812 183.5625 L 86.113281 183.558594 L 86.21875 183.539062 L 86.324219 183.507812 L 86.429688 183.464844 L 86.535156 183.410156 L 86.640625 183.339844 L 86.75 183.257812 L 86.855469 183.167969 L 86.960938 183.0625 L 87.066406 182.949219 L 87.171875 182.820312 L 87.382812 182.535156 L 87.488281 182.378906 L 87.59375 182.210938 L 87.804688 181.847656 L 87.910156 181.648438 L 88.015625 181.445312 L 88.230469 181.007812 L 88.34375 180.757812 L 88.457031 180.5 L 88.6875 179.957031 L 89.144531 178.777344 L 90.0625 176.140625 L 90.179688 175.792969 L 90.292969 175.445312 L 90.523438 174.734375 L 90.980469 173.300781 L 91.898438 170.449219 L 92.011719 170.101562 L 92.128906 169.753906 L 92.355469 169.074219 L 92.816406 167.761719 L 92.929688 167.445312 L 93.046875 167.136719 L 93.273438 166.53125 L 93.734375 165.398438 L 93.847656 165.132812 L 93.960938 164.871094 L 94.191406 164.375 L 94.304688 164.140625 L 94.421875 163.914062 L 94.648438 163.480469 L 94.765625 163.277344 L 94.878906 163.082031 L 95.109375 162.71875 L 95.222656 162.546875 L 95.339844 162.390625 L 95.566406 162.097656 L 95.675781 161.972656 L 95.78125 161.859375 L 95.890625 161.75 L 95.996094 161.652344 L 96.101562 161.558594 L 96.210938 161.476562 L 96.316406 161.402344 L 96.425781 161.335938 L 96.53125 161.277344 L 96.636719 161.226562 L 96.746094 161.1875 L 96.851562 161.152344 L 96.960938 161.128906 L 97.066406 161.109375 L 97.171875 161.101562 L 97.28125 161.101562 L 97.386719 161.109375 L 97.496094 161.121094 L 97.601562 161.144531 L 97.707031 161.175781 L 97.816406 161.214844 L 97.921875 161.261719 L 98.03125 161.3125 L 98.136719 161.375 L 98.246094 161.441406 L 98.351562 161.515625 L 98.457031 161.601562 L 98.566406 161.6875 L 98.671875 161.785156 L 98.78125 161.886719 L 98.992188 162.113281 L 99.101562 162.234375 L 99.207031 162.363281 L 99.421875 162.636719 L 99.851562 163.253906 L 99.957031 163.421875 L 100.0625 163.59375 L 100.277344 163.949219 L 100.707031 164.710938 L 100.8125 164.910156 L 100.921875 165.113281 L 101.136719 165.527344 L 101.5625 166.386719 L 102.417969 168.179688 L 102.523438 168.402344 L 102.628906 168.621094 L 102.839844 169.066406 L 103.257812 169.941406 L 103.46875 170.371094 L 103.679688 170.792969 L 104.097656 171.609375 L 104.203125 171.808594 L 104.308594 172.003906 L 104.519531 172.382812 L 104.9375 173.101562 L 105.042969 173.269531 L 105.148438 173.433594 L 105.359375 173.75 L 105.777344 174.328125 L 105.882812 174.460938 L 105.988281 174.589844 L 106.199219 174.828125 L 106.304688 174.941406 L 106.410156 175.046875 L 106.617188 175.242188 L 106.828125 175.414062 L 106.933594 175.492188 L 107.039062 175.5625 L 107.144531 175.628906 L 107.246094 175.6875 L 107.351562 175.742188 L 107.457031 175.789062 L 107.5625 175.832031 L 107.667969 175.867188 L 107.773438 175.898438 L 107.878906 175.921875 L 107.984375 175.9375 L 108.085938 175.949219 L 108.191406 175.957031 L 108.296875 175.957031 L 108.402344 175.949219 L 108.507812 175.9375 L 108.613281 175.917969 L 108.71875 175.894531 L 108.824219 175.863281 L 108.925781 175.828125 L 109.03125 175.785156 L 109.136719 175.738281 L 109.25 175.679688 L 109.363281 175.617188 L 109.480469 175.542969 L 109.59375 175.464844 L 109.707031 175.382812 L 109.820312 175.292969 L 110.046875 175.09375 L 110.164062 174.984375 L 110.277344 174.871094 L 110.503906 174.628906 L 110.960938 174.074219 L 111.074219 173.925781 L 111.1875 173.769531 L 111.414062 173.449219 L 111.871094 172.757812 L 112.78125 171.234375 L 112.894531 171.035156 L 113.007812 170.832031 L 113.238281 170.425781 L 113.691406 169.605469 L 114.601562 167.988281 L 114.714844 167.792969 L 114.832031 167.597656 L 115.058594 167.214844 L 115.511719 166.484375 L 115.628906 166.3125 L 115.742188 166.140625 L 115.96875 165.808594 L 116.425781 165.195312 L 116.636719 164.9375 L 116.847656 164.695312 L 116.957031 164.578125 L 117.0625 164.46875 L 117.273438 164.261719 L 117.382812 164.167969 L 117.488281 164.078125 L 117.59375 163.992188 L 117.699219 163.910156 L 117.804688 163.835938 L 117.914062 163.765625 L 118.019531 163.703125 L 118.125 163.644531 L 118.230469 163.589844 L 118.335938 163.542969 L 118.445312 163.5 L 118.550781 163.464844 L 118.65625 163.433594 L 118.761719 163.40625 L 118.867188 163.386719 L 118.976562 163.375 L 119.082031 163.367188 L 119.1875 163.363281 L 119.292969 163.367188 L 119.398438 163.375 L 119.507812 163.390625 L 119.613281 163.410156 L 119.71875 163.4375 L 119.824219 163.46875 L 119.929688 163.507812 L 120.039062 163.550781 L 120.144531 163.597656 L 120.25 163.652344 L 120.460938 163.777344 L 120.675781 163.925781 L 120.78125 164.003906 L 120.886719 164.089844 L 121.101562 164.277344 L 121.207031 164.378906 L 121.3125 164.488281 L 121.523438 164.710938 L 121.632812 164.832031 L 121.738281 164.957031 L 121.949219 165.21875 L 122.375 165.789062 L 122.480469 165.941406 L 122.585938 166.097656 L 122.800781 166.417969 L 123.226562 167.09375 L 123.339844 167.285156 L 123.457031 167.476562 L 123.6875 167.871094 L 124.148438 168.675781 L 125.066406 170.332031 L 125.183594 170.539062 L 125.296875 170.742188 L 125.527344 171.148438 L 125.988281 171.945312 L 126.105469 172.136719 L 126.21875 172.328125 L 126.449219 172.699219 L 126.910156 173.402344 L 127.027344 173.570312 L 127.140625 173.730469 L 127.371094 174.042969 L 127.484375 174.191406 L 127.601562 174.332031 L 127.832031 174.605469 L 127.945312 174.730469 L 128.0625 174.855469 L 128.292969 175.082031 L 128.40625 175.183594 L 128.523438 175.28125 L 128.753906 175.460938 L 128.867188 175.539062 L 128.984375 175.613281 L 129.097656 175.679688 L 129.214844 175.738281 L 129.328125 175.789062 L 129.445312 175.835938 L 129.558594 175.875 L 129.675781 175.90625 L 129.789062 175.929688 L 129.90625 175.945312 L 130.019531 175.957031 L 130.136719 175.957031 L 130.25 175.953125 L 130.363281 175.941406 L 130.480469 175.921875 L 130.59375 175.898438 L 130.707031 175.863281 L 130.820312 175.824219 L 130.933594 175.777344 L 131.046875 175.722656 L 131.160156 175.660156 L 131.273438 175.59375 L 131.386719 175.519531 L 131.5 175.4375 L 131.613281 175.347656 L 131.726562 175.253906 L 131.953125 175.042969 L 132.066406 174.929688 L 132.179688 174.808594 L 132.40625 174.550781 L 132.515625 174.410156 L 132.628906 174.265625 L 132.855469 173.957031 L 133.308594 173.277344 L 133.421875 173.097656 L 133.535156 172.910156 L 133.761719 172.519531 L 134.214844 171.695312 L 134.441406 171.265625 L 134.664062 170.820312 L 135.117188 169.898438 L 136.023438 168 L 136.25 167.523438 L 136.472656 167.046875 L 136.925781 166.117188 L 137.832031 164.378906 L 137.9375 164.191406 L 138.042969 164.007812 L 138.253906 163.65625 L 138.359375 163.484375 L 138.464844 163.316406 L 138.675781 163 L 138.78125 162.847656 L 138.886719 162.703125 L 139.097656 162.425781 L 139.203125 162.296875 L 139.308594 162.171875 L 139.519531 161.945312 L 139.625 161.839844 L 139.730469 161.738281 L 139.835938 161.648438 L 139.941406 161.5625 L 140.046875 161.484375 L 140.152344 161.414062 L 140.257812 161.347656 L 140.363281 161.289062 L 140.46875 161.238281 L 140.574219 161.195312 L 140.679688 161.160156 L 140.785156 161.132812 L 140.890625 161.113281 L 140.996094 161.101562 L 141.101562 161.09375 L 141.207031 161.097656 L 141.3125 161.109375 L 141.417969 161.125 L 141.523438 161.152344 L 141.628906 161.1875 L 141.734375 161.230469 L 141.839844 161.28125 L 141.945312 161.335938 L 142.050781 161.402344 L 142.15625 161.476562 L 142.261719 161.558594 L 142.367188 161.648438 L 142.472656 161.75 L 142.578125 161.855469 L 142.683594 161.96875 L 142.894531 162.21875 L 143 162.355469 L 143.105469 162.503906 L 143.316406 162.816406 L 143.421875 162.984375 L 143.527344 163.160156 L 143.738281 163.53125 L 143.84375 163.726562 L 143.949219 163.929688 L 144.160156 164.359375 L 144.582031 165.292969 L 144.695312 165.5625 L 144.808594 165.839844 L 145.039062 166.414062 L 145.496094 167.632812 L 146.410156 170.300781 L 146.523438 170.652344 L 146.640625 171.003906 L 146.867188 171.710938 L 147.324219 173.144531 L 148.238281 175.984375 L 148.355469 176.328125 L 148.46875 176.671875 L 148.699219 177.34375 L 149.15625 178.632812 L 149.382812 179.242188 L 149.613281 179.820312 L 150.070312 180.886719 L 150.183594 181.132812 L 150.296875 181.367188 L 150.527344 181.808594 L 150.640625 182.011719 L 150.757812 182.207031 L 150.984375 182.558594 L 151.097656 182.714844 L 151.214844 182.863281 L 151.328125 182.996094 L 151.441406 183.117188 L 151.554688 183.222656 L 151.671875 183.316406 L 151.785156 183.394531 L 151.898438 183.457031 L 152.007812 183.507812 L 152.113281 183.539062 L 152.21875 183.5625 L 152.328125 183.570312 L 152.433594 183.5625 L 152.539062 183.542969 L 152.648438 183.511719 L 152.753906 183.460938 L 152.859375 183.398438 L 152.96875 183.324219 L 153.074219 183.230469 L 153.179688 183.125 L 153.289062 183.003906 L 153.394531 182.867188 L 153.5 182.714844 L 153.609375 182.546875 L 153.714844 182.363281 L 153.820312 182.164062 L 153.929688 181.949219 L 154.035156 181.71875 L 154.140625 181.472656 L 154.25 181.210938 L 154.460938 180.632812 L 154.570312 180.324219 L 154.675781 179.996094 L 154.890625 179.289062 L 154.996094 178.910156 L 155.101562 178.515625 L 155.316406 177.675781 L 155.421875 177.234375 L 155.53125 176.773438 L 155.742188 175.800781 L 156.167969 173.664062 L 156.277344 173.089844 L 156.382812 172.496094 L 156.597656 171.269531 L 157.023438 168.621094 L 157.128906 167.917969 L 157.238281 167.203125 L 157.449219 165.726562 L 157.878906 162.605469 L 158.730469 155.714844 L 158.835938 154.816406 L 158.941406 153.910156 L 159.152344 152.058594 L 159.570312 148.238281 L 160.40625 140.1875 L 162.082031 123.042969 L 162.1875 121.953125 L 162.289062 120.859375 L 162.5 118.675781 L 162.917969 114.320312 L 163.753906 105.746094 L 163.859375 104.695312 L 163.964844 103.648438 L 164.175781 101.574219 L 164.59375 97.507812 L 165.429688 89.777344 L 165.542969 88.773438 L 165.65625 87.785156 L 165.882812 85.847656 L 166.339844 82.136719 L 166.453125 81.242188 L 166.566406 80.367188 L 166.792969 78.660156 L 167.246094 75.433594 L 167.359375 74.667969 L 167.472656 73.921875 L 167.703125 72.476562 L 167.816406 71.78125 L 167.929688 71.101562 L 168.15625 69.796875 L 168.269531 69.175781 L 168.382812 68.566406 L 168.609375 67.40625 L 169.0625 65.3125 L 169.175781 64.832031 L 169.292969 64.375 L 169.519531 63.511719 L 169.632812 63.109375 L 169.746094 62.722656 L 169.972656 62.007812 L 170.085938 61.679688 L 170.199219 61.367188 L 170.3125 61.074219 L 170.425781 60.800781 L 170.539062 60.542969 L 170.652344 60.304688 L 170.765625 60.082031 L 170.878906 59.878906 L 170.996094 59.695312 L 171.109375 59.527344 L 171.222656 59.375 L 171.335938 59.242188 L 171.449219 59.125 L 171.5625 59.023438 L 171.675781 58.941406 L 171.789062 58.871094 L 171.902344 58.820312 L 172.015625 58.785156 L 172.128906 58.765625 L 172.242188 58.761719 L 172.355469 58.769531 L 172.46875 58.796875 L 172.585938 58.835938 L 172.699219 58.890625 L 172.804688 58.953125 L 172.910156 59.027344 L 173.015625 59.113281 L 173.121094 59.214844 L 173.226562 59.324219 L 173.332031 59.445312 L 173.546875 59.71875 L 173.652344 59.867188 L 173.757812 60.03125 L 173.96875 60.382812 L 174.074219 60.574219 L 174.179688 60.773438 L 174.394531 61.195312 L 174.5 61.417969 L 174.605469 61.652344 L 174.816406 62.136719 L 175.242188 63.183594 L 176.089844 65.527344 L 176.195312 65.835938 L 176.300781 66.148438 L 176.511719 66.785156 L 176.9375 68.070312 L 177.785156 70.664062 L 177.890625 70.984375 L 178.207031 71.933594 L 178.632812 73.164062 L 179.480469 75.445312 L 179.59375 75.730469 L 179.707031 76.007812 L 179.9375 76.550781 L 180.054688 76.808594 L 180.167969 77.0625 L 180.398438 77.542969 L 180.511719 77.773438 L 180.628906 77.996094 L 180.855469 78.417969 L 180.972656 78.617188 L 181.085938 78.804688 L 181.316406 79.160156 L 181.429688 79.324219 L 181.546875 79.476562 L 181.660156 79.625 L 181.777344 79.761719 L 181.890625 79.890625 L 182.003906 80.007812 L 182.121094 80.117188 L 182.234375 80.21875 L 182.351562 80.308594 L 182.464844 80.390625 L 182.578125 80.464844 L 182.695312 80.53125 L 182.808594 80.585938 L 182.925781 80.628906 L 183.039062 80.664062 L 183.152344 80.691406 L 183.269531 80.710938 L 183.382812 80.71875 L 183.5 80.71875 L 183.613281 80.710938 L 183.726562 80.695312 L 183.84375 80.667969 L 183.957031 80.632812 L 184.074219 80.589844 L 184.1875 80.535156 L 184.300781 80.476562 L 184.417969 80.40625 L 184.53125 80.332031 L 184.648438 80.246094 L 184.761719 80.15625 L 184.992188 79.949219 L 185.105469 79.832031 L 185.222656 79.710938 L 185.453125 79.445312 L 185.566406 79.304688 L 185.679688 79.15625 L 185.910156 78.839844 L 186.027344 78.675781 L 186.140625 78.503906 L 186.371094 78.144531 L 186.828125 77.367188 L 186.941406 77.167969 L 187.054688 76.960938 L 187.28125 76.542969 L 187.730469 75.671875 L 188.632812 73.855469 L 189.085938 72.933594 L 189.535156 72.03125 L 190.4375 70.320312 L 190.664062 69.921875 L 190.886719 69.539062 L 191 69.355469 L 191.113281 69.175781 L 191.339844 68.828125 L 191.453125 68.660156 L 191.566406 68.5 L 191.789062 68.191406 L 191.902344 68.042969 L 192.015625 67.902344 L 192.242188 67.640625 L 192.355469 67.515625 L 192.46875 67.398438 L 192.578125 67.285156 L 192.804688 67.082031 L 192.917969 66.988281 L 193.144531 66.824219 L 193.257812 66.75 L 193.367188 66.683594 L 193.480469 66.621094 L 193.707031 66.519531 L 193.820312 66.480469 L 193.933594 66.445312 L 194.046875 66.421875 L 194.152344 66.402344 L 194.257812 66.386719 L 194.359375 66.378906 L 194.464844 66.378906 L 194.570312 66.382812 L 194.675781 66.390625 L 194.78125 66.40625 L 194.886719 66.429688 L 194.992188 66.457031 L 195.097656 66.488281 L 195.203125 66.527344 L 195.308594 66.570312 L 195.414062 66.621094 L 195.519531 66.675781 L 195.621094 66.734375 L 195.726562 66.800781 L 195.832031 66.871094 L 195.9375 66.945312 L 196.148438 67.113281 L 196.253906 67.203125 L 196.359375 67.300781 L 196.570312 67.503906 L 196.675781 67.613281 L 196.78125 67.726562 L 196.988281 67.96875 L 197.410156 68.496094 L 197.515625 68.636719 L 197.621094 68.78125 L 197.832031 69.082031 L 198.25 69.710938 L 199.09375 71.082031 L 200.777344 73.957031 L 201.003906 74.332031 L 201.230469 74.699219 L 201.6875 75.40625 L 201.800781 75.574219 L 201.914062 75.738281 L 202.144531 76.058594 L 202.601562 76.652344 L 202.714844 76.789062 L 202.828125 76.921875 L 203.054688 77.171875 L 203.285156 77.402344 L 203.511719 77.613281 L 203.625 77.707031 L 203.742188 77.800781 L 203.855469 77.886719 L 203.96875 77.964844 L 204.082031 78.039062 L 204.195312 78.105469 L 204.3125 78.167969 L 204.425781 78.222656 L 204.539062 78.273438 L 204.652344 78.316406 L 204.765625 78.355469 L 204.882812 78.386719 L 204.996094 78.414062 L 205.222656 78.445312 L 205.335938 78.449219 L 205.453125 78.449219 L 205.566406 78.441406 L 205.679688 78.429688 L 205.792969 78.410156 L 205.90625 78.386719 L 206.023438 78.355469 L 206.136719 78.316406 L 206.25 78.273438 L 206.363281 78.222656 L 206.476562 78.167969 L 206.59375 78.105469 L 206.707031 78.035156 L 206.820312 77.960938 L 206.933594 77.882812 L 207.164062 77.707031 L 207.277344 77.609375 L 207.390625 77.507812 L 207.617188 77.285156 L 207.734375 77.167969 L 207.847656 77.042969 L 208.074219 76.785156 L 208.179688 76.65625 L 208.289062 76.523438 L 208.5 76.25 L 208.925781 75.65625 L 209.777344 74.339844 L 209.882812 74.164062 L 209.992188 73.988281 L 210.203125 73.632812 L 210.628906 72.90625 L 211.480469 71.441406 L 211.585938 71.261719 L 211.695312 71.082031 L 211.90625 70.722656 L 212.332031 70.03125 L 212.4375 69.863281 L 212.546875 69.695312 L 212.757812 69.371094 L 213.183594 68.757812 L 213.289062 68.609375 L 213.398438 68.46875 L 213.609375 68.195312 L 213.714844 68.0625 L 213.824219 67.9375 L 214.035156 67.695312 L 214.140625 67.582031 L 214.25 67.472656 L 214.460938 67.269531 L 214.566406 67.175781 L 214.675781 67.085938 L 214.886719 66.917969 L 215.003906 66.839844 L 215.117188 66.765625 L 215.234375 66.695312 L 215.347656 66.632812 L 215.464844 66.578125 L 215.578125 66.53125 L 215.695312 66.488281 L 215.808594 66.453125 L 215.925781 66.425781 L 216.042969 66.402344 L 216.15625 66.390625 L 216.273438 66.382812 L 216.386719 66.382812 L 216.503906 66.386719 L 216.617188 66.402344 L 216.734375 66.421875 L 216.847656 66.449219 L 216.964844 66.484375 L 217.078125 66.523438 L 217.195312 66.574219 L 217.308594 66.628906 L 217.425781 66.691406 L 217.539062 66.757812 L 217.65625 66.835938 L 217.769531 66.917969 L 217.886719 67.007812 L 218.003906 67.105469 L 218.117188 67.207031 L 218.234375 67.316406 L 218.347656 67.429688 L 218.578125 67.679688 L 218.695312 67.816406 L 218.808594 67.953125 L 219.039062 68.253906 L 219.5 68.914062 L 219.617188 69.089844 L 219.730469 69.273438 L 219.964844 69.652344 L 220.425781 70.457031 L 220.539062 70.667969 L 220.65625 70.882812 L 220.886719 71.320312 L 221.347656 72.222656 L 222.269531 74.09375 L 222.496094 74.554688 L 222.722656 75.011719 L 223.175781 75.910156 L 223.289062 76.128906 L 223.402344 76.34375 L 223.628906 76.769531 L 224.082031 77.582031 L 224.195312 77.777344 L 224.308594 77.964844 L 224.535156 78.328125 L 224.648438 78.503906 L 224.761719 78.671875 L 224.988281 78.996094 L 225.101562 79.148438 L 225.214844 79.292969 L 225.441406 79.566406 L 225.554688 79.695312 L 225.667969 79.816406 L 225.894531 80.035156 L 226.007812 80.136719 L 226.121094 80.226562 L 226.234375 80.3125 L 226.347656 80.390625 L 226.460938 80.457031 L 226.574219 80.519531 L 226.6875 80.570312 L 226.800781 80.617188 L 226.914062 80.652344 L 227.027344 80.683594 L 227.140625 80.703125 L 227.253906 80.714844 L 227.367188 80.714844 L 227.480469 80.710938 L 227.59375 80.695312 L 227.707031 80.671875 L 227.820312 80.636719 L 227.933594 80.597656 L 228.046875 80.546875 L 228.160156 80.488281 L 228.273438 80.417969 L 228.386719 80.34375 L 228.5 80.257812 L 228.613281 80.160156 L 228.726562 80.058594 L 228.839844 79.945312 L 228.953125 79.824219 L 229.066406 79.691406 L 229.179688 79.550781 L 229.292969 79.40625 L 229.519531 79.082031 L 229.625 78.921875 L 229.730469 78.753906 L 229.941406 78.394531 L 230.363281 77.59375 L 230.46875 77.375 L 230.574219 77.152344 L 230.785156 76.6875 L 231.207031 75.6875 L 231.3125 75.425781 L 231.417969 75.15625 L 231.628906 74.605469 L 232.054688 73.449219 L 232.898438 70.976562 L 233.003906 70.660156 L 233.109375 70.339844 L 233.320312 69.691406 L 233.742188 68.398438 L 234.589844 65.847656 L 234.695312 65.539062 L 234.800781 65.234375 L 235.011719 64.632812 L 235.433594 63.480469 L 235.539062 63.203125 L 235.644531 62.933594 L 235.855469 62.410156 L 236.28125 61.441406 L 236.394531 61.199219 L 236.507812 60.96875 L 236.738281 60.53125 L 236.851562 60.328125 L 236.964844 60.136719 L 237.195312 59.789062 L 237.308594 59.628906 L 237.425781 59.484375 L 237.539062 59.351562 L 237.652344 59.230469 L 237.769531 59.125 L 237.882812 59.03125 L 237.996094 58.949219 L 238.113281 58.886719 L 238.226562 58.832031 L 238.339844 58.796875 L 238.457031 58.773438 L 238.570312 58.769531 L 238.683594 58.777344 L 238.800781 58.800781 L 238.914062 58.839844 L 239.027344 58.898438 L 239.144531 58.96875 L 239.257812 59.058594 L 239.371094 59.164062 L 239.488281 59.289062 L 239.601562 59.429688 L 239.714844 59.585938 L 239.832031 59.761719 L 239.945312 59.957031 L 240.058594 60.167969 L 240.175781 60.394531 L 240.289062 60.644531 L 240.402344 60.910156 L 240.515625 61.195312 L 240.632812 61.496094 L 240.859375 62.15625 L 240.976562 62.515625 L 241.089844 62.894531 L 241.320312 63.707031 L 241.433594 64.140625 L 241.546875 64.59375 L 241.777344 65.554688 L 241.890625 66.066406 L 242.007812 66.59375 L 242.234375 67.707031 L 242.695312 70.15625 L 242.808594 70.816406 L 242.921875 71.492188 L 243.152344 72.898438 L 243.609375 75.921875 L 243.71875 76.667969 L 243.824219 77.429688 L 244.039062 78.992188 L 244.464844 82.28125 L 245.320312 89.46875 L 245.429688 90.417969 L 245.535156 91.378906 L 245.75 93.332031 L 246.175781 97.351562 L 247.03125 105.761719 L 247.140625 106.84375 L 247.246094 107.929688 L 247.460938 110.113281 L 247.886719 114.527344 L 248.742188 123.441406 L 250.453125 140.925781 L 250.558594 141.953125 L 250.664062 142.976562 L 250.875 145 L 251.292969 148.945312 L 252.132812 156.378906 L 252.238281 157.257812 L 252.34375 158.128906 L 252.550781 159.828125 L 252.972656 163.082031 L 253.808594 168.929688 L 253.914062 169.597656 L 254.019531 170.25 L 254.230469 171.507812 L 254.648438 173.839844 L 254.753906 174.386719 L 254.859375 174.914062 L 255.066406 175.925781 L 255.488281 177.753906 L 255.59375 178.171875 L 255.699219 178.574219 L 255.90625 179.328125 L 256.011719 179.683594 L 256.117188 180.019531 L 256.328125 180.648438 L 256.429688 180.941406 L 256.535156 181.214844 L 256.640625 181.472656 L 256.746094 181.71875 L 256.851562 181.945312 L 256.957031 182.15625 L 257.058594 182.355469 L 257.164062 182.535156 L 257.277344 182.71875 L 257.394531 182.878906 L 257.507812 183.023438 L 257.621094 183.152344 L 257.734375 183.265625 L 257.847656 183.359375 L 257.960938 183.433594 L 258.074219 183.496094 L 258.1875 183.539062 L 258.300781 183.570312 L 258.417969 183.582031 L 258.53125 183.578125 L 258.644531 183.558594 L 258.757812 183.527344 L 258.871094 183.480469 L 258.984375 183.417969 L 259.097656 183.339844 L 259.210938 183.25 L 259.328125 183.144531 L 259.441406 183.027344 L 259.554688 182.898438 L 259.667969 182.753906 L 259.894531 182.433594 L 260.007812 182.253906 L 260.121094 182.0625 L 260.351562 181.652344 L 260.464844 181.429688 L 260.578125 181.195312 L 260.804688 180.703125 L 260.917969 180.445312 L 261.03125 180.175781 L 261.261719 179.617188 L 261.714844 178.414062 L 262.625 175.75 L 264.445312 170.09375 L 264.65625 169.453125 L 264.871094 168.828125 L 265.292969 167.621094 L 265.398438 167.328125 L 265.507812 167.042969 L 265.71875 166.484375 L 266.144531 165.433594 L 266.25 165.183594 L 266.355469 164.941406 L 266.566406 164.476562 L 266.675781 164.253906 L 266.78125 164.035156 L 266.992188 163.625 L 267.097656 163.429688 L 267.203125 163.242188 L 267.417969 162.890625 L 267.523438 162.722656 L 267.628906 162.566406 L 267.839844 162.273438 L 267.949219 162.136719 L 268.054688 162.011719 L 268.160156 161.894531 L 268.265625 161.78125 L 268.371094 161.679688 L 268.476562 161.585938 L 268.585938 161.5 L 268.691406 161.421875 L 268.796875 161.351562 L 268.902344 161.289062 L 269.007812 161.234375 L 269.113281 161.1875 L 269.222656 161.148438 L 269.328125 161.121094 L 269.433594 161.097656 L 269.539062 161.085938 L 269.644531 161.078125 L 269.753906 161.082031 L 269.859375 161.089844 L 269.964844 161.109375 L 270.070312 161.136719 L 270.175781 161.167969 L 270.28125 161.207031 L 270.390625 161.257812 L 270.496094 161.3125 L 270.601562 161.375 L 270.707031 161.445312 L 270.8125 161.523438 L 270.917969 161.605469 L 271.027344 161.695312 L 271.238281 161.898438 L 271.351562 162.019531 L 271.46875 162.144531 L 271.699219 162.421875 L 271.8125 162.570312 L 271.929688 162.726562 L 272.160156 163.054688 L 272.273438 163.230469 L 272.386719 163.410156 L 272.617188 163.785156 L 273.078125 164.59375 L 273.195312 164.808594 L 273.308594 165.023438 L 273.539062 165.46875 L 274 166.394531 L 274.917969 168.328125 L 275.035156 168.570312 L 275.148438 168.8125 L 275.378906 169.300781 L 275.839844 170.253906 L 275.953125 170.488281 L 276.070312 170.722656 L 276.300781 171.179688 L 276.761719 172.054688 L 276.988281 172.46875 L 277.21875 172.867188 L 277.335938 173.058594 L 277.449219 173.246094 L 277.679688 173.605469 L 277.796875 173.777344 L 277.910156 173.945312 L 278.140625 174.257812 L 278.253906 174.40625 L 278.371094 174.550781 L 278.601562 174.816406 L 278.714844 174.9375 L 278.828125 175.054688 L 278.941406 175.160156 L 279.050781 175.265625 L 279.164062 175.359375 L 279.277344 175.449219 L 279.390625 175.53125 L 279.503906 175.605469 L 279.617188 175.675781 L 279.730469 175.734375 L 279.84375 175.789062 L 279.957031 175.839844 L 280.070312 175.878906 L 280.183594 175.914062 L 280.296875 175.9375 L 280.40625 175.960938 L 280.519531 175.972656 L 280.632812 175.976562 L 280.746094 175.976562 L 280.859375 175.96875 L 280.972656 175.953125 L 281.085938 175.929688 L 281.199219 175.902344 L 281.3125 175.863281 L 281.425781 175.820312 L 281.539062 175.773438 L 281.648438 175.714844 L 281.761719 175.652344 L 281.875 175.585938 L 281.988281 175.507812 L 282.214844 175.339844 L 282.328125 175.246094 L 282.441406 175.144531 L 282.667969 174.929688 L 282.78125 174.8125 L 282.894531 174.6875 L 283.117188 174.429688 L 283.34375 174.148438 L 283.570312 173.847656 L 284.023438 173.195312 L 284.136719 173.023438 L 284.246094 172.847656 L 284.472656 172.488281 L 284.925781 171.734375 L 285.828125 170.132812 L 285.933594 169.945312 L 286.25 169.371094 L 286.671875 168.617188 L 286.882812 168.242188 L 287.09375 167.875 L 287.515625 167.160156 L 287.726562 166.816406 L 287.9375 166.484375 L 288.355469 165.851562 L 288.460938 165.703125 L 288.566406 165.558594 L 288.777344 165.277344 L 289.199219 164.765625 L 289.304688 164.648438 L 289.410156 164.535156 L 289.621094 164.320312 L 289.726562 164.222656 L 289.832031 164.128906 L 290.042969 163.957031 L 290.148438 163.878906 L 290.253906 163.804688 L 290.359375 163.734375 L 290.464844 163.671875 L 290.570312 163.613281 L 290.675781 163.5625 L 290.78125 163.515625 L 290.992188 163.4375 L 291.203125 163.382812 L 291.414062 163.351562 L 291.519531 163.34375 L 291.621094 163.34375 L 291.726562 163.347656 L 291.832031 163.355469 L 291.9375 163.371094 L 292.042969 163.390625 L 292.148438 163.417969 L 292.253906 163.449219 L 292.359375 163.488281 L 292.464844 163.53125 L 292.570312 163.578125 L 292.683594 163.636719 L 292.800781 163.703125 L 292.914062 163.773438 L 293.027344 163.851562 L 293.140625 163.933594 L 293.257812 164.023438 L 293.484375 164.21875 L 293.597656 164.328125 L 293.714844 164.441406 L 293.941406 164.683594 L 294.398438 165.230469 L 294.511719 165.378906 L 294.628906 165.53125 L 294.855469 165.851562 L 295.3125 166.539062 L 296.226562 168.058594 L 296.339844 168.257812 L 296.457031 168.460938 L 296.683594 168.867188 L 297.140625 169.691406 L 298.054688 171.328125 L 298.167969 171.527344 L 298.28125 171.722656 L 298.511719 172.109375 L 298.96875 172.855469 L 299.195312 173.207031 L 299.425781 173.542969 L 299.882812 174.164062 L 299.988281 174.300781 L 300.09375 174.429688 L 300.308594 174.675781 L 300.414062 174.792969 L 300.523438 174.90625 L 300.734375 175.113281 L 300.84375 175.210938 L 300.949219 175.300781 L 301.054688 175.386719 L 301.160156 175.46875 L 301.269531 175.542969 L 301.480469 175.675781 L 301.589844 175.730469 L 301.695312 175.785156 L 301.800781 175.828125 L 301.910156 175.871094 L 302.015625 175.902344 L 302.121094 175.929688 L 302.226562 175.953125 L 302.335938 175.96875 L 302.441406 175.976562 L 302.546875 175.980469 L 302.65625 175.976562 L 302.761719 175.96875 L 302.867188 175.953125 L 302.976562 175.929688 L 303.082031 175.902344 L 303.1875 175.867188 L 303.296875 175.828125 L 303.402344 175.78125 L 303.507812 175.726562 L 303.613281 175.667969 L 303.722656 175.601562 L 303.828125 175.53125 L 303.933594 175.453125 L 304.148438 175.277344 L 304.253906 175.183594 L 304.363281 175.082031 L 304.574219 174.863281 L 304.679688 174.742188 L 304.789062 174.621094 L 305 174.355469 L 305.109375 174.214844 L 305.214844 174.070312 L 305.429688 173.765625 L 305.855469 173.101562 L 305.960938 172.925781 L 306.066406 172.742188 L 306.28125 172.367188 L 306.707031 171.578125 L 306.8125 171.378906 L 306.917969 171.175781 L 307.125 170.761719 L 307.542969 169.90625 L 308.378906 168.144531 L 308.589844 167.699219 L 308.796875 167.261719 L 309.214844 166.390625 L 310.054688 164.746094 L 310.15625 164.550781 L 310.261719 164.359375 L 310.472656 163.992188 L 310.574219 163.816406 L 310.679688 163.640625 L 310.890625 163.304688 L 310.992188 163.144531 L 311.097656 162.988281 L 311.308594 162.691406 L 311.410156 162.550781 L 311.515625 162.417969 L 311.726562 162.164062 L 311.828125 162.046875 L 311.933594 161.9375 L 312.039062 161.832031 L 312.144531 161.730469 L 312.25 161.640625 L 312.351562 161.554688 L 312.457031 161.472656 L 312.5625 161.402344 L 312.667969 161.335938 L 312.769531 161.277344 L 312.875 161.226562 L 312.980469 161.183594 L 313.085938 161.144531 L 313.1875 161.117188 L 313.292969 161.09375 L 313.398438 161.082031 L 313.511719 161.074219 L 313.625 161.074219 L 313.738281 161.085938 L 313.851562 161.105469 L 313.964844 161.136719 L 314.078125 161.175781 L 314.191406 161.222656 L 314.304688 161.277344 L 314.417969 161.34375 L 314.53125 161.421875 L 314.644531 161.503906 L 314.757812 161.597656 L 314.871094 161.703125 L 314.984375 161.816406 L 315.214844 162.066406 L 315.328125 162.207031 L 315.441406 162.355469 L 315.667969 162.679688 L 315.78125 162.855469 L 315.894531 163.039062 L 316.121094 163.433594 L 316.234375 163.644531 L 316.347656 163.863281 L 316.574219 164.320312 L 317.027344 165.328125 L 317.140625 165.597656 L 317.253906 165.875 L 317.480469 166.445312 L 317.9375 167.664062 L 318.84375 170.316406 L 320.65625 175.964844 L 320.765625 176.285156 L 320.871094 176.605469 L 321.082031 177.230469 L 321.503906 178.433594 L 321.609375 178.722656 L 321.714844 179.007812 L 321.929688 179.558594 L 322.351562 180.582031 L 322.457031 180.820312 L 322.5625 181.050781 L 322.773438 181.484375 L 322.878906 181.691406 L 322.988281 181.886719 L 323.199219 182.25 L 323.304688 182.417969 L 323.410156 182.574219 L 323.515625 182.722656 L 323.621094 182.859375 L 323.726562 182.984375 L 323.832031 183.101562 L 323.9375 183.203125 L 324.046875 183.296875 L 324.152344 183.375 L 324.257812 183.441406 L 324.363281 183.496094 L 324.46875 183.539062 L 324.574219 183.570312 L 324.679688 183.585938 L 324.785156 183.589844 L 324.890625 183.582031 L 324.996094 183.558594 L 325.101562 183.519531 L 325.210938 183.46875 L 325.316406 183.402344 L 325.421875 183.324219 L 325.527344 183.230469 L 325.632812 183.121094 L 325.738281 182.996094 L 325.84375 182.855469 L 325.949219 182.703125 L 326.054688 182.53125 L 326.160156 182.347656 L 326.265625 182.148438 L 326.375 181.933594 L 326.585938 181.453125 L 326.691406 181.1875 L 326.796875 180.910156 L 327.007812 180.300781 L 327.113281 179.972656 L 327.21875 179.628906 L 327.433594 178.894531 L 327.546875 178.46875 L 327.660156 178.023438 L 327.890625 177.074219 L 328.003906 176.570312 L 328.121094 176.046875 L 328.351562 174.945312 L 328.464844 174.367188 L 328.578125 173.769531 L 328.808594 172.519531 L 329.265625 169.796875 L 329.382812 169.070312 L 329.496094 168.328125 L 329.726562 166.789062 L 330.183594 163.507812 L 331.101562 156.191406 L 331.21875 155.210938 L 331.332031 154.21875 L 331.5625 152.195312 L 332.019531 148.003906 L 332.9375 139.132812 L 334.773438 120.25 L 334.882812 119.132812 L 334.988281 118.015625 L 335.203125 115.785156 L 335.632812 111.351562 L 336.488281 102.679688 L 336.597656 101.621094 L 336.703125 100.570312 L 336.917969 98.488281 L 337.347656 94.421875 L 338.203125 86.765625 L 338.308594 85.855469 L 338.417969 84.960938 L 338.632812 83.207031 L 339.058594 79.855469 L 339.167969 79.050781 L 339.273438 78.261719 L 339.488281 76.722656 L 339.917969 73.824219 L 340.023438 73.136719 L 340.132812 72.464844 L 340.347656 71.167969 L 340.453125 70.542969 L 340.558594 69.933594 L 340.773438 68.765625 L 340.882812 68.203125 L 340.988281 67.660156 L 341.203125 66.621094 L 341.632812 64.738281 L 341.839844 63.910156 L 342.050781 63.148438 L 342.15625 62.792969 L 342.261719 62.449219 L 342.472656 61.8125 L 342.578125 61.519531 L 342.683594 61.242188 L 342.785156 60.976562 L 342.890625 60.730469 L 342.996094 60.5 L 343.101562 60.28125 L 343.3125 59.894531 L 343.417969 59.722656 L 343.523438 59.566406 L 343.628906 59.421875 L 343.730469 59.296875 L 343.835938 59.183594 L 343.941406 59.085938 L 344.046875 59 L 344.152344 58.929688 L 344.257812 58.875 L 344.363281 58.832031 L 344.46875 58.800781 L 344.574219 58.785156 L 344.675781 58.78125 L 344.78125 58.792969 L 344.886719 58.816406 L 344.992188 58.851562 L 345.097656 58.898438 L 345.203125 58.957031 L 345.308594 59.027344 L 345.414062 59.113281 L 345.519531 59.207031 L 345.621094 59.3125 L 345.726562 59.425781 L 345.832031 59.554688 L 345.9375 59.691406 L 346.042969 59.839844 L 346.253906 60.164062 L 346.359375 60.339844 L 346.464844 60.523438 L 346.671875 60.917969 L 346.777344 61.128906 L 346.882812 61.347656 L 347.09375 61.808594 L 347.515625 62.808594 L 347.617188 63.074219 L 347.722656 63.34375 L 347.933594 63.902344 L 348.355469 65.074219 L 348.46875 65.398438 L 348.582031 65.730469 L 348.808594 66.40625 L 349.265625 67.777344 L 350.175781 70.5625 L 350.289062 70.90625 L 350.40625 71.25 L 350.632812 71.925781 L 351.089844 73.242188 L 352 75.667969 L 352.113281 75.945312 L 352.226562 76.214844 L 352.457031 76.742188 L 352.570312 76.992188 L 352.683594 77.234375 L 352.910156 77.703125 L 353.023438 77.925781 L 353.140625 78.140625 L 353.367188 78.542969 L 353.480469 78.734375 L 353.59375 78.914062 L 353.824219 79.253906 L 353.9375 79.410156 L 354.050781 79.558594 L 354.164062 79.695312 L 354.277344 79.824219 L 354.390625 79.945312 L 354.507812 80.058594 L 354.621094 80.160156 L 354.734375 80.253906 L 354.847656 80.339844 L 354.960938 80.414062 L 355.074219 80.480469 L 355.191406 80.539062 L 355.304688 80.589844 L 355.417969 80.628906 L 355.53125 80.660156 L 355.644531 80.679688 L 355.753906 80.691406 L 355.859375 80.699219 L 355.964844 80.695312 L 356.070312 80.683594 L 356.175781 80.664062 L 356.285156 80.640625 L 356.390625 80.605469 L 356.496094 80.566406 L 356.601562 80.519531 L 356.710938 80.464844 L 356.816406 80.402344 L 356.921875 80.335938 L 357.027344 80.257812 L 357.132812 80.175781 L 357.347656 79.992188 L 357.453125 79.890625 L 357.558594 79.785156 L 357.773438 79.550781 L 357.878906 79.425781 L 357.984375 79.296875 L 358.199219 79.015625 L 358.304688 78.871094 L 358.410156 78.71875 L 358.625 78.402344 L 359.046875 77.714844 L 359.15625 77.53125 L 359.261719 77.347656 L 359.472656 76.964844 L 359.898438 76.167969 L 360.75 74.484375 L 360.855469 74.269531 L 360.960938 74.050781 L 361.175781 73.621094 L 361.601562 72.757812 L 362.449219 71.089844 L 362.566406 70.875 L 362.679688 70.664062 L 362.910156 70.246094 L 363.371094 69.460938 L 363.488281 69.273438 L 363.601562 69.089844 L 363.832031 68.742188 L 364.292969 68.109375 L 364.410156 67.964844 L 364.523438 67.824219 L 364.753906 67.5625 L 364.871094 67.441406 L 364.984375 67.328125 L 365.214844 67.117188 L 365.332031 67.023438 L 365.445312 66.933594 L 365.5625 66.851562 L 365.675781 66.777344 L 365.792969 66.707031 L 365.90625 66.644531 L 366.023438 66.589844 L 366.136719 66.542969 L 366.253906 66.503906 L 366.367188 66.46875 L 366.484375 66.441406 L 366.597656 66.421875 L 366.714844 66.410156 L 366.828125 66.402344 L 366.945312 66.402344 L 367.058594 66.410156 L 367.175781 66.425781 L 367.289062 66.449219 L 367.40625 66.476562 L 367.519531 66.511719 L 367.636719 66.554688 L 367.75 66.601562 L 367.867188 66.65625 L 367.980469 66.71875 L 368.097656 66.785156 L 368.210938 66.859375 L 368.328125 66.941406 L 368.441406 67.027344 L 368.558594 67.121094 L 368.671875 67.21875 L 368.902344 67.433594 L 369.019531 67.546875 L 369.132812 67.667969 L 369.363281 67.925781 L 369.824219 68.496094 L 369.9375 68.644531 L 370.050781 68.800781 L 370.277344 69.121094 L 370.730469 69.804688 L 371.636719 71.28125 L 371.75 71.472656 L 371.863281 71.667969 L 372.089844 72.054688 L 372.542969 72.832031 L 373.445312 74.347656 L 373.558594 74.53125 L 373.671875 74.710938 L 373.898438 75.066406 L 374.351562 75.734375 L 374.464844 75.894531 L 374.578125 76.050781 L 374.804688 76.351562 L 375.257812 76.902344 L 375.371094 77.027344 L 375.484375 77.148438 L 375.707031 77.378906 L 375.820312 77.484375 L 375.933594 77.585938 L 376.160156 77.773438 L 376.386719 77.9375 L 376.613281 78.078125 L 376.726562 78.140625 L 376.839844 78.195312 L 376.953125 78.246094 L 377.066406 78.289062 L 377.171875 78.324219 L 377.277344 78.355469 L 377.382812 78.378906 L 377.488281 78.398438 L 377.59375 78.414062 L 377.699219 78.421875 L 377.804688 78.425781 L 377.910156 78.425781 L 378.015625 78.417969 L 378.226562 78.386719 L 378.332031 78.363281 L 378.4375 78.335938 L 378.542969 78.300781 L 378.648438 78.261719 L 378.859375 78.167969 L 378.964844 78.113281 L 379.175781 77.988281 L 379.28125 77.917969 L 379.386719 77.839844 L 379.597656 77.675781 L 379.703125 77.585938 L 379.808594 77.492188 L 380.019531 77.292969 L 380.445312 76.835938 L 380.550781 76.710938 L 380.65625 76.582031 L 380.867188 76.316406 L 381.289062 75.742188 L 382.132812 74.453125 L 382.34375 74.109375 L 382.554688 73.757812 L 382.976562 73.046875 L 383.820312 71.597656 L 383.933594 71.402344 L 384.050781 71.210938 L 384.277344 70.828125 L 384.734375 70.082031 L 384.851562 69.898438 L 384.964844 69.722656 L 385.195312 69.375 L 385.652344 68.71875 L 385.878906 68.414062 L 386.109375 68.125 L 386.222656 67.988281 L 386.335938 67.859375 L 386.566406 67.609375 L 386.679688 67.492188 L 386.796875 67.378906 L 386.910156 67.273438 L 387.023438 67.171875 L 387.140625 67.078125 L 387.253906 66.988281 L 387.480469 66.828125 L 387.597656 66.757812 L 387.710938 66.691406 L 387.824219 66.636719 L 387.941406 66.582031 L 388.054688 66.539062 L 388.167969 66.5 L 388.28125 66.46875 L 388.398438 66.441406 L 388.511719 66.421875 L 388.625 66.410156 L 388.742188 66.40625 L 388.855469 66.40625 L 388.96875 66.417969 L 389.085938 66.429688 L 389.199219 66.453125 L 389.3125 66.484375 L 389.425781 66.519531 L 389.542969 66.5625 L 389.65625 66.613281 L 389.769531 66.667969 L 389.886719 66.730469 L 390 66.800781 L 390.113281 66.878906 L 390.226562 66.960938 L 390.34375 67.050781 L 390.457031 67.148438 L 390.6875 67.359375 L 390.800781 67.476562 L 390.914062 67.597656 L 391.144531 67.859375 L 391.25 67.988281 L 391.359375 68.125 L 391.570312 68.40625 L 392 69.03125 L 392.210938 69.367188 L 392.425781 69.722656 L 392.851562 70.46875 L 392.960938 70.660156 L 393.066406 70.859375 L 393.28125 71.261719 L 393.707031 72.089844 L 394.5625 73.8125 L 394.667969 74.027344 L 394.777344 74.246094 L 394.988281 74.679688 L 395.417969 75.53125 L 395.523438 75.742188 L 395.628906 75.949219 L 395.84375 76.359375 L 396.273438 77.148438 L 396.484375 77.523438 L 396.699219 77.882812 L 396.804688 78.058594 L 396.914062 78.230469 L 397.125 78.558594 L 397.234375 78.714844 L 397.339844 78.867188 L 397.554688 79.15625 L 397.660156 79.292969 L 397.765625 79.425781 L 397.980469 79.671875 L 398.085938 79.78125 L 398.191406 79.886719 L 398.296875 79.988281 L 398.398438 80.082031 L 398.503906 80.167969 L 398.609375 80.25 L 398.714844 80.324219 L 398.820312 80.390625 L 398.921875 80.453125 L 399.027344 80.507812 L 399.132812 80.554688 L 399.238281 80.59375 L 399.34375 80.628906 L 399.449219 80.65625 L 399.550781 80.675781 L 399.65625 80.6875 L 399.761719 80.691406 L 399.867188 80.6875 L 399.972656 80.675781 L 400.074219 80.660156 L 400.179688 80.632812 L 400.285156 80.601562 L 400.390625 80.5625 L 400.496094 80.511719 L 400.597656 80.457031 L 400.703125 80.394531 L 400.808594 80.324219 L 400.914062 80.242188 L 401.019531 80.15625 L 401.121094 80.0625 L 401.332031 79.851562 L 401.4375 79.738281 L 401.542969 79.613281 L 401.75 79.34375 L 401.855469 79.195312 L 401.960938 79.042969 L 402.171875 78.714844 L 402.273438 78.539062 L 402.378906 78.359375 L 402.589844 77.972656 L 403.007812 77.128906 L 403.113281 76.902344 L 403.21875 76.667969 L 403.425781 76.183594 L 403.847656 75.152344 L 404.683594 72.875 L 404.796875 72.546875 L 404.910156 72.214844 L 405.136719 71.546875 L 405.59375 70.179688 L 406.5 67.40625 L 406.617188 67.0625 L 406.730469 66.71875 L 406.957031 66.042969 L 407.410156 64.730469 L 407.523438 64.414062 L 407.636719 64.101562 L 407.867188 63.492188 L 408.320312 62.347656 L 408.433594 62.082031 L 408.546875 61.820312 L 408.773438 61.324219 L 408.886719 61.089844 L 409 60.867188 L 409.230469 60.445312 L 409.34375 60.25 L 409.457031 60.066406 L 409.570312 59.890625 L 409.683594 59.730469 L 409.796875 59.582031 L 409.910156 59.441406 L 410.023438 59.316406 L 410.136719 59.203125 L 410.25 59.105469 L 410.363281 59.019531 L 410.480469 58.945312 L 410.59375 58.886719 L 410.707031 58.839844 L 410.820312 58.8125 L 410.933594 58.796875 L 411.046875 58.792969 L 411.160156 58.808594 L 411.273438 58.839844 L 411.386719 58.886719 L 411.5 58.949219 L 411.613281 59.027344 L 411.730469 59.121094 L 411.84375 59.230469 L 411.957031 59.359375 L 412.0625 59.496094 L 412.167969 59.644531 L 412.273438 59.808594 L 412.378906 59.988281 L 412.484375 60.183594 L 412.59375 60.394531 L 412.804688 60.863281 L 412.910156 61.121094 L 413.015625 61.394531 L 413.226562 61.988281 L 413.335938 62.3125 L 413.441406 62.648438 L 413.652344 63.371094 L 413.757812 63.757812 L 413.863281 64.160156 L 414.078125 65.011719 L 414.183594 65.464844 L 414.289062 65.929688 L 414.5 66.914062 L 414.605469 67.429688 L 414.710938 67.960938 L 414.925781 69.070312 L 415.347656 71.480469 L 415.453125 72.121094 L 415.5625 72.777344 L 415.773438 74.132812 L 416.195312 77.027344 L 417.046875 83.480469 L 417.152344 84.347656 L 417.257812 85.222656 L 417.46875 87.015625 L 417.894531 90.730469 L 418.742188 98.636719 L 418.859375 99.785156 L 418.976562 100.941406 L 419.214844 103.277344 L 419.6875 108.042969 L 420.636719 117.816406 L 420.871094 120.285156 L 421.109375 122.753906 L 421.582031 127.683594 L 422.527344 137.375 L 422.648438 138.5625 L 422.765625 139.742188 L 423.003906 142.074219 L 423.476562 146.628906 L 423.59375 147.742188 L 423.710938 148.839844 L 423.949219 151.007812 L 424.421875 155.191406 L 424.542969 156.199219 L 424.660156 157.195312 L 424.894531 159.144531 L 425.371094 162.847656 L 425.488281 163.734375 L 425.605469 164.601562 L 425.84375 166.285156 L 425.960938 167.097656 L 426.078125 167.894531 L 426.199219 168.671875 L 426.316406 169.429688 " transform="matrix(1,0,0,1,-74,-13)"/>
</g>
<path style="fill:none;stroke-width:0.2;stroke-linecap:butt;stroke-linejoin:miter;stroke:rgb(39.99939%,39.99939%,39.99939%);stroke-opacity:1;stroke-miterlimit:3.25;" d="M 74.5 121.039062 L 422.5 121.039062 " transform="matrix(1,0,0,1,-74,-13)"/>
<path style="fill:none;stroke-width:0.2;stroke-linecap:butt;stroke-linejoin:miter;stroke:rgb(39.99939%,39.99939%,39.99939%);stroke-opacity:1;stroke-miterlimit:3.25;" d="M 81.460938 228.574219 L 81.460938 13.5 " transform="matrix(1,0,0,1,-74,-13)"/>
</g>
</svg>
