<svg id="Layer_1" data-name="Layer 1" xmlns="http://www.w3.org/2000/svg" viewBox="0 0 718.54 296.26"><defs><style>.cls-1,.cls-2,.cls-4,.cls-5{fill:none;}.cls-1{stroke:#b3b3b3;}.cls-1,.cls-2,.cls-3,.cls-4,.cls-5{stroke-miterlimit:10;}.cls-2,.cls-3,.cls-4,.cls-5{stroke:#000;}.cls-2{stroke-width:3.5px;}.cls-5{stroke-width:2.5px;}.cls-6{fill:#a6a6a6;}.cls-7{fill:#666;}</style></defs><title>LHS shuffle</title><line class="cls-1" x1="73.36" y1="2.1" x2="73.36" y2="290.39"/><line class="cls-1" x1="145.67" y1="2.1" x2="145.67" y2="290.39"/><line class="cls-1" x1="217.98" y1="2.1" x2="217.98" y2="290.39"/><rect class="cls-2" x="1.75" y="1.75" width="287.92" height="287.89"/><circle class="cls-3" cx="20.82" cy="239.39" r="5.17"/><circle class="cls-3" cx="276.75" cy="61.65" r="5.17"/><circle class="cls-3" cx="126.81" cy="190.21" r="5.17"/><circle class="cls-3" cx="184.05" cy="109.37" r="5.17"/><line class="cls-2" x1="1.75" y1="73.63" x2="290.03" y2="73.63"/><line class="cls-2" x1="1.75" y1="145.44" x2="290.03" y2="145.44"/><line class="cls-2" x1="1.75" y1="217.25" x2="290.03" y2="217.25"/><rect class="cls-4" x="430.12" y="1.68" width="287.92" height="287.89"/><circle class="cls-3" cx="449.18" cy="21.49" r="5.17"/><circle class="cls-3" cx="705.12" cy="134.16" r="5.17"/><circle class="cls-3" cx="555.18" cy="190.15" r="5.17"/><circle class="cls-3" cx="612.41" cy="252.74" r="5.17"/><line class="cls-4" x1="430.12" y1="73.56" x2="718.4" y2="73.56"/><line class="cls-4" x1="430.12" y1="145.37" x2="718.4" y2="145.37"/><line class="cls-4" x1="430.12" y1="217.18" x2="718.4" y2="217.18"/><line class="cls-4" x1="501.73" y1="2.04" x2="501.73" y2="290.32"/><line class="cls-4" x1="574.04" y1="2.04" x2="574.04" y2="290.32"/><line class="cls-4" x1="646.35" y1="2.04" x2="646.35" y2="290.32"/><line class="cls-5" x1="298.43" y1="181.38" x2="395.29" y2="181.38"/><polygon points="383.01 195.14 393.66 181.38 383.01 167.62 415.55 181.38 383.01 195.14"/><polygon class="cls-6" points="386.91 192.14 412.27 181.38 395.24 181.38 386.91 192.14"/><polygon class="cls-7" points="386.91 170.64 412.27 181.38 395.24 181.38 386.91 170.64"/><path class="cls-5" d="M298.93,38c15,0,61.87,35.35,61.87,35.35S385.18,91.93,405,102.24"/><polygon points="388.82 109.65 403.82 100.83 399.04 84.1 424.14 108.95 388.82 109.65"/><polygon class="cls-6" points="393.56 108.31 421.09 107.73 405.28 101.42 393.56 108.31"/><polygon class="cls-7" points="401.54 88.35 421.09 107.73 405.28 101.42 401.54 88.35"/><path class="cls-5" d="M298.68,109.69c17.43,0,63.34,72.18,63.34,72.18s20.09,38.44,37.22,58.83"/><polygon points="381.73 242.08 398.8 238.7 399.8 221.33 415.3 253.07 381.73 242.08"/><polygon class="cls-6" points="386.64 242.38 412.83 250.92 399.99 239.74 386.64 242.38"/><polygon class="cls-7" points="400.76 226.16 412.83 250.92 399.99 239.74 400.76 226.16"/><path class="cls-5" d="M298.19,253.56c18.41.25,64.08-107.78,64.08-107.78s26.93-65.09,46.9-94.34"/><polygon points="411.68 70.65 408.93 53.47 391.61 51.83 423.89 37.51 411.68 70.65"/><polygon class="cls-6" points="412.16 65.76 421.65 39.9 410.01 52.32 412.16 65.76"/><polygon class="cls-7" points="396.47 51.05 421.65 39.9 410.01 52.32 396.47 51.05"/></svg>