<svg id="Layer_1" data-name="Layer 1" xmlns="http://www.w3.org/2000/svg" viewBox="0 0 731.09 333.96"><defs><style>.cls-1{fill:none;stroke:#000;stroke-miterlimit:10;}.cls-2{fill:#a6a6a6;}.cls-3{fill:#666;}</style></defs><title>Sample padding</title><rect class="cls-1" x="48.6" y="67.19" width="215.82" height="215.82"/><line class="cls-1" x1="48.61" y1="175.14" x2="264.16" y2="175.67"/><line class="cls-1" x1="156.38" y1="67.18" x2="156.38" y2="282.91"/><rect class="cls-1" x="336.84" y="31.7" width="73.08" height="288.03"/><line class="cls-1" x1="337.23" y1="103.61" x2="409.92" y2="103.61"/><line class="cls-1" x1="336.84" y1="175.13" x2="409.53" y2="175.13"/><line class="cls-1" x1="336.84" y1="247.03" x2="409.14" y2="247.03"/><rect class="cls-1" x="481.22" y="68.45" width="215.82" height="215.82"/><line class="cls-1" x1="481.23" y1="176.4" x2="696.78" y2="176.93"/><line class="cls-1" x1="589" y1="68.44" x2="589" y2="284.18"/><path d="M90.41,113.47l1.38,2.08c.36.54.66,1,1,1.58h.06c.32-.58.64-1.08,1-1.6l1.36-2.06h1.9l-3.3,4.68,3.4,5h-2L93.73,121c-.38-.56-.7-1.1-1-1.68h0c-.32.58-.66,1.1-1,1.68l-1.4,2.18H88.29l3.44-4.94-3.28-4.74Z"/><path d="M99.53,126.09v-6.58h0l-1.44.7-.22-1,1.88-.88h1.22v7.8Z"/><path d="M102.59,125.61a28.78,28.78,0,0,0,1.2-4.78l2-.2a24.38,24.38,0,0,1-1.9,4.86Z"/><path d="M112.75,113.47l2.12,5.72c.22.64.46,1.4.62,2h0c.18-.58.38-1.32.62-2l1.92-5.68h1.86l-2.64,6.9c-1.26,3.32-2.12,5-3.32,6.06a4.77,4.77,0,0,1-2.16,1.14l-.44-1.48a4.66,4.66,0,0,0,1.54-.86,5.34,5.34,0,0,0,1.48-2,1.26,1.26,0,0,0,.14-.42,1.53,1.53,0,0,0-.12-.46l-3.58-8.92Z"/><path d="M122.21,126.09v-6.58h0l-1.44.7-.22-1,1.88-.88h1.22v7.8Z"/><path d="M89.19,222.89,90.57,225c.36.54.66,1,1,1.58h.06c.32-.58.64-1.08,1-1.6l1.36-2.06h1.9l-3.3,4.68,3.4,5h-2l-1.42-2.18c-.38-.56-.7-1.1-1-1.68h0c-.32.58-.66,1.1-1,1.68L89,232.57H87.07l3.44-4.94-3.28-4.74Z"/><path d="M96.73,228.23a4.45,4.45,0,0,1,2.3-.62c1.72,0,2.44.92,2.44,1.88a2,2,0,0,1-1.54,1.8v0a2,2,0,0,1,1.86,1.94c0,1.25-1.12,2.35-3.16,2.35a4.52,4.52,0,0,1-2.28-.56l.36-1a3.87,3.87,0,0,0,1.86.51c1.22,0,1.76-.72,1.74-1.34,0-1-1.06-1.4-2.12-1.4h-.54v-.92h.56c.74,0,1.8-.34,1.82-1.28,0-.48-.36-1-1.26-1a3.22,3.22,0,0,0-1.7.52Z"/><path d="M102.59,235a29.15,29.15,0,0,0,1.2-4.79l2-.2a24.75,24.75,0,0,1-1.9,4.87Z"/><path d="M112.75,222.89l2.12,5.72c.22.64.46,1.4.62,2h0c.18-.58.38-1.32.62-2l1.92-5.68h1.86l-2.64,6.9c-1.26,3.32-2.12,5-3.32,6.06a4.71,4.71,0,0,1-2.16,1.15l-.44-1.48a4.53,4.53,0,0,0,1.54-.87,5.25,5.25,0,0,0,1.48-2,1.2,1.2,0,0,0,.14-.42,1.53,1.53,0,0,0-.12-.46l-3.58-8.92Z"/><path d="M120.63,228.23a4.45,4.45,0,0,1,2.3-.62c1.72,0,2.44.92,2.44,1.88a2,2,0,0,1-1.54,1.8v0a2,2,0,0,1,1.86,1.94c0,1.25-1.12,2.35-3.16,2.35a4.52,4.52,0,0,1-2.28-.56l.36-1a3.87,3.87,0,0,0,1.86.51c1.22,0,1.76-.72,1.74-1.34,0-1-1.06-1.4-2.12-1.4h-.54v-.92h.56c.74,0,1.8-.34,1.82-1.28,0-.48-.36-1-1.26-1a3.22,3.22,0,0,0-1.7.52Z"/><path d="M194.31,113.47l1.38,2.08c.36.54.66,1,1,1.58h.06c.32-.58.64-1.08,1-1.6l1.36-2.06H201l-3.3,4.68,3.4,5h-2L197.63,121c-.38-.56-.7-1.1-1-1.68h0c-.32.58-.66,1.1-1,1.68l-1.4,2.18h-1.94l3.44-4.94-3.28-4.74Z"/><path d="M201.53,125.35l1.26-1.18c1.66-1.5,2.52-2.44,2.52-3.46a1.36,1.36,0,0,0-1.52-1.4,3.06,3.06,0,0,0-1.68.62l-.42-.9a3.88,3.88,0,0,1,2.44-.84c1.88,0,2.66,1.18,2.66,2.26,0,1.5-1.14,2.6-2.66,3.94l-.62.56v0h3.42v1.1h-5.4Z"/><path d="M207.83,125.61a28.78,28.78,0,0,0,1.2-4.78l2-.2a24.38,24.38,0,0,1-1.9,4.86Z"/><path d="M218,113.47l2.12,5.72c.22.64.46,1.4.62,2h0c.18-.58.38-1.32.62-2l1.92-5.68h1.86l-2.64,6.9c-1.26,3.32-2.12,5-3.32,6.06a4.77,4.77,0,0,1-2.16,1.14l-.44-1.48a4.66,4.66,0,0,0,1.54-.86,5.34,5.34,0,0,0,1.48-2,1.26,1.26,0,0,0,.14-.42,1.53,1.53,0,0,0-.12-.46l-3.58-8.92Z"/><path d="M225.55,125.35l1.26-1.18c1.66-1.5,2.52-2.44,2.52-3.46a1.36,1.36,0,0,0-1.52-1.4,3.06,3.06,0,0,0-1.68.62l-.42-.9a3.88,3.88,0,0,1,2.44-.84c1.88,0,2.66,1.18,2.66,2.26,0,1.5-1.14,2.6-2.66,3.94l-.62.56v0H231v1.1h-5.4Z"/><path d="M193.59,222.89,195,225c.36.54.66,1,1,1.58H196c.32-.58.64-1.08,1-1.6l1.36-2.06h1.9l-3.3,4.68,3.4,5h-2l-1.42-2.19c-.38-.55-.7-1.09-1-1.67h0c-.32.58-.66,1.09-1,1.67l-1.4,2.19h-1.94l3.44-5-3.28-4.74Z"/><path d="M204.67,235.52v-2.06h-3.78v-.8l3.54-5H206v4.81h1.12v1H206v2.06Zm0-5.41c0-.43,0-.85.06-1.26h0A11.24,11.24,0,0,1,204,230l-1.74,2.41,0,0h2.38Z"/><path d="M207.83,235a28.78,28.78,0,0,0,1.2-4.78l2-.2a24.38,24.38,0,0,1-1.9,4.86Z"/><path d="M218,222.89l2.12,5.72c.22.65.46,1.41.62,2h0c.18-.58.38-1.33.62-2l1.92-5.68h1.86l-2.64,6.91c-1.26,3.32-2.12,5-3.32,6.06a4.77,4.77,0,0,1-2.16,1.14l-.44-1.48a4.66,4.66,0,0,0,1.54-.86,5.34,5.34,0,0,0,1.48-2,1.26,1.26,0,0,0,.14-.42,1.53,1.53,0,0,0-.12-.46l-3.58-8.93Z"/><path d="M229.41,235.52v-2.06h-3.78v-.8l3.54-5h1.58v4.81h1.12v1h-1.12v2.06Zm0-5.41c0-.43,0-.85.06-1.26h0a11.24,11.24,0,0,1-.68,1.18L227,232.44l0,0h2.38Z"/><path d="M372.77,60.66v2.78h2.52v1.34h-2.52V70c0,1.21.34,1.89,1.32,1.89a3.92,3.92,0,0,0,1-.12l.08,1.32a4.54,4.54,0,0,1-1.56.24,2.44,2.44,0,0,1-1.9-.74,3.61,3.61,0,0,1-.68-2.53V64.78h-1.5V63.44h1.5V61.12Z"/><path d="M378,76.07V69.48h0l-1.44.7-.22-1,1.88-.88h1.22v7.81Z"/><path d="M372.1,132.31v2.78h2.52v1.34H372.1v5.22c0,1.2.34,1.88,1.32,1.88a3.92,3.92,0,0,0,1-.12l.08,1.32A4.31,4.31,0,0,1,373,145a2.44,2.44,0,0,1-1.9-.74,3.59,3.59,0,0,1-.68-2.52v-5.28h-1.5v-1.34h1.5v-2.32Z"/><path d="M375.38,147l1.26-1.18c1.66-1.5,2.52-2.44,2.52-3.46a1.36,1.36,0,0,0-1.52-1.4,3.06,3.06,0,0,0-1.68.62l-.42-.9a3.88,3.88,0,0,1,2.44-.84c1.88,0,2.66,1.18,2.66,2.26,0,1.5-1.14,2.6-2.66,3.94l-.62.56v0h3.42v1.1h-5.4Z"/><path d="M372.16,204v2.78h2.52v1.34h-2.52v5.22c0,1.2.34,1.88,1.32,1.88a3.92,3.92,0,0,0,1-.12l.08,1.32a4.31,4.31,0,0,1-1.56.24,2.44,2.44,0,0,1-1.9-.74,3.59,3.59,0,0,1-.68-2.52v-5.28h-1.5v-1.34h1.5v-2.32Z"/><path d="M375.76,212.08a4.45,4.45,0,0,1,2.3-.62c1.72,0,2.44.92,2.44,1.88a2,2,0,0,1-1.54,1.8v0a2,2,0,0,1,1.86,1.94c0,1.24-1.12,2.34-3.16,2.34a4.42,4.42,0,0,1-2.28-.56l.36-1a3.75,3.75,0,0,0,1.86.52c1.22,0,1.76-.72,1.74-1.34,0-1-1.06-1.4-2.12-1.4h-.54v-.92h.56c.74,0,1.8-.34,1.82-1.28,0-.48-.36-1-1.26-1a3.22,3.22,0,0,0-1.7.52Z"/><path d="M371.74,275.61v2.78h2.52v1.34h-2.52V285c0,1.2.34,1.88,1.32,1.88a3.92,3.92,0,0,0,1-.12l.08,1.32a4.31,4.31,0,0,1-1.56.24,2.44,2.44,0,0,1-1.9-.74A3.59,3.59,0,0,1,370,285v-5.28h-1.5v-1.34H370v-2.32Z"/><path d="M378.88,291V289H375.1v-.8l3.54-5h1.58V288h1.12v1h-1.12V291Zm0-5.4c0-.44,0-.86.06-1.26h0a12.36,12.36,0,0,1-.68,1.18l-1.74,2.4,0,0h2.38Z"/><path d="M526.61,125c0,1,0,1.88.08,2.64h-1.56l-.11-1.58h0a3.64,3.64,0,0,1-3.2,1.8c-1.52,0-3.34-.84-3.34-4.24V118h1.76v5.36c0,1.84.56,3.08,2.16,3.08a2.57,2.57,0,0,0,2.33-1.6,2.83,2.83,0,0,0,.16-.9V118h1.76Z"/><path d="M530.2,130.58V124h0l-1.44.7-.22-1,1.88-.88h1.22v7.8Z"/><path d="M533.26,130.1a28.78,28.78,0,0,0,1.2-4.78l2-.2a24.38,24.38,0,0,1-1.9,4.86Z"/><path d="M543.46,118l1.9,5.44a24.89,24.89,0,0,1,.78,2.48h.06c.22-.8.5-1.6.82-2.48L548.9,118h1.84l-3.8,9.68h-1.68L541.58,118Z"/><path d="M553.08,130.58V124h0l-1.44.7-.22-1,1.88-.88h1.22v7.8Z"/><path d="M525.39,230.52c0,1,0,1.88.07,2.64H523.9l-.1-1.58h0a3.64,3.64,0,0,1-3.2,1.8c-1.52,0-3.34-.84-3.34-4.24v-5.66H519v5.36c0,1.84.56,3.08,2.16,3.08a2.54,2.54,0,0,0,2.32-1.6,2.57,2.57,0,0,0,.16-.9v-5.94h1.77Z"/><path d="M527.4,228.82a4.45,4.45,0,0,1,2.3-.62c1.72,0,2.44.92,2.44,1.88a2,2,0,0,1-1.54,1.8v0a2,2,0,0,1,1.86,1.94c0,1.24-1.12,2.34-3.16,2.34a4.42,4.42,0,0,1-2.28-.56l.36-1a3.75,3.75,0,0,0,1.86.52c1.22,0,1.76-.72,1.74-1.34,0-1-1.06-1.4-2.12-1.4h-.54v-.92h.56c.74,0,1.8-.34,1.82-1.28,0-.48-.36-1-1.26-1a3.22,3.22,0,0,0-1.7.52Z"/><path d="M533.26,235.62a28.78,28.78,0,0,0,1.2-4.78l2-.2a24.38,24.38,0,0,1-1.9,4.86Z"/><path d="M543.46,223.48l1.9,5.44a24.89,24.89,0,0,1,.78,2.48h.06c.22-.8.5-1.6.82-2.48l1.88-5.44h1.84l-3.8,9.68h-1.68l-3.68-9.68Z"/><path d="M551.5,228.82a4.45,4.45,0,0,1,2.3-.62c1.72,0,2.44.92,2.44,1.88a2,2,0,0,1-1.54,1.8v0a2,2,0,0,1,1.86,1.94c0,1.24-1.12,2.34-3.16,2.34a4.42,4.42,0,0,1-2.28-.56l.36-1a3.75,3.75,0,0,0,1.86.52c1.22,0,1.76-.72,1.74-1.34,0-1-1.06-1.4-2.12-1.4h-.54v-.92H553c.74,0,1.8-.34,1.82-1.28,0-.48-.36-1-1.26-1a3.22,3.22,0,0,0-1.7.52Z"/><path d="M631.29,125c0,1,0,1.88.08,2.64h-1.56l-.1-1.58h0a3.64,3.64,0,0,1-3.2,1.8c-1.53,0-3.35-.84-3.35-4.24V118h1.77v5.36c0,1.84.55,3.08,2.16,3.08a2.54,2.54,0,0,0,2.32-1.6,2.57,2.57,0,0,0,.16-.9V118h1.76Z"/><path d="M633,129.84l1.26-1.18c1.66-1.5,2.52-2.44,2.52-3.46a1.36,1.36,0,0,0-1.52-1.4,3.06,3.06,0,0,0-1.68.62l-.42-.9a3.88,3.88,0,0,1,2.44-.84c1.88,0,2.66,1.18,2.66,2.26,0,1.5-1.14,2.6-2.66,3.94l-.62.56v0h3.43v1.1H633Z"/><path d="M639.28,130.1a28.78,28.78,0,0,0,1.2-4.78l2-.2a24.38,24.38,0,0,1-1.9,4.86Z"/><path d="M649.48,118l1.9,5.44a24.89,24.89,0,0,1,.78,2.48h.06c.22-.8.5-1.6.82-2.48l1.89-5.44h1.84L653,127.64h-1.68L647.6,118Z"/><path d="M657.2,129.84l1.26-1.18c1.66-1.5,2.52-2.44,2.52-3.46a1.36,1.36,0,0,0-1.52-1.4,3.06,3.06,0,0,0-1.68.62l-.42-.9a3.88,3.88,0,0,1,2.44-.84c1.88,0,2.66,1.18,2.66,2.26,0,1.5-1.14,2.6-2.66,3.94l-.62.56v0h3.42v1.1h-5.4Z"/><path d="M630.57,230.52c0,1,0,1.88.08,2.64h-1.56l-.1-1.58h0a3.64,3.64,0,0,1-3.2,1.8c-1.52,0-3.35-.84-3.35-4.24v-5.66h1.77v5.36c0,1.84.56,3.08,2.16,3.08a2.54,2.54,0,0,0,2.32-1.6,2.57,2.57,0,0,0,.16-.9v-5.94h1.76Z"/><path d="M636.12,236.1V234h-3.78v-.8l3.54-5h1.59v4.8h1.12v1h-1.12v2.06Zm0-5.4c0-.44,0-.86.07-1.26h0c-.25.46-.45.82-.69,1.18l-1.74,2.4,0,0h2.38Z"/><path d="M639.28,235.62a28.78,28.78,0,0,0,1.2-4.78l2-.2a24.38,24.38,0,0,1-1.9,4.86Z"/><path d="M649.48,223.48l1.9,5.44a24.89,24.89,0,0,1,.78,2.48h.06c.22-.8.5-1.6.82-2.48l1.89-5.44h1.84L653,233.16h-1.68l-3.68-9.68Z"/><path d="M661.06,236.1V234h-3.78v-.8l3.54-5h1.58v4.8h1.12v1H662.4v2.06Zm0-5.4c0-.44,0-.86.06-1.26h0a12.36,12.36,0,0,1-.68,1.18l-1.74,2.4,0,0h2.38Z"/><polyline class="cls-1" points="105.89 66.48 105.89 48.9 298.95 48.9 298.95 139.17 324.45 139.17"/><polygon points="319.54 144.68 323.8 139.17 319.54 133.67 332.56 139.17 319.54 144.68"/><polygon class="cls-2" points="321.1 143.47 331.25 139.17 324.43 139.17 321.1 143.47"/><polygon class="cls-3" points="321.1 134.88 331.25 139.17 324.43 139.17 321.1 134.88"/><polyline class="cls-1" points="98.07 283.77 98.07 303.7 309.5 303.7 309.5 282.99 323.67 282.99"/><polygon points="318.76 288.49 323.02 282.99 318.76 277.49 331.78 282.99 318.76 288.49"/><polygon class="cls-2" points="320.32 287.29 330.46 282.99 323.65 282.99 320.32 287.29"/><polygon class="cls-3" points="320.32 278.69 330.46 282.99 323.65 282.99 320.32 278.69"/><polyline class="cls-1" points="212.58 66.09 212.58 57.88 281.36 57.88 281.36 67.26 323.71 67.26"/><polygon points="318.8 72.77 323.06 67.26 318.8 61.76 331.81 67.26 318.8 72.77"/><polygon class="cls-2" points="320.36 71.56 330.5 67.26 323.69 67.26 320.36 71.56"/><polygon class="cls-3" points="320.36 62.97 330.5 67.26 323.69 67.26 320.36 62.97"/><polyline class="cls-1" points="202.81 282.99 202.81 292.76 281.75 292.76 281.75 212.25 327.27 212.25"/><polygon points="322.37 217.76 326.62 212.25 322.37 206.75 335.38 212.25 322.37 217.76"/><polygon class="cls-2" points="323.92 216.55 334.07 212.25 327.25 212.25 323.92 216.55"/><polygon class="cls-3" points="323.92 207.96 334.07 212.25 327.25 212.25 323.92 207.96"/><polyline class="cls-1" points="416.19 66.87 443.55 66.87 443.55 120.8 467.28 120.8"/><polygon points="462.37 126.31 466.63 120.8 462.37 115.3 475.39 120.8 462.37 126.31"/><polygon class="cls-2" points="463.93 125.11 474.07 120.8 467.26 120.8 463.93 125.11"/><polygon class="cls-3" points="463.93 116.51 474.07 120.8 467.26 120.8 463.93 116.51"/><polyline class="cls-1" points="416.97 139.95 425.96 139.95 425.96 310.35 640.9 310.35 640.9 298.43"/><polygon points="646.41 303.34 640.9 299.08 635.4 303.34 640.9 290.32 646.41 303.34"/><polygon class="cls-2" points="645.21 301.78 640.9 291.64 640.9 298.45 645.21 301.78"/><polygon class="cls-3" points="636.61 301.78 640.9 291.64 640.9 298.45 636.61 301.78"/><polyline class="cls-1" points="417.36 212.64 439.8 212.64 439.8 229.45 465.61 229.45"/><polygon points="460.7 234.95 464.96 229.45 460.7 223.94 473.71 229.45 460.7 234.95"/><polygon class="cls-2" points="462.26 233.75 472.4 229.45 465.59 229.45 462.26 233.75"/><polygon class="cls-3" points="462.26 225.15 472.4 229.45 465.59 229.45 462.26 225.15"/><polyline class="cls-1" points="416.97 283.38 453.21 282.49 453.56 48.9 649.89 48.9 649.89 55.81"/><polygon points="644.39 50.91 649.89 55.16 655.4 50.91 649.89 63.92 644.39 50.91"/><polygon class="cls-2" points="645.59 52.46 649.89 62.61 649.89 55.8 645.59 52.46"/><polygon class="cls-3" points="654.19 52.46 649.89 62.61 649.89 55.8 654.19 52.46"/></svg>