<?xml version="1.0" encoding="UTF-8" standalone="no"?>
<svg
   id="Layer_1"
   data-name="Layer 1"
   viewBox="0 0 579.96 356.2"
   version="1.1"
   sodipodi:docname="Shufflepermutations.svg"
   inkscape:version="1.1.1 (3bf5ae0d25, 2021-09-20)"
   xmlns:inkscape="http://www.inkscape.org/namespaces/inkscape"
   xmlns:sodipodi="http://sodipodi.sourceforge.net/DTD/sodipodi-0.dtd"
   xmlns="http://www.w3.org/2000/svg"
   xmlns:svg="http://www.w3.org/2000/svg"
   xmlns:rdf="http://www.w3.org/1999/02/22-rdf-syntax-ns#"
   xmlns:cc="http://creativecommons.org/ns#"
   xmlns:dc="http://purl.org/dc/elements/1.1/">
  <sodipodi:namedview
     id="namedview357"
     pagecolor="#ffffff"
     bordercolor="#666666"
     borderopacity="1.0"
     inkscape:pageshadow="2"
     inkscape:pageopacity="0.0"
     inkscape:pagecheckerboard="0"
     showgrid="false"
     inkscape:zoom="2.0185288"
     inkscape:cx="289.81503"
     inkscape:cy="177.8523"
     inkscape:window-width="2560"
     inkscape:window-height="1494"
     inkscape:window-x="-11"
     inkscape:window-y="-11"
     inkscape:window-maximized="1"
     inkscape:current-layer="Layer_1" />
  <defs
     id="defs4">
    <rect
       x="0.49541031"
       y="137.22866"
       width="27.247567"
       height="24.275105"
       id="rect3326" />
    <style
       id="style2">.cls-1{fill:#ccc;}.cls-2{fill:none;stroke:#000;stroke-miterlimit:10;}.cls-3{fill:#a6a6a6;}.cls-4{fill:#666;}</style>
    <rect
       x="0.49541032"
       y="137.22865"
       width="27.247566"
       height="24.275105"
       id="rect3326-4" />
  </defs>
  <title
     id="title6">Shuffle permutations</title>
  <rect
     class="cls-1"
     x="45.84"
     y="288.92"
     width="48.96"
     height="36.43"
     id="rect8" />
  <rect
     class="cls-1"
     x="191.55"
     y="288.92"
     width="48.67"
     height="36.72"
     id="rect10" />
  <rect
     class="cls-1"
     x="337.55"
     y="288.92"
     width="48.67"
     height="36.43"
     id="rect12" />
  <rect
     class="cls-1"
     x="482.96"
     y="288.92"
     width="48.38"
     height="35.84"
     id="rect14" />
  <rect
     class="cls-1"
     x="482.67"
     y="197.71"
     width="48.96"
     height="36.14"
     id="rect16" />
  <rect
     class="cls-1"
     x="336.67"
     y="198"
     width="48.67"
     height="35.84"
     id="rect18" />
  <rect
     class="cls-1"
     x="191.25"
     y="198.29"
     width="49.54"
     height="35.55"
     id="rect20" />
  <rect
     class="cls-1"
     x="45.68"
     y="197.93"
     width="48.38"
     height="35.96"
     id="rect22" />
  <path
     d="M18.29,13.81l1.38,2.08c.36.54.66,1,1,1.58h.06c.32-.58.64-1.08,1-1.6L23,13.81h1.9l-3.3,4.69,3.4,5H23l-1.42-2.18c-.38-.56-.7-1.1-1-1.68h0c-.32.58-.66,1.1-1,1.68l-1.4,2.18H16.17l3.44-4.94-3.28-4.75Z"
     id="path24" />
  <path
     d="M27.41,26.44V19.86h0l-1.44.7-.22-1,1.88-.88h1.22v7.8Z"
     id="path26" />
  <path
     d="M66.35,13.81l2.12,5.73c.22.64.46,1.4.62,2h0c.18-.58.38-1.32.62-2l1.92-5.69h1.86l-2.64,6.91c-1.26,3.32-2.12,5-3.32,6.06a4.77,4.77,0,0,1-2.16,1.14L65,26.44a4.66,4.66,0,0,0,1.54-.86,5.34,5.34,0,0,0,1.48-2,1.26,1.26,0,0,0,.14-.42,1.53,1.53,0,0,0-.12-.46l-3.58-8.93Z"
     id="path28" />
  <path
     d="M75.81,26.44V19.86h0l-1.44.7-.22-1L76,18.64h1.22v7.8Z"
     id="path30" />
  <path
     d="M113.36,22.48l4.38-5.7c.42-.52.82-1,1.26-1.5v0h-5.25V13.82h7.39l0,1.1-4.32,5.62c-.4.54-.8,1-1.24,1.52v0h5.66v1.4h-7.86Z"
     id="path32" />
  <path
     d="M123.7,26.44V19.86h0l-1.45.7-.22-1,1.88-.88h1.23v7.8Z"
     id="path34" />
  <path
     d="M162.57,13.81,164,15.89c.36.54.66,1,1,1.58H165c.32-.58.64-1.08,1-1.6l1.36-2.06h1.9l-3.3,4.69,3.4,5h-2l-1.42-2.18c-.38-.56-.7-1.1-1-1.68h0c-.32.58-.66,1.1-1,1.68l-1.4,2.18h-1.94l3.44-4.94-3.28-4.75Z"
     id="path36" />
  <path
     d="M169.79,25.7l1.26-1.18c1.66-1.5,2.52-2.44,2.52-3.46a1.36,1.36,0,0,0-1.52-1.4,3.06,3.06,0,0,0-1.68.62l-.42-.9a3.88,3.88,0,0,1,2.44-.84c1.88,0,2.66,1.18,2.66,2.26,0,1.5-1.14,2.6-2.66,3.94l-.62.56v0h3.42v1.1h-5.4Z"
     id="path38" />
  <path
     d="M210.63,13.82l2.12,5.72c.22.64.46,1.4.62,2h0c.18-.58.38-1.32.62-2L216,13.82h1.86l-2.64,6.9c-1.26,3.32-2.12,5-3.32,6.06a4.77,4.77,0,0,1-2.16,1.14l-.44-1.48a4.66,4.66,0,0,0,1.54-.86,5.34,5.34,0,0,0,1.48-2,1.26,1.26,0,0,0,.14-.42,1.53,1.53,0,0,0-.12-.46l-3.58-8.92Z"
     id="path40" />
  <path
     d="M218.19,25.7l1.26-1.18c1.66-1.5,2.52-2.44,2.52-3.46a1.36,1.36,0,0,0-1.52-1.4,3.06,3.06,0,0,0-1.68.62l-.42-.9a3.88,3.88,0,0,1,2.44-.84c1.88,0,2.66,1.18,2.66,2.26,0,1.5-1.14,2.6-2.66,3.94l-.62.56v0h3.42v1.1h-5.4Z"
     id="path42" />
  <path
     d="M257.64,22.48,262,16.77l1.26-1.5v0H258V13.81h7.38l0,1.1-4.32,5.63c-.4.54-.8,1-1.24,1.52v0h5.66v1.4h-7.86Z"
     id="path44" />
  <path
     d="M266.08,25.7l1.26-1.18c1.66-1.5,2.52-2.44,2.52-3.46a1.36,1.36,0,0,0-1.52-1.4,3.06,3.06,0,0,0-1.68.62l-.42-.9a3.88,3.88,0,0,1,2.44-.84c1.88,0,2.66,1.18,2.66,2.26,0,1.5-1.14,2.6-2.66,3.94l-.62.56v0h3.42v1.1h-5.4Z"
     id="path46" />
  <path
     d="M307.59,13.81,309,15.89c.36.54.66,1,1,1.58H310c.32-.58.64-1.08,1-1.6l1.36-2.06h1.9l-3.3,4.69,3.4,5h-2l-1.42-2.18c-.38-.56-.7-1.1-1-1.68h0c-.32.58-.66,1.1-1,1.68l-1.4,2.18h-1.94l3.44-4.94-3.28-4.75Z"
     id="path48" />
  <path
     d="M315.13,19.16a4.45,4.45,0,0,1,2.3-.62c1.72,0,2.44.92,2.44,1.88a2,2,0,0,1-1.54,1.8v0a2,2,0,0,1,1.86,1.94c0,1.24-1.12,2.34-3.16,2.34a4.49,4.49,0,0,1-2.29-.56l.37-1a3.75,3.75,0,0,0,1.86.52c1.22,0,1.76-.72,1.74-1.34,0-1-1.06-1.4-2.12-1.4h-.54v-.92h.56c.74,0,1.8-.34,1.82-1.28,0-.48-.36-1-1.26-1a3.22,3.22,0,0,0-1.7.52Z"
     id="path50" />
  <path
     d="M355.64,13.81l2.12,5.73c.23.64.46,1.4.62,2h0c.19-.58.38-1.32.62-2L361,13.81h1.86l-2.64,6.91c-1.27,3.32-2.13,5-3.33,6.06a4.77,4.77,0,0,1-2.16,1.14l-.44-1.48a4.66,4.66,0,0,0,1.54-.86,5.34,5.34,0,0,0,1.48-2,1.07,1.07,0,0,0,.14-.42,1.53,1.53,0,0,0-.12-.46l-3.58-8.93Z"
     id="path52" />
  <path
     d="M363.52,19.16a4.45,4.45,0,0,1,2.3-.62c1.72,0,2.44.92,2.44,1.88a2,2,0,0,1-1.54,1.8v0a2,2,0,0,1,1.86,1.94c0,1.24-1.12,2.34-3.16,2.34a4.42,4.42,0,0,1-2.28-.56l.36-1a3.75,3.75,0,0,0,1.86.52c1.22,0,1.76-.72,1.74-1.34,0-1-1.06-1.4-2.12-1.4h-.54v-.92H365c.74,0,1.8-.34,1.82-1.28,0-.48-.36-1-1.26-1a3.22,3.22,0,0,0-1.7.52Z"
     id="path54" />
  <path
     d="M402.65,22.48,407,16.77l1.26-1.5v0h-5.24V13.81h7.38l0,1.1-4.32,5.63c-.4.54-.8,1-1.24,1.52v0h5.66v1.4h-7.86Z"
     id="path56" />
  <path
     d="M411.41,19.16a4.45,4.45,0,0,1,2.3-.62c1.72,0,2.44.92,2.44,1.88a2,2,0,0,1-1.54,1.8v0a2,2,0,0,1,1.86,1.94c0,1.24-1.12,2.34-3.16,2.34A4.42,4.42,0,0,1,411,26l.36-1a3.75,3.75,0,0,0,1.86.52c1.22,0,1.76-.72,1.74-1.34,0-1-1.06-1.4-2.12-1.4h-.54v-.92h.56c.74,0,1.8-.34,1.82-1.28,0-.48-.36-1-1.26-1a3.22,3.22,0,0,0-1.7.52Z"
     id="path58" />
  <path
     d="M452.12,13.81l1.38,2.08c.36.54.66,1,1,1.58h.06c.32-.58.64-1.08,1-1.6l1.36-2.06h1.9l-3.3,4.69,3.4,5h-2l-1.42-2.18c-.38-.56-.7-1.1-1-1.68h0c-.32.58-.66,1.1-1,1.68l-1.4,2.18H450l3.44-4.94-3.28-4.75Z"
     id="path60" />
  <path
     d="M463.2,26.44V24.38h-3.78v-.8l3.54-5h1.58v4.8h1.12v1h-1.12v2.06Zm0-5.4c0-.44,0-.86.06-1.26h0a12.36,12.36,0,0,1-.68,1.18l-1.74,2.4,0,0h2.38Z"
     id="path62" />
  <path
     d="M500.18,13.81l2.12,5.73c.22.64.46,1.4.62,2h0c.18-.58.38-1.32.62-2l1.92-5.69h1.86l-2.64,6.91c-1.26,3.32-2.12,5-3.32,6.06a4.77,4.77,0,0,1-2.16,1.14l-.44-1.48a4.66,4.66,0,0,0,1.54-.86,5.34,5.34,0,0,0,1.48-2,1.26,1.26,0,0,0,.14-.42,1.53,1.53,0,0,0-.12-.46l-3.58-8.93Z"
     id="path64" />
  <path
     d="M511.6,26.44V24.38h-3.78v-.8l3.54-5h1.58v4.8h1.12v1h-1.12v2.06Zm0-5.4c0-.44,0-.86.06-1.26h0a12.36,12.36,0,0,1-.68,1.18l-1.74,2.4,0,0h2.38Z"
     id="path66" />
  <path
     d="M547.18,22.48l4.39-5.71c.42-.51.82-1,1.26-1.5v0h-5.25V13.81H555l0,1.1-4.33,5.63c-.4.54-.79,1-1.24,1.52v0h5.67v1.4h-7.87Z"
     id="path68" />
  <path
     d="M559.48,26.44V24.38H555.7v-.8l3.54-5h1.59v4.8H562v1h-1.12v2.06Zm0-5.4c0-.44,0-.86.06-1.26h0a12.36,12.36,0,0,1-.68,1.18l-1.74,2.4,0,0h2.38Z"
     id="path70" />
  <rect
     class="cls-2"
     x="0.86"
     y="0.5"
     width="577.89"
     height="36.25"
     id="rect72" />
  <line
     class="cls-2"
     x1="144.61"
     y1="0.08"
     x2="144.61"
     y2="36.66"
     id="line74" />
  <line
     class="cls-2"
     x1="288.59"
     y1="0.08"
     x2="288.59"
     y2="36.27"
     id="line76" />
  <line
     class="cls-2"
     x1="432.96"
     y1="0.47"
     x2="432.96"
     y2="36.27"
     id="line78" />
  <path
     d="M163.37,103.16l1.38,2.08c.36.54.66,1,1,1.58h.06c.32-.58.64-1.08,1-1.6l1.36-2.06H170l-3.3,4.68,3.4,5h-2l-1.42-2.18c-.38-.56-.7-1.1-1-1.68h0c-.32.58-.66,1.1-1,1.68l-1.4,2.18h-1.94l3.44-4.94-3.28-4.74Z"
     id="path80" />
  <path
     d="M172.49,115.78V109.2h0l-1.44.7-.22-1,1.88-.88h1.22v7.8Z"
     id="path82" />
  <path
     d="M211.43,103.16l2.12,5.72c.22.64.46,1.4.62,2h0c.18-.58.38-1.32.62-2l1.92-5.68h1.86l-2.64,6.9c-1.26,3.32-2.12,5-3.32,6.06a4.77,4.77,0,0,1-2.16,1.14l-.44-1.48a4.66,4.66,0,0,0,1.54-.86,5.34,5.34,0,0,0,1.48-2,1.26,1.26,0,0,0,.14-.42,1.53,1.53,0,0,0-.12-.46l-3.58-8.92Z"
     id="path84" />
  <path
     d="M220.89,115.78V109.2h0l-1.44.7-.22-1,1.88-.88h1.22v7.8Z"
     id="path86" />
  <path
     d="M258.44,111.82l4.38-5.7c.42-.52.82-1,1.26-1.5v0h-5.24v-1.42h7.38l0,1.1-4.32,5.62c-.4.54-.8,1-1.24,1.52v0h5.66v1.4h-7.86Z"
     id="path88" />
  <path
     d="M268.78,115.78V109.2h0l-1.44.7-.22-1L269,108h1.22v7.8Z"
     id="path90" />
  <path
     d="M451.63,103.16l1.38,2.08c.36.54.66,1,1,1.58h.06c.32-.58.64-1.08,1-1.6l1.36-2.06h1.9l-3.3,4.68,3.4,5h-2L455,110.66c-.38-.56-.7-1.1-1-1.68h0c-.32.58-.66,1.1-1,1.68l-1.4,2.18h-1.94L453,107.9l-3.28-4.74Z"
     id="path92" />
  <path
     d="M458.85,115l1.26-1.18c1.66-1.5,2.52-2.44,2.52-3.46a1.36,1.36,0,0,0-1.52-1.4,3.06,3.06,0,0,0-1.68.62l-.42-.9a3.88,3.88,0,0,1,2.44-.84c1.88,0,2.66,1.18,2.66,2.26,0,1.5-1.14,2.6-2.66,3.94l-.62.56v0h3.42v1.1h-5.4Z"
     id="path94" />
  <path
     d="M499.69,103.16l2.12,5.72c.22.64.46,1.4.62,2h0c.18-.58.38-1.32.62-2l1.92-5.68h1.86l-2.64,6.9c-1.26,3.32-2.12,5-3.32,6.06a4.77,4.77,0,0,1-2.16,1.14l-.44-1.48a4.66,4.66,0,0,0,1.54-.86,5.34,5.34,0,0,0,1.48-2,1.26,1.26,0,0,0,.14-.42,1.53,1.53,0,0,0-.12-.46l-3.58-8.92Z"
     id="path96" />
  <path
     d="M507.25,115l1.26-1.18c1.66-1.5,2.52-2.44,2.52-3.46a1.36,1.36,0,0,0-1.52-1.4,3.06,3.06,0,0,0-1.68.62l-.42-.9a3.88,3.88,0,0,1,2.44-.84c1.88,0,2.66,1.18,2.66,2.26,0,1.5-1.14,2.6-2.66,3.94l-.62.56v0h3.42v1.1h-5.4Z"
     id="path98" />
  <path
     d="M546.7,111.82l4.38-5.7c.42-.52.82-1,1.26-1.5v0H547.1v-1.42h7.38l0,1.1-4.32,5.62c-.4.54-.8,1-1.24,1.52v0h5.66v1.4H546.7Z"
     id="path100" />
  <path
     d="M555.14,115l1.26-1.18c1.66-1.5,2.52-2.44,2.52-3.46a1.36,1.36,0,0,0-1.52-1.4,3.06,3.06,0,0,0-1.68.62l-.42-.9a3.88,3.88,0,0,1,2.44-.84c1.88,0,2.66,1.18,2.66,2.26,0,1.5-1.14,2.6-2.66,3.94l-.62.56v0h3.42v1.1h-5.4Z"
     id="path102" />
  <path
     d="M308.3,103.16l1.38,2.08c.36.54.66,1,1,1.58h.06c.32-.58.64-1.08,1-1.6l1.36-2.06h1.9l-3.3,4.68,3.4,5h-2l-1.42-2.18c-.38-.56-.7-1.1-1-1.68h0c-.32.58-.66,1.1-1,1.68l-1.4,2.18h-1.94l3.44-4.94-3.28-4.74Z"
     id="path104" />
  <path
     d="M315.84,108.5a4.45,4.45,0,0,1,2.3-.62c1.72,0,2.44.92,2.44,1.88a2,2,0,0,1-1.54,1.8v0a2,2,0,0,1,1.86,1.94c0,1.24-1.12,2.34-3.16,2.34a4.42,4.42,0,0,1-2.28-.56l.36-1a3.75,3.75,0,0,0,1.86.52c1.22,0,1.76-.72,1.74-1.34,0-1-1.06-1.4-2.12-1.4h-.54v-.92h.56c.74,0,1.8-.34,1.82-1.28,0-.48-.36-1-1.26-1a3.22,3.22,0,0,0-1.7.52Z"
     id="path106" />
  <path
     d="M356.36,103.16l2.12,5.72c.22.64.46,1.4.62,2h0c.18-.58.38-1.32.62-2l1.92-5.68h1.86l-2.64,6.9c-1.26,3.32-2.12,5-3.32,6.06a4.77,4.77,0,0,1-2.16,1.14l-.44-1.48a4.66,4.66,0,0,0,1.54-.86,5.34,5.34,0,0,0,1.48-2,1.26,1.26,0,0,0,.14-.42,1.53,1.53,0,0,0-.12-.46l-3.58-8.92Z"
     id="path108" />
  <path
     d="M364.24,108.5a4.45,4.45,0,0,1,2.3-.62c1.72,0,2.44.92,2.44,1.88a2,2,0,0,1-1.54,1.8v0a2,2,0,0,1,1.86,1.94c0,1.24-1.12,2.34-3.16,2.34a4.42,4.42,0,0,1-2.28-.56l.36-1a3.75,3.75,0,0,0,1.86.52c1.22,0,1.76-.72,1.74-1.34,0-1-1.06-1.4-2.12-1.4h-.54v-.92h.56c.74,0,1.8-.34,1.82-1.28,0-.48-.36-1-1.26-1a3.22,3.22,0,0,0-1.7.52Z"
     id="path110" />
  <path
     d="M403.37,111.82l4.38-5.7c.42-.52.82-1,1.26-1.5v0h-5.25v-1.42h7.39l0,1.1-4.32,5.62c-.4.54-.8,1-1.24,1.52v0h5.66v1.4h-7.86Z"
     id="path112" />
  <path
     d="M412.12,108.5a4.48,4.48,0,0,1,2.3-.62c1.73,0,2.45.92,2.45,1.88a2,2,0,0,1-1.54,1.8v0a2,2,0,0,1,1.86,1.94c0,1.24-1.12,2.34-3.16,2.34a4.43,4.43,0,0,1-2.29-.56l.36-1a3.75,3.75,0,0,0,1.86.52c1.23,0,1.77-.72,1.74-1.34,0-1-1.05-1.4-2.12-1.4H413v-.92h.56c.74,0,1.81-.34,1.82-1.28,0-.48-.35-1-1.26-1a3.25,3.25,0,0,0-1.7.52Z"
     id="path114" />
  <path
     d="M18.55,103.16l1.38,2.08c.36.54.66,1,1,1.58H21c.32-.58.64-1.08,1-1.6l1.36-2.06h1.9l-3.3,4.68,3.4,5h-2l-1.42-2.18c-.38-.56-.7-1.1-1-1.68h0c-.32.58-.66,1.1-1,1.68l-1.4,2.18H16.43l3.44-4.94-3.28-4.74Z"
     id="path116" />
  <path
     d="M29.63,115.78v-2.06H25.85v-.8l3.54-5H31v4.8h1.12v1H31v2.06Zm0-5.4c0-.44,0-.86.06-1.26h0A12.36,12.36,0,0,1,29,110.3l-1.74,2.4,0,0h2.38Z"
     id="path118" />
  <path
     d="M66.61,103.16l2.12,5.72c.22.64.46,1.4.62,2h0c.18-.58.38-1.32.62-2l1.92-5.68h1.86l-2.64,6.9c-1.26,3.32-2.12,5-3.32,6.06a4.74,4.74,0,0,1-2.17,1.14l-.44-1.48a4.79,4.79,0,0,0,1.55-.86,5.45,5.45,0,0,0,1.48-2,1.26,1.26,0,0,0,.14-.42,1.53,1.53,0,0,0-.12-.46l-3.59-8.92Z"
     id="path120" />
  <path
     d="M78,115.78v-2.06H74.24v-.8l3.54-5h1.59v4.8h1.12v1H79.37v2.06Zm0-5.4c0-.44,0-.86.06-1.26h0a12.36,12.36,0,0,1-.68,1.18l-1.75,2.4,0,0H78Z"
     id="path122" />
  <path
     d="M113.61,111.82l4.38-5.7c.42-.52.82-1,1.26-1.5v0H114v-1.42h7.38l0,1.1-4.32,5.62c-.4.54-.8,1-1.24,1.52v0h5.66v1.4h-7.86Z"
     id="path124" />
  <path
     d="M125.91,115.78v-2.06h-3.78v-.8l3.54-5h1.58v4.8h1.12v1h-1.12v2.06Zm0-5.4c0-.44,0-.86.06-1.26h0a12.36,12.36,0,0,1-.68,1.18l-1.74,2.4,0,0h2.38Z"
     id="path126" />
  <rect
     class="cls-2"
     x="1.57"
     y="89.78"
     width="577.89"
     height="36.25"
     id="rect128" />
  <line
     class="cls-2"
     x1="145.33"
     y1="89.35"
     x2="145.33"
     y2="125.94"
     id="line130" />
  <line
     class="cls-2"
     x1="289.3"
     y1="89.35"
     x2="289.3"
     y2="125.54"
     id="line132" />
  <line
     class="cls-2"
     x1="433.67"
     y1="89.75"
     x2="433.67"
     y2="125.54"
     id="line134" />
  <path
     class="cls-2"
     d="M71.84,44.92c.39,9,72.77,18.88,72.77,18.88s47.44,6.71,65.51,13"
     id="path136" />
  <polygon
     points="202.93 79.77 209.29 76.95 208.16 70.08 216.99 81.11 202.93 79.77"
     id="polygon138" />
  <polygon
     class="cls-3"
     points="204.87 79.45 215.84 80.49 209.85 77.25 204.87 79.45"
     id="polygon140" />
  <polygon
     class="cls-4"
     points="208.96 71.89 215.84 80.49 209.85 77.25 208.96 71.89"
     id="polygon142" />
  <path
     class="cls-2"
     d="M216.21,45.31c0,9,144.37,18.89,144.37,18.89s107.13,7,136.57,14"
     id="path144" />
  <polygon
     points="490.43 82.01 496.37 78.39 494.35 71.72 504.55 81.5 490.43 82.01"
     id="polygon146" />
  <polygon
     class="cls-3"
     points="492.32 81.44 503.32 81.04 496.96 78.61 492.32 81.44"
     id="polygon148" />
  <polygon
     class="cls-4"
     points="495.38 73.41 503.32 81.04 496.96 78.61 495.38 73.41"
     id="polygon150" />
  <line
     class="cls-2"
     x1="360.97"
     y1="45.31"
     x2="360.97"
     y2="72.22"
     id="line152" />
  <polygon
     points="355.46 67.31 360.97 71.57 366.47 67.31 360.97 80.33 355.46 67.31"
     id="polygon154" />
  <polygon
     class="cls-3"
     points="356.67 68.87 360.97 79.01 360.97 72.2 356.67 68.87"
     id="polygon156" />
  <polygon
     class="cls-4"
     points="365.27 68.87 360.97 79.01 360.97 72.2 365.27 68.87"
     id="polygon158" />
  <path
     class="cls-2"
     d="M504.16,45.71c0,9.83-215.18,17.7-215.18,17.7S117.5,70.87,79.31,79.15"
     id="path160" />
  <polygon
     points="82.21 72.69 80.07 79.32 85.95 83.05 71.84 82.29 82.21 72.69"
     id="polygon162" />
  <polygon
     class="cls-3"
     points="81.15 74.35 73.07 81.85 79.48 79.53 81.15 74.35"
     id="polygon164" />
  <polygon
     class="cls-4"
     points="84.07 82.44 73.07 81.85 79.48 79.53 84.07 82.44"
     id="polygon166" />
  <rect
     class="cls-2"
     x="0.5"
     y="197.84"
     width="577.89"
     height="36.25"
     id="rect174" />
  <line
     class="cls-2"
     x1="142.96"
     y1="197.41"
     x2="142.96"
     y2="234"
     id="line176" />
  <line
     class="cls-2"
     x1="434.22"
     y1="197.41"
     x2="434.22"
     y2="233.84"
     id="line178" />
  <line
     class="cls-2"
     x1="45.88"
     y1="197.41"
     x2="45.88"
     y2="234.01"
     id="line180" />
  <line
     class="cls-2"
     x1="94.42"
     y1="197.41"
     x2="94.42"
     y2="233.6"
     id="line182" />
  <line
     class="cls-2"
     x1="191.5"
     y1="197.41"
     x2="191.5"
     y2="234"
     id="line184" />
  <line
     class="cls-2"
     x1="240.05"
     y1="197.55"
     x2="240.05"
     y2="233.74"
     id="line186" />
  <line
     class="cls-2"
     x1="288.59"
     y1="197.41"
     x2="288.59"
     y2="234"
     id="line188" />
  <line
     class="cls-2"
     x1="337.13"
     y1="197.41"
     x2="337.13"
     y2="234.42"
     id="line190" />
  <line
     class="cls-2"
     x1="385.67"
     y1="197.41"
     x2="385.67"
     y2="233.98"
     id="line192" />
  <line
     class="cls-2"
     x1="482.76"
     y1="197.41"
     x2="482.76"
     y2="233.98"
     id="line194" />
  <line
     class="cls-2"
     x1="531.3"
     y1="197.41"
     x2="531.3"
     y2="233.84"
     id="line196" />
  <rect
     class="cls-2"
     x="0.8"
     y="288.87"
     width="577.89"
     height="36.25"
     id="rect198" />
  <line
     class="cls-2"
     x1="143.26"
     y1="288.45"
     x2="143.26"
     y2="325.03"
     id="line200" />
  <line
     class="cls-2"
     x1="434.51"
     y1="288.45"
     x2="434.51"
     y2="324.87"
     id="line202" />
  <line
     class="cls-2"
     x1="46.17"
     y1="288.45"
     x2="46.17"
     y2="325.05"
     id="line204" />
  <line
     class="cls-2"
     x1="94.71"
     y1="288.45"
     x2="94.71"
     y2="324.64"
     id="line206" />
  <line
     class="cls-2"
     x1="191.8"
     y1="288.45"
     x2="191.8"
     y2="325.03"
     id="line208" />
  <line
     class="cls-2"
     x1="240.34"
     y1="288.59"
     x2="240.34"
     y2="324.78"
     id="line210" />
  <line
     class="cls-2"
     x1="288.88"
     y1="288.45"
     x2="288.88"
     y2="325.03"
     id="line212" />
  <line
     class="cls-2"
     x1="337.43"
     y1="288.45"
     x2="337.43"
     y2="325.46"
     id="line214" />
  <line
     class="cls-2"
     x1="385.97"
     y1="288.45"
     x2="385.97"
     y2="325.02"
     id="line216" />
  <line
     class="cls-2"
     x1="483.05"
     y1="288.45"
     x2="483.05"
     y2="325.02"
     id="line218" />
  <line
     class="cls-2"
     x1="531.6"
     y1="288.45"
     x2="531.6"
     y2="324.87"
     id="line220" />
  <path
     d="M17.94,210.78l1.38,2.08c.36.54.66,1,1,1.58h.06c.32-.58.64-1.08,1-1.6l1.36-2.06h1.9l-3.3,4.68,3.4,5h-2l-1.42-2.18c-.38-.56-.7-1.1-1-1.68h0c-.32.58-.66,1.1-1,1.68l-1.4,2.18H15.82l3.44-4.94L16,210.78Z"
     id="path228" />
  <path
     d="M27.06,223.4v-6.58h0l-1.44.7-.22-1,1.88-.88h1.22v7.8Z"
     id="path230" />
  <path
     d="M66,210.78l2.12,5.72c.22.64.46,1.4.62,2h0c.18-.58.38-1.32.62-2l1.92-5.68h1.86l-2.64,6.9c-1.26,3.32-2.12,5-3.32,6.06a4.77,4.77,0,0,1-2.16,1.14l-.44-1.48a4.66,4.66,0,0,0,1.54-.86,5.34,5.34,0,0,0,1.48-2,1.26,1.26,0,0,0,.14-.42,1.53,1.53,0,0,0-.12-.46l-3.58-8.92Z"
     id="path232" />
  <path
     d="M75.46,223.4v-6.58h0l-1.44.7-.22-1,1.88-.88h1.22v7.8Z"
     id="path234" />
  <path
     d="M113,219.44l4.38-5.7c.42-.52.82-1,1.26-1.5v0h-5.24v-1.42h7.38l0,1.1-4.32,5.62c-.4.54-.8,1-1.24,1.52v0h5.66v1.4H113Z"
     id="path236" />
  <path
     d="M123.35,223.4v-6.58h0l-1.44.7-.22-1,1.88-.88h1.22v7.8Z"
     id="path238" />
  <path
     d="M162.23,210.78l1.38,2.08c.36.54.66,1,1,1.58h.06c.32-.58.64-1.08,1-1.6l1.36-2.06h1.9l-3.3,4.68,3.4,5h-2l-1.42-2.18c-.38-.56-.7-1.1-1-1.68h0c-.32.58-.66,1.1-1,1.68l-1.4,2.18h-1.94l3.44-4.94-3.28-4.74Z"
     id="path240" />
  <path
     d="M169.45,222.66l1.26-1.18c1.66-1.5,2.52-2.44,2.52-3.46a1.36,1.36,0,0,0-1.52-1.4,3.06,3.06,0,0,0-1.68.62l-.42-.9a3.88,3.88,0,0,1,2.44-.84c1.88,0,2.66,1.18,2.66,2.26,0,1.5-1.14,2.6-2.66,3.94l-.62.56v0h3.42v1.1h-5.4Z"
     id="path242" />
  <path
     d="M210.28,210.78l2.12,5.72c.22.64.46,1.4.62,2h0c.18-.58.38-1.32.62-2l1.93-5.68h1.86l-2.64,6.9c-1.27,3.32-2.13,5-3.33,6.06a4.77,4.77,0,0,1-2.16,1.14l-.44-1.48a4.66,4.66,0,0,0,1.54-.86,5.34,5.34,0,0,0,1.48-2,1.26,1.26,0,0,0,.14-.42,1.53,1.53,0,0,0-.12-.46l-3.58-8.92Z"
     id="path244" />
  <path
     d="M217.84,222.66l1.26-1.18c1.66-1.5,2.52-2.44,2.52-3.46a1.36,1.36,0,0,0-1.52-1.4,3.06,3.06,0,0,0-1.68.62l-.42-.9a3.88,3.88,0,0,1,2.44-.84c1.88,0,2.66,1.18,2.66,2.26,0,1.5-1.14,2.6-2.66,3.94l-.62.56v0h3.42v1.1h-5.4Z"
     id="path246" />
  <path
     d="M257.29,219.44l4.38-5.7c.42-.52.82-1,1.26-1.5v0h-5.24v-1.42h7.38l0,1.1-4.32,5.62c-.4.54-.8,1-1.24,1.52v0h5.66v1.4h-7.86Z"
     id="path248" />
  <path
     d="M265.73,222.66l1.26-1.18c1.66-1.5,2.52-2.44,2.52-3.46a1.36,1.36,0,0,0-1.52-1.4,3.06,3.06,0,0,0-1.68.62l-.42-.9a3.88,3.88,0,0,1,2.44-.84c1.88,0,2.66,1.18,2.66,2.26,0,1.5-1.14,2.6-2.66,3.94l-.62.56v0h3.42v1.1h-5.4Z"
     id="path250" />
  <path
     d="M307.24,210.78l1.38,2.08c.36.54.66,1,1,1.58h.06c.32-.58.64-1.08,1-1.6l1.36-2.06h1.9l-3.3,4.68,3.4,5h-2l-1.42-2.18c-.38-.56-.7-1.1-1-1.68h0c-.32.58-.66,1.1-1,1.68l-1.4,2.18h-1.94l3.44-4.94-3.28-4.74Z"
     id="path252" />
  <path
     d="M314.78,216.12a4.45,4.45,0,0,1,2.3-.62c1.72,0,2.44.92,2.44,1.88a2,2,0,0,1-1.54,1.8v0a2,2,0,0,1,1.86,1.94c0,1.24-1.12,2.34-3.16,2.34a4.42,4.42,0,0,1-2.28-.56l.36-1a3.75,3.75,0,0,0,1.86.52c1.22,0,1.76-.72,1.74-1.34,0-1-1.06-1.4-2.12-1.4h-.54v-.92h.56c.74,0,1.8-.34,1.82-1.28,0-.48-.36-1-1.26-1a3.22,3.22,0,0,0-1.7.52Z"
     id="path254" />
  <path
     d="M355.3,210.78l2.12,5.72c.22.64.46,1.4.62,2h0c.18-.58.38-1.32.62-2l1.92-5.68h1.86l-2.64,6.9c-1.26,3.32-2.12,5-3.32,6.06a4.77,4.77,0,0,1-2.16,1.14l-.44-1.48a4.66,4.66,0,0,0,1.54-.86,5.34,5.34,0,0,0,1.48-2,1.26,1.26,0,0,0,.14-.42,1.53,1.53,0,0,0-.12-.46l-3.58-8.92Z"
     id="path256" />
  <path
     d="M363.18,216.12a4.45,4.45,0,0,1,2.3-.62c1.72,0,2.44.92,2.44,1.88a2,2,0,0,1-1.54,1.8v0a2,2,0,0,1,1.86,1.94c0,1.24-1.12,2.34-3.16,2.34a4.42,4.42,0,0,1-2.28-.56l.36-1a3.75,3.75,0,0,0,1.86.52c1.22,0,1.76-.72,1.74-1.34,0-1-1.06-1.4-2.12-1.4h-.54v-.92h.56c.74,0,1.8-.34,1.82-1.28,0-.48-.36-1-1.26-1a3.22,3.22,0,0,0-1.7.52Z"
     id="path258" />
  <path
     d="M402.31,219.44l4.38-5.7c.42-.52.82-1,1.26-1.5v0H402.7v-1.42h7.39l0,1.1-4.32,5.62c-.4.54-.8,1-1.24,1.52v0h5.66v1.4h-7.86Z"
     id="path260" />
  <path
     d="M411.07,216.12a4.45,4.45,0,0,1,2.3-.62c1.72,0,2.44.92,2.44,1.88a2,2,0,0,1-1.54,1.8v0a2,2,0,0,1,1.86,1.94c0,1.24-1.12,2.34-3.16,2.34a4.43,4.43,0,0,1-2.29-.56l.36-1a3.83,3.83,0,0,0,1.87.52c1.22,0,1.76-.72,1.74-1.34,0-1-1.06-1.4-2.12-1.4H412v-.92h.55c.74,0,1.81-.34,1.83-1.28,0-.48-.36-1-1.26-1a3.22,3.22,0,0,0-1.7.52Z"
     id="path262" />
  <path
     d="M451.77,210.78l1.38,2.08c.36.54.66,1,1,1.58h.06c.32-.58.64-1.08,1-1.6l1.36-2.06h1.9l-3.3,4.68,3.4,5h-2l-1.42-2.18c-.38-.56-.7-1.1-1-1.68h0c-.32.58-.66,1.1-1,1.68l-1.4,2.18h-1.94l3.44-4.94-3.28-4.74Z"
     id="path264" />
  <path
     d="M462.85,223.4v-2.06h-3.78v-.8l3.54-5h1.58v4.8h1.12v1h-1.12v2.06Zm0-5.4c0-.44,0-.86.06-1.26h0a12.36,12.36,0,0,1-.68,1.18l-1.74,2.4,0,0h2.38Z"
     id="path266" />
  <path
     d="M499.83,210.78,502,216.5c.22.64.46,1.4.62,2h0c.18-.58.38-1.32.62-2l1.92-5.68H507l-2.64,6.9c-1.26,3.32-2.12,5-3.32,6.06a4.77,4.77,0,0,1-2.16,1.14l-.44-1.48a4.66,4.66,0,0,0,1.54-.86,5.34,5.34,0,0,0,1.48-2,1.26,1.26,0,0,0,.14-.42,1.53,1.53,0,0,0-.12-.46l-3.58-8.92Z"
     id="path268" />
  <path
     d="M511.25,223.4v-2.06h-3.78v-.8l3.54-5h1.58v4.8h1.12v1h-1.12v2.06Zm0-5.4c0-.44,0-.86.06-1.26h0a12.36,12.36,0,0,1-.68,1.18l-1.74,2.4,0,0h2.38Z"
     id="path270" />
  <path
     d="M546.84,219.44l4.38-5.7c.42-.52.82-1,1.26-1.5v0h-5.24v-1.42h7.38l0,1.1-4.32,5.62c-.4.54-.8,1-1.24,1.52v0h5.66v1.4h-7.86Z"
     id="path272" />
  <path
     d="M559.14,223.4v-2.06h-3.78v-.8l3.54-5h1.58v4.8h1.12v1h-1.12v2.06Zm0-5.4c0-.44,0-.86.06-1.26h0a12.36,12.36,0,0,1-.68,1.18l-1.74,2.4,0,0h2.38Z"
     id="path274" />
  <path
     d="M18.73,301.09l1.38,2.08c.36.54.66,1,1,1.58h.06c.32-.58.64-1.08,1-1.6l1.36-2.06h1.9l-3.3,4.68,3.4,5h-2l-1.42-2.18c-.38-.56-.7-1.1-1-1.68h0c-.32.58-.66,1.1-1,1.68l-1.4,2.18H16.61l3.44-4.94-3.28-4.74Z"
     id="path276" />
  <path
     d="M27.85,313.71v-6.58h0l-1.44.7-.22-1,1.88-.88h1.22v7.8Z"
     id="path278" />
  <path
     d="M211.74,301.09l2.12,5.72c.22.64.46,1.4.62,2h0c.18-.58.38-1.32.62-2l1.92-5.68h1.86l-2.64,6.9c-1.26,3.32-2.12,5-3.32,6.06a4.77,4.77,0,0,1-2.16,1.14l-.44-1.48a4.66,4.66,0,0,0,1.54-.86,5.34,5.34,0,0,0,1.48-2,1.26,1.26,0,0,0,.14-.42,1.53,1.53,0,0,0-.12-.46l-3.58-8.92Z"
     id="path280" />
  <path
     d="M221.2,313.71v-6.58h0l-1.44.7-.22-1,1.88-.88h1.22v7.8Z"
     id="path282" />
  <path
     d="M113.79,309.75l4.38-5.7c.42-.52.82-1,1.26-1.5v0h-5.24v-1.42h7.38l0,1.1-4.32,5.62c-.4.54-.8,1-1.24,1.52v0h5.66v1.4h-7.86Z"
     id="path284" />
  <path
     d="M124.13,313.71v-6.58h0l-1.44.7-.22-1,1.88-.88h1.22v7.8Z"
     id="path286" />
  <path
     d="M163,301.09l1.38,2.08c.36.54.66,1,1,1.58h.06c.32-.58.64-1.08,1-1.6l1.36-2.06h1.9l-3.3,4.68,3.4,5h-2l-1.42-2.18c-.38-.56-.7-1.1-1-1.68h0c-.32.58-.66,1.1-1,1.68l-1.4,2.18h-1.94l3.44-4.94-3.28-4.74Z"
     id="path288" />
  <path
     d="M170.23,313l1.26-1.18c1.66-1.5,2.52-2.44,2.52-3.46a1.36,1.36,0,0,0-1.52-1.4,3.06,3.06,0,0,0-1.68.62l-.42-.9a3.88,3.88,0,0,1,2.44-.84c1.88,0,2.66,1.18,2.66,2.26,0,1.5-1.14,2.6-2.66,3.94l-.62.56v0h3.42v1.1h-5.4Z"
     id="path290" />
  <path
     d="M356,301.09l2.12,5.72c.22.64.46,1.4.62,2h0c.18-.58.38-1.32.62-2l1.92-5.68h1.86l-2.64,6.9c-1.26,3.32-2.12,5-3.32,6.06a4.77,4.77,0,0,1-2.16,1.14l-.44-1.48a4.66,4.66,0,0,0,1.54-.86,5.34,5.34,0,0,0,1.48-2,1.26,1.26,0,0,0,.14-.42,1.53,1.53,0,0,0-.12-.46l-3.58-8.92Z"
     id="path292" />
  <path
     d="M363.58,313l1.26-1.18c1.66-1.5,2.52-2.44,2.52-3.46a1.36,1.36,0,0,0-1.52-1.4,3.06,3.06,0,0,0-1.68.62l-.42-.9a3.88,3.88,0,0,1,2.44-.84c1.88,0,2.66,1.18,2.66,2.26,0,1.5-1.14,2.6-2.66,3.94l-.62.56v0H369v1.1h-5.4Z"
     id="path294" />
  <path
     d="M258.08,309.75l4.38-5.7c.42-.52.82-1,1.26-1.5v0h-5.25v-1.42h7.39l0,1.1-4.32,5.62c-.4.54-.8,1-1.24,1.52v0h5.66v1.4h-7.86Z"
     id="path296" />
  <path
     d="M266.51,313l1.26-1.18c1.67-1.5,2.52-2.44,2.52-3.46a1.35,1.35,0,0,0-1.51-1.4,3.09,3.09,0,0,0-1.69.62l-.42-.9a3.91,3.91,0,0,1,2.45-.84,2.35,2.35,0,0,1,2.66,2.26c0,1.5-1.14,2.6-2.66,3.94l-.63.56v0h3.43v1.1h-5.41Z"
     id="path298" />
  <path
     d="M308,301.09l1.38,2.08c.36.54.66,1,1,1.58h.06c.32-.58.64-1.08,1-1.6l1.36-2.06h1.9l-3.3,4.68,3.4,5h-2l-1.42-2.18c-.38-.56-.7-1.1-1-1.68h0c-.32.58-.66,1.1-1,1.68l-1.4,2.18H305.9l3.44-4.94-3.28-4.74Z"
     id="path300" />
  <path
     d="M315.56,306.43a4.45,4.45,0,0,1,2.3-.62c1.72,0,2.44.92,2.44,1.88a2,2,0,0,1-1.54,1.8v0a2,2,0,0,1,1.86,1.94c0,1.24-1.12,2.34-3.16,2.34a4.42,4.42,0,0,1-2.28-.56l.36-1a3.75,3.75,0,0,0,1.86.52c1.22,0,1.76-.72,1.74-1.34,0-1-1.06-1.4-2.12-1.4h-.54v-.92H317c.74,0,1.8-.34,1.82-1.28,0-.48-.36-1-1.26-1a3.22,3.22,0,0,0-1.7.52Z"
     id="path302" />
  <path
     d="M66.17,301.09l2.12,5.72c.22.64.46,1.4.62,2h0c.18-.58.38-1.32.62-2l1.92-5.68h1.87L70.71,308c-1.26,3.32-2.12,5-3.32,6.06a4.77,4.77,0,0,1-2.16,1.14l-.44-1.48a4.66,4.66,0,0,0,1.54-.86,5.34,5.34,0,0,0,1.48-2,1.26,1.26,0,0,0,.14-.42,1.53,1.53,0,0,0-.12-.46l-3.58-8.92Z"
     id="path304" />
  <path
     d="M74.05,306.43a4.45,4.45,0,0,1,2.3-.62c1.72,0,2.44.92,2.44,1.88a2,2,0,0,1-1.54,1.8v0a2,2,0,0,1,1.86,1.94c0,1.24-1.12,2.34-3.16,2.34a4.42,4.42,0,0,1-2.28-.56l.36-1a3.75,3.75,0,0,0,1.86.52c1.22,0,1.76-.72,1.74-1.34,0-1-1.06-1.4-2.12-1.4H75v-.92h.56c.74,0,1.8-.34,1.82-1.28,0-.48-.36-1-1.26-1a3.22,3.22,0,0,0-1.7.52Z"
     id="path306" />
  <path
     d="M403.09,309.75l4.38-5.7c.42-.52.82-1,1.26-1.5v0h-5.24v-1.42h7.38l0,1.1-4.32,5.62c-.4.54-.8,1-1.24,1.52v0H411v1.4h-7.86Z"
     id="path308" />
  <path
     d="M411.85,306.43a4.45,4.45,0,0,1,2.3-.62c1.72,0,2.44.92,2.44,1.88a2,2,0,0,1-1.54,1.8v0a2,2,0,0,1,1.86,1.94c0,1.24-1.12,2.34-3.16,2.34a4.42,4.42,0,0,1-2.28-.56l.36-1a3.75,3.75,0,0,0,1.86.52c1.22,0,1.76-.72,1.74-1.34,0-1-1.06-1.4-2.12-1.4h-.54v-.92h.56c.74,0,1.8-.34,1.82-1.28,0-.48-.36-1-1.26-1a3.22,3.22,0,0,0-1.7.52Z"
     id="path310" />
  <path
     d="M452.56,301.09l1.38,2.08c.36.54.66,1,1,1.58H455c.32-.58.64-1.08,1-1.6l1.36-2.06h1.9l-3.3,4.68,3.4,5h-2l-1.42-2.18c-.38-.56-.7-1.1-1-1.68h0c-.32.58-.66,1.1-1,1.68l-1.4,2.18h-1.94l3.44-4.94-3.28-4.74Z"
     id="path312" />
  <path
     d="M463.64,313.71v-2.06h-3.78v-.8l3.54-5H465v4.8h1.12v1H465v2.06Zm0-5.4c0-.44,0-.86.06-1.26h0a12.36,12.36,0,0,1-.68,1.18l-1.74,2.4,0,0h2.38Z"
     id="path314" />
  <path
     d="M500.61,301.09l2.12,5.72c.22.64.46,1.4.62,2h0c.18-.58.38-1.32.62-2l1.92-5.68h1.86l-2.64,6.9c-1.26,3.32-2.12,5-3.32,6.06a4.77,4.77,0,0,1-2.16,1.14l-.44-1.48a4.66,4.66,0,0,0,1.54-.86,5.34,5.34,0,0,0,1.48-2,1.26,1.26,0,0,0,.14-.42,1.53,1.53,0,0,0-.12-.46l-3.58-8.92Z"
     id="path316" />
  <path
     d="M512,313.71v-2.06h-3.78v-.8l3.54-5h1.58v4.8h1.12v1h-1.12v2.06Zm0-5.4c0-.44,0-.86.06-1.26h0a12.36,12.36,0,0,1-.68,1.18l-1.74,2.4,0,0H512Z"
     id="path318" />
  <path
     d="M547.62,309.75l4.38-5.7c.42-.52.82-1,1.26-1.5v0H548v-1.42h7.38l0,1.1-4.32,5.62c-.4.54-.8,1-1.24,1.52v0h5.66v1.4h-7.86Z"
     id="path320" />
  <path
     d="M559.92,313.71v-2.06h-3.78v-.8l3.54-5h1.58v4.8h1.12v1h-1.12v2.06Zm0-5.4c0-.44,0-.86.06-1.26h0a12.36,12.36,0,0,1-.68,1.18l-1.74,2.4,0,0h2.38Z"
     id="path322" />
  <path
     class="cls-2"
     d="M360.36,243.45c0,9.92-143,18-143,18s-108.51,5.39-137.94,12.68"
     id="path324" />
  <polygon
     points="82.11 267.68 80.27 274.39 86.3 277.85 72.17 277.73 82.11 267.68"
     id="polygon326" />
  <polygon
     class="cls-3"
     points="81.13 269.38 73.39 277.22 79.69 274.63 81.13 269.38"
     id="polygon328" />
  <polygon
     class="cls-4"
     points="84.4 277.33 73.39 277.22 79.69 274.63 84.4 277.33"
     id="polygon330" />
  <path
     class="cls-2"
     d="M72.63,243.45c0,9.92,72.16,17.59,72.16,17.59s47.43,7.16,65.14,14.2"
     id="path332" />
  <polygon
     points="202.53 277.81 209.05 275.37 208.33 268.45 216.5 279.98 202.53 277.81"
     id="polygon334" />
  <polygon
     class="cls-3"
     points="204.49 277.6 215.38 279.29 209.59 275.7 204.49 277.6"
     id="polygon336" />
  <polygon
     class="cls-4"
     points="209.02 270.29 215.38 279.29 209.59 275.7 209.02 270.29"
     id="polygon338" />
  <path
     class="cls-2"
     d="M216.49,243.9c0,9.47,72.62,18.94,72.62,18.94s46.47,6.81,64.11,13.47"
     id="path340" />
  <polygon
     points="345.9 279.03 352.37 276.44 351.48 269.54 359.91 280.88 345.9 279.03"
     id="polygon342" />
  <polygon
     class="cls-3"
     points="347.86 278.78 358.78 280.22 352.91 276.76 347.86 278.78"
     id="polygon344" />
  <polygon
     class="cls-4"
     points="352.22 271.37 358.78 280.22 352.91 276.76 352.22 271.37"
     id="polygon346" />
  <line
     class="cls-2"
     x1="504.23"
     y1="244.35"
     x2="504.23"
     y2="270.52"
     id="line348" />
  <polygon
     points="498.73 265.61 504.23 269.87 509.74 265.61 504.23 278.63 498.73 265.61"
     id="polygon350" />
  <polygon
     class="cls-3"
     points="499.93 267.17 504.23 277.31 504.23 270.5 499.93 267.17"
     id="polygon352" />
  <polygon
     class="cls-4"
     points="508.53 267.17 504.23 277.31 504.23 270.5 508.53 267.17"
     id="polygon354" />
  <metadata
     id="metadata1174">
    <rdf:RDF>
      <cc:Work
         rdf:about="">
        <dc:title>Shuffle permutations</dc:title>
      </cc:Work>
    </rdf:RDF>
  </metadata>
  <text
     xml:space="preserve"
     id="text3324"
     style="font-size:18.6667px;line-height:1.25;font-family:sans-serif;white-space:pre;shape-inside:url(#rect3326)"><tspan
       x="0.49609375"
       y="155.98855"
       id="tspan10861"><tspan
         style="font-family:'Source Han Serif SC';-inkscape-font-specification:'Source Han Serif SC'"
         id="tspan10859">(a)</tspan></tspan></text>
  <text
     xml:space="preserve"
     id="text3324-3"
     style="font-size:18.6667px;line-height:1.25;font-family:sans-serif;white-space:pre;shape-inside:url(#rect3326-4)"
     transform="translate(-0.11350149,193.95896)"><tspan
       x="0.49609375"
       y="155.98855"
       id="tspan10865"><tspan
         style="font-family:'Source Han Serif SC';-inkscape-font-specification:'Source Han Serif SC'"
         id="tspan10863">(b)</tspan></tspan></text>
</svg>
