<?xml version="1.0" encoding="UTF-8"?>
<svg xmlns="http://www.w3.org/2000/svg" xmlns:xlink="http://www.w3.org/1999/xlink" width="300pt" height="300pt" viewBox="0 0 300 300" version="1.1">
<g id="surface361">
<path style="fill:none;stroke-width:0.5;stroke-linecap:butt;stroke-linejoin:miter;stroke:rgb(0%,0%,0%);stroke-opacity:0.4;stroke-miterlimit:3.25;" d="M 74.25 311.75 L 74.25 13.25 " transform="matrix(1,0,0,1,-74,-13)"/>
<path style="fill:none;stroke-width:0.5;stroke-linecap:butt;stroke-linejoin:miter;stroke:rgb(0%,0%,0%);stroke-opacity:0.4;stroke-miterlimit:3.25;" d="M 148.875 311.75 L 148.875 13.25 " transform="matrix(1,0,0,1,-74,-13)"/>
<path style="fill:none;stroke-width:0.5;stroke-linecap:butt;stroke-linejoin:miter;stroke:rgb(0%,0%,0%);stroke-opacity:0.4;stroke-miterlimit:3.25;" d="M 223.5 311.75 L 223.5 13.25 " transform="matrix(1,0,0,1,-74,-13)"/>
<path style="fill:none;stroke-width:0.5;stroke-linecap:butt;stroke-linejoin:miter;stroke:rgb(0%,0%,0%);stroke-opacity:0.4;stroke-miterlimit:3.25;" d="M 298.125 311.75 L 298.125 13.25 " transform="matrix(1,0,0,1,-74,-13)"/>
<path style="fill:none;stroke-width:0.5;stroke-linecap:butt;stroke-linejoin:miter;stroke:rgb(0%,0%,0%);stroke-opacity:0.4;stroke-miterlimit:3.25;" d="M 372.75 311.75 L 372.75 13.25 " transform="matrix(1,0,0,1,-74,-13)"/>
<path style="fill:none;stroke-width:0.5;stroke-linecap:butt;stroke-linejoin:miter;stroke:rgb(0%,0%,0%);stroke-opacity:0.4;stroke-miterlimit:3.25;" d="M 74.25 311.75 L 372.75 311.75 " transform="matrix(1,0,0,1,-74,-13)"/>
<path style="fill:none;stroke-width:0.5;stroke-linecap:butt;stroke-linejoin:miter;stroke:rgb(0%,0%,0%);stroke-opacity:0.4;stroke-miterlimit:3.25;" d="M 74.25 237.125 L 372.75 237.125 " transform="matrix(1,0,0,1,-74,-13)"/>
<path style="fill:none;stroke-width:0.5;stroke-linecap:butt;stroke-linejoin:miter;stroke:rgb(0%,0%,0%);stroke-opacity:0.4;stroke-miterlimit:3.25;" d="M 74.25 162.5 L 372.75 162.5 " transform="matrix(1,0,0,1,-74,-13)"/>
<path style="fill:none;stroke-width:0.5;stroke-linecap:butt;stroke-linejoin:miter;stroke:rgb(0%,0%,0%);stroke-opacity:0.4;stroke-miterlimit:3.25;" d="M 74.25 87.875 L 372.75 87.875 " transform="matrix(1,0,0,1,-74,-13)"/>
<path style="fill:none;stroke-width:0.5;stroke-linecap:butt;stroke-linejoin:miter;stroke:rgb(0%,0%,0%);stroke-opacity:0.4;stroke-miterlimit:3.25;" d="M 74.25 13.25 L 372.75 13.25 " transform="matrix(1,0,0,1,-74,-13)"/>
<path style=" stroke:none;fill-rule:evenodd;fill:rgb(36.84082%,50.67749%,70.979309%);fill-opacity:1;" d="M 36.984375 251 C 36.984375 250.207031 36.671875 249.449219 36.109375 248.890625 C 35.550781 248.328125 34.792969 248.015625 34 248.015625 C 33.207031 248.015625 32.449219 248.328125 31.890625 248.890625 C 31.328125 249.449219 31.015625 250.207031 31.015625 251 C 31.015625 251.792969 31.328125 252.550781 31.890625 253.109375 C 32.449219 253.671875 33.207031 253.984375 34 253.984375 C 34.792969 253.984375 35.550781 253.671875 36.109375 253.109375 C 36.671875 252.550781 36.984375 251.792969 36.984375 251 Z M 36.984375 251 "/>
<path style=" stroke:none;fill-rule:evenodd;fill:rgb(36.84082%,50.67749%,70.979309%);fill-opacity:1;" d="M 28.984375 199 C 28.984375 198.207031 28.671875 197.449219 28.109375 196.890625 C 27.550781 196.328125 26.792969 196.015625 26 196.015625 C 25.207031 196.015625 24.449219 196.328125 23.890625 196.890625 C 23.328125 197.449219 23.015625 198.207031 23.015625 199 C 23.015625 199.792969 23.328125 200.550781 23.890625 201.109375 C 24.449219 201.671875 25.207031 201.984375 26 201.984375 C 26.792969 201.984375 27.550781 201.671875 28.109375 201.109375 C 28.671875 200.550781 28.984375 199.792969 28.984375 199 Z M 28.984375 199 "/>
<path style=" stroke:none;fill-rule:evenodd;fill:rgb(36.84082%,50.67749%,70.979309%);fill-opacity:1;" d="M 76.984375 138 C 76.984375 137.207031 76.671875 136.449219 76.109375 135.890625 C 75.550781 135.328125 74.792969 135.015625 74 135.015625 C 73.207031 135.015625 72.449219 135.328125 71.890625 135.890625 C 71.328125 136.449219 71.015625 137.207031 71.015625 138 C 71.015625 138.792969 71.328125 139.550781 71.890625 140.109375 C 72.449219 140.671875 73.207031 140.984375 74 140.984375 C 74.792969 140.984375 75.550781 140.671875 76.109375 140.109375 C 76.671875 139.550781 76.984375 138.792969 76.984375 138 Z M 76.984375 138 "/>
<path style=" stroke:none;fill-rule:evenodd;fill:rgb(36.84082%,50.67749%,70.979309%);fill-opacity:1;" d="M 16.984375 60 C 16.984375 59.207031 16.671875 58.449219 16.109375 57.890625 C 15.550781 57.328125 14.792969 57.015625 14 57.015625 C 13.207031 57.015625 12.449219 57.328125 11.890625 57.890625 C 11.328125 58.449219 11.015625 59.207031 11.015625 60 C 11.015625 60.792969 11.328125 61.550781 11.890625 62.109375 C 12.449219 62.671875 13.207031 62.984375 14 62.984375 C 14.792969 62.984375 15.550781 62.671875 16.109375 62.109375 C 16.671875 61.550781 16.984375 60.792969 16.984375 60 Z M 16.984375 60 "/>
<path style=" stroke:none;fill-rule:evenodd;fill:rgb(36.84082%,50.67749%,70.979309%);fill-opacity:1;" d="M 117.984375 295 C 117.984375 294.207031 117.671875 293.449219 117.109375 292.890625 C 116.550781 292.328125 115.792969 292.015625 115 292.015625 C 114.207031 292.015625 113.449219 292.328125 112.890625 292.890625 C 112.328125 293.449219 112.015625 294.207031 112.015625 295 C 112.015625 295.792969 112.328125 296.550781 112.890625 297.109375 C 113.449219 297.671875 114.207031 297.984375 115 297.984375 C 115.792969 297.984375 116.550781 297.671875 117.109375 297.109375 C 117.671875 296.550781 117.984375 295.792969 117.984375 295 Z M 117.984375 295 "/>
<path style=" stroke:none;fill-rule:evenodd;fill:rgb(36.84082%,50.67749%,70.979309%);fill-opacity:1;" d="M 84.984375 206 C 84.984375 205.207031 84.671875 204.449219 84.109375 203.890625 C 83.550781 203.328125 82.792969 203.015625 82 203.015625 C 81.207031 203.015625 80.449219 203.328125 79.890625 203.890625 C 79.328125 204.449219 79.015625 205.207031 79.015625 206 C 79.015625 206.792969 79.328125 207.550781 79.890625 208.109375 C 80.449219 208.671875 81.207031 208.984375 82 208.984375 C 82.792969 208.984375 83.550781 208.671875 84.109375 208.109375 C 84.671875 207.550781 84.984375 206.792969 84.984375 206 Z M 84.984375 206 "/>
<path style=" stroke:none;fill-rule:evenodd;fill:rgb(36.84082%,50.67749%,70.979309%);fill-opacity:1;" d="M 139.984375 77 C 139.984375 76.207031 139.671875 75.449219 139.109375 74.890625 C 138.550781 74.328125 137.792969 74.015625 137 74.015625 C 136.207031 74.015625 135.449219 74.328125 134.890625 74.890625 C 134.328125 75.449219 134.015625 76.207031 134.015625 77 C 134.015625 77.792969 134.328125 78.550781 134.890625 79.109375 C 135.449219 79.671875 136.207031 79.984375 137 79.984375 C 137.792969 79.984375 138.550781 79.671875 139.109375 79.109375 C 139.671875 78.550781 139.984375 77.792969 139.984375 77 Z M 139.984375 77 "/>
<path style=" stroke:none;fill-rule:evenodd;fill:rgb(36.84082%,50.67749%,70.979309%);fill-opacity:1;" d="M 118.984375 65 C 118.984375 64.207031 118.671875 63.449219 118.109375 62.890625 C 117.550781 62.328125 116.792969 62.015625 116 62.015625 C 115.207031 62.015625 114.449219 62.328125 113.890625 62.890625 C 113.328125 63.449219 113.015625 64.207031 113.015625 65 C 113.015625 65.792969 113.328125 66.550781 113.890625 67.109375 C 114.449219 67.671875 115.207031 67.984375 116 67.984375 C 116.792969 67.984375 117.550781 67.671875 118.109375 67.109375 C 118.671875 66.550781 118.984375 65.792969 118.984375 65 Z M 118.984375 65 "/>
<path style=" stroke:none;fill-rule:evenodd;fill:rgb(36.84082%,50.67749%,70.979309%);fill-opacity:1;" d="M 224.984375 282 C 224.984375 281.207031 224.671875 280.449219 224.109375 279.890625 C 223.550781 279.328125 222.792969 279.015625 222 279.015625 C 221.207031 279.015625 220.449219 279.328125 219.890625 279.890625 C 219.328125 280.449219 219.015625 281.207031 219.015625 282 C 219.015625 282.792969 219.328125 283.550781 219.890625 284.109375 C 220.449219 284.671875 221.207031 284.984375 222 284.984375 C 222.792969 284.984375 223.550781 284.671875 224.109375 284.109375 C 224.671875 283.550781 224.984375 282.792969 224.984375 282 Z M 224.984375 282 "/>
<path style=" stroke:none;fill-rule:evenodd;fill:rgb(36.84082%,50.67749%,70.979309%);fill-opacity:1;" d="M 222.984375 193 C 222.984375 192.207031 222.671875 191.449219 222.109375 190.890625 C 221.550781 190.328125 220.792969 190.015625 220 190.015625 C 219.207031 190.015625 218.449219 190.328125 217.890625 190.890625 C 217.328125 191.449219 217.015625 192.207031 217.015625 193 C 217.015625 193.792969 217.328125 194.550781 217.890625 195.109375 C 218.449219 195.671875 219.207031 195.984375 220 195.984375 C 220.792969 195.984375 221.550781 195.671875 222.109375 195.109375 C 222.671875 194.550781 222.984375 193.792969 222.984375 193 Z M 222.984375 193 "/>
<path style=" stroke:none;fill-rule:evenodd;fill:rgb(36.84082%,50.67749%,70.979309%);fill-opacity:1;" d="M 224.984375 92 C 224.984375 91.207031 224.671875 90.449219 224.109375 89.890625 C 223.550781 89.328125 222.792969 89.015625 222 89.015625 C 221.207031 89.015625 220.449219 89.328125 219.890625 89.890625 C 219.328125 90.449219 219.015625 91.207031 219.015625 92 C 219.015625 92.792969 219.328125 93.550781 219.890625 94.109375 C 220.449219 94.671875 221.207031 94.984375 222 94.984375 C 222.792969 94.984375 223.550781 94.671875 224.109375 94.109375 C 224.671875 93.550781 224.984375 92.792969 224.984375 92 Z M 224.984375 92 "/>
<path style=" stroke:none;fill-rule:evenodd;fill:rgb(36.84082%,50.67749%,70.979309%);fill-opacity:1;" d="M 219.984375 59 C 219.984375 58.207031 219.671875 57.449219 219.109375 56.890625 C 218.550781 56.328125 217.792969 56.015625 217 56.015625 C 216.207031 56.015625 215.449219 56.328125 214.890625 56.890625 C 214.328125 57.449219 214.015625 58.207031 214.015625 59 C 214.015625 59.792969 214.328125 60.550781 214.890625 61.109375 C 215.449219 61.671875 216.207031 61.984375 217 61.984375 C 217.792969 61.984375 218.550781 61.671875 219.109375 61.109375 C 219.671875 60.550781 219.984375 59.792969 219.984375 59 Z M 219.984375 59 "/>
<path style=" stroke:none;fill-rule:evenodd;fill:rgb(36.84082%,50.67749%,70.979309%);fill-opacity:1;" d="M 227.984375 289 C 227.984375 288.207031 227.671875 287.449219 227.109375 286.890625 C 226.550781 286.328125 225.792969 286.015625 225 286.015625 C 224.207031 286.015625 223.449219 286.328125 222.890625 286.890625 C 222.328125 287.449219 222.015625 288.207031 222.015625 289 C 222.015625 289.792969 222.328125 290.550781 222.890625 291.109375 C 223.449219 291.671875 224.207031 291.984375 225 291.984375 C 225.792969 291.984375 226.550781 291.671875 227.109375 291.109375 C 227.671875 290.550781 227.984375 289.792969 227.984375 289 Z M 227.984375 289 "/>
<path style=" stroke:none;fill-rule:evenodd;fill:rgb(36.84082%,50.67749%,70.979309%);fill-opacity:1;" d="M 229.984375 159 C 229.984375 158.207031 229.671875 157.449219 229.109375 156.890625 C 228.550781 156.328125 227.792969 156.015625 227 156.015625 C 226.207031 156.015625 225.449219 156.328125 224.890625 156.890625 C 224.328125 157.449219 224.015625 158.207031 224.015625 159 C 224.015625 159.792969 224.328125 160.550781 224.890625 161.109375 C 225.449219 161.671875 226.207031 161.984375 227 161.984375 C 227.792969 161.984375 228.550781 161.671875 229.109375 161.109375 C 229.671875 160.550781 229.984375 159.792969 229.984375 159 Z M 229.984375 159 "/>
<path style=" stroke:none;fill-rule:evenodd;fill:rgb(36.84082%,50.67749%,70.979309%);fill-opacity:1;" d="M 228.984375 77 C 228.984375 76.207031 228.671875 75.449219 228.109375 74.890625 C 227.550781 74.328125 226.792969 74.015625 226 74.015625 C 225.207031 74.015625 224.449219 74.328125 223.890625 74.890625 C 223.328125 75.449219 223.015625 76.207031 223.015625 77 C 223.015625 77.792969 223.328125 78.550781 223.890625 79.109375 C 224.449219 79.671875 225.207031 79.984375 226 79.984375 C 226.792969 79.984375 227.550781 79.671875 228.109375 79.109375 C 228.671875 78.550781 228.984375 77.792969 228.984375 77 Z M 228.984375 77 "/>
<path style=" stroke:none;fill-rule:evenodd;fill:rgb(36.84082%,50.67749%,70.979309%);fill-opacity:1;" d="M 234.984375 24 C 234.984375 23.207031 234.671875 22.449219 234.109375 21.890625 C 233.550781 21.328125 232.792969 21.015625 232 21.015625 C 231.207031 21.015625 230.449219 21.328125 229.890625 21.890625 C 229.328125 22.449219 229.015625 23.207031 229.015625 24 C 229.015625 24.792969 229.328125 25.550781 229.890625 26.109375 C 230.449219 26.671875 231.207031 26.984375 232 26.984375 C 232.792969 26.984375 233.550781 26.671875 234.109375 26.109375 C 234.671875 25.550781 234.984375 24.792969 234.984375 24 Z M 234.984375 24 "/>
</g>
</svg>
